<svg width="100" height="100" viewBox="0 0 100 100" fill="none" xmlns="http://www.w3.org/2000/svg">
<g clip-path="url(#clip0_2179_904)">
<path d="M98.9309 73.321L79.1894 54.9879C78.5718 54.4148 77.7602 54.0969 76.9177 54.0979H73.3329V43.8997C73.6894 44.0292 74.0653 44.0962 74.4446 44.098H74.6713C75.5666 44.0378 76.3989 43.6168 76.9779 42.9314L79.1845 40.3532C80.3775 38.9461 80.2389 36.8463 78.8712 35.6083L73.3329 30.6484V19.0987C73.3329 17.2577 71.8405 15.7653 69.9996 15.7653H64.9997C63.1587 15.7653 61.6664 17.2577 61.6664 19.0987V20.207L52.2149 11.7472C50.9535 10.6194 49.0463 10.6194 47.785 11.7472L21.1289 35.5983C19.7613 36.8358 19.6227 38.9351 20.8156 40.3415L23.0222 42.9314C23.6023 43.6181 24.4368 44.0392 25.3337 44.098C25.7863 44.1259 26.2398 44.0618 26.667 43.9097V54.0979H23.3338C22.4959 54.0959 21.6884 54.4115 21.0739 54.9812L1.07412 73.3142C0.451288 73.9028 0.0828684 74.7113 0.0474371 75.5676C0.027425 75.632 0.0118418 75.6977 0.000851536 75.7643V85.7641C-0.0194886 86.6541 0.32531 87.5138 0.954871 88.1434C1.58443 88.7729 2.44413 89.1176 3.33418 89.0974H96.6659C97.5559 89.1177 98.4156 88.7729 99.0452 88.1434C99.6747 87.5138 100.019 86.6541 99.9992 85.7641V75.7643C99.9899 75.6916 99.9754 75.6197 99.9559 75.5492C99.9142 74.7021 99.5471 73.9036 98.9309 73.321ZM54.9999 65.7644H45V52.4313C45 51.5109 45.7462 50.7647 46.6666 50.7647H53.3331C54.2535 50.7647 54.9997 51.5109 54.9997 52.4313L54.9999 65.7644ZM53.3333 47.4314H46.6668C43.9054 47.4314 41.6669 49.6699 41.6669 52.4313V65.7644H31.6671C30.7467 65.7644 30.0005 65.0182 30.0005 64.0978V41.2498L50.0001 23.3501L69.9997 41.2498V64.0977C69.9997 65.0181 69.2536 65.7643 68.3332 65.7643H58.3334V52.4311C58.3332 49.6699 56.0946 47.4314 53.3333 47.4314ZM64.9997 19.0985H69.9996V27.665L64.9997 23.19V19.0985ZM23.3522 38.0982L49.9999 14.2319L76.6661 38.1832L74.4611 40.7647L51.1116 19.8718C50.4788 19.3052 49.5211 19.3052 48.8883 19.8718L25.5553 40.7647L23.3522 38.0982ZM23.3338 57.4312H26.6671V64.0977C26.6671 66.859 28.9057 69.0976 31.6671 69.0976H68.333C71.0943 69.0976 73.3329 66.859 73.3329 64.0977V57.4312H76.9179L96.6659 75.7643H3.33418L23.3338 57.4312ZM3.33418 85.7641V79.0976H96.6659V85.7641H3.33418Z" fill="#B3D337"/>
</g>
<defs>
<clipPath id="clip0_2179_904">
<rect width="100" height="100" fill="white"/>
</clipPath>
</defs>
</svg>
