<svg width="100" height="100" viewBox="0 0 100 100" fill="none" xmlns="http://www.w3.org/2000/svg">
<g clip-path="url(#clip0_2178_8)">
<path d="M50.2 16.6665C47.2 16.2998 46.6666 15.9832 46.6666 14.5832C46.6666 12.1832 52.2166 11.7165 53.55 13.9332C54.0102 14.7386 55.0362 15.0184 55.8416 14.5582C56.647 14.0979 56.9269 13.0719 56.4666 12.2665C55.3608 10.6434 53.6142 9.57001 51.6666 9.3165V8.33317C51.6666 7.4127 50.9204 6.6665 50 6.6665C49.0795 6.6665 48.3333 7.4127 48.3333 8.33317V9.34984C45.6052 9.62483 43.4837 11.8454 43.3333 14.5832C43.3333 19.1832 47.3833 19.6832 49.8 19.9832C52.8 20.3665 53.3333 20.6832 53.3333 22.0832C53.3333 23.8998 51.25 24.1665 50 24.1665C48.6741 24.2612 47.349 23.9719 46.1833 23.3332C45.5298 22.6796 44.4702 22.6796 43.8166 23.3332C43.1631 23.9867 43.1631 25.0463 43.8166 25.6998C45.0994 26.7345 46.686 27.3199 48.3333 27.3665V28.3332C48.3333 29.2536 49.0795 29.9998 50 29.9998C50.9204 29.9998 51.6666 29.2536 51.6666 28.3332V27.3665C54.462 27.1915 56.6458 24.884 56.6666 22.0832C56.6666 17.4832 52.6166 16.9832 50.2 16.6665Z" fill="#B3D337"/>
<path d="M38.3333 8.33318C38.3333 7.41271 37.5871 6.66652 36.6667 6.66652H24.8833C24.2855 6.66414 23.7322 6.98213 23.4333 7.49985C22.4099 9.27161 20.9384 10.7431 19.1667 11.7665C18.6489 12.0654 18.331 12.6187 18.3333 13.2165V23.4499C18.331 24.0477 18.6489 24.6009 19.1667 24.8999C20.9384 25.9233 22.4099 27.3948 23.4333 29.1665C23.7322 29.6842 24.2855 30.0022 24.8833 29.9999H36.6667C37.5871 29.9999 38.3333 29.2537 38.3333 28.3332C38.3333 27.4127 37.5871 26.6665 36.6667 26.6665H25.8C24.7111 25.0274 23.3058 23.6221 21.6667 22.5332V14.1999C23.3123 13.0914 24.718 11.663 25.8 9.99985H36.6667C37.5871 9.99985 38.3333 9.25366 38.3333 8.33318Z" fill="#B3D337"/>
<path d="M80.8333 11.7665C79.0615 10.7431 77.5901 9.27161 76.5666 7.49985C76.2677 6.98213 75.7144 6.66414 75.1166 6.66652H63.3333C62.4128 6.66652 61.6666 7.41271 61.6666 8.33318C61.6666 9.25366 62.4128 9.99985 63.3333 9.99985H74.2C75.2889 11.639 76.6941 13.0442 78.3333 14.1332V22.4665C76.6876 23.575 75.2819 25.0033 74.2 26.6665H63.3333C62.4128 26.6665 61.6666 27.4127 61.6666 28.3332C61.6666 29.2537 62.4128 29.9999 63.3333 29.9999H75.1166C75.7144 30.0022 76.2677 29.6842 76.5666 29.1665C77.5901 27.3948 79.0615 25.9233 80.8333 24.8999C81.351 24.6009 81.669 24.0477 81.6666 23.4499V13.2165C81.669 12.6187 81.351 12.0654 80.8333 11.7665Z" fill="#B3D337"/>
<path d="M33.3333 19.9998C34.2538 19.9998 35 19.2536 35 18.3332C35 17.4127 34.2538 16.6665 33.3333 16.6665C32.4128 16.6665 31.6666 17.4127 31.6666 18.3332C31.6666 19.2536 32.4128 19.9998 33.3333 19.9998Z" fill="#B3D337"/>
<path d="M66.6667 19.9998C67.5871 19.9998 68.3333 19.2536 68.3333 18.3332C68.3333 17.4127 67.5871 16.6665 66.6667 16.6665C65.7462 16.6665 65 17.4127 65 18.3332C65 19.2536 65.7462 19.9998 66.6667 19.9998Z" fill="#B3D337"/>
<path d="M72.5 66.8833C72.1333 67.1 63.5333 72.0999 60.8333 81.1833C60.6816 81.6118 60.7115 82.0836 60.916 82.4896C61.1205 82.8955 61.482 83.2003 61.9167 83.3333C62.341 83.4628 62.7995 83.4178 63.1905 83.2082C63.5816 82.9986 63.8729 82.6417 64 82.2166C66.3333 74.4333 74.0833 69.8833 74.1666 69.8499C74.6847 69.5522 75.0045 69.0008 75.0057 68.4033C75.0069 67.8058 74.6892 67.253 74.1724 66.9533C73.6555 66.6535 73.018 66.6522 72.5 66.9499V66.8833Z" fill="#B3D337"/>
<path d="M25.8333 69.7833C25.9166 69.7833 33.65 74.3167 36 82.15C36.1727 82.7216 36.6372 83.1577 37.2186 83.294C37.7999 83.4302 38.4099 83.246 38.8186 82.8106C39.2273 82.3753 39.3727 81.755 39.2 81.1833C36.4666 72.1 27.8666 67.1 27.5333 66.8833C26.7325 66.4231 25.7102 66.6992 25.25 67.5C24.7897 68.3008 25.0658 69.3231 25.8666 69.7833H25.8333Z" fill="#B3D337"/>
<path d="M16.8833 52.5667V52.4833C16.45 51.3833 12.6667 41.6667 6.66666 41.6667C5.52178 41.5739 4.415 42.1018 3.76666 43.05C2.71666 44.6167 3.43333 46.75 4.05 48.2333C4.88563 50.297 5.29933 52.5071 5.26666 54.7333C5.08844 59.4419 5.65085 64.1493 6.93333 68.6833C8.7 73.9833 15.2667 80.35 15.2667 88.2667C15.3961 90.6663 14.9265 93.0605 13.9 95.2333C13.3562 96.2218 13.37 97.4228 13.9363 98.3985C14.5027 99.3742 15.5387 99.9819 16.6667 100H43.3333C43.8404 99.9977 44.3189 99.7646 44.6333 99.3667C47.0116 96.1701 48.8265 92.5909 50 88.7833C51.1735 92.5909 52.9884 96.1701 55.3667 99.3667C55.6811 99.7646 56.1595 99.9977 56.6667 100H83.3333C84.4673 99.9935 85.514 99.3904 86.0883 98.4126C86.6627 97.4349 86.6798 96.2269 86.1333 95.2333C85.0947 93.0864 84.6024 90.7163 84.7 88.3333C84.7 80.5 91.2 74.0667 93.0333 68.75C94.344 64.2204 94.9345 59.513 94.7833 54.8C94.7507 52.5738 95.1644 50.3637 96 48.3C96.6167 46.8333 97.3333 44.6833 96.3 43.1167C95.6368 42.1431 94.509 41.5918 93.3333 41.6667C87.3333 41.6667 83.55 51.3833 83.1167 52.5333C83.1167 52.7333 81.7333 47.2333 80.0833 43.3333H85.0833C86.9243 43.3333 88.4167 41.8409 88.4167 40V3.33333C88.4167 1.49238 86.9243 0 85.0833 0H15C13.159 0 11.6667 1.49238 11.6667 3.33333V40C11.6667 41.8409 13.159 43.3333 15 43.3333H20C18.7666 46.342 17.7256 49.426 16.8833 52.5667ZM81.3333 58.3333C80.9644 60.3666 79.9745 62.2356 78.5 63.6833C78.0192 64.1601 77.8747 64.8804 78.1344 65.5058C78.394 66.1312 79.0062 66.5373 79.6833 66.5333C80.1263 66.5359 80.5521 66.362 80.8667 66.05C82.8895 64.0132 84.2141 61.3873 84.65 58.55L86.3167 53.7167C87.35 50.9167 90.5333 44.9 93.4833 45.0667C93.4061 45.7367 93.2203 46.3897 92.9333 47C91.9169 49.473 91.4123 52.1265 91.45 54.8C91.5688 59.1605 91.0065 63.5129 89.7833 67.7C88.1167 72.4333 81.3333 79.3667 81.3333 88.3333C81.2285 91.2033 81.7994 94.0578 83 96.6667H57.5167C53.8218 91.2562 51.7885 84.8839 51.6667 78.3333V43.3333H54.3667C56.5334 48.5523 57.7416 54.1191 57.9333 59.7667C57.9333 60.6871 58.6795 61.4333 59.6 61.4333C60.5205 61.4333 61.2667 60.6871 61.2667 59.7667C61.106 54.1383 59.9785 48.5795 57.9333 43.3333H61.4667C63.3102 46.8681 64.3838 50.7535 64.6167 54.7333C64.6167 55.6538 65.3629 56.4 66.2833 56.4C67.2038 56.4 67.95 55.6538 67.95 54.7333C67.7828 50.7832 66.825 46.9068 65.1333 43.3333H68.9C70.3276 46.3909 71.1483 49.6964 71.3167 53.0667C71.3167 53.9871 72.0629 54.7333 72.9833 54.7333C73.9038 54.7333 74.65 53.9871 74.65 53.0667C74.5294 49.7204 73.8068 46.4233 72.5167 43.3333H76.4667C77.9667 46.55 78.3333 48.3333 81.3333 58.3333ZM15 3.33333H85V33.3333H15V3.33333ZM15 36.6667H85V40H15V36.6667ZM27.4833 43.3333C26.1932 46.4233 25.4706 49.7204 25.35 53.0667C25.35 53.9871 26.0962 54.7333 27.0167 54.7333C27.9371 54.7333 28.6833 53.9871 28.6833 53.0667C28.8517 49.6964 29.6724 46.3909 31.1 43.3333H34.8667C33.175 46.9068 32.2172 50.7832 32.05 54.7333C32.05 55.6538 32.7962 56.4 33.7167 56.4C34.6371 56.4 35.3833 55.6538 35.3833 54.7333C35.6162 50.7535 36.6898 46.8681 38.5333 43.3333H42.0667C40.0215 48.5795 38.894 54.1383 38.7333 59.7667C38.7333 60.6871 39.4795 61.4333 40.4 61.4333C41.3205 61.4333 42.0667 60.6871 42.0667 59.7667C42.2583 54.1191 43.4666 48.5523 45.6333 43.3333H48.3333V78.3333C48.2115 84.8839 46.1782 91.2562 42.4833 96.6667H16.95C18.1506 94.0578 18.7215 91.2033 18.6167 88.3333C18.6167 79.4333 11.7333 72.4 10.1667 67.7C8.94352 63.5129 8.38121 59.1605 8.5 54.8C8.53773 52.1265 8.03313 49.473 7.01666 47C6.75702 46.3628 6.60495 45.687 6.56666 45C9.5 44.85 12.6833 50.8167 13.7167 53.5833L15.3833 58.4833C15.8192 61.3206 17.1438 63.9466 19.1667 65.9833C19.5894 66.4061 20.2056 66.5712 20.7831 66.4165C21.3606 66.2617 21.8117 65.8106 21.9665 65.2331C22.1212 64.6556 21.9561 64.0394 21.5333 63.6167C20.0646 62.1867 19.0649 60.3442 18.6667 58.3333C21.7833 47.9167 22 46.5167 23.5333 43.3333H27.4833Z" fill="#B3D337"/>
<path d="M99.8166 34.2498C99.4007 33.4327 98.4027 33.105 97.5833 33.5165L94.25 35.1832C93.5664 35.5334 93.2106 36.3054 93.3885 37.0526C93.5664 37.7998 94.2319 38.3286 95 38.3332C95.5166 38.3332 95.4166 38.3332 99.0833 36.4832C99.9005 36.0672 100.228 35.0693 99.8166 34.2498Z" fill="#B3D337"/>
<path d="M95.2833 24.0832L91.95 29.0832C91.5432 29.8415 91.7807 30.7849 92.4981 31.2603C93.2154 31.7357 94.1768 31.5867 94.7167 30.9165L98.05 25.9165C98.4568 25.1581 98.2193 24.2147 97.5019 23.7393C96.7845 23.264 95.8232 23.413 95.2833 24.0832Z" fill="#B3D337"/>
<path d="M0.183316 34.2498C-0.228224 35.0693 0.0994615 36.0672 0.91665 36.4832L4.24998 38.1498C4.78528 38.4719 5.45577 38.4676 5.98688 38.1387C6.51799 37.8097 6.82054 37.2113 6.77062 36.5886C6.7207 35.9659 6.32672 35.4233 5.74998 35.1832L2.41665 33.5165C1.59723 33.105 0.599276 33.4327 0.183316 34.2498Z" fill="#B3D337"/>
<path d="M4.71663 24.0834C4.41767 23.5261 3.82899 23.186 3.19683 23.2054C2.56466 23.2248 1.99794 23.6003 1.73369 24.1749C1.46945 24.7495 1.55322 25.4242 1.94996 25.9168L5.2833 30.9168C5.58226 31.4741 6.17093 31.8142 6.8031 31.7948C7.43527 31.7754 8.00199 31.3999 8.26624 30.8253C8.53048 30.2507 8.44671 29.576 8.04996 29.0834L4.71663 24.0834Z" fill="#B3D337"/>
</g>
<defs>
<clipPath id="clip0_2178_8">
<rect width="100" height="100" fill="white"/>
</clipPath>
</defs>
</svg>
