<svg width="100" height="100" viewBox="0 0 100 100" fill="none" xmlns="http://www.w3.org/2000/svg">
<g clip-path="url(#clip0_2161_2)">
<path d="M100 6.05469C100 23.1201 100 40.1611 100 57.2266C99.4385 58.1299 98.6328 58.374 97.6074 58.374C87.1582 58.3496 76.709 58.3496 66.2598 58.3496C65.8691 58.3496 65.5029 58.3496 65.0146 58.3496C65.0146 59.9609 65.0391 61.499 65.0146 63.0127C64.9902 64.3311 64.3555 64.9658 63.0127 65.0146C62.5977 65.0146 62.1826 65.0146 61.6943 65.0146C61.6943 66.5771 61.6943 68.042 61.6943 69.4824C61.6943 71.0449 61.084 71.6553 59.4971 71.6553C58.0322 71.6553 56.5918 71.6553 55.127 71.6553C55.127 80.0293 55.127 88.3057 55.127 96.6553C55.5908 96.6553 55.9814 96.6553 56.3477 96.6553C70.0439 96.6553 83.7402 96.6553 97.4365 96.6309C98.4619 96.6309 99.3408 96.8018 100 97.6318C100 98.4131 100 99.1943 100 99.9756C66.9922 99.9756 33.9844 99.9756 0.976562 99.9756C0.805664 99.8047 0.537109 99.6582 0.463867 99.4385C0.292969 98.877 0 98.2178 0.170898 97.7539C0.341797 97.29 1.02539 96.9727 1.53809 96.7041C1.83105 96.5576 2.24609 96.6553 2.58789 96.6553C16.2842 96.6553 29.9805 96.6553 43.7012 96.6553C44.0918 96.6553 44.458 96.6553 44.8975 96.6553C44.8975 88.2812 44.8975 80.0049 44.8975 71.6553C43.4326 71.6553 42.041 71.6553 40.6494 71.6553C38.8672 71.6553 38.3057 71.0938 38.3057 69.3359C38.3057 67.9199 38.3057 66.5039 38.3057 65.0391C37.9883 65.0146 37.8174 65.0147 37.6221 64.9902C35.376 64.9414 34.9854 64.5508 34.9854 62.2559C34.9854 60.9619 34.9854 59.668 34.9854 58.3252C34.4727 58.3252 34.082 58.3252 33.6914 58.3252C23.3154 58.3252 12.9395 58.3252 2.53906 58.3252C0.488281 58.3252 0 57.8369 0 55.8105C0 39.6973 0 23.584 0 7.4707C0 7.29981 0 7.15332 0 6.98242C0.0244141 5.59082 0.585937 4.95606 2.00195 4.93164C3.73535 4.88281 5.44434 4.93164 7.17773 4.90723C7.51953 4.90723 7.86133 4.88281 8.30078 4.8584C8.30078 4.27246 8.30078 3.80859 8.30078 3.32031C8.30078 2.83203 8.27637 2.34375 8.30078 1.85547C8.37402 0.537109 8.95996 -0.0488281 10.2539 -0.0488281C14.5264 0 18.7988 0 23.0713 0C24.3652 0 24.9756 0.610352 25 1.9043C25.0244 2.90527 25 3.90625 25 4.8584C30.6152 4.8584 36.084 4.8584 41.626 4.8584C41.626 3.85742 41.6016 2.9541 41.626 2.05078C41.6504 0.610351 42.2852 -0.0244141 43.7256 -0.0244141C47.9004 -0.0244141 52.0508 -0.0244141 56.2256 -0.0244141C57.7148 -0.0244141 58.3496 0.585938 58.3496 2.09961C58.374 3.00293 58.3496 3.90625 58.3496 4.8584C63.9404 4.8584 69.4092 4.8584 74.9756 4.8584C74.9756 3.90625 74.9756 3.00293 74.9756 2.09961C74.9756 0.537109 75.5371 -0.0244141 77.0752 -0.0244141C81.2012 -0.0244141 85.3516 -0.0244141 89.4775 -0.0244141C91.0889 -0.0244141 91.626 0.512695 91.6504 2.14844C91.6748 3.05176 91.6504 3.95508 91.6504 4.93164C93.7012 4.93164 95.6299 4.95606 97.5342 4.93164C98.5596 4.93164 99.4385 5.15137 100 6.05469ZM3.36914 8.42285C3.36914 23.9746 3.36914 39.4043 3.36914 54.8828C34.4727 54.8828 65.5273 54.8828 96.6064 54.8828C96.6064 39.3555 96.6064 23.9014 96.6064 8.44727C94.9463 8.44727 93.3594 8.44727 91.6748 8.44727C91.6748 9.49707 91.6992 10.4736 91.6748 11.4502C91.626 12.7197 91.0645 13.3301 89.7949 13.3301C85.498 13.3545 81.2012 13.3545 76.9043 13.3301C75.5615 13.3301 75 12.6953 75 11.3037C75 10.3516 75 9.375 75 8.44727C69.3604 8.44727 63.8916 8.44727 58.374 8.44727C58.374 9.375 58.374 10.2051 58.374 11.0596C58.374 12.7197 57.7881 13.3301 56.1768 13.3301C52.0752 13.3545 47.9736 13.3545 43.8721 13.3301C42.2363 13.3301 41.6504 12.7197 41.626 11.084C41.626 10.1807 41.626 9.30176 41.626 8.39844C36.0107 8.39844 30.542 8.39844 25.1221 8.39844C25.0732 8.49609 25.0244 8.54492 25.0244 8.61816C25.0244 9.47266 25 10.3027 25 11.1572C25 12.7197 24.4629 13.3057 22.9248 13.3301C18.75 13.3545 14.5996 13.3545 10.4248 13.3301C8.88672 13.3301 8.34961 12.7441 8.3252 11.1816C8.30078 10.2783 8.3252 9.375 8.3252 8.42285C6.61621 8.42285 5.0293 8.42285 3.36914 8.42285ZM48.4619 71.7041C48.4619 80.0781 48.4619 88.3301 48.4619 96.6065C49.5361 96.6065 50.5371 96.6065 51.5625 96.6065C51.5625 88.2813 51.5625 80.0049 51.5625 71.7041C50.4883 71.7041 49.5117 71.7041 48.4619 71.7041ZM61.5234 58.4473C53.833 58.4473 46.1426 58.4473 38.3545 58.4473C38.3545 59.1797 38.4033 59.8633 38.3301 60.5469C38.2324 61.4502 38.5498 61.6943 39.4531 61.6943C45.9229 61.6455 52.3926 61.6699 58.8623 61.6699C61.8896 61.6699 61.8896 61.6699 61.6211 58.6182C61.6211 58.5693 61.5723 58.5449 61.5234 58.4473ZM21.6553 3.39355C18.3105 3.39355 15.0391 3.39355 11.7676 3.39355C11.7676 5.61523 11.7676 7.76367 11.7676 9.91211C15.1123 9.91211 18.3594 9.91211 21.6553 9.91211C21.6553 7.71484 21.6553 5.59082 21.6553 3.39355ZM88.2812 3.39355C84.9365 3.39355 81.665 3.39355 78.3936 3.39355C78.3936 5.61523 78.3936 7.76367 78.3936 9.8877C81.7383 9.8877 84.9854 9.8877 88.2812 9.8877C88.2812 7.71484 88.2812 5.59082 88.2812 3.39355ZM45.0928 9.8877C48.4131 9.8877 51.6602 9.8877 54.9072 9.8877C54.9072 7.66602 54.9072 5.54199 54.9072 3.39355C51.6113 3.39355 48.3643 3.39355 45.0928 3.39355C45.0928 5.59082 45.0928 7.73926 45.0928 9.8877ZM58.252 65.1123C52.71 65.1123 47.2412 65.1123 41.7725 65.1123C41.7725 66.2109 41.7725 67.2363 41.7725 68.3105C47.29 68.3105 52.7344 68.3105 58.252 68.3105C58.252 67.2119 58.252 66.1621 58.252 65.1123Z" fill="#B3D337"/>
</g>
<defs>
<clipPath id="clip0_2161_2">
<rect width="100" height="100" fill="white"/>
</clipPath>
</defs>
</svg>
