<svg width="100" height="100" viewBox="0 0 100 100" fill="none" xmlns="http://www.w3.org/2000/svg">
<g clip-path="url(#clip0_2179_131)">
<path d="M5 100H13.3333C14.7475 99.9956 16.0929 99.3895 17.0333 98.3333H58.8333C61.2787 98.3341 63.677 97.6612 65.765 96.3883L97 77.3733C99.7127 75.723 100.753 72.2984 99.4166 69.4181C98.0801 66.5378 94.7934 65.1209 91.7817 66.1267L60.9317 76.41C60.4217 76.58 59.8876 76.6667 59.35 76.6667H58.3917C59.1842 74.4965 58.9558 72.0845 57.77 70.1017L57.6217 69.8567C55.8094 66.8528 52.5615 65.0119 49.0533 65H40.3333C37.2582 64.9965 34.2751 63.9501 31.8717 62.0317C28.8778 59.6433 25.1631 58.3397 21.3333 58.3333H18.0267C17.3229 56.3427 15.4446 55.0088 13.3333 55H5C2.23858 55 0 57.2386 0 60V66.6667C0 67.5871 0.746192 68.3333 1.66667 68.3333C2.58714 68.3333 3.33333 67.5871 3.33333 66.6667V60C3.33333 59.0795 4.07953 58.3333 5 58.3333H13.3333C14.2538 58.3333 15 59.0795 15 60V95C15 95.9205 14.2538 96.6667 13.3333 96.6667H5C4.07953 96.6667 3.33333 95.9205 3.33333 95V75C3.33333 74.0795 2.58714 73.3333 1.66667 73.3333C0.746192 73.3333 0 74.0795 0 75V95C0 97.7614 2.23858 100 5 100ZM29.7917 64.635C32.7864 67.0241 36.5024 68.3278 40.3333 68.3333H49.05C51.3904 68.3399 53.5577 69.5676 54.7667 71.5717L54.915 71.8167C55.825 73.3337 55.7268 75.2505 54.6667 76.6667H44.5417C41.2511 76.6632 38.0338 77.6378 35.2983 79.4667L34.0767 80.28C33.5696 80.6053 33.2776 81.1788 33.3128 81.7802C33.3479 82.3815 33.7049 82.9171 34.2464 83.181C34.7879 83.4449 35.4297 83.3961 35.925 83.0533L37.1467 82.24C39.3352 80.777 41.9091 79.9973 44.5417 80H59.3567C60.2522 80.0003 61.142 79.8562 61.9917 79.5733L92.8433 69.2883C94.0313 68.8919 95.3395 69.3033 96.0867 70.3083C96.5771 70.9627 96.7684 71.7938 96.6136 72.5967C96.4587 73.3997 95.972 74.1 95.2733 74.525L64.0317 93.5417C62.4657 94.4959 60.6672 95.0005 58.8333 95H18.3333V61.6667H21.3333C24.4074 61.6709 27.3891 62.7173 29.7917 64.635Z" fill="#B3D337"/>
<path d="M78.3333 22.68C79.008 21.6327 79.0389 20.2957 78.4133 19.2183L73.5467 10.7833C72.9269 9.70163 71.7536 9.05804 70.5083 9.11667L67.4067 9.25667L59.26 4.55334L57.8333 1.79834C57.2594 0.69205 56.1163 -0.00166681 54.87 3.00776e-06H45.13C43.8837 -0.00166681 42.7406 0.69205 42.1667 1.79834L40.7367 4.55334L32.5917 9.25834L29.5 9.11834C28.2559 9.0647 27.085 9.70696 26.4617 10.785L21.5917 19.2217C20.9659 20.2972 20.9949 21.6326 21.6667 22.68L23.3333 25.295V34.705L21.6667 37.32C20.992 38.3673 20.9611 39.7043 21.5867 40.7817L26.4567 49.2167C27.0679 50.307 28.247 50.9538 29.495 50.8833L32.5967 50.7433L40.7433 55.4483L42.1733 58.2033C42.7466 59.3068 43.8865 59.9995 45.13 60H54.87C56.1163 60.0017 57.2594 59.308 57.8333 58.2017L59.2633 55.4467L67.4117 50.7417L70.51 50.8817C71.7576 50.9501 72.9357 50.3039 73.5483 49.215L78.4183 40.7783C79.041 39.7009 79.0082 38.3655 78.3333 37.32L76.6667 34.705V25.295L78.3333 22.68ZM73.8567 36.5L75.5233 39.115L70.6667 47.5517L67.5683 47.4117C66.9318 47.3824 66.3002 47.5363 65.7483 47.855L57.6033 52.5583C57.0512 52.8764 56.6018 53.3461 56.3083 53.9117L54.87 56.6667H45.13L43.7 53.9117C43.4072 53.3466 42.9583 52.8774 42.4067 52.56L34.26 47.855C33.7535 47.562 33.1785 47.4079 32.5933 47.4083H32.4383L29.3383 47.5483L24.4683 39.1117L26.135 36.4933C26.4788 35.96 26.6633 35.3396 26.6667 34.705V25.295C26.667 24.659 26.4855 24.0362 26.1433 23.5L24.4767 20.885L29.3467 12.4483L32.445 12.5883C33.0819 12.6208 33.7144 12.4667 34.265 12.145L42.41 7.44167C42.9621 7.12361 43.4116 6.65395 43.705 6.08834L45.13 3.33334H54.87L56.3 6.08834C56.5928 6.65344 57.0417 7.12259 57.5933 7.44L65.74 12.145C66.2916 12.4628 66.9224 12.6166 67.5583 12.5883L70.6583 12.4483L75.5283 20.885L73.8617 23.5033C73.5184 24.038 73.3351 24.6596 73.3333 25.295V34.705C73.333 35.341 73.5146 35.9639 73.8567 36.5Z" fill="#B3D337"/>
<path d="M40.2517 12.5418C39.7321 12.833 39.4074 13.3792 39.3998 13.9747C39.3922 14.5702 39.7029 15.1245 40.2148 15.4289C40.7267 15.7332 41.3621 15.7413 41.8817 15.4501C48.3875 11.8314 56.5043 12.9661 61.7683 18.2302C67.0324 23.4942 68.1671 31.611 64.5483 38.1168C64.0982 38.9199 64.3844 39.9359 65.1875 40.386C65.9906 40.8361 67.0066 40.5499 67.4567 39.7468C71.8065 31.9384 70.4472 22.1918 64.1269 15.8715C57.8067 9.55127 48.06 8.19197 40.2517 12.5418Z" fill="#B3D337"/>
<path d="M58.1183 44.5498C51.6125 48.1686 43.4958 47.0339 38.2317 41.7698C32.9676 36.5057 31.8329 28.389 35.4517 21.8832C35.9018 21.08 35.6156 20.0641 34.8125 19.614C34.0094 19.1639 32.9934 19.45 32.5433 20.2532C28.1935 28.0615 29.5528 37.8082 35.8731 44.1284C42.1933 50.4487 51.94 51.808 59.7483 47.4582C60.2679 47.167 60.5926 46.6208 60.6002 46.0253C60.6078 45.4298 60.2971 44.8754 59.7852 44.5711C59.2733 44.2668 58.6379 44.2587 58.1183 44.5498Z" fill="#B3D337"/>
<path d="M45 35.8333C45 34.9129 44.2538 34.1667 43.3333 34.1667C42.4129 34.1667 41.6667 34.9129 41.6667 35.8333C41.8276 39.5693 44.6306 42.659 48.3333 43.1817V43.3333C48.3333 44.2538 49.0795 45 50 45C50.9205 45 51.6667 44.2538 51.6667 43.3333V43.1817C55.3694 42.659 58.1724 39.5693 58.3333 35.8333C58.1724 32.0973 55.3694 29.0077 51.6667 28.485V20.2567C53.5214 20.6774 54.878 22.2687 55 24.1667C55 25.0871 55.7462 25.8333 56.6667 25.8333C57.5871 25.8333 58.3333 25.0871 58.3333 24.1667C58.1724 20.4307 55.3694 17.341 51.6667 16.8183V16.6667C51.6667 15.7462 50.9205 15 50 15C49.0795 15 48.3333 15.7462 48.3333 16.6667V16.8183C44.6306 17.341 41.8276 20.4307 41.6667 24.1667C41.8276 27.9027 44.6306 30.9923 48.3333 31.515V39.7433C46.4786 39.3226 45.122 37.7313 45 35.8333ZM55 35.8333C54.878 37.7313 53.5214 39.3226 51.6667 39.7433V31.9233C53.5214 32.3441 54.878 33.9354 55 35.8333ZM45 24.1667C45.122 22.2687 46.4786 20.6774 48.3333 20.2567V28.0767C46.4786 27.6559 45.122 26.0646 45 24.1667Z" fill="#B3D337"/>
</g>
<defs>
<clipPath id="clip0_2179_131">
<rect width="100" height="100" fill="white"/>
</clipPath>
</defs>
</svg>
