<svg width="100" height="100" viewBox="0 0 100 100" fill="none" xmlns="http://www.w3.org/2000/svg">
<g clip-path="url(#clip0_2161_310)">
<path d="M20 65C18.6815 65 17.3926 65.391 16.2962 66.1235C15.1999 66.8561 14.3454 67.8973 13.8408 69.1154C13.3363 70.3336 13.2042 71.6741 13.4615 72.9673C13.7187 74.2605 14.3536 75.4484 15.286 76.3807C16.2183 77.3131 17.4062 77.948 18.6994 78.2052C19.9926 78.4625 21.3331 78.3304 22.5513 77.8259C23.7694 77.3213 24.8106 76.4668 25.5432 75.3705C26.2757 74.2741 26.6667 72.9852 26.6667 71.6667C26.6667 69.8986 25.9643 68.2029 24.7141 66.9526C23.4638 65.7024 21.7682 65 20 65ZM20 75C19.3408 75 18.6963 74.8045 18.1481 74.4382C17.6 74.072 17.1727 73.5514 16.9204 72.9423C16.6682 72.3332 16.6021 71.663 16.7308 71.0164C16.8594 70.3698 17.1768 69.7758 17.643 69.3096C18.1092 68.8435 18.7031 68.526 19.3497 68.3974C19.9963 68.2688 20.6666 68.3348 21.2757 68.5871C21.8847 68.8394 22.4053 69.2666 22.7716 69.8148C23.1379 70.3629 23.3334 71.0074 23.3334 71.6667C23.3334 72.5507 22.9822 73.3986 22.3571 74.0237C21.7319 74.6488 20.8841 75 20 75Z" fill="#B3D337"/>
<path d="M73.3334 71.6667C73.3334 72.9852 73.7244 74.2741 74.4569 75.3705C75.1895 76.4668 76.2306 77.3213 77.4488 77.8259C78.667 78.3304 80.0074 78.4625 81.3006 78.2052C82.5939 77.948 83.7817 77.3131 84.7141 76.3807C85.6464 75.4484 86.2814 74.2605 86.5386 72.9673C86.7958 71.6741 86.6638 70.3336 86.1592 69.1154C85.6547 67.8973 84.8002 66.8561 83.7038 66.1235C82.6075 65.391 81.3186 65 80 65C78.2319 65 76.5362 65.7024 75.286 66.9526C74.0358 68.2029 73.3334 69.8986 73.3334 71.6667ZM83.3334 71.6667C83.3334 72.3259 83.1379 72.9704 82.7716 73.5186C82.4053 74.0667 81.8847 74.494 81.2757 74.7463C80.6666 74.9986 79.9963 75.0646 79.3497 74.936C78.7031 74.8073 78.1092 74.4899 77.643 74.0237C77.1768 73.5575 76.8594 72.9636 76.7308 72.317C76.6021 71.6704 76.6681 71.0001 76.9204 70.3911C77.1727 69.782 77.6 69.2614 78.1481 68.8951C78.6963 68.5288 79.3408 68.3333 80 68.3333C80.8841 68.3333 81.7319 68.6845 82.3571 69.3096C82.9822 69.9348 83.3334 70.7826 83.3334 71.6667Z" fill="#B3D337"/>
<path d="M76.7234 30.5148L62.27 13.4365C61.8006 12.8819 61.216 12.4362 60.5569 12.1305C59.8978 11.8249 59.1799 11.6665 58.4533 11.6665H45C44.116 11.6665 43.2681 12.0177 42.643 12.6428C42.0179 13.2679 41.6667 14.1158 41.6667 14.9998V18.3332C41.6667 19.2172 42.0179 20.0651 42.643 20.6902C43.2681 21.3153 44.116 21.6665 45 21.6665H56.11L64.11 35.8732L58.0817 42.7632C57.9254 42.942 57.7328 43.0853 57.5166 43.1836C57.3005 43.282 57.0658 43.3329 56.8283 43.3332H51.5783C50.5933 30.2248 38.3067 26.6665 31.6667 26.6665H10C8.2319 26.6665 6.5362 27.3689 5.28596 28.6191C4.03572 29.8694 3.33334 31.5651 3.33334 33.3332V34.9998C2.44928 34.9998 1.60144 35.351 0.976316 35.9762C0.351195 36.6013 4.94769e-06 37.4491 4.94769e-06 38.3332V46.3582C-0.000815784 46.8346 0.100481 47.3056 0.297069 47.7395C0.493658 48.1734 0.780971 48.5602 1.13965 48.8737C1.49833 49.1872 1.92003 49.4202 2.37636 49.5569C2.83268 49.6937 3.31302 49.7311 3.78501 49.6665C5.38754 49.4502 7.00147 49.3289 8.61834 49.3032L13.1467 58.3332C10.6394 59.6127 8.54203 61.5709 7.09363 63.9845C5.64523 66.3981 4.90407 69.1702 4.95462 71.9846C5.00518 74.799 5.84541 77.5426 7.37956 79.9027C8.9137 82.2628 11.08 84.1444 13.6316 85.333C16.1833 86.5216 19.0175 86.9695 21.8113 86.6255C24.605 86.2816 27.246 85.1596 29.4331 83.3876C31.6202 81.6156 33.2655 79.2647 34.1814 76.603C35.0973 73.9413 35.2469 71.0758 34.6133 68.3332H40V71.9732C38.8889 72.3645 37.9521 73.1365 37.3556 74.1524C36.7591 75.1683 36.5414 76.3625 36.741 77.5235C36.9407 78.6845 37.5447 79.7374 38.4463 80.4957C39.3478 81.254 40.4886 81.6687 41.6667 81.6665H58.3333C59.5114 81.6687 60.6522 81.254 61.5538 80.4957C62.4553 79.7374 63.0594 78.6845 63.259 77.5235C63.4586 76.3625 63.2409 75.1683 62.6444 74.1524C62.0479 73.1365 61.1111 72.3645 60 71.9732V68.3332H65.3867C64.7601 71.0703 64.9144 73.9284 65.832 76.5822C66.7496 79.236 68.3937 81.579 70.5772 83.3445C72.7607 85.11 75.3959 86.2272 78.183 86.5689C80.9701 86.9106 83.7972 86.4631 86.3425 85.2774C88.8878 84.0917 91.0492 82.2153 92.5808 79.8618C94.1123 77.5083 94.9525 74.7722 95.0058 71.9647C95.059 69.1573 94.3231 66.3912 92.8819 63.9813C91.4407 61.5715 89.3519 59.6145 86.8533 58.3332L91.3667 49.3332C93.5792 49.3381 95.7866 49.549 97.96 49.9632C98.2047 50.0194 98.459 50.0196 98.7038 49.9639C98.9486 49.9081 99.1776 49.7977 99.3737 49.6409C99.5699 49.4842 99.7281 49.2852 99.8365 49.0587C99.945 48.8323 100.001 48.5843 100 48.3332C100 35.5898 85.635 31.6998 76.7234 30.5148ZM45 18.3332V14.9998H52.36L54.235 18.3332H45ZM56.1833 14.9998H58.4533C58.6957 14.9997 58.9352 15.0524 59.1551 15.1543C59.3751 15.2562 59.5701 15.4048 59.7267 15.5898L71.9783 30.0682L71.7217 30.0548C70.9672 30.0138 70.2133 30.1456 69.5174 30.4402C68.8216 30.7348 68.2023 31.1845 67.7067 31.7548L66.43 33.2148L56.1833 14.9998ZM6.66667 33.3332C6.66667 32.4491 7.01786 31.6013 7.64298 30.9762C8.2681 30.351 9.11595 29.9998 10 29.9998H31.6667C32.3217 29.9998 47.0417 30.2448 48.2217 43.3332H40.7467C39.576 43.3296 38.4435 42.9169 37.545 42.1665L31.255 36.9232C29.7552 35.6799 27.8681 34.9996 25.92 34.9998H6.66667V33.3332ZM20 83.3332C17.6926 83.3332 15.4369 82.6489 13.5184 81.367C11.5998 80.085 10.1044 78.263 9.22141 76.1311C8.33839 73.9993 8.10735 71.6536 8.55751 69.3905C9.00767 67.1273 10.1188 65.0485 11.7504 63.4169C13.382 61.7853 15.4608 60.6742 17.724 60.224C19.9871 59.7739 22.3328 60.0049 24.4646 60.8879C26.5965 61.7709 28.4185 63.2663 29.7005 65.1849C30.9824 67.1034 31.6667 69.3591 31.6667 71.6665C31.6631 74.7596 30.4329 77.725 28.2457 79.9122C26.0585 82.0994 23.0931 83.3297 20 83.3332ZM58.3333 78.3332H41.6667C41.2247 78.3332 40.8007 78.1576 40.4882 77.845C40.1756 77.5325 40 77.1085 40 76.6665C40 76.2245 40.1756 75.8006 40.4882 75.488C40.8007 75.1754 41.2247 74.9998 41.6667 74.9998H58.3333C58.7754 74.9998 59.1993 75.1754 59.5119 75.488C59.8244 75.8006 60 76.2245 60 76.6665C60 77.1085 59.8244 77.5325 59.5119 77.845C59.1993 78.1576 58.7754 78.3332 58.3333 78.3332ZM56.6667 71.6665H43.3333V68.3332H56.6667V71.6665ZM91.6667 71.6665C91.6667 73.974 90.9824 76.2296 89.7005 78.1482C88.4185 80.0667 86.5965 81.5621 84.4647 82.4451C82.3328 83.3281 79.9871 83.5592 77.724 83.109C75.4609 82.6588 73.382 81.5477 71.7504 79.9161C70.1188 78.2845 69.0077 76.2057 68.5575 73.9426C68.1074 71.6795 68.3384 69.3337 69.2214 67.2019C70.1044 65.0701 71.5998 63.248 73.5184 61.966C75.4369 60.6841 77.6926 59.9998 80 59.9998C83.0931 60.0034 86.0585 61.2337 88.2457 63.4208C90.4329 65.608 91.6632 68.5734 91.6667 71.6665ZM80 56.6665C77.2099 56.6703 74.4762 57.4522 72.1061 58.9243C69.7359 60.3965 67.8234 62.5005 66.5834 64.9998H33.4167C31.9042 61.9155 29.3717 59.449 26.2484 58.0186C23.1252 56.5882 19.6033 56.2819 16.28 57.1515L12.4017 49.4082C16.5828 49.618 20.6809 50.6539 24.4595 52.4561C28.238 54.2583 31.6222 56.791 34.4167 59.9082C34.889 60.4542 35.4721 60.8934 36.1273 61.1966C36.7825 61.4998 37.4948 61.66 38.2167 61.6665H61.7833C62.505 61.6604 63.2171 61.5007 63.8723 61.1981C64.5275 60.8955 65.1108 60.4569 65.5833 59.9115C71.2485 53.6578 79.1569 49.8983 87.5834 49.4532L83.7283 57.1515C82.5109 56.8337 81.2582 56.6708 80 56.6665ZM63.08 57.7098C62.9205 57.8998 62.7223 58.0536 62.4988 58.1611C62.2752 58.2685 62.0313 58.3272 61.7833 58.3332H38.2167C37.9687 58.3272 37.7248 58.2685 37.5013 58.1611C37.2777 58.0536 37.0796 57.8998 36.92 57.7098C33.447 53.8753 29.1844 50.8386 24.4256 48.8088C19.6669 46.779 14.5248 45.8042 9.35334 45.9515C7.33976 45.95 5.32843 46.0859 3.33334 46.3582V38.3332H25.92C27.0906 38.3367 28.2232 38.7494 29.1217 39.4998L35.4117 44.7432C36.9115 45.9864 38.7985 46.6667 40.7467 46.6665H56.8217C57.5343 46.666 58.2385 46.5135 58.8875 46.2192C59.5365 45.9249 60.1152 45.4956 60.585 44.9598L70.2167 33.9598C70.3812 33.7701 70.5867 33.6203 70.8177 33.5218C71.0488 33.4233 71.2992 33.3788 71.55 33.3915C77.1133 33.6715 94.575 35.4298 96.4884 46.3315C90.63 45.5165 74.5 44.7165 63.08 57.7098Z" fill="#B3D337"/>
</g>
<defs>
<clipPath id="clip0_2161_310">
<rect width="100" height="100" fill="white"/>
</clipPath>
</defs>
</svg>
