<svg width="100" height="100" viewBox="0 0 100 100" fill="none" xmlns="http://www.w3.org/2000/svg">
<g clip-path="url(#clip0_2161_665)">
<path d="M98.2817 96.6668C98.4197 93.9912 97.6837 91.3432 96.1846 89.1226C94.6856 86.902 92.5049 85.2292 89.9717 84.3568C91.0789 82.5427 91.6653 80.4588 91.6667 78.3335V70.0002C91.6667 66.906 90.4375 63.9385 88.2496 61.7506C86.0617 59.5627 83.0942 58.3335 80 58.3335C76.9058 58.3335 73.9383 59.5627 71.7504 61.7506C69.5625 63.9385 68.3333 66.906 68.3333 70.0002V78.3335C68.3348 80.4575 68.9206 82.5402 70.0267 84.3535C68.1152 85.0605 66.3939 86.2015 64.9983 87.6868C63.6005 86.205 61.8807 85.0645 59.9717 84.3535C61.0783 82.5403 61.6647 80.4577 61.6667 78.3335V70.0002C61.6667 66.906 60.4375 63.9385 58.2496 61.7506C56.0617 59.5627 53.0942 58.3335 50 58.3335C46.9058 58.3335 43.9383 59.5627 41.7504 61.7506C39.5625 63.9385 38.3333 66.906 38.3333 70.0002V78.3335C38.3347 80.4588 38.9212 82.5427 40.0283 84.3568C38.1195 85.0681 36.3997 86.2086 35.0017 87.6902C33.6066 86.2043 31.8852 85.0631 29.9733 84.3568C31.08 82.5426 31.6659 80.4587 31.6667 78.3335V70.0002C31.6667 66.906 30.4375 63.9385 28.2496 61.7506C26.0617 59.5627 23.0942 58.3335 20 58.3335C16.9058 58.3335 13.9383 59.5627 11.7504 61.7506C9.5625 63.9385 8.33333 66.906 8.33333 70.0002V78.3335C8.33473 80.4588 8.92115 82.5427 10.0283 84.3568C7.92526 85.1217 6.05184 86.4101 4.585 88.1002C2.6491 90.5283 1.63375 93.5626 1.71833 96.6668H1.66667C1.22464 96.6668 0.800716 96.8424 0.488155 97.155C0.175595 97.4675 0 97.8915 0 98.3335C0 98.7755 0.175595 99.1995 0.488155 99.512C0.800716 99.8246 1.22464 100 1.66667 100H98.3333C98.7754 99.9933 99.1966 99.8111 99.5043 99.4937C99.812 99.1763 99.981 98.7497 99.9742 98.3077C99.9673 97.8656 99.7851 97.4444 99.4677 97.1367C99.1503 96.829 98.7237 96.66 98.2817 96.6668ZM71.6667 73.5252C75.5417 73.8035 80.305 73.3718 83.2667 70.8768C84.6722 72.1621 86.4431 72.9776 88.3333 73.2102V78.3335C88.3333 80.5436 87.4554 82.6632 85.8926 84.2261C84.3298 85.7889 82.2101 86.6668 80 86.6668C77.7899 86.6668 75.6702 85.7889 74.1074 84.2261C72.5446 82.6632 71.6667 80.5436 71.6667 78.3335V73.5252ZM80 61.6668C82.1747 61.6711 84.2616 62.5253 85.8152 64.047C87.3687 65.5688 88.2659 67.6377 88.315 69.8118C87.6146 69.6957 86.9449 69.4388 86.3465 69.0566C85.7481 68.6745 85.2334 68.1751 84.8333 67.5885C84.7029 67.3271 84.5061 67.1046 84.2626 66.9433C84.0192 66.7819 83.7375 66.6874 83.446 66.6692C83.1545 66.651 82.8633 66.7097 82.6016 66.8394C82.34 66.9692 82.117 67.1654 81.955 67.4085C80.0533 70.2602 74.7517 70.4468 71.675 70.1868C71.6515 69.0779 71.8494 67.9755 72.257 66.9439C72.6646 65.9124 73.2738 64.9725 74.0489 64.1792C74.8241 63.3859 75.7496 62.7551 76.7715 62.3237C77.7933 61.8923 78.8909 61.669 80 61.6668ZM72.355 87.1252C74.4704 88.9789 77.1873 90.0008 80 90.0008C82.8127 90.0008 85.5296 88.9789 87.645 87.1252C89.6541 87.6143 91.4691 88.6975 92.8533 90.2335C94.3006 92.0576 95.0457 94.3402 94.9533 96.6668H68.2867C68.2543 94.5445 67.8052 92.4493 66.965 90.5002C68.3399 88.811 70.235 87.6243 72.355 87.1252ZM41.6667 73.5252C45.5417 73.8035 50.305 73.3718 53.2667 70.8768C54.6722 72.1621 56.4431 72.9776 58.3333 73.2102V78.3335C58.3333 80.5436 57.4554 82.6632 55.8926 84.2261C54.3298 85.7889 52.2101 86.6668 50 86.6668C47.7899 86.6668 45.6702 85.7889 44.1074 84.2261C42.5446 82.6632 41.6667 80.5436 41.6667 78.3335V73.5252ZM50 61.6668C52.1747 61.6711 54.2616 62.5253 55.8152 64.047C57.3687 65.5688 58.2659 67.6377 58.315 69.8118C57.6146 69.6957 56.9449 69.4388 56.3465 69.0566C55.7481 68.6745 55.2334 68.1751 54.8333 67.5885C54.7029 67.3271 54.5061 67.1046 54.2626 66.9433C54.0192 66.7819 53.7375 66.6874 53.446 66.6692C53.1545 66.651 52.8633 66.7097 52.6016 66.8394C52.34 66.9692 52.117 67.1654 51.955 67.4085C50.0533 70.2602 44.7517 70.4468 41.675 70.1868C41.6515 69.0779 41.8494 67.9755 42.257 66.9439C42.6646 65.9124 43.2738 64.9725 44.0489 64.1792C44.8241 63.3859 45.7496 62.7551 46.7715 62.3237C47.7933 61.8923 48.8909 61.669 50 61.6668ZM42.355 87.1252C44.4706 88.9785 47.1874 90.0003 50 90.0003C52.8126 90.0003 55.5294 88.9785 57.645 87.1252C59.6541 87.6143 61.4691 88.6975 62.8533 90.2335C64.3006 92.0576 65.0457 94.3402 64.9533 96.6668H35.0467C34.9535 94.3424 35.6968 92.0617 37.1417 90.2385C38.5266 88.6999 40.3436 87.6148 42.355 87.1252ZM11.6667 73.5252C15.5417 73.8035 20.305 73.3718 23.2667 70.8768C24.6722 72.1621 26.4431 72.9776 28.3333 73.2102V78.3335C28.3333 80.5436 27.4554 82.6632 25.8926 84.2261C24.3298 85.7889 22.2101 86.6668 20 86.6668C17.7899 86.6668 15.6702 85.7889 14.1074 84.2261C12.5446 82.6632 11.6667 80.5436 11.6667 78.3335V73.5252ZM20 61.6668C22.1747 61.6711 24.2616 62.5253 25.8152 64.047C27.3687 65.5688 28.2659 67.6377 28.315 69.8118C27.6146 69.6957 26.9449 69.4388 26.3465 69.0566C25.7481 68.6745 25.2334 68.1751 24.8333 67.5885C24.7029 67.3271 24.5061 67.1046 24.2626 66.9433C24.0192 66.7819 23.7375 66.6874 23.446 66.6692C23.1545 66.651 22.8633 66.7097 22.6016 66.8394C22.3399 66.9692 22.117 67.1654 21.955 67.4085C20.045 70.2602 14.7433 70.4468 11.6667 70.1868C11.6432 69.0772 11.8413 67.9741 12.2494 66.942C12.6575 65.9099 13.2675 64.9697 14.0435 64.1762C14.8196 63.3828 15.7461 62.7522 16.7689 62.3213C17.7917 61.8904 18.8902 61.6679 20 61.6668ZM7.14167 90.2385C8.52664 88.6999 10.3436 87.6148 12.355 87.1252C14.4706 88.9785 17.1874 90.0003 20 90.0003C22.8126 90.0003 25.5294 88.9785 27.645 87.1252C29.7671 87.6226 31.6644 88.8095 33.04 90.5002C32.1996 92.4492 31.7505 94.5445 31.7183 96.6668H5.05167C4.95713 94.3431 5.69863 92.0624 7.14167 90.2385Z" fill="#B3D337"/>
<path d="M46.6666 45H66.0933L77.9433 54.2017C78.4324 54.591 79.0216 54.8343 79.6429 54.9037C80.2642 54.9731 80.8925 54.8657 81.4555 54.594C82.0185 54.3222 82.4934 53.8971 82.8256 53.3674C83.1578 52.8378 83.3337 52.2252 83.3333 51.6V45H86.6666C87.9927 45 89.2644 44.4732 90.2021 43.5355C91.1398 42.5979 91.6666 41.3261 91.6666 40V13.3333C91.6666 12.0073 91.1398 10.7355 90.2021 9.7978C89.2644 8.86012 87.9927 8.33333 86.6666 8.33333H58.3333V5C58.3333 3.67392 57.8065 2.40215 56.8688 1.46447C55.9311 0.526784 54.6593 0 53.3333 0L13.3333 0C12.0072 0 10.7354 0.526784 9.79772 1.46447C8.86004 2.40215 8.33325 3.67392 8.33325 5V31.7383C8.33325 33.0644 8.86004 34.3362 9.79772 35.2739C10.7354 36.2116 12.0072 36.7383 13.3333 36.7383H16.6666V43.3333C16.6662 43.9577 16.8412 44.5696 17.1717 45.0994C17.5021 45.6292 17.9747 46.0555 18.5356 46.3298C19.0965 46.604 19.7232 46.7153 20.3442 46.6508C20.9652 46.5863 21.5557 46.3487 22.0483 45.965L33.9049 36.7417H41.6666V40C41.6666 41.3261 42.1934 42.5979 43.1311 43.5355C44.0687 44.4732 45.3405 45 46.6666 45ZM86.6666 11.6667C87.1086 11.6667 87.5325 11.8423 87.8451 12.1548C88.1577 12.4674 88.3333 12.8913 88.3333 13.3333V40C88.3333 40.442 88.1577 40.866 87.8451 41.1785C87.5325 41.4911 87.1086 41.6667 86.6666 41.6667H83.3333C82.4492 41.6667 81.6013 42.0179 80.9762 42.643C80.3511 43.2681 79.9999 44.116 79.9999 45V51.585L68.1666 42.3967C67.5819 41.9233 66.8522 41.6656 66.0999 41.6667H46.6666C46.2246 41.6667 45.8006 41.4911 45.4881 41.1785C45.1755 40.866 44.9999 40.442 44.9999 40V36.7383H53.3333C54.6593 36.7383 55.9311 36.2116 56.8688 35.2739C57.8065 34.3362 58.3333 33.0644 58.3333 31.7383V11.6667H86.6666ZM31.8583 34.1067L19.9999 43.3333V36.7383C19.9999 35.8543 19.6487 35.0064 19.0236 34.3813C18.3985 33.7562 17.5506 33.405 16.6666 33.405H13.3333C12.8912 33.405 12.4673 33.2294 12.1547 32.9168C11.8422 32.6043 11.6666 32.1804 11.6666 31.7383V5C11.6666 4.55797 11.8422 4.13405 12.1547 3.82149C12.4673 3.50893 12.8912 3.33333 13.3333 3.33333H53.3333C53.7753 3.33333 54.1992 3.50893 54.5118 3.82149C54.8243 4.13405 54.9999 4.55797 54.9999 5V31.7383C54.9999 32.1804 54.8243 32.6043 54.5118 32.9168C54.1992 33.2294 53.7753 33.405 53.3333 33.405H33.9049C33.1637 33.4048 32.4435 33.6517 31.8583 34.1067Z" fill="#B3D337"/>
<path d="M41.6667 13.3332H38.3334V9.99984C38.3334 9.11578 37.9822 8.26794 37.3571 7.64281C36.732 7.01769 35.8841 6.6665 35.0001 6.6665H31.6667C30.7827 6.6665 29.9348 7.01769 29.3097 7.64281C28.6846 8.26794 28.3334 9.11578 28.3334 9.99984V13.3332H25.0001C24.116 13.3332 23.2682 13.6844 22.6431 14.3095C22.0179 14.9346 21.6667 15.7824 21.6667 16.6665V19.9998C21.6667 20.8839 22.0179 21.7317 22.6431 22.3569C23.2682 22.982 24.116 23.3332 25.0001 23.3332H28.3334V26.6665C28.3334 27.5506 28.6846 28.3984 29.3097 29.0235C29.9348 29.6486 30.7827 29.9998 31.6667 29.9998H35.0001C35.8841 29.9998 36.732 29.6486 37.3571 29.0235C37.9822 28.3984 38.3334 27.5506 38.3334 26.6665V23.3332H41.6667C42.5508 23.3332 43.3987 22.982 44.0238 22.3569C44.6489 21.7317 45.0001 20.8839 45.0001 19.9998V16.6665C45.0001 15.7824 44.6489 14.9346 44.0238 14.3095C43.3987 13.6844 42.5508 13.3332 41.6667 13.3332ZM41.6667 19.9998H36.6667C36.2247 19.9998 35.8008 20.1754 35.4882 20.488C35.1757 20.8006 35.0001 21.2245 35.0001 21.6665V26.6665H31.6667V21.6665C31.6667 21.2245 31.4912 20.8006 31.1786 20.488C30.866 20.1754 30.4421 19.9998 30.0001 19.9998H25.0001V16.6665H30.0001C30.4421 16.6665 30.866 16.4909 31.1786 16.1783C31.4912 15.8658 31.6667 15.4419 31.6667 14.9998V9.99984H35.0001V14.9998C35.0001 15.4419 35.1757 15.8658 35.4882 16.1783C35.8008 16.4909 36.2247 16.6665 36.6667 16.6665H41.6667V19.9998Z" fill="#B3D337"/>
<path d="M63.3334 19.9998H83.3334C83.7754 19.9998 84.1994 19.8242 84.5119 19.5117C84.8245 19.1991 85.0001 18.7752 85.0001 18.3332C85.0001 17.8911 84.8245 17.4672 84.5119 17.1547C84.1994 16.8421 83.7754 16.6665 83.3334 16.6665H63.3334C62.8914 16.6665 62.4675 16.8421 62.1549 17.1547C61.8423 17.4672 61.6667 17.8911 61.6667 18.3332C61.6667 18.7752 61.8423 19.1991 62.1549 19.5117C62.4675 19.8242 62.8914 19.9998 63.3334 19.9998Z" fill="#B3D337"/>
<path d="M63.3334 28.3333H83.3334C83.7754 28.3333 84.1994 28.1577 84.5119 27.8452C84.8245 27.5326 85.0001 27.1087 85.0001 26.6667C85.0001 26.2246 84.8245 25.8007 84.5119 25.4882C84.1994 25.1756 83.7754 25 83.3334 25H63.3334C62.8914 25 62.4675 25.1756 62.1549 25.4882C61.8423 25.8007 61.6667 26.2246 61.6667 26.6667C61.6667 27.1087 61.8423 27.5326 62.1549 27.8452C62.4675 28.1577 62.8914 28.3333 63.3334 28.3333Z" fill="#B3D337"/>
<path d="M63.3334 36.6668H83.3334C83.7754 36.6668 84.1994 36.4912 84.5119 36.1787C84.8245 35.8661 85.0001 35.4422 85.0001 35.0002C85.0001 34.5581 84.8245 34.1342 84.5119 33.8217C84.1994 33.5091 83.7754 33.3335 83.3334 33.3335H63.3334C62.8914 33.3335 62.4675 33.5091 62.1549 33.8217C61.8423 34.1342 61.6667 34.5581 61.6667 35.0002C61.6667 35.4422 61.8423 35.8661 62.1549 36.1787C62.4675 36.4912 62.8914 36.6668 63.3334 36.6668Z" fill="#B3D337"/>
</g>
<defs>
<clipPath id="clip0_2161_665">
<rect width="100" height="100" fill="white"/>
</clipPath>
</defs>
</svg>
