<svg width="100" height="100" viewBox="0 0 100 100" fill="none" xmlns="http://www.w3.org/2000/svg">
<path d="M59.862 50.8331L56.6952 44.4998V34.9997C56.6952 28.333 55.6952 21.4997 53.6953 14.9998L51.6953 7.83309C51.3619 7.1665 50.6953 6.6665 50.0287 6.6665C49.3621 6.6665 48.6953 7.1665 48.3621 7.83309L46.3622 14.9998C44.3622 21.4997 43.3622 28.1664 43.3622 34.9997V44.4996L40.1954 50.8331C39.9343 51.2247 39.8807 51.7177 40.0288 52.1538V84.6827C39.9488 84.9551 39.9381 85.2274 40.0288 85.4998L41.5288 90.4997C41.5376 90.5436 41.5505 90.5855 41.5608 90.6286C40.5267 91.3804 39.8622 92.598 39.8622 93.9997V95.833C39.8622 98.1664 41.6956 99.9998 44.029 99.9998H55.8622C58.1956 99.9998 60.029 98.1664 60.029 95.833V93.9997C60.029 92.7447 59.4956 91.6379 58.6424 90.8798C58.6614 90.8095 58.6809 90.7394 58.6956 90.6663L60.029 85.4996C60.029 85.3745 60.029 85.2492 60.0238 85.1241C60.0262 85.083 60.029 85.0421 60.029 84.9996V51.8462C60.0818 51.4967 60.0631 51.1345 59.862 50.8331ZM44.6954 89.8331L43.862 86.6664H56.362L55.5286 89.8331H44.6954ZM53.3621 43.1664H46.6954V36.6665H53.3621V43.1664ZM46.0288 46.6663H54.0287L55.6952 49.9997H44.362L46.0288 46.6663ZM56.6954 53.333V83.333H43.362V53.333H56.6954ZM49.5287 15.9998L50.0287 14.1664L50.5287 15.833C52.3621 21.4997 53.1955 27.4996 53.3621 33.3329H46.6954C46.8621 27.4998 47.8621 21.6665 49.5287 15.9998ZM56.862 95.9996C56.862 96.4996 56.5286 96.833 56.0286 96.833H44.1954C43.6954 96.833 43.362 96.4996 43.362 95.9996V94.1663C43.362 93.6663 43.6954 93.3329 44.1954 93.3329H45.0288H55.1954H56.0288C56.5288 93.3329 56.8622 93.6663 56.8622 94.1663V95.9996H56.862Z" fill="#B3D337"/>
<path d="M35.3039 90.8999C35.3252 90.8232 35.3462 90.7464 35.3621 90.6665L36.6955 85.4998C36.6955 85.3747 36.6955 85.2494 36.6903 85.1243C36.6927 85.0832 36.6955 85.0423 36.6955 84.9998V45.3465C36.734 45.0925 36.7338 44.8322 36.654 44.5929C36.5936 44.298 36.4663 44.0447 36.284 43.8439L33.3621 37.9999V28.3332C33.3621 21.6665 32.3621 14.8332 30.3622 8.33328L28.362 1.16658C28.0288 0.499993 27.362 0 26.6954 0C26.0288 0 25.362 0.499993 25.0288 1.16658L23.0289 8.33328C21.0289 14.8332 20.0289 21.6667 20.0289 28.3332V37.8333L16.8621 44.1666C16.601 44.5582 16.5474 45.0512 16.6955 45.4873V84.9998C16.6955 85.0423 16.6983 85.0832 16.7007 85.1243C16.6955 85.2494 16.6955 85.3747 16.6955 85.4998L18.0289 90.4997C18.0617 90.6632 18.1086 90.82 18.1628 90.9733C17.2615 91.7324 16.6955 92.8716 16.6955 94.1665V95.9999C16.6955 98.1664 18.5289 99.9998 20.8623 99.9998H32.5289C34.8623 99.9998 36.6957 98.1664 36.8623 95.9999V94.1665C36.8621 92.8289 36.2578 91.6578 35.3039 90.8999ZM21.3621 89.8334L20.5287 86.6666H32.8619L32.0285 89.8334C32.0285 89.8334 31.8619 89.9999 31.6951 89.9999H21.5285C21.3621 89.9999 21.3621 89.9999 21.3621 89.8334ZM30.0288 36.6667H23.3621V30H30.0288V36.6667ZM22.6955 40H30.6956L32.3621 43.3334H21.0289L22.6955 40ZM33.3621 46.6665V83.3332H20.0287V46.6665H33.3621ZM26.1954 9.33327L26.6954 7.4999L27.1954 9.33327C28.862 15 29.8622 20.8333 30.0288 26.6666H23.3621C23.5287 20.8333 24.5286 15 26.1954 9.33327ZM33.3621 95.9999C33.3621 96.3333 33.0287 96.6665 32.6955 96.6665H20.8623C20.3623 96.6665 20.0289 96.3331 20.0289 95.9999V94.1665C20.0289 93.6665 20.3623 93.3331 20.8623 93.3331H21.5289H31.8621H32.5287C33.0287 93.3331 33.3621 93.6665 33.3621 94.1665V95.9999Z" fill="#B3D337"/>
<path d="M83.362 58.5134C83.415 58.1637 83.3964 57.8017 83.1954 57.5001L80.0286 51.1668V42.2392C80.1041 42.0642 80.1609 41.873 80.1952 41.6667C80.1952 35 79.1953 28.1667 77.1953 21.6668L75.0287 14.5001C74.6953 13.8335 74.0287 13.3335 73.3621 13.3335C72.6955 13.3335 72.0288 13.8335 71.6956 14.5001L69.6956 21.6668C67.6956 28.1667 66.6956 34.8334 66.6956 41.6667V51.1668L63.5289 57.5001C63.2678 57.8917 63.2143 58.3847 63.3623 58.8208V84.683C63.2823 84.9554 63.2715 85.2277 63.3623 85.5001L64.8623 90.5C64.871 90.5439 64.8839 90.5858 64.8942 90.6289C63.8601 91.3807 63.1957 92.5983 63.1957 94V95.8333C63.1957 98.1667 65.0291 100 67.3624 100H79.1957C81.529 100 83.3624 98.1667 83.3624 95.8333V94C83.3624 92.745 82.829 91.6382 81.9758 90.8801C81.9949 90.8098 82.0143 90.7397 82.029 90.6666L83.3624 85.4999C83.3624 85.3748 83.3624 85.2495 83.3572 85.1244C83.3596 85.0833 83.3624 85.0424 83.3624 84.9999V58.5134H83.362ZM68.0286 89.8334L67.1952 86.6667H79.6953L78.8619 89.8334H68.0286ZM76.6953 49.8334H70.0286V43.3335H76.6953V49.8334ZM69.362 53.3333H77.3621L79.0287 56.6667H67.6954L69.362 53.3333ZM80.0286 60V83.3333H66.6952V60H80.0286ZM72.8619 22.6668L73.3619 20.8334L73.8619 22.5C75.6953 28.1667 76.5287 34.1666 76.6953 39.9999H70.0286C70.1954 34.1668 71.1954 28.3335 72.8619 22.6668ZM80.1952 95.9999C80.1952 96.4999 79.8618 96.8333 79.3619 96.8333H67.5286C67.0286 96.8333 66.6952 96.4999 66.6952 95.9999V94.1666C66.6952 93.6666 67.0286 93.3332 67.5286 93.3332H68.362H78.5287H79.3621C79.862 93.3332 80.1954 93.6666 80.1954 94.1666V95.9999H80.1952Z" fill="#B3D337"/>
</svg>
