<svg width="100" height="100" viewBox="0 0 100 100" fill="none" xmlns="http://www.w3.org/2000/svg">
<g clip-path="url(#clip0_2179_32)">
<path d="M91.6667 6.6665H8.33333C3.73324 6.67201 0.0055102 10.3997 0 14.9998V74.9998C0.0055102 79.5999 3.73324 83.3277 8.33333 83.3332H58.3333V91.6665C58.3335 92.3405 58.7395 92.9481 59.3622 93.206C59.9849 93.4639 60.7017 93.3214 61.1783 92.8448L66.6667 87.3565L72.155 92.8448C72.6317 93.3214 73.3484 93.4639 73.9711 93.206C74.5938 92.9481 74.9999 92.3405 75 91.6665V83.3332H91.6667C96.2668 83.3277 99.9945 79.5999 100 74.9998V14.9998C99.9945 10.3997 96.2668 6.67201 91.6667 6.6665ZM53.85 39.2748C53.5924 39.156 53.4072 38.9211 53.3518 38.6428C53.2964 38.3646 53.3775 38.0766 53.57 37.8682C55.0613 36.2474 55.0613 33.754 53.57 32.1332C53.3769 31.9245 53.2956 31.6359 53.3514 31.3571C53.4071 31.0783 53.5932 30.8432 53.8517 30.7248C55.8481 29.7958 56.8011 27.493 56.045 25.4248C55.9466 25.1586 55.9816 24.8613 56.1393 24.6252C56.2969 24.3891 56.558 24.2427 56.8417 24.2315C59.0427 24.139 60.8059 22.3758 60.8983 20.1748C60.9094 19.8908 61.0559 19.6292 61.2925 19.4715C61.529 19.3138 61.8269 19.2791 62.0933 19.3782C64.1619 20.1298 66.4619 19.1772 67.3933 17.1832C67.5112 16.925 67.7459 16.7393 68.0242 16.6838C68.3025 16.6283 68.5905 16.7099 68.7983 16.9032C70.4197 18.3947 72.9136 18.3947 74.535 16.9032C74.7434 16.7101 75.0318 16.6287 75.3103 16.6845C75.5889 16.7403 75.8237 16.9264 75.9417 17.1848C76.8712 19.1798 79.1723 20.1324 81.24 19.3782C81.5065 19.2791 81.8043 19.3138 82.0408 19.4715C82.2774 19.6292 82.424 19.8908 82.435 20.1748C82.5285 22.3789 84.2958 24.1433 86.5 24.2332C86.7835 24.2438 87.0448 24.3898 87.2025 24.6257C87.3602 24.8616 87.3952 25.1588 87.2967 25.4248C86.5399 27.4935 87.4939 29.797 89.4917 30.7248C89.7493 30.8437 89.9345 31.0786 89.9899 31.3569C90.0452 31.6351 89.9641 31.9231 89.7717 32.1315C88.2804 33.7523 88.2804 36.2457 89.7717 37.8665C89.9647 38.0752 90.046 38.3638 89.9903 38.6426C89.9345 38.9213 89.7485 39.1565 89.49 39.2748C87.4935 40.2039 86.5406 42.5067 87.2967 44.5748C87.3951 44.8411 87.36 45.1384 87.2024 45.3745C87.0448 45.6106 86.7837 45.757 86.5 45.7682C84.2927 45.8567 82.5236 47.6259 82.435 49.8332C82.424 50.1173 82.2774 50.3788 82.0408 50.5365C81.8043 50.6942 81.5065 50.7289 81.24 50.6298C79.1715 49.8774 76.8708 50.8302 75.94 52.8248C75.8265 53.0854 75.5911 53.2727 75.3117 53.3248C75.0327 53.3832 74.7427 53.3017 74.535 53.1065C72.9133 51.6158 70.42 51.6158 68.7983 53.1065C68.5904 53.3014 68.3007 53.3829 68.0217 53.3248C67.7419 53.2727 67.506 53.0855 67.3917 52.8248C66.4627 50.8292 64.161 49.8764 62.0933 50.6315C61.8269 50.7306 61.529 50.6959 61.2925 50.5382C61.0559 50.3805 60.9094 50.1189 60.8983 49.8348C60.8099 47.6269 59.0412 45.8568 56.8333 45.7665C56.5498 45.7558 56.2886 45.6099 56.1309 45.374C55.9732 45.1381 55.9381 44.8409 56.0367 44.5748C56.7945 42.5084 55.8445 40.2057 53.85 39.2748ZM72.1567 70.4865L71.6667 70.9765V55.3098C71.8897 55.3092 72.1047 55.3932 72.2683 55.5448C73.0407 56.2688 74.0597 56.6716 75.1183 56.6715C75.4015 56.6709 75.6839 56.643 75.9617 56.5882C77.2879 56.3293 78.4062 55.4433 78.9617 54.2115C79.1569 53.7913 79.6419 53.5912 80.0767 53.7515C80.5838 53.9312 81.1207 54.0121 81.6583 53.9898V70.9765L77.8367 67.1548C77.1858 66.5042 76.1308 66.5042 75.48 67.1548L72.1567 70.4865ZM71.6667 87.6432L67.845 83.8215C67.1942 83.1709 66.1392 83.1709 65.4883 83.8215L61.6667 87.6432V53.9865C62.2043 54.0089 62.7412 53.928 63.2483 53.7482C63.6822 53.587 64.1671 53.7866 64.3617 54.2065C64.9187 55.4415 66.0413 56.3286 67.3717 56.5848C67.6882 56.6475 68.0107 56.6749 68.3333 56.6665V74.9998C68.3335 75.6738 68.7395 76.2814 69.3622 76.5393C69.9849 76.7972 70.7017 76.6547 71.1783 76.1782L71.6667 75.6898V87.6432ZM96.6667 74.9998C96.6667 77.7613 94.4281 79.9998 91.6667 79.9998H75V72.3565L76.6667 70.6898L82.155 76.1782C82.6317 76.6547 83.3484 76.7972 83.9711 76.5393C84.5938 76.2814 84.9999 75.6738 85 74.9998V52.1782C85.4652 51.525 85.7309 50.751 85.765 49.9498C85.7853 49.4875 86.156 49.1176 86.6183 49.0982C87.9695 49.0461 89.2139 48.3496 89.9649 47.2252C90.7159 46.1008 90.8827 44.6846 90.4133 43.4165C90.2542 42.9827 90.4542 42.4994 90.8733 42.3048C92.1026 41.7401 92.9866 40.6202 93.2505 39.2934C93.5145 37.9666 93.1263 36.5937 92.2067 35.6015C91.8934 35.2609 91.8934 34.7371 92.2067 34.3965C93.1263 33.4046 93.5145 32.0319 93.2506 30.7053C92.9866 29.3787 92.1026 28.2592 90.8733 27.6948C90.453 27.5015 90.2519 27.0174 90.4117 26.5832C90.881 25.3151 90.7143 23.8989 89.9632 22.7744C89.2122 21.65 87.9678 20.9536 86.6167 20.9015C86.1543 20.8821 85.7837 20.5121 85.7633 20.0498C85.7128 18.6982 85.0172 17.4528 83.8928 16.7009C82.7685 15.949 81.3518 15.7819 80.0833 16.2515C79.6494 16.4153 79.1628 16.215 78.97 15.7932C78.4052 14.5639 77.2854 13.6799 75.9586 13.416C74.6318 13.152 73.2588 13.5402 72.2667 14.4598C71.9266 14.7729 71.4034 14.7729 71.0633 14.4598C70.0715 13.5402 68.6988 13.152 67.3722 13.4159C66.0456 13.6799 64.926 14.5639 64.3617 15.7932C64.1682 16.2152 63.6815 16.4161 63.2467 16.2532C61.9782 15.7836 60.5615 15.9507 59.4372 16.7025C58.3128 17.4544 57.6172 18.6999 57.5667 20.0515C57.5463 20.5138 57.1757 20.8837 56.7133 20.9032C55.3622 20.9553 54.1178 21.6517 53.3668 22.7761C52.6157 23.9005 52.449 25.3167 52.9183 26.5848C53.0774 27.0186 52.8774 27.502 52.4583 27.6965C51.229 28.2613 50.345 29.3811 50.0811 30.7079C49.8172 32.0348 50.2054 33.4077 51.125 34.3998C51.4383 34.7404 51.4383 35.2643 51.125 35.6048C50.2054 36.5967 49.8172 37.9694 50.0811 39.296C50.345 40.6226 51.2291 41.7422 52.4583 42.3065C52.8787 42.4998 53.0797 42.9839 52.92 43.4182C52.4506 44.6863 52.6174 46.1025 53.3684 47.2269C54.1195 48.3513 55.3638 49.0477 56.715 49.0998C57.1773 49.1193 57.548 49.4892 57.5683 49.9515C57.6027 50.7521 57.8685 51.5255 58.3333 52.1782V79.9998H8.33333C5.57191 79.9998 3.33333 77.7613 3.33333 74.9998V14.9998C3.33333 12.2384 5.57191 9.99984 8.33333 9.99984H91.6667C94.4281 9.99984 96.6667 12.2384 96.6667 14.9998V74.9998Z" fill="#B3D337"/>
<path d="M18.3333 66.6667C15.5719 66.6667 13.3333 64.4281 13.3333 61.6667V28.3333C13.3333 25.5719 15.5719 23.3333 18.3333 23.3333H48.3333C49.2538 23.3333 50 22.5871 50 21.6667C50 20.7462 49.2538 20 48.3333 20H18.3333C13.7332 20.0055 10.0055 23.7332 10 28.3333V61.6667C10.0055 66.2668 13.7332 69.9945 18.3333 70H50C50.9205 70 51.6667 69.2538 51.6667 68.3333C51.6667 67.4129 50.9205 66.6667 50 66.6667H18.3333Z" fill="#B3D337"/>
<path d="M19.9999 46.6663H43.3333C44.2537 46.6663 44.9999 45.9201 44.9999 44.9997C44.9999 44.0792 44.2537 43.333 43.3333 43.333H19.9999C19.0794 43.333 18.3333 44.0792 18.3333 44.9997C18.3333 45.9201 19.0794 46.6663 19.9999 46.6663Z" fill="#B3D337"/>
<path d="M19.9999 39.9998H43.3333C44.2537 39.9998 44.9999 39.2536 44.9999 38.3332C44.9999 37.4127 44.2537 36.6665 43.3333 36.6665H19.9999C19.0794 36.6665 18.3333 37.4127 18.3333 38.3332C18.3333 39.2536 19.0794 39.9998 19.9999 39.9998Z" fill="#B3D337"/>
<path d="M19.9999 33.3333H43.3333C44.2537 33.3333 44.9999 32.5871 44.9999 31.6667C44.9999 30.7462 44.2537 30 43.3333 30H19.9999C19.0794 30 18.3333 30.7462 18.3333 31.6667C18.3333 32.5871 19.0794 33.3333 19.9999 33.3333Z" fill="#B3D337"/>
<path d="M18.4716 62.333C18.7368 62.9406 19.3369 63.3333 19.9999 63.333C20.2294 63.334 20.4565 63.2869 20.6666 63.1947C22.2096 62.6214 23.6277 61.7562 24.8433 60.6463C25.2945 60.196 25.6891 59.6923 26.0183 59.1463C26.6547 59.8618 27.4027 60.4697 28.2333 60.9463C29.3916 61.7037 30.8333 61.888 32.1449 61.4463C32.6477 61.2511 33.1025 60.9499 33.4782 60.563C34.2324 61.0343 35.0633 61.3699 35.9332 61.5547L37.1932 61.853C39.7651 62.6063 42.4373 62.9604 45.1166 62.903C45.7105 62.8601 46.2365 62.5036 46.4963 61.9678C46.7562 61.432 46.7105 60.7983 46.3764 60.3053C46.0422 59.8124 45.4705 59.5351 44.8766 59.578C42.5386 59.6085 40.2097 59.2826 37.9699 58.6113L36.6816 58.3063C35.1266 57.948 34.7266 57.3213 34.5616 56.8797C34.2711 56.1042 33.4554 55.6596 32.6463 55.8357C31.8372 56.0118 31.2801 56.7553 31.3382 57.5813C31.3569 57.8802 31.2153 58.1664 30.9666 58.333C30.5772 58.3825 30.1836 58.2811 29.8666 58.0497C28.5187 57.2105 27.5051 55.9282 26.9999 54.423C26.7132 53.648 25.9018 53.2001 25.0931 53.3705C24.2845 53.5409 23.7228 54.2781 23.7733 55.103C23.8013 56.2953 23.3343 57.4459 22.4833 58.2813C21.5578 59.0907 20.4895 59.7203 19.3333 60.138C18.9278 60.3147 18.6091 60.6452 18.4475 61.0569C18.2859 61.4686 18.2946 61.9277 18.4716 62.333Z" fill="#B3D337"/>
<path d="M71.6666 48.3332C79.0304 48.3332 84.9999 42.3636 84.9999 34.9998C84.9999 27.636 79.0304 21.6665 71.6666 21.6665C64.3028 21.6665 58.3333 27.636 58.3333 34.9998C58.3415 42.3602 64.3062 48.3249 71.6666 48.3332ZM71.6666 24.9998C77.1894 24.9998 81.6666 29.477 81.6666 34.9998C81.6666 40.5227 77.1894 44.9998 71.6666 44.9998C66.1437 44.9998 61.6666 40.5227 61.6666 34.9998C61.6721 29.4793 66.146 25.0053 71.6666 24.9998Z" fill="#B3D337"/>
</g>
<defs>
<clipPath id="clip0_2179_32">
<rect width="100" height="100" fill="white"/>
</clipPath>
</defs>
</svg>
