<svg width="100" height="100" viewBox="0 0 100 100" fill="none" xmlns="http://www.w3.org/2000/svg">
<g clip-path="url(#clip0_2161_23)">
<path d="M0 93.9325C0.338454 92.0835 0.676907 90.2345 0.989326 88.3856C2.08279 81.6147 3.15022 74.8439 4.24369 68.0991C4.71231 65.1304 5.18094 62.1356 5.6756 59.1668C6.04009 56.9012 7.73236 55.3127 9.9974 55.0522C10.4921 55.0002 10.9607 54.9741 11.4553 54.9741C37.1518 54.9741 62.8482 54.9741 88.5707 54.9741C92.2156 54.9741 93.9599 56.5627 94.5066 60.1564C95.6001 67.3439 96.7977 74.5314 97.9432 81.6929C98.6201 85.8595 99.2971 90.0262 99.9479 94.1929C100.312 96.6147 98.9846 98.8022 96.6936 99.6877C96.4853 99.7658 96.303 99.8699 96.0948 99.9741C65.3736 99.9741 34.6524 99.9741 3.93127 99.9741C1.97865 99.3231 0.702942 97.9949 0.0260349 96.0679C0 95.3647 0 94.6616 0 93.9325ZM53.0331 96.6147C67.144 96.6147 81.0726 96.6147 95.2356 96.6147C87.3731 86.4325 79.6147 76.4064 71.8042 66.3022C65.5298 76.4325 59.3335 86.4585 53.0331 96.6147ZM46.9409 96.6147C40.6405 86.4585 34.4442 76.4325 28.1697 66.2762C20.3593 76.3804 12.6009 86.4325 4.73835 96.6147C18.9013 96.6147 32.83 96.6147 46.9409 96.6147ZM49.987 95.1304C56.2354 85.0262 62.4056 75.1043 68.5759 65.0783C56.1052 65.0783 43.8167 65.0783 31.3981 65.0783C37.6204 75.1304 43.7646 85.0522 49.987 95.1304ZM8.69565 61.5887C36.2666 61.5887 63.7074 61.5887 91.1481 61.5887C91.3304 59.0627 90.7055 58.3595 88.3624 58.3595C62.7441 58.3595 37.1518 58.3595 11.5335 58.3595C11.169 58.3595 10.7524 58.2554 10.466 58.3856C9.94533 58.646 9.34652 58.9585 9.11221 59.4272C8.79979 60.0522 8.82583 60.8075 8.69565 61.5887ZM24.7852 65.1564C24.603 65.0783 24.5509 65.0262 24.4988 65.0262C19.2658 65.0262 14.0328 65.0262 8.79979 65.0002C8.07081 65.0002 8.07082 65.4168 7.99271 65.9116C6.79511 73.4637 5.57147 81.0418 4.34783 88.5939C4.16558 89.6877 4.03541 90.7814 3.85316 91.8752C3.93127 91.9012 4.00937 91.9272 4.06144 91.9533C10.9607 83.047 17.8599 74.1408 24.7852 65.1564ZM75.1106 65.0522C82.114 74.1408 89.0133 83.047 95.9125 91.9793C95.9906 91.9272 96.0687 91.9012 96.1468 91.8491C94.7149 82.9168 93.283 73.9845 91.8511 65.0522C86.2536 65.0522 80.7862 65.0522 75.1106 65.0522Z" fill="#B3D337"/>
<path d="M0 3.90625C0.676907 2.08333 1.74434 0.625 3.74902 0.15625C4.24369 0.0520833 4.76438 0 5.28508 0C35.095 0 64.8789 0 94.6889 0C97.0841 0 98.8805 1.14583 99.6616 3.20312C100.443 5.26042 99.8698 7.34375 98.0995 8.90625C97.9693 9.01042 97.8131 9.08854 97.6829 9.16667C100.443 12.474 100.625 15.8854 98.7764 19.5312C98.4119 20.2344 98.1515 20.9635 97.787 21.6406C96.5374 24.0365 93.8818 25.026 91.4085 24.0104C89.2736 23.125 87.1648 22.1875 85.108 21.1719C82.5827 19.9479 81.5673 17.1615 82.6868 14.5833C83.3377 13.0729 84.0667 11.5885 84.7956 10.0521C61.5985 10.0521 38.4275 10.0521 15.2044 10.0521C15.8552 11.4583 16.5061 12.8125 17.131 14.1927C18.5368 17.3177 17.4954 20 14.3973 21.4323C12.5749 22.2656 10.7264 23.099 8.8779 23.9062C6.06613 25.1302 3.30643 24.1146 2.03072 21.3281C1.30174 19.7135 0.676907 18.0469 0 16.4062C0 15.4948 0 14.5833 0 13.6719C0.650872 12.1615 1.32778 10.625 1.92658 9.27083C1.30174 8.22917 0.650872 7.13542 0 6.04167C0 5.33854 0 4.60938 0 3.90625ZM49.9089 6.64062C58.5004 6.64062 67.0919 6.64062 75.6834 6.64062C81.9839 6.64062 88.3103 6.64062 94.6108 6.64062C95.8344 6.64062 96.6155 5.98958 96.6155 5C96.6155 4.01042 95.8344 3.35938 94.6108 3.33333C94.4806 3.33333 94.3504 3.33333 94.2203 3.33333C64.6967 3.33333 35.1992 3.33333 5.67561 3.33333C5.38922 3.33333 5.0768 3.30729 4.79042 3.35937C3.90523 3.51562 3.2804 4.21875 3.30643 5.02604C3.33247 5.88542 4.03541 6.5625 4.97266 6.64062C5.25905 6.66667 5.54543 6.64062 5.85785 6.64062C20.5415 6.64062 35.2252 6.64062 49.9089 6.64062ZM96.6415 15.3385C96.6675 12.8385 95.1575 10.8333 93.0487 10.2083C90.8878 9.58333 88.5186 10.4688 87.4252 12.4219C86.7743 13.5677 86.2536 14.8177 85.7589 16.0417C85.3944 16.901 85.6808 17.7344 86.4879 18.125C88.5707 19.1146 90.6535 20.0781 92.7883 20.9115C93.257 21.0938 94.2463 20.8594 94.4806 20.4948C95.522 18.8021 96.4332 17.0312 96.6415 15.3385ZM3.33247 15.3906C3.59281 17.0312 4.45197 18.8281 5.49336 20.4948C5.90992 21.1719 6.717 21.1979 7.44598 20.8594C9.39859 19.974 11.3512 19.1146 13.3038 18.2031C14.3192 17.7344 14.6576 16.9531 14.2411 15.9635C13.7725 14.7917 13.2518 13.6198 12.653 12.526C11.5855 10.5469 9.24239 9.60937 7.05545 10.1823C4.89456 10.7292 3.33247 12.8125 3.33247 15.3906Z" fill="#B3D337"/>
<path d="M20.151 23.0728C20.7498 23.4634 21.2965 23.6717 21.635 24.0623C25.358 28.3071 29.081 32.578 32.7779 36.8748C33.585 37.8123 33.5329 38.7759 32.7258 39.453C31.9448 40.104 31.0075 39.9738 30.2525 39.0884C26.5295 34.8175 22.8326 30.5467 19.1356 26.2759C18.6149 25.6769 18.3286 24.9998 18.7972 24.3228C19.0836 23.828 19.6303 23.5155 20.151 23.0728Z" fill="#B3D337"/>
<path d="M12.2885 47.1094C12.2624 48.099 11.6636 48.8021 10.7784 48.9062C9.9193 49.0104 9.13825 48.4375 8.98204 47.5C8.56548 44.7396 8.201 41.9792 7.83651 39.1927C7.44598 36.3542 7.10753 33.5156 6.69097 30.7031C6.58683 29.8698 6.69097 29.1406 7.44598 28.6458C8.04479 28.2552 8.74773 28.2031 9.24239 28.6979C9.63291 29.0885 9.94533 29.6615 10.0234 30.1823C10.414 32.7604 10.7524 35.3385 11.0909 37.9167C11.4814 40.8594 11.8719 43.776 12.2624 46.7187C12.2624 46.849 12.2885 47.0052 12.2885 47.1094Z" fill="#B3D337"/>
<path d="M81.6194 24.8177C81.2809 25.4427 81.1247 25.9115 80.8123 26.276C77.1414 30.5469 73.4704 34.7917 69.7735 39.0365C68.9664 39.974 68.0031 40.1042 67.2221 39.4271C66.415 38.724 66.389 37.8125 67.2221 36.849C70.893 32.6042 74.5899 28.3594 78.2869 24.1146C78.8076 23.5156 79.4845 23.0729 80.2395 23.4896C80.7602 23.75 81.1507 24.3229 81.6194 24.8177Z" fill="#B3D337"/>
<path d="M87.6855 47.0574C88.102 43.8543 88.5186 40.7032 88.9352 37.5522C89.2215 35.2866 89.534 33.047 89.8203 30.7814C89.8724 30.4689 89.8985 30.1303 89.9766 29.8178C90.1848 28.8282 90.9659 28.2293 91.8511 28.3595C92.7883 28.5157 93.4132 29.323 93.283 30.3387C92.9706 32.9428 92.6061 35.547 92.2416 38.1772C91.8771 40.9376 91.5126 43.7241 91.1481 46.4845C91.0961 46.797 91.07 47.1355 90.9919 47.448C90.7836 48.4376 90.0286 49.0366 89.1174 48.9064C88.2322 48.7761 87.6594 48.0209 87.6855 47.0574Z" fill="#B3D337"/>
<path d="M21.661 40.8334C21.2184 41.3022 20.8539 41.9532 20.3332 42.1355C19.8386 42.2917 19.1356 41.9792 18.5889 41.7449C18.3546 41.6407 18.2244 41.224 18.0942 40.9376C16.6103 37.6303 15.1263 34.323 13.6162 31.0157C13.2778 30.2865 13.1736 29.5834 13.7204 28.9324C14.4754 28.0209 15.9073 28.099 16.428 29.1667C18.1463 32.8126 19.7605 36.4844 21.4007 40.1563C21.4527 40.2865 21.4527 40.4688 21.4788 40.6251C21.5308 40.7032 21.6089 40.7553 21.661 40.8334Z" fill="#B3D337"/>
<path d="M84.5353 28.3334C86.1755 28.3074 86.9826 29.5053 86.4879 30.7293C85.7069 32.5522 84.8737 34.349 84.0667 36.1459C83.3116 37.8126 82.5827 39.4532 81.8277 41.1199C81.307 42.2136 80.4999 42.5782 79.5626 42.1876C78.6254 41.7709 78.2869 40.8334 78.7555 39.7397C80.2656 36.3282 81.8016 32.9168 83.3897 29.5574C83.6501 28.9845 84.2749 28.5938 84.5353 28.3334Z" fill="#B3D337"/>
</g>
<defs>
<clipPath id="clip0_2161_23">
<rect width="100" height="100" fill="white"/>
</clipPath>
</defs>
</svg>
