<svg width="100" height="100" viewBox="0 0 100 100" fill="none" xmlns="http://www.w3.org/2000/svg">
<g clip-path="url(#clip0_2179_881)">
<path d="M76.6667 53.3334C76.1033 53.3334 75.5533 53.3783 75 53.4185V40.0001H78.3333C81.0947 40.0001 83.3334 37.7616 83.3334 35V26.6666C83.3289 25.2524 82.7229 23.907 81.6666 22.9665V16.6665C81.6666 13.9051 79.4281 11.6664 76.6665 11.6664H74.9998V6.66666C75 2.98484 72.0153 0 68.3333 0H15.0001C11.3181 0 8.3334 2.98484 8.3334 6.66666V11.6667H6.66666C3.90525 11.6667 1.66658 13.9052 1.66658 16.6668V22.9669C0.610427 23.907 0.00444246 25.2524 0 26.6666V35C0 37.7614 2.23851 40.0001 5.00007 40.0001H8.3334V65.4635C7.30555 66.0542 6.67028 67.148 6.66666 68.3335V73.3335C6.66666 75.1745 8.15899 76.6669 9.99998 76.6669H11.6667V78.3336C11.6667 81.095 13.9052 83.3337 16.6668 83.3337H23.3335C26.0949 83.3337 28.3335 81.0952 28.3335 78.3336V76.6669H53.3336C53.3336 89.5535 63.7803 100 76.6669 100C89.5535 100 100 89.5535 100 76.6669C100 63.7803 89.5533 53.3334 76.6667 53.3334ZM80 35C80 35.9204 79.2539 36.6668 78.3333 36.6668H75V25H78.3333C79.2537 25 80 25.7462 80 26.6668V35ZM76.6667 15.0001C77.5871 15.0001 78.3334 15.7462 78.3334 16.6668V21.6669H75.0001V15.0001H76.6667ZM11.6667 6.66666C11.6667 4.82567 13.1591 3.33333 15.0001 3.33333H68.3333C70.1743 3.33333 71.6666 4.82567 71.6666 6.66666V53.8867C70.4996 54.1457 69.3544 54.4952 68.2416 54.9317C67.8324 52.2494 65.6247 50.2054 62.9189 50.004C60.2131 49.8025 57.7268 51.497 56.9251 54.089C56.1231 56.681 57.2183 59.4834 59.565 60.8451C58.3906 62.113 57.3594 63.5065 56.49 65.0001H11.6667V6.66666ZM62.3067 58.3134C61.2349 58.2394 60.328 57.494 60.0476 56.4569C59.7672 55.4199 60.1753 54.319 61.0638 53.7151C61.9523 53.1113 63.1261 53.1371 63.9871 53.7795C64.8483 54.4218 65.2073 55.5395 64.8817 56.5632C63.9854 57.0888 63.1253 57.6735 62.3067 58.3134ZM5.00007 16.6666C5.00007 15.7462 5.74624 14.9999 6.66682 14.9999H8.33357V21.6665H5.00007V16.6666ZM5.00007 36.6666C4.07966 36.6666 3.33333 35.9204 3.33333 34.9999V26.6665C3.33333 25.746 4.0795 24.9997 5.00007 24.9997H8.3334V36.6664L5.00007 36.6666ZM25 78.3333C25 79.2537 24.2539 80 23.3333 80H16.6666C15.7462 80 14.9999 79.2539 14.9999 78.3333V76.6665H24.9999L25 78.3333ZM26.6666 73.3334H9.99998V68.3333H54.8983C54.2798 69.9461 53.8443 71.6234 53.6 73.3334H26.6666ZM76.6667 96.6667C65.6209 96.6667 56.6667 87.7123 56.6667 76.6667C56.6667 65.6211 65.6211 56.6667 76.6667 56.6667C87.7123 56.6667 96.6667 65.6211 96.6667 76.6667C96.6547 87.7074 87.7074 96.6547 76.6667 96.6667Z" fill="#B3D337"/>
<path fill-rule="evenodd" clip-rule="evenodd" d="M87.8449 65.4884C87.194 64.8378 86.139 64.8378 85.4883 65.4884L65.4883 85.4884C65.0551 85.9068 64.8813 86.5264 65.0339 87.1092C65.1864 87.692 65.6415 88.147 66.2241 88.2995C66.8067 88.452 67.4265 88.2782 67.8449 87.845L87.8449 67.8451C88.4956 67.1943 88.4956 66.1393 87.8449 65.4884Z" fill="#B3D337"/>
<path d="M73.3334 70.0001C73.3334 67.2387 71.0949 65 68.3333 65C65.5719 65 63.3333 67.2385 63.3333 70.0001C63.3333 72.7615 65.5718 75.0002 68.3333 75.0002C71.0947 75 73.3334 72.7615 73.3334 70.0001ZM66.6667 70.0001C66.6667 69.0797 67.4129 68.3333 68.3335 68.3333C69.2539 68.3333 70.0002 69.0795 70.0002 70.0001C70.0002 70.9205 69.2541 71.6668 68.3335 71.6668C67.4129 71.6667 66.6667 70.9205 66.6667 70.0001Z" fill="#B3D337"/>
<path d="M84.9999 78.3335C82.2385 78.3335 79.9999 80.572 79.9999 83.3336C79.9999 86.0951 82.2384 88.3336 84.9999 88.3336C87.7614 88.3336 90 86.0951 90 83.3336C90 80.572 87.7614 78.3335 84.9999 78.3335ZM84.9999 85.0001C84.0795 85.0001 83.3334 84.254 83.3334 83.3336C83.3334 82.4132 84.0795 81.6668 84.9999 81.6668C85.9204 81.6668 86.6667 82.413 86.6667 83.3336C86.6667 84.2541 85.9205 85.0001 84.9999 85.0001Z" fill="#B3D337"/>
<path d="M18.3333 46.6666H64.9999C66.8409 46.6666 68.3332 45.1743 68.3332 43.3333V23.3333C68.3332 21.4923 66.8409 20 64.9999 20H18.3333C16.4923 20 15 21.4923 15 23.3333V43.3333C15 45.1743 16.4923 46.6666 18.3333 46.6666ZM64.9999 43.3333H43.3332V23.3333H64.9999V43.3333ZM18.3333 23.3333H40V43.3333H18.3333V23.3333Z" fill="#B3D337"/>
<path d="M28.3333 16.6665H54.9999C56.8409 16.6665 58.3333 15.1741 58.3333 13.3332V9.99983C58.3333 8.15884 56.8409 6.6665 54.9999 6.6665H28.3333C26.4923 6.6665 25 8.15884 25 9.99983V13.3332C25 15.1741 26.4923 16.6665 28.3333 16.6665ZM28.3333 9.99983H54.9999V13.3332H28.3333V9.99983Z" fill="#B3D337"/>
<path d="M50.0001 50H33.3333C31.4923 50 30 51.4923 30 53.3333V58.3334C30 60.1744 31.4923 61.6667 33.3333 61.6667H50C51.841 61.6667 53.3333 60.1744 53.3333 58.3334V53.3333C53.3335 51.4923 51.841 50 50.0001 50ZM33.3333 58.3332V53.3332H50V58.3332H33.3333Z" fill="#B3D337"/>
<path d="M20.8333 61.6666C24.0549 61.6666 26.6666 59.0549 26.6666 55.8333C26.6666 52.6117 24.0549 50 20.8333 50C17.6117 50 15 52.6117 15 55.8333C15 59.0549 17.6117 61.6666 20.8333 61.6666ZM20.8333 53.3333C22.2141 53.3333 23.3332 54.4527 23.3332 55.8333C23.3332 57.2141 22.2139 58.3332 20.8333 58.3332C19.4527 58.3332 18.3333 57.2139 18.3333 55.8333C18.3333 54.4525 19.4525 53.3333 20.8333 53.3333Z" fill="#B3D337"/>
<path fill-rule="evenodd" clip-rule="evenodd" d="M23.3332 31.6666C23.7752 31.6665 24.199 31.4909 24.5116 31.1783L26.1784 29.5115C26.81 28.8575 26.801 27.8181 26.1582 27.1751C25.5153 26.5323 24.4758 26.5232 23.8217 27.1549L22.155 28.8216C21.6785 29.2983 21.536 30.015 21.7938 30.6378C22.0517 31.2604 22.6593 31.6665 23.3332 31.6666Z" fill="#B3D337"/>
<path fill-rule="evenodd" clip-rule="evenodd" d="M34.5117 27.1549C33.8608 26.5043 32.8058 26.5043 32.155 27.1549L22.155 37.1549C21.7218 37.5733 21.5481 38.193 21.7006 38.7757C21.8531 39.3585 22.3082 39.8135 22.8909 39.966C23.4736 40.1185 24.0933 39.9448 24.5117 39.5116L34.5117 29.5116C35.1623 28.8608 35.1623 27.8058 34.5117 27.1549Z" fill="#B3D337"/>
<path fill-rule="evenodd" clip-rule="evenodd" d="M48.3334 31.6666C48.7753 31.6665 49.1991 31.4909 49.5118 31.1783L51.1785 29.5115C51.8102 28.8575 51.8011 27.8181 51.1583 27.1751C50.5154 26.5323 49.4759 26.5232 48.8219 27.1549L47.1551 28.8216C46.6786 29.2983 46.5361 30.015 46.794 30.6378C47.0518 31.2604 47.6594 31.6665 48.3334 31.6666Z" fill="#B3D337"/>
<path fill-rule="evenodd" clip-rule="evenodd" d="M47.1549 39.5115C47.8058 40.1621 48.8608 40.1621 49.5116 39.5115L59.5116 29.5115C60.1432 28.8575 60.1342 27.8181 59.4913 27.1751C58.8485 26.5323 57.8089 26.5232 57.1549 27.1549L47.1549 37.1549C46.5043 37.8058 46.5043 38.8608 47.1549 39.5115Z" fill="#B3D337"/>
</g>
<defs>
<clipPath id="clip0_2179_881">
<rect width="100" height="100" fill="white"/>
</clipPath>
</defs>
</svg>
