<svg width="100" height="100" viewBox="0 0 100 100" fill="none" xmlns="http://www.w3.org/2000/svg">
<g clip-path="url(#clip0_2179_42)">
<path d="M13.3334 100H86.6667C87.9928 100 89.2646 99.4732 90.2022 98.5355C91.1399 97.5978 91.6667 96.3261 91.6667 95V46.6667C91.6667 45.3406 91.1399 44.0688 90.2022 43.1311C89.2646 42.1934 87.9928 41.6667 86.6667 41.6667H70V32.0333C70.5223 31.5684 70.9406 30.9985 71.2278 30.361C71.515 29.7235 71.6645 29.0326 71.6667 28.3333V18.2617C71.667 15.9781 70.9971 13.7446 69.74 11.8382C68.483 9.93171 66.6941 8.43607 64.595 7.53667L63.3334 7V3.33333C63.3334 2.44928 62.9822 1.60143 62.3571 0.976311C61.7319 0.35119 60.8841 0 60 0L41.6667 0C40.7827 0 39.9348 0.35119 39.3097 0.976311C38.6846 1.60143 38.3334 2.44928 38.3334 3.33333V5.15C38.3284 5.80646 38.1371 6.44801 37.7817 7L36.9667 8.215C35.678 10.1316 34.9929 12.3904 35 14.7V28.3333H33.3334C32.4493 28.3333 31.6015 28.6845 30.9764 29.3096C30.3512 29.9348 30 30.7826 30 31.6667V41.6667H13.3334C12.0073 41.6667 10.7355 42.1934 9.79784 43.1311C8.86016 44.0688 8.33337 45.3406 8.33337 46.6667V95C8.33337 96.3261 8.86016 97.5978 9.79784 98.5355C10.7355 99.4732 12.0073 100 13.3334 100ZM11.6667 95V71.6233C13.1007 72.7263 14.8576 73.3272 16.6667 73.3333H41.6667V76.6667C41.6689 77.3659 41.8185 78.0568 42.1056 78.6943C42.3928 79.3319 42.8112 79.9017 43.3334 80.3667V96.6667H13.3334C12.8913 96.6667 12.4674 96.4911 12.1549 96.1785C11.8423 95.8659 11.6667 95.442 11.6667 95ZM46.6667 45H53.3334V61.6667H46.6667V45ZM46.6667 78.3333C46.2247 78.3333 45.8008 78.1577 45.4882 77.8452C45.1756 77.5326 45 77.1087 45 76.6667V66.6667C45 66.2246 45.1756 65.8007 45.4882 65.4882C45.8008 65.1756 46.2247 65 46.6667 65H53.3334C53.7754 65 54.1993 65.1756 54.5119 65.4882C54.8244 65.8007 55 66.2246 55 66.6667V76.6667C55 77.1087 54.8244 77.5326 54.5119 77.8452C54.1993 78.1577 53.7754 78.3333 53.3334 78.3333H46.6667ZM46.6667 96.6667V81.6667H53.3334V96.6667H46.6667ZM86.6667 96.6667H56.6667V80.3667C57.1889 79.9017 57.6073 79.3319 57.8944 78.6943C58.1816 78.0568 58.3312 77.3659 58.3334 76.6667V73.3333H83.3334C85.1425 73.3272 86.8994 72.7263 88.3334 71.6233V95C88.3334 95.442 88.1578 95.8659 87.8452 96.1785C87.5327 96.4911 87.1087 96.6667 86.6667 96.6667ZM88.3334 46.6667V65C88.3334 66.3261 87.8066 67.5978 86.8689 68.5355C85.9312 69.4732 84.6595 70 83.3334 70H58.3334V66.6667C58.3312 65.9674 58.1816 65.2765 57.8944 64.639C57.6073 64.0015 57.1889 63.4316 56.6667 62.9667V45H86.6667C87.1087 45 87.5327 45.1756 87.8452 45.4882C88.1578 45.8007 88.3334 46.2246 88.3334 46.6667ZM38.3334 14.7C38.3281 13.0542 38.8157 11.4445 39.7334 10.0783L40.5667 8.83167C41.278 7.73492 41.6597 6.45717 41.6667 5.15V3.33333H60V5.56833L58.99 5.135C58.5851 4.9682 58.1309 4.96745 57.7254 5.13293C57.32 5.29841 56.9959 5.61681 56.8234 6.01929C56.6508 6.42177 56.6436 6.876 56.8033 7.28376C56.963 7.69153 57.2767 8.02006 57.6767 8.19833L60.9967 9.62167L61.04 9.64L63.2817 10.6C64.7812 11.2424 66.0592 12.3109 66.9572 13.6728C67.8552 15.0347 68.3337 16.6303 68.3334 18.2617V28.3333C68.3334 28.7754 68.1578 29.1993 67.8452 29.5118C67.5327 29.8244 67.1087 30 66.6667 30C66.2247 30 65.8008 29.8244 65.4882 29.5118C65.1756 29.1993 65 28.7754 65 28.3333V21.6667C65 21.2246 64.8244 20.8007 64.5119 20.4882C64.1993 20.1756 63.7754 20 63.3334 20C62.8913 20 62.4674 20.1756 62.1549 20.4882C61.8423 20.8007 61.6667 21.2246 61.6667 21.6667V33.3333C61.6667 33.7754 61.4911 34.1993 61.1786 34.5118C60.866 34.8244 60.4421 35 60 35C59.558 35 59.1341 34.8244 58.8215 34.5118C58.509 34.1993 58.3334 33.7754 58.3334 33.3333V30C58.3334 29.558 58.1578 29.134 57.8452 28.8215C57.5327 28.5089 57.1087 28.3333 56.6667 28.3333C56.2247 28.3333 55.8008 28.5089 55.4882 28.8215C55.1756 29.134 55 29.558 55 30V35C55 35.442 54.8244 35.866 54.5119 36.1785C54.1993 36.4911 53.7754 36.6667 53.3334 36.6667C52.8913 36.6667 52.4674 36.4911 52.1549 36.1785C51.8423 35.866 51.6667 35.442 51.6667 35V30C51.6667 29.558 51.4911 29.134 51.1786 28.8215C50.866 28.5089 50.4421 28.3333 50 28.3333C49.558 28.3333 49.1341 28.5089 48.8215 28.8215C48.509 29.134 48.3334 29.558 48.3334 30V33.3333C48.3334 33.7754 48.1578 34.1993 47.8452 34.5118C47.5327 34.8244 47.1087 35 46.6667 35C46.2247 35 45.8008 34.8244 45.4882 34.5118C45.1756 34.1993 45 33.7754 45 33.3333V30C45 29.558 44.8244 29.134 44.5119 28.8215C44.1993 28.5089 43.7754 28.3333 43.3334 28.3333C42.8913 28.3333 42.4674 28.5089 42.1549 28.8215C41.8423 29.134 41.6667 29.558 41.6667 30V31.6667C41.6674 31.8888 41.6225 32.1088 41.5348 32.3129C41.4471 32.517 41.3184 32.701 41.1567 32.8533C41.0063 33.0072 40.8262 33.1291 40.6275 33.2116C40.4287 33.2941 40.2153 33.3355 40 33.3333C39.558 33.3333 39.1341 33.1577 38.8215 32.8452C38.509 32.5326 38.3334 32.1087 38.3334 31.6667V14.7ZM33.3334 31.6667H35C35 32.9927 35.5268 34.2645 36.4645 35.2022C37.4022 36.1399 38.674 36.6667 40 36.6667C40.862 36.6625 41.7079 36.4327 42.4534 36C43.1286 37.0914 44.2031 37.8763 45.4482 38.1875C46.6932 38.4988 48.0106 38.3119 49.12 37.6667C49.567 38.3813 50.1884 38.9705 50.9257 39.379C51.6631 39.7875 52.4921 40.0018 53.335 40.0018C54.178 40.0018 55.007 39.7875 55.7444 39.379C56.4817 38.9705 57.103 38.3813 57.55 37.6667C58.2948 38.0983 59.1393 38.3281 60 38.3333C61.3261 38.3333 62.5979 37.8065 63.5356 36.8689C64.4733 35.9312 65 34.6594 65 33.3333V33.0267C65.5338 33.2241 66.0976 33.3278 66.6667 33.3333V41.6667H33.3334V31.6667ZM11.6667 46.6667C11.6667 46.2246 11.8423 45.8007 12.1549 45.4882C12.4674 45.1756 12.8913 45 13.3334 45H43.3334V62.9667C42.8112 63.4316 42.3928 64.0015 42.1056 64.639C41.8185 65.2765 41.6689 65.9674 41.6667 66.6667V70H16.6667C15.3406 70 14.0689 69.4732 13.1312 68.5355C12.1935 67.5978 11.6667 66.3261 11.6667 65V46.6667Z" fill="#B3D337"/>
</g>
<defs>
<clipPath id="clip0_2179_42">
<rect width="100" height="100" fill="white"/>
</clipPath>
</defs>
</svg>
