<svg width="100" height="100" viewBox="0 0 100 100" fill="none" xmlns="http://www.w3.org/2000/svg">
<g clip-path="url(#clip0_2161_642)">
<path d="M7.30328 51.6666C5.84147 52.9164 4.99981 54.7433 4.99981 56.6666C4.99981 58.5898 5.84147 60.4168 7.30328 61.6666C5.84147 62.9164 4.99981 64.7433 4.99981 66.6666C4.99981 68.5898 5.84147 70.4168 7.30328 71.6666C5.84147 72.9164 4.99981 74.7433 4.99981 76.6666C4.99981 78.5898 5.84147 80.4168 7.30328 81.6666C4.86915 83.7345 4.28688 87.2591 5.92661 89.9999H3.33328C1.49233 89.9999 -5.49804e-05 91.4923 -5.49804e-05 93.3333V96.6666C-5.49804e-05 98.5075 1.49233 99.9999 3.33328 99.9999H96.6666C98.5076 99.9999 99.9999 98.5075 99.9999 96.6666V93.3333C99.9999 91.4923 98.5076 89.9999 96.6666 89.9999H94.0733C95.713 87.2591 95.1307 83.7345 92.6966 81.6666C94.1584 80.4168 95.0001 78.5898 95.0001 76.6666C95.0001 74.7433 94.1584 72.9164 92.6966 71.6666C94.1584 70.4168 95.0001 68.5898 95.0001 66.6666C95.0001 64.7433 94.1584 62.9164 92.6966 61.6666C94.1584 60.4168 95.0001 58.5898 95.0001 56.6666C95.0001 54.7433 94.1584 52.9164 92.6966 51.6666C94.7783 49.9012 95.5404 47.0263 94.6066 44.4616C97.5165 43.3639 99.573 40.7371 99.9403 37.6487C100.308 34.5604 98.9246 31.5245 96.3533 29.7749L54.6866 1.44159C51.8624 -0.493551 48.1391 -0.493551 45.3149 1.44159L3.64828 29.7749C1.07377 31.5185 -0.312263 34.5532 0.0557803 37.6407C0.423824 40.7282 2.48439 43.3521 5.39661 44.4416C4.45476 47.0115 5.21599 49.8961 7.30328 51.6666ZM8.33328 56.6666C8.33328 54.8256 9.82566 53.3333 11.6666 53.3333C13.5076 53.3333 14.9999 54.8256 14.9999 56.6666C14.9999 58.5075 13.5076 59.9999 11.6666 59.9999C10.7826 59.9999 9.93471 59.6487 9.30959 59.0236C8.68447 58.3985 8.33328 57.5506 8.33328 56.6666ZM24.9999 39.9999H18.2516L25.6049 34.9999H74.3966L81.7499 39.9999H56.6666C55.7461 39.9999 54.9999 40.7461 54.9999 41.6666C54.9999 42.5871 55.7461 43.3333 56.6666 43.3333H82.5749C81.3571 45.3904 81.3642 47.9495 82.5933 49.9999H81.6666C80.7461 49.9999 79.9999 50.7461 79.9999 51.6666C79.9999 52.5871 80.7461 53.3333 81.6666 53.3333H82.5933C80.9536 56.0741 81.5358 59.5987 83.9699 61.6666C81.5358 63.7344 80.9536 67.2591 82.5933 69.9999H81.6666C80.7461 69.9999 79.9999 70.7461 79.9999 71.6666C79.9999 72.5871 80.7461 73.3333 81.6666 73.3333H82.5933C80.9536 76.0741 81.5358 79.5987 83.9699 81.6666C81.5358 83.7345 80.9536 87.2591 82.5933 89.9999H76.6666V53.3333C76.6666 51.4923 75.1742 49.9999 73.3333 49.9999H48.3333C47.4128 49.9999 46.6666 50.7461 46.6666 51.6666C46.6666 52.5871 47.4128 53.3333 48.3333 53.3333H53.3333V69.9999H48.3333C47.4128 69.9999 46.6666 70.7461 46.6666 71.6666C46.6666 72.5871 47.4128 73.3333 48.3333 73.3333H53.3333V79.9999H44.9999C44.0795 79.9999 43.3333 80.7461 43.3333 81.6666C43.3333 82.5871 44.0795 83.3333 44.9999 83.3333H53.3333V89.9999H17.4066C18.6422 87.9495 18.6422 85.3837 17.4066 83.3333H36.6666C37.5871 83.3333 38.3333 82.5871 38.3333 81.6666C38.3333 80.7461 37.5871 79.9999 36.6666 79.9999H17.4066C18.6422 77.9495 18.6422 75.3837 17.4066 73.3333H19.9999C20.9204 73.3333 21.6666 72.5871 21.6666 71.6666C21.6666 70.7461 20.9204 69.9999 19.9999 69.9999H17.4066C19.0463 67.2591 18.4641 63.7344 16.0299 61.6666C18.4641 59.5987 19.0463 56.0741 17.4066 53.3333H19.9999C20.9204 53.3333 21.6666 52.5871 21.6666 51.6666C21.6666 50.7461 20.9204 49.9999 19.9999 49.9999H17.4066C18.6357 47.9495 18.6427 45.3904 17.4249 43.3333H24.9999C25.9204 43.3333 26.6666 42.5871 26.6666 41.6666C26.6666 40.7461 25.9204 39.9999 24.9999 39.9999ZM37.8599 26.6666H62.1399L69.4999 31.6666H30.4999L37.8599 26.6666ZM42.7616 23.3333L49.9999 18.4116L57.2383 23.3333H42.7616ZM56.6666 81.6666V53.3333H73.3333V71.6666H69.9999C69.0795 71.6666 68.3333 72.4128 68.3333 73.3333C68.3333 74.2537 69.0795 74.9999 69.9999 74.9999H73.3333V89.9999H56.6666V81.6666ZM8.33328 66.6666C8.33328 64.8256 9.82566 63.3333 11.6666 63.3333C13.5076 63.3333 14.9999 64.8256 14.9999 66.6666C14.9999 68.5075 13.5076 69.9999 11.6666 69.9999C10.7826 69.9999 9.93471 69.6487 9.30959 69.0236C8.68447 68.3985 8.33328 67.5506 8.33328 66.6666ZM8.33328 76.6666C8.33328 74.8256 9.82566 73.3333 11.6666 73.3333C13.5076 73.3333 14.9999 74.8256 14.9999 76.6666C14.9999 78.5075 13.5076 79.9999 11.6666 79.9999C10.7826 79.9999 9.93471 79.6487 9.30959 79.0236C8.68447 78.3985 8.33328 77.5506 8.33328 76.6666ZM8.33328 86.6666C8.33328 84.8256 9.82566 83.3333 11.6666 83.3333C13.5076 83.3333 14.9999 84.8256 14.9999 86.6666C14.9999 88.5075 13.5076 89.9999 11.6666 89.9999C10.7826 89.9999 9.93471 89.6487 9.30959 89.0236C8.68447 88.3985 8.33328 87.5506 8.33328 86.6666ZM96.6666 96.6666H3.33328V93.3333H96.6666V96.6666ZM91.6666 86.6666C91.6666 88.5075 90.1742 89.9999 88.3333 89.9999C86.4923 89.9999 84.9999 88.5075 84.9999 86.6666C84.9999 84.8256 86.4923 83.3333 88.3333 83.3333C90.1742 83.3333 91.6666 84.8256 91.6666 86.6666ZM91.6666 76.6666C91.6666 78.5075 90.1742 79.9999 88.3333 79.9999C86.4923 79.9999 84.9999 78.5075 84.9999 76.6666C84.9999 74.8256 86.4923 73.3333 88.3333 73.3333C90.1742 73.3333 91.6666 74.8256 91.6666 76.6666ZM91.6666 66.6666C91.6666 68.5075 90.1742 69.9999 88.3333 69.9999C86.4923 69.9999 84.9999 68.5075 84.9999 66.6666C84.9999 64.8256 86.4923 63.3333 88.3333 63.3333C90.1742 63.3333 91.6666 64.8256 91.6666 66.6666ZM91.6666 56.6666C91.6666 58.5075 90.1742 59.9999 88.3333 59.9999C86.4923 59.9999 84.9999 58.5075 84.9999 56.6666C84.9999 54.8256 86.4923 53.3333 88.3333 53.3333C90.1742 53.3333 91.6666 54.8256 91.6666 56.6666ZM84.9999 46.6666C84.993 45.3226 85.799 44.1077 87.0399 43.5916C88.2746 44.4131 89.7074 44.8874 91.1883 44.9649C91.9167 46.1737 91.8049 47.7101 90.9093 48.8008C90.0137 49.8914 88.5283 50.2998 87.201 49.8205C85.8736 49.3411 84.992 48.0778 84.9999 46.6666ZM4.19994 39.4783C2.64769 37.1954 3.23934 34.0864 5.52161 32.5333L47.1883 4.19992C48.8825 3.03755 51.1174 3.03755 52.8116 4.19992L94.4783 32.5333C95.9952 33.5212 96.8597 35.2519 96.7384 37.0581C96.6171 38.8643 95.529 40.4638 93.8936 41.2401C92.2582 42.0163 90.331 41.848 88.8549 40.7999L50.9383 15.0166C50.3725 14.6317 49.629 14.6317 49.0633 15.0166L11.1449 40.8016C8.86161 42.3535 5.75258 41.7611 4.19994 39.4783ZM8.33328 46.6666C8.33478 46.0677 8.49958 45.4805 8.80995 44.9683C10.2924 44.8907 11.7265 44.4151 12.9616 43.5916C14.5001 44.2403 15.3214 45.9271 14.883 47.5382C14.4447 49.1493 12.882 50.1875 11.2269 49.9673C9.57183 49.747 8.33503 48.3363 8.33328 46.6666Z" fill="#B3D337"/>
<path d="M23.3333 53.3333V70C23.3333 71.841 24.8256 73.3333 26.6666 73.3333H39.9999C41.8409 73.3333 43.3333 71.841 43.3333 70V63.3333H48.3333C49.2537 63.3333 49.9999 62.5871 49.9999 61.6667C49.9999 60.7462 49.2537 60 48.3333 60H43.3333V53.3333C43.3333 51.4924 41.8409 50 39.9999 50H26.6666C24.8256 50 23.3333 51.4924 23.3333 53.3333ZM26.6666 63.3333H31.6666V70H26.6666V63.3333ZM34.9999 70V63.3333H39.9999V70H34.9999ZM39.9999 60H34.9999V53.3333H39.9999V60ZM31.6666 53.3333V60H26.6666V53.3333H31.6666Z" fill="#B3D337"/>
<path d="M31.6667 43.3333H35C35.9205 43.3333 36.6667 42.5871 36.6667 41.6667C36.6667 40.7462 35.9205 40 35 40H31.6667C30.7462 40 30 40.7462 30 41.6667C30 42.5871 30.7462 43.3333 31.6667 43.3333Z" fill="#B3D337"/>
<path d="M70 63.3332V59.9998C70 58.1589 68.5076 56.6665 66.6667 56.6665H63.3333C61.4924 56.6665 60 58.1589 60 59.9998V63.3332C60 65.1741 61.4924 66.6665 63.3333 66.6665H66.6667C68.5076 66.6665 70 65.1741 70 63.3332ZM63.3333 63.3332V59.9998H66.6667V63.3332H63.3333Z" fill="#B3D337"/>
</g>
<defs>
<clipPath id="clip0_2161_642">
<rect width="100" height="100" fill="white"/>
</clipPath>
</defs>
</svg>
