<svg width="100" height="100" viewBox="0 0 100 100" fill="none" xmlns="http://www.w3.org/2000/svg">
<g clip-path="url(#clip0_2161_675)">
<path d="M95 48.3336H89.6934C90.1549 47.0898 90.0938 45.7121 89.5236 44.5143C88.9535 43.3162 87.923 42.4 86.6668 41.9736V28.027C87.9523 27.5818 88.9982 26.6275 89.5594 25.3883C90.1205 24.1488 90.1473 22.7334 89.6334 21.4736C91.8088 20.8879 93.3238 18.9197 93.3334 16.667V6.66699C93.3334 3.90566 91.0947 1.66699 88.3334 1.66699H5C2.23867 1.6668 0 3.90547 0 6.6668V16.6668C0 19.4281 2.23867 21.6668 5 21.6668H6.70996C2.19023 25.0266 -0.321094 30.4463 0.0380859 36.0666C0.397266 41.6869 3.57773 46.743 8.48828 49.5002C7.33867 50.4414 6.67031 51.8477 6.6666 53.3336V70.0002C6.67207 70.5693 6.77578 71.133 6.97324 71.6668H5C2.23867 71.6668 0 73.9055 0 76.6668V93.3334C0 96.0947 2.23867 98.3334 5 98.3334H88.3334C91.0947 98.3334 93.3334 96.0947 93.3334 93.3334V76.6668C93.3279 76.0977 93.2242 75.534 93.0268 75.0002H95C97.7613 75.0002 100 72.7615 100 70.0002V53.3336C100 50.5721 97.7615 48.3336 95 48.3336ZM75 71.6668H25V51.6668H81.6666V71.6668H75ZM73.3334 75.0002V95.0002H20V75.0002H73.3334ZM16.6666 41.6668C12.9848 41.6668 10 38.682 10 35.0002C10 31.3184 12.9848 28.3336 16.6666 28.3336H83.3332V41.667H16.6666V41.6668ZM90 6.6668V16.6668C90 17.5873 89.2539 18.3334 88.3334 18.3334H80V5.0002H88.3334C89.2539 5.0002 90 5.74648 90 6.6668ZM76.6666 5.0002V18.3336H73.3332V5.0002H76.6666ZM23.3334 18.3336V5.0002H70V18.3336H23.3334ZM20 5.0002V18.3336H16.6666V5.0002H20ZM3.3334 16.6668V6.6668C3.3334 5.74629 4.07969 5.0002 5 5.0002H13.3334V18.3336H5C4.07949 18.3336 3.3334 17.5873 3.3334 16.6668ZM3.3334 35.0002C3.3416 27.6398 9.30645 21.6752 16.6668 21.6668H85C85.9205 21.6668 86.6666 22.4131 86.6666 23.3334C86.6666 24.2539 85.9203 25 85 25H16.6666C11.1438 25 6.6666 29.4771 6.6666 35C6.6666 40.5229 11.1438 45 16.6666 45H85C85.9205 45 86.6666 45.7463 86.6666 46.6666C86.6666 47.5871 85.9203 48.3332 85 48.3332H16.6666C9.30625 48.3252 3.3416 42.3605 3.3334 35.0002ZM10 70.0002V53.3336C10 52.4131 10.7463 51.667 11.6666 51.667H21.6666V71.667H11.6666C10.7463 71.6668 10 70.9207 10 70.0002ZM3.3334 93.3336V76.667C3.3334 75.7465 4.07969 75.0004 5 75.0004H10V95.0004H5C4.07949 95.0002 3.3334 94.2541 3.3334 93.3336ZM13.3334 95.0002V75.0002H16.6668V95.0002H13.3334ZM76.6666 95.0002V75.0002H80V95.0002H76.6666ZM90 76.6668V93.3334C90 94.2539 89.2539 95 88.3334 95H83.3334V75.0002H88.3334C89.2539 75.0002 90 75.7465 90 76.6668ZM96.6666 70.0002C96.6666 70.9207 95.9205 71.6668 95 71.6668H85V51.6668H95C95.9205 51.6668 96.6666 52.4129 96.6666 53.3334V70.0002Z" fill="#B3D337"/>
<path d="M73.3334 55H33.3334C32.4128 55 31.6667 55.7463 31.6667 56.6666V66.6666C31.6667 67.5871 32.413 68.3332 33.3334 68.3332H73.3334C74.2539 68.3332 75 67.5869 75 66.6666V56.6666C75 55.7463 74.2539 55 73.3334 55ZM71.6666 65H34.9999V58.3334H71.6666V65Z" fill="#B3D337"/>
<path d="M46.6666 91.6667C54.6934 91.6667 63.3332 89.58 63.3332 85.0001C63.3332 80.42 54.6932 78.3335 46.6666 78.3335C38.64 78.3335 30 80.42 30 85.0001C30 89.5802 38.64 91.6667 46.6666 91.6667ZM46.6666 81.6667C55.4166 81.6667 60 84.1435 60 85.0001C60 85.8567 55.4166 88.3335 46.6666 88.3335C37.9166 88.3335 33.3332 85.8567 33.3332 85.0001C33.3334 84.1435 37.9166 81.6667 46.6666 81.6667Z" fill="#B3D337"/>
</g>
<defs>
<clipPath id="clip0_2161_675">
<rect width="100" height="100" fill="white"/>
</clipPath>
</defs>
</svg>
