<svg width="100" height="100" viewBox="0 0 100 100" fill="none" xmlns="http://www.w3.org/2000/svg">
<g clip-path="url(#clip0_2179_437)">
<path d="M62.641 1.07026C58.4715 0.308781 54.2382 -0.0478409 50.0001 0.00528131C45.7659 -0.0484268 41.5365 0.307609 37.3707 1.06851C35.0245 1.52512 33.3316 3.58146 33.3342 5.97157V10.4313L21.4231 14.0043C18.6101 14.8594 16.6823 17.4473 16.6683 20.3874V32.3202C16.6608 35.1052 15.4498 37.7508 13.3468 39.5764C12.2712 40.5135 11.6584 41.8732 11.6685 43.2995V93.3336C11.6685 97.0152 14.6531 99.9998 18.3348 99.9998H81.6648C85.3465 99.9998 88.3311 97.0152 88.3311 93.3336V43.2946C88.3414 41.8685 87.7292 40.5088 86.6544 39.5716C84.544 37.7535 83.3306 35.106 83.3313 32.3202V20.3876C83.3173 17.4475 81.3897 14.8596 78.5765 14.0045L66.6654 10.4315V5.97157C66.6602 3.58869 64.9772 1.53938 62.641 1.07026ZM51.6666 30.0037V36.6699C51.6666 37.5904 50.9206 38.3365 50.0001 38.3365C49.0796 38.3365 48.3336 37.5902 48.3336 36.6699V30.0037H51.6666ZM36.6674 6.75825C40.3904 9.94968 47.3635 17.1095 48.2285 26.4406C46.4024 25.9717 44.833 24.8055 43.8571 23.1925L36.6674 11.2098V6.75825ZM51.7715 26.4406C52.6365 17.1077 59.6045 9.94987 63.3326 6.75825V11.2098L56.1429 23.1925C55.1672 24.8055 53.5976 25.9717 51.7715 26.4406ZM61.1911 4.19178C56.2646 8.24313 52.4195 13.4526 50.0001 19.3543C47.5811 13.4514 43.736 8.24059 38.8091 4.18846C42.5079 3.58224 46.2522 3.29788 50.0001 3.3385C53.7479 3.29905 57.4923 3.58458 61.1911 4.19178ZM22.3814 17.2011L34.2392 13.6395L41.0006 24.9073C41.3886 25.5422 41.8441 26.1334 42.3589 26.6705H20.0017V20.3876C20.0103 18.9183 20.9753 17.6264 22.3814 17.2011ZM15.5218 42.1031C18.36 39.6436 19.9937 36.0756 20.0017 32.3202V30.0037H45.0004V36.6699C45.0091 38.7812 46.3431 40.6594 48.3336 41.3631V45.0029H15.0015L15.0019 43.2997C14.9928 42.844 15.1826 42.4071 15.5218 42.1031ZM84.9982 85.0008H83.3317C82.4113 85.0008 81.6652 84.2545 81.6652 83.3343V65.0019C81.6652 64.0814 82.4115 63.3353 83.3317 63.3353H84.9982V85.0008ZM84.9982 60.0021H83.3317C81.2205 60.0109 79.3423 61.3448 78.6386 63.3353H51.6666V48.3361H84.9982V60.0021ZM78.3318 81.6676H51.6666V66.6684H78.3318V81.6676ZM21.6682 66.6684H48.3334V81.6676H21.6682V66.6684ZM48.3334 63.3353H21.3616C20.6579 61.3448 18.7797 60.0109 16.6685 60.0021H15.0019V48.3361H48.3334V63.3353ZM15.0017 63.3353H16.6683C17.5887 63.3353 18.3348 64.0816 18.3348 65.0019V83.3343C18.3348 84.2547 17.5885 85.0008 16.6683 85.0008H15.0017V63.3353ZM15.0017 93.3338V88.334H16.6683C18.7795 88.3252 20.6577 86.9913 21.3614 85.0008H48.3334V96.6668H18.335C16.4942 96.6668 15.0017 95.1745 15.0017 93.3338ZM81.665 96.6668H51.6666V85.0008H78.6384C79.3421 86.9913 81.2203 88.3252 83.3315 88.334H84.9981V93.3338C84.9981 94.2177 84.6469 95.0655 84.0217 95.6907C83.3968 96.3156 82.549 96.6668 81.665 96.6668ZM84.4782 42.0947C84.8176 42.4001 85.0074 42.838 84.9981 43.2946L84.9984 45.0029H51.6666V41.3631C53.6571 40.6594 54.991 38.7812 54.9998 36.6699V30.0037H79.9985V32.3202C79.9962 36.0755 81.632 39.645 84.4782 42.0947ZM79.9985 20.3876V26.6707H57.6413C58.1567 26.1336 58.6127 25.5424 59.0012 24.9075L65.7608 13.6397L77.6201 17.2012C79.0257 17.627 79.9899 18.9189 79.9985 20.3876Z" fill="#B3D337"/>
</g>
<defs>
<clipPath id="clip0_2179_437">
<rect width="100" height="100" fill="white"/>
</clipPath>
</defs>
</svg>
