<svg width="100" height="100" viewBox="0 0 100 100" fill="none" xmlns="http://www.w3.org/2000/svg">
<g clip-path="url(#clip0_2161_304)">
<path d="M92.8817 45H92.8734C88.8317 45 85.3217 48.0933 84.005 49.4183C83.2817 50.1417 82.4883 50.9667 81.6717 51.8317V38.59C82.1971 38.1226 82.6173 37.5491 82.9046 36.9072C83.1919 36.2654 83.3398 35.5699 83.3384 34.8667V18.3333C83.3384 17.0073 82.8116 15.7355 81.8739 14.7978C80.9362 13.8601 79.6644 13.3333 78.3384 13.3333H59.8234C59.175 9.42833 56.1117 0 41.6667 0C27.2217 0 24.1667 9.42833 23.51 13.3333H5.00001C3.67393 13.3333 2.40216 13.8601 1.46448 14.7978C0.526797 15.7355 1.2324e-05 17.0073 1.2324e-05 18.3333V34.8667C-0.00155395 35.5704 0.146191 36.2664 0.43349 36.9088C0.720789 37.5512 1.14111 38.1254 1.66668 38.5933V70C1.66668 71.3261 2.19346 72.5979 3.13115 73.5355C4.06883 74.4732 5.3406 75 6.66668 75H61.565C59.5167 77.48 57.8084 79.57 56.7034 80.9267L51.4734 79.6367C50.9184 79.4925 50.3356 79.4934 49.7811 79.6394C49.2265 79.7853 48.7188 80.0713 48.3067 80.47L45.9683 82.8333C45.5982 83.2045 45.3213 83.6581 45.1604 84.157C44.9995 84.6558 44.959 85.1857 45.0425 85.7032C45.1259 86.2207 45.3308 86.711 45.6404 87.134C45.9499 87.557 46.3553 87.9006 46.8234 88.1367L48.8234 89.125C47.9467 90.0691 47.4725 91.3176 47.5015 92.6056C47.5304 93.8936 48.0602 95.1196 48.9784 96.0233C49.8972 96.9099 51.1159 97.4184 52.3924 97.4478C53.6689 97.4771 54.9098 97.0251 55.8684 96.1817L56.8817 98.2033C57.1277 98.6685 57.4793 99.0695 57.9082 99.3743C58.3371 99.679 58.8315 99.8791 59.3517 99.9583C59.5171 99.9838 59.6843 99.9966 59.8517 99.9967C60.2807 99.9976 60.7057 99.9134 61.1019 99.7489C61.4982 99.5844 61.8578 99.3429 62.16 99.0383L64.5734 96.6233C64.9538 96.2184 65.226 95.724 65.3647 95.1859C65.5033 94.6478 65.504 94.0834 65.3667 93.545L64.07 88.2883C66.3384 86.445 70.6484 82.93 75.46 78.875L85.8984 92.8067C86.1894 93.197 86.5604 93.5205 86.9867 93.7557C87.413 93.9908 87.8847 94.1321 88.37 94.17C88.8675 94.2072 89.3672 94.1372 89.8353 93.9647C90.3034 93.7922 90.729 93.5212 91.0834 93.17L93.8134 90.425C94.297 89.9532 94.6286 89.3476 94.7658 88.686C94.903 88.0244 94.8395 87.3369 94.5834 86.7117L87.3684 68.6383C90.59 65.7867 93.415 63.1583 95.5817 60.9933C96.91 59.6667 100 56.1667 100 52.125C99.9852 50.2411 99.2307 48.4384 97.8992 47.1056C96.5676 45.7728 94.7656 45.0166 92.8817 45ZM41.6667 3.33333C53.1384 3.33333 55.8334 10.1067 56.4617 13.3333H26.8583C27.4683 10.1067 30.115 3.33333 41.6667 3.33333ZM3.33335 18.3333C3.33335 17.8913 3.50894 17.4674 3.8215 17.1548C4.13406 16.8423 4.55799 16.6667 5.00001 16.6667H78.3334C78.7754 16.6667 79.1993 16.8423 79.5119 17.1548C79.8244 17.4674 80 17.8913 80 18.3333V34.8667C80.0024 35.1714 79.92 35.4707 79.7619 35.7312C79.6038 35.9917 79.3764 36.2031 79.105 36.3417C75.7717 38.1 67.305 41.0783 48.0134 41.625C47.6638 40.6634 47.0276 39.8322 46.1907 39.2436C45.3538 38.655 44.3565 38.3372 43.3334 38.3333H40C38.9769 38.3372 37.9795 38.655 37.1426 39.2436C36.3058 39.8322 35.6696 40.6634 35.32 41.625C16.0283 41.0783 7.56335 38.1 4.21335 36.3333C3.9458 36.1936 3.72204 35.9828 3.56676 35.724C3.41147 35.4651 3.3307 35.1685 3.33335 34.8667V18.3333ZM45 43.3333V50C45 50.442 44.8244 50.866 44.5119 51.1785C44.1993 51.4911 43.7754 51.6667 43.3334 51.6667H40C39.558 51.6667 39.1341 51.4911 38.8215 51.1785C38.5089 50.866 38.3334 50.442 38.3334 50V43.3333C38.3334 42.8913 38.5089 42.4674 38.8215 42.1548C39.1341 41.8423 39.558 41.6667 40 41.6667H43.3334C43.7754 41.6667 44.1993 41.8423 44.5119 42.1548C44.8244 42.4674 45 42.8913 45 43.3333ZM6.66668 71.6667C6.22465 71.6667 5.80073 71.4911 5.48817 71.1785C5.17561 70.866 5.00001 70.442 5.00001 70V40.3467C9.60501 42.1883 18.55 44.4617 35 44.95V50C35 51.3261 35.5268 52.5979 36.4645 53.5355C37.4022 54.4732 38.6739 55 40 55H43.3334C44.6594 55 45.9312 54.4732 46.8689 53.5355C47.8066 52.5979 48.3334 51.3261 48.3334 50V44.95C64.7934 44.4617 73.7384 42.185 78.3334 40.3483V55.4267C77.69 56.1389 77.0317 56.8739 76.3584 57.6317L58.285 50.4167C57.6595 50.1613 56.9721 50.098 56.3105 50.2349C55.6488 50.3717 55.0429 50.7025 54.57 51.185L51.8234 53.9317C51.4775 54.2835 51.2104 54.7049 51.0397 55.1678C50.8691 55.6306 50.7987 56.1245 50.8334 56.6167C50.8683 57.1025 51.0067 57.5753 51.2392 58.0033C51.4718 58.4313 51.7931 58.8046 52.1817 59.0983L66.12 69.525C65.5084 70.255 64.9134 70.9667 64.33 71.6667H6.66668ZM93.2284 58.6333C90.9167 60.9433 87.825 63.8 84.2884 66.91C84.0296 67.1372 83.8476 67.439 83.7673 67.7738C83.687 68.1087 83.7124 68.4602 83.84 68.78L91.4567 88.0717L88.5717 90.8133L77.0717 75.4633C76.9355 75.2816 76.7636 75.1295 76.5665 75.0166C76.3694 74.9037 76.1514 74.8322 75.9257 74.8066C75.7 74.781 75.4714 74.8018 75.2541 74.8677C75.0367 74.9337 74.8351 75.0433 74.6617 75.19C68.6617 80.2733 63.2084 84.7017 61.1617 86.3683C60.9163 86.5678 60.7328 86.8329 60.6324 87.1327C60.5321 87.4325 60.5191 87.7547 60.595 88.0617L62.1834 94.3167L59.8334 96.6833L57.8017 92.6333C57.6833 92.3973 57.5105 92.1927 57.2975 92.0365C57.0845 91.8803 56.8374 91.777 56.5767 91.735C56.489 91.7211 56.4004 91.7139 56.3117 91.7133C55.8697 91.7134 55.4458 91.8891 55.1334 92.2017L53.6667 93.6667C53.3544 93.9771 52.932 94.1513 52.4917 94.1513C52.0514 94.1513 51.629 93.9771 51.3167 93.6667C51.1598 93.5155 51.035 93.3343 50.9498 93.1339C50.8646 92.9334 50.8206 92.7178 50.8206 92.5C50.8206 92.2822 50.8646 92.0666 50.9498 91.8661C51.035 91.6657 51.1598 91.4845 51.3167 91.3333L52.8 89.8517C52.986 89.6646 53.125 89.436 53.2054 89.1847C53.2859 88.9334 53.3055 88.6666 53.2627 88.4063C53.2199 88.1459 53.1159 87.8994 52.9593 87.6871C52.8026 87.4748 52.5978 87.3027 52.3617 87.185L48.3334 85.1883L50.6534 82.865L56.935 84.415C57.2419 84.4921 57.5645 84.4798 57.8646 84.3793C58.1646 84.2789 58.4297 84.0947 58.6283 83.8483C60.305 81.7833 64.7484 76.33 69.81 70.32C69.956 70.1464 70.0649 69.9449 70.1303 69.7277C70.1957 69.5106 70.216 69.2824 70.1901 69.0571C70.1642 68.8318 70.0926 68.6141 69.9797 68.4175C69.8668 68.2208 69.7149 68.0493 69.5334 67.9133L54.2 56.2767L57.0533 53.5117L76.22 61.1617C76.5397 61.2895 76.8911 61.3151 77.2259 61.2352C77.5608 61.1552 77.8626 60.9735 78.09 60.715C81.2117 57.1617 84.0717 54.0717 86.37 51.7717C88.0593 49.8852 90.3679 48.6655 92.8784 48.3333C93.8783 48.3488 94.8329 48.7529 95.54 49.46C96.2471 50.1671 96.6512 51.1218 96.6667 52.1217C96.3353 54.6333 95.1156 56.9432 93.2284 58.6333Z" fill="#B3D337"/>
</g>
<defs>
<clipPath id="clip0_2161_304">
<rect width="100" height="100" fill="white"/>
</clipPath>
</defs>
</svg>
