<svg width="100" height="100" viewBox="0 0 100 100" fill="none" xmlns="http://www.w3.org/2000/svg">
<g clip-path="url(#clip0_2161_34)">
<path d="M24.0365 100C23.4375 100 22.8646 100 22.2656 100C20.3906 99.0885 19.8437 97.526 19.9479 95.5469C20.0521 93.0729 20 90.599 19.9479 88.151C19.8958 85.8854 17.5521 84.401 15.4948 85.3125C13.9844 85.9896 13.3594 87.2135 13.3594 88.8281C13.3594 91.1719 13.2812 93.5156 13.3854 95.8594C13.4635 97.8385 12.8125 99.2708 10.9375 100.052C10.4167 100.052 9.89583 100.052 9.375 100.052C5.59896 98.2292 2.89062 95.3646 1.30208 91.5104C0.703125 90.0521 0.416667 88.4896 0 86.9792C0 85.6771 0 84.375 0 83.0729C0.0520833 82.9688 0.15625 82.8646 0.15625 82.7344C0.9375 77.6823 3.51562 73.8281 7.73438 70.9896C8.04688 70.7812 8.28125 70.2083 8.28125 69.8177C8.33333 56.5885 8.33333 43.4115 8.33333 30.2604C8.33333 29.6354 8.15104 29.2708 7.60417 28.9323C4.03646 26.5885 1.66667 23.3594 0.572917 19.2188C0.364583 18.4896 0.182292 17.7344 0 17.0052C0 15.7031 0 14.401 0 13.099C0.0520833 12.8906 0.15625 12.6823 0.182292 12.4479C0.520833 10.1042 1.38021 7.94271 2.63021 5.9375C4.27083 3.35937 6.53646 1.48437 9.16667 0C9.76562 0 10.3385 0 10.9375 0C12.7604 0.755208 13.4635 2.10938 13.3854 4.08854C13.2812 6.5625 13.3333 9.03646 13.3854 11.4844C13.4375 13.4375 15 15.026 16.7187 15C18.6198 14.974 19.974 13.4896 19.974 11.3802C19.974 9.0625 20.0521 6.77083 19.9479 4.45312C19.8437 2.47396 20.3906 0.911458 22.2656 0C22.8646 0 23.4375 0 24.0365 0C30.2344 3.22917 33.1771 8.48958 33.4375 15.3646C36.0156 15.2604 38.5156 15.1042 40.9896 15.0781C52.1354 14.8958 63.2812 14.8437 74.401 16.0156C77.7604 16.3802 80.0521 17.8385 81.1979 21.0677C82.1615 23.776 83.2812 26.4583 84.2708 29.1667C84.5052 29.8177 84.8177 30 85.4688 29.974C86.6406 29.9219 87.8125 29.9479 88.9844 29.974C91.5625 30.026 93.4635 31.1719 94.5312 33.5677C95.2604 35.2604 95.0781 36.9271 94.2969 38.5937C94.6094 38.6979 94.8698 38.8281 95.1562 38.8542C97.5781 39.2708 99.2448 40.5729 99.974 42.9688C99.974 50.651 99.974 58.3333 99.974 66.0156C99.375 66.9531 98.9844 68.2552 98.125 68.75C96.6406 69.6094 96.5104 70.7031 96.6406 72.1094C96.6667 72.4219 96.6406 72.7604 96.6406 73.0729C96.6667 75.1823 95.7031 76.7188 93.8802 77.7865C93.5938 77.9427 93.3333 78.4115 93.3333 78.724C93.2812 80.0521 93.3073 81.3802 93.3073 82.7344C93.3073 86.3021 91.3281 88.3073 87.7865 88.3333C84.2448 88.3594 80.7031 88.3333 77.1615 88.3333C76.5365 88.3333 75.9115 88.3073 75.3385 88.151C73.099 87.5521 71.6927 85.6771 71.6667 83.3333C71.6406 81.6927 71.6667 80.0521 71.6667 78.4115C58.3854 78.4115 45.2344 78.4115 32.0573 78.4115C35.8594 88.1771 30.651 96.875 24.0365 100ZM23.3854 96.4844C23.8021 96.224 24.0885 96.0677 24.349 95.8854C32.3177 90.2604 31.6927 78.2031 23.1771 73.4115C22.0573 72.7865 21.6406 72.0573 21.6406 70.7812C21.6667 56.9531 21.6927 43.125 21.6406 29.2708C21.6406 27.9167 22.0833 27.1615 23.2552 26.5104C31.6927 21.7448 32.2656 9.6875 24.349 4.08854C24.0885 3.90625 23.776 3.72396 23.4896 3.54167C23.4375 3.69792 23.4115 3.72396 23.4115 3.77604C23.4115 6.35417 23.4375 8.90625 23.3854 11.4844C23.3073 15.1562 20.7292 18.0208 17.2917 18.3073C13.776 18.6198 10.7031 16.1458 10.0781 12.474C9.94792 11.7448 10 10.9896 10 10.2344C10 8.04688 10 5.83333 10 3.48958C9.58333 3.75 9.32292 3.90625 9.0625 4.0625C1.04167 9.66146 1.61458 21.6667 10.1562 26.5104C11.3021 27.1615 11.7188 27.9427 11.7188 29.2448C11.6927 43.0729 11.6927 56.901 11.7188 70.7552C11.7188 72.0573 11.3281 72.8385 10.1562 73.4896C1.64062 78.2812 1.04167 90.3385 9.01042 95.9115C9.27083 96.0937 9.58333 96.25 9.97396 96.5104C9.97396 93.6458 9.94792 90.9896 9.97396 88.3073C10.026 84.8438 12.8385 81.875 16.1719 81.6667C19.7656 81.4583 22.8385 83.9062 23.2292 87.5C23.4375 89.5052 23.3333 91.5365 23.3594 93.5417C23.3854 94.4792 23.3854 95.3906 23.3854 96.4844ZM83.6198 36.7448C81.5885 31.5104 79.6094 26.3542 77.5781 21.25C77.1615 20.1823 76.1719 19.6354 75.026 19.5573C69.375 19.1667 63.75 18.5417 58.099 18.4635C49.9479 18.3594 41.7708 18.6719 33.6198 18.776C33.125 18.776 32.8906 18.9062 32.7344 19.4271C31.5885 23.5677 29.1927 26.8229 25.5469 29.1667C25.3125 29.2969 25.026 29.5833 25.026 29.7917C24.974 31.7969 25 33.8021 25 35.8594C44.6094 34.6094 64.0625 34.4531 83.6198 36.7448ZM25.0521 52.6823C25.9375 51.6667 26.6927 50.7552 27.526 49.8698C28.5677 48.75 29.8958 48.2812 31.3802 48.2812C43.8021 48.2812 56.25 48.2812 68.6719 48.2812C70.2344 48.2812 71.6406 48.776 72.6302 50.026C73.5937 51.224 74.6354 52.3698 75.3646 53.6979C76.4583 55.6771 77.2917 57.7865 78.2552 59.8958C84.2708 59.8958 90.4167 59.8958 96.6927 59.8958C96.6927 59.5052 96.6927 59.1406 96.6927 58.8021C96.6927 54.1406 96.6927 49.5052 96.6927 44.8437C96.6927 42.9948 96.4062 42.6302 94.5833 42.1615C87.4219 40.3125 80.0781 39.5573 72.7083 39.0625C67.0052 38.6979 61.276 38.4115 55.5469 38.4115C46.9531 38.4115 38.3854 38.6719 29.7917 38.8542C28.2031 38.8802 26.6406 39.0885 25.0781 39.2188C25.0521 43.776 25.0521 48.2031 25.0521 52.6823ZM25.5729 59.9219C41.901 59.9219 58.125 59.9219 74.4531 59.9219C73.6198 56.901 72.1354 54.349 70 52.1875C69.7135 51.875 69.1146 51.7448 68.6719 51.7448C56.224 51.7187 43.75 51.7187 31.3021 51.7448C30.8854 51.7448 30.3385 51.875 30.0521 52.1354C27.8906 54.2969 26.4062 56.901 25.5729 59.9219ZM93.3073 70.1562C70.4948 70.1562 47.7604 70.1562 25.026 70.1562C25 70.2344 24.974 70.3125 24.9479 70.3906C25.1823 70.5729 25.4427 70.7552 25.651 70.9375C26.9271 72.0573 28.2292 73.099 29.4271 74.2969C29.9479 74.8177 30.3906 75.026 31.0938 75.026C51.0156 75 70.9115 75.026 90.8333 75C91.1458 75 91.4844 75.026 91.7969 74.974C92.6302 74.8437 93.2292 74.375 93.2812 73.5156C93.3594 72.3958 93.3073 71.276 93.3073 70.1562ZM25.026 66.6406C25.4948 66.6406 25.8854 66.6406 26.25 66.6406C48.8802 66.6406 71.4844 66.6406 94.1146 66.6406C94.375 66.6406 94.6354 66.6406 94.8958 66.6406C95.9115 66.5885 96.5365 66.0417 96.6406 65.026C96.6927 64.5052 96.6406 63.9844 96.6406 63.4115C72.7344 63.4115 48.8802 63.4115 25.026 63.4115C25.026 64.4792 25.026 65.4687 25.026 66.6406ZM75 78.3594C75 80.0781 74.974 81.6927 75 83.3073C75.026 84.2969 75.7031 84.9479 76.6927 84.9479C80.5469 84.974 84.4271 84.974 88.2812 84.9479C89.0885 84.9479 89.7917 84.5573 89.8438 83.75C89.9479 81.9531 89.8698 80.1562 89.8698 78.3333C84.9479 78.3594 80.026 78.3594 75 78.3594ZM85.9635 33.3854C86.1979 34.0365 86.5104 34.5833 86.6146 35.1823C86.9271 37.0573 88.151 37.6042 89.8438 37.7344C90.7292 37.8125 91.1719 37.5 91.4844 36.7448C92.0833 35.2604 91.1198 33.5156 89.5573 33.4115C88.3854 33.3073 87.2135 33.3854 85.9635 33.3854Z" fill="#B3D337"/>
<path d="M48.5156 23.2032C48.2031 23.8021 48.0729 24.2709 47.7864 24.5834C45.625 26.7969 43.4375 28.9584 41.25 31.1198C40.4948 31.849 39.4792 31.849 38.8281 31.1719C38.125 30.4688 38.125 29.5313 38.9062 28.7501C41.0677 26.5626 43.2552 24.3751 45.4427 22.2136C45.9635 21.6928 46.6667 21.4584 47.2917 21.8751C47.7864 22.1615 48.0989 22.7344 48.5156 23.2032Z" fill="#B3D337"/>
<path d="M38.5156 21.5884C38.8802 21.8488 39.5052 22.0832 39.7135 22.5259C39.9219 22.9946 39.9479 23.828 39.6875 24.2186C39.1406 25.0259 38.3594 25.729 37.5781 26.354C36.9531 26.8748 36.2239 26.7707 35.5989 26.2759C35 25.7811 34.6615 25.0259 35.1562 24.3748C35.8854 23.4373 36.7969 22.6561 37.6562 21.8228C37.7865 21.6925 38.0729 21.7186 38.5156 21.5884Z" fill="#B3D337"/>
<path d="M85.9636 46.6668C86.7969 46.6668 87.6563 46.6408 88.4896 46.6668C91.1458 46.7189 93.2813 48.8804 93.3333 51.5366C93.3854 54.245 91.276 56.5366 88.6198 56.6148C87.3177 56.6668 86.0156 56.6668 84.7135 56.6148C82.3438 56.5366 80.3386 54.7398 80.0781 52.4221C79.974 51.4585 79.9479 50.4689 80.0521 49.5054C80.2344 47.8387 81.5625 46.6929 83.2292 46.6668C84.1406 46.6668 85.0521 46.6668 85.9636 46.6668ZM83.3854 50.0002C83.3854 50.6512 83.3594 51.1721 83.3854 51.6929C83.4375 52.6043 84.0104 53.2554 84.8958 53.2814C86.0677 53.3335 87.2396 53.3335 88.4115 53.2814C89.349 53.2294 90 52.4741 89.974 51.6148C89.9479 50.7814 89.3229 50.0523 88.4375 50.0002C86.7969 49.9741 85.1302 50.0002 83.3854 50.0002Z" fill="#B3D337"/>
<path d="M50.026 41.6405C51.0677 41.6405 52.1094 41.6144 53.151 41.6405C54.2708 41.6665 55.026 42.3696 55.026 43.3332C55.026 44.2446 54.3229 44.9999 53.2292 45.0259C51.0677 45.078 48.8802 45.078 46.6927 45.0259C45.625 44.9999 44.9219 44.2186 44.9479 43.3071C44.9739 42.3696 45.7292 41.6926 46.7969 41.6665C47.8906 41.6144 48.9583 41.6405 50.026 41.6405Z" fill="#B3D337"/>
</g>
<defs>
<clipPath id="clip0_2161_34">
<rect width="100" height="100" fill="white"/>
</clipPath>
</defs>
</svg>
