<svg width="100" height="100" viewBox="0 0 100 100" fill="none" xmlns="http://www.w3.org/2000/svg">
<g clip-path="url(#clip0_2179_569)">
<path d="M68.0816 63.3335H31.915C30.4072 63.334 29.0611 64.2787 28.5481 65.6964C28.035 67.1142 28.465 68.7016 29.6234 69.6668L35.0267 74.1667C35.6706 74.7033 36.4819 74.9981 37.3201 75.0001H62.6768C63.515 74.9981 64.3262 74.7033 64.9702 74.1667L70.3735 69.6668C71.5319 68.7016 71.9617 67.1142 71.4488 65.6964C70.9355 64.2785 69.5894 63.3338 68.0816 63.3335ZM68.2483 67.1068L62.8466 71.6068C62.7993 71.6449 62.7404 71.6655 62.6799 71.6652H37.3232C37.2625 71.6662 37.2033 71.6455 37.1566 71.6068L31.7532 67.1068C31.6712 67.0394 31.6412 66.9272 31.6784 66.8278C31.7157 66.7284 31.8121 66.6636 31.9183 66.6667H68.0849C68.1913 66.6629 68.2883 66.7272 68.326 66.827C68.3637 66.9265 68.3337 67.0391 68.2515 67.1068H68.2483Z" fill="#B3D337"/>
<path d="M80.0484 64.1668L74.6283 68.6668C73.4659 69.6303 73.0332 71.2197 73.547 72.6394C74.0607 74.0591 75.4102 75.0037 76.92 75.0002H90.0001C91.8411 75.0002 93.3334 73.5078 93.3334 71.6668V66.6669C93.3334 64.8259 91.8411 63.3335 90.0001 63.3335H82.3417C81.5035 63.3358 80.6925 63.6304 80.0484 64.1668ZM90.0001 66.6667V71.6667H76.92C76.8111 71.6773 76.711 71.6063 76.685 71.5C76.6405 71.4037 76.6723 71.2896 76.7599 71.23L82.1816 66.72C82.2284 66.6813 82.2876 66.6611 82.3483 66.6634L90.0001 66.6667Z" fill="#B3D337"/>
<path d="M19.9516 64.1668C19.3097 63.6324 18.5019 63.3378 17.6666 63.3335H9.99988C8.1589 63.3335 6.6665 64.8259 6.6665 66.6669V71.6668C6.6665 73.5078 8.1589 75.0002 9.99988 75.0002H23.0765C24.5866 75.0043 25.9368 74.0601 26.4509 72.6402C26.965 71.2203 26.5324 69.6305 25.3699 68.667L19.9516 64.1668ZM23.315 71.5C23.2889 71.6063 23.1888 71.6773 23.0799 71.6667H9.99988V66.6667H17.6666C17.7273 66.6644 17.7865 66.6846 17.8332 66.7233L23.2566 71.2349C23.3363 71.2984 23.3608 71.4091 23.315 71.5Z" fill="#B3D337"/>
<path fill-rule="evenodd" clip-rule="evenodd" d="M21.6666 80H9.99986C9.07945 80 8.33325 80.7462 8.33325 81.6666C8.33325 82.587 9.07945 83.3332 9.99986 83.3332H21.6666C22.587 83.3332 23.3332 82.587 23.3332 81.6666C23.3332 80.7462 22.587 80 21.6666 80Z" fill="#B3D337"/>
<path fill-rule="evenodd" clip-rule="evenodd" d="M89.9998 80H78.3331C77.4127 80 76.6665 80.7462 76.6665 81.6666C76.6665 82.587 77.4127 83.3332 78.3331 83.3332H89.9998C90.9202 83.3332 91.6664 82.587 91.6664 81.6666C91.6664 80.7462 90.9202 80 89.9998 80Z" fill="#B3D337"/>
<path fill-rule="evenodd" clip-rule="evenodd" d="M64.9999 80H34.9999C34.0795 80 33.3333 80.7462 33.3333 81.6666C33.3333 82.587 34.0795 83.3332 34.9999 83.3332H64.9999C65.9203 83.3332 66.6665 82.587 66.6665 81.6666C66.6665 80.7462 65.9203 80 64.9999 80Z" fill="#B3D337"/>
<path d="M100 48.3331C100 45.5718 97.7614 43.3332 95.0001 43.3332H91.6667C90.2145 43.3379 88.8369 43.978 87.8966 45.0849L84.7667 35.6983C83.6357 32.2934 80.4496 29.9967 76.8616 30H23.1383C19.5503 29.9967 16.3642 32.2934 15.2332 35.6983L12.1032 45.0849C11.163 43.9781 9.78558 43.3381 8.3332 43.3332H5C2.23862 43.3332 2.00983e-05 45.5718 2.00983e-05 48.3331C2.00983e-05 51.0945 2.23862 53.3331 5 53.3331H7.64327L1.46502 59.5115C0.523786 60.4467 -0.00375273 61.7198 2.00983e-05 63.0465V84.9997C0.008714 87.111 1.34282 88.9892 3.33339 89.6931V94.9999C3.33339 97.7612 5.57199 99.9998 8.33337 99.9998H20.0001C22.7615 99.9998 25.0001 97.7612 25.0001 94.9999V89.9999H75V94.9999C75 97.7612 77.2386 99.9998 80 99.9998H91.6667C94.4281 99.9998 96.6667 97.7612 96.6667 94.9999V89.6931C98.6572 88.9894 99.9912 87.111 100 84.9997V63.0465C100.004 61.7198 99.4763 60.4467 98.535 59.5115L92.3568 53.3331H95.0001C97.7614 53.3331 100 51.0945 100 48.3331ZM18.395 36.7532C19.0751 34.7111 20.9859 33.3334 23.1383 33.3332H76.8616C79.0141 33.3334 80.9248 34.7111 81.6049 36.7532L86.0199 49.9999H13.98L18.395 36.7532ZM5 49.9999C4.07959 49.9999 3.33339 49.2537 3.33339 48.3333C3.33339 47.4129 4.07959 46.6667 5 46.6667H8.33337C9.25377 46.6667 9.99997 47.4129 9.99997 48.3333V49.9999H5ZM21.6667 94.9999C21.6667 95.9203 20.9205 96.6664 20.0001 96.6664H8.33337C7.41296 96.6664 6.66676 95.9203 6.66676 94.9999V89.9999H21.6667V94.9999ZM93.3333 94.9999C93.3333 95.9203 92.5871 96.6664 91.6667 96.6664H80C79.0796 96.6664 78.3334 95.9203 78.3334 94.9999V89.9999H93.3333V94.9999ZM96.1783 61.8682C96.4895 62.1817 96.6648 62.6049 96.6667 63.0465V84.9997C96.6667 85.9201 95.9205 86.6663 95.0001 86.6663H5C4.07959 86.6663 3.33339 85.9201 3.33339 84.9997V63.0465C3.3352 62.6047 3.51055 62.1815 3.82173 61.8682L12.3567 53.3333H87.6434L96.1783 61.8682ZM90.0001 49.9999V48.3333C90.0001 47.4129 90.7463 46.6667 91.6667 46.6667H95.0001C95.9205 46.6667 96.6667 47.4129 96.6667 48.3333C96.6667 49.2537 95.9205 49.9999 95.0001 49.9999H90.0001Z" fill="#B3D337"/>
<path d="M21.3817 26.6667H36.6667C38.778 26.658 40.6562 25.3239 41.3601 23.3333H43.6102C44.9417 23.3298 46.218 22.801 47.1619 21.8616L48.5336 20.4899C48.847 20.1754 49.2729 19.9991 49.7169 19.9999H55.9768C56.8613 20.0024 57.71 19.6507 58.3335 19.0232L60.0001 17.3566L61.6667 19.0232C62.2902 19.6505 63.139 20.0024 64.0235 19.9999H67.6434C68.5279 20.0024 69.3766 19.6507 70.0001 19.0232L71.6667 17.3566L73.3333 19.0232C73.9568 19.6505 74.8055 20.0024 75.69 19.9999H78.8833C79.6041 19.9973 80.3052 19.7637 80.8832 19.3333L85.3332 15.9999C86.1725 15.3703 86.6665 14.3823 86.6665 13.3332C86.6665 12.284 86.1725 11.296 85.3332 10.6664L80.8832 7.33307C80.3055 6.90182 79.6042 6.66807 78.8833 6.66643H49.7166C49.2679 6.66397 48.8383 6.48435 48.5216 6.16645L47.1499 4.79478C46.2138 3.8565 44.942 3.33043 43.6166 3.33306H41.3599C40.6562 1.34281 38.7779 0.00887314 36.6665 1.52107e-05H21.3815C20.0543 -0.00326551 18.7809 0.524274 17.8449 1.46502L14.7983 4.51166C13.857 5.44682 13.3295 6.71991 13.3333 8.04663V18.6199C13.3295 19.9466 13.857 21.2197 14.7983 22.1549L17.8449 25.2015C18.7806 26.1432 20.0543 26.6709 21.3817 26.6667ZM41.6667 6.66676H43.6167C44.0608 6.66594 44.4866 6.84228 44.8001 7.15673L46.1718 8.5284C47.1155 9.46767 48.3918 9.99652 49.7235 10.0001H78.8902L83.3336 13.3335L78.8836 16.6669H75.6903L74.0237 15.0003C72.7221 13.699 70.6121 13.699 69.3103 15.0003L67.6437 16.6669H64.0238L62.3572 15.0003C61.0556 13.699 58.9456 13.699 57.6438 15.0003L55.9772 16.6669H49.7172C48.3887 16.6638 47.1141 17.1918 46.1772 18.1335L44.8039 19.5052C44.4879 19.8232 44.0588 20.003 43.6105 20.0052H41.6667V6.66676ZM16.6666 18.62V8.04663C16.6684 7.60504 16.8438 7.18167 17.155 6.86836L20.2016 3.82172C20.5144 3.50874 20.9391 3.33306 21.3817 3.33339H36.6667C37.5871 3.33339 38.3333 4.07959 38.3333 4.99999V21.6667C38.3333 22.5871 37.5871 23.3333 36.6667 23.3333H21.3817C20.9391 23.3336 20.5146 23.1579 20.2016 22.845L17.155 19.7983C16.8438 19.485 16.6683 19.0616 16.6666 18.62Z" fill="#B3D337"/>
<path d="M23.3334 20H26.6667C28.5077 20 30.0001 18.5076 30.0001 16.6666V9.99988C30.0001 8.1589 28.5077 6.6665 26.6667 6.6665H23.3334C21.4924 6.6665 20 8.1589 20 9.99988V16.6666C20.0002 18.5076 21.4926 20 23.3334 20ZM23.3334 9.99988H26.6667V16.6666H23.3334V9.99988Z" fill="#B3D337"/>
</g>
<defs>
<clipPath id="clip0_2179_569">
<rect width="100" height="100" fill="white"/>
</clipPath>
</defs>
</svg>
