<svg width="100" height="100" viewBox="0 0 100 100" fill="none" xmlns="http://www.w3.org/2000/svg">
<g clip-path="url(#clip0_2161_723)">
<path d="M60.0001 55H40.0001C39.0796 55 38.3335 55.7461 38.3335 56.6666C38.3335 57.5871 39.0796 58.3332 40.0001 58.3332H60.0001C60.9206 58.3332 61.6667 57.5871 61.6667 56.6666C61.6667 55.7461 60.9206 55 60.0001 55Z" fill="#B3D337"/>
<path d="M24.512 74.5116L26.1786 72.845C26.8102 72.1911 26.8012 71.1514 26.1583 70.5086C25.5153 69.8659 24.4758 69.8567 23.8219 70.4883L22.1553 72.1549C21.7221 72.5735 21.5483 73.193 21.7008 73.7758C21.8534 74.3584 22.3085 74.8137 22.8911 74.9661C23.4737 75.1186 24.0934 74.9448 24.512 74.5116Z" fill="#B3D337"/>
<path d="M32.1552 72.1549L23.8218 80.4883C23.3886 80.9069 23.2148 81.5264 23.3673 82.1092C23.5199 82.6918 23.975 83.1471 24.5576 83.2994C25.1402 83.452 25.7599 83.2781 26.1785 82.8449L34.5119 74.5115C35.1435 73.8576 35.1345 72.818 34.4916 72.1752C33.8488 71.5322 32.8093 71.5233 32.1552 72.1549Z" fill="#B3D337"/>
<path d="M40.0001 10.0007H60.0001C60.9206 10.0007 61.6667 9.25439 61.6667 8.33408C61.6667 7.41377 60.9204 6.66748 60.0001 6.66748H40.0001C39.0796 6.66748 38.3335 7.41377 38.3335 8.33408C38.3335 9.25439 39.0796 10.0007 40.0001 10.0007Z" fill="#B3D337"/>
<path d="M94.7546 10.0004H94.9995C96.319 10.0104 97.586 9.4848 98.5112 8.54379C99.5752 7.5061 100.114 6.04401 99.9795 4.56374C99.6897 1.93896 97.4534 -0.0360248 94.813 0.00049839H5.00039C3.68087 -0.00946247 2.41389 0.516119 1.4887 1.45713C0.42504 2.49442 -0.114409 3.95594 0.0203553 5.43542C0.309416 8.06079 2.54592 10.0369 5.18692 10.0004H5.24531L10.7902 44.6502C11.0089 45.9882 11.5513 47.2529 12.3703 48.3335H5.00039C3.68087 48.3236 2.41389 48.8491 1.4887 49.7901C0.42504 50.8274 -0.114409 52.289 0.0203553 53.7684C0.309416 56.3938 2.54592 58.37 5.18692 58.3334H5.24531L10.7902 92.9832C11.4226 97.0337 14.9189 100.015 19.0184 99.9997H80.9812C85.0808 100.015 88.5771 97.0337 89.2095 92.9832L94.7544 58.3334H94.9993C96.3188 58.3434 97.5858 57.8178 98.511 56.8768C99.5751 55.8391 100.114 54.377 99.9793 52.8968C99.6895 50.272 97.4532 48.297 94.8128 48.3335H87.6294C88.4484 47.2529 88.9908 45.9884 89.2095 44.6502L94.7546 10.0004ZM3.33381 5.15378C3.28732 4.65613 3.4715 4.16472 3.8338 3.82039C4.13907 3.50438 4.56114 3.3284 5.00039 3.33368H94.813C95.7239 3.29735 96.5188 3.94578 96.6663 4.84538C96.7128 5.34303 96.5286 5.83444 96.1663 6.17877C95.8614 6.49537 95.4391 6.67213 94.9997 6.66705H71.6665C68.9052 6.66705 66.6665 8.9057 66.6665 11.667C66.6665 14.4283 64.4279 16.667 61.6665 16.667H38.3335C35.572 16.667 33.3336 14.4283 33.3336 11.667C33.3336 8.9057 31.0949 6.66705 28.3336 6.66705H5.18711C4.2756 6.70338 3.48029 6.05416 3.33381 5.15378ZM38.3335 20.0003H61.6667C64.2759 19.9927 66.7294 18.758 68.2899 16.667H81.5998C82.0892 16.6685 82.5537 16.8834 82.8717 17.2554C83.1896 17.6275 83.3295 18.1199 83.2547 18.6035L79.7897 40.2699C79.6566 41.0799 78.9537 41.6724 78.133 41.6666H21.8669C21.0468 41.6717 20.3448 41.0793 20.2118 40.2699L16.747 18.6121C16.6696 18.1273 16.8079 17.633 17.1259 17.259C17.4439 16.8849 17.9095 16.6687 18.4003 16.667H31.7101C33.2709 18.758 35.7244 19.9927 38.3335 20.0003ZM85.9197 92.4564C85.5394 94.8869 83.4414 96.6753 80.9814 96.6663H19.0186C16.5587 96.6753 14.4607 94.8869 14.0804 92.4564L8.62205 58.3334H28.3336C29.2541 58.3334 30.0002 59.0797 30.0002 60C29.9996 60.5598 30.0555 61.1182 30.1668 61.6666H18.4003C16.9345 61.6676 15.5427 62.3102 14.5911 63.425C13.6396 64.54 13.224 66.0156 13.4537 67.4633L16.922 89.1297C17.3136 91.5554 19.4097 93.3373 21.8669 93.333H78.133C80.5908 93.3382 82.6881 91.5562 83.0797 89.1297L86.548 67.4549C86.7744 66.0084 86.357 64.5351 85.4056 63.4223C84.4543 62.3094 83.0639 61.668 81.5998 61.6666H69.8333C69.9446 61.118 70.0005 60.5598 69.9999 60C69.9999 59.0795 70.7462 58.3334 71.6665 58.3334H91.378L85.9197 92.4564ZM68.2899 65H81.5998C82.0892 65.0016 82.5537 65.2164 82.8717 65.5885C83.1896 65.9605 83.3295 66.4529 83.2547 66.9365L79.7898 88.5949C79.6606 89.4082 78.9567 90.0053 78.1332 90H21.8669C21.0468 90.0051 20.3448 89.4127 20.2118 88.6033L16.747 66.9451C16.6696 66.4603 16.8079 65.966 17.1259 65.592C17.4439 65.218 17.9095 65.0017 18.4003 65H31.7101C33.2709 67.091 35.7244 68.3257 38.3333 68.3334H61.6665C64.2757 68.3257 66.7292 67.091 68.2899 65ZM96.6663 53.1784C96.7128 53.6761 96.5286 54.1675 96.1663 54.5118C95.8614 54.8284 95.4391 55.0051 94.9997 55.0001H71.6665C68.9052 55.0001 66.6665 57.2387 66.6665 60C66.6665 62.7613 64.4279 65 61.6665 65H38.3335C35.572 65 33.3336 62.7613 33.3336 60C33.3336 57.2387 31.0949 55.0001 28.3336 55.0001H5.18711C4.27579 55.0364 3.48048 54.387 3.33381 53.4868C3.28732 52.9891 3.4715 52.4977 3.8338 52.1534C4.13907 51.8374 4.56114 51.6614 5.00039 51.6667H94.813C95.7239 51.6304 96.5188 52.2788 96.6663 53.1784ZM19.0186 48.3335C16.5587 48.3425 14.4607 46.554 14.0804 44.1236L8.62205 10.0004H28.3336C29.2541 10.0004 30.0002 10.7467 30.0002 11.667C29.9996 12.2268 30.0555 12.7852 30.1668 13.3336H18.4003C16.9345 13.3346 15.5427 13.9771 14.5911 15.092C13.6396 16.207 13.224 17.6826 13.4537 19.1302L16.922 40.8051C17.3171 43.2277 19.4124 45.005 21.8669 45H78.133C80.5908 45.0052 82.6881 43.2232 83.0797 40.7967L86.548 19.1302C86.7771 17.6824 86.3609 16.2068 85.4091 15.092C84.4574 13.9771 83.0654 13.3346 81.5996 13.3336H69.8331C69.9444 12.785 70.0003 12.2268 69.9997 11.667C69.9997 10.7465 70.746 10.0004 71.6663 10.0004H91.3778L85.9195 44.1234C85.5392 46.5538 83.4412 48.3423 80.9812 48.3333H19.0186V48.3335Z" fill="#B3D337"/>
<path d="M23.3336 26.6673C23.7755 26.6673 24.1994 26.4915 24.5119 26.179L26.1785 24.5124C26.8101 23.8585 26.8011 22.8189 26.1582 22.1761C25.5152 21.5333 24.4757 21.5242 23.8218 22.1558L22.1552 23.8224C21.6787 24.299 21.5363 25.0158 21.7941 25.6384C22.0519 26.2611 22.6595 26.6671 23.3336 26.6673Z" fill="#B3D337"/>
<path d="M23.8219 34.5119C24.4727 35.1625 25.5278 35.1625 26.1786 34.5119L34.512 26.1785C35.1436 25.5246 35.1346 24.485 34.4917 23.8422C33.8487 23.1992 32.8092 23.1902 32.1553 23.8219L23.8219 32.1553C23.1713 32.8061 23.1713 33.8611 23.8219 34.5119Z" fill="#B3D337"/>
</g>
<defs>
<clipPath id="clip0_2161_723">
<rect width="100" height="100" fill="white"/>
</clipPath>
</defs>
</svg>
