<svg width="100" height="100" viewBox="0 0 100 100" fill="none" xmlns="http://www.w3.org/2000/svg">
<g clip-path="url(#clip0_2179_583)">
<path d="M70.4968 1.47149C69.5585 0.525341 68.2798 -0.00465596 66.9474 3.08216e-05H11.6724C5.23314 0.00745157 0.0147938 5.2256 0.00756836 11.6651V64.9903C0.0149891 71.4296 5.23314 76.6479 11.6724 76.6551H55.4624C55.3167 78.8195 55.9793 80.9607 57.3221 82.6642C58.0665 83.3789 58.9917 83.8767 59.9984 84.104V93.3192C59.9787 95.7483 61.299 97.9908 63.4329 99.1517C65.5474 100.344 68.1464 100.275 70.1951 98.9734L74.9961 95.9672L79.7954 98.9668C81.8494 100.251 84.4383 100.319 86.5573 99.1457C88.6763 97.9722 89.9919 95.7417 89.9939 93.3194V84.1058C91.0003 83.8773 91.9256 83.3789 92.6702 82.6644C94.0243 80.9338 94.6888 78.7624 94.535 76.5704C94.526 75.4567 94.5863 74.3114 95.0165 73.2842C95.4262 72.3058 96.1624 71.4991 96.9229 70.7596C98.6355 69.2912 99.7316 67.2312 99.9923 64.9905V33.045C99.9953 31.7143 99.4655 30.4378 98.5209 29.5006L70.4968 1.47149ZM94.3032 29.9955H78.3288C73.7295 29.99 70.0024 26.2628 69.9967 21.6633V5.6892L94.3032 29.9955ZM3.34026 64.9901V11.6651C3.34573 7.06575 7.0729 3.33858 11.6724 3.33292H66.664V21.6635C66.6714 28.1028 71.8896 33.3211 78.3288 33.3284H96.6594V58.9262C95.9998 58.2724 95.4454 57.5202 95.0163 56.6965C94.6881 55.6324 94.5258 54.524 94.5348 53.4103C94.6887 51.2182 94.2241 48.8699 92.67 47.3163C91.1158 45.7622 88.7669 45.2976 86.5743 45.4515C85.4606 45.4605 84.3523 45.298 83.288 44.9699C82.3552 44.4669 81.5049 43.824 80.7667 43.0636C79.2976 41.3511 77.2522 39.9941 74.9959 39.9941C72.7396 39.9941 70.6945 41.3513 69.2251 43.0636C68.487 43.824 67.6367 44.4669 66.7038 44.9699C65.6398 45.2982 64.5313 45.4605 63.4176 45.4515C61.2248 45.2966 58.8759 45.7616 57.3219 47.3163C55.7682 48.8703 55.3032 51.2182 55.4571 53.4103C55.4661 54.524 55.3036 55.6322 54.9756 56.6965C54.4725 57.6303 53.8296 58.4815 53.0692 59.2211C51.3566 60.6894 49.9998 62.7342 49.9998 64.9901C49.9998 67.246 51.3566 69.291 53.0692 70.7592C53.8296 71.4987 54.4725 72.3499 54.9756 73.2838L54.9888 73.3221H11.6724C7.07309 73.3168 3.34593 69.5896 3.34026 64.9901ZM86.661 93.3192C86.659 94.5302 86.0003 95.6446 84.9405 96.2305C83.8807 96.8163 82.5866 96.7812 81.5602 96.1387L75.8776 92.5892C75.3381 92.253 74.6542 92.253 74.1146 92.5892L68.4305 96.1387C67.4041 96.7802 66.1106 96.8148 65.0514 96.2291C63.9922 95.6435 63.3337 94.5296 63.3313 93.3192V84.5239H63.418C64.5317 84.5149 65.64 84.6774 66.7042 85.0054C67.6371 85.5085 68.4874 86.1514 69.2255 86.9118C70.6939 88.626 72.7391 89.9857 74.9963 89.9863C77.2526 89.9869 79.298 88.6291 80.7671 86.9169C81.5053 86.1564 82.3556 85.5136 83.2884 85.0105C84.3525 84.6822 85.461 84.52 86.5746 84.5289H86.6614V93.3192H86.661ZM94.4549 68.5212C93.4246 69.532 92.4919 70.6734 91.9369 72.0057C91.3634 73.3824 91.2029 74.8968 91.207 76.3884C91.3153 77.7554 91.2835 79.3383 90.3137 80.3077C89.3436 81.2777 87.7602 81.3093 86.3926 81.2009C84.9017 81.1966 83.3878 81.3574 82.0117 81.9309C80.6798 82.4859 79.5384 83.418 78.5272 84.4471C77.2757 85.5819 76.0942 86.6534 74.9961 86.6534C73.8981 86.6534 72.7164 85.5819 71.465 84.4471C70.4539 83.4178 69.2757 82.5671 67.9806 81.9309C66.5716 81.4435 65.0906 81.1966 63.5996 81.2009C62.2321 81.3093 60.6487 81.2777 59.6786 80.3077C58.7088 79.3381 58.7664 77.7595 58.7853 76.3884C58.7916 75.9346 58.6793 74.9204 58.6703 74.8869C58.6096 73.9007 58.4 72.9292 58.0487 72.0057C57.4125 70.7102 56.5611 69.532 55.5307 68.5212C54.4042 67.2697 53.3328 66.0882 53.3328 64.9901C53.3328 63.892 54.4044 62.7104 55.5376 61.459C56.5679 60.4482 57.4193 59.2701 58.0556 57.9746C58.543 56.565 58.7896 55.0834 58.7855 53.5919C58.6771 52.2249 58.709 50.6419 59.6787 49.6725C60.6489 48.7026 62.2323 48.6709 63.5998 48.7793C65.0908 48.7836 66.5718 48.537 67.9808 48.0493C69.2759 47.4131 70.4541 46.5623 71.4652 45.5331C72.7168 44.3983 73.8983 43.3268 74.9963 43.3268C76.0944 43.3268 77.2761 44.3983 78.5274 45.5331C79.5386 46.5625 80.7168 47.4131 82.0119 48.0493C83.4208 48.5368 84.9019 48.7836 86.3928 48.7793C87.7604 48.6709 89.3438 48.7026 90.3139 49.6725C91.2837 50.6421 91.3155 52.2251 91.2071 53.5919C91.2029 55.0834 91.4497 56.5648 91.9371 57.9746C92.5733 59.2701 93.4248 60.4482 94.4551 61.459C95.5883 62.7106 96.6598 63.892 96.6598 64.9901C96.6594 66.0884 95.5879 67.2699 94.4549 68.5212Z" fill="#B3D337"/>
<path d="M11.6336 20.0549H58.2931C59.2135 20.0549 59.9595 19.3087 59.9595 18.3885C59.9595 17.4681 59.2135 16.7222 58.2931 16.7222H11.6336C10.7133 16.7222 9.96729 17.4683 9.96729 18.3885C9.96729 19.3087 10.7135 20.0549 11.6336 20.0549Z" fill="#B3D337"/>
<path d="M11.6336 30.0534H26.6313C27.5517 30.0534 28.2977 29.3072 28.2977 28.3871C28.2977 27.4667 27.5515 26.7207 26.6313 26.7207H11.6336C10.7133 26.7207 9.96729 27.4669 9.96729 28.3871C9.96729 29.3072 10.7135 30.0534 11.6336 30.0534Z" fill="#B3D337"/>
<path d="M58.2933 26.7207H34.9635C34.0431 26.7207 33.2971 27.4669 33.2971 28.3871C33.2971 29.3074 34.0433 30.0534 34.9635 30.0534H58.2933C59.2137 30.0534 59.9597 29.3072 59.9597 28.3871C59.9597 27.4669 59.2137 26.7207 58.2933 26.7207Z" fill="#B3D337"/>
<path d="M11.6336 40.0519H58.2931C59.2135 40.0519 59.9595 39.3058 59.9595 38.3856C59.9595 37.4654 59.2135 36.7192 58.2931 36.7192H11.6336C10.7133 36.7192 9.96729 37.4654 9.96729 38.3856C9.96729 39.3058 10.7135 40.0519 11.6336 40.0519Z" fill="#B3D337"/>
<path d="M33.2971 63.3818H11.6336C10.7133 63.3818 9.96729 64.1278 9.96729 65.0482C9.96729 65.9685 10.7135 66.7145 11.6336 66.7145H33.2969C34.2173 66.7145 34.9633 65.9685 34.9633 65.0482C34.9633 64.1278 34.2175 63.3818 33.2971 63.3818Z" fill="#B3D337"/>
<path d="M74.9574 50.0503C66.6745 50.0503 59.9597 56.7651 59.9597 65.048C59.9597 73.3309 66.6745 80.0457 74.9574 80.0457C83.2404 80.0457 89.9551 73.3309 89.9551 65.048C89.946 56.7688 83.2366 50.0595 74.9574 50.0503ZM74.9574 76.7128C68.5151 76.7128 63.2926 71.4902 63.2926 65.048C63.2926 58.6058 68.5151 53.3832 74.9574 53.3832C81.3998 53.3832 86.6223 58.6058 86.6223 65.048C86.615 71.4873 81.3967 76.7056 74.9574 76.7128Z" fill="#B3D337"/>
</g>
<defs>
<clipPath id="clip0_2179_583">
<rect width="100" height="100" fill="white"/>
</clipPath>
</defs>
</svg>
