<svg width="100" height="100" viewBox="0 0 100 100" fill="none" xmlns="http://www.w3.org/2000/svg">
<g clip-path="url(#clip0_2161_42)">
<path d="M47.4739 0C49.2448 0 50.9896 0 52.7604 0C52.9427 0.0520698 53.125 0.156209 53.3073 0.182244C58.2812 0.676907 62.8385 2.29107 67.0312 4.97266C67.2396 5.10284 67.4739 5.20698 67.7083 5.33715C68.8802 2.94194 70.651 1.32778 73.0989 0.468628C73.5416 0.312419 73.9844 0.156209 74.4531 0.0260349C75.3646 0.0260349 76.276 0.0260349 77.1875 0.0260349C79.5573 0.598802 81.7187 1.56209 83.3073 3.51471C83.9323 2.96798 84.4531 2.34314 85.1041 1.97865C86.5364 1.24967 88.0208 0.676907 89.4791 0.0260349C90.3385 0.0260349 91.1719 0.0260349 92.0312 0.0260349C92.1614 0.10414 92.2916 0.182244 92.4479 0.234314C96.2239 1.1195 98.6198 3.46264 99.7396 7.15959C99.8177 7.47201 99.9479 7.7584 100.026 8.04478C100.026 9.21635 100.026 10.3879 100.026 11.5595C99.4791 13.7985 98.5937 15.8813 97.1094 17.7037C93.3854 22.2859 88.6719 25.8006 84.2969 29.6798C83.6979 30.2265 82.9687 30.1224 82.3177 29.6537C82.1354 29.5236 81.9271 29.3934 81.6927 29.2111C81.6666 29.4194 81.6406 29.4975 81.6406 29.6017C81.6406 42.2807 81.6927 54.9857 81.6406 67.6647C81.6406 69.9297 81.4583 72.2208 81.0416 74.4337C76.7969 96.8237 50.4687 107.368 31.8489 94.1682C30.3906 93.1268 29.0625 91.9552 27.6302 90.8097C27.526 90.8878 27.4219 90.9919 27.2916 91.0961C24.2187 93.8297 21.1719 96.5374 18.0989 99.271C17.0312 100.208 16.3281 100.234 15.3385 99.3752C12.5781 96.9539 9.79165 94.5587 7.05727 92.0854C3.80206 89.1434 0.833313 85.9672 -0.026062 81.4111C-0.026062 80.2395 -0.026062 79.0679 -0.026062 77.8964C0.052063 77.7141 0.130188 77.5579 0.182271 77.3757C1.43227 72.0906 6.66665 68.8883 11.7708 70.3202C13.6979 70.867 15.2864 71.9604 16.5625 73.3663C18.125 72.5332 18.776 71.3356 18.3333 69.6173C18.3073 69.5131 18.3333 69.435 18.3333 69.3309C18.3333 56.8081 18.3073 44.2853 18.3333 31.7626C18.3333 30.3046 18.4114 28.8206 18.5937 27.3887C20.2604 14.6576 29.8177 3.98334 42.2916 0.963291C44.0104 0.546733 45.7552 0.312419 47.4739 0ZM78.3333 43.3741C77.8646 43.9469 77.5781 44.3374 77.2656 44.7019C74.4791 48.0604 70.8594 50.3775 67.1354 52.5384C62.7344 55.0898 58.2031 57.485 53.9323 60.2447C46.4062 65.1393 41.9271 72.1166 40.5729 81.0726C39.9219 85.4465 40.0781 89.8204 40.0781 94.2203C40.0781 94.4806 40.4427 94.8711 40.7291 94.9753C44.8177 96.4853 49.0625 96.9799 53.3854 96.4332C60.4948 95.548 66.5104 92.4499 71.276 87.0607C75.3385 82.4525 77.7344 77.0893 78.151 70.9451C78.3854 67.2481 78.3333 63.5251 78.3333 59.8282C78.3333 54.4129 78.3333 49.0237 78.3333 43.3741ZM56.0677 16.1677C56.276 17.5735 56.5885 18.9013 56.6146 20.2291C56.6406 22.7024 54.5833 24.8112 52.1875 24.9675C49.4791 25.1497 47.1354 23.4314 46.7187 20.88C46.6406 20.3853 46.6406 19.8125 46.7969 19.3439C47.0573 18.5889 47.7083 18.2505 48.5156 18.3546C49.4271 18.4587 49.8698 19.0315 50 19.8907C50.1823 21.0883 50.9635 21.7912 51.9271 21.609C52.9687 21.4007 53.4896 20.4895 53.2291 19.2918C53.1771 19.1096 53.151 18.9013 53.0989 18.7191C52.6302 16.8966 50.5208 14.7878 48.6458 15.0221C41.4323 15.9854 36.5104 19.7605 34.0885 26.6858C33.5937 28.0916 33.2812 28.326 31.7448 28.326C29.8698 28.2999 28.3333 29.7579 28.2812 31.5803C28.2552 33.4548 29.7396 34.9388 31.6927 34.9388C33.3333 34.9388 33.6198 35.1471 34.1146 36.7352C36.3802 43.6865 42.6823 48.2426 49.9479 48.2426C57.2135 48.2426 63.5156 43.6605 65.7812 36.7092C66.3021 35.1471 66.5625 34.9388 68.2291 34.9388C70.1302 34.9388 71.6406 33.4809 71.6406 31.6584C71.6406 29.836 70.1302 28.352 68.2552 28.326C66.5364 28.2999 66.3541 28.1697 65.7812 26.4775C64.1146 21.5829 60.8333 18.1463 56.0677 16.1677ZM67.7083 48.2947C68.7239 47.5918 69.7135 46.9409 70.6771 46.2119C73.2291 44.3374 75.3646 42.0984 76.7187 39.1825C78.3854 35.5897 78.4635 31.7886 78.0729 27.9094C77.8906 26.1651 77.0833 25.0716 75.8333 23.9521C73.5677 21.8953 71.4062 19.7344 69.401 17.4434C67.526 15.2825 66.5625 12.653 66.6406 9.73705C66.6666 9.03411 66.4583 8.61755 65.8854 8.22702C55.9635 1.45795 42.5 1.74434 32.9427 9.11221C26.25 14.2671 22.526 21.0883 21.7708 29.5236C21.0416 37.7766 24.401 43.7386 32.3958 48.2426C33.4375 47.3575 34.4791 46.4983 35.5729 45.5611C33.6719 43.5564 32.1875 41.2393 31.1979 38.6358C31.1198 38.4535 30.7291 38.3494 30.4948 38.2973C27.3437 37.6464 25.0521 35.0169 25 31.9448C24.9479 28.5863 27.0052 25.9568 30.3125 25.2018C30.9114 25.0716 31.2239 24.8112 31.4583 24.2124C34.5052 16.6363 41.7708 11.7417 49.9479 11.7157C58.0469 11.6897 65.3385 16.5061 68.4635 24.0302C68.75 24.7331 69.1146 25.0716 69.8698 25.2538C72.6041 25.8526 74.6094 28.1177 74.9739 30.8774C75.3385 33.611 73.9583 36.7092 71.3281 37.5683C69.1927 38.2452 68.3854 39.6511 67.5 41.3694C66.6927 42.9055 65.5469 44.2593 64.5573 45.6912C65.5208 46.4462 66.5625 47.3314 67.7083 48.2947ZM36.3541 93.257C36.4583 93.1789 36.5625 93.1007 36.6666 93.0487C36.6666 92.6582 36.6406 92.2937 36.6666 91.9031C36.8229 88.3624 36.7708 84.7956 37.1614 81.2809C37.7344 76.0479 39.401 71.1273 42.4739 66.8055C43.8802 64.8008 45.5469 62.9784 47.1614 61.0258C47.0052 60.8956 46.7708 60.6873 46.4844 60.5311C41.9531 57.8495 37.4479 55.1679 32.8906 52.5124C28.776 50.1172 24.8177 47.5137 21.901 43.6345C21.875 43.6084 21.7969 43.6345 21.7708 43.6345C21.7708 52.4603 21.7708 61.3122 21.7708 70.1901C22.1354 70.164 22.4479 70.164 22.7083 70.1119C26.6927 69.383 31.1458 71.9865 32.6302 75.8917C34.2187 80.1093 33.2031 83.9365 30.6771 87.4512C30.4687 87.7376 30.2604 87.9979 29.9219 88.4665C32.1094 90.0807 34.2187 91.6688 36.3541 93.257ZM83.4375 26.2171C86.9271 22.9367 90.3906 19.8386 93.6458 16.5582C95.8073 14.3973 97.0573 11.7678 96.5104 8.53944C95.9114 5.05077 92.9687 2.8378 89.6354 3.54074C87.5521 3.98334 86.0156 5.20698 84.9479 7.02942C84.0625 8.56548 82.6302 8.53944 81.6927 7.00338C81.4323 6.58683 81.1979 6.17027 80.8594 5.80578C79.1146 3.93127 76.9791 2.91591 74.401 3.56678C71.9531 4.19162 70.651 6.06613 70.1823 8.4353C69.6354 11.221 70.5729 13.6162 72.3177 15.7511C75.4948 19.6824 79.5573 22.6504 83.4375 26.2171ZM16.5104 96.1729C17.0833 95.6782 17.5 95.3658 17.8646 95.0013C20.9114 92.1895 24.0625 89.4298 27.0052 86.5139C29.0625 84.4572 30.2604 81.9318 29.8958 78.8597C29.4271 74.7201 25.625 72.2989 21.8229 73.8349C20.2344 74.4858 19.0625 75.6053 18.2031 77.0893C17.3958 78.4952 15.9635 78.4691 15.1041 77.0893C14.9219 76.8029 14.7656 76.5165 14.5833 76.2562C12.9948 74.0172 10.026 72.8456 7.68227 73.5225C4.86977 74.3556 3.02081 77.4017 3.35935 80.578C3.59373 82.7649 4.53123 84.6915 6.04165 86.1755C9.47915 89.586 13.0208 92.8404 16.5104 96.1729ZM35.3385 49.9609C35.651 50.1692 35.7552 50.2473 35.8594 50.3254C40.5469 52.8508 45.2344 55.3762 49.5573 58.5525C49.7656 58.7087 50.3385 58.6045 50.625 58.4223C54.1927 56.2874 57.7083 54.0745 61.276 51.9136C62.3437 51.2627 63.4375 50.716 64.6875 50.013C64.375 49.7527 64.1927 49.6225 64.0104 49.4923C63.5677 49.1539 63.125 48.8414 62.6823 48.503C62.0573 48.0083 61.5364 47.9823 60.7812 48.4509C57.0052 50.8982 52.8646 51.9396 48.3594 51.5751C44.9479 51.2887 41.8489 50.1692 38.9583 48.3468C38.6979 48.1645 38.1771 48.0604 37.9427 48.1906C37.0833 48.7113 36.276 49.3101 35.3385 49.9609Z" fill="#B3D337"/>
</g>
<defs>
<clipPath id="clip0_2161_42">
<rect width="100" height="100" fill="white"/>
</clipPath>
</defs>
</svg>
