<svg width="100" height="100" viewBox="0 0 100 100" fill="none" xmlns="http://www.w3.org/2000/svg">
<g clip-path="url(#clip0_2161_605)">
<path d="M47.9918 49.5379C47.6355 49.6621 47.2868 49.8072 46.9476 49.9724C44.4708 51.2823 42.5597 53.4541 41.5754 56.0773C39.959 59.8478 32.4656 72.5035 3.89019 76.8347C2.96582 76.9634 2.13885 77.4766 1.61314 78.2478C1.09679 79.0094 0.927596 79.9543 1.14757 80.8478C1.78415 83.1555 2.92214 85.2943 4.48035 87.1117C4.58417 87.2971 4.72276 87.4608 4.88855 87.5937C7.86637 90.7808 11.5527 93.222 15.6492 94.7199C15.6935 94.7379 15.7345 94.7592 15.7804 94.774C17.7202 95.5381 19.7088 96.1723 21.7328 96.6724C25.3117 97.5571 28.9621 98.1222 32.641 98.3609C32.7065 98.3743 32.7727 98.3836 32.8394 98.3888C32.8574 98.3888 32.8754 98.3773 32.8918 98.3773C33.859 98.433 34.841 98.4724 35.8426 98.4724C42.1918 98.4724 49.1951 97.192 54.8181 93.0019C57.5244 94.8478 60.985 95.1871 63.9984 93.9019C66.5155 96.7154 70.0715 98.3803 73.8444 98.5115C77.6173 98.6427 81.2804 97.2289 83.9869 94.597C87.6523 96.3262 91.9814 95.8264 95.1564 93.3074C98.3313 90.7884 99.8024 86.6863 98.9519 82.7237C98.1014 78.7611 95.0766 75.624 91.1476 74.6297C89.943 70.44 86.6446 67.1792 82.4413 66.0226C78.2381 64.866 73.7358 65.9805 70.5574 68.9642C68.7259 67.946 66.6011 67.585 64.5361 67.9412C64.4029 65.3248 64.1144 62.7185 63.6721 60.1363C63.1484 57.0065 61.5621 54.1529 59.1803 52.056L67.923 6.82975C68.2219 5.34796 67.9149 3.80816 67.0705 2.55434C65.7843 0.615052 63.4526 -0.353293 61.1709 0.10426C58.8893 0.561813 57.1112 2.35431 56.6721 4.63959L47.9918 49.5379ZM69.8099 72.3806C70.5056 72.9102 71.4946 72.8005 72.0574 72.1314C74.3513 69.4113 78.0041 68.2515 81.4469 69.15C84.8897 70.0485 87.5099 72.8455 88.182 76.3396C88.3153 77.027 88.8705 77.5539 89.5639 77.6511C92.5517 78.0716 94.9821 80.2691 95.7006 83.1995C96.419 86.1299 95.2805 89.2024 92.8261 90.9572C90.3717 92.7119 87.0962 92.7952 84.5558 91.1674C83.8657 90.7261 82.9558 90.8619 82.4246 91.4855C80.3257 93.9715 77.2 95.3537 73.9487 95.2337C70.6974 95.1137 67.682 93.5047 65.7721 90.8707C65.2679 90.1764 64.3135 89.9883 63.5836 90.4396C61.4786 91.7412 58.8098 91.7041 56.7419 90.3443C54.6739 88.9845 53.5822 86.5489 53.9432 84.1004C54.3041 81.6519 56.0523 79.6349 58.4246 78.9297C59.112 78.7238 59.5856 78.0948 59.5935 77.3773C59.647 73.8962 62.4759 71.0979 65.9574 71.0822C67.3497 71.0776 68.7043 71.5342 69.8099 72.3806ZM56.3935 76.1937C52.8883 77.7409 50.6195 81.2033 50.6 85.0347C50.6022 87.0717 51.2533 89.0551 52.459 90.697C48.462 93.3489 43.821 94.8683 39.0295 95.0937C41.8112 93.2563 44.319 91.0349 46.4787 88.4953C47.0591 87.7995 46.9655 86.765 46.2697 86.1847C45.5739 85.6043 44.5394 85.6979 43.959 86.3937C40.7748 90.0462 36.8724 93.0038 32.4951 95.0822C29.1334 94.8347 25.7989 94.301 22.5279 93.4871C22.2345 93.4133 21.9722 93.3232 21.6869 93.2543C30.4476 90.2576 40.482 85.097 46.441 76.3265C46.9333 75.5781 46.7337 74.5732 45.9928 74.0697C45.2519 73.5662 44.2441 73.7506 43.7295 74.4838C37.2869 83.9724 25.4099 88.9478 16.3705 91.4756C13.8657 90.484 11.5225 89.1248 9.41806 87.4429C15.8164 86.526 22.0314 84.6109 27.8361 81.7674C28.3581 81.4913 28.6912 80.9558 28.7082 80.3655C28.7252 79.7752 28.4233 79.2214 27.9181 78.9157C27.4128 78.6101 26.7822 78.5998 26.2672 78.8888C20.2754 82.1576 11.7328 83.8199 6.62134 84.5724C5.56845 83.2453 4.79853 81.7166 4.35904 80.0806C29.5541 76.2592 39.441 65.956 43.0738 60.2002C43.6939 60.7974 44.3702 61.3333 45.0935 61.8002C47.4989 63.3045 50.2897 64.0773 53.1263 64.0248C53.3115 64.0248 53.4951 64.0248 53.682 64.015C56.0838 63.9746 58.4684 63.6006 60.7672 62.9035C61.0508 64.9429 61.2232 66.9962 61.2836 69.0543C58.6205 70.5315 56.8087 73.1767 56.3935 76.1937ZM60.1836 59.6215C58.0516 60.3296 55.8234 60.7061 53.5771 60.7379C51.2262 60.8756 48.8899 60.2866 46.8853 59.0511C46.064 58.5337 45.3294 57.8903 44.7082 57.1445C45.4026 55.344 46.7099 53.8463 48.4 52.915C50.2673 52.0526 52.4134 52.0257 54.3017 52.8412C57.2235 54.045 59.4044 56.559 60.1836 59.6215ZM59.8918 5.2609C60.1499 3.93856 61.424 3.07014 62.7492 3.31336C63.401 3.44026 63.9751 3.82205 64.3443 4.37401C64.7039 4.90877 64.8344 5.56531 64.7066 6.19696L56.2066 50.1314C55.959 50.015 55.7148 49.8822 55.464 49.7838C54.1771 49.29 52.8142 49.0237 51.4361 48.997L59.8918 5.2609Z" fill="#B3D337"/>
<path d="M77.0688 76.3626C77.7332 75.5736 78.7919 75.2368 79.79 75.4969C80.7881 75.757 81.5478 76.5677 81.7426 77.5806C81.8911 78.3523 82.5665 78.9101 83.3524 78.9101C83.4569 78.9099 83.5612 78.9 83.6639 78.8806C84.0909 78.7984 84.4677 78.55 84.7115 78.19C84.9553 77.83 85.0461 77.3879 84.9639 76.9609C84.5293 74.7072 82.8386 72.9036 80.6177 72.3244C78.3967 71.7452 76.0405 72.4934 74.5606 74.2478C73.9766 74.9404 74.0647 75.9753 74.7573 76.5593C75.45 77.1432 76.4848 77.0552 77.0688 76.3626Z" fill="#B3D337"/>
<path d="M86.0656 56.5575C86.0656 59.7264 88.6344 62.2952 91.8033 62.2952C94.9721 62.2952 97.541 59.7264 97.541 56.5575C97.541 53.3887 94.9721 50.8198 91.8033 50.8198C88.6344 50.8198 86.0656 53.3887 86.0656 56.5575ZM94.2623 56.5575C94.2623 57.9156 93.1613 59.0165 91.8033 59.0165C90.4452 59.0165 89.3442 57.9156 89.3442 56.5575C89.3442 55.1995 90.4452 54.0985 91.8033 54.0985C93.1613 54.0985 94.2623 55.1995 94.2623 56.5575Z" fill="#B3D337"/>
<path d="M81.1475 50.82C83.8637 50.82 86.0656 48.6181 86.0656 45.9019C86.0656 43.1858 83.8637 40.9839 81.1475 40.9839C78.4314 40.9839 76.2295 43.1858 76.2295 45.9019C76.2295 48.6181 78.4314 50.82 81.1475 50.82ZM81.1475 44.2626C82.0529 44.2626 82.7869 44.9965 82.7869 45.9019C82.7869 46.8073 82.0529 47.5413 81.1475 47.5413C80.2421 47.5413 79.5082 46.8073 79.5082 45.9019C79.5082 44.9965 80.2421 44.2626 81.1475 44.2626Z" fill="#B3D337"/>
<path d="M12.2951 37.7053C13.2005 37.7053 13.9345 36.9714 13.9345 36.066V32.7873C13.9345 31.8819 13.2005 31.1479 12.2951 31.1479C11.3897 31.1479 10.6558 31.8819 10.6558 32.7873V36.066C10.6558 36.9714 11.3897 37.7053 12.2951 37.7053Z" fill="#B3D337"/>
<path d="M13.9345 45.9019V42.6232C13.9345 41.7178 13.2005 40.9839 12.2951 40.9839C11.3897 40.9839 10.6558 41.7178 10.6558 42.6232V45.9019C10.6558 46.8073 11.3897 47.5413 12.2951 47.5413C13.2005 47.5413 13.9345 46.8073 13.9345 45.9019Z" fill="#B3D337"/>
<path d="M5.73773 40.9838H9.01642C9.92181 40.9838 10.6558 40.2498 10.6558 39.3444C10.6558 38.439 9.92181 37.7051 9.01642 37.7051H5.73773C4.83235 37.7051 4.09839 38.439 4.09839 39.3444C4.09839 40.2498 4.83235 40.9838 5.73773 40.9838Z" fill="#B3D337"/>
<path d="M15.5738 40.9838H18.8525C19.7579 40.9838 20.4918 40.2498 20.4918 39.3444C20.4918 38.439 19.7579 37.7051 18.8525 37.7051H15.5738C14.6684 37.7051 13.9344 38.439 13.9344 39.3444C13.9344 40.2498 14.6684 40.9838 15.5738 40.9838Z" fill="#B3D337"/>
<path d="M18.5131 58.6775L16.0541 61.1365C15.6279 61.5481 15.457 62.1576 15.6071 62.7308C15.7571 63.3039 16.2047 63.7515 16.7779 63.9016C17.351 64.0516 17.9605 63.8807 18.3721 63.4545L20.8312 60.9955C21.4524 60.3523 21.4435 59.3298 20.8112 58.6974C20.1788 58.0651 19.1564 58.0562 18.5131 58.6775Z" fill="#B3D337"/>
<path d="M28.2082 51.3003C27.5681 50.6603 26.5304 50.6603 25.8902 51.3003L23.4312 53.7593C23.005 54.1709 22.8341 54.7804 22.9841 55.3536C23.1342 55.9267 23.5818 56.3744 24.1549 56.5244C24.7281 56.6744 25.3376 56.5035 25.7492 56.0773L28.2082 53.6183C28.8482 52.9782 28.8482 51.9405 28.2082 51.3003Z" fill="#B3D337"/>
<path d="M25.7492 58.6775C25.1059 58.0562 24.0835 58.0651 23.4511 58.6974C22.8187 59.3298 22.8099 60.3523 23.4311 60.9955L25.8901 63.4545C26.5334 64.0758 27.5559 64.0669 28.1882 63.4346C28.8206 62.8022 28.8294 61.7797 28.2082 61.1365L25.7492 58.6775Z" fill="#B3D337"/>
<path d="M20.8312 53.759L18.3722 51.3C17.729 50.6788 16.7065 50.6876 16.0741 51.32C15.4418 51.9523 15.4329 52.9748 16.0542 53.6181L18.5132 56.0771C19.1564 56.6983 20.1789 56.6895 20.8113 56.0571C21.4436 55.4248 21.4525 54.4023 20.8312 53.759Z" fill="#B3D337"/>
<path d="M20.2065 16.5119L48.0754 21.4299C48.1701 21.447 48.2661 21.4552 48.3623 21.4545C49.2093 21.4502 49.9135 20.8014 49.9871 19.9576C50.0606 19.1138 49.4793 18.3529 48.6459 18.202L20.777 13.284C19.8961 13.1482 19.0681 13.7412 18.913 14.6189C18.7578 15.4966 19.3324 16.3375 20.2065 16.5119Z" fill="#B3D337"/>
<path d="M46.4361 29.6267C46.5308 29.6437 46.6268 29.652 46.723 29.6513C47.57 29.647 48.2742 28.9981 48.3478 28.1544C48.4214 27.3106 47.8401 26.5497 47.0066 26.3988L29.2378 23.2611C28.346 23.1036 27.4953 23.6988 27.3378 24.5906C27.1802 25.4824 27.7755 26.3331 28.6673 26.4906L46.4361 29.6267Z" fill="#B3D337"/>
<path d="M21.9837 31.9888C21.9079 32.4171 22.0055 32.8579 22.2548 33.2143C22.5042 33.5706 22.8849 33.8133 23.3132 33.8888L44.7968 37.6806C44.891 37.6968 44.9864 37.705 45.0821 37.7052C45.9325 37.7056 46.6421 37.0555 46.7159 36.2082C46.7898 35.3609 46.2034 34.5979 45.3657 34.4511L23.8821 30.656C23.4535 30.5808 23.0127 30.679 22.6567 30.929C22.3006 31.179 22.0585 31.5603 21.9837 31.9888Z" fill="#B3D337"/>
</g>
<defs>
<clipPath id="clip0_2161_605">
<rect width="100" height="100" fill="white"/>
</clipPath>
</defs>
</svg>
