<svg width="100" height="100" viewBox="0 0 100 100" fill="none" xmlns="http://www.w3.org/2000/svg">
<g clip-path="url(#clip0_2161_46)">
<path d="M100 28.5156C100 50.5208 100 72.526 100 94.5312C99.4271 96.5104 98.4375 98.2031 96.5365 99.1927C95.9635 99.5052 95.3385 99.7396 94.7135 100C64.8958 100 35.0781 100 5.2604 100C3.64581 99.401 2.10935 98.6719 1.14581 97.1354C0.677063 96.3802 0.364563 95.5469 -0.026062 94.7396C-2.03419e-05 72.6562 -2.03419e-05 50.599 -2.03419e-05 28.5156C0.729146 26.4062 1.84894 24.5312 3.33331 22.8646C6.8229 18.9844 11.0156 15.9635 15.3906 13.1771C16.1458 12.7083 16.8489 12.2917 16.9271 11.25C16.9531 10.8073 17.3437 10.3906 17.6302 10C19.5312 7.44792 21.4062 4.89583 23.3854 2.39583C24.1146 1.48437 25.1041 0.78125 25.9896 0C42.0052 0 58.0208 0 74.0364 0C74.8698 0.755208 75.8073 1.38021 76.5104 2.23958C78.4114 4.60938 80.2083 7.00521 81.9791 9.45312C82.526 10.2083 82.8385 11.1719 83.3073 12.0052C83.4635 12.2917 83.7239 12.5521 84.0104 12.7344C86.1198 14.1927 88.3073 15.5469 90.3385 17.1094C94.3229 20.2604 98.2812 23.4375 100 28.5156ZM9.97394 21.4583C9.86977 21.4062 9.73956 21.3281 9.6354 21.276C8.02081 22.9687 6.35415 24.6094 4.81769 26.3542C3.88019 27.4219 3.30727 28.6719 3.30727 30.1823C3.30727 51.1198 3.30727 72.0312 3.30727 92.9688C3.30727 95.3125 4.66144 96.6667 7.00519 96.6667C35.651 96.6667 64.2969 96.6667 92.9427 96.6667C95.2864 96.6667 96.6406 95.3125 96.6406 92.9688C96.6406 72.0312 96.6406 51.1198 96.6406 30.1823C96.6406 29.5573 96.5365 28.8542 96.276 28.2812C94.9479 25.3646 92.5 23.4115 90 21.1979C90 21.7708 90 22.0833 90 22.3958C90 25.5469 90.1042 28.724 89.9739 31.875C89.8958 33.75 89.7396 35.6771 89.1406 37.4219C83.0989 54.7917 71.7187 67.3958 55.026 75.1823C51.5625 76.7969 48.125 76.6667 44.6875 75.0781C35.7031 70.9115 28.0729 65.0521 21.7969 57.3958C16.9531 51.4583 13.2552 44.8958 10.9114 37.6042C10.3125 35.7292 10.0781 33.6719 9.99998 31.6667C9.86977 28.2812 9.97394 24.8698 9.97394 21.4583ZM38.6198 25.9115C38.3333 26.25 38.1771 26.4583 37.9948 26.6667C36.25 28.8281 34.4531 29.0104 32.3177 27.1875C28.8802 24.2708 25.4166 21.3281 21.9791 18.4115C21.4062 17.9167 20.8073 17.4479 20.1041 16.849C20.0521 17.2396 20.026 17.4479 20.026 17.6562C20.026 22.4479 20 27.2135 20.0521 32.0052C20.0781 33.0469 20.3125 34.1406 20.651 35.1302C23.125 42.4219 27.1094 48.8021 32.4739 54.2969C33.6719 55.5208 34.9479 56.6406 36.3021 57.9427C36.4062 57.3698 36.4844 57.0312 36.5364 56.6667C37.1614 52.7344 37.7864 48.776 38.3854 44.8437C39.2187 39.5573 40.0521 34.2708 40.8333 28.9583C40.8854 28.6719 40.7812 28.2552 40.5989 28.0208C40 27.3177 39.3229 26.6406 38.6198 25.9115ZM63.6719 57.8906C63.9583 57.6562 64.1146 57.5521 64.2708 57.4219C70.2083 52.2656 74.7917 46.1198 77.9167 38.9062C78.9062 36.5885 80.026 34.2969 80 31.6667C79.9479 27.0833 80 22.5 79.9739 17.9167C79.9739 17.6302 79.9219 17.3177 79.8958 16.849C78.6458 17.9167 77.5521 18.8281 76.4583 19.7656C73.4375 22.3438 70.4166 24.9219 67.3958 27.474C65.651 28.9323 63.75 28.75 62.2656 27.0052C62.0052 26.6927 61.7448 26.3542 61.3802 25.9115C60.9375 26.4062 60.625 26.9271 60.1562 27.2656C59.1667 27.9948 59.0885 28.8802 59.2708 30.0521C60.3385 36.4583 61.3021 42.8646 62.3177 49.2969C62.7344 52.0573 63.1771 54.8958 63.6719 57.8906ZM16.6406 16.3802C15.651 17.0573 14.8698 17.6302 14.0625 18.125C13.5416 18.4635 13.3333 18.8542 13.3333 19.4792C13.3594 23.5156 13.2552 27.5521 13.3854 31.5885C13.4375 33.3594 13.6458 35.1823 14.2187 36.849C19.9479 53.099 30.7031 64.8177 46.3021 72.1354C48.75 73.2812 51.1719 73.3073 53.6458 72.1615C68.4635 65.2865 78.9062 54.2708 85 39.1146C85.8594 36.9531 86.6146 34.7917 86.6146 32.4479C86.6406 28.0208 86.6406 23.5937 86.6406 19.1667C86.6406 18.9323 86.5625 18.6198 86.3802 18.4896C85.4427 17.8125 84.4792 17.1615 83.3594 16.3802C83.3594 16.9531 83.3594 17.2917 83.3594 17.6302C83.3594 22.3177 83.4114 27.0052 83.3333 31.6927C83.3073 33.0208 83.1771 34.401 82.7344 35.625C77.2917 51.0677 67.1354 62.2656 52.2656 69.1667C50.7292 69.8958 49.2187 69.8698 47.6562 69.1667C36.3021 63.9583 27.526 55.9115 21.3802 45.026C18.1771 39.375 15.9114 33.5156 16.5625 26.7708C16.901 23.4115 16.6406 20 16.6406 16.3802ZM79.9479 12.3438C77.6562 9.32292 75.4166 6.35417 73.125 3.35937C67.6041 7.13542 62.2135 10.8594 56.7187 14.6094C59.5052 18.099 62.2135 21.5365 65 25.026C70 20.7812 74.9479 16.5885 79.9479 12.3438ZM20.0521 12.3698C25.0781 16.6146 30.026 20.8333 35 25.0521C37.7864 21.5365 40.5208 18.099 43.2812 14.6354C37.7604 10.8594 32.3698 7.16146 26.875 3.38542C24.5833 6.38021 22.3698 9.32292 20.0521 12.3698ZM32.9948 3.38542C33.2552 3.61979 33.3854 3.75 33.5156 3.82812C37.526 6.61458 41.5364 9.375 45.5729 12.1354C45.7812 12.2917 46.1979 12.3177 46.4583 12.2396C48.8281 11.5365 51.1979 11.5365 53.5677 12.2396C53.8281 12.3177 54.2448 12.2917 54.4531 12.1354C58.4896 9.375 62.5 6.61458 66.5104 3.82812C66.6666 3.72396 66.7708 3.59375 67.0312 3.38542C55.625 3.38542 44.375 3.38542 32.9948 3.38542ZM59.1927 23.125C59.2187 23.2552 59.2187 23.2292 59.1927 23.2031C57.3437 20.7812 55.4948 18.3594 53.6198 15.9375C53.4896 15.7812 53.2552 15.6771 53.0469 15.599C51.4062 14.974 49.7396 14.9219 47.9687 15.2604C46.5364 15.5208 45.9896 16.6146 45.2604 17.5521C43.75 19.4531 42.2396 21.3542 40.7812 23.2031C43.2031 25.6771 45.5208 28.099 47.9167 30.4167C49.0625 31.5365 50.8854 31.6146 52.0052 30.5208C54.4271 28.151 56.7448 25.651 59.1927 23.125ZM39.4531 60.2083C39.5833 60.3906 39.6354 60.4687 39.7135 60.5208C42.8646 62.3698 46.0156 64.2708 49.1927 66.0677C49.6094 66.3021 50.4167 66.276 50.8333 66.0417C53.9323 64.2969 57.0052 62.5 60.0781 60.6771C60.3125 60.5469 60.5729 60.1562 60.5208 59.9219C60.3125 58.3594 60.0521 56.7969 59.7917 55.1042C52.9687 56.8229 46.25 58.5156 39.4531 60.2083ZM39.9739 56.6146C46.5104 54.974 52.8646 53.3854 59.2708 51.7708C59.0104 50.1302 58.776 48.6458 58.5417 47.1094C52.7083 48.5417 47.0052 49.974 41.276 51.4062C41.0417 51.4583 40.7291 51.7969 40.6771 52.0312C40.4166 53.4896 40.2083 54.9479 39.9739 56.6146ZM56.0417 31.3021C54.3229 33.2552 52.526 34.5833 50 34.6094C47.4479 34.6094 45.651 33.2031 43.9323 31.3281C43.4635 34.375 43.0208 37.1875 42.5521 40.1302C47.2916 38.9583 51.8489 37.8125 56.3802 36.6667C56.5625 36.6146 56.8229 36.25 56.7969 36.0677C56.6146 34.5573 56.3281 33.0469 56.0417 31.3021ZM57.4219 39.974C57.2396 39.974 57.1614 39.974 57.0573 40C52.2135 41.1979 47.3698 42.3958 42.526 43.6198C42.3177 43.6719 42.0312 43.8281 42.0052 43.9583C41.7708 45.2344 41.5625 46.5104 41.3281 47.9167C47.0312 46.4844 52.526 45.1042 58.0469 43.724C57.8125 42.3958 57.6042 41.1979 57.4219 39.974Z" fill="#B3D337"/>
</g>
<defs>
<clipPath id="clip0_2161_46">
<rect width="100" height="100" fill="white"/>
</clipPath>
</defs>
</svg>
