<svg width="100" height="100" viewBox="0 0 100 100" fill="none" xmlns="http://www.w3.org/2000/svg">
<path d="M92.9717 13.3335H7.02833C3.15333 13.3335 0 16.4868 0 20.3618V79.6385C0 83.5135 3.15333 86.6668 7.02833 86.6668H92.9717C96.8467 86.6668 100 83.5135 100 79.6385V20.3618C100 16.4868 96.8467 13.3335 92.9717 13.3335ZM96.6667 79.6385C96.6667 81.6768 95.01 83.3335 92.9717 83.3335H7.02833C4.99 83.3335 3.33333 81.6768 3.33333 79.6385V20.3618C3.33333 18.3235 4.99 16.6668 7.02833 16.6668H92.9717C95.01 16.6668 96.6667 18.3235 96.6667 20.3618V79.6385Z" fill="#B3D337"/>
<path d="M37.73 60.4102L31.6667 57.3135V56.6685C34.38 55.1868 36.2884 52.7468 37.3534 49.3952C38.9684 48.5385 40 46.8702 40 45.0002V43.3335C40 41.7902 39.2817 40.3585 38.0817 39.4185C37.0417 33.1185 32.645 29.9252 25 29.9252C24.6384 29.9252 24.285 29.9385 23.94 29.9652C22.5 30.0835 20.3917 29.9585 18.5667 28.7318C17.885 28.2718 17.37 27.8252 17.0417 27.4102C16.4817 26.6952 15.54 26.4452 14.705 26.7885C13.8684 27.1318 13.3767 27.9685 13.4817 28.8668C13.5517 29.4902 13.6567 30.2152 13.815 31.0102C14.1367 32.6352 14.1367 32.6352 13.685 33.6068C13.515 33.9752 13.305 34.4235 13.0584 35.0285C12.5067 36.3802 12.115 37.8602 11.89 39.4402C10.7067 40.3818 10 41.8052 10 43.3335V45.0002C10 46.8702 11.0317 48.5385 12.6467 49.3952C13.7117 52.7485 15.62 55.1885 18.3334 56.6685V57.2952L12.0517 60.3918C9.75837 61.6418 8.33337 64.0418 8.33337 66.6552V68.8635C8.33337 70.2018 8.33337 73.3335 25 73.3335C41.6667 73.3335 41.6667 70.2018 41.6667 68.8635V66.7885C41.6667 64.0702 40.1584 61.6285 37.73 60.4102ZM38.3334 68.4868C37.2934 69.1202 33.0634 70.0002 25 70.0002C16.9367 70.0002 12.7067 69.1202 11.6667 68.4868V66.6552C11.6667 65.2635 12.425 63.9835 13.5867 63.3518L20.015 60.1835C21.0184 59.6935 21.665 58.6552 21.665 57.5368V54.5318L20.6584 54.0985C18.13 53.0085 16.4867 50.9302 15.6334 47.7418L15.395 46.8535L14.5184 46.5802C13.8217 46.3618 13.3334 45.7135 13.3334 45.0002V43.3335C13.3334 42.7302 13.6784 42.1702 14.235 41.8735L15.0167 41.4568L15.1084 40.5752C15.2734 39.0118 15.6217 37.5702 16.145 36.2918C16.3667 35.7502 16.555 35.3452 16.7084 35.0135C17.2734 33.8002 17.4784 33.1735 17.3367 31.8885C19.2967 33.0085 21.6517 33.4852 24.2067 33.2902C24.465 33.2685 24.73 33.2585 25.0017 33.2585C31.2417 33.2585 34.2884 35.5185 34.8834 40.5885L34.9867 41.4585L35.7617 41.8685C36.3184 42.1652 36.6667 42.7268 36.6667 43.3335V45.0002C36.6667 45.7135 36.1784 46.3618 35.48 46.5785L34.6034 46.8518L34.365 47.7402C33.5117 50.9285 31.8684 53.0068 29.34 54.0968L28.3334 54.5318V57.5502C28.3334 58.6652 28.95 59.6702 29.94 60.1752L36.2317 63.3902C37.5284 64.0368 38.3334 65.3402 38.3334 66.7885V68.4868Z" fill="#B3D337"/>
<path d="M50 38.3333H66.6667C67.5884 38.3333 68.3334 37.5883 68.3334 36.6667C68.3334 35.745 67.5884 35 66.6667 35H50C49.0784 35 48.3334 35.745 48.3334 36.6667C48.3334 37.5883 49.0784 38.3333 50 38.3333Z" fill="#B3D337"/>
<path d="M73.3333 38.3333H75C75.9216 38.3333 76.6666 37.5883 76.6666 36.6667C76.6666 35.745 75.9216 35 75 35H73.3333C72.4116 35 71.6666 35.745 71.6666 36.6667C71.6666 37.5883 72.4116 38.3333 73.3333 38.3333Z" fill="#B3D337"/>
<path d="M51.6667 63.3335H50C49.0784 63.3335 48.3334 64.0785 48.3334 65.0002C48.3334 65.9218 49.0784 66.6668 50 66.6668H51.6667C52.5884 66.6668 53.3334 65.9218 53.3334 65.0002C53.3334 64.0785 52.5884 63.3335 51.6667 63.3335Z" fill="#B3D337"/>
<path d="M61.6666 63.3335H58.3333C57.4116 63.3335 56.6666 64.0785 56.6666 65.0002C56.6666 65.9218 57.4116 66.6668 58.3333 66.6668H61.6666C62.5883 66.6668 63.3333 65.9218 63.3333 65.0002C63.3333 64.0785 62.5883 63.3335 61.6666 63.3335Z" fill="#B3D337"/>
<path d="M70 63.3335H68.3333C67.4116 63.3335 66.6666 64.0785 66.6666 65.0002C66.6666 65.9218 67.4116 66.6668 68.3333 66.6668H70C70.9216 66.6668 71.6666 65.9218 71.6666 65.0002C71.6666 64.0785 70.9216 63.3335 70 63.3335Z" fill="#B3D337"/>
<path d="M80 63.3335H76.6667C75.745 63.3335 75 64.0785 75 65.0002C75 65.9218 75.745 66.6668 76.6667 66.6668H80C80.9217 66.6668 81.6667 65.9218 81.6667 65.0002C81.6667 64.0785 80.9217 63.3335 80 63.3335Z" fill="#B3D337"/>
<path d="M85.4833 63.817C85.1817 64.132 85 64.567 85 65.0003C85 65.4337 85.1817 65.867 85.4833 66.1837C85.7983 66.4837 86.2333 66.667 86.6667 66.667C87.1 66.667 87.5333 66.4837 87.85 66.1837C88.15 65.867 88.3333 65.4337 88.3333 65.0003C88.3333 64.567 88.15 64.132 87.85 63.817C87.2167 63.2003 86.1 63.2003 85.4833 63.817Z" fill="#B3D337"/>
<path d="M86.6667 45H50C49.0784 45 48.3334 45.745 48.3334 46.6667C48.3334 47.5883 49.0784 48.3333 50 48.3333H86.6667C87.5884 48.3333 88.3334 47.5883 88.3334 46.6667C88.3334 45.745 87.5884 45 86.6667 45Z" fill="#B3D337"/>
<path d="M86.6667 55H50C49.0784 55 48.3334 55.745 48.3334 56.6667C48.3334 57.5883 49.0784 58.3333 50 58.3333H86.6667C87.5884 58.3333 88.3334 57.5883 88.3334 56.6667C88.3334 55.745 87.5884 55 86.6667 55Z" fill="#B3D337"/>
</svg>
