<svg width="100" height="100" viewBox="0 0 100 100" fill="none" xmlns="http://www.w3.org/2000/svg">
<g clip-path="url(#clip0_2179_153)">
<path d="M31.6667 51.6665H25.0001C24.0796 51.6665 23.3335 52.4128 23.3335 53.3331C23.3335 54.2534 24.0798 54.9997 25.0001 54.9997H31.6667C32.5872 54.9997 33.3333 54.2536 33.3333 53.3331C33.3333 52.4126 32.5872 51.6665 31.6667 51.6665Z" fill="#B3D337"/>
<path d="M30 56.6665H26.6666C25.7461 56.6665 25 57.4128 25 58.3331C25 59.2536 25.7463 59.9997 26.6666 59.9997H30C30.9205 59.9997 31.6666 59.2534 31.6666 58.3331C31.6666 57.4128 30.9205 56.6665 30 56.6665Z" fill="#B3D337"/>
<path d="M21.6666 36.6665H18.3333C17.4128 36.6665 16.6667 37.4128 16.6667 38.3331C16.6667 39.2536 17.413 39.9997 18.3333 39.9997C18.3333 40.9202 19.0796 41.6663 20 41.6663C20.9205 41.6663 21.6666 40.92 21.6666 39.9997C22.5871 39.9997 23.3332 39.2534 23.3332 38.3331C23.3334 37.4128 22.5871 36.6665 21.6666 36.6665Z" fill="#B3D337"/>
<path d="M38.3335 36.6665H35.0001C34.0796 36.6665 33.3335 37.4128 33.3335 38.3331C33.3335 39.2536 34.0798 39.9997 35.0001 39.9997C35.0001 40.9202 35.7464 41.6663 36.6667 41.6663C37.5872 41.6663 38.3333 40.92 38.3333 39.9997C39.2538 39.9997 39.9999 39.2534 39.9999 38.3331C40.0001 37.4128 39.254 36.6665 38.3335 36.6665Z" fill="#B3D337"/>
<path d="M26.6666 48.3332H30C30.9205 48.3332 31.6666 47.5869 31.6666 46.6666C31.6666 45.7463 30.9203 45 30 45H26.6666C25.7461 45 25 45.7461 25 46.6666C25 47.5871 25.7463 48.3332 26.6666 48.3332Z" fill="#B3D337"/>
<path d="M23.3334 35.0002C24.2539 35.0002 25 34.2539 25 33.3336C25 32.4131 24.2537 31.667 23.3334 31.667H16.6666C15.7461 31.667 15 32.4133 15 33.3336C15 34.2541 15.7463 35.0002 16.6666 35.0002H23.3334Z" fill="#B3D337"/>
<path d="M40 31.6665H33.3334C32.4128 31.6665 31.6667 32.4128 31.6667 33.3331C31.6667 34.2536 32.4128 34.9997 33.3334 34.9997H40C40.9205 34.9997 41.6666 34.2534 41.6666 33.3331C41.6666 32.4128 40.9205 31.6665 40 31.6665Z" fill="#B3D337"/>
<path d="M96.6667 0H46.6667C44.8257 0 43.3333 1.49238 43.3333 3.3334V6.6668C43.3368 7.85234 43.9719 8.94609 44.9999 9.53672V10.4533C43.27 9.28711 41.411 8.3252 39.4598 7.58672C39.6964 7.41113 39.9512 7.26133 40.2198 7.14004C41.1237 6.73086 41.7001 5.82559 41.6885 4.8334C41.677 3.84121 41.0798 2.9498 40.1665 2.56172C22.5551 -4.97168 13.8235 6.3334 12.1667 8.80996C8.85027 10.4254 6.36277 13.3566 5.30827 16.8916C3.64167 22.6066 5.95163 28.8916 7.45652 32.0934C3.8446 33.2404 1.4655 36.6854 1.67195 40.4693C1.87839 44.2533 4.61785 47.4191 8.33308 48.1666V50.31C8.33327 52.7133 9.37097 54.9994 11.1798 56.5816L15.2548 60.1482C15.5241 62.6322 15.4384 65.1418 14.9997 67.6016C13.33 67.2293 11.5856 67.7316 10.3696 68.935L5.48679 73.8184C5.24773 74.074 5.09656 74.3992 5.05515 74.7467C3.67175 75.2467 2.30515 75.7467 1.04187 76.2467C0.409446 76.5025 -0.0032492 77.1178 0.000266427 77.8V98.3334C7.11146e-05 99.2539 0.74636 100 1.66667 100H71.255C72.2663 100 73.2231 99.5416 73.8559 98.7527C74.4887 97.9639 74.7294 96.9305 74.51 95.9434L72.4134 86.5133C71.7026 83.3191 69.4741 80.675 66.4468 79.4332C63.1667 78.0865 58.8534 76.8232 55.0467 75.7082C53.8251 75.3498 52.6585 75.0082 51.6001 74.6832C51.5495 74.3602 51.4024 74.0598 51.1784 73.8215L46.295 68.9381C45.0784 67.7359 43.3346 67.2336 41.6649 67.6047C41.2268 65.1443 41.1415 62.6342 41.4116 60.1496L45.4866 56.583C47.2964 55 48.3341 52.7123 48.3333 50.308V48.1664C50.9813 47.6152 53.1973 45.8133 54.2766 43.333H70.0001V45.3063C67.7042 46.118 66.327 48.4656 66.7387 50.8658C67.1505 53.266 69.2315 55.0203 71.6667 55.0203C74.1018 55.0203 76.1829 53.266 76.5946 50.8658C77.0063 48.4656 75.6292 46.118 73.3333 45.3063V43.333H93.3333C96.0946 43.333 98.3333 41.0943 98.3333 38.333V9.53672C99.3612 8.94609 99.9964 7.85234 99.9999 6.6668V3.3334C100 1.49238 98.5077 0 96.6667 0ZM71.6667 51.6666C70.7462 51.6666 70.0001 50.9205 70.0001 50C70.0001 49.0795 70.7464 48.3334 71.6667 48.3334C72.5872 48.3334 73.3333 49.0797 73.3333 50C73.3335 50.9205 72.5872 51.6666 71.6667 51.6666ZM46.6667 3.3334H96.6667V6.6668H46.6667V3.3334ZM8.51511 17.8133C9.36745 15.0205 11.3999 12.741 14.0768 11.575C14.3778 11.4254 14.6264 11.1885 14.7901 10.8949C17.7835 6.09473 23.0772 3.21816 28.7335 3.31816C31.679 3.36328 34.5923 3.93906 37.3335 5.01816C36.8106 5.42578 36.3444 5.90098 35.9468 6.43145C35.4614 7.07617 35.3169 7.91543 35.5591 8.68516C35.8012 9.45488 36.3999 10.0605 37.1669 10.3113C39.7919 11.1664 48.3335 14.508 48.3335 21.723C48.3997 24.1738 48.1026 26.6209 47.4518 28.9848C46.7651 27.3859 45.5825 26.0502 44.0786 25.1748C43.7844 25.0277 43.4536 24.9697 43.1268 25.0082C34.2085 26.1248 31.7018 24.9398 27.5485 22.9748C25.2735 21.8584 22.928 20.8918 20.5268 20.0814C18.0747 19.0633 15.2745 19.3488 13.0786 20.8414C11.0803 22.4912 9.69792 24.7676 9.15534 27.3014C8.01843 24.2695 7.79577 20.9707 8.51511 17.8133ZM12.7284 71.2949C13.2577 70.7664 14.0714 70.649 14.7284 71.0066L25.5983 77.05L19.8483 82.8L9.20339 74.8199L12.7284 71.2949ZM28.3335 79.0234L31.8567 82.5467L30.635 85H26.0317L24.81 82.5467L28.3335 79.0234ZM26.2567 88.3334H30.41L32.7901 96.6668H23.8768L26.2567 88.3334ZM3.33347 78.9316C4.58347 78.4482 5.91023 77.9699 7.24187 77.5133L19.0003 86.3332C19.6637 86.8307 20.5923 86.7646 21.1786 86.1781L22.3235 85.0332L23.2202 86.8314L20.4102 96.6664H3.33347V78.9316ZM65.1817 82.5166C67.2028 83.3424 68.6915 85.1057 69.1667 87.2365L71.255 96.6666H53.3333V93.3332C53.3333 92.4127 52.5872 91.6666 51.6667 91.6666C50.7462 91.6666 50.0001 92.4129 50.0001 93.3334V96.6668H36.2567L33.4467 86.8334L34.3434 85.0352L35.4884 86.1801C36.0753 86.766 37.0036 86.8314 37.6667 86.3334L49.4417 77.5C50.7983 77.9334 52.4067 78.4066 54.1083 78.9066C57.8335 80 62.0618 81.235 65.1817 82.5166ZM43.9384 71.2949L47.4634 74.8199L36.8233 82.8L31.0733 77.0482L41.9384 71.0082C42.5954 70.6522 43.4081 70.7686 43.9384 71.2949ZM38.5618 69.0717L28.3335 74.76L18.1051 69.0732C18.5165 67.14 18.7286 65.1697 18.7385 63.1932L20.3518 64.6064C21.8696 65.9336 23.8173 66.6656 25.8335 66.6664H30.8335C32.8518 66.6662 34.8018 65.9344 36.3218 64.6064L37.9335 63.1947C37.9417 65.1703 38.1522 67.1395 38.5618 69.0717ZM46.6667 45C45.7462 45 45.0001 45.7461 45.0001 46.6666V50.3082C44.9995 51.7498 44.3768 53.1209 43.2917 54.0699L34.1251 62.0967C33.2134 62.8932 32.044 63.3324 30.8335 63.3334H25.8335C24.6227 63.3334 23.4532 62.8939 22.5419 62.0967L13.3751 54.0699C12.2899 53.1209 11.6673 51.7498 11.6667 50.3082V46.6666C11.6667 45.7461 10.9204 45 10.0001 45C7.56531 45.0205 5.47429 43.274 5.06062 40.8746C4.64695 38.4752 6.0323 36.1295 8.33327 35.3334V38.3334C8.33327 39.2539 9.07956 40 9.99988 40C10.9202 40 11.6665 39.2537 11.6665 38.3334V33.3334C11.6665 31.2816 12.2831 25.5217 15.0298 23.5467C16.3663 22.7064 18.0352 22.5932 19.4731 23.2449C21.7468 24.0166 23.968 24.9348 26.1231 25.9932C30.4081 28.0182 33.5249 29.4932 42.9298 28.3914C44.3593 29.6209 45.1262 31.4518 44.9997 33.333V38.333C44.9997 39.2535 45.746 39.9996 46.6663 39.9996C47.5868 39.9996 48.3329 39.2533 48.3329 38.333V35.333C50.6339 36.1291 52.0194 38.4748 51.6055 40.8742C51.1925 43.274 49.1014 45.0205 46.6667 45ZM95.0001 38.3334C95.0001 39.2539 94.2538 40 93.3335 40H55.0001C54.988 36.583 52.8911 33.5195 49.71 32.2717C51.2003 28.9639 51.8716 25.3455 51.6667 21.7234C51.6592 18.6094 50.4677 15.6146 48.3333 13.3467V10H95.0001V38.3334Z" fill="#B3D337"/>
<path d="M70.0001 35H90.0001C90.9206 35 91.6667 34.2537 91.6667 33.3334C91.6667 32.4129 90.9206 31.6668 90.0001 31.6668H88.3335V18.3334C88.3335 16.4924 86.8411 15 85.0001 15H81.6667C79.8257 15 78.3333 16.4924 78.3333 18.3334V21.6668H75.0001C73.1591 21.6668 71.6667 23.1592 71.6667 25.0002V31.6668H70.0001C69.0796 31.6668 68.3335 32.4131 68.3335 33.3334C68.3335 34.2539 69.0796 35 70.0001 35ZM81.6667 18.3334H85.0001V31.6668H81.6667V18.3334ZM75.0001 25H78.3335V31.6666H75.0001V25Z" fill="#B3D337"/>
<path d="M58.3336 18.3332H66.667C67.5875 18.3332 68.3336 17.5869 68.3336 16.6666C68.3336 15.7463 67.5875 15 66.667 15H58.3336C57.4131 15 56.667 15.7463 56.667 16.6666C56.667 17.5869 57.4131 18.3332 58.3336 18.3332Z" fill="#B3D337"/>
<path d="M58.3336 25.0002H61.667C62.5875 25.0002 63.3336 24.2539 63.3336 23.3336C63.3336 22.4131 62.5875 21.667 61.667 21.667H58.3336C57.4131 21.667 56.667 22.4133 56.667 23.3336C56.6668 24.2541 57.4131 25.0002 58.3336 25.0002Z" fill="#B3D337"/>
</g>
<defs>
<clipPath id="clip0_2179_153">
<rect width="100" height="100" fill="white"/>
</clipPath>
</defs>
</svg>
