<svg width="100" height="100" viewBox="0 0 100 100" fill="none" xmlns="http://www.w3.org/2000/svg">
<g clip-path="url(#clip0_2161_623)">
<path d="M6.66659 93.3391H60.3682C67.2967 100.12 77.6981 101.907 86.4926 97.8279C95.2873 93.7485 100.641 84.6534 99.9385 74.984C99.2363 65.3147 92.625 57.0884 83.3332 54.3226V28.5859L98.4998 13.4043C99.4543 12.4609 99.9916 11.1746 99.9916 9.8326C99.9916 8.49061 99.4545 7.20428 98.4998 6.26093L93.7447 1.4959C92.7912 0.545507 91.501 0.00996093 90.1547 0.00585938C88.8203 0.00644531 87.5418 0.542577 86.6065 1.49414L82.0215 6.07753C80.7698 4.36972 78.784 3.35429 76.6664 3.33925H6.66659C2.98476 3.33925 0 6.32401 0 10.0058V86.6723C0 90.3543 2.98476 93.3391 6.66659 93.3391ZM96.6664 76.6725C96.6664 87.7182 87.7121 96.6725 76.6664 96.6725C65.6208 96.6725 56.6665 87.7182 56.6665 76.6725C56.6665 65.6268 65.6208 56.6726 76.6664 56.6726C87.7072 56.6845 96.6545 65.6317 96.6664 76.6725ZM58.0282 43.2843C57.6579 43.4066 57.2505 43.3068 56.9782 43.0276C56.6954 42.7591 56.5944 42.3503 56.7198 41.981L58.9448 35.3144L64.6999 41.0677L58.0282 43.2843ZM67.7815 39.4292L60.5764 32.2242L78.2246 14.5842L80.6446 17.0058L66.6012 31.0492C66.168 31.4677 65.9942 32.0872 66.1467 32.6701C66.2993 33.2529 66.7544 33.7077 67.337 33.8603C67.9198 34.0128 68.5393 33.839 68.9579 33.4058L82.9994 19.3609L85.4194 21.7808L67.7815 39.4292ZM82.9998 9.80584L90.1981 17.0058L87.7764 19.4291L80.5815 12.2291L82.9998 9.80584ZM88.9697 3.83925C89.2856 3.51894 89.7166 3.33886 90.1664 3.33925C90.6248 3.34042 91.0637 3.52538 91.3848 3.85253L96.1498 8.61756C96.4795 8.93866 96.6658 9.37908 96.6664 9.83924C96.6664 10.2885 96.4863 10.7189 96.1664 11.0342H96.158L92.5598 14.6342L85.3631 7.45096L88.9697 3.83925ZM3.33339 10.0058C3.33339 8.16483 4.82577 6.67245 6.66678 6.67245H76.6666C77.9088 6.68104 79.0448 7.37479 79.6199 8.47577L57.0366 31.0476C56.8532 31.231 56.7151 31.4548 56.6333 31.7009L53.5565 40.931C53.2995 41.7091 53.2682 42.5443 53.4665 43.3394H36.6665C35.746 43.3394 34.9999 44.0857 34.9999 45.006C34.9999 45.9265 35.7462 46.6726 36.6665 46.6726H57.6999C58.1684 46.6648 58.6333 46.589 59.08 46.4476L68.3049 43.3726C68.5512 43.2907 68.7749 43.1526 68.9583 42.9693L79.9998 31.921V53.6059C68.5348 51.8462 57.5436 58.8645 54.3165 70.0059H36.6665C35.746 70.0059 34.9999 70.752 34.9999 71.6725C34.9999 72.593 35.7462 73.3391 36.6665 73.3391H53.5999C52.6944 79.1963 54.1099 85.1758 57.5448 90.0057H6.66659C4.82558 90.0057 3.3332 88.5133 3.3332 86.6723L3.33339 10.0058Z" fill="#B3D337"/>
<path d="M18.3334 31.6728C23.8562 31.6728 28.3334 27.1957 28.3334 21.6729C28.3334 16.15 23.8562 11.6729 18.3334 11.6729C12.8105 11.6729 8.33337 16.15 8.33337 21.6729C8.33884 27.1934 12.8127 31.6674 18.3334 31.6728ZM18.3334 15.0061C22.0152 15.0061 25 17.9908 25 21.6727C25 25.3545 22.0152 28.3393 18.3334 28.3393C14.6515 28.3393 11.6668 25.3545 11.6668 21.6727C11.6668 17.9908 14.6513 15.0061 18.3334 15.0061Z" fill="#B3D337"/>
<path d="M18.3334 58.3394C23.8562 58.3394 28.3334 53.8622 28.3334 48.3394C28.3334 42.8165 23.8562 38.3394 18.3334 38.3394C12.8105 38.3394 8.33337 42.8165 8.33337 48.3394C8.33884 53.8599 12.8127 58.3339 18.3334 58.3394ZM18.3334 41.6728C22.0152 41.6728 25 44.6575 25 48.3394C25 52.0212 22.0152 55.006 18.3334 55.006C14.6515 55.006 11.6668 52.0212 11.6668 48.3394C11.6668 44.6575 14.6513 41.6728 18.3334 41.6728Z" fill="#B3D337"/>
<path d="M18.3334 85.0059C23.8562 85.0059 28.3334 80.5287 28.3334 75.0059C28.3334 69.483 23.8562 65.0059 18.3334 65.0059C12.8105 65.0059 8.33337 69.483 8.33337 75.0059C8.33884 80.5266 12.8127 85.0004 18.3334 85.0059ZM18.3334 68.3393C22.0152 68.3393 25 71.324 25 75.0059C25 78.6877 22.0152 81.6725 18.3334 81.6725C14.6515 81.6725 11.6668 78.6877 11.6668 75.0059C11.6666 71.324 14.6513 68.3393 18.3334 68.3393Z" fill="#B3D337"/>
<path fill-rule="evenodd" clip-rule="evenodd" d="M67.8448 80.4944C67.1909 79.8628 66.1512 79.8718 65.5085 80.5148C64.8655 81.1577 64.8565 82.1972 65.4881 82.8511L68.8216 86.1845C69.4723 86.8351 70.5274 86.8351 71.1782 86.1845L87.8448 69.5179C88.4764 68.864 88.4674 67.8243 87.8245 67.1816C87.1815 66.5386 86.1421 66.5296 85.4882 67.1612L69.9999 82.6495L67.8448 80.4944Z" fill="#B3D337"/>
<path fill-rule="evenodd" clip-rule="evenodd" d="M36.6665 26.673H49.9999C50.9204 26.673 51.6665 25.9268 51.6665 25.0064C51.6665 24.0859 50.9202 23.3398 49.9999 23.3398H36.6665C35.746 23.3398 34.9999 24.0861 34.9999 25.0064C34.9999 25.9268 35.7462 26.673 36.6665 26.673Z" fill="#B3D337"/>
<path fill-rule="evenodd" clip-rule="evenodd" d="M36.6665 20.0061H58.3331C59.2536 20.0061 59.9997 19.2598 59.9997 18.3395C59.9997 17.4189 59.2536 16.6729 58.3331 16.6729H36.6665C35.746 16.6729 34.9999 17.4191 34.9999 18.3395C34.9999 19.26 35.7462 20.0061 36.6665 20.0061Z" fill="#B3D337"/>
<path fill-rule="evenodd" clip-rule="evenodd" d="M36.6665 80.0061H46.6665C47.587 80.0061 48.3331 79.2598 48.3331 78.3395C48.3331 77.4191 47.5868 76.6729 46.6665 76.6729H36.6665C35.746 76.6729 34.9999 77.4189 34.9999 78.3395C34.9999 79.26 35.7462 80.0061 36.6665 80.0061Z" fill="#B3D337"/>
<path fill-rule="evenodd" clip-rule="evenodd" d="M36.6665 53.3395H49.9999C50.9204 53.3395 51.6665 52.5935 51.6665 51.6729C51.6665 50.7524 50.9202 50.0063 49.9999 50.0063H36.6665C35.746 50.0063 34.9999 50.7524 34.9999 51.6729C34.9999 52.5935 35.7462 53.3395 36.6665 53.3395Z" fill="#B3D337"/>
</g>
<defs>
<clipPath id="clip0_2161_623">
<rect width="100" height="100" fill="white"/>
</clipPath>
</defs>
</svg>
