<svg width="100" height="100" viewBox="0 0 100 100" fill="none" xmlns="http://www.w3.org/2000/svg">
<path d="M74.1926 100C56.7512 100 39.2903 100 21.8489 100C21.7121 99.9414 21.5559 99.8438 21.4192 99.8242C16.7317 98.7891 13.5871 95.1172 13.2746 90.3516C12.884 84.375 12.4739 78.418 12.0442 72.4414C11.4973 64.5898 10.9114 56.7383 10.3645 48.8867C10.3059 48.1641 10.4621 47.4023 10.5207 46.6797C10.5403 46.2695 10.5793 45.8789 10.5793 45.4688C10.6184 43.9844 10.384 42.4609 10.7161 41.0352C11.3411 38.3008 13.4309 36.7773 15.8723 35.7031C16.8098 35.293 17.7668 34.9609 18.802 34.5508C17.6106 33.1836 16.2434 32.3633 14.4856 32.2461C13.3332 32.168 12.6692 31.4648 12.6887 30.4688C12.7082 29.4531 13.4895 28.7305 14.6418 28.7109C16.5364 28.7109 18.177 29.4336 19.6809 30.5273C20.1301 30.8594 20.5793 31.2305 21.1262 31.6602C21.0871 31.3086 21.0676 31.1133 21.0286 30.9375C20.6379 29.082 20.8528 27.3047 21.8879 25.7031C22.22 25.1953 22.259 24.7656 22.1028 24.1797C20.8918 19.7461 23.1379 15.2539 27.3957 13.6328C28.0989 13.3594 28.3723 13.0078 28.47 12.2656C28.9192 9.25781 30.6379 7.22656 33.4114 5.99609C33.8215 5.82031 34.2317 5.39062 34.4075 4.98047C35.7746 1.52344 39.5442 -0.117187 43.0012 1.23047C43.3528 1.36719 43.8801 1.36719 44.2317 1.23047C47.5129 -0.117187 51.1653 1.48437 52.2981 4.84375C52.4934 5.39062 52.7473 5.66406 53.2942 5.83984C56.1067 6.71875 57.9231 8.61328 58.8996 11.3672C59.0559 11.7969 59.427 12.2461 59.8176 12.4805C61.8293 13.7305 63.2746 15.4102 64.1731 17.5977C64.3489 18.0078 64.4856 18.4375 64.6809 18.9844C64.8957 18.5352 65.052 18.2227 65.2278 17.9297C66.9075 14.707 68.47 11.4062 70.3059 8.28125C72.4739 4.53125 75.2082 1.26953 79.6614 0C80.5012 0 81.3606 0 82.2004 0C84.0364 0.546875 85.6575 1.48438 86.8489 3.02734C88.6653 5.37109 89.6028 8.04688 89.5246 10.9961C89.2707 20.0977 87.884 29.043 85.5793 37.832C85.052 39.8633 84.4661 41.8945 83.9192 43.8867C85.6965 44.8438 85.9309 45.3516 85.7551 47.3438C85.5012 50.4297 85.3254 53.5156 85.1106 56.582C84.759 61.6992 84.427 66.8359 84.0559 71.9531C83.6262 78.0859 83.177 84.2188 82.7668 90.3516C82.5715 93.1445 81.4973 95.4883 79.4465 97.4023C77.9622 98.8281 76.1262 99.4922 74.1926 100ZM82.1418 48.3203C80.7942 48.9258 79.5442 49.3945 78.3723 50C74.8567 51.8555 71.4387 51.6797 68.1379 49.5312C65.9114 48.0859 63.7239 48.125 61.4778 49.5508C57.8645 51.8359 54.1926 51.9141 50.5793 49.5703C48.3528 48.125 46.1848 48.1445 43.9192 49.5312C40.2668 51.7969 36.595 51.9336 32.9231 49.5312C30.7746 48.125 28.6457 48.1445 26.4192 49.4531C22.6496 51.6992 18.8411 51.6211 15.0715 49.375C14.759 49.1797 14.427 49.0039 14.0559 48.7891C14.0559 49.4727 14.0168 50.0391 14.0559 50.5859C14.4856 56.5625 14.9348 62.5195 15.345 68.4961C15.7746 74.4922 16.1653 80.5078 16.5754 86.5039C16.6926 88.0859 16.7317 89.6875 17.0051 91.2695C17.5325 94.4141 20.3254 96.4844 23.9192 96.4844C39.8957 96.4844 55.8723 96.4844 71.8684 96.4844C72.22 96.4844 72.5911 96.4844 72.9426 96.4648C76.2043 96.2695 78.7825 94.1211 79.1145 90.8789C79.6418 85.7617 79.8957 80.625 80.2668 75.5078C80.5793 71.2305 80.8723 66.9336 81.1653 62.6562C81.4973 57.9492 81.8098 53.2031 82.1418 48.3203ZM56.4387 47.4219C56.5754 47.5391 56.7121 47.6562 56.8489 47.7734C57.8059 47.3242 58.7825 46.9336 59.6809 46.3867C61.4582 45.3125 63.3528 44.8047 65.4426 44.9023C67.2981 45 68.8996 45.7227 70.4231 46.6797C72.3762 47.9102 74.3684 48.0273 76.4192 46.9141C77.1614 46.5234 77.9426 46.1914 78.7239 45.8789C79.3489 45.6445 79.6809 45.2539 79.8957 44.6094C81.8098 38.8477 83.2551 32.9492 84.3098 26.9727C85.2278 21.7188 85.8332 16.4258 85.9309 11.0938C85.97 8.78906 85.3254 6.71875 83.8215 4.98047C82.5129 3.45703 80.9114 3.10547 79.095 4.00391C78.3528 4.375 77.552 4.80469 77.0246 5.42969C75.5207 7.20703 73.8411 8.94531 72.7864 10.9766C69.0168 18.2617 65.3059 25.5859 61.8879 33.0469C59.7981 37.7148 58.2551 42.6172 56.4387 47.4219ZM26.7707 25.7227C24.3489 28.0469 23.9192 29.0625 24.7395 30.5273C30.0129 27.3047 33.9778 29.4336 37.5129 33.9258C37.6301 30.8203 38.9973 28.4961 40.7551 26.3477C41.5754 25.332 41.8098 25.0586 40.4231 24.3164C38.9778 23.5352 38.1379 21.25 38.47 19.4336C38.7434 17.9102 39.9543 16.8164 41.7707 16.4062C45.1887 15.6641 48.6067 14.9023 52.0442 14.1602C53.9778 13.75 55.8137 14.8047 56.4192 16.6992C56.9465 18.3203 57.0637 19.8828 55.9114 21.3086C55.5989 21.6992 55.5403 22.1289 56.0871 22.4414C57.4543 23.2227 58.841 24.0234 60.2278 24.8438C60.3059 24.7461 60.4036 24.6094 60.4817 24.4727C62.4934 20.918 60.7551 16.4844 56.7512 15.0195C56.0871 14.7852 55.6575 14.5703 55.6184 13.7305C55.5012 10.9375 53.509 9.04297 50.7161 8.98438C50.1106 8.96484 49.5051 8.98438 48.8996 8.98438C48.9582 7.32422 49.5637 5.625 47.8059 4.62891C45.9504 3.57422 44.8762 5.03906 43.7043 6.15234C43.216 5.72266 42.7864 5.3125 42.3371 4.96094C40.8723 3.80859 38.8215 4.16016 38.0012 5.78125C37.7082 6.34766 37.5911 7.08984 37.6106 7.75391C37.6496 8.67188 37.3957 8.96484 36.4387 8.98438C33.1965 9.08203 31.3801 11.543 32.1418 14.707C32.2786 15.2539 32.3762 15.8203 32.4934 16.4844C29.9348 16.4258 27.552 16.6406 26.1262 19.0234C24.7004 21.4062 25.3059 23.5938 26.7707 25.7227ZM37.7668 47.8125C38.7629 41.6992 36.4192 37.1875 32.1614 33.4961C30.7551 32.2656 29.0364 32.1875 27.4348 33.125C26.302 33.7891 25.2278 34.6094 24.2317 35.4883C22.8645 36.6992 21.3606 37.5586 19.6223 38.125C18.3137 38.5547 17.0051 39.1016 15.8137 39.8242C14.1926 40.7812 13.5481 42.4805 13.9582 44.1797C14.0168 44.4336 14.1926 44.7266 14.3879 44.8438C15.3645 45.4297 16.3606 45.9766 17.3371 46.5234C19.6614 47.832 21.9856 47.8906 24.2707 46.5039C27.9231 44.2969 31.4973 44.3164 35.0911 46.6016C35.8723 47.0898 36.7707 47.3828 37.7668 47.8125ZM44.9543 24.4531C45.2278 25.8594 44.7786 26.9727 43.9778 27.9883C43.3528 28.7891 42.7473 29.5898 42.2004 30.4297C41.1262 32.0703 40.8723 33.8477 41.302 35.7422C41.595 37.0312 41.9075 38.3398 42.1223 39.6484C42.2395 40.3516 42.552 40.5859 43.2551 40.6641C45.97 40.918 48.3918 40.2539 50.5989 38.6719C52.4543 37.3438 54.3684 36.1523 56.595 35.5078C56.8684 35.4297 57.1223 35.0586 57.259 34.7461C57.9036 33.3203 58.4504 31.8555 59.1145 30.4688C59.4465 29.7656 59.3879 29.1797 58.841 28.7305C57.591 27.7539 56.3606 26.7578 55.0129 25.9375C53.7434 25.1758 52.6106 24.3945 52.22 22.8516C49.7981 23.3789 47.4153 23.9062 44.9543 24.4531ZM55.2473 40.1367C55.1887 40.0586 55.1496 40 55.091 39.9219C51.5168 42.4609 47.884 44.8438 43.1575 44.1602C43.216 44.5117 43.2551 44.7266 43.2942 44.9414C43.3528 45.1562 43.4309 45.3516 43.509 45.625C46.9075 44.3359 50.052 44.7656 53.0598 46.875C53.8215 44.5508 54.5442 42.3438 55.2473 40.1367ZM52.552 17.6758C49.1145 18.4375 45.8528 19.1602 42.6106 19.9219C42.3957 19.9805 42.2786 20.4492 42.1223 20.7227C42.4348 20.8984 42.7473 21.2305 43.0207 21.1914C43.8215 21.1133 44.6028 20.8789 45.384 20.7031C47.7278 20.1953 50.0715 19.6875 52.3957 19.1211C52.6887 19.043 52.9817 18.6133 53.0793 18.3008C53.1575 18.1445 52.7278 17.8516 52.552 17.6758Z" fill="#B3D337"/>
<path d="M30.5403 89.7849C27.4934 89.7849 24.427 89.8045 21.3801 89.7654C20.8332 89.7654 20.1301 89.6287 19.7786 89.2771C19.4075 88.906 19.1145 88.1638 19.2121 87.656C19.3098 87.1482 19.8762 86.6795 20.3254 86.3474C20.5989 86.1521 21.0676 86.1912 21.4582 86.1912C27.5325 86.1912 33.6067 86.1912 39.6809 86.1912C41.1067 86.1912 41.8684 86.7381 41.9661 87.7927C42.0832 89.0037 41.302 89.7849 39.8957 89.7849C36.7903 89.8045 33.6653 89.7849 30.5403 89.7849Z" fill="#B3D337"/>
<path d="M28.802 79.16C31.302 79.16 33.802 79.1405 36.302 79.16C37.6301 79.16 38.3723 79.746 38.47 80.7811C38.5676 81.9921 37.7864 82.7538 36.3801 82.7538C33.2942 82.7733 30.2082 82.7538 27.1223 82.7538C25.1497 82.7538 23.1575 82.7733 21.1848 82.7538C19.8957 82.7343 19.1145 81.9921 19.1536 80.8983C19.1926 79.8241 19.9934 79.16 21.3215 79.16C23.7825 79.1405 26.302 79.16 28.802 79.16Z" fill="#B3D337"/>
<path d="M27.0246 72.1287C28.9973 72.1287 30.9895 72.1092 32.9621 72.1287C34.3293 72.1482 35.091 73.0076 34.9348 74.2185C34.8176 75.0584 34.1535 75.7029 33.1574 75.7029C29.0949 75.742 25.0324 75.742 20.9895 75.7029C19.8176 75.6834 19.1145 74.9021 19.134 73.867C19.1535 72.8514 19.9153 72.1482 21.0871 72.1287C23.0598 72.0896 25.0324 72.1287 27.0246 72.1287Z" fill="#B3D337"/>
<path d="M49.0559 89.7849C48.47 89.7849 47.884 89.824 47.2981 89.7849C46.2239 89.7068 45.4817 88.9256 45.5012 87.9685C45.5208 87.031 46.2239 86.2888 47.259 86.2302C48.4504 86.1716 49.6614 86.1521 50.8723 86.2302C51.927 86.2888 52.5715 87.0506 52.552 88.0271C52.5325 88.9841 51.8684 89.6873 50.8137 89.7849C50.2278 89.824 49.6419 89.7849 49.0559 89.7849Z" fill="#B3D337"/>
<path d="M75.8723 29.6093C75.4426 29.5312 74.7004 29.3945 73.9778 29.2187C72.3567 28.8085 71.009 29.4335 70.2668 30.9374C70.2278 31.0156 70.1887 31.1132 70.1496 31.2109C69.6418 32.246 68.7824 32.6367 67.8449 32.246C66.8684 31.8359 66.4973 30.9179 66.8879 29.8242C67.9621 26.7773 71.4192 24.9413 74.6028 25.7226C75.0129 25.8203 75.4231 25.957 75.8332 25.996C77.3371 26.1523 78.3918 25.4882 79.0754 24.0624C79.6223 22.9296 80.5207 22.4999 81.4973 22.9101C82.4348 23.3203 82.7863 24.3554 82.3371 25.4687C81.3606 27.9296 78.8215 29.6288 75.8723 29.6093Z" fill="#B3D337"/>
<path d="M72.0442 41.914C71.3996 41.7968 70.7551 41.7382 70.1301 41.5819C68.0988 41.0741 66.8879 41.5819 66.009 43.4569C65.6379 44.2577 65.052 44.7069 64.1731 44.6288C63.3137 44.5507 62.7278 44.0233 62.591 43.1444C62.5324 42.7538 62.6496 42.3046 62.8059 41.9335C63.9778 38.9452 67.2981 37.246 70.4231 37.9686C73.1184 38.5936 73.7238 38.3397 75.0715 35.996C75.5598 35.1366 76.4582 34.8046 77.3176 35.1757C78.1965 35.5468 78.6067 36.4647 78.2942 37.4218C77.5129 39.9804 74.8957 41.8358 72.0442 41.914Z" fill="#B3D337"/>
<path d="M79.0559 17.8518C78.4504 17.7346 77.8449 17.6565 77.2395 17.5198C75.8918 17.1877 75.052 17.6174 74.3488 18.8284C74.0754 19.2971 73.6262 19.8831 73.1574 19.9807C72.6106 20.0979 71.8879 19.8635 71.3996 19.5315C70.7941 19.1213 70.7551 18.3987 71.009 17.676C71.927 14.9612 74.9738 13.301 77.8059 13.9846C79.8762 14.4729 80.2863 14.2971 81.341 12.4807C81.8293 11.6213 82.7277 11.3088 83.5871 11.6604C84.466 12.0315 84.8762 12.9495 84.5637 13.9065C83.8215 16.2112 81.5754 17.7932 79.0559 17.8518Z" fill="#B3D337"/>
</svg>
