<svg width="100" height="100" viewBox="0 0 100 100" fill="none" xmlns="http://www.w3.org/2000/svg">
<g clip-path="url(#clip0_2179_594)">
<path d="M26.6666 24.9999C27.0933 24.9999 27.5199 24.8366 27.8449 24.5116L34.5116 17.8449C35.1633 17.1933 35.1633 16.1399 34.5116 15.4883C33.8599 14.8366 32.8066 14.8366 32.1549 15.4883L25.4883 22.1549C24.8366 22.8066 24.8366 23.8599 25.4883 24.5116C25.8133 24.8366 26.2399 24.9999 26.6666 24.9999Z" fill="#B3D337"/>
<path d="M28.8216 27.1548L25.4883 30.4881C24.8366 31.1398 24.8366 32.1931 25.4883 32.8448C25.8133 33.1698 26.2399 33.3331 26.6666 33.3331C27.0933 33.3331 27.5199 33.1698 27.8449 32.8448L31.1783 29.5114C31.8299 28.8598 31.8299 27.8064 31.1783 27.1548C30.5266 26.5031 29.4733 26.5031 28.8216 27.1548Z" fill="#B3D337"/>
<path d="M32.1501 23.8165C31.8501 24.1315 31.6667 24.5665 31.6667 24.9998C31.6667 25.4332 31.8501 25.8665 32.1501 26.1832C32.4667 26.4832 32.9001 26.6665 33.3334 26.6665C33.7667 26.6665 34.2001 26.4832 34.5167 26.1832C34.8167 25.8665 35.0001 25.4332 35.0001 24.9998C35.0001 24.5665 34.8167 24.1315 34.5167 23.8165C33.9001 23.1998 32.7667 23.1998 32.1501 23.8165Z" fill="#B3D337"/>
<path d="M40.4883 15.4883L35.4883 20.4883C34.8366 21.1399 34.8366 22.1933 35.4883 22.8449C35.8133 23.1699 36.2399 23.3333 36.6666 23.3333C37.0933 23.3333 37.5199 23.1699 37.8449 22.8449L42.8449 17.8449C43.4966 17.1933 43.4966 16.1399 42.8449 15.4883C42.1933 14.8366 41.1399 14.8366 40.4883 15.4883Z" fill="#B3D337"/>
<path d="M72.1549 50.4883L65.4883 57.1549C64.8366 57.8066 64.8366 58.8599 65.4883 59.5116C65.8133 59.8366 66.2399 59.9999 66.6666 59.9999C67.0933 59.9999 67.5199 59.8366 67.8449 59.5116L74.5116 52.8449C75.1633 52.1933 75.1633 51.1399 74.5116 50.4883C73.8599 49.8366 72.8066 49.8366 72.1549 50.4883Z" fill="#B3D337"/>
<path d="M70.0001 48.3331C70.4268 48.3331 70.8534 48.1698 71.1784 47.8448L74.5118 44.5114C75.1634 43.8598 75.1634 42.8064 74.5118 42.1548C73.8601 41.5031 72.8068 41.5031 72.1551 42.1548L68.8218 45.4881C68.1701 46.1398 68.1701 47.1931 68.8218 47.8448C69.1468 48.1698 69.5734 48.3331 70.0001 48.3331Z" fill="#B3D337"/>
<path d="M66.6667 51.6665C67.1 51.6665 67.5333 51.4832 67.85 51.1832C68.15 50.8665 68.3333 50.4332 68.3333 49.9998C68.3333 49.5665 68.15 49.1315 67.85 48.8165C67.2167 48.1998 66.1167 48.1998 65.4833 48.8165C65.1833 49.1315 65 49.5665 65 49.9998C65 50.4332 65.1833 50.8665 65.4833 51.1832C65.8 51.4832 66.2333 51.6665 66.6667 51.6665Z" fill="#B3D337"/>
<path d="M64.5117 52.1548C63.86 51.5031 62.8067 51.5031 62.155 52.1548L57.155 57.1548C56.5033 57.8064 56.5033 58.8598 57.155 59.5114C57.48 59.8364 57.9067 59.9998 58.3333 59.9998C58.76 59.9998 59.1867 59.8364 59.5117 59.5114L64.5117 54.5114C65.1633 53.8598 65.1633 52.8064 64.5117 52.1548Z" fill="#B3D337"/>
<path d="M96.6667 6.66667H98.3333C99.2533 6.66667 100 5.92167 100 5C100 4.07833 99.2533 3.33333 98.3333 3.33333H96.6667V1.66667C96.6667 0.745 95.92 0 95 0C94.08 0 93.3333 0.745 93.3333 1.66667V3.33333H90V1.66667C90 0.745 89.2533 0 88.3333 0C87.4133 0 86.6667 0.745 86.6667 1.66667V3.33333H83.3333V1.66667C83.3333 0.745 82.5867 0 81.6667 0C80.7467 0 80 0.745 80 1.66667V3.33333H20V1.66667C20 0.745 19.2533 0 18.3333 0C17.4133 0 16.6667 0.745 16.6667 1.66667V3.33333H13.3333V1.66667C13.3333 0.745 12.5867 0 11.6667 0C10.7467 0 10 0.745 10 1.66667V3.33333H6.66667V1.66667C6.66667 0.745 5.92 0 5 0C4.08 0 3.33333 0.745 3.33333 1.66667V3.33333H1.66667C0.746667 3.33333 0 4.07833 0 5C0 5.92167 0.746667 6.66667 1.66667 6.66667H3.33333V8.33333H0V100H6.66667H10H13.3333H16.6667H23.3333V76.6667H76.6667V100H83.3333H86.6667H90H93.3333H100V8.33333H96.6667V6.66667ZM80 6.66667V8.33333H76.6667H51.6667V33.3333C50.7467 33.3333 50 34.0783 50 35C50 35.9217 50.7467 36.6667 51.6667 36.6667V65H76.6667V66.6667H23.3333V65H48.3333V8.33333H23.3333H20V6.66667H80ZM55 36.6667H58.3333C59.2533 36.6667 60 35.9217 60 35C60 34.0783 59.2533 33.3333 58.3333 33.3333H55V11.6667H76.6667V61.6667H55V36.6667ZM23.3333 61.6667V11.6667H45V61.6667H23.3333ZM6.66667 96.6667H3.33333V11.6667H6.66667V96.6667ZM6.66667 8.33333V6.66667H10V8.33333H6.66667ZM13.3333 96.6667H10V11.6667H13.3333V96.6667ZM13.3333 8.33333V6.66667H16.6667V8.33333H13.3333ZM20 96.6667H16.6667V11.6667H20V61.6667V66.6667V70V76.6667V96.6667ZM23.3333 73.3333V70H76.6667V73.3333H23.3333ZM83.3333 96.6667H80V76.6667V70V66.6667V61.6667V11.6667H83.3333V96.6667ZM83.3333 8.33333V6.66667H86.6667V8.33333H83.3333ZM90 96.6667H86.6667V11.6667H90V96.6667ZM96.6667 96.6667H93.3333V11.6667H96.6667V96.6667ZM90 8.33333V6.66667H93.3333V8.33333H90Z" fill="#B3D337"/>
</g>
<defs>
<clipPath id="clip0_2179_594">
<rect width="100" height="100" fill="white"/>
</clipPath>
</defs>
</svg>
