<svg width="100" height="100" viewBox="0 0 100 100" fill="none" xmlns="http://www.w3.org/2000/svg">
<g clip-path="url(#clip0_2161_61)">
<path d="M36.9271 0C55.599 0 74.2969 0 92.9688 0C93.1771 0.0780843 93.3854 0.156169 93.5937 0.208225C96.276 0.910984 98.1771 2.4987 99.2969 5.02343C99.5833 5.67413 99.7656 6.35086 99.974 7.02759C99.974 17.9073 99.974 28.7611 99.974 39.6408C99.9219 39.7189 99.8437 39.797 99.8177 39.9011C98.6198 44.3779 95.6771 46.6684 91.0677 46.6684C82.9688 46.6684 74.8698 46.6684 66.7708 46.6684C66.4323 46.6684 66.0938 46.6684 65.651 46.6684C66.0417 47.6835 66.3021 48.5424 66.6927 49.3493C66.8229 49.6356 67.2656 49.9479 67.5781 49.974C68.9323 50.0521 70.3125 50 71.6667 50C73.8021 50.026 75.625 51.3274 76.3542 53.3316C77.0573 55.3097 76.4844 57.392 74.8437 58.7975C74.6094 59.0057 74.375 59.214 74.0885 59.4482C75.026 60.203 75.9115 60.9318 76.7969 61.6346C78.9323 63.3524 79.974 65.6169 80 68.3498C80.026 73.2952 80.0521 78.2405 80 83.1858C79.9479 86.2051 78.4896 88.3915 75.651 89.5107C75.0781 89.7449 74.9479 90.0312 74.9479 90.5778C74.974 92.0354 74.974 93.493 74.9479 94.9766C74.9219 97.8136 72.7865 99.948 69.9479 99.974C67.9427 99.974 65.9115 99.8699 63.9062 100C61.0417 100.208 58.099 98.152 58.2812 94.3779C58.3333 92.9464 58.2812 91.5409 58.2812 90.0573C46.0156 90.0573 33.8802 90.0573 21.6406 90.0573C21.6406 91.7491 21.6667 93.4149 21.6406 95.0547C21.6146 97.7616 19.4271 99.9219 16.7187 99.948C14.4531 99.974 12.1615 99.974 9.89583 99.948C7.39583 99.9219 5.28646 98.1 5.05208 95.6273C4.89583 94.0916 4.92188 92.5039 4.97396 90.9422C5 90.0833 4.76562 89.6668 3.90625 89.3025C2.13542 88.5997 0.963542 87.2202 0.338542 85.3982C0.234375 85.0859 0.104167 84.7996 0 84.5133C0 78.5789 0 72.6705 0 66.7361C0.729167 63.3264 3.25521 61.3222 5.96354 59.4222C5.72917 59.24 5.625 59.1359 5.49479 59.0578C3.59375 57.5742 2.86458 55.4659 3.59375 53.3837C4.29688 51.2754 6.19792 49.974 8.64583 49.974C10.1042 49.974 11.5625 49.974 13.099 49.974C14.2969 46.9027 15.4167 43.8313 16.6667 40.786C17.0573 39.797 17.5781 38.8079 18.2292 38.001C19.8698 35.9709 22.0833 34.9818 24.7135 34.9558C26.4583 34.9297 28.2031 34.9558 30.026 34.9558C30.026 34.4092 30.026 33.9927 30.026 33.5763C30.026 25.3514 30.026 17.1265 30.026 8.87559C30.026 4.32067 32.3438 1.35346 36.7448 0.156169C36.7708 0.130141 36.849 0.0520562 36.9271 0ZM33.3594 34.9558C33.8802 34.9558 34.2708 34.9558 34.6615 34.9558C41.5365 34.9558 48.3854 34.9558 55.2604 34.9558C58.8542 34.9558 61.8229 36.9599 63.1771 40.2655C63.4635 40.9943 63.776 41.697 64.0104 42.4519C64.2188 43.1286 64.5573 43.3368 65.2604 43.3368C73.9062 43.3108 82.5781 43.3368 91.224 43.3108C94.5573 43.3108 96.6406 41.2025 96.6406 37.8709C96.6406 28.1884 96.6406 18.48 96.6406 8.7975C96.6406 5.41385 94.5312 3.3316 91.1458 3.3316C73.6979 3.3316 56.25 3.3316 38.8021 3.3316C35.3646 3.3316 33.3333 5.36179 33.3333 8.7975C33.3333 17.1525 33.3333 25.5075 33.3333 33.8886C33.3594 34.1749 33.3594 34.5133 33.3594 34.9558ZM14.1406 56.5591C31.4583 56.5591 48.5937 56.5591 65.8073 56.5591C65.7552 56.3769 65.7031 56.2467 65.6771 56.1166C63.8281 51.2754 61.9792 46.4081 60.1042 41.5929C59.2708 39.4846 57.6302 38.3394 55.3385 38.3134C45.1302 38.2873 34.9219 38.2873 24.6875 38.3134C22.3438 38.3134 20.7031 39.5107 19.8437 41.7231C18.9844 43.9355 18.151 46.1478 17.2917 48.3602C16.25 51.0672 15.2344 53.7481 14.1406 56.5591ZM3.33333 78.2405C27.7865 78.2405 52.1615 78.2405 76.5625 78.2405C76.5885 78.0323 76.6146 77.8761 76.6146 77.7199C76.6146 74.5445 76.6146 71.3431 76.6146 68.1676C76.6146 66.4758 75.8854 65.1744 74.5833 64.1333C73.125 62.962 71.7188 61.7647 70.2083 60.6976C69.6354 60.3071 68.8542 60.0469 68.1771 60.0208C65.7292 59.9427 63.3073 59.9948 60.8594 59.9948C44.5573 59.9948 28.2552 59.9948 11.9531 59.9948C11.0156 59.9948 10.2604 60.229 9.55729 60.8277C8.17708 61.999 6.74479 63.1182 5.3125 64.2634C4.11458 65.2004 3.41146 66.4498 3.38542 67.9334C3.30729 71.317 3.33333 74.7267 3.33333 78.2405ZM76.5625 81.7022C68.75 81.7022 61.0677 81.7022 53.4115 81.7022C53.4115 83.368 53.4115 84.9558 53.4115 86.5174C53.5677 86.5695 53.6719 86.5955 53.75 86.5955C60.2604 86.5955 66.7708 86.6216 73.2812 86.5955C74.974 86.5955 76.3281 85.5023 76.5625 84.0448C76.6667 83.316 76.5625 82.5091 76.5625 81.7022ZM3.41146 81.6502C2.91667 84.6434 4.24479 86.6996 7.60417 86.6476C13.5156 86.5435 19.4531 86.6216 25.3646 86.6216C25.7552 86.6216 26.1198 86.6216 26.5365 86.6216C26.5365 84.9037 26.5365 83.316 26.5365 81.6762C18.8021 81.6502 11.1458 81.6502 3.41146 81.6502ZM49.9479 86.5695C49.9479 84.9037 49.9479 83.316 49.9479 81.7022C43.3073 81.7022 36.7188 81.7022 30.1042 81.7022C30.1042 83.342 30.1042 84.9297 30.1042 86.5695C36.7188 86.5695 43.3073 86.5695 49.9479 86.5695ZM8.38542 90.0312C8.38542 91.7751 8.35938 93.4409 8.38542 95.0807C8.41146 95.9396 9.0625 96.5903 10 96.5903C12.2135 96.6424 14.4271 96.6424 16.6406 96.5903C17.6042 96.5643 18.2812 95.9656 18.3073 95.0026C18.3854 93.3628 18.3333 91.697 18.3333 90.0052C14.974 90.0312 11.7448 90.0312 8.38542 90.0312ZM61.6927 90.0052C61.6927 91.7491 61.6667 93.4149 61.6927 95.0547C61.7187 95.9657 62.3958 96.5903 63.3854 96.5903C65.5469 96.6163 67.7344 96.6163 69.9219 96.5903C70.8333 96.5643 71.5625 96.0698 71.6146 95.1588C71.7188 93.4669 71.6406 91.7491 71.6406 90.0052C68.3073 90.0052 65.0781 90.0052 61.6927 90.0052ZM68.2552 53.3056C68.4375 53.8522 68.5938 54.3207 68.75 54.7631C69.5052 56.7673 69.5052 56.7673 71.6406 56.6111C72.6042 56.5331 73.2292 55.9344 73.2552 55.0234C73.2812 54.1385 72.6823 53.3837 71.7448 53.3316C70.651 53.2535 69.5312 53.3056 68.2552 53.3056ZM11.7708 53.3056C11.276 53.3056 10.9375 53.3056 10.5729 53.3056C9.81771 53.3056 9.08854 53.2795 8.33333 53.3316C7.60417 53.3837 6.95312 53.696 6.82292 54.4508C6.74479 54.9714 6.875 55.596 7.13542 56.0646C7.42187 56.5851 9.89583 56.9235 10.4167 56.5851C10.4948 56.5331 10.5469 56.455 10.5729 56.3509C10.9896 55.3618 11.3542 54.3727 11.7708 53.3056Z" fill="#B3D337"/>
<path d="M89.7917 15.1745C89.7917 15.2526 89.7917 15.5128 89.7396 15.7211C89.4011 17.0485 89.5834 18.0636 90.6771 19.1828C92.6303 21.213 91.4844 24.6487 88.75 25.5597C88.125 25.7679 87.7084 26.0542 87.3698 26.6268C86.4063 28.2666 85.0521 29.542 83.3594 30.3749C82.5261 30.7913 82.5 31.364 82.6823 32.0667C82.8646 32.7434 83.125 33.3161 84.0625 33.264C85.8594 33.1599 87.6303 33.29 89.2709 34.175C91.4323 35.3463 92.7605 37.1422 93.3073 39.5368C93.5157 40.4998 92.9948 41.3848 92.1355 41.593C91.1719 41.8273 90.3907 41.3587 90.0521 40.3437C89.1928 37.5847 87.7344 36.5435 84.8698 36.6997C84.5573 36.7257 84.1667 36.986 84.0105 37.2463C82.7865 39.5368 80.8855 40.8122 78.2813 40.7861C75.7553 40.7601 73.8803 39.5107 72.7605 37.2723C72.474 36.6997 72.1094 36.6477 71.5886 36.6737C70.7813 36.6997 70.1042 36.4655 69.7136 35.7106C69.2448 34.7736 69.7136 33.6544 70.7553 33.3941C71.3021 33.264 71.9271 33.2119 72.5 33.29C73.4375 33.3941 73.8282 32.8736 73.9844 32.1188C74.1407 31.39 74.1407 30.7913 73.2553 30.3489C71.4844 29.4899 70.1823 28.1104 69.1146 26.4446C68.9063 26.1063 68.4896 25.7939 68.1251 25.6638C66.3803 25.0651 65.3125 23.8939 65.0782 22.0979C64.8698 20.3541 65.6511 19.0266 67.1355 18.0896C67.8125 17.6732 67.9948 16.8663 67.474 16.2156C65.1563 13.3525 64.8438 9.99487 65.0782 6.53313C65.1042 6.0386 65.6511 5.36187 66.1198 5.17967C66.5886 4.99747 67.5521 5.12762 67.7865 5.46598C69.1928 7.54823 71.3542 7.54823 73.4636 7.60029C75.9376 7.65234 78.4115 7.47015 80.8855 7.47015C81.849 7.47015 82.8386 7.54823 83.8021 7.7044C87.6042 8.38113 89.7917 11.0881 89.7917 15.1745ZM71.1198 18.402C71.0157 20.1719 70.7032 20.6404 69.375 20.8226C68.8021 20.9007 68.3334 21.1349 68.5157 21.7075C68.6198 22.0199 69.1928 22.4103 69.5313 22.4103C70.599 22.4103 71.224 22.9048 71.6407 23.8158C72.9428 26.7049 75.2605 28.2666 78.3855 28.2406C81.4844 28.2146 83.75 26.6789 85.0261 23.8158C85.4428 22.8788 86.0157 22.3843 87.1094 22.4103C87.474 22.4103 87.8646 21.9678 88.2553 21.7335C87.9428 21.4472 87.6563 20.9787 87.2917 20.8746C85.8334 20.5102 85.4167 19.7554 85.7553 18.2978C86.0417 17.0485 86.3021 15.7471 86.3282 14.4717C86.3803 12.6497 85.3646 11.4004 83.5678 11.1141C81.9532 10.8538 80.2865 10.8798 78.6198 10.8538C76.0938 10.7757 73.5678 10.8017 71.0417 10.6976C70.2344 10.6716 69.4271 10.4113 68.5938 10.2552C68.9063 12.6758 69.8178 14.2114 71.3803 14.8621C72.2396 15.2265 72.9428 15.669 72.8646 16.7622C72.7605 17.8033 72.0313 18.1937 71.1198 18.402ZM77.3959 31.6503C77.3178 33.1078 76.849 34.3051 75.9636 35.3723C75.8334 35.5284 75.8334 35.997 75.9636 36.2052C76.9532 37.845 79.6615 37.845 80.6511 36.2052C80.7813 35.997 80.8334 35.5805 80.7292 35.4504C79.7657 34.3572 79.323 33.0818 79.1928 31.6763C78.6198 31.6503 78.073 31.6503 77.3959 31.6503Z" fill="#B3D337"/>
<path d="M53.3073 23.2689C55.4427 23.2689 57.6042 23.2429 59.7396 23.2689C61.3021 23.2949 62.2136 24.6744 61.4063 25.7936C61.0938 26.2361 60.4167 26.6265 59.8959 26.6265C55.5469 26.7046 51.198 26.6786 46.849 26.6525C45.7292 26.6525 44.974 25.8717 45 24.9347C45.0261 23.9717 45.7813 23.2689 46.9011 23.2689C49.0365 23.2689 51.1719 23.2689 53.3073 23.2689Z" fill="#B3D337"/>
<path d="M53.4114 16.6322C55.5208 16.6322 57.6302 16.6322 59.7656 16.6322C60.5468 16.6322 61.25 16.8664 61.4843 17.6473C61.6145 18.1418 61.5885 18.8706 61.3281 19.261C61.0416 19.6514 60.3645 19.9898 59.8437 19.9898C55.5208 20.0419 51.1979 20.0419 46.8489 20.0158C45.7031 20.0158 44.9479 19.261 44.9739 18.324C44.9739 17.3349 45.7812 16.6582 46.9791 16.6322C49.1145 16.6061 51.276 16.6322 53.4114 16.6322Z" fill="#B3D337"/>
<path d="M53.3333 13.3264C51.276 13.3264 49.2448 13.3264 47.1875 13.3264C45.8073 13.3264 45 12.7017 45 11.6606C45 10.6195 45.8073 9.96875 47.1615 9.96875C51.3542 9.96875 55.5469 9.96875 59.7656 9.96875C60.5469 9.96875 61.25 10.203 61.4844 10.9578C61.6406 11.4524 61.6406 12.2332 61.3281 12.5716C60.9635 12.988 60.2604 13.2743 59.6615 13.3003C57.5521 13.3784 55.4427 13.3264 53.3333 13.3264Z" fill="#B3D337"/>
<path d="M39.1928 16.632C39.5053 16.632 39.8438 16.5799 40.1563 16.632C41.0417 16.7621 41.6407 17.4389 41.6407 18.2978C41.6407 19.1567 41.0938 19.8334 40.1823 19.9636C39.5834 20.0417 38.9584 20.0417 38.3334 19.9896C37.2396 19.9115 36.6146 19.2088 36.6667 18.2197C36.6928 17.3087 37.3698 16.684 38.4115 16.606C38.6719 16.606 38.9323 16.632 39.1928 16.632Z" fill="#B3D337"/>
<path d="M39.1928 26.7046C37.474 26.7046 36.6667 26.158 36.6927 24.9607C36.7188 23.8155 37.474 23.2949 39.1667 23.2949C40.8855 23.2949 41.6927 23.8675 41.6667 25.0388C41.6407 26.158 40.8334 26.7046 39.1928 26.7046Z" fill="#B3D337"/>
<path d="M39.1407 13.3266C37.448 13.3266 36.6927 12.832 36.6927 11.6868C36.6927 10.5155 37.448 9.99497 39.1146 9.99497C39.4011 9.99497 39.6875 9.96894 40 9.99497C41.0157 10.0731 41.6667 10.7238 41.6667 11.6608C41.6667 12.5978 41.0417 13.2485 40.0261 13.3266C39.7136 13.3266 39.4271 13.3266 39.1407 13.3266Z" fill="#B3D337"/>
<path d="M40.052 74.961C36.2239 74.961 32.3698 74.961 28.5416 74.961C26.3802 74.961 25.026 73.6075 25.026 71.4211C25.026 70.5101 25.026 69.5992 25.026 68.6882C25.026 66.2415 26.302 64.9662 28.75 64.9662C34.3489 64.9662 39.9479 64.9662 45.5468 64.9662C47.526 64.9662 49.5052 64.9401 51.5104 64.9662C53.6718 64.9922 55.026 66.3456 55.0781 68.506C55.1041 69.469 55.1041 70.4581 55.0781 71.4211C55.026 73.5815 53.6458 74.9349 51.5104 74.9349C47.6562 74.9609 43.8541 74.961 40.052 74.961ZM31.6145 68.3758C30.4948 68.3758 29.427 68.3758 28.4114 68.3758C28.4114 69.4951 28.4114 70.5362 28.4114 71.5773C29.5312 71.5773 30.5468 71.5773 31.6145 71.5773C31.6145 70.5101 31.6145 69.469 31.6145 68.3758ZM35.052 68.3758C35.052 69.4951 35.052 70.5101 35.052 71.5773C36.1458 71.5773 37.1875 71.5773 38.2552 71.5773C38.2552 70.4841 38.2552 69.443 38.2552 68.3758C37.1875 68.3758 36.1458 68.3758 35.052 68.3758ZM41.7448 71.5773C42.8385 71.5773 43.8541 71.5773 44.8698 71.5773C44.8698 70.4581 44.8698 69.417 44.8698 68.3758C43.802 68.3758 42.7864 68.3758 41.7448 68.3758C41.7448 69.443 41.7448 70.5101 41.7448 71.5773ZM48.4114 71.5513C49.5312 71.5513 50.5468 71.5513 51.5625 71.5513C51.5625 70.4581 51.5625 69.417 51.5625 68.3758C50.4948 68.3758 49.4791 68.3758 48.4114 68.3758C48.4114 69.443 48.4114 70.4841 48.4114 71.5513Z" fill="#B3D337"/>
<path d="M66.6667 74.9608C65.5729 74.9608 64.4531 74.9608 63.3594 74.9608C61.4583 74.9348 60.0521 73.5553 60 71.6552C59.974 70.51 59.974 69.3908 60 68.2455C60.0521 66.4236 61.4063 65.0441 63.2292 65.018C65.4688 64.966 67.7083 64.966 69.9479 65.018C71.9271 65.0441 73.2292 66.2934 73.3594 68.2716C73.4375 69.3908 73.4375 70.536 73.3594 71.6812C73.2292 73.7375 71.875 74.9868 69.7917 74.9868C68.75 74.9608 67.7083 74.9608 66.6667 74.9608ZM63.3854 71.5771C65.625 71.5771 67.7344 71.5771 69.8698 71.5771C69.8698 70.4579 69.8698 69.4168 69.8698 68.3757C67.6823 68.3757 65.5469 68.3757 63.3854 68.3757C63.3854 69.4428 63.3854 70.4839 63.3854 71.5771Z" fill="#B3D337"/>
<path d="M13.3073 74.9609C12.2135 74.9609 11.0938 74.9609 10 74.9609C8.09896 74.9349 6.69271 73.5294 6.64062 71.6293C6.61458 70.5362 6.61458 69.4169 6.64062 68.3238C6.66667 66.4497 7.99479 65.0442 9.86979 64.9922C12.1875 64.9401 14.4792 64.9401 16.7969 64.9922C18.4896 65.0182 19.7917 66.1895 19.9219 67.8553C20.0521 69.2608 20.0521 70.7184 19.8958 72.1239C19.7396 73.7897 18.3594 74.9089 16.6927 74.9349C15.599 74.9609 14.4531 74.9609 13.3073 74.9609ZM10.0781 68.3498C10.0781 69.443 10.0781 70.5101 10.0781 71.5773C12.2917 71.5773 14.4271 71.5773 16.5365 71.5773C16.5365 70.4581 16.5365 69.4169 16.5365 68.3498C14.375 68.3498 12.2656 68.3498 10.0781 68.3498Z" fill="#B3D337"/>
</g>
<defs>
<clipPath id="clip0_2161_61">
<rect width="100" height="100" fill="white"/>
</clipPath>
</defs>
</svg>
