<svg width="100" height="100" viewBox="0 0 100 100" fill="none" xmlns="http://www.w3.org/2000/svg">
<g clip-path="url(#clip0_2179_900)">
<path d="M85 56.6667C86.3261 56.6667 87.5979 56.1399 88.5355 55.2022C89.4732 54.2645 90 52.9928 90 51.6667V5C90 3.67392 89.4732 2.40215 88.5355 1.46447C87.5979 0.526784 86.3261 0 85 0L15 0C13.6739 0 12.4021 0.526784 11.4645 1.46447C10.5268 2.40215 10 3.67392 10 5V51.6667C10 52.9928 10.5268 54.2645 11.4645 55.2022C12.4021 56.1399 13.6739 56.6667 15 56.6667H85ZM15.69 53.3333L19.0233 50H80.9767L84.31 53.3333H15.69ZM40 31.6667C44.4281 31.6908 48.7249 33.1732 52.226 35.8846C55.727 38.596 58.2372 42.3854 59.3683 46.6667H20.6317C21.7628 42.3854 24.273 38.596 27.774 35.8846C31.2751 33.1732 35.5719 31.6908 40 31.6667ZM26.6667 25C26.6667 22.7899 27.5446 20.6702 29.1074 19.1074C30.6702 17.5446 32.7899 16.6667 35 16.6667C37.2101 16.6667 39.3298 17.5446 40.8926 19.1074C42.4554 20.6702 43.3333 22.7899 43.3333 25C43.3326 26.2067 43.0675 27.3985 42.5567 28.4917C41.7081 28.391 40.8545 28.3381 40 28.3333C36.2514 28.3428 32.5613 29.2643 29.2483 31.0183C28.429 30.2453 27.7771 29.3123 27.333 28.2771C26.8889 27.2418 26.6621 26.1265 26.6667 25ZM51.6883 31.5233C53.6873 29.7961 56.0093 28.4829 58.5197 27.6599C61.0301 26.8369 63.6789 26.5205 66.3125 26.729C68.9461 26.9375 71.5121 27.6668 73.8617 28.8746C76.2113 30.0824 78.2977 31.7447 80 33.765V46.6667H62.7783C62.0741 43.5142 60.7253 40.5415 58.8168 37.9354C56.9082 35.3293 54.4812 33.1462 51.6883 31.5233ZM64.75 23.3333C58.6761 23.3502 52.8476 25.7319 48.5 29.9733C47.6488 29.6356 46.7784 29.3485 45.8933 29.1133C46.6287 27.1764 46.8346 25.0786 46.4899 23.0357C46.1452 20.9928 45.2623 19.0786 43.9321 17.4903C42.6019 15.9019 40.8725 14.6967 38.9218 13.9987C36.9712 13.3007 34.8698 13.1351 32.8339 13.519C30.798 13.9029 28.9011 14.8224 27.3386 16.1828C25.7761 17.5432 24.6043 19.2955 23.9439 21.2592C23.2835 23.2229 23.1583 25.3271 23.5812 27.3552C24.0041 29.3834 24.9598 31.2622 26.35 32.7983C23.7931 34.6565 21.634 37.0077 20 39.7133V10H80V29.0467C75.7756 25.3594 70.3573 23.3295 64.75 23.3333ZM86.6667 5.69V50.9767L83.3333 47.6433V9.02333L86.6667 5.69ZM84.31 3.33333L80.9767 6.66667H19.0233L15.69 3.33333H84.31ZM13.3333 5.69L16.6667 9.02333V47.6433L13.3333 50.9767V5.69Z" fill="#B3D337"/>
<path d="M96.9817 74.57C88.41 73.7033 84.755 71.8583 83.4117 70.9333C84.4308 69.7447 84.9938 68.2323 85 66.6667C85 64.8986 84.2976 63.2029 83.0474 61.9526C81.7971 60.7024 80.1015 60 78.3333 60C76.5652 60 74.8695 60.7024 73.6193 61.9526C72.3691 63.2029 71.6667 64.8986 71.6667 66.6667C71.6732 68.2283 72.2331 69.737 73.2467 70.925C71.5 72.1117 65.65 75 50 75C34.35 75 28.5 72.1117 26.7533 70.925C27.767 69.737 28.3268 68.2283 28.3333 66.6667C28.3333 64.8986 27.631 63.2029 26.3807 61.9526C25.1305 60.7024 23.4348 60 21.6667 60C19.8986 60 18.2029 60.7024 16.9526 61.9526C15.7024 63.2029 15 64.8986 15 66.6667C15.0062 68.2323 15.5692 69.7447 16.5883 70.9333C15.255 71.8583 11.5883 73.7033 3.02 74.57C2.19448 74.6479 1.42764 75.0308 0.86922 75.6437C0.3108 76.2567 0.000889105 77.0558 0 77.885L0 81.355C0 82.2391 0.35119 83.0869 0.976311 83.712C1.60143 84.3371 2.44928 84.6883 3.33333 84.6883C3.41 84.6883 3.48833 84.6883 3.56667 84.6883C8.02423 84.4987 12.4335 83.6876 16.6667 82.2783V90.4633C16.1616 90.7536 15.7417 91.1715 15.4492 91.6753C15.1567 92.179 15.0018 92.7508 15 93.3333V96.6667C15 97.5507 15.3512 98.3986 15.9763 99.0237C16.6014 99.6488 17.4493 100 18.3333 100H25C25.8841 100 26.7319 99.6488 27.357 99.0237C27.9821 98.3986 28.3333 97.5507 28.3333 96.6667V93.3333C28.3316 92.7508 28.1767 92.179 27.8841 91.6753C27.5916 91.1715 27.1717 90.7536 26.6667 90.4633V82.2967C31.6667 84.1517 39.05 85 50 85C60.95 85 68.3333 84.1517 73.3333 82.29V90.4567C72.8273 90.7475 72.4068 91.1665 72.1142 91.6715C71.8216 92.1765 71.6673 92.7497 71.6667 93.3333V96.6667C71.6667 97.5507 72.0179 98.3986 72.643 99.0237C73.2681 99.6488 74.116 100 75 100H81.6667C82.5507 100 83.3986 99.6488 84.0237 99.0237C84.6488 98.3986 85 97.5507 85 96.6667V93.3333C84.9983 92.7508 84.8433 92.179 84.5508 91.6753C84.2583 91.1715 83.8384 90.7536 83.3333 90.4633V82.2783C87.5684 83.6863 91.9793 84.4958 96.4383 84.6833C96.5167 84.6833 96.5933 84.6833 96.67 84.6833C97.5541 84.6833 98.4019 84.3321 99.027 83.707C99.6522 83.0819 100.003 82.2341 100.003 81.35V77.885C100.002 77.0555 99.6923 76.2562 99.1335 75.6432C98.5747 75.0302 97.8075 74.6476 96.9817 74.57ZM16.6667 78.68C12.4033 80.3118 7.89619 81.2161 3.33333 81.355L3.35333 77.8867C7.94045 77.5991 12.4439 76.5245 16.6667 74.71V78.68ZM21.6667 63.3333C22.3259 63.3333 22.9704 63.5288 23.5186 63.8951C24.0667 64.2614 24.494 64.782 24.7463 65.3911C24.9986 66.0001 25.0646 66.6704 24.936 67.317C24.8073 67.9636 24.4899 68.5575 24.0237 69.0237C23.5575 69.4899 22.9636 69.8073 22.317 69.936C21.6704 70.0646 21.0001 69.9986 20.3911 69.7463C19.782 69.494 19.2614 69.0667 18.8951 68.5186C18.5288 67.9704 18.3333 67.3259 18.3333 66.6667C18.3333 65.7826 18.6845 64.9348 19.3096 64.3096C19.9348 63.6845 20.7826 63.3333 21.6667 63.3333ZM23.3333 73.0967V90H20V73.0967C21.0887 73.4122 22.2446 73.4122 23.3333 73.0967ZM18.3333 96.6667V93.3333H25V96.6667H18.3333ZM73.3333 78.6967C68.8333 80.72 61.365 81.6667 50 81.6667C38.635 81.6667 31.1667 80.72 26.6667 78.6967V74.6967C30.095 76.3483 36.9317 78.3333 50 78.3333C63.0683 78.3333 69.905 76.3483 73.3333 74.695V78.6967ZM78.3333 63.3333C78.9926 63.3333 79.6371 63.5288 80.1852 63.8951C80.7334 64.2614 81.1606 64.782 81.4129 65.3911C81.6652 66.0001 81.7312 66.6704 81.6026 67.317C81.474 67.9636 81.1565 68.5575 80.6904 69.0237C80.2242 69.4899 79.6303 69.8073 78.9836 69.936C78.337 70.0646 77.6668 69.9986 77.0577 69.7463C76.4486 69.494 75.928 69.0667 75.5618 68.5186C75.1955 67.9704 75 67.3259 75 66.6667C75 65.7826 75.3512 64.9348 75.9763 64.3096C76.6014 63.6845 77.4493 63.3333 78.3333 63.3333ZM80 73.0967V90H76.6667V73.0967C77.7554 73.4122 78.9113 73.4122 80 73.0967ZM75 96.6667V93.3333H81.6667V96.6667H75ZM83.3333 78.68V74.71C87.5627 76.5254 92.073 77.5994 96.6667 77.885L96.6767 81.3583C92.1104 81.2179 87.6001 80.3125 83.3333 78.68Z" fill="#B3D337"/>
</g>
<defs>
<clipPath id="clip0_2179_900">
<rect width="100" height="100" fill="white"/>
</clipPath>
</defs>
</svg>
