<svg width="100" height="100" viewBox="0 0 100 100" fill="none" xmlns="http://www.w3.org/2000/svg">
<g clip-path="url(#clip0_2161_278)">
<path d="M97.1047 27.2527L53.655 7.44614C51.3333 6.38775 48.6667 6.38775 46.345 7.44614L2.89686 27.2527C1.13886 28.0105 0 29.7415 0 31.656C0 33.5704 1.13886 35.3014 2.89686 36.0593L16.6667 42.336V64.9892C16.6667 68.8225 19.1516 72.2909 23.3333 75.0741V80.2258C20.0827 81.065 17.9634 84.1904 18.3864 87.5207C18.8095 90.8509 21.6428 93.3472 24.9999 93.3472C28.3569 93.3472 31.1902 90.8509 31.6133 87.5207C32.0363 84.1904 29.917 81.065 26.6664 80.2258V76.9891C34.0068 80.24 41.9736 81.8334 49.9997 81.6557C68.6912 81.6557 83.3329 74.334 83.3329 64.9892V42.336L97.1028 36.0593C98.8607 35.3014 99.9996 33.5704 99.9996 31.656C99.9996 29.7415 98.8607 28.0105 97.1028 27.2527H97.1047ZM28.3334 86.6556C28.3334 88.4966 26.8411 89.989 25 89.989C23.159 89.989 21.6667 88.4966 21.6667 86.6556C21.6667 84.8146 23.159 83.3223 25 83.3223C26.8411 83.3223 28.3334 84.8148 28.3334 86.6556ZM20.0001 64.9892V43.8559L23.3335 45.3758V70.9672C21.3973 69.5618 20.178 67.3751 20.0001 64.9892ZM79.9997 64.9892C79.9997 72.2174 66.2615 78.3225 49.9999 78.3225C40.6882 78.3225 32.2184 76.3225 26.6666 73.2475V46.8959L46.3448 55.8658C48.6663 56.9257 51.3335 56.9257 53.6548 55.8658L79.9995 43.8559V64.9892H79.9997ZM95.7213 33.0243L52.2733 52.8326C50.8276 53.481 49.1739 53.481 47.7284 52.8326L28.8485 44.226L43.5466 36.7844C45.5343 37.8311 47.7538 38.3602 49.9999 38.3227C55.6065 38.3227 59.9998 35.3944 59.9998 31.6562C59.9998 27.9179 55.6065 24.9896 49.9999 24.9896C44.3933 24.9896 40 27.9179 40 31.6562C40.0089 32.6382 40.3107 33.595 40.8666 34.4044L24.9649 42.4543L4.27849 33.0243C3.70994 32.8087 3.33377 32.2642 3.33377 31.656C3.33377 31.048 3.70974 30.5032 4.27849 30.2876L47.7267 10.4795C49.1722 9.8305 50.8261 9.8305 52.2716 10.4795L95.7213 30.2878C96.2899 30.5034 96.666 31.048 96.666 31.6562C96.666 32.2642 96.2901 32.8089 95.7213 33.0243ZM43.3333 31.656C43.3333 30.0827 46.1833 28.3226 49.9999 28.3226C53.8165 28.3226 56.6665 30.0825 56.6665 31.656C56.6665 33.2294 53.8165 34.9893 49.9999 34.9893C46.1833 34.9893 43.3333 33.2294 43.3333 31.656Z" fill="#B3D337"/>
</g>
<defs>
<clipPath id="clip0_2161_278">
<rect width="100" height="100" fill="white"/>
</clipPath>
</defs>
</svg>
