<svg width="100" height="100" viewBox="0 0 100 100" fill="none" xmlns="http://www.w3.org/2000/svg">
<g clip-path="url(#clip0_2161_75)">
<path d="M100 18.4207C98.4776 19.9066 96.9752 21.4128 95.4327 22.8579C94.9319 23.3261 94.8518 23.6721 95.1723 24.2827C95.9736 25.7889 96.7348 27.3358 97.476 28.8624C98.077 30.0836 97.9768 30.6332 96.9752 31.5695C95.7132 32.7704 94.4512 33.9713 93.1691 35.1315C92.7485 35.4978 92.6884 35.8032 92.9488 36.312C93.7701 37.8793 94.5513 39.4873 95.3326 41.0749C95.8935 42.2351 95.7933 42.7439 94.8919 43.6192C93.9704 44.5147 93.1291 45.3289 92.7084 46.713C92.1074 48.6466 90.9656 50.3971 90.0241 52.29C91.3462 53.5316 92.6883 54.7936 94.0105 56.0555C95.4528 57.4193 95.5129 57.7246 94.6114 59.5565C93.8101 61.1644 93.0089 62.7928 92.1876 64.4415C93.5898 65.7441 94.9319 67.0264 96.2941 68.3088C97.6162 69.5504 97.6763 69.8964 96.855 71.5654C96.1339 73.0309 95.4127 74.5168 94.6515 75.9823C94.4111 76.4504 94.4512 76.715 94.8518 77.061C96.194 78.2619 97.496 79.5035 98.8182 80.7451C99.3791 81.254 99.7797 81.8443 99.5193 82.6584C99.2789 83.4319 98.718 83.7779 97.9367 83.9204C89.4432 85.4877 80.9496 87.0753 72.456 88.6426C63.702 90.2709 54.948 91.8789 46.214 93.5072C37.46 95.1355 28.706 96.7435 19.972 98.3718C16.9672 98.9214 13.9824 99.5117 10.9576 99.9798C10.3967 100.061 9.51528 99.817 9.19477 99.3896C8.87426 98.9621 8.83419 98.0258 9.07458 97.4966C9.89589 95.6037 10.8775 93.7718 11.7989 91.8789C10.3566 90.5355 8.95438 89.2125 7.53211 87.8895C6.45038 86.8717 6.35022 86.3425 6.99124 85.0195C7.85262 83.2894 8.714 81.539 9.61544 79.7274C8.2132 78.4044 6.79092 77.0814 5.38868 75.7787C4.20679 74.6796 4.12666 74.2522 4.86785 72.7663C5.60903 71.2601 6.33019 69.7539 7.11144 68.268C7.37185 67.7592 7.31176 67.4742 6.89108 67.0875C5.60903 65.9273 4.34701 64.7264 3.08499 63.5255C2.08339 62.5892 1.98323 62.06 2.58419 60.8184C3.32538 59.3122 4.0265 57.7857 4.84782 56.3202C5.22842 55.6281 5.10823 55.2414 4.54733 54.7529C3.28532 53.6538 2.08339 52.4936 0.881469 51.3334C-0.500742 50.0307 -0.160197 48.6873 1.64269 48.1174C1.9031 48.036 2.18355 47.8935 2.4039 47.69C3.32538 46.8555 4.22682 46.0006 5.12826 45.1457C5.28852 44.9829 5.46881 44.8404 5.70919 44.6165C4.88788 42.9678 4.06657 41.3395 3.26528 39.6908C2.36384 37.8793 2.42394 37.574 3.88628 36.1899C5.20839 34.9686 6.51048 33.727 7.87265 32.4651C7.01128 30.735 6.16993 29.0456 5.32858 27.3358C4.5874 25.8296 4.68756 25.3208 5.86945 24.2216C7.23163 22.9597 8.59381 21.6774 10.0561 20.334C9.23483 18.665 8.39349 16.9959 7.57217 15.3269C6.73083 13.6375 6.81096 13.2507 8.17314 11.9888C9.51528 10.7472 10.8574 9.48523 12.2396 8.20291C11.3582 6.4321 10.5169 4.702 9.63548 2.97189C9.25487 2.19844 8.97442 1.42498 9.57538 0.65152C10.1563 -0.121938 10.9376 -0.0405217 11.7989 0.122312C21.6347 1.95419 31.4704 3.74535 41.3061 5.57723C51.843 7.53123 62.3799 9.50558 72.9167 11.4596C81.2901 13.0065 89.6635 14.5331 98.0169 16.1207C98.738 16.2632 99.3791 16.8534 100.04 17.2605C100 17.6269 100 18.034 100 18.4207ZM86.1579 35.9253C84.355 36.2713 82.8326 36.5766 81.2901 36.8209C80.7893 36.9023 80.6491 37.1058 80.4688 37.5536C80.2485 38.0625 79.7677 38.5917 79.2669 38.8156C78.6459 39.1005 77.9448 38.8156 77.5842 38.1846C77.3037 37.6961 76.9832 37.5943 76.4824 37.6961C68.8903 39.1209 61.2781 40.5253 53.686 41.9298C44.5914 43.6192 35.4968 45.3086 26.3823 46.9979C22.3358 47.751 18.2893 48.5042 14.2228 49.2573C14.1227 50.1936 13.8021 50.9467 12.8606 51.1502C12.0393 51.3334 11.4183 50.967 10.9977 50.2139C10.9175 50.0714 10.617 49.9697 10.4368 49.99C8.79413 50.275 7.1515 50.5803 5.28852 50.9059C6.35022 51.9033 7.25166 52.7378 8.13307 53.5927C9.07458 54.5086 9.17474 55.0175 8.59381 56.2184C7.87266 57.7042 7.19156 59.2104 6.37025 60.6352C5.90951 61.4494 6.06977 61.8768 6.73083 62.4264C7.97282 63.4848 9.15471 64.6246 10.3366 65.7645C11.238 66.6194 11.3382 67.1689 10.7773 68.3088C10.0561 69.815 9.35503 71.3415 8.53371 72.807C8.09301 73.5805 8.2733 74.0079 8.87426 74.5371C10.1162 75.6159 11.2981 76.7557 12.48 77.8752C13.4215 78.7708 13.5017 79.3407 12.9408 80.5212C12.1996 82.0682 11.4584 83.6151 10.6571 85.1213C10.3366 85.7116 10.3566 86.0779 10.8975 86.5461C12.0794 87.5638 13.2212 88.6629 14.363 89.7417C15.6852 90.9629 15.7653 91.4107 14.964 92.9984C14.4832 93.9957 13.9824 94.9727 13.4215 96.1329C15.2645 95.8072 16.9271 95.5223 18.5698 95.1966C18.7501 95.1559 18.9303 94.8099 19.0105 94.5656C19.2308 93.8532 19.6315 93.2019 20.3927 93.2426C20.9536 93.2833 21.5145 93.7107 22.0754 93.9753C22.3759 94.1178 22.7164 94.4231 22.9969 94.3824C29.7677 93.1612 36.5385 91.8992 43.3093 90.6373C57.0714 88.0726 70.8334 85.508 84.5954 82.9841C85.1162 82.8823 85.2765 82.6991 85.4968 82.1903C85.7172 81.6611 86.2981 81.0505 86.7989 80.969C87.2997 80.8876 87.9207 81.3965 88.4616 81.6814C88.6619 81.7832 88.8422 82.1496 89.0025 82.1292C90.7052 81.8443 92.4079 81.5186 94.3109 81.1726C93.2492 80.1752 92.3278 79.3407 91.4263 78.4655C90.5249 77.6106 90.4448 77.0407 90.9856 75.9212C91.7068 74.415 92.4279 72.8884 93.2292 71.4229C93.6098 70.7309 93.6098 70.3035 92.9688 69.7742C91.7268 68.7158 90.5449 67.576 89.363 66.4362C88.3414 65.4795 88.2613 64.93 88.9023 63.6273C89.6635 62.06 90.4247 60.4928 91.226 58.9458C91.4664 58.4777 91.4063 58.2131 91.0257 57.8467C89.7637 56.7069 88.5217 55.5467 87.2797 54.3662C86.1579 53.3077 86.0577 52.7989 86.7388 51.4148C87.6002 49.6847 88.4616 47.9546 89.323 46.1838C87.9207 44.8811 86.5585 43.6192 85.1964 42.3368C83.9143 41.1359 83.8542 40.6882 84.6154 39.1412C85.0561 38.1642 85.5369 37.1872 86.1579 35.9253ZM22.7765 5.59758C22.4159 6.47281 21.855 7.02237 20.9135 6.9206C19.7917 6.79848 19.5113 5.90289 19.351 4.9666C17.5281 4.62058 15.7452 4.29491 13.8622 3.94889C14.4231 5.06837 14.9239 6.06573 15.4247 7.08343C16.2461 8.73212 16.1459 9.15956 14.7837 10.4215C13.4215 11.6631 12.0994 12.9047 10.7172 14.187C11.6186 15.9986 12.48 17.7694 13.3614 19.5198C13.9824 20.7818 13.8823 21.3517 12.8406 22.3083C11.5786 23.4889 10.3166 24.6898 9.01448 25.85C8.61384 26.196 8.57378 26.481 8.81416 26.9491C9.57538 28.4146 10.2965 29.8801 11.0177 31.366C11.839 33.035 11.7789 33.4217 10.3967 34.704C9.2148 35.8032 8.05294 36.9023 6.85102 37.9607C6.41032 38.3474 6.39028 38.6527 6.6507 39.1412C7.37185 40.505 8.01288 41.9298 8.73403 43.2731C9.39509 44.4944 9.7757 45.6546 8.39349 46.7537C9.41512 46.6519 10.3166 46.5094 11.218 46.3466C11.6988 46.2652 12.0393 46.1431 12.2196 45.5121C12.5802 44.2501 14.1627 43.8634 14.9039 44.8811C15.3847 45.5528 15.8654 45.4917 16.4664 45.3696C22.496 44.2501 28.5257 43.1307 34.5754 42.0112C36.839 41.5837 36.839 41.6041 37.6603 39.3855C37.8406 38.897 38.0009 38.3881 38.2212 37.8996C38.4816 37.3501 38.3614 36.943 38.0009 36.4748C36.5185 34.5616 35.0561 32.6076 33.6339 30.6332C33.2533 30.0836 32.9127 29.412 32.8326 28.7606C32.5722 26.7252 33.9944 25.1376 36.0377 25.1783C38.702 25.2393 41.3662 25.4022 44.0305 25.5447C44.6515 25.5854 45.0521 25.4022 45.4127 24.873C46.835 22.9393 48.2973 21.0464 49.7196 19.1127C50.581 17.9322 51.6427 17.1995 53.1251 17.4641C54.6275 17.7287 55.4087 18.8074 55.8294 20.2526C56.5105 22.5933 57.2717 24.9137 57.9328 27.2544C58.113 27.8854 58.4335 28.15 59.0145 28.3332C61.3983 29.0863 63.7621 29.9208 66.1459 30.6739C67.5081 31.1013 68.4496 31.9359 68.6499 33.4014C68.73 34.1138 68.5097 34.8669 68.4095 35.7014C73.2372 34.8058 78.105 33.9102 82.9327 33.0146C83.0529 32.6686 83.113 32.3633 83.2332 32.0987C83.7541 31.0199 85.1763 30.735 85.8975 31.6916C86.3783 32.3429 86.839 32.3022 87.48 32.1801C88.6018 31.9359 89.7837 31.4881 90.6852 32.7704C91.867 31.6713 92.9688 30.6332 94.0906 29.5748C93.3494 28.0686 92.6082 26.6031 91.8871 25.1172C90.6651 22.6747 90.6651 22.6747 92.6884 20.7818C93.3093 20.1915 93.9504 19.6012 94.7316 18.8685C92.7284 18.5021 90.9656 18.1765 89.1627 17.8508C88.7621 18.7667 88.1411 19.3163 87.1595 19.1331C86.1579 18.9499 85.8775 18.1357 85.7573 17.1995C64.7637 13.3729 43.7901 9.48523 22.7765 5.59758ZM40.7853 40.7696C40.9656 40.7899 41.0658 40.8306 41.1659 40.8103C46.5345 39.8129 51.8831 38.6731 57.2717 37.8996C60.3767 37.4518 62.5802 35.5386 65.2244 33.9713C64.8638 33.8288 64.7036 33.7474 64.5233 33.6863C62.2396 32.9332 59.956 32.1598 57.6723 31.4474C56.21 30.9996 55.3085 30.0836 54.8879 28.5774C54.3069 26.4199 53.6058 24.2827 52.9648 22.1455C52.8646 21.8198 52.7244 21.5145 52.5642 21.0871C50.9015 23.265 49.339 25.3004 47.8166 27.3562C46.9552 28.496 45.9135 29.0863 44.4712 28.9642C43.2493 28.8624 42.0073 28.8217 40.7653 28.8013C39.363 28.781 37.9608 28.8013 36.4584 28.8013C37.9608 30.8571 39.4231 32.8722 40.9255 34.8465C41.8871 36.1085 42.1275 37.4315 41.4864 38.9173C41.186 39.4873 41.0057 40.1182 40.7853 40.7696ZM87.8206 40.159C88.8422 41.1156 89.7837 41.9908 90.9055 43.0289C91.246 42.3776 91.827 41.7466 91.6868 41.4006C91.0858 39.8943 90.2845 38.4696 89.4632 36.8412C88.8622 38.0421 88.3614 39.0598 87.8206 40.159Z" fill="#B3D337"/>
<path d="M67.3679 60.5946C67.0474 61.2459 66.807 62.0194 66.3663 62.63C64.924 64.6654 63.4416 66.6805 61.9392 68.6752C61.5987 69.123 61.5386 69.4894 61.7389 70.0186C62.6203 72.2575 63.4416 74.5168 64.303 76.7558C64.8238 78.0992 64.8038 79.3611 63.8222 80.4602C62.8206 81.5797 61.5386 81.7426 60.1564 81.3151C57.7926 80.6027 55.4288 79.9107 53.065 79.1779C52.3439 78.954 51.823 79.0151 51.202 79.5036C49.2389 81.0912 47.2357 82.5974 45.2325 84.124C44.0706 85.0196 42.8086 85.2231 41.5065 84.4904C40.2846 83.7983 39.8839 82.6585 39.8839 81.3151C39.8639 78.8726 39.8439 76.4301 39.8839 73.9876C39.8839 73.377 39.7036 73.031 39.1828 72.7257C37.1596 71.4637 35.1564 70.161 33.1531 68.8991C31.9312 68.1256 31.1299 67.0672 31.3102 65.561C31.4905 64.0141 32.4721 63.1389 33.9144 62.6911C36.2982 61.938 38.662 61.0831 41.0458 60.33C41.6668 60.1264 41.9873 59.8008 42.1676 59.1494C42.8086 56.8698 43.5097 54.6105 44.1507 52.3308C44.5714 50.8449 45.3727 49.7662 46.9352 49.5016C48.3775 49.2573 49.4192 49.9901 50.2605 51.1299C51.7028 53.0432 53.1852 54.9361 54.6075 56.8698C54.9881 57.399 55.3887 57.6432 56.0498 57.6025C58.4737 57.4397 60.9176 57.3379 63.3615 57.2158C64.7838 57.1344 66.0458 57.4804 66.787 58.8238C67.0474 59.2716 67.1475 59.8618 67.3679 60.5946ZM61.2581 78.0585C60.3366 75.5752 59.5354 73.2752 58.6339 71.0363C57.9929 69.4283 58.1732 68.0646 59.2349 66.7008C60.6171 64.9504 61.8791 63.0982 63.2012 61.307C63.3414 61.1238 63.4416 60.8999 63.6219 60.5946C60.8174 60.6964 58.1531 60.7778 55.4889 60.8999C54.1668 60.961 53.1652 60.4725 52.3639 59.414C51.3222 58.03 50.2605 56.6459 49.1988 55.2618C48.6379 54.5087 48.057 53.7759 47.3759 52.9211C46.6347 55.4653 45.8935 57.8061 45.2725 60.1875C44.8118 61.9583 43.8302 63.0167 42.0674 63.5256C39.6836 64.2176 37.3599 65.0929 34.8358 65.9477C36.9592 67.3318 38.8823 68.6548 40.8855 69.8557C42.5482 70.8531 43.3294 72.1557 43.2293 74.1505C43.1291 76.2266 43.2293 78.3231 43.2293 80.3992C43.2293 80.6638 43.2693 80.9488 43.3094 81.3558C45.4528 79.7275 47.4761 78.2416 49.4192 76.654C50.7613 75.5549 52.1636 75.331 53.7862 75.8602C56.19 76.593 58.5939 77.2646 61.2581 78.0585Z" fill="#B3D337"/>
<path d="M19.3711 78.099C19.4112 79.483 18.8703 80.1954 17.9488 80.2972C17.1075 80.399 16.3262 79.8494 16.1259 78.8724C15.8855 77.7733 15.6852 76.6742 15.5249 75.575C15.4047 74.6591 16.0057 73.8856 16.8871 73.7025C17.7084 73.5396 18.5297 74.0281 18.7501 74.9033C19.0105 76.0635 19.1908 77.2237 19.3711 78.099Z" fill="#B3D337"/>
<path d="M82.2517 46.3671C82.3118 47.6901 81.811 48.4025 81.0097 48.5653C80.1283 48.7485 79.327 48.3007 79.0866 47.3237C78.7862 46.1432 78.5859 44.9423 78.4256 43.7414C78.3254 42.9069 78.9264 42.1741 79.7277 42.0113C80.5891 41.8281 81.4104 42.2352 81.6307 43.1308C81.9112 44.291 82.0915 45.5122 82.2517 46.3671Z" fill="#B3D337"/>
<path d="M84.0144 56.0962C84.0545 57.4396 83.5337 58.152 82.6723 58.2741C81.8109 58.4166 81.0297 57.9077 80.7893 56.9307C80.5289 55.8113 80.3286 54.6714 80.1683 53.5316C80.0481 52.6564 80.6491 51.8829 81.4503 51.7201C82.3117 51.5369 83.1531 51.9643 83.3734 52.8192C83.6539 54.0201 83.8342 55.221 84.0144 56.0962Z" fill="#B3D337"/>
<path d="M85.7573 65.8052C85.7773 67.1689 85.2365 67.9017 84.335 68.0035C83.4937 68.1052 82.7325 67.5353 82.5121 66.5787C82.2717 65.4795 82.0714 64.3804 81.9111 63.2813C81.7909 62.4061 82.3719 61.653 83.1932 61.4494C84.0746 61.2459 84.916 61.714 85.1363 62.63C85.4168 63.7698 85.597 64.9503 85.7573 65.8052Z" fill="#B3D337"/>
<path d="M17.6282 68.3697C17.6883 69.7131 17.1875 70.4255 16.3262 70.5883C15.4447 70.7512 14.6435 70.222 14.4031 69.2043C14.1627 68.1255 13.9624 67.006 13.8021 65.9069C13.6819 65.0316 14.2428 64.2378 15.0441 64.0547C15.9455 63.8511 16.7669 64.2785 17.0072 65.2148C17.2877 66.3547 17.468 67.5149 17.6282 68.3697Z" fill="#B3D337"/>
<path d="M87.5001 75.5548C87.5401 76.8778 87.0193 77.5902 86.1379 77.7327C85.2565 77.8751 84.4752 77.3459 84.2549 76.3893C84.0145 75.2902 83.8142 74.191 83.6539 73.0919C83.5337 72.2167 84.0946 71.4025 84.8959 71.2193C85.7773 71.0158 86.6387 71.4636 86.8791 72.3795C87.1796 73.5193 87.3398 74.6999 87.5001 75.5548Z" fill="#B3D337"/>
<path d="M15.8855 58.8032C15.8855 60.0652 15.4448 60.6555 14.5834 60.859C13.7621 61.0626 12.9407 60.5944 12.7204 59.6988C12.4199 58.4979 12.1996 57.2563 12.0593 56.0351C11.9592 55.2006 12.5802 54.4678 13.3614 54.3457C14.2629 54.1828 15.004 54.5899 15.2444 55.4855C15.5449 56.6864 15.7252 57.9077 15.8855 58.8032Z" fill="#B3D337"/>
<path d="M21.1138 87.8082C21.1339 89.1312 20.573 89.8436 19.7116 89.9658C18.8903 90.0879 18.0689 89.518 17.8686 88.5817C17.6282 87.5233 17.448 86.4445 17.2877 85.3861C17.1675 84.5109 17.7084 83.6967 18.5097 83.5135C19.3911 83.2896 20.2524 83.7374 20.4928 84.6533C20.7933 85.7932 20.9536 86.9534 21.1138 87.8082Z" fill="#B3D337"/>
<path d="M19.4512 23.9367C19.2309 25.1376 19.0306 26.481 18.7501 27.804C18.5498 28.7606 17.7485 29.2695 16.8671 29.127C16.0258 28.9845 15.3647 28.1907 15.5049 27.2748C15.6852 25.911 15.9456 24.5473 16.2661 23.2039C16.4865 22.288 17.2477 21.8809 18.1291 22.0234C18.9304 22.1455 19.5113 22.9393 19.4512 23.9367Z" fill="#B3D337"/>
<path d="M17.4079 35.3553C17.2276 36.373 17.0272 37.6756 16.7268 38.9579C16.5264 39.8535 15.7252 40.342 14.8838 40.2199C14.0024 40.0978 13.4014 39.3854 13.5216 38.3677C13.6819 37.0243 13.9223 35.7013 14.2228 34.3783C14.4231 33.4827 15.2845 32.9942 16.0857 33.157C16.9471 33.3605 17.4479 34.0526 17.4079 35.3553Z" fill="#B3D337"/>
<path d="M19.2309 18.0342C18.1091 18.0342 17.3278 17.159 17.4681 16.1209C17.6283 14.92 17.8487 13.7191 18.1091 12.5182C18.3294 11.4191 19.1307 10.8085 20.0322 10.9917C21.0538 11.1749 21.5546 12.0094 21.3543 13.2306C21.1539 14.3908 20.9737 15.5713 20.7132 16.7315C20.5129 17.5661 19.952 18.0138 19.2309 18.0342Z" fill="#B3D337"/>
<path d="M86.4384 21.9827C87.3999 22.003 88.1812 22.8172 88.061 23.8145C87.9208 24.934 87.7204 26.0331 87.46 27.1119C87.2397 28.0482 86.4184 28.5367 85.5369 28.3739C84.6956 28.211 84.1147 27.4986 84.2349 26.5623C84.3551 25.4225 84.5754 24.2827 84.8358 23.1632C85.0161 22.3694 85.6171 21.9623 86.4384 21.9827Z" fill="#B3D337"/>
</g>
<defs>
<clipPath id="clip0_2161_75">
<rect width="100" height="100" fill="white"/>
</clipPath>
</defs>
</svg>
