<svg width="100" height="100" viewBox="0 0 100 100" fill="none" xmlns="http://www.w3.org/2000/svg">
<g clip-path="url(#clip0_2179_824)">
<path d="M99.9903 35.2738C99.9903 32.4658 96.726 23.4518 93.9912 16.3854C93.6166 15.4273 92.692 14.7964 91.6629 14.7964C90.6338 14.7964 89.71 15.4273 89.3354 16.3854C86.5907 23.4518 83.3256 32.4658 83.3256 35.2738C83.3798 39.1591 86.1703 42.4661 89.9915 43.1725V48.3485L78.7263 48.3668L76.6598 44.5807V40.0066C76.6598 39.0858 75.9137 38.3398 74.9929 38.3398C74.0729 38.3398 73.3268 39.0858 73.3268 40.0066V43.3396H49.9955V40.0066C49.9955 39.0858 49.2495 38.3398 48.3294 38.3398C47.4087 38.3398 46.6626 39.0858 46.6626 40.0066V44.5807L44.5762 48.4141H38.0636C40.3621 46.2209 41.6628 43.1832 41.6636 40.0066C41.6636 35.4218 35.8193 19.1272 32.3308 9.82103C31.9631 8.84915 31.0324 8.20605 29.9926 8.20605C28.9536 8.20605 28.0229 8.84915 27.6552 9.82103C25.1652 16.509 21.4486 26.7725 19.5521 33.7405C17.7395 28.2822 15.6211 22.47 14.0046 18.1537C13.6369 17.1811 12.7062 16.538 11.6664 16.538C10.6274 16.538 9.69595 17.1811 9.32825 18.1537C5.84579 27.4591 0.000762377 43.7545 0.000762377 48.3386C0.00381381 48.7955 0.0328025 49.2517 0.0877284 49.7056C-0.0915436 50.1839 0.00839098 50.7217 0.346338 51.1055C1.48147 55.7192 5.29882 59.1849 10.0003 59.8707V70.003C10.0003 70.9238 10.7464 71.6699 11.6664 71.6699C12.5872 71.6699 13.3333 70.9238 13.3333 70.003V59.8707C18.6252 59.1033 22.7195 54.8389 23.2718 49.5202C24.7739 50.586 26.5086 51.2779 28.3311 51.5388V61.6711C28.3311 62.5911 29.0779 63.3372 29.9979 63.3372C30.9179 63.3372 31.6648 62.5911 31.6648 61.6711V51.7531L42.7568 51.7417L28.3967 78.0725L26.4979 74.2575C26.2325 73.725 25.7023 73.3749 25.1072 73.3382C24.513 73.3024 23.9446 73.5869 23.6158 74.0836C23.2878 74.5802 23.2489 75.2149 23.5151 75.7473L25.6351 80.0018H21.6652C20.7452 80.0018 19.9991 80.7487 19.9991 81.6687C19.9991 82.5887 20.7452 83.3355 21.6652 83.3355H98.3242C99.2442 83.3355 99.9903 82.5887 99.9903 81.6687C99.9903 80.7487 99.2442 80.0018 98.3242 80.0018H97.6872L99.824 75.7473C100.235 74.9242 99.901 73.9226 99.0772 73.5114C98.2533 73.0995 97.2524 73.4344 96.8412 74.2575L94.9348 78.071L80.5427 51.7005L98.3242 51.6715C99.2442 51.6715 99.9903 50.9254 99.9903 50.0054C99.9903 49.0846 99.2442 48.3386 98.3242 48.3386H93.3244V43.1725C97.1456 42.4661 99.9361 39.1591 99.9903 35.2738ZM13.3333 56.505V53.838L16.3862 49.2586C16.8966 48.4927 16.6898 47.4582 15.9247 46.9471C15.1588 46.4368 14.1236 46.6435 13.6132 47.4086L11.6664 50.3388L9.72036 47.414C9.38928 46.9189 8.82018 46.6374 8.22592 46.6755C7.63165 46.7144 7.10299 47.0669 6.83904 47.6009C6.57585 48.1341 6.61628 48.7681 6.94736 49.2639L10.0003 53.838V56.505C6.12271 55.707 3.33904 52.297 3.3337 48.3386C3.3337 45.5961 6.50033 35.3753 11.6664 21.4249C14.653 29.4921 16.966 36.2999 18.391 41.1479C18.5192 42.4325 18.8609 43.6859 19.4026 44.8576C19.7199 45.9943 19.9198 47.1607 19.9991 48.3386C19.9938 52.297 17.2101 55.707 13.3333 56.505ZM22.512 43.5997C22.29 42.7102 22.0321 41.7543 21.7384 40.7313C21.7171 40.488 21.6652 40.2545 21.6652 40.0066C21.6652 37.2634 24.8318 27.0426 29.9979 13.0922C35.164 27.0426 38.3306 37.2565 38.3306 40.0066C38.3253 43.9643 35.5416 47.3751 31.6648 48.1723V45.5061L34.7177 40.9266C35.2281 40.1607 35.0214 39.1255 34.2554 38.6152C33.4903 38.104 32.4551 38.3108 31.9447 39.0767L29.9979 42.0061L28.0511 39.0866C27.7208 38.5907 27.1517 38.31 26.5574 38.3482C25.9632 38.3863 25.4345 38.7395 25.1706 39.2727C24.9066 39.8067 24.9478 40.4407 25.2781 40.9365L28.3311 45.5061V48.1723C25.7847 47.6383 23.6319 45.947 22.512 43.5974V43.5997ZM50.9171 73.5129C50.5219 73.7105 50.2206 74.0569 50.081 74.4764C49.9406 74.896 49.9734 75.3537 50.171 75.7496L52.2986 80.0018H31.1346L49.3189 46.6725H72.1848L55.0602 78.071L53.1622 74.2575C52.9646 73.86 52.6167 73.5572 52.1956 73.4168C51.7738 73.2772 51.3138 73.3108 50.9171 73.5114V73.5129ZM73.3268 51.5418V80.0018H57.8034L73.3268 51.5418ZM76.6598 80.0018V51.5418L92.1832 80.0018H76.6598ZM86.6586 35.2738C86.6586 33.7168 88.5955 27.6742 91.6583 19.62C94.7212 27.6727 96.6574 33.7168 96.6574 35.2738C96.6177 37.3168 95.2751 39.1064 93.3244 39.7167V36.6737C93.3244 35.7529 92.5784 35.0068 91.6583 35.0068C90.7376 35.0068 89.9915 35.7529 89.9915 36.6737V39.7167C88.0409 39.1064 86.699 37.3168 86.6586 35.2738Z" fill="#B3D337"/>
<path d="M67.3376 16.1407C66.2948 16.1597 65.3733 16.8234 65.0254 17.8067C64.6783 18.7893 64.9773 19.8848 65.776 20.5553C67.8777 22.358 70.5576 23.3466 73.3268 23.3413C74.2766 23.3413 75.2225 23.2292 76.1464 23.0079C80.4893 21.9559 83.836 18.4948 84.7423 14.1191C85.4738 10.674 84.6118 7.08247 82.3965 4.34456C80.1811 1.60666 76.8489 0.0145711 73.3268 0.0107568C70.9292 0.00694252 68.5902 0.748442 66.6327 2.13227C65.7333 2.75705 65.3534 3.89981 65.7005 4.93883C66.0461 5.98166 67.0248 6.68425 68.1241 6.67662H68.1943C68.7207 6.66442 69.2455 6.7285 69.7536 6.86658C71.6287 7.53789 72.9881 9.17804 73.3001 11.1447C73.5313 12.2585 73.2589 13.4173 72.5548 14.3106C71.1031 15.5464 69.2432 16.1986 67.3376 16.1407ZM76.6079 10.7282C76.1425 7.50509 73.9295 4.80686 70.8605 3.71825C71.6585 3.4688 72.49 3.34216 73.3268 3.34369C75.8328 3.3414 78.2068 4.47043 79.786 6.41649C81.5878 8.6242 82.1363 11.5994 81.2407 14.3045C80.3451 17.0096 78.1298 19.0693 75.3667 19.765C73.5061 20.2227 71.5448 20.032 69.807 19.2257C71.8187 18.9281 73.6732 17.9669 75.0768 16.4954C76.4111 14.8919 76.9718 12.7818 76.6079 10.7282Z" fill="#B3D337"/>
<path d="M68.327 33.3407C68.327 34.2607 67.581 35.0068 66.661 35.0068C65.7402 35.0068 64.9941 34.2607 64.9941 33.3407C64.9941 32.4199 65.7402 31.6738 66.661 31.6738C67.581 31.6738 68.327 32.4199 68.327 33.3407Z" fill="#B3D337"/>
<path d="M54.9953 6.67661C54.9953 7.59662 54.2492 8.34346 53.3285 8.34346C52.4085 8.34346 51.6624 7.59662 51.6624 6.67661C51.6624 5.75661 52.4085 5.00977 53.3285 5.00977C54.2492 5.00977 54.9953 5.75661 54.9953 6.67661Z" fill="#B3D337"/>
<path d="M18.3323 6.67661C18.3323 7.59662 17.5862 8.34346 16.6662 8.34346C15.7454 8.34346 14.9993 7.59662 14.9993 6.67661C14.9993 5.75661 15.7454 5.00977 16.6662 5.00977C17.5862 5.00977 18.3323 5.75661 18.3323 6.67661Z" fill="#B3D337"/>
<path d="M6.66739 13.3419C6.66739 14.2626 5.92055 15.0087 5.00054 15.0087C4.08053 15.0087 3.33369 14.2626 3.33369 13.3419C3.33369 12.4219 4.08053 11.6758 5.00054 11.6758C5.92055 11.6758 6.66739 12.4219 6.66739 13.3419Z" fill="#B3D337"/>
<path d="M54.9953 30.0069C54.9953 30.9277 54.2492 31.6738 53.3285 31.6738C52.4085 31.6738 51.6624 30.9277 51.6624 30.0069C51.6624 29.0869 52.4085 28.3408 53.3285 28.3408C54.2492 28.3408 54.9953 29.0869 54.9953 30.0069Z" fill="#B3D337"/>
<path d="M94.9913 5.00984C94.9913 5.93061 94.2452 6.67668 93.3244 6.67668C92.4044 6.67668 91.6583 5.93061 91.6583 5.00984C91.6583 4.08983 92.4044 3.34375 93.3244 3.34375C94.2452 3.34375 94.9913 4.08983 94.9913 5.00984Z" fill="#B3D337"/>
<path d="M48.3295 18.3417C48.3295 19.2617 47.5834 20.0077 46.6626 20.0077C45.7426 20.0077 44.9965 19.2617 44.9965 18.3417C44.9965 17.4209 45.7426 16.6748 46.6626 16.6748C47.5834 16.6748 48.3295 17.4209 48.3295 18.3417Z" fill="#B3D337"/>
<path d="M38.3306 3.34361C38.3306 4.26361 37.5846 5.00969 36.6638 5.00969C35.7438 5.00969 34.9977 4.26361 34.9977 3.34361C34.9977 2.42283 35.7438 1.67676 36.6638 1.67676C37.5846 1.67676 38.3306 2.42283 38.3306 3.34361Z" fill="#B3D337"/>
<path d="M14.9993 83.3356C15.9201 83.3356 16.6662 82.5888 16.6662 81.6688C16.6662 80.7488 15.9201 80.002 14.9993 80.002H11.6664C10.7464 80.002 10.0003 80.7488 10.0003 81.6688C10.0003 82.5888 10.7464 83.3356 11.6664 83.3356H14.9993Z" fill="#B3D337"/>
<path d="M59.9951 96.667H36.6638C35.7438 96.667 34.9977 97.4131 34.9977 98.3331C34.9977 99.2538 35.7438 99.9999 36.6638 99.9999H59.9951C60.9151 99.9999 61.6612 99.2538 61.6612 98.3331C61.6612 97.4131 60.9151 96.667 59.9951 96.667Z" fill="#B3D337"/>
<path d="M88.3254 88.334H69.9939C69.0731 88.334 68.327 89.0801 68.327 90.0008C68.327 90.9208 69.0731 91.6669 69.9939 91.6669H88.3254C89.2454 91.6669 89.9915 90.9208 89.9915 90.0008C89.9915 89.0801 89.2454 88.334 88.3254 88.334Z" fill="#B3D337"/>
<path d="M18.3323 91.667H6.6674C5.74663 91.667 5.00055 92.4131 5.00055 93.3338C5.00055 94.2538 5.74663 94.9999 6.6674 94.9999H18.3323C19.2531 94.9999 19.9991 94.2538 19.9991 93.3338C19.9991 92.4131 19.2531 91.667 18.3323 91.667Z" fill="#B3D337"/>
<path d="M43.3297 91.6669C44.2504 91.6669 44.9965 90.9208 44.9965 90.0008C44.9965 89.0801 44.2504 88.334 43.3297 88.334H38.3306C37.4099 88.334 36.6638 89.0801 36.6638 90.0008C36.6638 90.9208 37.4099 91.6669 38.3306 91.6669H43.3297Z" fill="#B3D337"/>
</g>
<defs>
<clipPath id="clip0_2179_824">
<rect width="100" height="100" fill="white"/>
</clipPath>
</defs>
</svg>
