<svg width="100" height="100" viewBox="0 0 100 100" fill="none" xmlns="http://www.w3.org/2000/svg">
<g clip-path="url(#clip0_2161_544)">
<path fill-rule="evenodd" clip-rule="evenodd" d="M53.3334 51.6665H46.6666C45.7461 51.6665 44.9999 52.4127 44.9999 53.3332C44.9999 54.2538 45.7461 55 46.6666 55H53.3334C54.2539 55 55.0001 54.2538 55.0001 53.3332C55.0001 52.4127 54.2537 51.6665 53.3334 51.6665Z" fill="#B3D337"/>
<path fill-rule="evenodd" clip-rule="evenodd" d="M45.0001 38.3332C45.0001 37.4127 44.2539 36.6665 43.3334 36.6665H40.0001C39.0795 36.6665 38.3333 37.4127 38.3333 38.3332C38.3333 39.2538 39.0795 40 40.0001 40C40.0001 40.9205 40.7462 41.6667 41.6668 41.6667C42.5873 41.6667 43.3335 40.9205 43.3335 40C44.2537 40 45.0001 39.2538 45.0001 38.3332Z" fill="#B3D337"/>
<path fill-rule="evenodd" clip-rule="evenodd" d="M59.9999 36.6665H56.6666C55.7461 36.6665 54.9999 37.4127 54.9999 38.3332C54.9999 39.2538 55.7461 40 56.6666 40C56.6666 40.9205 57.4128 41.6667 58.3334 41.6667C59.2539 41.6667 60.0001 40.9205 60.0001 40C60.9206 40 61.6668 39.2538 61.6668 38.3332C61.6667 37.4127 60.9205 36.6665 59.9999 36.6665Z" fill="#B3D337"/>
<path fill-rule="evenodd" clip-rule="evenodd" d="M48.3334 48.3334H51.6666C52.5872 48.3334 53.3334 47.5873 53.3334 46.6667C53.3334 45.7462 52.5872 45 51.6666 45H48.3334C47.4128 45 46.6666 45.7462 46.6666 46.6667C46.6666 47.5873 47.4128 48.3334 48.3334 48.3334Z" fill="#B3D337"/>
<path fill-rule="evenodd" clip-rule="evenodd" d="M51.6666 56.6665H48.3334C47.4128 56.6665 46.6666 57.4127 46.6666 58.3332C46.6666 59.2538 47.4128 60 48.3334 60H51.6666C52.5872 60 53.3334 59.2538 53.3334 58.3332C53.3334 57.4127 52.5872 56.6665 51.6666 56.6665Z" fill="#B3D337"/>
<path fill-rule="evenodd" clip-rule="evenodd" d="M45.0001 35C45.9206 35 46.6668 34.2538 46.6668 33.3332C46.6668 32.4127 45.9206 31.6665 45.0001 31.6665H38.3333C37.4128 31.6665 36.6666 32.4127 36.6666 33.3332C36.6666 34.2538 37.4128 35 38.3333 35H45.0001Z" fill="#B3D337"/>
<path fill-rule="evenodd" clip-rule="evenodd" d="M54.9999 35H61.6667C62.5872 35 63.3334 34.2538 63.3334 33.3332C63.3334 32.4127 62.5872 31.6665 61.6667 31.6665H54.9999C54.0794 31.6665 53.3332 32.4127 53.3332 33.3332C53.3334 34.2538 54.0795 35 54.9999 35Z" fill="#B3D337"/>
<path d="M35.4133 71.955C34.6449 72.1734 33.3848 72.5434 31.7965 73.0434C31.2496 72.391 30.5427 71.8919 29.7448 71.595C28.4964 71.1346 27.1152 71.1946 25.9116 71.7617L22.8683 73.1649C21.2011 73.9269 20.1024 75.5601 20.025 77.3915C17.1462 78.5163 14.482 80.1269 12.1483 82.1532C7.86006 86.4499 5.00001 90.8449 5.00001 98.3333C5.00001 99.2538 5.74619 100 6.66673 100H93.3334C94.254 100 95.0002 99.2538 95.0002 98.3333C95.0002 90.8449 92.1401 86.45 87.8451 82.155C85.5113 80.1289 82.8471 78.5183 79.9685 77.3933C79.8889 75.5596 78.7861 73.926 77.1151 73.1667L74.0919 71.7735C72.0676 70.805 69.6445 71.3296 68.2018 73.0485C66.6152 72.5485 65.3552 72.1785 64.5869 71.9601C63.1457 68.201 62.6312 64.1501 63.0868 60.1502L67.1602 56.5851C68.9679 55.0004 70.0032 52.7123 70.0003 50.3085V48.1669C73.8747 47.3761 76.6598 43.9711 76.667 40.0168C76.667 39.8401 76.6254 39.6751 76.6153 39.5017C77.1466 39.0721 77.6295 38.5859 78.0554 38.0517C80.457 34.9331 80.7209 30.6675 78.722 27.2766L75.8887 22.5617C75.3067 21.3262 74.9903 19.9822 74.9604 18.6168C74.9255 18.2667 74.8904 17.9218 74.8487 17.5852C73.6277 7.54939 65.1097 0.0026245 54.9999 0H45.0667C34.9638 0.0100059 26.455 7.55299 25.2333 17.5817C25.19 17.9367 25.1532 18.2984 25.1167 18.6601C25.0907 20.0105 24.776 21.3398 24.1933 22.5584C24.1933 22.5584 21.4534 27.1218 21.455 27.1334C21.4217 27.1802 21.3884 27.2268 21.3584 27.2752C19.3879 30.6716 19.6508 34.9194 22.025 38.0468C22.4329 38.5625 22.895 39.0329 23.4034 39.4501C23.3901 39.64 23.3468 39.8218 23.3468 40.015C23.3538 43.9693 26.1391 47.3741 30.0135 48.1651V50.3085C30.0137 52.7117 31.0513 54.9978 32.8601 56.5802L36.9335 60.1453C37.3826 64.1467 36.8613 68.1976 35.4133 71.955ZM63.5799 75.1333C64.2183 75.3149 65.2816 75.6333 66.5799 76.0317L64.0299 81.48C63.7645 82.0635 63.615 82.6929 63.5899 83.3334H36.4083C36.3809 82.6891 36.2287 82.0563 35.96 81.47L33.415 76.0317C34.7184 75.6267 35.7817 75.3151 36.415 75.1333C44.798 80.0692 55.1987 80.0692 63.5817 75.1333H63.5799ZM71.5817 90H71.665V96.6667H28.3333V89.9883H28.415C29.1425 89.9883 29.8616 89.832 30.5233 89.53L33.54 88.1133C34.2437 87.7796 34.8583 87.2838 35.3334 86.6667H64.6666C65.1407 87.2848 65.754 87.7821 66.4567 88.1184L69.49 89.5433C70.1464 89.8437 70.8598 89.9993 71.5817 90ZM23.4334 77.1266C23.5795 76.7136 23.8851 76.3762 24.2817 76.19L27.3268 74.7851C27.7266 74.5943 28.1864 74.5732 28.6018 74.7267C29.0127 74.8758 29.3457 75.1848 29.5252 75.5834L32.9369 82.8735C33.3214 83.7132 32.9597 84.706 32.1252 85.1018L29.1253 86.5086C28.2876 86.9006 27.2904 86.5424 26.8936 85.707L23.5003 78.4003C23.3085 78.0016 23.2846 77.5429 23.4334 77.1266ZM14.5117 84.5117C16.4043 82.8899 18.5538 81.5944 20.8717 80.6782L23.8717 87.1148C24.1646 87.7542 24.5921 88.3226 25.125 88.7816C25.0468 89.1831 25.005 89.5909 25 89.9998V96.6666H8.39169C8.77503 91.3067 11.0433 87.9799 14.5117 84.5117ZM79.1283 80.6666C81.4471 81.5857 83.5964 82.8846 85.4883 84.5099C88.9566 87.9781 91.225 91.3049 91.61 96.6649H75V90C74.9964 89.5871 74.955 89.1754 74.8766 88.7699C75.4069 88.3134 75.8332 87.7485 76.1265 87.1132L79.1283 80.6666ZM70.4801 75.5716C70.6599 75.1773 70.9909 74.872 71.3985 74.7249C71.8186 74.5727 72.2821 74.5955 72.6852 74.7882L75.7068 76.1831C76.1077 76.3713 76.4174 76.7115 76.5671 77.1283C76.7169 77.5451 76.6946 78.0044 76.5051 78.4048L73.1018 85.7114C72.7117 86.5427 71.7228 86.9019 70.8902 86.5146L67.8751 85.0997C67.0433 84.7059 66.6801 83.7186 67.0584 82.8797L70.4801 75.5716ZM69.3133 11.5099C68.9382 11.6051 68.5535 11.6576 68.1666 11.6666H62.9832C61.6324 11.6471 60.3647 11.0109 59.5415 9.93998C58.5345 8.61362 57.1273 7.64649 55.5281 7.18163C53.7 6.64672 52.2932 5.18159 51.8331 3.33328H54.9998C60.8791 3.34198 66.3181 6.45038 69.3097 11.5116L69.3133 11.5099ZM36.725 5.59331L38.2016 7.80839C38.3629 8.05477 38.4073 8.35954 38.3233 8.64167C38.2646 8.85885 38.1099 9.03748 37.9034 9.12671C36.2526 9.85419 34.9025 11.1277 34.08 12.7334C33.5254 13.9656 32.3729 14.823 31.0333 15H29.1817C30.4354 11.0336 33.1257 7.67864 36.725 5.59331ZM24.5183 35.81C23.0955 33.7915 22.9757 31.1299 24.2115 28.9917C24.3882 28.7034 24.9582 27.7551 27.0449 24.2785C27.8996 22.6446 28.3737 20.8382 28.4316 18.9952C28.4532 18.7752 28.4783 18.5552 28.5016 18.3286H31.0349C33.604 18.1755 35.8894 16.6454 37.0099 14.3285C37.471 13.3971 38.2351 12.6501 39.1766 12.2102C40.3084 11.7409 41.169 10.7874 41.52 9.61356C41.8982 8.37725 41.7006 7.03646 40.9816 5.96189L39.815 4.20856C41.5069 3.63494 43.2804 3.33952 45.0667 3.33361H48.4383C48.9482 6.68248 51.3535 9.43181 54.6049 10.3819C55.5191 10.6488 56.3232 11.2027 56.8983 11.9618C58.3475 13.8613 60.5942 14.9831 62.9833 15.0002H68.1667C69.0396 14.9958 69.9065 14.8563 70.7368 14.5868C71.1201 15.6885 71.3855 16.8275 71.5284 17.9852C71.5684 18.302 71.6001 18.6269 71.635 18.9535C71.6952 20.8085 72.1691 22.6267 73.0217 24.2752L75.8551 28.9936C77.096 31.1534 76.9611 33.8389 75.5101 35.8635C74.3261 33.8077 72.322 32.3541 70.0001 31.8669V30.0002C70.0001 27.2387 67.7616 25.0002 65.0001 25.0002H35.0001C32.2386 25.0002 30 27.2387 30 30.0002V31.8669C27.6974 32.3468 25.7057 33.7795 24.5183 35.81ZM33.3333 50.3083V46.6666C33.3333 45.7461 32.5872 44.9999 31.6666 44.9999C29.2319 45.0203 27.1408 43.274 26.7271 40.8745C26.3134 38.4751 27.6989 36.1292 29.9999 35.3332V38.3332C29.9999 39.2537 30.7461 39.9999 31.6666 39.9999C32.5872 39.9999 33.3333 39.2537 33.3333 38.3332V29.9999C33.3333 29.0793 34.0795 28.3332 35.0001 28.3332H65.0001C65.9207 28.3332 66.6668 29.0793 66.6668 29.9999V38.3332C66.6668 39.2537 67.413 39.9999 68.3336 39.9999C69.2541 39.9999 70.0003 39.2537 70.0003 38.3332V35.3332C72.3013 36.1292 73.6867 38.4751 73.273 40.8745C72.8594 43.274 70.7683 45.0203 68.3336 44.9999C67.413 44.9999 66.6668 45.7461 66.6668 46.6666V50.3083C66.6663 51.7498 66.0435 53.1209 64.9584 54.07L55.7917 62.0968C54.88 62.8933 53.7106 63.3326 52.5001 63.3334H47.5001C46.2894 63.3334 45.1197 62.8939 44.2085 62.0968L35.0417 54.07C33.9567 53.1209 33.3338 51.7498 33.3333 50.3083ZM42.0183 64.6066C43.5361 65.9338 45.4836 66.6657 47.4999 66.6667H52.4999C54.5183 66.6665 56.4682 65.9346 57.9883 64.6066L59.5949 63.1999C59.6074 66.4078 60.1758 69.5894 61.275 72.6031C54.258 76.4654 45.7518 76.4654 38.7349 72.6031C39.8337 69.5892 40.4021 66.4077 40.4149 63.1999L42.0183 64.6066Z" fill="#B3D337"/>
<path fill-rule="evenodd" clip-rule="evenodd" d="M36.6666 21.6665H63.3332C64.2538 21.6665 64.9999 20.9203 64.9999 19.9997C64.9999 19.0792 64.2538 18.333 63.3332 18.333H36.6666C35.7461 18.333 34.9999 19.0792 34.9999 19.9997C34.9999 20.9203 35.7462 21.6665 36.6666 21.6665Z" fill="#B3D337"/>
<path fill-rule="evenodd" clip-rule="evenodd" d="M64.9999 90H35.0001C34.0795 90 33.3333 90.7462 33.3333 91.6667C33.3333 92.5873 34.0795 93.3335 35.0001 93.3335H65.0001C65.9206 93.3335 66.6668 92.5873 66.6668 91.6667C66.6668 90.7462 65.9205 90 64.9999 90Z" fill="#B3D337"/>
</g>
<defs>
<clipPath id="clip0_2161_544">
<rect width="100" height="100" fill="white"/>
</clipPath>
</defs>
</svg>
