<svg width="100" height="100" viewBox="0 0 100 100" fill="none" xmlns="http://www.w3.org/2000/svg">
<g clip-path="url(#clip0_2179_383)">
<path d="M78.3333 55H35C32.2433 55 30 57.2433 30 60V86.6667C30 89.4233 32.2433 91.6667 35 91.6667H78.3333C81.09 91.6667 83.3333 89.4233 83.3333 86.6667V60C83.3333 57.2433 81.09 55 78.3333 55ZM80 86.6667C80 87.585 79.2533 88.3333 78.3333 88.3333H35C34.0817 88.3333 33.3333 87.585 33.3333 86.6667V60C33.3333 59.0817 34.0817 58.3333 35 58.3333H78.3333C79.2533 58.3333 80 59.0817 80 60V86.6667Z" fill="#B3D337"/>
<path d="M21.6667 58.333C20.7467 58.333 20 59.0797 20 59.9997V63.333C20 64.253 20.7467 64.9997 21.6667 64.9997C22.5867 64.9997 23.3333 64.253 23.3333 63.333V59.9997C23.3333 59.0797 22.5867 58.333 21.6667 58.333Z" fill="#B3D337"/>
<path d="M21.6667 70C20.7467 70 20 70.7467 20 71.6667V75C20 75.92 20.7467 76.6667 21.6667 76.6667C22.5867 76.6667 23.3333 75.92 23.3333 75V71.6667C23.3333 70.7467 22.5867 70 21.6667 70Z" fill="#B3D337"/>
<path d="M21.6667 81.6665C20.7467 81.6665 20 82.4132 20 83.3332V86.6665C20 87.5865 20.7467 88.3332 21.6667 88.3332C22.5867 88.3332 23.3333 87.5865 23.3333 86.6665V83.3332C23.3333 82.4132 22.5867 81.6665 21.6667 81.6665Z" fill="#B3D337"/>
<path d="M93.3333 46.6664H91.04L98.045 39.6614C100.643 37.0631 100.643 32.8364 98.045 30.2381L92.06 24.2531C90.8817 23.0764 89.0517 22.9448 87.7167 23.9514C84.4367 26.4198 79.7533 26.0831 76.8317 23.1748C73.9167 20.2481 73.5817 15.5664 76.0517 12.2831C77.055 10.9464 76.9267 9.11809 75.7467 7.93976L69.7633 1.95643C67.1667 -0.641908 62.9383 -0.640241 60.34 1.95643L15.61 46.6664H6.66667C2.99 46.6664 0 49.6564 0 53.3331V61.7998C0 63.4398 1.225 64.8514 2.85 65.0831C6.925 65.6581 10 69.2048 10 73.3331C10 77.4614 6.92667 81.0081 2.84833 81.5831C1.225 81.8148 0 83.2264 0 84.8664V93.3331C0 97.0098 2.99 99.9998 6.66667 99.9998H16.6667C17.5867 99.9998 18.3333 99.2531 18.3333 98.3331C18.3333 96.4948 19.8283 94.9998 21.6667 94.9998C23.505 94.9998 25 96.4948 25 98.3331C25 99.2531 25.7467 99.9998 26.6667 99.9998H93.3333C97.01 99.9998 100 97.0098 100 93.3331V84.8664C100 83.2264 98.7767 81.8148 97.15 81.5831C93.075 81.0081 90 77.4614 90 73.3331C90 69.2048 93.075 65.6581 97.1533 65.0831C98.7767 64.8514 100 63.4398 100 61.7998V53.3331C100 49.6564 97.01 46.6664 93.3333 46.6664ZM62.695 4.31143C63.9933 3.01309 66.105 3.01143 67.405 4.31143L73.385 10.2814C69.9267 14.8781 70.3933 21.4314 74.475 25.5298C78.5683 29.6048 85.1217 30.0731 89.7067 26.6098L95.69 32.5931C96.9883 33.8914 96.9883 36.0031 95.69 37.3031L86.3283 46.6648H79.2583L81.5467 44.3764C82.49 43.4331 83.01 42.1764 83.01 40.8381C83.01 39.4998 82.49 38.2448 81.5467 37.3014L62.6967 18.4498C60.745 16.5014 57.5733 16.4998 55.6233 18.4498L27.3933 46.6664H26.6667C25.7467 46.6664 25 47.4131 25 48.3331C25 50.1714 23.505 51.6664 21.6667 51.6664C19.9283 51.6664 18.515 50.3264 18.3633 48.6264L62.695 4.31143ZM74.5433 46.6664H32.11L57.98 20.8114C58.6317 20.1614 59.6883 20.1614 60.34 20.8114L79.19 39.6614C79.5033 39.9748 79.6767 40.3948 79.6767 40.8414C79.6767 41.2881 79.5033 41.7081 79.19 42.0214L74.5433 46.6664ZM86.6667 73.3331C86.6667 79.1131 90.9733 84.0781 96.6667 84.8664V93.3331C96.6667 95.1714 95.1717 96.6664 93.3333 96.6664H28.1233C27.3817 93.7948 24.7683 91.6664 21.6667 91.6664C18.565 91.6664 15.9533 93.7948 15.21 96.6664H6.66667C4.82833 96.6664 3.33333 95.1714 3.33333 93.3331L3.31667 84.8831C9.02667 84.0781 13.3333 79.1131 13.3333 73.3331C13.3333 67.5531 9.02667 62.5881 3.33333 61.7998V53.3331C3.33333 51.4948 4.82833 49.9998 6.66667 49.9998H15.21C15.9517 52.8714 18.565 54.9998 21.6667 54.9998C24.7683 54.9998 27.38 52.8714 28.1233 49.9998H93.3333C95.1717 49.9998 96.6667 51.4948 96.6667 53.3331L96.685 61.7831C90.9733 62.5881 86.6667 67.5531 86.6667 73.3331Z" fill="#B3D337"/>
</g>
<defs>
<clipPath id="clip0_2179_383">
<rect width="100" height="100" fill="white"/>
</clipPath>
</defs>
</svg>
