<svg width="100" height="100" viewBox="0 0 100 100" fill="none" xmlns="http://www.w3.org/2000/svg">
<path d="M99.5121 17.1539C99.1994 16.8412 98.7753 16.6658 98.3333 16.666H94.9999C92.2397 16.6689 90.0027 18.9059 89.9998 21.6661V23.3327H26.6653C25.8248 23.3333 25.1162 23.9589 25.0115 24.7927C24.925 25.492 24.8002 26.1861 24.6373 26.8717C21.5771 25.1898 18.028 24.623 14.5963 25.2681C14.0637 25.4003 13.6303 25.7863 13.4373 26.3002C13.2445 26.814 13.317 27.3898 13.6311 27.8398L14.1242 28.5463C15.658 30.7565 16.5122 33.3671 16.5813 36.0564C15.5321 36.4111 14.4381 36.6164 13.3316 36.6664C13.2408 36.6734 13.1506 36.688 13.0621 36.7103C12.9894 36.7173 12.9176 36.7291 12.8465 36.7457C12.6605 36.8004 12.4855 36.8871 12.3295 37.0023C12.3084 37.0181 12.2945 37.0424 12.2742 37.0591C12.1383 37.172 12.0215 37.3062 11.9281 37.4562C11.916 37.4758 11.8959 37.4863 11.8845 37.5062C11.8609 37.5478 11.8611 37.5941 11.8414 37.6367C11.7996 37.7086 11.7634 37.7836 11.7332 37.8611L0.185308 76.9862C-0.236574 78.4925 0.0708531 80.1095 1.01618 81.3558C1.96151 82.6021 3.43556 83.3342 4.99985 83.334H20.3175C21.8951 83.3258 23.2535 82.2193 23.5808 80.6761L27.0735 63.1454C28.3071 64.3335 29.9524 64.9981 31.6652 65.0005H36.6652C40.3458 64.9967 43.3284 62.0141 43.332 58.3337V56.6671C43.3343 54.827 44.8254 53.3362 46.6654 53.3337H51.6655C53.5056 53.3313 54.9966 51.8403 54.999 50.0002V41.6667H91.3619C93.2811 41.66 95.0292 40.5612 95.8673 38.8346L97.8189 34.7822C99.1257 34.3017 99.9957 33.0589 99.9998 31.6665V18.3328C100 17.8906 99.8246 17.4666 99.5121 17.1539ZM23.4988 30.053C22.6593 31.7948 21.3978 33.2993 19.8288 34.4294C19.5769 32.2977 18.9249 30.2327 17.9069 28.3426C19.8819 28.4506 21.8011 29.0377 23.4988 30.053ZM20.3175 80.0005H4.99985C4.48245 80.0007 3.99436 79.7607 3.67892 79.3507C3.36329 78.9407 3.25607 78.4075 3.38849 77.9073L14.3092 40.91C19.72 44.6263 23.5273 50.249 24.9689 56.6529L20.3175 80.0005ZM39.9987 58.3335C39.9964 60.1736 38.5053 61.6645 36.6652 61.667H31.6652C29.8251 61.6647 28.3342 60.1736 28.3317 58.3335V56.6669C28.3342 56.2632 28.411 55.8634 28.5579 55.4872L32.4074 58.0535C33.1728 58.5531 34.198 58.3429 34.7051 57.5824C35.2121 56.8218 35.0119 55.7946 34.2564 55.2802L31.3796 53.3624C31.4753 53.3542 31.5673 53.3335 31.6652 53.3335H36.6652C38.5053 53.3358 39.9962 54.8268 39.9987 56.6669V58.3335ZM51.6657 50H46.6656C44.7437 50.0061 42.9191 50.8467 41.6655 52.3036C40.412 50.8467 38.5874 50.0061 36.6654 50H31.6654C29.9356 50.0012 28.2749 50.6777 27.0368 51.8856C25.1127 46.866 21.8419 42.4739 17.5842 39.192C23.2152 37.4015 27.3077 32.5227 28.0913 26.6662H51.6659V50H51.6657ZM93.333 21.6663C93.3336 20.746 94.0795 20.0003 94.9997 19.9997H96.6663V23.3331H93.3328V21.6663H93.333ZM92.8627 37.3892C92.584 37.9648 92.0016 38.331 91.3621 38.3332H54.9992V34.9997H94.0135L92.8627 37.3892ZM54.9992 31.6665V26.6664H96.6665L96.6698 31.6665H54.9992Z" fill="#B3D337"/>
<path d="M33.332 46.6666H44.9988C46.8389 46.6643 48.3297 45.1732 48.3323 43.3331V33.333C48.3299 31.4929 46.8389 30.0021 44.9988 29.9995H33.332C31.4919 30.0019 30.0011 31.4929 29.9985 33.333V43.3331C30.0011 45.1732 31.4921 46.6641 33.332 46.6666ZM33.332 33.333H44.9988L45 36.6664H38.3321C37.4116 36.6664 36.6654 37.4125 36.6654 38.3331C36.6654 39.2536 37.4116 39.9997 38.3321 39.9997H45.0009L45.0021 43.3331H33.332V33.333Z" fill="#B3D337"/>
</svg>
