<svg width="100" height="100" viewBox="0 0 100 100" fill="none" xmlns="http://www.w3.org/2000/svg">
<path d="M100 86.0718C99.5605 87.9028 98.8525 89.5874 97.4609 90.9058C95.7031 92.5903 93.5791 93.2983 91.1621 93.2983C76.4893 93.2983 61.792 93.2983 47.1191 93.2983C34.4238 93.2983 21.7285 93.2983 9.0332 93.2983C3.49121 93.2983 0 89.8071 0 84.2896C0 66.8579 0 49.4019 0 31.9702C0 27.7466 2.31934 24.646 6.34766 23.5718C7.4707 23.2788 8.66699 23.2788 9.96094 23.1079C9.96094 22.7417 9.96094 22.3022 9.96094 21.8628C10.0098 18.7866 12.085 16.6626 15.1855 16.5894C17.2363 16.5405 19.2871 16.5649 21.3379 16.5894C24.5117 16.6138 26.5625 18.6401 26.709 21.814C26.7334 22.229 26.709 22.6685 26.709 23.1567C27.7832 23.1567 28.7842 23.1567 29.9561 23.1567C29.9561 22.6929 29.9316 22.229 29.9561 21.7407C30.0537 19.2505 29.8828 16.687 30.3223 14.27C31.1279 9.92432 35.3027 6.65283 39.7217 6.62842C45.9961 6.57959 52.2949 6.57959 58.5693 6.62842C63.7939 6.67725 68.2373 11.145 68.3105 16.3696C68.3594 18.6157 68.3105 20.8618 68.3105 23.1567C69.9463 23.1567 71.5332 23.1567 73.1934 23.1567C73.2422 22.4731 73.2666 21.7651 73.3643 21.0815C73.7305 18.4204 75.6104 16.687 78.2959 16.5894C80.5176 16.5161 82.7148 16.5161 84.9365 16.5894C87.915 16.687 89.9414 18.8355 89.9902 21.814C89.9902 22.229 89.9902 22.644 89.9902 23.1567C90.7959 23.23 91.5527 23.3032 92.334 23.352C95.9961 23.5718 99.0967 26.4038 99.8047 29.9683C99.8291 30.1147 99.9268 30.2612 99.9756 30.4077C100 48.9624 100 67.5171 100 86.0718ZM50.0488 26.6479C36.3037 26.6479 22.583 26.6968 8.83789 26.6235C5.7373 26.5991 3.32031 28.6743 3.32031 32.1655C3.34473 49.5483 3.32031 66.9312 3.34473 84.314C3.34473 87.8296 5.39551 89.9292 8.91113 89.9292C36.3281 89.9292 63.7207 89.9292 91.1377 89.9292C94.6533 89.9292 96.7041 87.8296 96.7041 84.314C96.7041 66.9312 96.7041 49.5483 96.7041 32.1655C96.7041 31.4819 96.6309 30.7983 96.4355 30.1392C95.7764 27.8687 93.8965 26.6479 91.2109 26.6235C77.4658 26.6479 63.7451 26.6479 50.0488 26.6479ZM36.6455 23.2056C36.6455 21.1548 36.6455 19.2017 36.6455 17.2485C36.6455 14.5142 37.915 13.2446 40.6494 13.2446C46.2402 13.2446 51.8555 13.2446 57.4463 13.2446C60.4736 13.2446 61.6943 14.4653 61.6943 17.5171C61.6943 19.397 61.6943 21.2769 61.6943 23.1812C62.8418 23.1812 63.8672 23.1812 64.9414 23.1812C64.9414 20.8374 64.9902 18.5181 64.917 16.2231C64.8193 12.9272 62.1582 9.92432 57.8369 9.92432C52.0508 9.92432 46.2402 9.8999 40.4541 9.92432C37.5488 9.94873 35.1807 11.0718 34.0332 13.8306C33.4961 15.1001 33.4717 16.6138 33.3984 18.0054C33.3008 19.7144 33.374 21.4233 33.374 23.1812C34.4971 23.2056 35.498 23.2056 36.6455 23.2056ZM58.252 16.7114C52.1484 16.7114 46.1182 16.7114 40.0879 16.7114C40.0879 18.9087 40.0879 21.0571 40.0879 23.1812C46.167 23.1812 52.1729 23.1812 58.252 23.1812C58.252 21.0327 58.252 18.9331 58.252 16.7114ZM13.3301 23.1812C16.7236 23.1812 19.9707 23.1812 23.2666 23.1812C23.2666 22.5708 23.3154 22.0337 23.2666 21.4966C23.1934 20.6421 22.7051 20.0562 21.8506 20.0562C19.5068 20.0073 17.1875 20.0073 14.8438 20.0562C14.0381 20.0806 13.5498 20.5933 13.4277 21.3989C13.3545 21.936 13.3545 22.522 13.3301 23.1812ZM86.6699 23.1567C86.6455 22.522 86.6455 21.9116 86.5479 21.3257C86.4258 20.5688 85.9619 20.0806 85.1807 20.0562C82.8369 20.0317 80.5176 20.0317 78.1738 20.0562C77.3926 20.0562 76.8799 20.5688 76.7578 21.3013C76.6602 21.9116 76.7334 22.5708 76.7334 23.2544C79.9072 23.2544 82.9834 23.2544 86.0596 23.2544C86.2549 23.23 86.4014 23.1812 86.6699 23.1567Z" fill="#B3D337"/>
<path d="M56.665 66.6382C56.665 70.3979 56.5674 73.9868 56.6895 77.5513C56.7871 80.188 55.1514 81.7261 52.6611 81.6284C49.707 81.5063 46.7285 81.604 43.7744 81.604C41.2598 81.604 40.0146 80.3589 40.0146 77.8198C39.9902 74.4995 40.0146 71.1792 40.0146 67.8589C40.0146 67.4927 40.0146 67.1509 40.0146 66.6382C39.5752 66.6382 39.1846 66.6382 38.8184 66.6382C35.5713 66.6382 32.2998 66.5649 29.0527 66.6626C26.2451 66.7358 24.8779 64.978 24.9756 62.6099C25.0977 59.5825 25 56.5552 25 53.5278C25 51.3062 26.3672 49.9634 28.5889 49.9634C32.0068 49.9634 35.4248 49.9634 38.8428 49.9634C39.1846 49.9634 39.5508 49.9634 39.9902 49.9634C39.9902 49.5239 39.9902 49.1577 39.9902 48.8159C39.9902 45.4712 39.9902 42.1021 39.9902 38.7573C39.9902 36.2183 41.3086 34.9487 43.8477 34.9243C46.875 34.9243 49.9023 34.9243 52.9297 34.9243C55.2734 34.9243 56.6162 36.2671 56.6406 38.6108C56.665 42.0044 56.6406 45.3735 56.6406 48.7671C56.6406 49.1089 56.6406 49.4751 56.6406 49.9634C57.0557 49.9634 57.3975 49.9634 57.7393 49.9634C61.1816 49.9634 64.6484 49.9634 68.0908 49.9634C70.2881 49.9634 71.6553 51.3306 71.6553 53.5767C71.6553 56.7017 71.6553 59.8267 71.6553 62.9517C71.6553 65.2954 70.3613 66.6138 67.9443 66.6382C64.5996 66.6626 61.2305 66.6382 57.8857 66.6382C57.5195 66.6382 57.1533 66.6382 56.665 66.6382ZM28.3936 53.2837C28.3936 56.6528 28.3936 59.9243 28.3936 63.269C28.8086 63.269 29.1748 63.269 29.5166 63.269C32.8369 63.269 36.1572 63.269 39.4775 63.269C42.0166 63.269 43.335 64.6118 43.3594 67.102C43.3594 70.0561 43.3594 73.0347 43.3594 75.9888C43.3594 76.7212 43.3594 77.478 43.3594 78.2349C46.7285 78.2349 50 78.2349 53.3447 78.2349C53.3447 77.8198 53.3447 77.478 53.3447 77.1362C53.3447 73.7915 53.3447 70.4224 53.3447 67.0776C53.3447 64.6118 54.6875 63.2935 57.1533 63.269C60.5469 63.269 63.916 63.269 67.3096 63.269C67.6514 63.269 67.9932 63.2446 68.3838 63.2202C68.3838 61.4868 68.3838 59.8511 68.3838 58.2397C68.3838 56.6284 68.3838 55.0171 68.3838 53.3081C67.9199 53.3081 67.5537 53.3081 67.2119 53.3081C63.7939 53.3081 60.376 53.3081 56.958 53.3081C54.7363 53.3081 53.3691 51.9409 53.3691 49.7192C53.3691 46.3013 53.3691 42.8833 53.3691 39.4653C53.3691 39.1235 53.3691 38.7573 53.3691 38.3911C50 38.3911 46.7285 38.3911 43.3838 38.3911C43.3838 38.8062 43.3838 39.1724 43.3838 39.5142C43.3838 42.8101 43.3105 46.0815 43.4082 49.3774C43.4814 51.4771 42.1387 53.4302 39.4287 53.3325C35.7666 53.186 32.1289 53.2837 28.3936 53.2837Z" fill="#B3D337"/>
</svg>
