<svg width="100" height="100" viewBox="0 0 100 100" fill="none" xmlns="http://www.w3.org/2000/svg">
<path d="M52.526 0C54.2187 0.130208 55.8854 0.260417 57.5781 0.390625C62.3437 0.755208 67.0833 1.27604 71.7448 2.39583C81.9791 4.84375 88.6979 11.224 92.2135 21.0156C95.026 28.8281 95.677 36.875 93.9062 45C92.7604 50.2344 90.026 54.7656 86.7968 58.9583C79.8437 67.9427 71.9531 76.0677 63.5677 83.6979C57.6562 89.0885 51.4322 94.1406 44.9739 98.8802C44.401 99.2969 43.776 99.6354 43.151 100C42.552 100 41.9791 100 41.3802 100C40.9375 99.7135 40.4427 99.4531 40.026 99.1146C32.8385 93.3594 25.651 87.6302 18.4635 81.849C15.9895 79.8698 16.1198 77.5521 18.7239 75.7292C23.0208 72.7344 27.2916 69.7135 31.5625 66.6927C31.927 66.4323 32.2656 66.1719 32.7604 65.8073C32.4479 65.7031 32.3177 65.651 32.1614 65.599C28.6979 64.7396 25.1822 64.0625 21.7968 62.9948C17.0312 61.4583 12.6041 59.1927 9.01038 55.5729C6.48433 52.9948 4.94788 49.9479 4.94788 46.1979C4.97392 37.6302 4.97392 29.0885 4.94788 20.5208C4.94788 17.6042 5.83329 15.026 7.60413 12.7344C9.16663 10.7031 11.0937 9.03646 13.2552 7.68229C19.8698 3.48958 27.2395 1.61458 34.9218 0.598958C36.7447 0.364583 38.5937 0.182292 40.4166 0C44.4531 0 48.4895 0 52.526 0ZM81.7447 60.1562C83.4635 57.7344 85.0781 55.4688 86.6666 53.151C86.8229 52.9427 86.7447 52.3958 86.5625 52.1615C85.7031 50.8594 84.7656 49.6094 83.8802 48.3333C83.151 47.2917 83.2291 46.3542 84.0364 45.7552C84.8698 45.1302 85.8593 45.3646 86.6145 46.4062C87.3177 47.3698 87.9947 48.3594 88.75 49.401C89.8958 47.1354 90.625 44.8438 90.9895 42.474C91.7447 37.526 91.5625 32.6042 90.5729 27.7344C89.4791 22.3177 87.4218 17.2917 83.75 13.0469C82.2656 11.3542 80.5989 9.92188 78.75 8.72396C79.8437 9.76562 80.8333 10.9115 81.8229 12.0573C85.8593 16.7708 85.9375 22.6823 82.2135 27.5C77.6302 33.4375 72.3177 38.6458 66.7187 43.5677C56.0677 52.9167 44.7395 61.3802 33.2552 69.6615C32.7343 70.026 32.2395 70.4167 31.5104 70.9115C32.5 70.9115 33.2291 70.9115 33.9583 70.9115C37.3437 70.9115 40.2604 73.2812 40.9635 76.5625C41.5885 79.4792 42.9947 80.5208 46.0156 80.2604C49.8177 79.9219 52.9948 82.2135 53.8541 85.9375C53.9583 86.3542 54.1145 86.7708 54.2708 87.3177C56.7187 85.1823 59.0625 83.1771 61.4322 81.1198C61.1197 80.8333 60.9114 80.625 60.677 80.4427C58.4895 78.5677 56.276 76.6667 54.0885 74.7917C53.151 73.9844 53.0208 73.0208 53.6979 72.2396C54.3489 71.4844 55.3645 71.4844 56.276 72.2656C57.2135 73.0729 58.151 73.8802 59.0885 74.6875C60.677 76.0417 62.2916 77.4219 64.0364 78.9323C66.2239 76.5885 68.3333 74.2969 70.4687 72.0052C68.4114 70.2344 66.1979 68.3594 64.0104 66.4583C63.0729 65.651 62.9427 64.6875 63.6198 63.9062C64.2968 63.125 65.2604 63.099 66.1979 63.9062C66.7968 64.401 67.3697 64.9219 67.9687 65.4427C69.6354 66.875 71.3281 68.3073 73.0468 69.7656C75.2083 67.3698 77.2916 65.0521 79.401 62.7344C79.0885 62.3698 78.8541 62.0833 78.6197 61.8229C77.2395 60.2604 75.8854 58.6979 74.5052 57.1094C74.0104 56.5625 73.75 55.8594 74.1927 55.2344C74.5312 54.7917 75.1302 54.3229 75.625 54.2969C76.1458 54.2708 76.7708 54.6875 77.1614 55.1042C78.75 56.6667 80.1302 58.3333 81.7447 60.1562ZM44.1406 3.30729C42.7083 3.38542 40.4166 3.51562 38.151 3.69792C32.1875 4.16667 26.3802 5.36458 20.8333 7.60417C17.2135 9.0625 13.802 10.8594 11.1198 13.776C9.50517 15.5208 8.38538 17.474 8.35933 19.9479C8.33329 22.6302 9.63538 24.7396 11.4323 26.5625C14.8177 29.974 19.0625 31.9271 23.5416 33.3854C32.3177 36.25 41.302 37.1094 50.4947 36.3802C56.9791 35.8594 63.2812 34.5833 69.3489 32.2135C72.8906 30.8333 76.2239 29.1146 78.8802 26.276C80.5729 24.4531 81.6927 22.3698 81.6145 19.8177C81.5364 17.2656 80.2864 15.2344 78.5677 13.4635C76.1718 11.0156 73.2291 9.34896 70.1041 7.99479C62.0833 4.58333 53.6198 3.46354 44.1406 3.30729ZM8.4635 28.3854C8.41142 28.5417 8.38538 28.5937 8.38538 28.6719C8.38538 34.8438 8.28121 41.0417 8.43746 47.2135C8.51558 50.5208 10.7291 52.7083 13.3073 54.8177C13.3073 54.2708 13.3073 53.9583 13.3073 53.6458C13.3073 51.3802 13.2812 49.0885 13.3073 46.8229C13.3073 45.7552 14.0364 45.026 14.9479 45C15.8593 44.974 16.5885 45.7031 16.6666 46.7708C16.6927 47.0573 16.6927 47.3438 16.6927 47.6562C16.6927 50.5469 16.6927 53.4375 16.7187 56.3542C16.7187 56.6927 16.901 57.1875 17.1354 57.3177C19.1145 58.2812 21.1198 59.1667 23.3073 60.1823C23.3073 57.3958 23.3073 54.9219 23.3073 52.4219C23.3073 52.0052 23.3333 51.5625 23.4635 51.1719C23.6979 50.4427 24.2447 50.0781 25.026 50.0781C25.8072 50.0781 26.3281 50.4688 26.5625 51.1979C26.6927 51.5625 26.7187 51.9531 26.7187 52.3437C26.7187 54.974 26.7187 57.6042 26.7447 60.2604C26.7447 60.5729 27.0312 61.1458 27.2656 61.1979C29.7916 61.7969 32.3177 62.2917 35 62.8385C35 62.2917 35 61.9271 35 61.5885C35 58.9844 35 56.3802 35 53.776C35 52.5521 35.625 51.7708 36.6406 51.7448C37.6562 51.7187 38.3333 52.5 38.3593 53.776C38.3593 54.4792 38.3593 55.2083 38.3593 55.9115C38.3593 57.8125 38.3593 59.7135 38.3593 61.875C49.6093 53.776 60.1562 45.2083 70.2343 35.9115C70.052 35.8594 69.9739 35.8333 69.9218 35.8594C69.6875 35.9375 69.427 36.0156 69.1927 36.1198C63.5156 38.151 57.6562 39.4271 51.6145 39.8958C44.8177 40.4167 38.0208 40.1562 31.302 38.9062C22.8385 37.2656 14.8177 34.7135 8.4635 28.3854ZM51.5364 89.6615C51.2239 88.6979 50.9114 87.9167 50.7031 87.1094C50 84.375 48.5416 83.3854 45.7291 83.6198C44.8698 83.6979 43.9583 83.6719 43.125 83.4375C40.052 82.6042 38.3333 80.5208 37.7083 77.4219C37.2916 75.3646 35.4948 73.9323 33.5677 74.2448C31.6406 74.5573 29.8958 74.2708 28.151 73.2812C25.5208 75.1042 22.8645 76.9531 20.2083 78.8281C20.3385 78.9844 20.3906 79.0885 20.4427 79.1406C27.5781 84.8437 34.7135 90.5729 41.875 96.25C42.0573 96.4062 42.5781 96.4323 42.7604 96.276C45.7031 94.0885 48.6197 91.875 51.5364 89.6615Z" fill="#B3D337"/>
<path d="M44.8437 30.052C39.6354 29.8958 34.401 29.1926 29.5312 26.901C28.2031 26.276 26.901 25.4166 25.8072 24.4531C22.526 21.5104 22.4739 17.3437 25.5729 14.2447C27.8645 11.927 30.7291 10.5989 33.8281 9.86973C36.7187 9.19265 39.7135 8.88015 42.6562 8.46348C43.177 8.38536 43.5156 8.28119 43.8281 7.81244C44.9218 6.11973 46.5624 5.33848 48.5156 5.78119C53.5416 6.87494 58.3072 8.74994 62.3177 12.0312C63.6979 13.151 64.8697 14.6354 65.7812 16.1718C67.3437 18.802 66.8749 21.5364 64.8176 23.802C62.526 26.3541 59.4791 27.5781 56.3281 28.4895C52.6041 29.5312 48.802 29.9479 44.8437 30.052ZM42.9426 11.7968C40.3906 11.6926 35.5729 12.526 32.6302 13.802C31.0677 14.4791 29.5312 15.3385 28.2291 16.4062C26.0937 18.177 26.2239 20.1562 28.2812 22.0312C28.5156 22.2395 28.776 22.4739 29.0364 22.6562C32.8906 25.2864 37.2656 26.0937 41.901 26.5104C42.2395 21.5624 42.5781 16.7187 42.9426 11.7968ZM45.2604 26.8229C47.9166 26.4843 50.3906 26.1458 52.8645 25.8854C53.6197 25.8072 53.8281 25.4426 53.8541 24.7656C54.0624 20.4687 54.2708 16.1979 54.5052 11.927C54.5312 11.3801 54.3749 11.0937 53.8541 10.9374C52.0052 10.3645 50.1562 9.71348 48.3072 9.14057C47.0833 8.77598 46.5364 9.19265 46.4583 10.4687C46.1979 13.6458 45.9635 16.8229 45.7291 19.9999C45.5468 22.1354 45.4166 24.2968 45.2604 26.8229ZM57.1874 24.6093C59.0885 23.9062 60.7812 23.1249 62.1354 21.7447C63.151 20.677 63.6458 19.427 63.0468 17.9947C62.0572 15.5989 59.9999 14.2708 57.7864 12.8645C57.5781 16.8489 57.3958 20.651 57.1874 24.6093Z" fill="#B3D337"/>
<path d="M31.4583 79.7915C32.0833 80.078 32.526 80.2082 32.8645 80.4686C35.5468 82.578 38.2031 84.7134 40.8593 86.8488C41.8749 87.6561 41.9531 88.9061 41.0676 89.6092C40.4166 90.13 39.6874 90.1821 39.0104 89.6613C36.1979 87.4217 33.3333 85.2082 30.5989 82.8905C30.2083 82.5519 30.052 81.6144 30.1822 81.0675C30.2864 80.5728 30.9895 80.2082 31.4583 79.7915Z" fill="#B3D337"/>
<path d="M51.7187 19.2188C51.6926 19.5313 51.7187 19.8698 51.6666 20.1823C51.5103 21.0937 50.8593 21.6667 50.026 21.6667C49.1405 21.6667 48.4374 21.0677 48.3333 20.1302C48.2551 19.5052 48.2551 18.8281 48.3333 18.2031C48.4374 17.2656 49.1926 16.6406 50.026 16.6406C50.8333 16.6667 51.5103 17.2656 51.6666 18.151C51.7187 18.4896 51.6926 18.8542 51.7187 19.2188Z" fill="#B3D337"/>
</svg>
