<svg width="100" height="100" viewBox="0 0 100 100" fill="none" xmlns="http://www.w3.org/2000/svg">
<g clip-path="url(#clip0_2179_390)">
<path d="M99.8604 78.4882C100.158 76.5793 99.9966 71.9476 99.2354 69.8446C97.599 65.3219 93.1564 62.3096 88.1483 62.3096C88.0922 62.3096 88.0343 62.3114 87.9764 62.3114C87.1641 62.3216 86.2276 62.4936 85.1105 62.8409C83.2289 63.425 81.3149 63.8354 79.3822 64.1027V12.5361C79.3822 11.7239 78.8084 11.0257 78.0131 10.8674L26.9284 0.65042C26.8586 0.636798 26.7905 0.660637 26.7207 0.655529C26.6322 0.647015 26.5453 0.612958 26.4534 0.621472L6.01948 2.3243C5.13742 2.39752 4.45799 3.13484 4.45799 4.02201V90.4641L0 99.3801H28.948H32.7555H56.1557H83.8402L79.3822 90.4641V87.4603H81.6691L84.7887 94.1133C85.7814 97.2209 88.7273 99.3801 91.9967 99.3801C96.1704 99.3801 99.5658 95.9847 99.5624 91.6936L99.0771 84.6286C98.9289 82.4762 99.0107 82.1833 99.2303 81.4017C99.3938 80.8193 99.6186 80.0224 99.8604 78.4882ZM63.941 62.8511C62.8035 62.5106 61.5417 62.3284 60.1897 62.3114C60.1318 62.3114 60.0739 62.3096 60.0126 62.3096C54.9978 62.3096 50.5517 65.3253 48.9153 69.8549C48.1558 71.9613 47.9958 76.5878 48.2955 78.4865C48.5373 80.0207 48.7586 80.8193 48.9221 81.4017C49.1418 82.1833 49.2235 82.4745 49.0754 84.6269L48.7637 89.1632H28.2958V36.6175L75.9749 42.9741V64.3956C72.0328 64.5523 68.0091 64.0687 63.941 62.8511ZM7.86364 37.9405L14.6749 37.3735V89.1632H7.86364V37.9405ZM18.0806 37.0891L24.8919 36.5221V89.1632H23.8395H18.0806V37.0891ZM75.9766 39.5378L28.2975 33.1812V4.39493L75.9766 13.9307V39.5378ZM24.8919 33.1062L18.0806 33.6733V4.7372L24.8919 4.17016V33.1062ZM14.6749 5.01986V33.9576L7.86364 34.5247V5.5869L14.6749 5.01986ZM5.51034 95.9745L7.21316 92.5688H25.5423L27.2452 95.9745H5.51034ZM31.0527 95.9745L29.3499 92.5688H48.6241C48.6446 92.7817 48.6871 92.986 48.7263 93.1921C48.7382 93.2585 48.745 93.3266 48.7586 93.3913C48.8506 93.8187 48.9834 94.2308 49.1435 94.6275C49.1775 94.7127 49.215 94.7961 49.2525 94.8796C49.421 95.2593 49.6101 95.6288 49.8382 95.9711H31.0527V95.9745ZM62.4834 95.9745C62.5839 95.8229 62.6639 95.656 62.7524 95.4943C62.812 95.3853 62.8785 95.2831 62.9346 95.1707C63.1015 94.8336 63.2497 94.4828 63.3672 94.115L64.0977 92.5688H76.627L78.3299 95.9745H62.4834ZM75.9766 89.1632H65.7102C66.0781 88.3901 66.3386 87.8452 66.5242 87.4603H75.9783L75.9766 89.1632ZM96.4939 77.9603C96.2844 79.2936 96.1005 79.9526 95.9524 80.4805C95.6323 81.618 95.4994 82.231 95.6799 84.8584L96.1618 91.8077C96.1618 94.1048 94.2938 95.9711 91.9984 95.9711C90.1747 95.9711 88.5366 94.7501 88.0121 93.0047L83.8351 84.0513H77.6811H65.6575C64.5319 83.8129 64.3531 84.0683 61.9402 89.1598L61.6831 89.7047C61.615 89.8494 61.552 89.9822 61.4787 90.1338C61.4787 90.1338 61.4787 90.1355 61.477 90.1372C61.2148 90.6906 60.9253 91.3053 60.6154 91.9609L60.2357 92.7663L60.1437 93.0047C59.6107 94.7791 58.0084 95.9711 56.1557 95.9711C55.8696 95.9711 55.5921 95.9421 55.3213 95.8876C53.4414 95.5045 52.0196 93.851 51.9923 91.8673L52.4742 84.8567C52.653 82.231 52.5202 81.618 52.2018 80.4805C52.0536 79.9509 51.8697 79.2953 51.662 77.9586C51.4372 76.5419 51.5836 72.4942 52.12 71.0094C53.2694 67.8302 56.4299 65.7153 60.016 65.7153C60.0586 65.7153 60.1028 65.717 60.1454 65.717C61.1807 65.7306 62.1292 65.8634 62.9653 66.1138C63.9529 66.4083 64.9389 66.6655 65.9248 66.8868C65.9316 66.8885 65.9384 66.8885 65.9469 66.8902C68.823 67.5322 71.6872 67.8592 74.4934 67.8592C75.2954 67.8592 76.1537 67.8183 77.0613 67.7553C80.1332 67.5578 83.1625 67.0094 86.1203 66.0916C87.1011 65.7868 87.6937 65.7187 88.0206 65.7153C88.0615 65.7153 88.1041 65.7136 88.1449 65.7136C91.7243 65.7136 94.883 67.8268 96.0324 71.0009C96.5688 72.4857 96.717 76.5384 96.4939 77.9603Z" fill="#B3D337"/>
<path d="M87.8963 68.7295C84.1399 68.7295 81.085 71.7844 81.085 75.5408C81.085 79.2972 84.1399 82.3521 87.8963 82.3521C91.6528 82.3521 94.7076 79.2972 94.7076 75.5408C94.7076 71.7844 91.6528 68.7295 87.8963 68.7295ZM87.8963 78.9464C86.0181 78.9464 84.4907 77.419 84.4907 75.5408C84.4907 73.6626 86.0181 72.1351 87.8963 72.1351C89.7745 72.1351 91.302 73.6626 91.302 75.5408C91.302 77.419 89.7745 78.9464 87.8963 78.9464Z" fill="#B3D337"/>
<path d="M60.4485 68.7295C56.6921 68.7295 53.6372 71.7844 53.6372 75.5408C53.6372 79.2972 56.6921 82.3521 60.4485 82.3521C64.205 82.3521 67.2598 79.2972 67.2598 75.5408C67.2598 71.7844 64.205 68.7295 60.4485 68.7295ZM60.4485 78.9464C58.5703 78.9464 57.0429 77.419 57.0429 75.5408C57.0429 73.6626 58.5703 72.1351 60.4485 72.1351C62.3267 72.1351 63.8542 73.6626 63.8542 75.5408C63.8542 77.419 62.3267 78.9464 60.4485 78.9464Z" fill="#B3D337"/>
<path d="M77.6794 70.4321C76.7377 70.4321 75.9766 71.1933 75.9766 72.135H72.5709C72.5709 71.1933 71.8098 70.4321 70.8681 70.4321C69.9264 70.4321 69.1653 71.1933 69.1653 72.135V73.8378C69.1653 74.7794 69.9264 75.5406 70.8681 75.5406H77.6794C78.6211 75.5406 79.3822 74.7794 79.3822 73.8378V72.135C79.3822 71.1933 78.6211 70.4321 77.6794 70.4321Z" fill="#B3D337"/>
</g>
<defs>
<clipPath id="clip0_2179_390">
<rect width="100" height="100" fill="white"/>
</clipPath>
</defs>
</svg>
