<svg width="100" height="100" viewBox="0 0 100 100" fill="none" xmlns="http://www.w3.org/2000/svg">
<g clip-path="url(#clip0_2179_442)">
<path d="M100 23.3334C100 20.0236 98.1547 17.2187 95.4172 15.8664C92.3193 6.46504 83.2215 0 73.3334 0C67.5 0 59.1668 4.3334 57.6668 5.1666L47.1668 8C45 8.3334 43.3334 10.1666 43.3334 12.5V16.8086C29.7662 18.4432 19.1811 29.5984 18.3836 43.3334H12.5C10.1666 43.3334 8.3334 45 8 47L5.1666 57.6666C4.3334 59.1666 0 67.5 0 73.3334C0 83.2215 6.46504 92.3193 15.8662 95.4174C17.2188 98.1547 20.0236 100 23.3334 100C26.6432 100 29.448 98.1547 30.8004 95.4172C40.2018 92.3191 46.6666 83.2215 46.6666 73.3332C46.6666 67.4998 42.1666 58.9998 41.5 57.6666L38.6666 47.1666C38.3332 45 36.5 43.3332 34.1666 43.3332H28.4109C29.1539 35.1881 35.283 28.4508 43.3332 26.9219V34.1664C43.3332 36.4998 44.9998 38.333 46.9998 38.6664L57.6664 41.4998C59.1664 42.3332 67.4998 46.6664 73.333 46.6664C83.2211 46.6664 92.3189 40.2014 95.417 30.8002C98.1547 29.4479 100 26.643 100 23.3334ZM83.3334 23.3334C83.3334 23.3619 83.3352 23.3898 83.3355 23.4182C83.3354 23.4455 83.3334 23.4727 83.3334 23.5C83.3334 25.5949 84.1287 27.5086 85.432 28.973C83.2342 33.5625 78.448 36.6666 73.3334 36.6666C66 36.6666 60 30.6666 60 23.3332C60 15.9998 66 10 73.3334 10C78.4627 10 83.2621 13.1219 85.4512 17.733C84.1295 19.2033 83.3334 21.1596 83.3334 23.3334ZM28.9336 85.4512C27.4633 84.1295 25.507 83.3334 23.3334 83.3334C21.1596 83.3334 19.2033 84.1297 17.733 85.4512C13.1219 83.2619 10 78.4627 10 73.3334C10 66 16 60 23.3334 60C30.6668 60 36.6668 66 36.6668 73.3334C36.6666 78.4627 33.5449 83.2619 28.9336 85.4512ZM18.3334 91.6666C18.3334 90.7391 18.5668 89.8838 18.9787 89.1518L19.5002 88.5C20.483 87.3535 21.7881 86.6914 23.2564 86.6687C26.0455 86.7141 28.1668 88.8633 28.1668 91.6666C28.1668 92.3332 28.0002 92.8332 27.8334 93.5L27.4328 94.5871C26.5412 95.8594 25.0619 96.6666 23.3334 96.6666C20.5 96.6666 18.3334 94.5 18.3334 91.6666ZM35.3334 48L38.3334 58.8334L38.5 59.1668C38.6666 59.1668 43.3334 68.0002 43.3334 73.3334C43.3334 81.1668 38.6668 88.3334 31.6668 91.5C31.6654 91.4629 31.6619 91.4264 31.66 91.3895C31.6238 90.2352 31.3629 89.1469 30.918 88.165C36.3678 85.3689 40 79.6211 40 73.3332C40 64.1666 32.5 56.6666 23.3334 56.6666C14.1668 56.6666 6.6668 64.1666 6.6668 73.3332C6.6668 79.6211 10.299 85.3689 15.7488 88.1648C15.3039 89.1467 15.0432 90.235 15.0068 91.3893C15.0051 91.4262 15.0014 91.4627 15 91.4998C8 88.3332 3.3334 81.1664 3.3334 73.3332C3.3334 67.9998 8 59.1666 7.8334 59.3332L11 48C11.1666 47.3334 11.6666 46.8334 12.3334 46.8334H34C34.6666 46.8334 35.1666 47.1666 35.3334 48ZM21.6666 43.3334C21.8613 40.5693 22.5107 37.9238 23.5404 35.4727L26.3744 37.3619C25.6486 39.2441 25.1738 41.248 25 43.3334H21.6666ZM27.8266 34.3236L25.0475 32.4709C26.625 29.7918 28.6867 27.4281 31.1121 25.5053L32.9656 28.2857C30.9066 29.9643 29.1607 32.0113 27.8266 34.3236ZM35.7016 26.3803L33.8566 23.6127C36.7021 21.9178 39.91 20.7734 43.3334 20.3334V23.6668C40.5861 24.0857 38.0088 25.026 35.7016 26.3803ZM73.3334 43.5C68 43.5 59.3334 38.6666 59.1668 38.6666L47.8334 35.5C47.1668 35.3334 46.6668 34.8334 46.6668 34.1666V25V18.3334V12.5C46.6668 11.8334 47.1668 11.3334 48.0002 11.3334L58.8336 8.3334L59.167 8.1668C59.167 8.0002 68.0004 3.3334 73.3336 3.3334C81.1076 3.3334 88.223 7.93106 91.4256 15.0061C90.258 15.0379 89.1572 15.2994 88.1652 15.7488C85.3691 10.299 79.6213 6.6668 73.3334 6.6668C64.1668 6.6668 56.6668 14.1668 56.6668 23.3334C56.6668 32.5 64.1668 40 73.3334 40C79.5904 40 85.3123 36.4029 88.1234 30.9975C89.1535 31.4918 90.2965 31.7889 91.5002 31.8334C88.3334 38.8334 81.1666 43.5 73.3334 43.5ZM93.9479 27.8115L93.5 28C92.8334 28.1666 92.3334 28.3334 91.6666 28.3334C90.7391 28.3334 89.8838 28.1 89.1518 27.6881L88.5 27.1666C87.3334 26.1666 86.6666 24.8332 86.6666 23.3332C86.6666 21.8332 87.3332 20.4998 88.5 19.4998L89.1518 18.9783C89.8838 18.5666 90.7391 18.333 91.6666 18.333C92.3332 18.333 92.8332 18.4996 93.5 18.833L94.5871 19.2336C95.8594 20.1252 96.6666 21.6045 96.6666 23.333C96.6666 25.3361 95.5832 27.0047 93.9479 27.8115Z" fill="#B3D337"/>
<path d="M25 53.3334H31.6666C32.6666 53.3334 33.3332 52.6668 33.3332 51.6668C33.3332 50.6668 32.6666 50 31.6666 50H25C24 50 23.3334 50.6666 23.3334 51.6666C23.3334 52.6666 24 53.3334 25 53.3334Z" fill="#B3D337"/>
<path d="M51.6666 13.3335C50.6666 13.3335 50 14.0001 50 15.0001V21.6667C50 22.6667 50.6666 23.3333 51.6666 23.3333C52.6666 23.3333 53.3332 22.6667 53.3332 21.6667V15.0001C53.3334 14.0001 52.6666 13.3335 51.6666 13.3335Z" fill="#B3D337"/>
</g>
<defs>
<clipPath id="clip0_2179_442">
<rect width="100" height="100" fill="white"/>
</clipPath>
</defs>
</svg>
