<svg width="100" height="100" viewBox="0 0 100 100" fill="none" xmlns="http://www.w3.org/2000/svg">
<g clip-path="url(#clip0_2179_168)">
<path d="M5 40V95C5 96.3261 5.52678 97.5979 6.46447 98.5356C7.40215 99.4733 8.67392 100 10 100H90C91.3261 100 92.5978 99.4733 93.5355 98.5356C94.4732 97.5979 95 96.3261 95 95V40C96.3261 40 97.5978 39.4733 98.5355 38.5356C99.4732 37.5979 100 36.3261 100 35V21.6667C100 20.3406 99.4732 19.0689 98.5355 18.1312C97.5978 17.1935 96.3261 16.6667 95 16.6667H91.6667V6.68337C91.6673 5.72181 91.461 4.77138 91.0618 3.89658C90.6627 3.02178 90.08 2.24309 89.3533 1.61337C88.6384 0.992437 87.798 0.532989 86.8894 0.266363C85.9808 -0.00026315 85.0254 -0.0677963 84.0883 0.0683694C76.257 1.44504 68.5323 3.37147 60.9717 5.83337C60.5362 5.07582 59.9093 4.44608 59.1537 4.00729C58.3981 3.5685 57.5404 3.33609 56.6667 3.33337H43.3333C42.4596 3.33609 41.6019 3.5685 40.8463 4.00729C40.0907 4.44608 39.4637 5.07582 39.0283 5.83337C31.4654 3.3711 23.7385 1.44412 15.905 0.0667028C14.9689 -0.0680261 14.0147 0.000375415 13.1074 0.267258C12.2 0.53414 11.3608 0.993246 10.6467 1.61337C9.92 2.24309 9.33732 3.02178 8.93816 3.89658C8.53901 4.77138 8.33273 5.72181 8.33333 6.68337V16.6667H5C3.67392 16.6667 2.40215 17.1935 1.46447 18.1312C0.526784 19.0689 0 20.3406 0 21.6667L0 35C0 36.3261 0.526784 37.5979 1.46447 38.5356C2.40215 39.4733 3.67392 40 5 40ZM8.33333 95V40H19.2467L18.795 40.95C18.5121 41.5454 18.412 42.2113 18.5075 42.8635C18.603 43.5157 18.8896 44.125 19.3313 44.6143C19.773 45.1036 20.3498 45.4509 20.9889 45.6124C21.6279 45.774 22.3005 45.7424 22.9217 45.5217L26.4483 44.2634L27.71 47.7834C27.9256 48.4056 28.3223 48.9491 28.8492 49.3441C29.376 49.7391 30.009 49.9675 30.6667 50H30.85C31.4785 50.0002 32.0941 49.8219 32.6252 49.4858C33.1563 49.1497 33.581 48.6697 33.85 48.1017L37.7083 40H38.3333V96.6667H10C9.55797 96.6667 9.13405 96.4911 8.82149 96.1786C8.50893 95.866 8.33333 95.4421 8.33333 95ZM43.53 20L30.8517 46.6667L29.5917 43.1517C29.4484 42.738 29.2244 42.3569 28.9326 42.0305C28.6409 41.7042 28.2872 41.439 27.8921 41.2504C27.497 41.0619 27.0684 40.9537 26.6311 40.9322C26.1939 40.9106 25.7567 40.9762 25.345 41.125L21.805 42.3784L32.4367 20H43.53ZM67.6967 20L78.3333 42.38L74.8333 41.135C73.9996 40.835 73.0809 40.8782 72.2791 41.255C71.4772 41.6319 70.8577 42.3117 70.5567 43.145L69.2883 46.6667L56.6217 20H67.6967ZM58.3333 40V96.6667H41.6667V40H58.3333ZM52.93 20L60.8467 36.6667H39.2933L47.22 20H52.93ZM91.6667 95C91.6667 95.4421 91.4911 95.866 91.1785 96.1786C90.8659 96.4911 90.442 96.6667 90 96.6667H61.6667V40H62.43L66.285 48.115C66.5595 48.6799 66.9872 49.1562 67.5195 49.4895C68.0517 49.8228 68.667 49.9997 69.295 50H69.4783C70.1339 49.9651 70.7644 49.7373 71.291 49.3453C71.8176 48.9533 72.2167 48.4146 72.4383 47.7967L73.6917 44.28L77.2067 45.5284C77.8284 45.7499 78.5018 45.7819 79.1417 45.6203C79.7816 45.4587 80.3591 45.1107 80.8011 44.6206C81.2431 44.1304 81.5296 43.5201 81.6243 42.867C81.7191 42.2138 81.6178 41.5472 81.3333 40.9517L80.8867 40H91.6667V95ZM96.6667 21.6667V35C96.6667 35.4421 96.4911 35.866 96.1785 36.1786C95.8659 36.4911 95.442 36.6667 95 36.6667H79.3033L71.3867 20H95C95.442 20 95.8659 20.1756 96.1785 20.4882C96.4911 20.8008 96.6667 21.2247 96.6667 21.6667ZM84.5717 3.3667C85.0345 3.2984 85.5066 3.33159 85.9552 3.46398C86.4039 3.59636 86.8184 3.82478 87.17 4.13337C87.5356 4.44998 87.8288 4.8416 88.0295 5.28162C88.2302 5.72164 88.3339 6.19973 88.3333 6.68337V16.6667H61.6667V9.11337C69.159 6.66835 76.8125 4.74814 84.5717 3.3667ZM41.6667 8.33337C41.6667 7.89134 41.8423 7.46742 42.1548 7.15486C42.4674 6.8423 42.8913 6.6667 43.3333 6.6667H56.6667C57.1087 6.6667 57.5326 6.8423 57.8452 7.15486C58.1577 7.46742 58.3333 7.89134 58.3333 8.33337V16.6667H41.6667V8.33337ZM11.6667 6.68337C11.6665 6.19947 11.7707 5.72122 11.972 5.28119C12.1733 4.84116 12.4671 4.44967 12.8333 4.13337C13.1838 3.82512 13.5971 3.59674 14.0446 3.46408C14.4921 3.33141 14.9631 3.29761 15.425 3.36504C23.1852 4.74736 30.8398 6.66811 38.3333 9.11337V16.6667H11.6667V6.68337ZM3.33333 21.6667C3.33333 21.2247 3.50893 20.8008 3.82149 20.4882C4.13405 20.1756 4.55797 20 5 20H28.7467L20.8333 36.6667H5C4.55797 36.6667 4.13405 36.4911 3.82149 36.1786C3.50893 35.866 3.33333 35.4421 3.33333 35V21.6667Z" fill="#B3D337"/>
</g>
<defs>
<clipPath id="clip0_2179_168">
<rect width="100" height="100" fill="white"/>
</clipPath>
</defs>
</svg>
