<svg width="100" height="100" viewBox="0 0 100 100" fill="none" xmlns="http://www.w3.org/2000/svg">
<path d="M0 49.3147C0.562569 48.4229 1.39956 48.1484 2.41493 48.1896C3.25192 48.2308 4.10263 48.2033 5.0494 48.2033C5.7629 42.2346 8.41109 37.3773 13.2409 33.8098C16.781 31.189 20.7876 29.913 25.1647 29.913C33.7541 29.913 42.275 35.6759 44.6487 45.7884C48.2162 43.1676 51.7838 43.1402 55.4061 45.8296C56.6273 40.6155 59.3716 36.4854 63.7075 33.4668C67.1378 31.0793 70.9934 29.9541 75.1647 29.913C83.1778 29.8307 92.8101 35.5936 94.7997 46.6117C95.8837 46.6117 96.9951 46.5979 98.0928 46.6117C99.2591 46.6254 99.9863 47.2703 99.9863 48.2582C100 49.2461 99.2591 49.9185 98.1202 49.9322C97.1186 49.9459 96.1169 49.9322 95.1839 49.9322C94.882 51.7571 94.7036 53.5134 94.292 55.2011C92.4259 62.6517 85.8123 68.5656 78.197 69.677C67.7003 71.2137 58.1092 64.806 55.5571 54.5562C55.365 53.7741 55.2278 52.9646 55.1317 52.155C54.8847 49.8773 53.4577 48.0661 51.3447 47.4075C49.4512 46.8175 47.4616 47.5859 45.8836 49.3285C45.1015 50.2066 44.978 51.1671 44.8546 52.2511C43.8941 60.6759 37.7881 67.4679 29.5143 69.4437C18.9078 71.9684 7.94457 65.0804 5.51592 54.323C5.32382 53.4723 5.20033 52.6078 5.03568 51.6336C4.15752 51.6336 3.29308 51.6062 2.42865 51.6473C1.41328 51.6885 0.57629 51.4141 0.0137212 50.5222C0 50.0968 0 49.7127 0 49.3147ZM25.1784 33.2747C15.9166 33.2472 8.41109 40.6429 8.36992 49.8361C8.32876 59.0293 15.7794 66.4937 25.0412 66.5348C34.3304 66.576 41.5889 59.3312 41.6301 49.9734C41.6575 40.6155 34.4539 33.3021 25.1784 33.2747ZM75.1784 33.2747C65.9166 33.2472 58.4111 40.6429 58.3699 49.8361C58.3288 59.0293 65.7794 66.4937 75.0412 66.5348C84.3304 66.576 91.5889 59.3312 91.6301 49.9734C91.6575 40.6155 84.4676 33.3021 75.1784 33.2747Z" fill="#B3D337"/>
</svg>
