<svg width="100" height="100" viewBox="0 0 100 100" fill="none" xmlns="http://www.w3.org/2000/svg">
<path d="M88.0678 0.101562C88.1692 0.152298 88.2707 0.25377 88.3975 0.279137C91.5939 1.19238 93.395 3.57696 93.395 6.92551C93.395 31.8875 93.395 56.824 93.395 81.786C93.395 84.8048 93.395 87.7982 93.395 90.8169C93.3696 94.6728 90.5792 97.4887 86.7486 97.4887C81.4214 97.4887 76.0941 97.4887 70.7669 97.4887C66.9871 97.4887 64.1459 94.6728 64.1205 90.893C64.0952 86.5298 64.1205 82.1411 64.1205 77.7779C64.1205 76.2558 64.7294 75.0889 66.0231 74.2771C70.9952 71.0554 69.2195 71.5374 75.0541 71.512C76.7791 71.512 78.5295 71.512 80.3052 71.512C80.3052 70.4212 80.3052 69.4572 80.3052 68.341C79.9247 68.341 79.5442 68.341 79.189 68.341C75.1302 68.341 71.0713 68.341 67.0125 68.341C66.7841 68.341 66.5812 68.341 66.3529 68.341C64.9323 68.3157 64.1459 67.7322 64.1459 66.6668C64.1459 65.6267 64.9577 65.0178 66.3783 65.0178C70.6654 65.0178 74.9272 65.0178 79.2144 65.0178C79.5442 65.0178 79.8993 65.0178 80.3052 65.0178C80.3052 63.927 80.3052 62.9377 80.3052 61.8215C79.8993 61.8215 79.5442 61.8215 79.1637 61.8215C75.0033 61.8215 70.8684 61.8215 66.708 61.8215C66.429 61.8215 66.1246 61.8215 65.8455 61.8215C64.8055 61.7454 64.1205 61.0605 64.1459 60.1472C64.1713 59.234 64.9069 58.5998 65.9216 58.549C66.15 58.549 66.3529 58.549 66.5812 58.549C70.7923 58.549 75.0033 58.549 79.2398 58.549C79.5695 58.549 79.9247 58.549 80.3052 58.549C80.3052 57.4582 80.3052 56.4435 80.3052 55.3273C79.9247 55.3273 79.5949 55.3273 79.2398 55.3273C74.8258 55.3273 70.4371 55.3273 66.0231 55.3273C64.5518 55.3273 63.6893 54.1097 64.3488 52.9428C64.7294 52.2578 65.3635 52.0803 66.1246 52.0803C70.4879 52.1056 74.8765 52.0803 79.2398 52.0803C79.5695 52.0803 79.9247 52.0803 80.3052 52.0803C80.3052 50.9641 80.3052 49.9747 80.3052 48.8332C79.9501 48.8332 79.6203 48.8332 79.2905 48.8332C74.8511 48.8332 70.4118 48.8332 65.9724 48.8332C64.983 48.8332 64.2981 48.3258 64.1713 47.4887C64.0444 46.6769 64.4249 46.0427 65.1606 45.7383C65.4904 45.5861 65.8963 45.6115 66.2768 45.6115C70.5893 45.6115 74.9019 45.6115 79.2144 45.6115C79.5442 45.6115 79.8993 45.6115 80.3052 45.6115C80.3052 44.5206 80.3052 43.5313 80.3052 42.3644C79.9754 42.3644 79.6456 42.3644 79.3159 42.3644C75.0287 42.3644 70.7669 42.3644 66.4797 42.3644C66.2007 42.3644 65.8963 42.3897 65.6172 42.339C64.7801 42.2375 64.1459 41.5272 64.1459 40.7408C64.1459 39.9037 64.7801 39.1934 65.6933 39.1427C66.3783 39.0919 67.0886 39.1173 67.7735 39.1173C71.5787 39.1173 75.3838 39.1173 79.189 39.1173C79.5442 39.1173 79.874 39.1173 80.2798 39.1173C80.2798 38.0265 80.2798 37.0371 80.2798 35.8956C79.9501 35.8956 79.6203 35.8956 79.2651 35.8956C74.8511 35.8956 70.4625 35.8956 66.0485 35.8956C64.8816 35.8956 64.1205 35.2106 64.1205 34.2467C64.1205 33.3081 64.8308 32.6739 65.9724 32.6231C66.2261 32.6231 66.4797 32.6231 66.7334 32.6231C70.843 32.6231 74.978 32.6231 79.0875 32.6231C79.4681 32.6231 79.8232 32.6231 80.2798 32.6231C80.2798 31.5323 80.2798 30.543 80.2798 29.4268C79.8993 29.4268 79.5442 29.4268 79.2144 29.4268C74.9272 29.4268 70.6654 29.4268 66.3783 29.4268C65.9724 29.4268 65.5411 29.4014 65.1606 29.2492C64.4503 28.9955 64.0952 28.4374 64.1205 27.7018C64.1459 26.9661 64.5264 26.4334 65.2621 26.2304C65.6426 26.129 66.0739 26.1036 66.4797 26.1036C70.6654 26.1036 74.8511 26.1036 79.0368 26.1036C79.4173 26.1036 79.7978 26.1036 80.2545 26.1036C80.2545 25.0635 80.2545 24.0742 80.2545 22.9326C79.8739 22.9326 79.5188 22.9326 79.1383 22.9326C75.0287 22.9326 70.8937 22.9326 66.7841 22.9326C66.5558 22.9326 66.3275 22.9326 66.1246 22.9326C64.8816 22.9072 64.0952 22.2477 64.1205 21.233C64.1459 20.2436 64.9069 19.6094 66.1753 19.6094C70.5132 19.6094 74.8511 19.6094 79.2144 19.6094C79.5442 19.6094 79.8993 19.6094 80.3052 19.6094C80.3052 18.5186 80.3052 17.5293 80.3052 16.4131C79.874 16.4131 79.4934 16.4131 79.1129 16.4131C75.0033 16.4131 70.8684 16.4131 66.7588 16.4131C66.5051 16.4131 66.2514 16.4131 65.9977 16.4131C64.8562 16.3623 64.1459 15.7281 64.1459 14.7895C64.1459 13.8256 64.9069 13.1406 66.0485 13.1153C70.4117 13.1153 74.8004 13.1153 79.1637 13.1153C79.5188 13.1153 79.8486 13.1153 80.2798 13.1153C80.2798 12.0498 80.2798 11.0605 80.2798 9.94428C79.9501 9.91891 79.6203 9.89355 79.2905 9.89355C76.7537 9.89355 74.2169 9.86818 71.6801 9.89355C70.564 9.91891 69.5746 9.6145 68.6614 8.95494C67.8242 8.34611 66.9364 7.76265 66.0738 7.20456C64.7547 6.34205 64.0191 5.12439 64.1713 3.52622C64.3235 1.95341 65.2113 0.83723 66.7588 0.304505C66.8349 0.279137 66.911 0.203034 66.9617 0.12693C73.9886 0.101562 81.0155 0.101562 88.0678 0.101562ZM75.4853 94.2416C75.7644 94.267 75.9166 94.2923 76.0688 94.2923C79.3666 94.2923 82.6644 94.2923 85.9622 94.2923C88.9556 94.2923 90.1226 93.1508 90.1226 90.1574C90.1226 72.273 90.1226 54.3887 90.1226 36.5044C90.1226 26.7124 90.1226 16.9204 90.1226 7.10308C90.1226 4.6424 88.8288 3.34864 86.3681 3.34864C84.6938 3.34864 83.0196 3.34864 81.3199 3.34864C77.0074 3.34864 72.6949 3.34865 68.3823 3.37401C68.0779 3.37401 67.7735 3.57696 67.4944 3.70379C67.672 3.98284 67.7735 4.31262 68.0018 4.4902C68.7121 5.02292 69.4224 5.58101 70.1834 5.9869C70.7415 6.29131 71.4011 6.54499 72.0099 6.54499C75.1555 6.59573 78.2758 6.57036 81.4214 6.57036C83.0957 6.57036 83.6538 7.10308 83.6538 8.77736C83.6538 30.061 83.6538 51.3192 83.6538 72.6028C83.6538 74.201 83.0703 74.8098 81.4975 74.8098C79.189 74.8098 76.8552 74.962 74.5467 74.7591C72.086 74.5562 70.0312 75.165 68.154 76.7124C67.672 77.1183 67.393 77.4481 67.393 78.1076C67.4183 82.2933 67.393 86.479 67.4183 90.6647C67.4437 93.3537 69.6 94.8504 72.2636 94.064C72.2636 93.7089 72.2636 93.3283 72.2636 92.9478C72.2636 89.0919 72.2636 85.2106 72.2636 81.3547C72.2636 80.4161 72.7963 79.7819 73.6081 79.6551C74.3438 79.5282 75.1809 79.9849 75.4092 80.7205C75.5107 81.0503 75.4853 81.4055 75.4853 81.7606C75.5107 85.8956 75.4853 90.0305 75.4853 94.2416Z" fill="#B3D337"/>
<path d="M41.0866 0C44.9171 1.31913 46.8451 5.60629 46.0079 9.4622C43.5472 20.7509 41.188 32.0396 38.7781 43.3283C38.4483 44.8503 38.22 46.3724 37.7887 47.8691C37.1038 50.2283 37.0531 52.6129 37.5858 54.9975C37.6873 55.4033 37.941 55.8853 38.2707 56.139C39.8689 57.4328 41.4925 58.7012 43.1414 59.9442C44.1053 60.6799 44.7649 61.5931 45.1962 62.7346C46.1094 65.1953 47.0987 67.6306 48.0373 70.066C48.4179 71.0553 49.0013 71.8671 49.9907 72.2729C53.7451 73.8204 55.3687 76.8138 55.4448 80.6443C55.5462 85.6925 53.8212 89.9797 49.3818 92.7955C47.327 94.0893 45.0947 94.9011 42.6086 94.1147C39.2093 93.0746 37.6112 90.4871 37.0023 87.2146C36.4189 84.0436 37.0277 80.9995 38.6259 78.2344C39.5138 76.7123 39.5645 75.2917 38.9049 73.7189C38.0932 71.7656 37.3829 69.7615 36.5711 67.8082C36.3428 67.2501 35.9115 66.7428 35.4549 66.3369C34.5163 65.4997 33.4762 64.7387 32.4108 63.8762C30.9902 66.2608 29.671 68.62 28.2251 70.8524C27.0328 72.6788 26.9567 74.3278 28.0475 76.2303C29.5442 78.8179 29.671 81.6337 28.9354 84.5003C27.946 88.3815 27.3372 92.3135 27.946 96.347C28.0221 96.7783 28.1236 97.2095 28.2251 97.6408C28.5041 98.6809 28.0729 99.6195 27.1596 99.8478C26.1703 100.127 25.2063 99.6195 25.0287 98.5033C24.7243 96.6768 24.5467 94.7996 24.3692 92.9477C24.3184 92.2628 24.3945 91.5779 24.4453 90.7407C22.7456 91.7808 21.0206 92.4404 19.1434 92.6433C13.8922 93.2014 8.86942 90.0051 7.19514 85.033C5.49549 79.9594 7.49955 74.3531 12.0658 71.6641C13.1312 71.0299 14.3742 70.624 15.5665 70.2689C16.8095 69.8884 17.7989 69.3303 18.4838 68.1634C20.4118 64.8402 22.3905 61.5677 24.3184 58.2445C24.5975 57.7626 24.7243 57.103 24.6736 56.5703C23.9379 49.4165 23.0247 42.2628 22.4158 35.1091C22.01 30.2892 21.9846 25.4186 21.8324 20.5733C21.7055 16.8442 21.5787 13.0898 21.5787 9.36073C21.5787 5.96144 23.253 3.5515 26.221 1.97869C26.3479 1.90259 26.4493 1.80112 26.5762 1.69964C27.2104 1.62354 27.8446 1.54744 28.4534 1.47133C30.356 2.00406 31.1424 3.32319 31.3199 5.22577C31.6751 8.5997 32.1571 11.9482 32.563 15.3222C32.6137 15.6266 32.6391 15.9564 32.6898 16.2608C34.3134 11.8975 35.7593 7.53425 37.1038 3.17098C37.5097 1.85185 38.1185 0.735667 39.3869 0.0761035C39.945 0.152207 40.5031 0.0761035 41.0866 0ZM25.9927 80.4921C25.4853 76.002 21.5533 72.831 17.0632 73.3384C12.5985 73.8458 9.42751 77.8031 9.9095 82.2679C10.3661 86.7072 14.5264 89.9797 18.9658 89.4216C23.3544 88.8889 26.4747 84.9061 25.9927 80.4921ZM32.6644 42.7955C31.0663 30.1116 29.4681 17.5799 27.8953 5.02283C26.0942 5.55555 24.7497 7.43278 24.8004 9.43683C24.9273 14.6372 24.978 19.8123 25.2063 25.0127C25.4853 30.898 25.9166 36.758 26.2971 42.6433C26.3225 42.897 26.3986 43.1761 26.4493 43.5312C28.428 42.2882 30.4321 42.0091 32.6644 42.7955ZM52.1723 79.934C51.9694 77.8792 51.0815 76.2557 49.1282 75.4693C47.2002 74.6829 45.5259 75.4693 44.0546 76.6616C41.391 78.8179 40.2241 81.6844 40.0972 85.0583C40.0465 86.4789 40.3255 87.8488 41.0358 89.0665C41.8983 90.5885 43.2682 91.3749 44.9932 91.0959C45.9826 90.9437 47.048 90.5124 47.8344 89.9036C51.0561 87.3668 52.4514 83.9929 52.1723 79.934ZM40.6807 3.47539C40.6046 3.65297 40.5285 3.80517 40.4777 3.98275C38.2961 10.6545 36.0891 17.3262 33.9328 23.998C33.806 24.4039 33.7806 24.8605 33.8314 25.2917C34.4402 30.2638 35.0744 35.2359 35.7086 40.208C35.734 40.3856 35.8101 40.5632 35.9115 40.9944C36.6472 37.4937 37.3575 34.2973 38.0171 31.0756C39.6152 23.5921 41.2134 16.1086 42.7862 8.62506C43.2428 6.41806 42.4311 4.43937 40.6807 3.47539ZM27.7685 54.7945C27.7177 55.7331 27.9207 56.3927 28.7071 56.9508C31.117 58.7519 33.3747 60.756 35.8608 62.4556C38.1439 64.003 39.6406 65.931 40.4016 68.5946C40.909 70.345 41.6954 71.9939 42.355 73.6936C43.3697 73.1608 44.3083 72.6788 45.2469 72.1715C44.1307 69.2795 43.0653 66.3876 41.9237 63.521C41.7461 63.0898 41.391 62.6585 41.0105 62.3541C39.6152 61.2126 38.22 60.0457 36.7233 59.0563C35.1251 57.9909 34.1104 56.7225 34.2372 54.7184C34.2372 54.5155 34.1611 54.2872 34.1104 54.0081C32.081 55.3272 30.0008 55.6063 27.7685 54.7945ZM27.2104 59.8681C25.1048 63.4196 23.05 66.895 20.9952 70.345C22.0861 70.827 23.1008 71.2836 24.014 71.6895C25.9166 68.4424 27.8446 65.2207 29.7471 61.9736C29.5696 61.8214 29.4427 61.6946 29.2905 61.5677C28.6563 61.035 27.9968 60.5023 27.2104 59.8681ZM30.5843 52.0041C32.3854 51.8011 33.6031 50.279 33.4255 48.5033C33.2225 46.6768 31.6751 45.4338 29.874 45.6367C28.0729 45.8397 26.7791 47.4632 27.0074 49.239C27.2357 50.9893 28.8085 52.207 30.5843 52.0041Z" fill="#B3D337"/>
</svg>
