<svg width="100" height="100" viewBox="0 0 100 100" fill="none" xmlns="http://www.w3.org/2000/svg">
<g clip-path="url(#clip0_2176_2)">
<path d="M43.342 54.951C43.7141 54.951 44.0857 54.9219 44.4534 54.8644C47.6489 54.333 49.9954 51.5747 50.0075 48.3354V44.3078C49.9801 42.4915 48.7496 40.9148 46.9947 40.4467C44.6025 39.7951 42.0796 39.7951 39.6876 40.4467C37.9328 40.9149 36.703 42.4919 36.6764 44.3078V48.6188C36.69 50.4357 37.4987 52.1555 38.8893 53.3248C40.1318 54.3807 41.7112 54.9575 43.342 54.951ZM40.0092 44.3076C40.0339 43.9886 40.266 43.7241 40.5791 43.6576C42.3879 43.1641 44.296 43.1641 46.105 43.6576C46.4181 43.7239 46.65 43.9884 46.6749 44.3076V48.3353C46.6734 49.9374 45.5155 51.3046 43.9353 51.5698C42.9078 51.7487 41.8539 51.4645 41.0557 50.7932C40.4018 50.2592 40.0185 49.4628 40.0092 48.6185V44.3076Z" fill="#B3D337"/>
<path d="M95.9773 21.7726L91.0513 20.7845L87.6834 15.1737C86.6164 13.4029 84.7907 12.225 82.7375 11.9824L81.4227 11.8607C81.0971 8.52252 80.2344 5.25863 78.8681 2.19547C78.2637 0.810435 76.8683 -0.0589651 75.3587 0.00909771C73.8031 0.0683041 72.4423 1.07416 71.9293 2.54399L65.5535 22.9292C63.5246 29.067 57.7868 33.2105 51.3223 33.206H25.2746C21.5859 33.2182 17.9875 34.347 14.9528 36.4439C12.331 35.847 10.372 33.6595 10.0669 30.988C9.90898 29.6502 10.0889 28.294 10.5901 27.0436C11.2966 25.3104 10.666 23.3197 9.09026 22.3094C7.59878 21.2873 5.58675 21.4953 4.33603 22.801C1.0618 26.1104 -0.489866 30.753 0.136476 35.3663C0.762818 39.9797 3.49583 44.0405 7.534 46.3574C6.969 48.1284 6.68117 49.9761 6.68084 51.8349C6.84845 55.1155 7.6242 58.3363 8.9689 61.3335L9.38547 62.4366C11.2319 67.3926 9.12044 71.6236 6.55258 75.4663C5.49441 77.0629 5.17001 79.0358 5.66104 80.8872L9.42713 96.1833C9.9754 98.4243 11.986 99.9989 14.293 99.9943H18.7757C21.0199 99.9878 22.929 98.3562 23.2852 96.1403C23.6414 93.9245 22.3397 91.777 20.2106 91.0675L18.3458 90.4475L18.3209 81.0256C19.5806 80.3808 25.7414 76.8379 29.4409 67.591C37.8429 71.1772 47.7465 71.6187 59.5914 71.6655C59.9491 75.5429 60.0877 79.4374 60.0063 83.3304V93.3289C60.0063 97.0102 62.9906 99.9947 66.672 99.9947H72.0995C74.34 99.992 76.2486 98.3664 76.6076 96.1549C76.9666 93.9435 75.6704 91.7974 73.5459 91.0861L71.671 90.4606V79.474C71.7864 72.9331 73.8139 66.5689 77.5034 61.1667C78.6399 59.3989 79.4698 57.4518 79.9581 55.4076C81.4707 48.7964 84.0333 42.4704 87.5486 36.6705H95.0008C97.7618 36.6705 100 34.4323 100 31.6713V26.672C99.9899 24.2918 98.3099 22.2458 95.9773 21.7726ZM58.3397 35.1223V53.3346C58.3397 56.0956 56.1015 58.3338 53.3404 58.3338H33.3434C32.5417 58.3286 31.7535 58.1278 31.0472 57.749C30.9105 57.6427 30.7574 57.5594 30.5938 57.5023C29.1917 56.579 28.3466 55.0135 28.3442 53.3346V36.5388H51.3223C53.7319 36.5329 56.1166 36.0515 58.3397 35.1223ZM46.6747 67.9123C44.3601 67.7341 42.1337 67.4841 40.009 67.1208V61.6666H46.6747V67.9123ZM31.2604 61.3717C31.9394 61.5584 32.6393 61.6576 33.3434 61.6666H36.6762V66.4276C34.5656 65.9203 32.5026 65.2318 30.5105 64.3696C30.7949 63.3964 31.0444 62.3971 31.2587 61.3717H31.2604ZM3.58127 35.7089C2.78535 31.8877 3.96243 27.9222 6.71413 25.1538C6.77908 25.0701 6.87584 25.0173 6.9813 25.0075C7.08675 24.9977 7.19155 25.0319 7.27077 25.1021C7.51645 25.2445 7.61502 25.5494 7.49907 25.8087C6.78974 27.5708 6.53471 29.4831 6.75759 31.3695C7.16384 34.6032 9.13815 37.4285 12.0352 38.9217C10.7733 40.2119 9.7002 41.6739 8.84737 43.2644C6.126 41.575 4.22057 38.839 3.5798 35.7006L3.58127 35.7089ZM16.7943 78.0709C15.6942 78.6453 15.0066 79.7859 15.0129 81.0271V90.4473C15.0229 91.8799 15.9371 93.1497 17.2926 93.6135L19.1606 94.2251C19.6713 94.3994 20.0139 94.8803 20.0121 95.4199C20.0131 96.1021 19.4612 96.6561 18.779 96.658H14.2929C13.523 96.6547 12.8526 96.1321 12.6615 95.3864L8.88378 80.0554C8.63449 79.1192 8.79685 78.1211 9.33037 77.3125C12.2333 72.9616 14.8828 67.6473 12.5049 61.2783L12.0816 60.1568C10.8909 57.532 10.1901 54.7116 10.0136 51.8347C10.2162 43.5886 16.7705 36.9082 25.0114 36.5487V53.3344C25.0207 55.866 26.187 58.2543 28.1775 59.8184C27.879 61.5043 27.4603 63.1666 26.9244 64.7928C23.6782 74.3096 17.4958 77.7025 16.7925 78.0624L16.7943 78.0709ZM96.6672 31.6713C96.6672 32.5917 95.9212 33.3377 95.0008 33.3377H83.3358C81.4951 33.3377 80.003 31.8456 80.003 30.0049C80.003 29.0845 79.2569 28.3385 78.3365 28.3385C77.4161 28.3385 76.6701 29.0845 76.6701 30.0049C76.6701 33.6862 79.6543 36.6707 83.3358 36.6707H83.6441C80.528 42.3015 78.1983 48.3329 76.7201 54.5963C76.3248 56.2762 75.6488 57.8774 74.7203 59.3323C70.6704 65.2784 68.4515 72.2808 68.338 79.4743V90.461C68.3362 91.8973 69.255 93.1733 70.6177 93.6271L72.4908 94.252C73.0581 94.4509 73.4009 95.0282 73.3042 95.6216C73.2074 96.215 72.6988 96.6534 72.0976 96.6616H66.6717C64.8311 96.6616 63.3389 95.1694 63.3389 93.3288V83.3301C63.4601 78.797 63.2484 74.261 62.7057 69.7589C62.4495 67.9874 62.0849 66.2332 61.6142 64.5064C61.3722 63.6183 60.456 63.0945 59.5679 63.3365C58.6798 63.5786 58.156 64.4948 58.3981 65.3828C58.6647 66.3561 58.8796 67.3342 59.0646 68.3223C55.8984 68.3074 52.8789 68.249 50.0009 68.1141V61.6666H53.3337C57.9331 61.661 61.6603 57.934 61.6657 53.3346V33.3192C64.9816 31.0541 67.4608 27.7617 68.7213 23.949L75.0803 3.62873C75.1343 3.45783 75.2927 3.34188 75.472 3.34204C75.8053 3.32531 75.8053 3.50867 75.8385 3.57526C77.1883 6.64153 77.9905 9.92068 78.2081 13.2638C78.2122 13.3332 78.2206 13.4021 78.233 13.4704C78.2321 13.4849 78.2321 13.4993 78.233 13.5137C78.2996 14.487 78.3364 15.4935 78.3364 16.5067C78.3364 17.4271 79.0824 18.1732 80.0028 18.1732C80.9232 18.1732 81.6693 17.4271 81.6693 16.5067C81.6693 16.075 81.6344 15.6568 81.6227 15.2286L82.386 15.2986C83.3994 15.4246 84.2983 16.0096 84.824 16.8851L88.5733 23.134C88.8148 23.5365 89.2148 23.8185 89.6748 23.9106L95.3189 25.0437C96.0991 25.1955 96.6635 25.8771 96.6671 26.6718L96.6672 31.6713Z" fill="#B3D337"/>
</g>
<defs>
<clipPath id="clip0_2176_2">
<rect width="100" height="100" fill="white"/>
</clipPath>
</defs>
</svg>
