<svg width="100" height="100" viewBox="0 0 100 100" fill="none" xmlns="http://www.w3.org/2000/svg">
<g clip-path="url(#clip0_2179_561)">
<path d="M20.9033 81.0665C20.3248 81.6796 20.0018 82.4902 20 83.3332V96.6665C20 98.5075 21.4924 99.9998 23.3333 99.9998H41.6667C43.5076 99.9998 45 98.5075 45 96.6665V83.3332C45 81.4922 43.5076 79.9998 41.6667 79.9998V76.8982C41.7177 72.951 40.4299 69.1029 38.0133 65.9815C36.5965 64.118 34.6656 62.7097 32.4583 61.9298C28.9481 60.455 25.7198 58.3833 22.9167 55.8065C20.3147 53.6636 16.6184 53.4715 13.8083 55.3332L10.2033 46.9098C9.4367 45.1732 7.80183 43.9775 5.91457 43.7731C4.0273 43.5688 2.17436 44.3868 1.05373 45.919C-0.0668993 47.4512 -0.284971 49.4649 0.481661 51.2015L7.01333 65.5698C7.89451 67.5149 9.12037 69.2846 10.6317 70.7932L20.9033 81.0665ZM41.6667 96.6665H23.3333V83.3332H41.6667V96.6665ZM3.51499 49.8232C3.23625 49.2099 3.28813 48.4971 3.65272 47.9306C4.01732 47.3642 4.6447 47.0217 5.31833 47.0215C6.11107 47.0209 6.82751 47.4939 7.13833 48.2232L10.8667 56.9182C11.8567 59.238 13.2837 61.3457 15.07 63.1265L22.6833 70.7415C23.1018 71.1748 23.7215 71.3485 24.3042 71.196C24.8869 71.0435 25.342 70.5884 25.4945 70.0057C25.647 69.423 25.4733 68.8033 25.04 68.3848L17.4267 60.7698C16.6611 60.0061 15.9728 59.1687 15.3717 58.2698C16.9722 57.0382 19.2114 57.0755 20.77 58.3598C23.8856 61.2191 27.4865 63.4993 31.4033 65.0932C32.9994 65.6739 34.3921 66.7064 35.4117 68.0648C37.354 70.5955 38.3836 73.7085 38.3333 76.8982V79.9998H24.5517L12.9883 68.4365C11.7602 67.2101 10.7637 65.7721 10.0467 64.1915L3.51499 49.8232Z" fill="#B3D337"/>
<path d="M36.6666 88.3335H34.9999C34.0794 88.3335 33.3333 89.0797 33.3333 90.0002C33.3333 90.9206 34.0794 91.6668 34.9999 91.6668H36.6666C37.5871 91.6668 38.3333 90.9206 38.3333 90.0002C38.3333 89.0797 37.5871 88.3335 36.6666 88.3335Z" fill="#B3D337"/>
<path d="M94.6817 43.6885C92.5555 43.6871 90.6337 44.9549 89.7983 46.9101L86.2017 55.3018C83.3819 53.4493 79.6837 53.6521 77.0833 55.8018C74.2802 58.3786 71.0519 60.4503 67.5417 61.9251C65.3344 62.705 63.4035 64.1133 61.9867 65.9768C59.569 69.0995 58.2811 72.9496 58.3333 76.8985V80.0001C56.4924 80.0001 55 81.4925 55 83.3335V96.6668C55 98.5078 56.4924 100 58.3333 100H76.6667C78.5076 100 80 98.5078 80 96.6668V83.3335C79.9982 82.4905 79.6752 81.6799 79.0967 81.0668L89.3683 70.7935C90.8796 69.2849 92.1055 67.5152 92.9867 65.5701L99.5183 51.2018C100.267 49.5577 100.129 47.6458 99.1516 46.1264C98.1742 44.6071 96.4916 43.6887 94.685 43.6885H94.6817ZM76.6667 96.6668H58.3333V83.3335H76.6667V96.6668ZM96.485 49.8235L89.9533 64.1918C89.2363 65.7724 88.2398 67.2104 87.0117 68.4368L75.4483 80.0001H61.6667V76.8985C61.6164 73.7088 62.646 70.5958 64.5883 68.0651C65.6059 66.7083 66.9954 65.6759 68.5883 65.0935C72.5059 63.5001 76.1075 61.2198 79.2233 58.3601C80.7802 57.0661 83.0257 57.0225 84.6317 58.2551C84.0288 59.1607 83.337 60.0037 82.5667 60.7718L74.9533 68.3868C74.3217 69.0408 74.3307 70.0803 74.9736 70.7232C75.6165 71.3661 76.656 71.3751 77.31 70.7435L84.9233 63.1285C86.7096 61.3477 88.1366 59.24 89.1267 56.9201L92.855 48.2235C93.1667 47.4952 93.8828 47.023 94.675 47.0235C95.3486 47.0237 95.976 47.3662 96.3406 47.9326C96.7052 48.499 96.7571 49.2119 96.4783 49.8251L96.485 49.8235Z" fill="#B3D337"/>
<path d="M65.0001 88.3335H63.3334C62.4129 88.3335 61.6667 89.0797 61.6667 90.0002C61.6667 90.9206 62.4129 91.6668 63.3334 91.6668H65.0001C65.9206 91.6668 66.6667 90.9206 66.6667 90.0002C66.6667 89.0797 65.9206 88.3335 65.0001 88.3335Z" fill="#B3D337"/>
<path d="M68.4568 -7.54365e-05C61.1409 -0.0442964 54.2589 3.46627 50.0001 9.41493C45.7412 3.46627 38.8593 -0.0442964 31.5434 -7.54365e-05C18.2551 -7.54365e-05 10.0001 8.42159 10.0001 21.9799C9.96531 25.283 10.53 28.5651 11.6667 31.6666H3.33341C2.41294 31.6666 1.66675 32.4128 1.66675 33.3333C1.66675 34.2537 2.41294 34.9999 3.33341 34.9999H13.1934C15.5995 38.9354 18.6654 42.427 22.2567 45.3216C23.1101 46.0816 23.9384 46.8216 24.7134 47.5599C30.3801 52.9616 48.1967 67.3533 48.9534 67.9633C49.5642 68.4561 50.436 68.4561 51.0468 67.9633C51.8034 67.3533 69.6218 52.9633 75.2868 47.5599C76.0618 46.8216 76.8901 46.0816 77.7434 45.3216C81.3348 42.427 84.4007 38.9354 86.8068 34.9999H96.6668C97.5872 34.9999 98.3334 34.2537 98.3334 33.3333C98.3334 32.4128 97.5872 31.6666 96.6668 31.6666H88.3418C89.4757 28.5645 90.0375 25.2825 90.0001 21.9799C90.0001 8.42159 81.7451 -7.54365e-05 68.4568 -7.54365e-05ZM13.3334 21.9799C13.3334 10.3033 20.1401 3.33326 31.5434 3.33326C38.5902 3.31094 45.0931 7.1177 48.5234 13.2733C48.8394 13.7855 49.3982 14.0974 50.0001 14.0974C50.6019 14.0974 51.1608 13.7855 51.4767 13.2733C54.9071 7.1177 61.41 3.31094 68.4568 3.33326C79.8601 3.33326 86.6668 10.3033 86.6668 21.9799C86.7168 25.3103 86.0548 28.6129 84.7251 31.6666H75.0001C74.3238 31.6669 73.7147 32.0758 73.4584 32.7016L71.6017 26.2016C71.3958 25.4928 70.7482 25.0038 70.0101 24.9999H70.0001C69.2638 24.9999 68.6147 25.483 68.4034 26.1883L65.2701 36.6349L61.6301 19.6516C61.4681 18.8933 60.8046 18.3468 60.0293 18.3333C59.254 18.3198 58.5717 18.8427 58.3834 19.5949L55.3651 31.6666H46.6668C45.9905 31.6669 45.3814 32.0758 45.1251 32.7016L43.2684 26.2016C43.0625 25.4928 42.4149 25.0038 41.6768 24.9999C40.9263 24.9621 40.2536 25.4596 40.0701 26.1883L36.9368 36.6349L33.2968 19.6516C33.1347 18.893 32.4707 18.3464 31.6951 18.3333C30.9153 18.3053 30.2253 18.8346 30.0501 19.5949L27.0317 31.6666H15.2751C13.9453 28.6129 13.2833 25.3103 13.3334 21.9799ZM75.5234 42.8333C74.6434 43.6199 73.7868 44.3833 72.9851 45.1483C68.1968 49.7166 53.9834 61.2916 50.0001 64.5216C46.0167 61.2916 31.8051 49.7166 27.0151 45.1483C26.2134 44.3833 25.3567 43.6199 24.4767 42.8333C21.6999 40.5467 19.227 37.9142 17.1184 34.9999H28.3334C29.0979 34.9999 29.7643 34.4798 29.9501 33.7383L31.5417 27.3716L35.0417 43.6816C35.201 44.426 35.8444 44.9679 36.6051 44.9983C37.364 45.0216 38.0454 44.5364 38.2717 43.8116L41.6368 32.5966L43.4068 38.7916C43.6076 39.4943 44.2427 39.9842 44.9734 39.9999C45.6969 39.993 46.3406 39.5391 46.5901 38.8599L47.8684 34.9999H56.6668C57.4312 34.9999 58.0977 34.4798 58.2834 33.7383L59.8751 27.3716L63.3751 43.6816C63.5343 44.426 64.1778 44.9679 64.9384 44.9983H65.0001C65.7364 44.9983 66.3854 44.5152 66.5968 43.8099L69.9618 32.5949L71.7318 38.7899C71.9326 39.4926 72.5678 39.9825 73.2984 39.9983C74.0198 39.9848 74.6602 39.5332 74.9151 38.8583L76.2018 34.9999H82.8818C80.7731 37.9142 78.3003 40.5467 75.5234 42.8333Z" fill="#B3D337"/>
</g>
<defs>
<clipPath id="clip0_2179_561">
<rect width="100" height="100" fill="white"/>
</clipPath>
</defs>
</svg>
