<svg width="100" height="100" viewBox="0 0 100 100" fill="none" xmlns="http://www.w3.org/2000/svg">
<g clip-path="url(#clip0_2161_374)">
<path d="M12.7634 19.5785C12.3906 19.3409 11.9386 19.2611 11.5069 19.3567C11.0753 19.4524 10.6993 19.7156 10.4618 20.0885C9.05911 22.3052 8.32056 24.8771 8.33342 27.5002C8.33342 35.3242 14.6761 41.6669 22.5001 41.6669C30.3241 41.6669 36.6668 35.3242 36.6668 27.5002C36.6668 19.6762 30.3241 13.3335 22.5001 13.3335C21.3117 13.3305 20.1281 13.4846 18.9801 13.7919C18.3993 13.9424 17.9443 14.3936 17.7887 14.973C17.6331 15.5525 17.801 16.1709 18.2283 16.5921C18.6555 17.0133 19.2762 17.1724 19.8534 17.0085C20.7167 16.7784 21.6067 16.6635 22.5001 16.6669C28.4832 16.6669 33.3334 21.5171 33.3334 27.5002C33.3334 33.4833 28.4832 38.3335 22.5001 38.3335C16.517 38.3335 11.6668 33.4833 11.6668 27.5002C11.655 25.5116 12.2119 23.5611 13.2717 21.8785C13.7659 21.1029 13.5384 20.0737 12.7634 19.5785Z" fill="#B3D337"/>
<path d="M59.1667 0C48.5812 0 40 8.58121 40 19.1667C40 29.7521 48.5812 38.3333 59.1667 38.3333C69.7521 38.3333 78.3333 29.7521 78.3333 19.1667C78.3214 8.58616 69.7472 0.0119403 59.1667 0ZM59.1667 35C50.4222 35 43.3333 27.9112 43.3333 19.1667C43.3333 10.4222 50.4222 3.33333 59.1667 3.33333C67.9112 3.33333 75 10.4222 75 19.1667C74.9899 27.907 67.907 34.9899 59.1667 35Z" fill="#B3D337"/>
<path d="M5 78.3332H26.6667V79.9998C26.6667 82.7613 28.9052 84.9998 31.6667 84.9998H38.3333C41.0948 84.9998 43.3333 82.7613 43.3333 79.9998V59.9998C43.3333 59.0794 42.5871 58.3332 41.6667 58.3332C40.7462 58.3332 40 59.0794 40 59.9998V79.9998C40 80.9203 39.2538 81.6665 38.3333 81.6665H31.6667C30.7462 81.6665 30 80.9203 30 79.9998V61.6665C30.0101 52.4659 37.4661 45.0099 46.6667 44.9998H56.6667C57.5871 44.9998 58.3333 44.2536 58.3333 43.3332C58.3333 42.4127 57.5871 41.6665 56.6667 41.6665H46.6667C42.1182 41.6652 37.7067 43.2222 34.1667 46.0782C32.304 45.3668 30.3272 45.0014 28.3333 44.9998H16.6667C7.46611 45.0099 0.010104 52.4659 0 61.6665V73.3332C0 76.0946 2.23858 78.3332 5 78.3332ZM3.33333 61.6665C3.3416 54.3061 9.3063 48.3414 16.6667 48.3332H28.3333C29.3853 48.3359 30.4331 48.4635 31.455 48.7132C28.3642 52.3212 26.6658 56.9157 26.6667 61.6665V74.9998H13.3333V61.6665C13.3333 60.746 12.5871 59.9998 11.6667 59.9998C10.7462 59.9998 10 60.746 10 61.6665V74.9998H5C4.07953 74.9998 3.33333 74.2536 3.33333 73.3332V61.6665Z" fill="#B3D337"/>
<path d="M38.6333 93.1333C38.639 94.9621 39.3654 96.7149 40.655 98.0116C43.3598 100.712 47.7403 100.712 50.445 98.0116L66.0267 82.4283C76.2939 87.6981 88.8711 84.6735 95.6198 75.3118C102.368 65.95 101.263 53.0617 93.0177 44.9865C84.7728 36.9112 71.8642 36.0735 62.6448 43.0153C53.4254 49.9572 50.663 62.5945 56.145 72.75L40.655 88.2383C39.3545 89.5345 38.6265 91.2971 38.6333 93.1333ZM62.525 47.525C68.2449 41.8047 76.8473 40.0934 84.321 43.1889C91.7946 46.2845 96.6676 53.5773 96.6676 61.6666C96.6676 69.756 91.7946 77.0488 84.321 80.1444C76.8473 83.2399 68.2449 81.5285 62.525 75.8083C58.7403 72.0759 56.6096 66.9822 56.6096 61.6666C56.6096 56.3511 58.7403 51.2574 62.525 47.525ZM43.0117 90.595L57.995 75.6133C58.6562 76.5158 59.382 77.3692 60.1667 78.1666C61.0784 79.0681 62.0622 79.8936 63.1084 80.635L48.0867 95.6566C46.665 97.0099 44.4317 97.0099 43.01 95.6566C41.6166 94.2578 41.6166 91.9955 43.01 90.5966L43.0117 90.595Z" fill="#B3D337"/>
</g>
<defs>
<clipPath id="clip0_2161_374">
<rect width="100" height="100" fill="white"/>
</clipPath>
</defs>
</svg>
