<svg width="100" height="100" viewBox="0 0 100 100" fill="none" xmlns="http://www.w3.org/2000/svg">
<g clip-path="url(#clip0_2179_508)">
<path d="M83.64 38.3333C83.9835 39.3048 84.6187 40.1465 85.4588 40.7432C86.2989 41.3399 87.3029 41.6624 88.3333 41.6667H95C96.3261 41.6667 97.5978 41.1399 98.5355 40.2022C99.4732 39.2645 100 37.9927 100 36.6667V5C100 3.67392 99.4732 2.40215 98.5355 1.46447C97.5978 0.526784 96.3261 0 95 0L88.3333 0C87.3029 0.00427161 86.2989 0.326807 85.4588 0.923479C84.6187 1.52015 83.9835 2.36182 83.64 3.33333H49.0483C46.8964 3.33161 44.7858 3.92329 42.9483 5.04333L16.0417 21.4383C14.9934 22.0708 14.1812 23.0293 13.7295 24.1672C13.2778 25.3051 13.2114 26.5597 13.5406 27.739C13.8698 28.9182 14.5763 29.957 15.5521 30.6965C16.5278 31.436 17.719 31.8353 18.9433 31.8333C20.4583 31.8333 21.13 31.3333 25.47 29.9533C21.8853 34.3366 19.5431 39.6019 18.6879 45.1994C17.8327 50.7969 18.496 56.5213 20.6083 61.775C19.1957 61.6536 17.777 61.6174 16.36 61.6667C16.0165 60.6952 15.3813 59.8535 14.5412 59.2568C13.701 58.6601 12.6971 58.3376 11.6667 58.3333H5C3.67392 58.3333 2.40215 58.8601 1.46447 59.7978C0.526784 60.7355 0 62.0072 0 63.3333L0 95C0 96.3261 0.526784 97.5978 1.46447 98.5355C2.40215 99.4732 3.67392 100 5 100H11.6667C12.6971 99.9957 13.701 99.6732 14.5412 99.0765C15.3813 98.4798 16.0165 97.6382 16.36 96.6667H50.95C53.1019 96.6684 55.2126 96.0767 57.05 94.9567L83.9567 78.5617C85.139 77.8505 86.0173 76.7279 86.4229 75.4091C86.8285 74.0903 86.733 72.6682 86.1547 71.4155C85.5764 70.1628 84.5559 69.1677 83.2891 68.6211C82.0222 68.0744 80.5982 68.0147 79.29 68.4533L74.5333 70.0433C78.1171 65.6599 80.4586 60.3948 81.3135 54.7978C82.1684 49.2007 81.5053 43.4767 79.3933 38.2233C80.8054 38.3445 82.2235 38.3813 83.64 38.3333ZM88.3333 3.33333H95C95.442 3.33333 95.8659 3.50893 96.1785 3.82149C96.4911 4.13405 96.6667 4.55797 96.6667 5V36.6667C96.6667 37.1087 96.4911 37.5326 96.1785 37.8452C95.8659 38.1577 95.442 38.3333 95 38.3333H88.3333C87.8913 38.3333 87.4674 38.1577 87.1548 37.8452C86.8423 37.5326 86.6667 37.1087 86.6667 36.6667V5C86.6667 4.55797 86.8423 4.13405 87.1548 3.82149C87.4674 3.50893 87.8913 3.33333 88.3333 3.33333ZM19.655 28.385C19.1261 28.5579 18.552 28.5305 18.042 28.3079C17.5319 28.0854 17.1214 27.6833 16.8883 27.1779C16.6553 26.6726 16.616 26.0992 16.7779 25.5668C16.9399 25.0344 17.2917 24.58 17.7667 24.29L44.685 7.88833C45.9992 7.08704 47.5091 6.66428 49.0483 6.66667H83.3333V35H81.1317C73.445 35 71.7317 28.3333 63.765 28.3333H55.7817C52.1783 28.3333 48.5367 24.4683 50.7433 21.6667H62.765C66.0718 21.6282 69.2782 20.5247 71.9083 18.52C72.2761 18.2745 72.5313 17.8929 72.6177 17.4592C72.7041 17.0255 72.6147 16.5753 72.3692 16.2075C72.1236 15.8397 71.742 15.5846 71.3084 15.4981C70.8747 15.4117 70.4244 15.5011 70.0567 15.7467C67.976 17.3861 65.4136 18.2951 62.765 18.3333H50.5483C50.0084 18.3534 49.4729 18.4384 48.9533 18.5867L19.655 28.385ZM11.6667 96.6667H5C4.55797 96.6667 4.13405 96.4911 3.82149 96.1785C3.50893 95.8659 3.33333 95.442 3.33333 95V63.3333C3.33333 62.8913 3.50893 62.4674 3.82149 62.1548C4.13405 61.8423 4.55797 61.6667 5 61.6667H11.6667C12.1087 61.6667 12.5326 61.8423 12.8452 62.1548C13.1577 62.4674 13.3333 62.8913 13.3333 63.3333V95C13.3333 95.442 13.1577 95.8659 12.8452 96.1785C12.5326 96.4911 12.1087 96.6667 11.6667 96.6667ZM80.3433 71.615C80.8723 71.4421 81.4463 71.4695 81.9564 71.6921C82.4664 71.9146 82.877 72.3167 83.11 72.8221C83.343 73.3274 83.3823 73.9008 83.2204 74.4332C83.0585 74.9656 82.7066 75.42 82.2317 75.71L55.315 92.1117C54.0001 92.9126 52.4897 93.3353 50.95 93.3333H16.6667V65H18.8667C26.5517 65 28.2633 71.6667 36.2333 71.6667H44.2167C47.8133 71.6667 51.4617 75.5317 49.255 78.3333H37.2333C33.9266 78.3711 30.7204 79.4753 28.0917 81.4817C27.7357 81.7319 27.4918 82.1113 27.4118 82.539C27.3319 82.9666 27.4224 83.4086 27.6639 83.7704C27.9054 84.1323 28.2789 84.3854 28.7045 84.4756C29.1301 84.5658 29.5741 84.4861 29.9417 84.2533C32.0223 82.6139 34.5847 81.7049 37.2333 81.6667H49.45C49.9899 81.6464 50.5254 81.5614 51.045 81.4133L80.3433 71.615ZM67.2183 72.49L53.2583 77.1567C53.7367 73.1567 49.695 68.3233 44.2167 68.3233H36.2333C31.4483 68.3233 28.705 64.4417 24.7417 62.8233C21.7326 56.9258 20.8892 50.1592 22.3585 43.7035C23.8279 37.2478 27.5167 31.5127 32.7817 27.4983L46.74 22.8317C46.2617 26.8317 50.305 31.665 55.7817 31.665H63.765C68.6983 31.665 70.9667 35.415 75.265 37.165C78.2737 43.0632 79.1162 49.8304 77.6456 56.2863C76.1751 62.7421 72.4847 68.4768 67.2183 72.49Z" fill="#B3D337"/>
<path d="M44.1667 27.3533C44.0261 26.9343 43.7248 26.5883 43.3291 26.3913C42.9334 26.1944 42.4757 26.1628 42.0567 26.3033C38.7933 27.3973 35.791 29.1535 33.2377 31.4617C30.6845 33.7699 28.6355 36.5805 27.2189 39.7174C25.8023 42.8543 25.0487 46.2499 25.0053 49.6915C24.9619 53.1332 25.6296 56.5467 26.9667 59.7183C27.1395 60.1252 27.4669 60.4467 27.8768 60.6122C28.2868 60.7777 28.7456 60.7736 29.1525 60.6008C29.5594 60.428 29.881 60.1006 30.0465 59.6906C30.212 59.2807 30.2079 58.8218 30.035 58.4149C28.8776 55.6666 28.2999 52.709 28.3382 49.7271C28.3765 46.7452 29.0299 43.8034 30.2576 41.0857C31.4852 38.368 33.2607 35.933 35.4728 33.9331C37.6849 31.9333 40.286 30.4116 43.1134 29.4633C43.3211 29.394 43.5132 29.2845 43.6786 29.1409C43.844 28.9973 43.9795 28.8226 44.0774 28.6266C44.1752 28.4306 44.2334 28.2173 44.2488 27.9988C44.2641 27.7804 44.2362 27.561 44.1667 27.3533Z" fill="#B3D337"/>
<path d="M69.965 41.5851C71.1224 44.3334 71.7001 47.2911 71.6618 50.2729C71.6235 53.2548 70.9701 56.1967 69.7424 58.9143C68.5148 61.632 66.7393 64.067 64.5272 66.0669C62.3151 68.0668 59.714 69.5885 56.8866 70.5368C56.4667 70.6773 56.1198 70.979 55.9223 71.3753C55.7247 71.7716 55.6927 72.2302 55.8333 72.6501C55.9739 73.07 56.2755 73.4169 56.6718 73.6145C57.0681 73.812 57.5267 73.844 57.9466 73.7034C61.2106 72.6091 64.2133 70.8525 66.7668 68.5437C69.3202 66.2348 71.3693 63.4235 72.7856 60.2859C74.202 57.1483 74.955 53.7519 74.9977 50.3097C75.0403 46.8675 74.3715 43.4535 73.0333 40.2818C72.8605 39.8749 72.5331 39.5533 72.1232 39.3878C71.7132 39.2223 71.2544 39.2264 70.8475 39.3993C70.4406 39.5721 70.119 39.8995 69.9535 40.3094C69.788 40.7193 69.7921 41.1782 69.965 41.5851Z" fill="#B3D337"/>
<path d="M60 55.8335C60 52.0552 56.4517 49.0218 51.6667 48.4418V40.1552C54.5 40.6335 56.6667 42.2685 56.6667 44.1668C56.6667 44.6089 56.8423 45.0328 57.1548 45.3453C57.4674 45.6579 57.8913 45.8335 58.3333 45.8335C58.7754 45.8335 59.1993 45.6579 59.5118 45.3453C59.8244 45.0328 60 44.6089 60 44.1668C60 40.3885 56.4517 37.3552 51.6667 36.7752V35.0002C51.6667 34.5581 51.4911 34.1342 51.1785 33.8217C50.866 33.5091 50.442 33.3335 50 33.3335C49.558 33.3335 49.134 33.5091 48.8215 33.8217C48.5089 34.1342 48.3333 34.5581 48.3333 35.0002V36.7752C43.5483 37.3552 40 40.3885 40 44.1668C40 47.9452 43.5483 50.9785 48.3333 51.5585V59.8452C45.5 59.3668 43.3333 57.7318 43.3333 55.8335C43.3333 55.3915 43.1577 54.9675 42.8452 54.655C42.5326 54.3424 42.1087 54.1668 41.6667 54.1668C41.2246 54.1668 40.8007 54.3424 40.4882 54.655C40.1756 54.9675 40 55.3915 40 55.8335C40 59.6118 43.5483 62.6452 48.3333 63.2252V65.0002C48.3333 65.4422 48.5089 65.8661 48.8215 66.1787C49.134 66.4912 49.558 66.6668 50 66.6668C50.442 66.6668 50.866 66.4912 51.1785 66.1787C51.4911 65.8661 51.6667 65.4422 51.6667 65.0002V63.2252C56.4517 62.6452 60 59.6118 60 55.8335ZM43.3333 44.1668C43.3333 42.2685 45.5 40.6335 48.3333 40.1552V48.1785C45.5 47.7002 43.3333 46.0652 43.3333 44.1668ZM51.6667 59.8452V51.8218C54.5 52.3002 56.6667 53.9352 56.6667 55.8335C56.6667 57.7318 54.5 59.3668 51.6667 59.8452Z" fill="#B3D337"/>
</g>
<defs>
<clipPath id="clip0_2179_508">
<rect width="100" height="100" fill="white"/>
</clipPath>
</defs>
</svg>
