<svg width="100" height="100" viewBox="0 0 100 100" fill="none" xmlns="http://www.w3.org/2000/svg">
<g clip-path="url(#clip0_2179_464)">
<path d="M98.763 47.1157C90.1612 39.0203 80.057 32.6874 69.0217 28.4746C68.9187 28.4242 68.8112 28.3846 68.6999 28.3564C62.7101 26.1775 56.3932 25.0351 50.0191 24.9756C43.6533 25.0351 37.344 26.1752 31.3604 28.348C31.1064 28.3785 30.8632 28.4685 30.6504 28.6095C19.7584 32.8292 9.78388 39.1133 1.27514 47.1172C0.486578 47.8555 0.0396729 48.8865 0.0396729 49.9664C0.0396729 51.0463 0.486578 52.0782 1.27514 52.8164C9.77244 60.8081 19.731 67.0869 30.6054 71.3088C30.6351 71.3309 30.6618 71.3592 30.6923 71.3805C30.9798 71.5979 31.3307 71.7145 31.6914 71.7138C31.7021 71.7115 31.7127 71.7092 31.7234 71.7054C37.598 73.8011 43.7822 74.9001 50.0191 74.9557C56.3665 74.8985 62.6575 73.7653 68.6251 71.604C68.8196 71.5712 69.0064 71.5025 69.1765 71.4026C80.1524 67.1868 90.2016 60.8729 98.763 52.8149C99.5523 52.0774 100 51.0456 100 49.9657C100 48.8858 99.5523 47.8547 98.763 47.1172V47.1157ZM87.601 57.7064C83.6933 60.5511 79.5537 63.0632 75.2257 65.2146C81.6075 56.0507 81.6075 43.8814 75.2257 34.7167C79.5537 36.8689 83.6933 39.3803 87.601 42.2257C88.5772 47.3399 88.5757 52.5929 87.5957 57.7064H87.601ZM13.334 41.9694C13.3492 41.8443 13.3492 41.7185 13.334 41.5942C16.9588 39.0203 20.7788 36.7332 24.759 34.7518C18.4566 43.9195 18.4566 56.0241 24.759 65.1917C20.7788 63.2096 16.9588 60.9202 13.334 58.344C13.3492 58.2197 13.3492 58.0938 13.334 57.9695C12.2899 52.6868 12.2899 47.2514 13.334 41.9694ZM3.37087 49.9657C3.3724 49.8025 3.4418 49.6476 3.56305 49.5378C4.82903 48.3435 6.89501 46.4957 9.58178 44.3832C9.11581 48.0896 9.11581 51.8395 9.58178 55.5451C6.88663 53.4326 4.82903 51.587 3.56305 50.3905C3.44256 50.2814 3.37392 50.1281 3.37087 49.9657ZM32.3183 68.4001C31.0462 67.4133 29.8801 66.296 28.8391 65.0682C24.7316 60.2125 22.78 53.8925 23.4328 47.5656C24.0864 41.2396 27.2894 35.4519 32.303 31.5381C37.9808 29.4591 43.9729 28.367 50.0191 28.3075C56.0157 28.3655 61.9581 29.4408 67.594 31.49C73.3405 35.8965 76.7106 42.726 76.7106 49.9672C76.7106 57.2092 73.3405 64.0386 67.594 68.4451C61.9581 70.492 56.0149 71.5674 50.0191 71.6238C43.9782 71.5651 37.9915 70.4753 32.3183 68.4001ZM96.4758 50.3943C95.3616 51.4467 93.632 53.0048 91.3944 54.8054C91.7444 51.5886 91.7444 48.3435 91.3944 45.126C93.6305 46.9258 95.3616 48.4846 96.4758 49.5378C96.5979 49.6469 96.6673 49.8025 96.6673 49.9657C96.6673 50.1296 96.5979 50.2852 96.4758 50.3943Z" fill="#B3D337"/>
<path d="M2.85145 39.5139C3.19312 39.1905 3.59274 38.8221 4.04117 38.4187C4.72525 37.8033 4.78016 36.7501 4.16471 36.066C3.54927 35.3819 2.49607 35.3262 1.81198 35.9417C1.33991 36.3649 0.920458 36.7531 0.558968 37.0948C-0.109102 37.7278 -0.137319 38.7825 0.495669 39.4506C1.12866 40.1179 2.18338 40.1468 2.85145 39.5139Z" fill="#B3D337"/>
<path d="M74.6041 24.1429C74.8276 24.2467 75.0701 24.3008 75.3157 24.3016C76.0897 24.2955 76.7578 23.7563 76.9279 23.0013C77.0979 22.2463 76.7258 21.473 76.0287 21.1359C75.0289 20.663 74.0077 20.2062 72.9637 19.7662C72.1362 19.4893 71.2363 19.8973 70.8985 20.7012C70.5606 21.5057 70.9008 22.4339 71.6771 22.8304C72.6769 23.2484 73.6485 23.6884 74.6041 24.1429Z" fill="#B3D337"/>
<path d="M65.6577 20.6212C66.2305 20.8126 66.8612 20.6791 67.3073 20.2734C67.7542 19.8677 67.9456 19.2515 67.8091 18.6642C67.6726 18.0762 67.2287 17.608 66.6491 17.441C65.583 17.1077 64.5031 16.8004 63.4087 16.5197C62.5172 16.2894 61.6081 16.8255 61.3778 17.717C61.1482 18.6086 61.6844 19.5184 62.5759 19.7479C63.6207 20.0133 64.6449 20.3115 65.6577 20.6212Z" fill="#B3D337"/>
<path d="M83.0809 28.7726C83.8634 29.2576 84.8907 29.0166 85.3749 28.2342C85.86 27.4525 85.619 26.4252 84.8373 25.9401C83.9107 25.3636 82.9543 24.7924 81.9667 24.2257C81.1682 23.7689 80.1501 24.045 79.6925 24.8442C79.235 25.6427 79.5118 26.6608 80.3103 27.1184C81.2636 27.6645 82.1871 28.2159 83.0809 28.7726Z" fill="#B3D337"/>
<path d="M33.8671 20.7041C34.0364 20.7033 34.205 20.6774 34.3674 20.6278C35.3764 20.3113 36.4006 20.0192 37.4393 19.7531C38.0159 19.6043 38.4696 19.159 38.629 18.5847C38.7884 18.0112 38.6298 17.3957 38.2126 16.971C37.7955 16.5454 37.1831 16.3753 36.6065 16.5241C35.5121 16.8062 34.4315 17.1136 33.3638 17.4453C32.5737 17.6878 32.081 18.4734 32.2061 19.2909C32.3312 20.1077 33.0374 20.7094 33.8641 20.7041H33.8671Z" fill="#B3D337"/>
<path d="M56.3352 18.5299C57.2473 18.6519 58.0855 18.0105 58.2067 17.0984C58.328 16.1863 57.6874 15.3482 56.7752 15.2261C55.6641 15.0774 54.54 14.9668 53.4029 14.8936C52.808 14.8524 52.236 15.1331 51.9035 15.628C51.571 16.123 51.5275 16.7583 51.7899 17.2944C52.053 17.8298 52.5815 18.1852 53.1764 18.2256C54.2357 18.2889 55.2889 18.3903 56.3352 18.5299Z" fill="#B3D337"/>
<path d="M43.6884 18.5336C44.7324 18.3933 45.7879 18.2865 46.8541 18.2133C47.7738 18.1508 48.4686 17.3538 48.406 16.4333C48.3427 15.5136 47.5458 14.8188 46.6253 14.8814C45.4912 14.9584 44.3679 15.069 43.2552 15.2146C42.382 15.326 41.7459 16.097 41.8031 16.9756C41.8603 17.8541 42.5917 18.5367 43.4718 18.5336C43.5442 18.5382 43.6159 18.5382 43.6884 18.5336Z" fill="#B3D337"/>
<path d="M8.99526 34.3056C9.80366 33.6802 10.6616 33.0343 11.5829 32.3746C12.3082 31.8301 12.4645 30.8051 11.9345 30.0691C11.4052 29.3332 10.384 29.1555 9.63664 29.6703C8.68716 30.3536 7.79411 31.0202 6.95826 31.6699C6.47398 32.0291 6.22155 32.6225 6.29858 33.2204C6.3756 33.8183 6.76989 34.3277 7.3289 34.5534C7.88868 34.7784 8.52548 34.6839 8.99526 34.3056Z" fill="#B3D337"/>
<path d="M92.0496 34.6392C92.7626 34.6392 93.3971 34.1854 93.6267 33.5105C93.857 32.8356 93.632 32.0889 93.0669 31.6535C92.2341 31.0083 91.338 30.341 90.3885 29.6538C89.6419 29.1398 88.62 29.3168 88.0907 30.0527C87.5607 30.7886 87.717 31.8136 88.4423 32.3581C89.359 33.0247 90.223 33.6661 91.033 34.2891C91.3235 34.5149 91.6812 34.6377 92.0496 34.6392Z" fill="#B3D337"/>
<path d="M24.7079 24.3091C24.9534 24.3068 25.196 24.2503 25.4171 24.1428C26.3758 23.6898 27.3535 23.2528 28.3495 22.8318C28.9138 22.6114 29.3142 22.1028 29.395 21.5026C29.4759 20.9024 29.225 20.306 28.7392 19.9437C28.2541 19.5822 27.6105 19.5121 27.0583 19.7615C26.0173 20.1992 24.9961 20.6545 23.9925 21.1289C23.2962 21.4667 22.9233 22.24 23.0941 22.995C23.2642 23.7508 23.933 24.2892 24.7079 24.2946V24.3091Z" fill="#B3D337"/>
<path d="M16.068 29.0327C16.3784 29.0319 16.682 28.945 16.9458 28.781C17.8343 28.2258 18.7571 27.6744 19.715 27.1284C20.2366 26.8355 20.5607 26.2849 20.5653 25.6862C20.5691 25.0883 20.2519 24.5339 19.734 24.2342C19.2162 23.9337 18.5771 23.9344 18.06 24.2357C17.0709 24.8023 16.113 25.3735 15.1864 25.9501C14.5534 26.3429 14.2575 27.1078 14.4619 27.8247C14.6671 28.5408 15.3229 29.0342 16.068 29.0327Z" fill="#B3D337"/>
<path d="M98.3337 39.9699C99.0155 39.9699 99.6286 39.5542 99.8818 38.9205C100.134 38.2875 99.9749 37.5637 99.4799 37.0947C99.1184 36.7531 98.6982 36.3649 98.2269 35.9416C97.7876 35.5214 97.1546 35.3735 96.575 35.5557C95.9954 35.7388 95.5607 36.2223 95.4417 36.8179C95.322 37.4135 95.5363 38.0274 96.0008 38.4187C96.4492 38.8221 96.8488 39.1905 97.1905 39.5138C97.4993 39.8059 97.9081 39.9691 98.3337 39.9699Z" fill="#B3D337"/>
<path d="M2.92621 64.4186C3.6164 64.4178 4.23413 63.9923 4.48047 63.3479C4.7268 62.7034 4.55063 61.9743 4.03737 61.5129C3.58971 61.1103 3.18932 60.7419 2.84766 60.4186C2.41982 59.9877 1.79141 59.8237 1.20723 59.9915C0.623049 60.1585 0.176144 60.6306 0.04192 61.2231C-0.0930667 61.815 0.105219 62.4342 0.558988 62.8376C0.920477 63.1709 1.33993 63.5675 1.812 63.9908C2.11782 64.2661 2.51439 64.4186 2.92621 64.4186Z" fill="#B3D337"/>
<path d="M27.0584 80.1653C27.262 80.253 27.4816 80.2972 27.7028 80.2972C28.4967 80.298 29.1808 79.7389 29.3379 78.9611C29.4942 78.1832 29.0809 77.4022 28.3495 77.0949C27.3497 76.6754 26.3727 76.2384 25.4172 75.7839C24.8787 75.5292 24.2457 75.5818 23.7561 75.9204C23.2665 76.2598 22.995 76.8341 23.0438 77.4274C23.0926 78.0207 23.4549 78.5431 23.9926 78.7978C24.9939 79.2699 26.0158 79.726 27.0584 80.1653Z" fill="#B3D337"/>
<path d="M62.9938 83.4645C63.1341 83.4645 63.2737 83.447 63.4087 83.4127C64.5016 83.1328 65.5822 82.8255 66.6491 82.4914C67.2287 82.3236 67.6726 81.8561 67.8091 81.2682C67.9456 80.6802 67.7542 80.0647 67.3073 79.659C66.8612 79.2525 66.2304 79.1198 65.6577 79.3112C64.6449 79.6262 63.6207 79.9191 62.5828 80.1837C61.769 80.3911 61.2367 81.1721 61.3412 82.0056C61.4457 82.8392 62.1542 83.4645 62.9938 83.4645Z" fill="#B3D337"/>
<path d="M81.14 75.9241C81.4329 75.9249 81.7196 75.8494 81.9736 75.7037C82.9597 75.1394 83.9168 74.5682 84.8441 73.9893C85.6258 73.5043 85.8668 72.4778 85.3818 71.6953C84.8968 70.9136 83.8702 70.6726 83.0878 71.1576C82.194 71.7128 81.2704 72.2635 80.3171 72.8103C79.6605 73.1855 79.3394 73.9565 79.5354 74.6871C79.7307 75.4177 80.3941 75.9249 81.1499 75.9218L81.14 75.9241Z" fill="#B3D337"/>
<path d="M53.4029 85.0456C54.5361 84.9679 55.6595 84.8565 56.7752 84.7124C57.3648 84.6338 57.8681 84.2464 58.0954 83.6958C58.3226 83.1459 58.2387 82.516 57.8757 82.0439C57.5127 81.5726 56.9255 81.3301 56.3352 81.4086C55.2889 81.549 54.2334 81.655 53.1695 81.7282C52.2498 81.7594 51.5283 82.5305 51.5596 83.4502C51.5901 84.3707 52.3611 85.0914 53.2816 85.0601L53.4029 85.0456Z" fill="#B3D337"/>
<path d="M46.6139 85.0417H46.729C47.6488 85.073 48.4206 84.353 48.4518 83.4325C48.4831 82.5128 47.7624 81.741 46.8419 81.7098C45.7796 81.6388 44.7241 81.5321 43.677 81.3902C42.7649 81.2689 41.9267 81.9103 41.8062 82.8232C41.685 83.7353 42.3263 84.5727 43.2385 84.6939C44.355 84.848 45.4798 84.9647 46.6139 85.0417Z" fill="#B3D337"/>
<path d="M72.3186 80.3039C72.5405 80.3039 72.7594 80.2597 72.9638 80.1735C74.0055 79.735 75.0275 79.2782 76.0288 78.8046C76.8609 78.4111 77.217 77.4173 76.8235 76.5853C76.43 75.7533 75.437 75.3971 74.6042 75.7906C73.6486 76.2436 72.6686 76.6837 71.6726 77.1016C70.9405 77.409 70.5272 78.1891 70.6843 78.967C70.8414 79.7449 71.5255 80.3047 72.3186 80.3039Z" fill="#B3D337"/>
<path d="M15.1864 73.9812C16.113 74.5555 17.0708 75.1275 18.06 75.6956C18.5771 75.9969 19.2161 75.9976 19.734 75.6979C20.2518 75.3982 20.5691 74.8438 20.5652 74.2451C20.5607 73.6472 20.2365 73.0966 19.7149 72.8037C18.7616 72.2592 17.8388 71.7086 16.9458 71.1511C16.1633 70.6653 15.136 70.9055 14.6502 71.6872C14.1644 72.4697 14.4047 73.4977 15.1864 73.9835V73.9812Z" fill="#B3D337"/>
<path d="M90.3885 70.2707C91.338 69.5881 92.2311 68.9201 93.0669 68.2718C93.542 67.9096 93.7868 67.3208 93.7083 66.729C93.6305 66.1364 93.2408 65.6316 92.6886 65.4058C92.1357 65.1793 91.5043 65.2655 91.033 65.6331C90.223 66.2562 89.359 66.9037 88.4423 67.5641C87.717 68.1086 87.5607 69.1328 88.0907 69.8688C88.62 70.6055 89.6419 70.7824 90.3885 70.2676V70.2707Z" fill="#B3D337"/>
<path d="M36.6111 83.4071C36.7469 83.4415 36.8865 83.459 37.026 83.459C37.8657 83.459 38.5742 82.8336 38.6794 82.0008C38.7839 81.1673 38.2516 80.3863 37.4378 80.1789C36.3984 79.9143 35.3741 79.6229 34.3652 79.3041C33.4866 79.0281 32.5509 79.5169 32.2748 80.3955C31.9987 81.274 32.4868 82.2098 33.3661 82.4859C34.4346 82.8184 35.516 83.1257 36.6111 83.4071Z" fill="#B3D337"/>
<path d="M10.6082 70.5761C11.332 70.5768 11.9734 70.1109 12.1961 69.4222C12.418 68.7335 12.1701 67.9801 11.5829 67.5576C10.6662 66.891 9.80366 66.2512 8.99527 65.6266C8.26695 65.0858 7.23968 65.2277 6.68448 65.9453C6.13004 66.663 6.2513 67.6933 6.95827 68.2622C7.79335 68.9105 8.6864 69.577 9.63665 70.2611C9.91958 70.4662 10.259 70.5768 10.6082 70.5761Z" fill="#B3D337"/>
<path d="M98.2268 63.9905C98.6981 63.5672 99.1183 63.179 99.4798 62.8374C100.148 62.2044 100.176 61.1496 99.5431 60.4816C98.9101 59.8135 97.8554 59.7853 97.1874 60.4183C96.8541 60.7416 96.4461 61.11 95.9976 61.5127C95.5553 61.9108 95.3585 62.5148 95.4821 63.0974C95.6056 63.6801 96.0304 64.1521 96.5971 64.3359C97.1629 64.5205 97.7845 64.3886 98.2268 63.9905Z" fill="#B3D337"/>
<path d="M60.5603 39.2665C53.9703 35.7614 46.0686 35.7614 39.4787 39.2665C38.9639 39.5639 38.6459 40.113 38.6451 40.7079V49.299C38.6444 53.9495 40.7737 58.3446 44.4229 61.2266L48.5884 64.4716C49.4258 65.126 50.601 65.126 51.4391 64.4716L55.6039 61.2243C59.2569 58.3454 61.3893 53.9511 61.3915 49.299V40.7079C61.3915 40.1138 61.0743 39.5647 60.5603 39.2665ZM58.0611 49.2959C58.0642 52.9208 56.4062 56.3465 53.5631 58.594L50.0191 61.3563L46.4706 58.594C43.6274 56.3465 41.9695 52.9208 41.9725 49.2959V41.739C47.073 39.3809 52.9522 39.3809 58.0527 41.739L58.0611 49.2959Z" fill="#B3D337"/>
</g>
<defs>
<clipPath id="clip0_2179_464">
<rect width="100" height="100" fill="white"/>
</clipPath>
</defs>
</svg>
