<svg width="100" height="100" viewBox="0 0 100 100" fill="none" xmlns="http://www.w3.org/2000/svg">
<path d="M52.08 5.50727C51.9909 5.49455 51.9109 5.45455 51.8181 5.45455V1.81818C51.8181 0.812727 51.0036 0 50 0C48.9963 0 48.1818 0.812727 48.1818 1.81818V5.45455C48.089 5.45455 48.009 5.49455 47.92 5.50727C23.8181 6.59818 4.54541 26.5418 4.54541 50.9091V54.5455C4.54541 55.5509 5.35996 56.3636 6.36359 56.3636C7.36723 56.3636 8.18177 55.5509 8.18177 54.5455V51.6109C10.6909 48.8182 13.8909 47.2727 17.2727 47.2727C20.6545 47.2727 23.8545 48.8182 26.3636 51.6109V54.5455C26.3636 55.5509 27.1781 56.3636 28.1818 56.3636C29.1854 56.3636 30 55.5509 30 54.5455V51.6109C32.509 48.8182 35.709 47.2727 39.0909 47.2727C42.4727 47.2727 45.6727 48.8182 48.1818 51.6109V67.2727H46.3636C45.36 67.2727 44.5454 68.0855 44.5454 69.0909C44.5454 70.0964 45.36 70.9091 46.3636 70.9091H48.1818V74.5455H44.5454V87.2727C44.5454 88.2764 43.729 89.0909 42.7272 89.0909C42.0581 89.0909 41.4436 88.7218 41.1236 88.1291C40.2345 86.4782 38.4418 85.4546 36.44 85.4546C34.4618 85.4546 32.6945 86.4782 31.7145 88.1964C30.7236 89.9309 30.74 92 31.76 93.7255C34.0436 97.5964 38.2472 100 42.7272 100C49.7454 100 55.4545 94.2891 55.4545 87.2727V74.5455H51.8181V51.6109C54.3272 48.8182 57.5272 47.2727 60.909 47.2727C64.2909 47.2727 67.4909 48.8182 70 51.6109V54.5455C70 55.5509 70.8145 56.3636 71.8181 56.3636C72.8218 56.3636 73.6363 55.5509 73.6363 54.5455V51.6109C76.1454 48.8182 79.3454 47.2727 82.7272 47.2727C86.109 47.2727 89.309 48.8182 91.8181 51.6109V54.5455C91.8181 55.5509 92.6327 56.3636 93.6363 56.3636C94.64 56.3636 95.4545 55.5509 95.4545 54.5455V50.9091C95.4545 26.5418 76.1818 6.59818 52.08 5.50727ZM51.8181 87.2727C51.8181 92.2855 47.74 96.3636 42.7272 96.3636C39.5272 96.3636 36.5236 94.6455 34.8909 91.8782C34.5436 91.2891 34.5363 90.5855 34.8709 89.9982C35.029 89.7273 35.4927 89.0909 36.44 89.0909C37.0909 89.0909 37.6727 89.3909 37.9218 89.8545C38.8781 91.6273 40.72 92.7273 42.7272 92.7273C45.7345 92.7273 48.1818 90.28 48.1818 87.2727V78.1818H51.8181V87.2727ZM17.2727 43.6364C14.0909 43.6364 11.0581 44.6655 8.40905 46.5545C10.2545 28.7945 23.2636 14.3127 40.2745 10.2455C32.5981 17.0709 27.2472 30.5855 26.4672 46.7945C23.7418 44.7491 20.5872 43.6364 17.2727 43.6364ZM39.0909 43.6364C35.8636 43.6364 32.789 44.6964 30.1127 46.6364C31.1109 27.8909 38.5945 12.78 48.1818 9.68364V46.7182C45.48 44.7236 42.3636 43.6364 39.0909 43.6364ZM60.909 43.6364C57.6363 43.6364 54.52 44.7236 51.8181 46.7182V9.68364C61.4054 12.78 68.889 27.8909 69.8872 46.6364C67.2109 44.6964 64.1363 43.6364 60.909 43.6364ZM82.7272 43.6364C79.4127 43.6364 76.2581 44.7491 73.5327 46.7927C72.7527 30.5836 67.4036 17.0691 59.7254 10.2436C76.7363 14.3127 89.7454 28.7927 91.5909 46.5527C88.9418 44.6655 85.909 43.6364 82.7272 43.6364Z" fill="#B3D337"/>
</svg>
