<svg width="100" height="100" viewBox="0 0 100 100" fill="none" xmlns="http://www.w3.org/2000/svg">
<path d="M52.08 5.50727C51.9909 5.49455 51.9109 5.45455 51.8182 5.45455V1.81818C51.8182 0.812727 51.0037 0 50 0C48.9964 0 48.1818 0.812727 48.1818 1.81818V5.45455C48.0891 5.45455 48.0091 5.49455 47.92 5.50727C23.8182 6.59818 4.54547 26.5418 4.54547 50.9091V54.5455C4.54547 55.5509 5.36002 56.3636 6.36365 56.3636C7.36729 56.3636 8.18183 55.5509 8.18183 54.5455V51.6109C10.6909 48.8182 13.8909 47.2727 17.2727 47.2727C20.6546 47.2727 23.8546 48.8182 26.3637 51.6109V54.5455C26.3637 55.5509 27.1782 56.3636 28.1818 56.3636C29.1855 56.3636 30 55.5509 30 54.5455V51.6109C32.5091 48.8182 35.7091 47.2727 39.0909 47.2727C42.4727 47.2727 45.6727 48.8182 48.1818 51.6109V67.2727H46.3637C45.36 67.2727 44.5455 68.0855 44.5455 69.0909C44.5455 70.0964 45.36 70.9091 46.3637 70.9091H48.1818V74.5455H44.5455V87.2727C44.5455 88.2764 43.7291 89.0909 42.7273 89.0909C42.0582 89.0909 41.4437 88.7218 41.1237 88.1291C40.2346 86.4782 38.4418 85.4545 36.44 85.4545C34.4618 85.4545 32.6946 86.4782 31.7146 88.1964C30.7237 89.9309 30.74 92 31.76 93.7255C34.0437 97.5964 38.2473 100 42.7273 100C49.7455 100 55.4546 94.2891 55.4546 87.2727V74.5455H51.8182V51.6109C54.3273 48.8182 57.5273 47.2727 60.9091 47.2727C64.2909 47.2727 67.4909 48.8182 70 51.6109V54.5455C70 55.5509 70.8146 56.3636 71.8182 56.3636C72.8218 56.3636 73.6364 55.5509 73.6364 54.5455V51.6109C76.1455 48.8182 79.3455 47.2727 82.7273 47.2727C86.1091 47.2727 89.3091 48.8182 91.8182 51.6109V54.5455C91.8182 55.5509 92.6327 56.3636 93.6364 56.3636C94.64 56.3636 95.4546 55.5509 95.4546 54.5455V50.9091C95.4546 26.5418 76.1818 6.59818 52.08 5.50727ZM51.8182 87.2727C51.8182 92.2855 47.74 96.3636 42.7273 96.3636C39.5273 96.3636 36.5237 94.6455 34.8909 91.8782C34.5437 91.2891 34.5364 90.5855 34.8709 89.9982C35.0291 89.7273 35.4927 89.0909 36.44 89.0909C37.0909 89.0909 37.6727 89.3909 37.9218 89.8545C38.8782 91.6273 40.72 92.7273 42.7273 92.7273C45.7346 92.7273 48.1818 90.28 48.1818 87.2727V78.1818H51.8182V87.2727ZM17.2727 43.6364C14.0909 43.6364 11.0582 44.6655 8.40911 46.5545C10.2546 28.7945 23.2637 14.3127 40.2746 10.2455C32.5982 17.0709 27.2473 30.5855 26.4673 46.7945C23.7418 44.7491 20.5873 43.6364 17.2727 43.6364ZM39.0909 43.6364C35.8637 43.6364 32.7891 44.6964 30.1127 46.6364C31.1109 27.8909 38.5946 12.78 48.1818 9.68364V46.7182C45.48 44.7236 42.3637 43.6364 39.0909 43.6364ZM60.9091 43.6364C57.6364 43.6364 54.52 44.7236 51.8182 46.7182V9.68364C61.4055 12.78 68.8891 27.8909 69.8873 46.6364C67.2109 44.6964 64.1364 43.6364 60.9091 43.6364ZM82.7273 43.6364C79.4127 43.6364 76.2582 44.7491 73.5327 46.7927C72.7527 30.5836 67.4036 17.0691 59.7255 10.2436C76.7364 14.3127 89.7455 28.7927 91.5909 46.5527C88.9418 44.6655 85.9091 43.6364 82.7273 43.6364Z" fill="#B3D337"/>
</svg>
