<svg width="70" height="70" viewBox="0 0 70 70" fill="none" xmlns="http://www.w3.org/2000/svg">
<path d="M70 53.157C69.6753 54.6609 69.0771 55.9939 67.8296 56.9851C66.6504 57.9251 65.3003 58.3181 63.8306 58.3181C44.6045 58.3181 25.3784 58.3181 6.15234 58.3181C2.78564 58.3181 0.461426 56.0623 0.0854492 53.345C0.0683594 53.2766 0.0341797 53.2254 0 53.157C0 52.3367 0 51.5164 0 50.6961C0.341797 49.8587 0.974121 49.534 1.87988 49.5511C3.16162 49.5852 4.46045 49.5681 5.84473 49.5681C5.84473 49.1922 5.84473 48.9016 5.84473 48.6111C5.84473 38.3914 5.86182 28.1546 5.84473 17.9348C5.84473 15.867 6.51123 14.158 8.15186 12.8592C9.2627 11.9705 10.5786 11.6287 11.9629 11.6287C27.3096 11.6287 42.6733 11.6116 58.02 11.6287C61.7114 11.6287 64.1382 14.1238 64.1382 17.8494C64.1553 28.1033 64.1382 38.3572 64.1382 48.594C64.1382 48.8845 64.1382 49.1751 64.1382 49.5511C65.5225 49.5511 66.8042 49.5852 68.103 49.534C69.0088 49.4998 69.6411 49.8245 69.9829 50.679C70 51.5164 70 52.3367 70 53.157ZM61.25 49.534C61.25 49.2776 61.25 49.0554 61.25 48.8333C61.25 38.511 61.25 28.1887 61.25 17.8836C61.25 15.7473 60.105 14.5852 57.9688 14.5852C42.6563 14.5852 27.3608 14.5852 12.0483 14.5852C9.89502 14.5852 8.75 15.7303 8.75 17.8665C8.75 28.1887 8.75 38.511 8.75 48.8162C8.75 49.0555 8.76709 49.2947 8.78418 49.534C26.3013 49.534 43.75 49.534 61.25 49.534ZM2.83691 52.4734C3.0249 53.0203 3.09326 53.5159 3.33252 53.9431C3.99902 55.1053 5.07568 55.3958 6.35742 55.3958C25.4468 55.3787 44.5361 55.3787 63.6255 55.3787C63.9502 55.3787 64.2578 55.3787 64.5825 55.3445C65.9839 55.1736 67.0264 53.9431 66.9922 52.4734C66.7529 52.4734 66.4966 52.4734 66.2573 52.4734C58.7207 52.4734 51.1841 52.4734 43.6304 52.4563C43.0835 52.4563 42.6733 52.576 42.3315 53.0032C41.7676 53.7381 41.0156 53.9602 40.1099 53.9431C36.709 53.909 33.3252 53.909 29.9243 53.9431C28.9673 53.9602 28.1812 53.721 27.583 52.9519C27.2754 52.5589 26.8994 52.4392 26.4038 52.4563C18.833 52.4734 11.2451 52.4734 3.65723 52.4734C3.43506 52.4734 3.21289 52.4734 2.83691 52.4734Z" fill="#B3D337"/>
</svg>
