<svg width="100" height="100" viewBox="0 0 100 100" fill="none" xmlns="http://www.w3.org/2000/svg">
<g clip-path="url(#clip0_2161_113)">
<path d="M100 28.3337C99.9927 21.8935 94.7737 16.6744 88.3334 16.6671H38.3334C37.3101 16.6634 36.2913 16.8031 35.3067 17.0821C34.6834 17.2321 18.2201 23.4387 8.46172 27.1237H8.44839C6.54644 27.6545 4.81568 28.6718 3.42672 30.0754C1.22038 32.2553 -0.0148073 35.2321 5.50171e-05 38.3337C0.00282165 42.4341 2.15971 46.2314 5.68006 48.3337C2.16118 50.4375 0.0048139 54.2339 5.50171e-05 58.3337C0.00656715 62.4352 2.16632 66.232 5.68839 68.3337C1.18106 71.0201 -0.975401 76.3873 0.42026 81.4454C1.81592 86.5036 6.41956 90.0055 11.6667 90.0004H61.6667C63.391 89.9989 65.0932 89.6117 66.6484 88.8671C66.6606 88.8679 66.6729 88.8679 66.6851 88.8671L93.5001 78.7954C97.3296 76.9088 99.8191 73.0773 99.9871 68.8116C100.155 64.5459 97.9744 60.5305 94.3051 58.3487C95.1368 57.8667 95.8988 57.2735 96.5701 56.5854C98.776 54.4076 100.012 51.4335 100 48.3337C99.9855 44.2383 97.8297 40.4489 94.3167 38.3437C95.1448 37.862 95.9038 37.2705 96.5734 36.5854C98.7781 34.4071 100.013 31.433 100 28.3337ZM36.2251 20.2854C36.9113 20.0936 37.6208 19.9977 38.3334 20.0004H88.3334C92.9335 20.0059 96.6612 23.7336 96.6667 28.3337C96.6769 30.5455 95.7956 32.6681 94.2217 34.2221C93.6555 34.8114 92.9926 35.2996 92.2617 35.6654C92.1717 35.7137 92.0951 35.7587 92.0101 35.8021C89.7617 36.6354 85.8034 38.1221 79.6684 40.4254L72.2617 43.2071C73.9268 39.596 73.6365 35.3853 71.4916 32.037C69.3467 28.6886 65.6432 26.6644 61.6667 26.6671H19.1201C27.4184 23.5421 35.5467 20.5004 36.2251 20.2854ZM3.33339 38.3337C3.32389 36.118 4.20837 33.9921 5.78672 32.4371C6.79414 31.4143 8.05749 30.6804 9.44506 30.3121C9.48672 30.2987 9.53506 30.2837 9.58339 30.2654C10.2634 30.0872 10.9637 29.9982 11.6667 30.0004H61.6667C66.2668 30.0059 69.9946 33.7336 70.0001 38.3337C69.9879 41.4519 68.2479 44.3062 65.4817 45.7454C65.4329 45.7641 65.3851 45.7852 65.3384 45.8087C64.1988 46.3789 62.941 46.6729 61.6667 46.6671H11.6667C7.06663 46.6616 3.3389 42.9338 3.33339 38.3337ZM3.33339 58.3337C3.34164 53.7348 7.06777 50.0087 11.6667 50.0004H61.6667C66.2668 50.0059 69.9946 53.7336 70.0001 58.3337C69.9879 61.4519 68.2479 64.3062 65.4817 65.7454C65.4329 65.7641 65.3851 65.7852 65.3384 65.8087C64.1988 66.3789 62.941 66.6729 61.6667 66.6671H11.6667C7.06663 66.6616 3.3389 62.9338 3.33339 58.3337ZM11.6667 86.6671C7.06435 86.6671 3.33339 82.9361 3.33339 78.3337C3.33339 73.7314 7.06435 70.0004 11.6667 70.0004H61.6667C66.2691 70.0004 70.0001 73.7314 70.0001 78.3337C70.0001 82.9361 66.2691 86.6671 61.6667 86.6671H11.6667ZM96.6667 68.3337C96.6768 70.5451 95.7962 72.6675 94.2234 74.2221C93.6242 74.8288 92.9356 75.3402 92.1817 75.7387L72.2501 83.2137C74.7337 77.8763 72.8274 71.5247 67.8151 68.4371L89.8151 60.1837C93.7676 60.889 96.6511 64.3188 96.6667 68.3337ZM96.6667 48.3337C96.6769 50.5455 95.7956 52.6681 94.2217 54.2221C93.6555 54.8114 92.9926 55.2996 92.2617 55.6654C92.1701 55.7154 92.0834 55.7604 92.0067 55.8037L72.2601 63.2087C74.7285 57.8694 72.8202 51.5275 67.8151 48.4371L80.8334 43.5471C84.6367 42.1187 87.5917 41.0087 89.8334 40.1704C93.779 40.8924 96.6504 44.3227 96.6667 48.3337Z" fill="#B3D337"/>
<path d="M65.0002 38.3337C65.0002 37.4132 64.254 36.667 63.3335 36.667H10.0002C9.07969 36.667 8.3335 37.4132 8.3335 38.3337C8.3335 39.2541 9.07969 40.0003 10.0002 40.0003H63.3335C64.254 40.0003 65.0002 39.2541 65.0002 38.3337Z" fill="#B3D337"/>
<path d="M65.0002 58.3337C65.0002 57.4132 64.254 56.667 63.3335 56.667H10.0002C9.07969 56.667 8.3335 57.4132 8.3335 58.3337C8.3335 59.2541 9.07969 60.0003 10.0002 60.0003H63.3335C64.254 60.0003 65.0002 59.2541 65.0002 58.3337Z" fill="#B3D337"/>
<path d="M63.3335 76.667H10.0002C9.07969 76.667 8.3335 77.4132 8.3335 78.3337C8.3335 79.2541 9.07969 80.0003 10.0002 80.0003H63.3335C64.254 80.0003 65.0002 79.2541 65.0002 78.3337C65.0002 77.4132 64.254 76.667 63.3335 76.667Z" fill="#B3D337"/>
<path d="M16.6667 3.3335C15.7462 3.3335 15 4.07969 15 5.00016V8.3335C15 9.25397 15.7462 10.0002 16.6667 10.0002C17.5871 10.0002 18.3333 9.25397 18.3333 8.3335V5.00016C18.3333 4.07969 17.5871 3.3335 16.6667 3.3335Z" fill="#B3D337"/>
<path d="M15 18.3335C15 19.254 15.7462 20.0002 16.6667 20.0002C17.5871 20.0002 18.3333 19.254 18.3333 18.3335V15.0002C18.3333 14.0797 17.5871 13.3335 16.6667 13.3335C15.7462 13.3335 15 14.0797 15 15.0002V18.3335Z" fill="#B3D337"/>
<path d="M13.3335 10H10.0002C9.07969 10 8.3335 10.7462 8.3335 11.6667C8.3335 12.5871 9.07969 13.3333 10.0002 13.3333H13.3335C14.254 13.3333 15.0002 12.5871 15.0002 11.6667C15.0002 10.7462 14.254 10 13.3335 10Z" fill="#B3D337"/>
<path d="M20.0002 13.3333H23.3335C24.254 13.3333 25.0002 12.5871 25.0002 11.6667C25.0002 10.7462 24.254 10 23.3335 10H20.0002C19.0797 10 18.3335 10.7462 18.3335 11.6667C18.3335 12.5871 19.0797 13.3333 20.0002 13.3333Z" fill="#B3D337"/>
<path d="M97.0118 91.3219C96.3578 90.6902 95.3183 90.6993 94.6754 91.3422C94.0325 91.985 94.0235 93.0246 94.6551 93.6785L97.1551 96.1785C97.8091 96.8101 98.8486 96.8011 99.4915 96.1582C100.134 95.5153 100.143 94.4758 99.5118 93.8219L97.0118 91.3219Z" fill="#B3D337"/>
<path d="M89.6551 88.6785C90.3091 89.3101 91.3486 89.3011 91.9915 88.6582C92.6344 88.0153 92.6434 86.9758 92.0118 86.3219L89.5118 83.8219C88.8578 83.1902 87.8183 83.1993 87.1754 83.8422C86.5325 84.485 86.5235 85.5246 87.1551 86.1785L89.6551 88.6785Z" fill="#B3D337"/>
<path d="M87.155 96.1785C87.8058 96.8292 88.8608 96.8292 89.5116 96.1785L92.0116 93.6785C92.6433 93.0246 92.6342 91.985 91.9913 91.3422C91.3484 90.6993 90.3089 90.6902 89.655 91.3219L87.155 93.8219C86.5043 94.4727 86.5043 95.5277 87.155 96.1785Z" fill="#B3D337"/>
<path d="M97.1551 83.8219L94.6551 86.3219C94.2218 86.7403 94.0481 87.36 94.2006 87.9427C94.3531 88.5254 94.8082 88.9805 95.3909 89.133C95.9736 89.2855 96.5933 89.1118 97.0118 88.6785L99.5118 86.1785C100.143 85.5246 100.134 84.485 99.4915 83.8422C98.8486 83.1993 97.8091 83.1902 97.1551 83.8219Z" fill="#B3D337"/>
</g>
<defs>
<clipPath id="clip0_2161_113">
<rect width="100" height="100" fill="white"/>
</clipPath>
</defs>
</svg>
