<svg width="100" height="100" viewBox="0 0 100 100" fill="none" xmlns="http://www.w3.org/2000/svg">
<g clip-path="url(#clip0_2179_513)">
<path d="M10 73.3335H23.3333C28.8539 73.328 33.3278 68.8541 33.3333 63.3335V61.6668C33.3333 59.8259 31.8409 58.3335 30 58.3335H29.5L18.905 29.5852C19.6853 29.3043 20.406 28.8798 21.03 28.3335H38.4617C38.931 31.5163 40.6938 34.3641 43.3333 36.2035V80.0002H38.3333C31.8931 80.0075 26.674 85.2266 26.6667 91.6668C26.6667 93.5078 28.1591 95.0002 30 95.0002H70C71.8409 95.0002 73.3333 93.5078 73.3333 91.6668C73.326 85.2266 68.1069 80.0075 61.6667 80.0002H56.6667V36.2035C59.3062 34.3641 61.069 31.5163 61.5383 28.3335H78.97C79.594 28.8798 80.3147 29.3043 81.095 29.5852L70.5 58.3335H70C68.159 58.3335 66.6667 59.8259 66.6667 61.6668V63.3335C66.6722 68.8541 71.1461 73.328 76.6667 73.3335H90C95.5206 73.328 99.9945 68.8541 100 63.3335V61.6668C100 59.8259 98.5076 58.3335 96.6667 58.3335H96.1667L85.5717 29.5852C88.1042 28.6974 89.8544 26.3737 90.0086 23.6945C90.1628 21.0153 88.6906 18.5062 86.2766 17.3339C83.8626 16.1615 80.9804 16.5558 78.97 18.3335H58.9233C58.27 17.0285 57.505 15.6135 56.6133 14.0718C55.1883 11.5868 53.7483 9.31349 52.78 7.84516C52.1641 6.90489 51.1157 6.33838 49.9917 6.33838C48.8676 6.33838 47.8193 6.90489 47.2033 7.84516C46.2433 9.31349 44.8033 11.5868 43.3817 14.0652C42.4883 15.6102 41.715 17.0268 41.0683 18.3335H21.03C19.0192 16.5646 16.1428 16.1761 13.7348 17.3482C11.3267 18.5202 9.85791 21.0236 10.0095 23.6975C10.161 26.3713 11.9033 28.6927 14.4283 29.5852L3.83333 58.3335H3.33333C1.49238 58.3335 0 59.8259 0 61.6668V63.3335C0.0055123 68.8541 4.47944 73.328 10 73.3335ZM70 91.6668H30C30.0055 87.0667 33.7332 83.339 38.3333 83.3335H61.6667C66.2668 83.339 69.9945 87.0667 70 91.6668ZM46.6667 80.0002V37.8485C48.8428 38.4885 51.1572 38.4885 53.3333 37.8485V80.0002H46.6667ZM96.6667 63.3335C96.6667 67.0154 93.6819 70.0002 90 70.0002H76.6667C72.9848 70.0002 70 67.0154 70 63.3335V61.6668H96.6667V63.3335ZM74.0567 58.3335L83.3333 33.1552L92.61 58.3335H74.0567ZM83.3333 20.0002C85.1743 20.0002 86.6667 21.4925 86.6667 23.3335C86.6667 25.1744 85.1743 26.6668 83.3333 26.6668C81.4924 26.6668 80 25.1744 80 23.3335C80 21.4925 81.4924 20.0002 83.3333 20.0002ZM76.9033 21.6668C76.5878 22.7555 76.5878 23.9115 76.9033 25.0002H61.4667C61.2264 23.8602 60.8828 22.7444 60.44 21.6668H76.9033ZM46.28 15.7285C47.6667 13.3135 49.0683 11.0985 50 9.66682C50.9333 11.1002 52.3333 13.3152 53.725 15.7368C57.8833 22.9235 58.3333 25.7752 58.3333 26.6668C58.3291 29.6398 56.7413 32.3853 54.1667 33.8718H54.155C51.5864 35.3568 48.4203 35.3568 45.8517 33.8718H45.84C43.2628 32.387 41.6723 29.6412 41.6667 26.6668C41.6667 25.7752 42.1167 22.9235 46.28 15.7285ZM38.5333 25.0002H23.0967C23.4122 23.9115 23.4122 22.7555 23.0967 21.6668H39.56C39.1172 22.7444 38.7736 23.8602 38.5333 25.0002ZM13.3333 23.3335C13.3333 21.4925 14.8257 20.0002 16.6667 20.0002C18.5076 20.0002 20 21.4925 20 23.3335C20 25.1744 18.5076 26.6668 16.6667 26.6668C14.8257 26.6668 13.3333 25.1744 13.3333 23.3335ZM16.6667 33.1552L25.9433 58.3335H7.39L16.6667 33.1552ZM3.33333 61.6668H30V63.3335C30 67.0154 27.0152 70.0002 23.3333 70.0002H10C6.3181 70.0002 3.33333 67.0154 3.33333 63.3335V61.6668Z" fill="#B3D337"/>
<path d="M50 31.667C52.7614 31.667 55 29.4284 55 26.667C55 23.9056 52.7614 21.667 50 21.667C47.2386 21.667 45 23.9056 45 26.667C45 29.4284 47.2386 31.667 50 31.667ZM50 25.0003C50.9205 25.0003 51.6667 25.7465 51.6667 26.667C51.6667 27.5875 50.9205 28.3337 50 28.3337C49.0795 28.3337 48.3333 27.5875 48.3333 26.667C48.3333 25.7465 49.0795 25.0003 50 25.0003Z" fill="#B3D337"/>
</g>
<defs>
<clipPath id="clip0_2179_513">
<rect width="100" height="100" fill="white"/>
</clipPath>
</defs>
</svg>
