<svg width="100" height="100" viewBox="0 0 100 100" fill="none" xmlns="http://www.w3.org/2000/svg">
<g clip-path="url(#clip0_2179_412)">
<path d="M95 13.3335H5C2.23858 13.3335 0 15.5721 0 18.3335V81.6668C0 84.4283 2.23858 86.6668 5 86.6668H95C97.7614 86.6668 100 84.4283 100 81.6668V18.3335C100 15.5721 97.7614 13.3335 95 13.3335ZM5 16.6668H95C95.9205 16.6668 96.6667 17.413 96.6667 18.3335V25.0002H3.33333V18.3335C3.33333 17.413 4.07953 16.6668 5 16.6668ZM95 83.3335H5C4.07953 83.3335 3.33333 82.5873 3.33333 81.6668V28.3335H96.6667V81.6668C96.6667 82.5873 95.9205 83.3335 95 83.3335Z" fill="#B3D337"/>
<path d="M33.3333 31.667H10C8.15906 31.667 6.66667 33.1594 6.66667 35.0003V60.0003C6.66667 61.8413 8.15906 63.3337 10 63.3337H33.3333C35.1743 63.3337 36.6667 61.8413 36.6667 60.0003V35.0003C36.6667 33.1594 35.1743 31.667 33.3333 31.667ZM16.6667 60.0003V56.667C16.6667 53.9056 18.9052 51.667 21.6667 51.667C24.4281 51.667 26.6667 53.9056 26.6667 56.667V60.0003H16.6667ZM18.3333 45.0003C18.3333 43.1594 19.8257 41.667 21.6667 41.667C23.5076 41.667 25 43.1594 25 45.0003C25 46.8413 23.5076 48.3337 21.6667 48.3337C19.8257 48.3337 18.3333 46.8413 18.3333 45.0003ZM30 60.0003V56.667C29.9988 53.8959 28.6202 51.3066 26.3217 49.7587C28.2627 47.8653 28.8637 44.985 27.8416 42.4735C26.8196 39.9619 24.3782 38.3196 21.6667 38.3196C18.9551 38.3196 16.5138 39.9619 15.4917 42.4735C14.4697 44.985 15.0706 47.8653 17.0117 49.7587C14.7132 51.3066 13.3346 53.8959 13.3333 56.667V60.0003H10V35.0003H33.3333V60.0003H30Z" fill="#B3D337"/>
<path d="M91.4717 65.0118L89.69 65.2218L88.7783 61.5768C89.4944 61.3867 89.9948 60.741 90 60.0002C90 59.0797 89.2538 58.3335 88.3333 58.3335H71.6667C70.7462 58.3335 70 59.0797 70 60.0002C70.0068 60.7976 70.5852 61.475 71.3717 61.6068L70.38 67.5002L63.1383 68.3518C62.2832 68.4774 61.6658 69.2358 61.7166 70.0987C61.7674 70.9616 62.4693 71.6424 63.3333 71.6668V76.6668C63.3333 78.5078 64.8257 80.0002 66.6667 80.0002H81.6667C87.1872 79.9947 91.6612 75.5207 91.6667 70.0002V68.3452L91.8617 68.3218C92.7635 68.2007 93.4016 67.3787 93.2951 66.475C93.1886 65.5713 92.377 64.92 91.4717 65.0118ZM85.3667 61.6668L86.3533 65.6135L81.6667 66.1668V61.6668H85.3667ZM74.7433 61.6668H78.3333V66.5568L73.8333 67.0868L74.7433 61.6668ZM88.3333 70.0002C88.3333 73.6821 85.3486 76.6668 81.6667 76.6668H66.6667V71.2868L88.3333 68.7368V70.0002Z" fill="#B3D337"/>
<path d="M35 76.667H20.7717C21.3596 75.6546 21.6685 74.5044 21.6667 73.3337V71.667C21.6667 68.9056 19.4281 66.667 16.6667 66.667C13.9052 66.667 11.6667 68.9056 11.6667 71.667V73.3337C11.6648 74.5044 11.9737 75.6546 12.5617 76.667H10C9.07952 76.667 8.33333 77.4132 8.33333 78.3337C8.33333 79.2541 9.07952 80.0003 10 80.0003H15C15.5622 80.0005 16.1221 79.9299 16.6667 79.7903C17.2112 79.9299 17.7712 80.0005 18.3333 80.0003H35C35.9205 80.0003 36.6667 79.2541 36.6667 78.3337C36.6667 77.4132 35.9205 76.667 35 76.667ZM18.3333 73.3337C18.3327 74.5239 17.6975 75.6235 16.6667 76.2187C15.6359 75.6235 15.0006 74.5239 15 73.3337V71.667C15 70.7465 15.7462 70.0003 16.6667 70.0003C17.5871 70.0003 18.3333 70.7465 18.3333 71.667V73.3337Z" fill="#B3D337"/>
<path d="M43.3333 41.667H86.6667C88.5076 41.667 90 40.1746 90 38.3337V35.0003C90 33.1594 88.5076 31.667 86.6667 31.667H43.3333C41.4924 31.667 40 33.1594 40 35.0003V38.3337C40 40.1746 41.4924 41.667 43.3333 41.667ZM43.3333 35.0003H86.6667V38.3337H43.3333V35.0003Z" fill="#B3D337"/>
<path d="M41.6667 48.3333H86.6667C87.5871 48.3333 88.3333 47.5871 88.3333 46.6667C88.3333 45.7462 87.5871 45 86.6667 45H41.6667C40.7462 45 40 45.7462 40 46.6667C40 47.5871 40.7462 48.3333 41.6667 48.3333Z" fill="#B3D337"/>
<path d="M41.6667 55.0003H86.6667C87.5871 55.0003 88.3333 54.2541 88.3333 53.3337C88.3333 52.4132 87.5871 51.667 86.6667 51.667H41.6667C40.7462 51.667 40 52.4132 40 53.3337C40 54.2541 40.7462 55.0003 41.6667 55.0003Z" fill="#B3D337"/>
<path d="M60 58.3335H41.6667C40.7462 58.3335 40 59.0797 40 60.0002C40 60.9206 40.7462 61.6668 41.6667 61.6668H60C60.9205 61.6668 61.6667 60.9206 61.6667 60.0002C61.6667 59.0797 60.9205 58.3335 60 58.3335Z" fill="#B3D337"/>
</g>
<defs>
<clipPath id="clip0_2179_412">
<rect width="100" height="100" fill="white"/>
</clipPath>
</defs>
</svg>
