<svg width="100" height="100" viewBox="0 0 100 100" fill="none" xmlns="http://www.w3.org/2000/svg">
<g clip-path="url(#clip0_2179_802)">
<path d="M13.5 0.833008C9.8334 0.833008 6.5 2.16641 4 4.66641C1.3334 7.33301 0 10.6662 0 14.1662C0 17.8328 1.5 21.1662 4 23.6662C6.5 26.1662 10 27.6662 13.3334 27.4996C13.3334 27.4996 13.5 27.4996 13.6668 27.4996C17.0002 27.4996 20.1668 26.1662 22.6668 23.6662C25.1668 21.1662 26.6668 17.8328 26.6668 14.1662C26.8334 10.6662 25.3334 7.33281 22.8334 4.83281C20.3334 2.16621 17 0.833008 13.5 0.833008ZM20.3334 21.333C18.5 23.1664 16 24.333 13.3334 24.1664C10.8334 24.1664 8.1668 23.1664 6.3334 21.333C4.3334 19.4996 3.3334 16.833 3.3334 14.1664C3.3334 11.4998 4.3334 8.9998 6.3334 6.9998C8.1668 5.16641 10.6668 4.16641 13.5 4.16641C16 4.16641 18.5 5.16641 20.3334 6.9998C22.3334 8.9998 23.3334 11.4998 23.3334 14.1664C23.3334 16.833 22.3334 19.4996 20.3334 21.333Z" fill="#B3D337"/>
<path d="M20 30.833H6.5C3.8334 30.833 1.6666 32.9996 1.6666 35.833V94.1664C1.6666 96.833 4 99.1664 6.6666 99.1664H20C22.6666 99.1664 25 96.833 25 94.333V35.833C25 33.1662 22.6666 30.833 20 30.833ZM21.6666 94.333C21.6666 95.1664 20.8332 95.833 20 95.833H6.6666C5.8332 95.833 5 94.9996 5 94.1664V35.833C5 34.9996 5.6666 34.1664 6.5 34.1664H20C20.8334 34.1664 21.6666 34.9998 21.6666 35.833V94.333Z" fill="#B3D337"/>
<path d="M76.6666 29.166H73.1666C66.6666 29.166 60.5 31.9994 56.5 36.4994V34.166C56.5 32.4994 54.8334 30.8326 53.1666 30.8326H36.5C35 30.8326 33.1666 32.166 33.1666 33.9992V96.1658C33.1666 97.9992 35 99.1658 36.5 99.1658H54.8334C56.3334 99.1658 58.1668 97.9992 58.1668 96.1658V60.1658C58.1668 54.6658 62.1668 50.3324 67.3334 50.3324C70 50.3324 72.5 51.3324 74.3334 53.1658C76 54.6658 76.6668 56.9992 76.6668 59.9992V95.8326C76.6668 97.4992 78.3334 99.166 80.0002 99.166H96.6668C98.3334 99.166 100 97.4994 100 95.8326V52.8326C100 39.4994 89.8334 29.166 76.6666 29.166ZM96.6666 95.666L96.5 95.8326H80.1666L80 59.9994C80 55.9994 79 52.9994 76.8334 50.8328C74.3334 48.3328 71 46.9994 67.5 46.9994C60.5 47.166 55 52.8328 55 60.166V95.8326H36.6666V34.166H53.1666L53.3332 34.3326V44.8326L57.8332 40.3326L57.9998 40.166C61.3332 35.4994 67.1664 32.4994 73.3332 32.4994H76.8332C87.9998 32.4994 96.6666 41.4994 96.6666 52.8328V95.666Z" fill="#B3D337"/>
</g>
<defs>
<clipPath id="clip0_2179_802">
<rect width="100" height="100" fill="white"/>
</clipPath>
</defs>
</svg>
