<svg width="100" height="100" viewBox="0 0 100 100" fill="none" xmlns="http://www.w3.org/2000/svg">
<g clip-path="url(#clip0_2161_321)">
<path d="M92.4161 0.00390625H39.2395C34.8537 0.227716 31.4706 3.94928 31.6645 8.33661V76.6643C31.6645 76.6893 31.6776 76.71 31.6788 76.7346C31.6842 76.9228 31.7217 77.1089 31.7899 77.2845L31.8002 77.3197L31.803 77.3291L35.7472 86.3924C36.2296 87.5501 37.3527 88.3111 38.6067 88.3299H39.9974V94.9959C40.0031 95.565 40.107 96.1288 40.3046 96.6624H19.9987V66.6649C19.9958 63.905 17.759 61.6683 14.9991 61.6653V33.2187C21.9829 32.3389 27.0794 26.1814 26.6386 19.1562C26.1978 12.131 20.3715 6.65882 13.3325 6.65882C6.29341 6.65882 0.467334 12.131 0.0265507 19.1562C-0.414233 26.1814 4.68221 32.3389 11.666 33.2187V61.6653C8.90608 61.6683 6.66935 63.905 6.66642 66.6649V96.6624H1.66684C0.746412 96.6624 0.00038105 97.4084 0.00038105 98.3288C0.00038105 99.2493 0.746412 99.9953 1.66684 99.9953H98.3253C99.2458 99.9953 99.9918 99.2491 99.9918 98.3288C99.9918 97.4086 99.2458 96.6624 98.3253 96.6624H91.3521C91.5497 96.1286 91.6536 95.5648 91.6591 94.9959V88.3299H93.049C94.3024 88.3107 95.4252 87.5507 95.9085 86.3941L99.8535 77.3291L99.8562 77.3203C99.8613 77.3083 99.8623 77.2953 99.8672 77.2832C99.9355 77.107 99.9732 76.9205 99.9783 76.7316C99.9793 76.708 99.992 76.6881 99.992 76.6643V8.33661C100.186 3.94908 96.8022 0.22752 92.4161 0.00390625ZM3.3335 20.0022C3.3335 14.4798 7.81027 10.0031 13.3327 10.0031C18.855 10.0031 23.3318 14.4798 23.3318 20.0022C23.3318 25.5246 18.855 30.0014 13.3327 30.0014C7.81262 29.9953 3.33955 25.5221 3.3335 20.0022ZM16.6656 96.6626H9.99954V66.6651C10.0007 65.7453 10.7462 64.9998 11.666 64.9986H14.9991C15.919 64.9998 16.6644 65.7453 16.6656 66.6651V96.6626ZM49.9962 94.9959C49.995 95.9158 49.2496 96.6612 48.3297 96.6624H44.9966C44.0768 96.6612 43.3313 95.9158 43.3301 94.9959V88.3299H49.9962V94.9959ZM53.0221 96.6626C53.2197 96.1288 53.3236 95.565 53.3291 94.9961V88.3301H78.327V94.9961C78.3327 95.5652 78.4366 96.129 78.6342 96.6626H53.0221ZM88.3264 94.9959C88.3254 95.916 87.5799 96.6616 86.6599 96.6624H83.3268C82.4067 96.6614 81.6611 95.916 81.6603 94.9959V88.3299H88.3264V94.9959ZM92.8816 84.9968H38.7749L35.8739 78.3307H95.7835L92.8816 84.9968ZM58.3289 74.9976V71.6645C58.3301 70.7446 59.0755 69.9992 59.9953 69.998H71.661C72.5808 69.9992 73.3262 70.7446 73.3274 71.6645V74.9976H58.3289ZM96.6589 8.33661V74.9976H76.6605V71.6645C76.6576 68.9046 74.4209 66.6678 71.661 66.6649H59.9953C57.2354 66.6678 54.9987 68.9046 54.9958 71.6645V74.9976H34.9974V8.33661C34.809 5.79131 36.6975 3.56552 39.2395 3.33702H92.4161C94.9582 3.56552 96.8471 5.79112 96.6589 8.33661Z" fill="#B3D337"/>
<path d="M88.3264 6.66992H43.3301C40.5702 6.67285 38.3335 8.90958 38.3306 11.6695V13.336C38.3335 16.0959 40.5702 18.3326 43.3301 18.3355H88.3264C91.0863 18.3326 93.323 16.0959 93.3259 13.336V11.6695C93.3228 8.90958 91.0863 6.67285 88.3264 6.66992ZM89.9928 13.336C89.9919 14.256 89.2462 15.0016 88.3264 15.0024H43.3301C42.4103 15.0013 41.6649 14.2558 41.6637 13.336V11.6695C41.6649 10.7497 42.4103 10.0042 43.3301 10.003H88.3264C89.2464 10.004 89.992 10.7495 89.9928 11.6695V13.336Z" fill="#B3D337"/>
<path d="M44.9966 58.3325C41.3151 58.3325 38.3306 61.317 38.3306 64.9986C38.3349 68.6783 41.3168 71.6605 44.9966 71.6646C48.6781 71.6646 51.6627 68.6801 51.6627 64.9986C51.6627 61.317 48.6781 58.3325 44.9966 58.3325ZM44.9966 68.3317C43.1557 68.3317 41.6635 66.8394 41.6635 64.9986C41.6652 63.1585 43.1565 61.6674 44.9966 61.6654C46.8375 61.6654 48.3297 63.1577 48.3297 64.9986C48.3297 66.8394 46.8375 68.3317 44.9966 68.3317Z" fill="#B3D337"/>
<path d="M86.6597 58.3325C82.9782 58.3325 79.9937 61.317 79.9937 64.9986C79.9937 68.6801 82.9782 71.6646 86.6597 71.6646C90.3412 71.6646 93.3257 68.6801 93.3257 64.9986C93.322 61.3186 90.3397 58.3364 86.6597 58.3325ZM86.6597 68.3317C84.8188 68.3317 83.3266 66.8394 83.3266 64.9986C83.3266 63.1577 84.8188 61.6654 86.6597 61.6654C88.5006 61.6654 89.9928 63.1577 89.9928 64.9986C89.9907 66.8385 88.4998 68.3295 86.6597 68.3317Z" fill="#B3D337"/>
<path d="M88.3264 21.6689H43.3301C40.5702 21.6719 38.3335 23.9086 38.3306 26.6685V50C38.3335 52.7599 40.5702 54.9966 43.3301 54.9995H88.3264C91.0863 54.9966 93.323 52.7599 93.3259 50V26.6685C93.3228 23.9086 91.0863 21.6719 88.3264 21.6689ZM89.9928 49.9998C89.9919 50.9198 89.2462 51.6654 88.3264 51.6662H43.3301C42.4103 51.6651 41.6649 50.9196 41.6637 49.9998V26.6685C41.6649 25.7487 42.4103 25.0032 43.3301 25.0021H88.3264C89.2464 25.003 89.992 25.7485 89.9928 26.6685V49.9998Z" fill="#B3D337"/>
</g>
<defs>
<clipPath id="clip0_2161_321">
<rect width="100" height="100" fill="white"/>
</clipPath>
</defs>
</svg>
