<svg width="100" height="100" viewBox="0 0 100 100" fill="none" xmlns="http://www.w3.org/2000/svg">
<g clip-path="url(#clip0_2179_423)">
<path d="M52.3334 40.7232C54.9028 38.1105 58.4192 36.6475 62.0834 36.6666C65.9489 36.6885 69.6633 38.1695 72.4834 40.8133C73.7586 41.9514 75.6848 41.9514 76.9602 40.8133L77.4084 40.3967C79.6881 37.9482 82.9055 36.591 86.25 36.6666C89.1653 36.7619 91.9795 37.7568 94.3067 39.5148L94.8067 39.8482C95.8637 40.525 97.2057 40.5709 98.3067 39.9682C99.3547 39.4102 100.007 38.317 100 37.1299V33.6115C100 14.135 78.9717 0 50 0C21.0284 0 3.92953e-05 14.135 3.92953e-05 33.6117V37.1301C-0.00582008 38.3145 0.643985 39.4049 1.68832 39.9635C2.7891 40.5676 4.13207 40.5209 5.18832 39.8418L5.68832 39.5084C8.01781 37.7518 10.8338 36.759 13.75 36.6668C17.0944 36.5906 20.3118 37.9473 22.5916 40.3951L23.0399 40.8117C24.3155 41.9508 26.2428 41.9508 27.5182 40.8117C30.3375 38.1682 34.0518 36.6877 37.9164 36.6668C41.6241 36.6578 45.1768 38.1535 47.7614 40.8117C47.9366 40.9682 48.1282 41.1051 48.333 41.2201V50H41.6664C38.9051 50 36.6664 52.2387 36.6664 55V56.6666H25C22.2387 56.6666 20 58.9053 20 61.6666V71.6C19.9983 72.9773 20.609 74.2844 21.6666 75.1666V95C21.6666 97.7613 23.9053 100 26.6666 100H73.3332C76.0946 100 78.3332 97.7615 78.3332 95V75.1666C79.3893 74.2857 79.9997 72.9816 79.9998 71.6066V61.6666C79.9998 58.9053 77.7612 56.6666 74.9998 56.6666H63.3332V55C63.3332 52.2387 61.0946 50 58.3332 50H51.6666V41.2199C51.8715 41.1051 52.0631 40.9682 52.2383 40.8115L52.3334 40.7232ZM23.3334 61.6666C23.3334 60.7461 24.0797 60 25 60H45V73.7967C43.9789 74.3838 43.345 75.4674 43.3334 76.6449C32.8135 76.425 26.775 74.1732 24.0551 72.8016C23.6065 72.5699 23.327 72.1049 23.3334 71.5998V61.6666ZM46.6666 76.6666H53.3332V80H46.6666V76.6666ZM51.6666 73.3334H48.3332V60H51.6666V73.3334ZM73.3334 96.6666H26.6666C25.7461 96.6666 25 95.9205 25 95V76.8518C30.8836 78.949 37.0871 80.0068 43.3334 79.9785V80.0002C43.3334 81.8412 44.8258 83.3336 46.6668 83.3336H53.3334C55.1745 83.3336 56.6668 81.8412 56.6668 80.0002V79.9785C62.9129 80.007 69.1164 78.949 75.0002 76.8518V95C75 95.9205 74.2539 96.6666 73.3334 96.6666ZM76.6666 61.6666V71.6C76.6727 72.1053 76.3926 72.5705 75.9434 72.8018C73.2235 74.1668 67.185 76.425 56.6666 76.6451C56.6551 75.4674 56.0209 74.3838 55 73.7969V60H75C75.9205 60 76.6666 60.7463 76.6666 61.6666ZM60 55V56.6666H40V55C40 54.0795 40.7461 53.3334 41.6666 53.3334H58.3332C59.2539 53.3334 60 54.0795 60 55ZM13.75 33.3334C10.1907 33.4295 6.74574 34.6111 3.8768 36.7201L3.33344 37.1301V33.6117C3.33344 19.2617 16.4668 8.13496 36.0452 4.55664C28.2551 10.2217 23.3334 20.7334 23.3334 33.6117V36.6117C20.6319 34.4113 17.2332 33.2486 13.75 33.3334ZM37.9166 33.3334C33.843 33.3375 29.886 34.6939 26.6666 37.19V33.6117C26.6666 16.8 35.6866 4.44512 48.3332 3.43164V36.9166C45.3735 34.5654 41.6967 33.3006 37.9166 33.3334ZM62.0834 33.3334C58.3036 33.3006 54.6266 34.5654 51.6668 36.9168V3.43164C64.3135 4.44004 73.3334 16.8 73.3334 33.6117V37.1885C70.1139 34.6928 66.1569 33.3367 62.0834 33.3334ZM96.6018 37.0301L96.1235 36.7201C93.2545 34.6113 89.8096 33.4295 86.2502 33.3334C82.7678 33.2473 79.369 34.4082 76.6668 36.6066V33.6066C76.6668 20.7283 71.7452 10.2166 63.9551 4.55156C83.5334 8.13496 96.6666 19.2617 96.6666 33.6117L96.6018 37.0301Z" fill="#B3D337"/>
</g>
<defs>
<clipPath id="clip0_2179_423">
<rect width="100" height="100" fill="white"/>
</clipPath>
</defs>
</svg>
