<svg width="100" height="100" viewBox="0 0 100 100" fill="none" xmlns="http://www.w3.org/2000/svg">
<g clip-path="url(#clip0_2161_734)">
<path d="M94.9956 26.664H93.3292V9.6924C95.9274 8.77726 97.2919 5.92911 96.3767 3.33073C95.6725 1.33171 93.7819 -0.00409174 91.6626 9.41697e-06H51.6665C48.9119 -0.0052635 46.6745 2.22362 46.6692 4.97842C46.6651 7.09774 48.0009 8.98837 49.9999 9.6924V26.664H48.3335C45.5724 26.664 43.334 28.9024 43.334 31.6635V39.2561C42.3251 38.6563 41.1746 38.3364 40.0009 38.3294H30.0019C26.3204 38.3294 23.336 41.3139 23.336 44.9953V48.3284H19.5397C18.9491 47.3006 17.8554 46.6655 16.67 46.662H10.0041C8.81865 46.6655 7.72501 47.3006 7.13445 48.3284H6.67121C2.98974 48.3284 0.00527191 51.3129 0.00527191 54.9943V91.6573C0.00527191 95.3388 2.98974 98.3232 6.67121 98.3232H7.13445C7.72501 99.3511 8.81865 99.9861 10.0041 99.9897H16.67C17.8554 99.9861 18.9491 99.3511 19.5397 98.3232H50.4633C51.0539 99.3511 52.1475 99.9861 53.333 99.9897H59.9989C61.1843 99.9861 62.278 99.3511 62.8685 98.3232H63.3318C66.3621 98.3119 69.0035 96.258 69.7612 93.3237H78.4971C79.4128 97.8336 83.8112 100.747 88.3211 99.8315C91.6003 99.1657 94.1629 96.6029 94.8288 93.3237H94.9954C97.7565 93.3237 99.9949 91.0853 99.9949 88.3242V31.6635C99.9951 28.9024 97.7567 26.664 94.9956 26.664ZM3.33795 91.6575V54.9945C3.33795 53.1537 4.83018 51.6615 6.67101 51.6615V94.9905C4.83018 94.9905 3.33795 93.4983 3.33795 91.6575ZM16.67 96.657H10.0041V49.995H16.67V96.657ZM59.9991 26.664V9.99901H83.3302V26.664H59.9991ZM86.663 9.99901H89.9961V26.664H86.663V9.99901ZM51.6665 3.33308H91.6626C92.583 3.33308 93.329 4.07929 93.329 4.99951C93.329 5.91973 92.583 6.66595 91.6626 6.66595H51.6665C50.7461 6.66595 50.0001 5.91973 50.0001 4.99951C50.0001 4.07929 50.7461 3.33308 51.6665 3.33308ZM53.333 9.99901H56.666V26.664H53.333V9.99901ZM50.0001 51.6615V94.9905H20.0031V51.6615H50.0001ZM26.669 44.9955C26.669 43.1547 28.1613 41.6625 30.0021 41.6625H40.0011C41.8419 41.6625 43.3342 43.1547 43.3342 44.9955V48.3286H26.6692L26.669 44.9955ZM58.3325 46.662H54.9994V38.3294C54.9994 37.409 55.7454 36.663 56.6658 36.663C57.5863 36.663 58.3323 37.4092 58.3323 38.3294L58.3325 46.662ZM59.9991 96.657H53.3332V49.995H59.9991V96.657ZM66.665 91.6575C66.665 93.4983 65.1728 94.9905 63.332 94.9905V51.6615C65.1728 51.6615 66.665 53.1537 66.665 54.9945V91.6575ZM69.9981 54.9945V38.3296C69.9981 37.4092 70.7443 36.6632 71.6645 36.6632C72.585 36.6632 73.331 37.4094 73.331 38.3296V81.6587C73.331 82.5791 72.5848 83.3251 71.6645 83.3251C70.7441 83.3251 69.9981 82.5789 69.9981 81.6587V54.9945ZM86.663 96.657C84.5519 96.6482 82.6738 95.3143 81.9702 93.3239H91.3559C90.6523 95.3145 88.7742 96.6484 86.663 96.657ZM96.6621 88.3246C96.6621 89.245 95.9158 89.991 94.9956 89.991H69.9981V86.3514C70.5318 86.5488 71.0957 86.6525 71.6645 86.658C74.4256 86.658 76.664 84.4195 76.664 81.6585V38.3296C76.664 35.5685 74.4256 33.3301 71.6645 33.3301C68.9035 33.3301 66.665 35.5685 66.665 38.3296V49.2553C65.6562 48.6555 64.5057 48.3356 63.332 48.3286H62.8687C62.5776 47.8308 62.1633 47.4166 61.6655 47.1254V38.3296C61.6655 35.5685 59.4271 33.3301 56.666 33.3301C53.905 33.3301 51.6665 35.5685 51.6665 38.3296V47.1254C51.1687 47.4166 50.7545 47.8308 50.4633 48.3286H46.667V31.6637C46.667 30.7432 47.4132 29.9972 48.3335 29.9972H94.9954C95.9158 29.9972 96.6619 30.7434 96.6619 31.6637V88.3246H96.6621Z" fill="#B3D337"/>
<path d="M86.663 33.3301C83.902 33.3301 81.6635 35.5685 81.6635 38.3296V81.6587C81.6635 84.4197 83.902 86.6582 86.663 86.6582C89.4241 86.6582 91.6625 84.4197 91.6625 81.6587V38.3296C91.6625 35.5683 89.4241 33.3301 86.663 33.3301ZM88.3295 81.6585C88.3295 82.5789 87.5835 83.3249 86.663 83.3249C85.7426 83.3249 84.9966 82.5787 84.9966 81.6585V38.3296C84.9966 37.4092 85.7426 36.6631 86.663 36.6631C87.5835 36.6631 88.3295 37.4094 88.3295 38.3296V81.6585Z" fill="#B3D337"/>
</g>
<defs>
<clipPath id="clip0_2161_734">
<rect width="100" height="100" fill="white"/>
</clipPath>
</defs>
</svg>
