<svg width="100" height="100" viewBox="0 0 100 100" fill="none" xmlns="http://www.w3.org/2000/svg">
<g clip-path="url(#clip0_2179_620)">
<path d="M10.9 46.8767L0.733339 59.585C0.341447 60.0751 0.0958646 60.6659 0.0248393 61.2894C-0.0461861 61.9129 0.060231 62.5438 0.33185 63.1095C0.603468 63.6752 1.02925 64.1527 1.56023 64.4872C2.09121 64.8216 2.70581 64.9994 3.33334 65H11.6667V95C11.6667 96.3261 12.1935 97.5979 13.1311 98.5356C14.0688 99.4732 15.3406 100 16.6667 100H83.3333C84.6594 100 85.9312 99.4732 86.8689 98.5356C87.8066 97.5979 88.3333 96.3261 88.3333 95V65H96.6667C97.2948 65.0003 97.9102 64.823 98.4419 64.4888C98.9737 64.1545 99.4002 63.6767 99.6723 63.1106C99.9444 62.5445 100.051 61.913 99.9798 61.289C99.9086 60.6649 99.6626 60.0737 99.27 59.5834L89.1033 46.8784C88.6364 46.2904 88.0423 45.816 87.3657 45.4907C86.689 45.1653 85.9475 44.9976 85.1967 45H14.8033C14.0533 44.9981 13.3126 45.166 12.6366 45.491C11.9606 45.816 11.3669 46.2897 10.9 46.8767ZM15 95V65H35.065C35.815 65.0019 36.5558 64.8341 37.2318 64.5091C37.9077 64.1841 38.5014 63.7103 38.9683 63.1234L48.3333 51.4184V96.6667H16.6667C16.2246 96.6667 15.8007 96.4911 15.4882 96.1785C15.1756 95.866 15 95.4421 15 95ZM85 95C85 95.4421 84.8244 95.866 84.5119 96.1785C84.1993 96.4911 83.7754 96.6667 83.3333 96.6667H51.6667V51.4184L61.0317 63.1234C61.4986 63.7103 62.0923 64.1841 62.7682 64.5091C63.4442 64.8341 64.185 65.0019 64.935 65H85V95ZM85.1967 48.3334C85.4466 48.3327 85.6935 48.3888 85.9187 48.4974C86.1438 48.6059 86.3415 48.7641 86.4967 48.96L96.6667 61.6667H64.935C64.6849 61.6666 64.4381 61.6102 64.2127 61.5017C63.9874 61.3932 63.7894 61.2354 63.6333 61.04L53.4683 48.3334H85.1967ZM36.3633 61.04C36.2073 61.2354 36.0093 61.3932 35.7839 61.5017C35.5586 61.6102 35.3118 61.6666 35.0617 61.6667H3.33334L13.5 48.9584C13.6559 48.7625 13.8542 48.6045 14.0799 48.4962C14.3057 48.388 14.553 48.3323 14.8033 48.3334H46.5317L36.3633 61.04Z" fill="#B3D337"/>
<path d="M33.3333 80H23.3333C22.4493 80 21.6014 80.3512 20.9763 80.9763C20.3512 81.6014 20 82.4493 20 83.3333V88.3333C20 89.2174 20.3512 90.0652 20.9763 90.6904C21.6014 91.3155 22.4493 91.6667 23.3333 91.6667H33.3333C34.2174 91.6667 35.0652 91.3155 35.6904 90.6904C36.3155 90.0652 36.6667 89.2174 36.6667 88.3333V83.3333C36.6667 82.4493 36.3155 81.6014 35.6904 80.9763C35.0652 80.3512 34.2174 80 33.3333 80ZM33.3333 88.3333H23.3333V83.3333H33.3333V88.3333Z" fill="#B3D337"/>
<path d="M65.0001 0H63.3334C62.1991 0.00195694 61.0991 0.389561 60.2142 1.09917C59.3292 1.80877 58.7118 2.79821 58.4634 3.905L46.2734 10H33.3334C32.303 10.0043 31.299 10.3268 30.4589 10.9235C29.6188 11.5202 28.9836 12.3618 28.6401 13.3333H26.6667C25.3407 13.3333 24.0689 13.8601 23.1312 14.7978C22.1935 15.7355 21.6667 17.0073 21.6667 18.3333V21.6667C21.6667 22.9928 22.1935 24.2645 23.1312 25.2022C24.0689 26.1399 25.3407 26.6667 26.6667 26.6667H28.6401C28.8891 27.3637 29.2897 27.9968 29.8132 28.5203C30.3366 29.0437 30.9697 29.4443 31.6667 29.6933V36.6667C31.6667 37.9928 32.1935 39.2645 33.1312 40.2022C34.0689 41.1399 35.3407 41.6667 36.6667 41.6667H38.3334C39.6595 41.6667 40.9313 41.1399 41.869 40.2022C42.8066 39.2645 43.3334 37.9928 43.3334 36.6667H45.0001C46.2913 36.6628 47.5309 36.1596 48.4595 35.2625C49.3881 34.3653 49.9336 33.1436 49.9817 31.8533L58.4634 36.095C58.7118 37.2018 59.3292 38.1912 60.2142 38.9008C61.0991 39.6104 62.1991 39.998 63.3334 40H65.0001C66.3262 40 67.5979 39.4732 68.5356 38.5355C69.4733 37.5979 70.0001 36.3261 70.0001 35V28.1667C71.8839 27.7841 73.5775 26.7621 74.794 25.2738C76.0106 23.7854 76.6751 21.9223 76.6751 20C76.6751 18.0777 76.0106 16.2146 74.794 14.7262C73.5775 13.2379 71.8839 12.2159 70.0001 11.8333V5C70.0001 3.67392 69.4733 2.40215 68.5356 1.46447C67.5979 0.526784 66.3262 0 65.0001 0ZM48.3334 12.6967L58.3334 7.69667V32.3033L48.3334 27.3033V12.6967ZM33.3334 13.3333H45.0001V26.6667H33.3334C32.8914 26.6667 32.4675 26.4911 32.1549 26.1785C31.8423 25.866 31.6667 25.442 31.6667 25V15C31.6667 14.558 31.8423 14.1341 32.1549 13.8215C32.4675 13.5089 32.8914 13.3333 33.3334 13.3333ZM25.0001 21.6667V18.3333C25.0001 17.8913 25.1757 17.4674 25.4882 17.1548C25.8008 16.8423 26.2247 16.6667 26.6667 16.6667H28.3334V23.3333H26.6667C26.2247 23.3333 25.8008 23.1577 25.4882 22.8452C25.1757 22.5326 25.0001 22.1087 25.0001 21.6667ZM40.0001 36.6667C40.0001 37.1087 39.8245 37.5326 39.5119 37.8452C39.1994 38.1577 38.7754 38.3333 38.3334 38.3333H36.6667C36.2247 38.3333 35.8008 38.1577 35.4882 37.8452C35.1757 37.5326 35.0001 37.1087 35.0001 36.6667V30H40.0001V36.6667ZM46.6667 31.6667C46.6667 32.1087 46.4912 32.5326 46.1786 32.8452C45.866 33.1577 45.4421 33.3333 45.0001 33.3333H43.3334V30H46.2734L46.6667 30.1967V31.6667ZM66.6668 35C66.6668 35.442 66.4912 35.866 66.1786 36.1785C65.866 36.4911 65.4421 36.6667 65.0001 36.6667H63.3334C62.8914 36.6667 62.4675 36.4911 62.1549 36.1785C61.8423 35.866 61.6667 35.442 61.6667 35V5C61.6667 4.55797 61.8423 4.13405 62.1549 3.82149C62.4675 3.50893 62.8914 3.33333 63.3334 3.33333H65.0001C65.4421 3.33333 65.866 3.50893 66.1786 3.82149C66.4912 4.13405 66.6668 4.55797 66.6668 5V35ZM73.3334 20C73.3291 21.0304 73.0066 22.0344 72.4099 22.8745C71.8133 23.7146 70.9716 24.3499 70.0001 24.6933V15.3067C70.9716 15.6501 71.8133 16.2854 72.4099 17.1255C73.0066 17.9656 73.3291 18.9696 73.3334 20Z" fill="#B3D337"/>
</g>
<defs>
<clipPath id="clip0_2179_620">
<rect width="100" height="100" fill="white"/>
</clipPath>
</defs>
</svg>
