<svg width="100" height="100" viewBox="0 0 100 100" fill="none" xmlns="http://www.w3.org/2000/svg">
<g clip-path="url(#clip0_2161_128)">
<path d="M80.2067 8.34667C72.1133 7.33333 69.54 4.47833 68.7267 2.86667C68.3148 2.01576 67.6738 1.29664 66.8755 0.7902C66.0773 0.283763 65.1536 0.0101018 64.2083 0L35.7917 0C34.8465 0.00983504 33.923 0.283406 33.1249 0.789891C32.3269 1.29638 31.6862 2.01565 31.275 2.86667C30.46 4.47833 27.8867 7.33333 19.7933 8.34667C6.28833 10.035 0 15.3333 0 25V93.3333C0 95.1014 0.702379 96.7971 1.95262 98.0474C3.20286 99.2976 4.89856 100 6.66667 100H93.3333C95.1014 100 96.7971 99.2976 98.0474 98.0474C99.2976 96.7971 100 95.1014 100 93.3333V25C100 15.3333 93.7117 10.035 80.2067 8.34667ZM18.3333 96.6667V86.5167C18.3251 85.1981 17.9381 83.9098 17.2183 82.805L16.3983 81.585C15.4813 80.2198 14.9943 78.6112 15 76.9667V51.6667C15 51.2246 15.1756 50.8007 15.4882 50.4882C15.8007 50.1756 16.2246 50 16.6667 50C16.8888 49.9997 17.1086 50.0447 17.3127 50.1324C17.5167 50.2201 17.7007 50.3486 17.8533 50.51C18.0072 50.6604 18.1291 50.8405 18.2116 51.0393C18.2941 51.238 18.3355 51.4515 18.3333 51.6667V61.6667C18.3333 62.1087 18.5089 62.5326 18.8215 62.8452C19.134 63.1577 19.558 63.3333 20 63.3333C20.442 63.3333 20.8659 63.1577 21.1785 62.8452C21.4911 62.5326 21.6667 62.1087 21.6667 61.6667V46.6667C21.6667 46.2246 21.8423 45.8007 22.1548 45.4882C22.4674 45.1756 22.8913 45 23.3333 45C23.7754 45 24.1993 45.1756 24.5118 45.4882C24.8244 45.8007 25 46.2246 25 46.6667V61.6667C25 62.1087 25.1756 62.5326 25.4882 62.8452C25.8007 63.1577 26.2246 63.3333 26.6667 63.3333C27.1087 63.3333 27.5326 63.1577 27.8452 62.8452C28.1577 62.5326 28.3333 62.1087 28.3333 61.6667V41.6667C28.3333 41.2246 28.5089 40.8007 28.8215 40.4882C29.134 40.1756 29.558 40 30 40C30.442 40 30.866 40.1756 31.1785 40.4882C31.4911 40.8007 31.6667 41.2246 31.6667 41.6667V61.6667C31.6667 62.1087 31.8423 62.5326 32.1548 62.8452C32.4674 63.1577 32.8913 63.3333 33.3333 63.3333C33.7754 63.3333 34.1993 63.1577 34.5118 62.8452C34.8244 62.5326 35 62.1087 35 61.6667V46.6667C35 46.2246 35.1756 45.8007 35.4882 45.4882C35.8007 45.1756 36.2246 45 36.6667 45C37.1087 45 37.5326 45.1756 37.8452 45.4882C38.1577 45.8007 38.3333 46.2246 38.3333 46.6667V68.3333C38.3333 68.7754 38.5089 69.1993 38.8215 69.5118C39.134 69.8244 39.558 70 40 70C40.442 70 40.866 69.8244 41.1785 69.5118C41.4911 69.1993 41.6667 68.7754 41.6667 68.3333V61.6667C41.6667 61.2246 41.8423 60.8007 42.1548 60.4882C42.4674 60.1756 42.8913 60 43.3333 60C43.7754 60 44.1993 60.1756 44.5118 60.4882C44.8244 60.8007 45 61.2246 45 61.6667V73.4067C45.0028 75.0392 44.5254 76.6365 43.6272 77.9997C42.7289 79.3629 41.4496 80.4318 39.9483 81.0733L37.7117 82.0317L37.66 82.0533L34.3433 83.475C33.9947 83.6287 33.7092 83.8972 33.5345 84.2358C33.3597 84.5745 33.3063 84.9627 33.3831 85.3359C33.4599 85.7092 33.6623 86.0448 33.9565 86.2869C34.2507 86.5291 34.619 86.6631 35 86.6667C35.2259 86.6676 35.4495 86.6216 35.6567 86.5317L36.6667 86.0983V96.6667H18.3333ZM63.3333 96.6667V86.0983L64.3433 86.5317C64.5505 86.6216 64.7741 86.6676 65 86.6667C65.3838 86.6666 65.7557 86.534 66.0531 86.2915C66.3505 86.0489 66.555 85.7111 66.6322 85.3352C66.7094 84.9593 66.6544 84.5682 66.4767 84.2281C66.299 83.888 66.0093 83.6196 65.6567 83.4683L62.34 82.0467L62.2883 82.025L60.0517 81.0667C58.5515 80.4256 57.2728 79.3577 56.3747 77.9958C55.4765 76.6339 54.9985 75.0381 55 73.4067V61.6667C55 61.2246 55.1756 60.8007 55.4882 60.4882C55.8007 60.1756 56.2246 60 56.6667 60C57.1087 60 57.5326 60.1756 57.8452 60.4882C58.1577 60.8007 58.3333 61.2246 58.3333 61.6667V68.3333C58.3333 68.7754 58.5089 69.1993 58.8215 69.5118C59.134 69.8244 59.558 70 60 70C60.442 70 60.866 69.8244 61.1785 69.5118C61.4911 69.1993 61.6667 68.7754 61.6667 68.3333V46.6667C61.6667 46.2246 61.8423 45.8007 62.1548 45.4882C62.4674 45.1756 62.8913 45 63.3333 45C63.7754 45 64.1993 45.1756 64.5118 45.4882C64.8244 45.8007 65 46.2246 65 46.6667V61.6667C65 62.1087 65.1756 62.5326 65.4882 62.8452C65.8007 63.1577 66.2246 63.3333 66.6667 63.3333C67.1087 63.3333 67.5326 63.1577 67.8452 62.8452C68.1577 62.5326 68.3333 62.1087 68.3333 61.6667V41.6667C68.3333 41.2246 68.5089 40.8007 68.8215 40.4882C69.134 40.1756 69.558 40 70 40C70.442 40 70.866 40.1756 71.1785 40.4882C71.4911 40.8007 71.6667 41.2246 71.6667 41.6667V61.6667C71.6667 62.1087 71.8423 62.5326 72.1548 62.8452C72.4674 63.1577 72.8913 63.3333 73.3333 63.3333C73.7754 63.3333 74.1993 63.1577 74.5118 62.8452C74.8244 62.5326 75 62.1087 75 61.6667V46.6667C75 46.2246 75.1756 45.8007 75.4882 45.4882C75.8007 45.1756 76.2246 45 76.6667 45C77.1087 45 77.5326 45.1756 77.8452 45.4882C78.1577 45.8007 78.3333 46.2246 78.3333 46.6667V61.6667C78.3333 62.1087 78.5089 62.5326 78.8215 62.8452C79.134 63.1577 79.558 63.3333 80 63.3333C80.442 63.3333 80.866 63.1577 81.1785 62.8452C81.4911 62.5326 81.6667 62.1087 81.6667 61.6667V51.6667C81.6661 51.4443 81.7111 51.2241 81.7988 51.0198C81.8865 50.8154 82.0151 50.6311 82.1767 50.4783C82.3277 50.3253 82.5079 50.2042 82.7066 50.122C82.9052 50.0399 83.1183 49.9984 83.3333 50C83.7754 50 84.1993 50.1756 84.5118 50.4882C84.8244 50.8007 85 51.2246 85 51.6667V76.9667C85.0057 78.612 84.5181 80.2213 83.6 81.5867L82.7667 82.835C82.0554 83.9317 81.6736 85.2095 81.6667 86.5167V96.6667H63.3333ZM96.6667 93.3333C96.6667 94.2174 96.3155 95.0652 95.6904 95.6904C95.0652 96.3155 94.2174 96.6667 93.3333 96.6667H85V86.5167C85.0038 85.859 85.1952 85.216 85.5517 84.6633L86.3667 83.4467C87.6547 81.5316 88.3397 79.2746 88.3333 76.9667V51.6667C88.3392 50.8652 88.1509 50.0742 87.7845 49.3613C87.4181 48.6484 86.8845 48.0349 86.2293 47.5731C85.5742 47.1114 84.8169 46.8152 84.0223 46.7099C83.2278 46.6046 82.4195 46.6932 81.6667 46.9683V46.6667C81.6667 45.3406 81.1399 44.0688 80.2022 43.1311C79.2645 42.1935 77.9927 41.6667 76.6667 41.6667C76.0976 41.6722 75.5338 41.7759 75 41.9733V41.6667C75 40.3406 74.4732 39.0688 73.5355 38.1311C72.5978 37.1935 71.3261 36.6667 70 36.6667C68.6739 36.6667 67.4021 37.1935 66.4645 38.1311C65.5268 39.0688 65 40.3406 65 41.6667V41.9733C64.4662 41.7759 63.9024 41.6722 63.3333 41.6667C62.0072 41.6667 60.7355 42.1935 59.7978 43.1311C58.8601 44.0688 58.3333 45.3406 58.3333 46.6667V56.9733C57.7996 56.7759 57.2357 56.6722 56.6667 56.6667C55.3406 56.6667 54.0688 57.1935 53.1311 58.1311C52.1934 59.0688 51.6667 60.3406 51.6667 61.6667V73.4067C51.665 75.6903 52.3344 77.9242 53.5916 79.8307C54.8489 81.7371 56.6386 83.2321 58.7383 84.13L60 84.6667V96.6667H40V84.6667L41.2617 84.1267C43.3609 83.229 45.1503 81.7345 46.4075 79.8287C47.6647 77.9229 48.3343 75.6898 48.3333 73.4067V61.6667C48.3333 60.3406 47.8065 59.0688 46.8689 58.1311C45.9312 57.1935 44.6594 56.6667 43.3333 56.6667C42.7643 56.6722 42.2004 56.7759 41.6667 56.9733V46.6667C41.6667 45.3406 41.1399 44.0688 40.2022 43.1311C39.2645 42.1935 37.9927 41.6667 36.6667 41.6667C36.0976 41.6722 35.5338 41.7759 35 41.9733V41.6667C35 40.3406 34.4732 39.0688 33.5355 38.1311C32.5979 37.1935 31.3261 36.6667 30 36.6667C28.6739 36.6667 27.4021 37.1935 26.4645 38.1311C25.5268 39.0688 25 40.3406 25 41.6667V41.9733C24.4662 41.7759 23.9024 41.6722 23.3333 41.6667C22.0072 41.6667 20.7355 42.1935 19.7978 43.1311C18.8601 44.0688 18.3333 45.3406 18.3333 46.6667V46.97C17.5806 46.6937 16.7722 46.6041 15.9772 46.7088C15.1823 46.8135 14.4246 47.1095 13.7692 47.5712C13.1137 48.033 12.58 48.6469 12.2138 49.3602C11.8476 50.0734 11.6599 50.8649 11.6667 51.6667V76.9667C11.6603 79.2738 12.3447 81.5301 13.6317 83.445L14.43 84.6317C14.7965 85.1925 14.9943 85.8467 15 86.5167V96.6667H6.66667C5.78261 96.6667 4.93476 96.3155 4.30964 95.6904C3.68452 95.0652 3.33333 94.2174 3.33333 93.3333V25C3.33333 19.4433 5.33333 13.5117 20.2067 11.6533C29.3517 10.51 32.8917 7.06 34.25 4.36667C34.3858 4.06837 34.6019 3.81374 34.8742 3.63125C35.1465 3.44876 35.4641 3.34561 35.7917 3.33333H64.2083C64.5359 3.34561 64.8535 3.44876 65.1258 3.63125C65.398 3.81374 65.6142 4.06837 65.75 4.36667C67.1083 7.06 70.6483 10.51 79.7933 11.6533C94.6667 13.5117 96.6667 19.4433 96.6667 25V93.3333Z" fill="#B3D337"/>
<path d="M90.0001 31.6665C89.6314 31.6662 89.2732 31.5437 88.9816 31.3181C88.6899 31.0926 88.4813 30.7766 88.3884 30.4198C88.3201 30.1665 86.7834 24.9998 78.3334 24.9998C77.8914 24.9998 77.4675 24.8242 77.1549 24.5117C76.8423 24.1991 76.6667 23.7752 76.6667 23.3332C76.6667 22.8911 76.8423 22.4672 77.1549 22.1547C77.4675 21.8421 77.8914 21.6665 78.3334 21.6665C89.5001 21.6665 91.5351 29.2715 91.6168 29.5965C91.7237 30.025 91.6561 30.4785 91.4289 30.8572C91.2017 31.236 90.8335 31.5091 90.4051 31.6165C90.2726 31.6493 90.1366 31.6661 90.0001 31.6665Z" fill="#B3D337"/>
<path d="M88.3333 43.3333C87.9912 43.3334 87.6573 43.2282 87.377 43.0321C87.0967 42.8359 86.8836 42.5582 86.7666 42.2367C85.0016 37.385 82.2133 34.1283 78.4766 32.5583C71.76 29.725 64.1 33.15 64.0233 33.1833C63.6229 33.3547 63.1713 33.3626 62.7652 33.2053C62.3591 33.0479 62.0307 32.7378 61.8503 32.3413C61.6699 31.9449 61.6519 31.4936 61.8001 31.084C61.9483 30.6745 62.251 30.3392 62.6433 30.15C63.01 29.9833 71.72 26.1017 79.7683 29.4833C84.3966 31.4267 87.805 35.3333 89.9 41.095C89.9919 41.3469 90.0218 41.6173 89.9869 41.8832C89.9521 42.1491 89.8536 42.4027 89.6998 42.6224C89.5461 42.8421 89.3415 43.0214 89.1036 43.1452C88.8657 43.269 88.6015 43.3335 88.3333 43.3333Z" fill="#B3D337"/>
<path d="M9.99992 31.6565C9.85827 31.6559 9.71722 31.638 9.57992 31.6032C9.15865 31.4923 8.79753 31.2209 8.57387 30.8471C8.35021 30.4733 8.28179 30.0268 8.38325 29.6032C8.46492 29.2715 10.4999 21.6665 21.6666 21.6665C22.1086 21.6665 22.5325 21.8421 22.8451 22.1547C23.1577 22.4672 23.3333 22.8911 23.3333 23.3332C23.3333 23.7752 23.1577 24.1991 22.8451 24.5117C22.5325 24.8242 22.1086 24.9998 21.6666 24.9998C13.1949 24.9998 11.6666 30.1998 11.6116 30.4215C11.5145 30.775 11.3044 31.087 11.0134 31.31C10.7224 31.533 10.3665 31.6547 9.99992 31.6565Z" fill="#B3D337"/>
<path d="M11.6667 43.3331C11.3987 43.3332 11.1347 43.2687 10.8969 43.145C10.6592 43.0213 10.4548 42.8421 10.3011 42.6227C10.1473 42.4032 10.0488 42.1498 10.0138 41.8842C9.97879 41.6185 10.0084 41.3483 10.1 41.0965C12.195 35.3348 15.6 31.4298 20.2317 29.4848C28.2783 26.0998 36.99 29.9848 37.3567 30.1515C37.7501 30.3397 38.054 30.6747 38.2032 31.0844C38.3525 31.4942 38.3352 31.9462 38.155 32.3433C37.9749 32.7405 37.6462 33.0512 37.2396 33.2088C36.833 33.3665 36.3808 33.3584 35.98 33.1865C35.9033 33.1515 28.1933 29.7465 21.5017 32.5681C17.7767 34.1398 15.0017 37.4015 13.2333 42.2348C13.1166 42.5566 12.9036 42.8347 12.6233 43.0312C12.343 43.2277 12.009 43.3331 11.6667 43.3331Z" fill="#B3D337"/>
</g>
<defs>
<clipPath id="clip0_2161_128">
<rect width="100" height="100" fill="white"/>
</clipPath>
</defs>
</svg>
