<svg width="70" height="70" viewBox="0 0 70 70" fill="none" xmlns="http://www.w3.org/2000/svg">
<path d="M0 12.7947C0.478516 11.8377 0.922852 11.5301 1.69189 11.6668C2.3584 11.7864 2.75147 12.1795 2.854 12.8289C2.90527 13.1194 2.88818 13.427 2.88818 13.7176C2.88818 17.7337 2.88818 21.7327 2.88818 25.7488C2.88818 26.8938 3.1958 27.9021 4.35791 28.6199C4.35791 28.2952 4.35791 28.0559 4.35791 27.8338C4.35791 23.0315 4.35791 18.2122 4.35791 13.41C4.35791 12.4017 4.76807 11.8206 5.53711 11.6668C6.35742 11.513 7.09229 12.0257 7.21191 12.846C7.24609 13.1194 7.24609 13.3929 7.24609 13.6663C7.24609 18.366 7.24609 23.0486 7.24609 27.7483C7.24609 27.9876 7.24609 28.2439 7.24609 28.6028C8.33984 27.9363 8.71582 27.0306 8.71582 25.9197C8.71582 23.2024 8.71582 20.5022 8.71582 17.785C8.71582 16.281 8.69873 14.7771 8.71582 13.2732C8.71582 12.3333 9.16016 11.7693 9.94629 11.6497C10.7495 11.5301 11.4502 12.0257 11.5869 12.8289C11.604 12.9485 11.6211 13.0511 11.6211 13.1707C11.6211 17.6141 11.6724 22.0574 11.5698 26.5008C11.5186 28.9617 10.1343 30.6707 7.86133 31.5765C7.36572 31.7815 7.229 32.0037 7.229 32.5164C7.24609 40.3948 7.24609 48.2903 7.24609 56.1687C7.24609 56.4593 7.24609 56.7669 7.21191 57.0574C7.10938 57.7239 6.57959 58.1853 5.91309 58.2537C5.26367 58.305 4.64844 57.9119 4.46045 57.2625C4.375 56.9378 4.35791 56.596 4.35791 56.2542C4.35791 48.3929 4.35791 40.5315 4.35791 32.6702C4.35791 32.3968 4.35791 32.1233 4.35791 31.8328C2.854 31.3714 1.64062 30.5682 0.871582 29.2181C0.512695 28.5174 0.290527 27.7483 0 27.0135C0 22.2625 0 17.5286 0 12.7947Z" fill="#B3D337"/>
<path d="M58.3447 34.9602C58.1909 48.1536 47.6635 58.305 34.9487 58.2366C21.7724 58.1682 11.6552 47.5896 11.7065 34.8919C11.7236 21.7156 22.3364 11.5642 35.0683 11.6326C48.2275 11.6839 58.2592 22.2625 58.3447 34.9602ZM34.9829 55.3313C46.2109 55.3484 55.3198 46.2737 55.4052 34.9773C55.4907 23.7664 46.2963 14.555 35.017 14.5208C23.789 14.5037 14.6801 23.5784 14.5947 34.8748C14.5263 46.0857 23.7207 55.3142 34.9829 55.3313Z" fill="#B3D337"/>
<path d="M67.0947 39.3181C66.5991 39.3181 66.1718 39.3181 65.7446 39.3181C63.1298 39.2669 61.267 37.4383 61.25 34.8064C61.2329 29.4915 61.2158 24.1936 61.25 18.8787C61.267 14.9993 64.1723 11.9573 68.0346 11.6326C69.3505 11.5301 70 12.1111 70 13.4441C70 21.6643 70 29.8846 70 38.1219C70 44.2229 70 50.324 70 56.4422C70 57.4676 69.624 58.0486 68.8549 58.2195C68.0004 58.4075 67.2485 57.8777 67.1289 57.0232C67.0947 56.7498 67.0947 56.4764 67.0947 56.2029C67.0947 50.8709 67.0947 45.5389 67.0947 40.2068C67.0947 39.9163 67.0947 39.6599 67.0947 39.3181ZM67.0605 14.7942C66.77 14.9309 66.5307 15.0164 66.3256 15.136C64.8388 16.0589 64.1552 17.4261 64.1552 19.1521C64.1552 24.2791 64.1552 29.406 64.1552 34.533C64.1552 34.8064 64.1211 35.1311 64.2749 35.3362C64.5312 35.7122 64.8388 36.1565 65.2319 36.2762C65.7788 36.4641 66.4282 36.3958 67.0605 36.43C67.0605 29.1839 67.0605 22.0574 67.0605 14.7942Z" fill="#B3D337"/>
<path d="M17.5171 34.0716C17.9957 26.0222 23.6695 19.4085 31.565 17.802C32.6075 17.597 33.6841 17.5286 34.7437 17.4602C35.7349 17.409 36.4014 17.99 36.4356 18.8445C36.4698 19.6648 35.8887 20.2971 34.9146 20.3313C32.6075 20.4339 30.3858 20.8611 28.3521 21.972C23.6353 24.5525 20.9522 28.5003 20.4737 33.9007C20.4395 34.2937 20.4224 34.6697 20.3711 35.0628C20.2686 35.8489 19.7046 36.3616 18.9698 36.3787C18.2178 36.3958 17.6026 35.8318 17.5171 35.0286C17.483 34.7039 17.5171 34.3963 17.5171 34.0716Z" fill="#B3D337"/>
<path d="M52.4828 35.6609C52.0214 43.847 46.3989 50.3924 38.5033 52.0501C37.4438 52.2723 36.3329 52.3406 35.2563 52.409C34.2651 52.4774 33.5986 51.8621 33.5644 51.0076C33.5302 50.1873 34.1283 49.555 35.0854 49.5208C37.3925 49.4183 39.6142 48.991 41.6479 47.8802C46.3647 45.2996 49.0478 41.3348 49.5263 35.9515C49.5605 35.5584 49.5776 35.1824 49.6288 34.7894C49.7314 34.0032 50.2953 33.4905 51.0473 33.4734C51.7651 33.4734 52.3803 34.0032 52.4828 34.7723C52.517 35.1141 52.4828 35.473 52.4828 35.6609Z" fill="#B3D337"/>
</svg>
