<svg width="100" height="100" viewBox="0 0 100 100" fill="none" xmlns="http://www.w3.org/2000/svg">
<g clip-path="url(#clip0_2161_134)">
<path d="M68.3319 36.6665C62.995 36.6665 57.9466 38.6158 54.015 42.0829C53.3246 42.6916 53.2585 43.7448 53.8673 44.4352C54.4761 45.1256 55.5293 45.1917 56.2197 44.5829C59.5485 41.6474 63.8154 39.9998 68.3319 39.9998C69.2524 39.9998 69.9984 39.2536 69.9984 38.3332C69.9986 37.4127 69.2524 36.6665 68.3319 36.6665Z" fill="#B3D337"/>
<path d="M99.9974 73.3324C99.9974 73.328 99.9968 73.3237 99.9968 73.3193V66.6661C99.9968 65.7456 99.2506 64.9996 98.3303 64.9996H96.3653L99.7699 59.174C100.419 58.0629 99.6178 56.6666 98.3309 56.6666H96.6141C95.7834 42.3459 84.319 30.8816 69.9984 30.0508V28.3341H73.3316C74.2522 28.3341 74.9982 27.5879 74.9982 26.6675C74.9982 25.7472 74.252 25.001 73.3316 25.001H63.3319C62.4114 25.001 61.6654 25.7472 61.6654 26.6675C61.6654 27.5879 62.4116 28.3341 63.3319 28.3341H66.6651V30.0508C52.3445 30.8816 40.8802 42.3459 40.0494 56.6666H38.3326C37.0458 56.6666 36.2444 58.0631 36.8937 59.174L40.2982 64.9996H36.4217C35.9346 63.2211 34.7641 61.3721 33.3329 60.5054V53.049C35.275 52.3626 36.6661 50.5102 36.6661 48.3338C36.6661 46.1901 35.3183 44.3623 33.4234 43.6513C33.5312 42.8469 33.7451 41.8904 34.1164 40.405C34.7748 37.7713 34.9994 36.5732 34.9994 35.001C34.9994 34.0806 34.2534 33.3344 33.3329 33.3344V20.0014C33.3329 19.0809 32.5867 18.3349 31.6663 18.3349H29.9996V16.4242C33.4919 15.3633 35.2613 10.989 33.4403 7.55444L29.7963 0.870865C29.1647 -0.287541 27.5015 -0.287541 26.8699 0.870865L23.235 7.53736C21.4061 10.9864 23.1733 15.3607 26.6666 16.4236V18.3349H25.0001C24.0795 18.3349 23.3335 19.0811 23.3335 20.0014V33.3344C22.413 33.3344 21.6668 34.0806 21.6668 35.001C21.6668 36.5732 21.8914 37.7713 22.5498 40.405C22.9211 41.8904 23.135 42.8469 23.2428 43.6513C21.3479 44.3623 20.0001 46.1901 20.0001 48.3338C20.0001 50.5104 21.3912 52.3626 23.3333 53.049V60.5054C21.9021 61.3723 20.7316 63.2213 20.2445 64.9996H16.4224C15.9353 63.2211 14.7648 61.3721 13.3336 60.5054V53.049C15.2757 52.3626 16.6668 50.5102 16.6668 48.3338C16.6668 46.1901 15.319 44.3623 13.4241 43.6513C13.5319 42.8469 13.7458 41.8904 14.1171 40.405C14.7755 37.7713 15.0001 36.5732 15.0001 35.001C15.0001 34.0806 14.2541 33.3344 13.3336 33.3344V20.0014C13.3336 19.0809 12.5874 18.3349 11.6671 18.3349H10.0003V16.4242C13.4926 15.3633 15.262 10.989 13.441 7.55444L9.79701 0.87027C9.16539 -0.288137 7.50224 -0.288137 6.87062 0.87027L3.23556 7.53676C1.40661 10.9858 3.1738 15.3601 6.66709 16.423V18.3343H5.00057C4.08004 18.3343 3.33404 19.0805 3.33404 20.0008V33.3338C2.41351 33.3338 1.66732 34.08 1.66732 35.0004C1.66732 36.5726 1.89189 37.7707 2.55032 40.4044C2.92163 41.8898 3.13548 42.8463 3.2433 43.6507C1.34843 44.3617 0.000595684 46.1895 0.000595684 48.3332C0.000595684 50.5098 1.39172 52.362 3.33384 53.0484V60.5048C1.45943 61.6401 0.0321669 64.4595 0.00337554 66.599C0.0025813 66.6216 0 66.6435 0 66.6661V91.8453C0 96.3476 3.65134 99.9984 8.15471 99.9984H91.8437C96.3469 99.9984 99.9968 96.3478 99.9968 91.8453V80.0122C99.9968 80.0078 99.9974 80.0035 99.9974 79.9991C99.9974 79.9947 99.9968 79.9904 99.9968 79.986V73.3459C99.9968 73.3413 99.9974 73.337 99.9974 73.3324ZM26.1706 9.11533L28.3329 5.14946L30.5046 9.1324C31.4187 10.8569 30.3451 13.1354 28.6216 13.3187C28.5245 13.3292 28.4296 13.3344 28.3329 13.3344C28.2362 13.3344 28.1413 13.3292 28.048 13.3191C26.3207 13.1356 25.2473 10.8569 26.1706 9.11533ZM6.17128 9.11533L8.33362 5.14966L10.5053 9.1326C11.4195 10.8571 10.3458 13.1356 8.62232 13.3189C8.52523 13.3294 8.43032 13.3346 8.33362 13.3346C8.23692 13.3346 8.142 13.3294 8.04868 13.3193C6.3214 13.1356 5.24778 10.8569 6.17128 9.11533ZM68.3317 33.3338C81.5791 33.3338 92.4187 43.6362 93.2761 56.6664H43.3872C44.2448 43.6362 55.0845 33.3338 68.3317 33.3338ZM41.237 59.9996H41.6659H94.9975H95.4263L92.5045 64.9994H44.1588L41.237 59.9996ZM26.6666 21.6676H29.9998V33.3338H26.6666V21.6676ZM24.9999 49.9999C24.0793 49.9999 23.3333 49.2535 23.3333 48.3334C23.3333 47.4122 24.0787 46.6668 24.9999 46.6668C25.9204 46.6668 26.6664 45.9206 26.6664 45.0003C26.6664 43.4281 26.4418 42.23 25.7834 39.5963C25.4595 38.301 25.2554 37.4081 25.1371 36.6673H31.5289C31.4106 37.4081 31.2065 38.301 30.8826 39.5963C30.2242 42.23 29.9996 43.4281 29.9996 45.0003C29.9996 45.9208 30.7458 46.6668 31.6661 46.6668C32.5873 46.6668 33.3327 47.4122 33.3327 48.3334C33.3327 49.2535 32.5865 49.9999 31.6661 49.9999C30.7456 49.9999 29.9996 50.7461 29.9996 51.6664V61.6661C29.9996 62.5867 30.7458 63.3327 31.6661 63.3327C31.878 63.3327 32.4358 64.1214 32.8482 64.9992H23.8178C24.23 64.1214 24.788 63.3327 24.9999 63.3327C25.9204 63.3327 26.6664 62.5865 26.6664 61.6661V51.6664C26.6664 50.7461 25.9204 49.9999 24.9999 49.9999ZM6.66729 21.6676H10.0005V33.3338H6.66729V21.6676ZM5.00057 46.6666C5.9211 46.6666 6.66709 45.9204 6.66709 45.0001C6.66709 43.4279 6.44252 42.2298 5.78409 39.5961C5.46024 38.3008 5.25611 37.4079 5.13777 36.6671H11.5297C11.4113 37.4079 11.2072 38.3008 10.8833 39.5961C10.2249 42.2298 10.0003 43.4279 10.0003 45.0001C10.0003 45.9206 10.7465 46.6666 11.6669 46.6666C12.588 46.6666 13.3334 47.412 13.3334 48.3332C13.3334 49.2533 12.5872 49.9997 11.6669 49.9997C10.7463 49.9997 10.0003 50.7459 10.0003 51.6662V61.6659C10.0003 62.5865 10.7465 63.3325 11.6669 63.3325C11.8787 63.3325 12.4365 64.1212 12.8489 64.999H3.81853C4.23074 64.1212 4.7887 63.3325 5.00057 63.3325C5.9211 63.3325 6.66709 62.5863 6.66709 61.6659V51.6662C6.66709 50.7457 5.9209 49.9997 5.00057 49.9997C4.08024 49.9997 3.33404 49.2533 3.33404 48.3332C3.33384 47.4122 4.07924 46.6666 5.00057 46.6666ZM91.8437 96.6651H8.15471C5.4922 96.6651 3.33325 94.5066 3.33325 91.8453V91.6654H15.0001C15.9206 91.6654 16.6666 90.9192 16.6666 89.9988C16.6666 89.0785 15.9204 88.3323 15.0001 88.3323H3.33325V84.9991H10.0003C10.9209 84.9991 11.6669 84.2529 11.6669 83.3326C11.6669 82.4122 10.9207 81.666 10.0003 81.666H3.33325V68.333H15.0001H21.6666H34.9996H43.2028H93.4612H96.6638V71.6663H84.9981C84.0776 71.6663 83.3316 72.4125 83.3316 73.3328C83.3316 74.2531 84.0778 74.9993 84.9981 74.9993H96.6638V78.3324H89.9981C89.0776 78.3324 88.3316 79.0786 88.3316 79.9989C88.3316 80.9192 89.0778 81.6654 89.9981 81.6654H96.6638V91.8451C96.6636 94.507 94.5058 96.6651 91.8437 96.6651Z" fill="#B3D337"/>
</g>
<defs>
<clipPath id="clip0_2161_134">
<rect width="100" height="100" fill="white"/>
</clipPath>
</defs>
</svg>
