<svg width="100" height="100" viewBox="0 0 100 100" fill="none" xmlns="http://www.w3.org/2000/svg">
<g clip-path="url(#clip0_2179_139)">
<path d="M84.9999 35C81.4624 34.9977 78.0381 36.2465 75.3326 38.5256C72.6271 40.8047 70.8148 43.9672 70.2162 47.4537C69.6177 50.9402 70.2715 54.5261 72.062 57.577C73.8524 60.6279 76.6642 62.9474 79.9999 64.125V70C79.9942 75.3026 77.8852 80.3863 74.1357 84.1358C70.3863 87.8853 65.3025 89.9943 59.9999 90H56.6666C51.364 89.9943 46.2803 87.8853 42.5308 84.1358C38.7813 80.3863 36.6723 75.3026 36.6666 70V61.65C41.302 61.5692 45.7647 59.8775 49.2888 56.8652C52.8129 53.8529 55.1786 49.708 55.9799 45.1417L61.9266 11.4483C62.1381 10.2499 62.0846 9.01962 61.7697 7.84407C61.4549 6.66851 60.8864 5.57619 60.1042 4.64387C59.322 3.71155 58.3451 2.96187 57.2421 2.44752C56.1392 1.93317 54.9369 1.66664 53.7199 1.66667H48.3333C48.3333 1.22464 48.1577 0.800716 47.8451 0.488155C47.5326 0.175595 47.1086 0 46.6666 0L43.3333 0C41.5652 0 39.8695 0.702379 38.6192 1.95262C37.369 3.20286 36.6666 4.89856 36.6666 6.66667C36.6666 8.43478 37.369 10.1305 38.6192 11.3807C39.8695 12.631 41.5652 13.3333 43.3333 13.3333H46.6666C47.1086 13.3333 47.5326 13.1577 47.8451 12.8452C48.1577 12.5326 48.3333 12.1087 48.3333 11.6667H51.7349L46.1333 43.4033C45.7275 45.7198 44.5171 47.8188 42.7156 49.3304C40.914 50.842 38.6367 51.6694 36.2849 51.6667H27.0483C24.6965 51.6694 22.4193 50.842 20.6177 49.3304C18.8161 47.8188 17.6058 45.7198 17.1999 43.4033L11.5999 11.6667H14.9999C14.9999 12.1087 15.1755 12.5326 15.4881 12.8452C15.8007 13.1577 16.2246 13.3333 16.6666 13.3333H19.9999C21.7681 13.3333 23.4637 12.631 24.714 11.3807C25.9642 10.1305 26.6666 8.43478 26.6666 6.66667C26.6666 4.89856 25.9642 3.20286 24.714 1.95262C23.4637 0.702379 21.7681 0 19.9999 0L16.6666 0C16.2246 0 15.8007 0.175595 15.4881 0.488155C15.1755 0.800716 14.9999 1.22464 14.9999 1.66667H9.61328C8.39629 1.66664 7.19407 1.93317 6.09112 2.44752C4.98817 2.96187 4.01125 3.71155 3.22905 4.64387C2.44685 5.57619 1.87835 6.66851 1.5635 7.84407C1.24865 9.01962 1.1951 10.2499 1.40661 11.4483L7.35328 45.1417C8.15461 49.708 10.5203 53.8529 14.0444 56.8652C17.5685 59.8775 22.0312 61.5692 26.6666 61.65V70C26.6759 77.9536 29.8396 85.5789 35.4636 91.203C41.0877 96.8271 48.713 99.9907 56.6666 100H59.9999C67.9536 99.9907 75.5788 96.8271 81.2029 91.203C86.827 85.5789 89.9907 77.9536 89.9999 70V64.125C93.3357 62.9474 96.1475 60.6279 97.9379 57.577C99.7284 54.5261 100.382 50.9402 99.7837 47.4537C99.1851 43.9672 97.3728 40.8047 94.6673 38.5256C91.9618 36.2465 88.5375 34.9977 84.9999 35ZM43.3333 10C42.4492 10 41.6014 9.64881 40.9763 9.02369C40.3511 8.39857 39.9999 7.55072 39.9999 6.66667C39.9999 5.78261 40.3511 4.93477 40.9763 4.30964C41.6014 3.68452 42.4492 3.33333 43.3333 3.33333H44.9999V10H43.3333ZM19.9999 3.33333C20.884 3.33333 21.7318 3.68452 22.357 4.30964C22.9821 4.93477 23.3333 5.78261 23.3333 6.66667C23.3333 7.55072 22.9821 8.39857 22.357 9.02369C21.7318 9.64881 20.884 10 19.9999 10H18.3333V3.33333H19.9999ZM10.6349 44.5633L4.68661 10.87C4.5595 10.1506 4.59157 9.41214 4.78055 8.70649C4.96954 8.00084 5.31085 7.34517 5.78049 6.78562C6.25012 6.22607 6.83666 5.77622 7.49884 5.46772C8.16102 5.15922 8.88276 4.99957 9.61328 5H14.9999V8.33333H11.5999C11.113 8.33321 10.632 8.43976 10.1907 8.6455C9.74936 8.85123 9.35847 9.15116 9.0455 9.52417C8.73254 9.89719 8.5051 10.3342 8.37917 10.8046C8.25324 11.2749 8.23189 11.7672 8.31661 12.2467L13.9199 43.9833C14.4599 47.0719 16.0729 49.8707 18.4747 51.8862C20.8766 53.9017 23.9129 55.0044 27.0483 55H36.2849C39.4204 55.0044 42.4567 53.9017 44.8585 51.8862C47.2603 49.8707 48.8734 47.0719 49.4133 43.9833L55.0166 12.2467C55.1013 11.7672 55.08 11.2749 54.9541 10.8046C54.8281 10.3342 54.6007 9.89719 54.2877 9.52417C53.9748 9.15116 53.5839 8.85123 53.1425 8.6455C52.7012 8.43976 52.2202 8.33321 51.7333 8.33333H48.3333V5H53.7199C54.4502 4.99986 55.1715 5.15966 55.8334 5.46816C56.4952 5.77667 57.0814 6.22639 57.5509 6.78572C58.0203 7.34505 58.3615 8.00042 58.5505 8.70574C58.7395 9.41106 58.7718 10.1492 58.6449 10.8683L52.6983 44.5633C52.0213 48.4236 50.004 51.9212 47.0015 54.4401C43.9991 56.959 40.2041 58.3377 36.2849 58.3333H27.0483C23.1291 58.3377 19.3341 56.959 16.3317 54.4401C13.3292 51.9212 11.3119 48.4236 10.6349 44.5633ZM86.6666 70C86.6582 77.0699 83.846 83.8478 78.8469 88.8469C73.8477 93.8461 67.0698 96.6583 59.9999 96.6667H56.6666C49.5967 96.6583 42.8188 93.8461 37.8197 88.8469C32.8205 83.8478 30.0083 77.0699 29.9999 70V61.6667H33.3333V70C33.3399 76.1864 35.8003 82.1174 40.1748 86.4918C44.5492 90.8663 50.4803 93.3267 56.6666 93.3333H59.9999C66.1863 93.3267 72.1174 90.8663 76.4918 86.4918C80.8662 82.1174 83.3267 76.1864 83.3333 70V64.9017C84.4405 65.0325 85.5594 65.0325 86.6666 64.9017V70ZM84.9999 61.6667C82.6925 61.6667 80.4369 60.9824 78.5183 59.7005C76.5997 58.4185 75.1044 56.5964 74.2214 54.4646C73.3383 52.3328 73.1073 49.9871 73.5574 47.7239C74.0076 45.4608 75.1188 43.382 76.7504 41.7504C78.382 40.1188 80.4608 39.0077 82.7239 38.5575C84.987 38.1073 87.3328 38.3384 89.4646 39.2214C91.5964 40.1044 93.4185 41.5998 94.7004 43.5183C95.9824 45.4369 96.6666 47.6926 96.6666 50C96.6631 53.0931 95.4328 56.0585 93.2456 58.2457C91.0585 60.4328 88.0931 61.6631 84.9999 61.6667Z" fill="#B3D337"/>
<path d="M85.0001 41.6665C83.3519 41.6665 81.7407 42.1552 80.3703 43.0709C78.9999 43.9866 77.9318 45.2881 77.3011 46.8108C76.6704 48.3335 76.5053 50.0091 76.8269 51.6256C77.1484 53.2421 77.9421 54.727 79.1075 55.8924C80.273 57.0578 81.7578 57.8515 83.3743 58.173C84.9908 58.4946 86.6664 58.3296 88.1891 57.6988C89.7118 57.0681 91.0133 56 91.929 54.6296C92.8447 53.2592 93.3334 51.648 93.3334 49.9998C93.3308 47.7905 92.4519 45.6724 90.8897 44.1102C89.3275 42.548 87.2094 41.6692 85.0001 41.6665ZM85.0001 54.9998C84.0112 54.9998 83.0445 54.7066 82.2222 54.1572C81.4 53.6078 80.7591 52.8269 80.3807 51.9133C80.0023 50.9996 79.9032 49.9943 80.0962 49.0244C80.2891 48.0545 80.7653 47.1636 81.4646 46.4643C82.1638 45.765 83.0547 45.2888 84.0246 45.0959C84.9945 44.903 85.9999 45.002 86.9135 45.3804C87.8271 45.7589 88.608 46.3997 89.1574 47.222C89.7068 48.0442 90.0001 49.0109 90.0001 49.9998C90.0001 51.3259 89.4733 52.5977 88.5356 53.5354C87.5979 54.4731 86.3262 54.9998 85.0001 54.9998Z" fill="#B3D337"/>
</g>
<defs>
<clipPath id="clip0_2179_139">
<rect width="100" height="100" fill="white"/>
</clipPath>
</defs>
</svg>
