<svg width="100" height="100" viewBox="0 0 100 100" fill="none" xmlns="http://www.w3.org/2000/svg">
<g clip-path="url(#clip0_2179_427)">
<path d="M40.1498 8.33183H36.6665C35.2523 8.33627 33.9068 8.94227 32.9665 9.99845H16.6661C12.0659 10.004 8.33824 13.7319 8.33264 18.3321V91.6665C8.33807 96.2668 12.0659 99.9946 16.6661 100H83.3339C87.9341 99.9944 91.6618 96.2668 91.6673 91.6665V18.3321C91.6618 13.7319 87.9341 10.0042 83.3339 9.99862H67.0337C66.0933 8.94243 64.7477 8.33643 63.3337 8.33199H59.8504C59.0413 3.52215 54.8771 0 50 0C45.1229 0 40.9587 3.52215 40.1498 8.33183ZM68.3336 19.9987H81.6671V89.9999H18.3329V19.9987H31.6664C31.6664 22.7602 33.905 24.9988 36.6665 24.9988H63.3335C66.095 24.9988 68.3336 22.7602 68.3336 19.9987ZM83.3339 13.3319C86.0954 13.3319 88.3339 15.5704 88.3339 18.3319V91.6664C88.3339 94.4279 86.0954 96.6664 83.3339 96.6664H16.6661C13.9046 96.6664 11.6661 94.4279 11.6661 91.6664V18.3321C11.6661 15.5706 13.9046 13.332 16.6661 13.332H31.6664V16.6655H18.3329C16.4919 16.6655 14.9995 18.1578 14.9995 19.9989V90.0001C14.9995 91.8411 16.4919 93.3335 18.3329 93.3335H81.6672C83.5083 93.3335 85.0007 91.8411 85.0007 90.0001V19.9987C85.0007 18.1577 83.5083 16.6653 81.6672 16.6653H68.3336V13.3319H83.3339ZM65.0003 13.3319V19.9987C65.0003 20.9192 64.2541 21.6653 63.3337 21.6653H36.6666C35.7462 21.6653 35 20.9192 35 19.9987V13.3319C35 12.4114 35.7462 11.6652 36.6666 11.6652H63.3337C64.2541 11.6652 65.0003 12.4114 65.0003 13.3319ZM56.4301 8.33183H43.5699C44.3183 5.39149 46.9659 3.33326 50 3.33326C53.0341 3.33342 55.6817 5.39149 56.4301 8.33183Z" fill="#B3D337"/>
<path d="M46.6666 16.6653H53.3334C54.2538 16.6653 55 15.9191 55 14.9987C55 14.0782 54.2538 13.332 53.3334 13.332H46.6666C45.7461 13.332 44.9999 14.0782 44.9999 14.9987C44.9999 15.9191 45.7461 16.6653 46.6666 16.6653Z" fill="#B3D337"/>
<path d="M50 34.0638C47.5153 30.5283 43.4872 28.3972 39.1665 28.332C32.0414 28.332 26.6664 34.4338 26.6664 42.524C26.6664 51.2158 33.2682 57.1509 43.2583 66.1327C44.3439 67.1082 45.47 68.1244 46.6366 69.1811C48.5418 70.9213 51.4598 70.9213 53.365 69.1811C54.5306 68.1212 55.6562 67.105 56.7417 66.1327C66.7319 57.1509 73.3336 51.2158 73.3336 42.524C73.3336 34.4338 67.9586 28.332 60.8335 28.332C56.5128 28.3972 52.4847 30.5283 50 34.0638ZM70.0004 42.524C70.0004 49.729 63.8336 55.2692 54.5119 63.6544C53.4252 64.6327 52.2919 65.6544 51.1235 66.7127C50.4844 67.2846 49.5176 67.2846 48.8785 66.7127C47.7085 65.6504 46.5784 64.6309 45.4885 63.6544C36.1666 55.2692 30 49.7292 30 42.524C30 36.3321 33.94 31.6655 39.1668 31.6655C45.4819 31.6655 48.3686 37.649 48.4903 37.9038C48.7636 38.486 49.3474 38.8588 49.9903 38.8621C50.6333 38.8588 51.2171 38.4858 51.4902 37.9038C51.6319 37.6488 54.5186 31.6655 60.8337 31.6655C66.0603 31.6655 70.0004 36.3321 70.0004 42.524Z" fill="#B3D337"/>
<path d="M55 48.3326H51.6666V44.9991C51.6666 44.0787 50.9204 43.3325 50 43.3325C49.0796 43.3325 48.3334 44.0787 48.3334 44.9991V48.3326H44.9999C44.0795 48.3326 43.3333 49.0788 43.3333 49.9992C43.3333 50.9196 44.0795 51.6658 44.9999 51.6658H48.3334V54.9992C48.3334 55.9197 49.0796 56.6659 50 56.6659C50.9204 56.6659 51.6666 55.9197 51.6666 54.9992V51.6658H55C55.9205 51.6658 56.6667 50.9196 56.6667 49.9992C56.6667 49.0788 55.9206 48.3326 55 48.3326Z" fill="#B3D337"/>
<path d="M65.0003 74.9995H34.9997C34.0793 74.9995 33.3331 75.7457 33.3331 76.6661C33.3331 77.5866 34.0793 78.3328 34.9997 78.3328H65.0002C65.9206 78.3328 66.6668 77.5866 66.6668 76.6661C66.6668 75.7457 65.9208 74.9995 65.0003 74.9995Z" fill="#B3D337"/>
<path d="M58.3334 81.6665H41.6665C40.7461 81.6665 39.9999 82.4127 39.9999 83.3331C39.9999 84.2536 40.7461 84.9998 41.6665 84.9998H58.3334C59.2539 84.9998 60.0001 84.2536 60.0001 83.3331C60.0001 82.4127 59.2539 81.6665 58.3334 81.6665Z" fill="#B3D337"/>
</g>
<defs>
<clipPath id="clip0_2179_427">
<rect width="100" height="100" fill="white"/>
</clipPath>
</defs>
</svg>
