<svg width="100" height="100" viewBox="0 0 100 100" fill="none" xmlns="http://www.w3.org/2000/svg">
<g clip-path="url(#clip0_2161_559)">
<path d="M46.6667 31.6667V5.00006C46.6763 3.68015 46.1507 2.41265 45.21 1.48673C44.2801 0.530066 43.0008 -0.00670565 41.6667 6.32515e-05C38.9053 6.32515e-05 36.6667 2.23864 36.6667 5.00006V27.5001C36.6667 27.9603 36.2936 28.3334 35.8333 28.3334C35.3731 28.3334 35 27.9603 35 27.5001V5.00006C35.0096 3.68015 34.4841 2.41265 33.5433 1.48673C32.6135 0.530066 31.3341 -0.00670565 30 6.32515e-05C27.2386 6.32515e-05 25 2.23864 25 5.00006V27.5001C25 27.9603 24.6269 28.3334 24.1667 28.3334C23.7064 28.3334 23.3333 27.9603 23.3333 27.5001V5.00006C23.3429 3.68015 22.8174 2.41265 21.8767 1.48673C20.9468 0.530066 19.6675 -0.00670565 18.3333 6.32515e-05C15.5719 6.32515e-05 13.3333 2.23864 13.3333 5.00006V31.6667C13.3407 38.107 18.5597 43.326 25 43.3334V55.0434C22.9091 56.6041 21.6743 59.0576 21.6667 61.6667V91.6667C21.6667 96.2691 25.3976 100 30 100C34.6024 100 38.3333 96.2691 38.3333 91.6667V61.6667C38.3257 59.0576 37.091 56.6041 35 55.0434V43.3334C41.4403 43.326 46.6593 38.107 46.6667 31.6667ZM16.6667 31.6667V5.00006C16.6667 4.07959 17.4129 3.3334 18.3333 3.3334C18.7824 3.33194 19.212 3.51658 19.52 3.8434C19.831 4.14739 20.0044 4.56519 20 5.00006V27.5001C20 29.8013 21.8655 31.6667 24.1667 31.6667C26.4679 31.6667 28.3333 29.8013 28.3333 27.5001V5.00006C28.3333 4.07959 29.0795 3.3334 30 3.3334C30.4491 3.33194 30.8787 3.51658 31.1867 3.8434C31.4977 4.14739 31.6711 4.56519 31.6667 5.00006V27.5001C31.6667 29.8013 33.5322 31.6667 35.8333 31.6667C38.1345 31.6667 40 29.8013 40 27.5001V5.00006C40 4.07959 40.7462 3.3334 41.6667 3.3334C42.1157 3.33194 42.5454 3.51658 42.8533 3.8434C43.1643 4.14739 43.3377 4.56519 43.3333 5.00006V31.6667C43.3278 36.2668 39.6001 39.9946 35 40.0001C34.9863 37.2443 32.7558 35.0137 30 35.0001C27.2386 35.0001 25 37.2386 25 40.0001C20.3999 39.9946 16.6722 36.2668 16.6667 31.6667ZM35 91.6667C35 94.4282 32.7614 96.6667 30 96.6667C27.2386 96.6667 25 94.4282 25 91.6667V61.6667C25 58.9053 27.2386 56.6667 30 56.6667C32.7614 56.6667 35 58.9053 35 61.6667V91.6667ZM30 53.3334C29.4403 53.3328 28.8819 53.3887 28.3333 53.5001V40.0001C28.3333 39.0796 29.0795 38.3334 30 38.3334C30.4491 38.3319 30.8787 38.5166 31.1867 38.8434C31.4977 39.1474 31.6711 39.5652 31.6667 40.0001V53.5001C31.1181 53.3887 30.5598 53.3328 30 53.3334Z" fill="#B3D337"/>
<path d="M86.6667 21.6667C86.6667 9.72 79.19 0 70 0C60.81 0 53.3333 9.72 53.3333 21.6667C53.3333 31.265 58.0733 39.5433 65 42.3333V55.0417C62.9086 56.6027 61.6738 59.0569 61.6667 61.6667V91.6667C61.6667 96.269 65.3976 100 70 100C74.6024 100 78.3333 96.269 78.3333 91.6667V61.6667C78.3257 59.0575 77.091 56.604 75 55.0433V42.3333C81.9267 39.5433 86.6667 31.265 86.6667 21.6667ZM56.6667 21.6667C56.6667 11.5583 62.6483 3.33333 70 3.33333C77.3517 3.33333 83.3333 11.5583 83.3333 21.6667C83.3333 29.2517 79.8533 36.03 74.8217 38.7383C74.6093 37.8851 74.1672 37.1063 73.5433 36.4867C72.6135 35.53 71.3341 34.9932 70 35C67.7319 35.009 65.754 36.5436 65.1817 38.7383C60.1483 36.0317 56.6667 29.2533 56.6667 21.6667ZM75 91.6667C75 94.4281 72.7614 96.6667 70 96.6667C67.2386 96.6667 65 94.4281 65 91.6667V61.6667C65 58.9052 67.2386 56.6667 70 56.6667C72.7614 56.6667 75 58.9052 75 61.6667V91.6667ZM70 53.3333C69.4403 53.3328 68.8819 53.3886 68.3333 53.5V40C68.3333 39.0795 69.0795 38.3333 70 38.3333C70.4491 38.3319 70.8787 38.5165 71.1867 38.8433C71.4977 39.1473 71.6711 39.5651 71.6667 40V53.5C71.1181 53.3886 70.5598 53.3328 70 53.3333Z" fill="#B3D337"/>
<path d="M67.6667 10.9068C68.143 10.5495 68.3926 9.96523 68.3214 9.37406C68.2501 8.78289 67.8689 8.27463 67.3214 8.04073C66.7738 7.80682 66.143 7.88282 65.6667 8.24008C62.1667 10.8434 60 15.9901 60 21.6668C60 22.5872 60.7462 23.3334 61.6667 23.3334C62.5871 23.3334 63.3333 22.5872 63.3333 21.6668C63.3333 16.1084 65.6667 12.3968 67.6667 10.9068Z" fill="#B3D337"/>
</g>
<defs>
<clipPath id="clip0_2161_559">
<rect width="100" height="100" fill="white"/>
</clipPath>
</defs>
</svg>
