<svg width="100" height="100" viewBox="0 0 100 100" fill="none" xmlns="http://www.w3.org/2000/svg">
<g clip-path="url(#clip0_2179_170)">
<path d="M96.6667 0H73.3333C71.4924 0 70 1.49238 70 3.33333V31.9733C69.4662 31.7759 68.9024 31.6722 68.3333 31.6667H31.6667C31.0976 31.6722 30.5338 31.7759 30 31.9733V3.33333C30 1.49238 28.5076 0 26.6667 0H3.33333C1.49238 0 0 1.49238 0 3.33333V96.6667C0 98.5076 1.49238 100 3.33333 100H96.6667C98.5076 100 100 98.5076 100 96.6667V3.33333C100 1.49238 98.5076 0 96.6667 0ZM96.6667 3.33333V11.6667H73.3333V3.33333H96.6667ZM30 73.3333V68.0267C30.5338 68.2241 31.0976 68.3278 31.6667 68.3333H42.5383L40.5383 73.3333H30ZM46.1283 68.3333H53.8717L55.8717 73.3333H44.1283L46.1283 68.3333ZM59.4617 73.3333L57.4617 68.3333H68.3333C68.9024 68.3278 69.4662 68.2241 70 68.0267V73.3333H59.4617ZM31.6667 35H68.3333C69.2538 35 70 35.7462 70 36.6667V63.3333C70 64.2538 69.2538 65 68.3333 65H31.6667C30.7462 65 30 64.2538 30 63.3333V36.6667C30 35.7462 30.7462 35 31.6667 35ZM26.6667 3.33333V11.6667H3.33333V3.33333H26.6667ZM3.33333 15H26.6667V96.6667H3.33333V15ZM30 76.6667H70V96.6667H30V76.6667ZM73.3333 96.6667V15H96.6667V96.6667H73.3333Z" fill="#B3D337"/>
<path d="M54.9999 80H44.9999C44.0794 80 43.3333 80.7462 43.3333 81.6667C43.3333 82.5871 44.0794 83.3333 44.9999 83.3333H54.9999C55.9204 83.3333 56.6666 82.5871 56.6666 81.6667C56.6666 80.7462 55.9204 80 54.9999 80Z" fill="#B3D337"/>
<path d="M15.0001 76.6665C10.3977 76.6665 6.66675 80.3975 6.66675 84.9998C6.66675 89.6022 10.3977 93.3332 15.0001 93.3332C19.6025 93.3332 23.3334 89.6022 23.3334 84.9998C23.3279 80.3997 19.6002 76.672 15.0001 76.6665ZM15.0001 89.9998C12.2387 89.9998 10.0001 87.7613 10.0001 84.9998C10.0001 82.2384 12.2387 79.9998 15.0001 79.9998C17.7615 79.9998 20.0001 82.2384 20.0001 84.9998C20.0001 87.7613 17.7615 89.9998 15.0001 89.9998Z" fill="#B3D337"/>
<path d="M85.0001 76.6665C80.3977 76.6665 76.6667 80.3975 76.6667 84.9998C76.6667 89.6022 80.3977 93.3332 85.0001 93.3332C89.6025 93.3332 93.3334 89.6022 93.3334 84.9998C93.3279 80.3997 89.6002 76.672 85.0001 76.6665ZM85.0001 89.9998C82.2387 89.9998 80.0001 87.7613 80.0001 84.9998C80.0001 82.2384 82.2387 79.9998 85.0001 79.9998C87.7615 79.9998 90.0001 82.2384 90.0001 84.9998C90.0001 87.7613 87.7615 89.9998 85.0001 89.9998Z" fill="#B3D337"/>
<path d="M14.9999 73.3333C15.9204 73.3333 16.6666 72.5871 16.6666 71.6667C16.6666 70.7462 15.9204 70 14.9999 70C14.0794 70 13.3333 70.7462 13.3333 71.6667C13.3333 72.5871 14.0794 73.3333 14.9999 73.3333Z" fill="#B3D337"/>
<path d="M14.9999 66.6668C15.9204 66.6668 16.6666 65.9206 16.6666 65.0002C16.6666 64.0797 15.9204 63.3335 14.9999 63.3335C14.0794 63.3335 13.3333 64.0797 13.3333 65.0002C13.3333 65.9206 14.0794 66.6668 14.9999 66.6668Z" fill="#B3D337"/>
<path d="M84.9999 73.3333C85.9204 73.3333 86.6666 72.5871 86.6666 71.6667C86.6666 70.7462 85.9204 70 84.9999 70C84.0794 70 83.3333 70.7462 83.3333 71.6667C83.3333 72.5871 84.0794 73.3333 84.9999 73.3333Z" fill="#B3D337"/>
<path d="M84.9999 66.6668C85.9204 66.6668 86.6666 65.9206 86.6666 65.0002C86.6666 64.0797 85.9204 63.3335 84.9999 63.3335C84.0794 63.3335 83.3333 64.0797 83.3333 65.0002C83.3333 65.9206 84.0794 66.6668 84.9999 66.6668Z" fill="#B3D337"/>
<path d="M35.0001 43.3335C35.4421 43.3334 35.8659 43.1578 36.1784 42.8452L37.8451 41.1785C38.4767 40.5246 38.4677 39.4851 37.8248 38.8422C37.1819 38.1993 36.1424 38.1902 35.4884 38.8219L33.8218 40.4885C33.3453 40.9652 33.2027 41.6819 33.4606 42.3046C33.7185 42.9273 34.3261 43.3334 35.0001 43.3335Z" fill="#B3D337"/>
<path d="M35.0001 53.3335C35.4421 53.3334 35.8659 53.1578 36.1784 52.8452L47.8451 41.1785C48.4767 40.5246 48.4677 39.4851 47.8248 38.8422C47.1819 38.1993 46.1424 38.1902 45.4884 38.8219L33.8218 50.4885C33.3453 50.9652 33.2027 51.6819 33.4606 52.3046C33.7185 52.9273 34.3261 53.3334 35.0001 53.3335Z" fill="#B3D337"/>
</g>
<defs>
<clipPath id="clip0_2179_170">
<rect width="100" height="100" fill="white"/>
</clipPath>
</defs>
</svg>
