<svg width="100" height="100" viewBox="0 0 100 100" fill="none" xmlns="http://www.w3.org/2000/svg">
<path d="M88.3334 20H85V11.6666C85 10.6666 84.3334 10 83.3334 10H80V1.6666C80 0.666602 79.3334 0 78.3334 0H21.6666C20.6666 0 20 0.666602 20 1.6666V10H16.6666C15.6666 10 15 10.6666 15 11.6666V20H11.6666C10.6666 20 10 20.6666 10 21.6666V98.3332C10 99.3332 10.6666 99.9998 11.6666 99.9998H88.3332C89.3332 99.9998 89.9998 99.3332 89.9998 98.3332V21.6666C90 20.6666 89.3334 20 88.3334 20ZM23.3334 3.3334H76.6668V10H23.3334V3.3334ZM18.3334 13.3334H21.6668H78.3334H81.6668V20H18.3334V13.3334ZM86.6666 96.6666H13.3334V23.3334H16.6668H83.3334H86.6668V96.6666H86.6666Z" fill="#B3D337"/>
<path d="M69.6665 36.6665L39.6665 41.6665C38.9999 41.8331 38.3331 42.4999 38.3331 43.3331V51.6665V68.7745C36.5605 67.4589 34.2218 66.6665 31.6665 66.6665C26.1665 66.6665 21.6665 70.3331 21.6665 74.9999C21.6665 79.6665 26.1665 83.3333 31.6665 83.3333C37.1665 83.3333 41.6665 79.6667 41.6665 74.9999V53.111L68.3331 48.6665V60.4411C66.5604 59.1255 64.2218 58.3331 61.6665 58.3331C56.1665 58.3331 51.6665 61.9997 51.6665 66.6665C51.6665 71.3331 56.1665 74.9999 61.6665 74.9999C67.1665 74.9999 71.6665 71.3333 71.6665 66.6665V46.6665V38.3331C71.6665 37.8331 71.3331 37.3331 70.9999 36.9997C70.6665 36.6665 70.1665 36.6665 69.6665 36.6665ZM31.6665 79.9999C27.9999 79.9999 24.9999 77.8333 24.9999 74.9999C24.9999 72.1665 27.9999 69.9999 31.6665 69.9999C35.3331 69.9999 38.3331 72.1665 38.3331 74.9999C38.3333 77.8333 35.3333 79.9999 31.6665 79.9999ZM41.6665 44.6665L68.3331 40.1665V45.1665L41.6665 49.6665V44.6665ZM61.6665 71.6665C57.9999 71.6665 54.9999 69.4999 54.9999 66.6665C54.9999 63.8331 57.9999 61.6665 61.6665 61.6665C65.3331 61.6665 68.3331 63.8331 68.3331 66.6665C68.3333 69.4999 65.3333 71.6665 61.6665 71.6665Z" fill="#B3D337"/>
</svg>
