<svg width="100" height="100" viewBox="0 0 100 100" fill="none" xmlns="http://www.w3.org/2000/svg">
<g clip-path="url(#clip0_2161_176)">
<path d="M95 0H21.6666C18.8332 0 16.6666 2.1666 16.6666 5V53.3334H1.6666C0.666602 53.3334 0 54 0 55V90C0 95.5 4.5 100 10 100H90C95.5 100 100 95.5 100 90V5C100 2.1666 97.8334 0 95 0ZM3.3334 90V56.6666H16.6668V90C16.6668 93.6666 13.6668 96.6666 10.0002 96.6666C6.33359 96.6666 3.3334 93.6666 3.3334 90ZM96.6666 90C96.6666 93.6666 93.6666 96.6666 90 96.6666H17.5C17.8207 96.2746 18.1168 95.8586 18.3869 95.4242C19.3242 93.9832 19.9023 92.2902 19.9881 90.4729C19.9959 90.3158 20.0002 90.1582 20.0002 89.9998V55V5C20.0002 4 20.6668 3.3334 21.6668 3.3334H95C96 3.3334 96.6666 4 96.6666 5V90Z" fill="#B3D337"/>
<path d="M26.6666 41.6667H56.6666C57.6666 41.6667 58.3332 41.0001 58.3332 40.0001V10.0001C58.3332 9.0001 57.6666 8.3335 56.6666 8.3335H26.6666C25.6666 8.3335 25 9.0001 25 10.0001V40.0001C25 41.0001 25.6666 41.6667 26.6666 41.6667ZM28.3334 11.6667H55V38.3333H28.3334V11.6667Z" fill="#B3D337"/>
<path d="M90 8.3335H66.6666C65.6666 8.3335 65 9.0001 65 10.0001V90.0001C65 91.0001 65.6666 91.6667 66.6666 91.6667H90C91 91.6667 91.6666 91.0001 91.6666 90.0001V10.0001C91.6666 9.0001 91 8.3335 90 8.3335ZM88.3334 88.3335H68.3334V11.6667H88.3334V88.3335Z" fill="#B3D337"/>
<path d="M58.3334 46.6665H26.6666C25.6666 46.6665 25 47.3331 25 48.3331C25 49.3331 25.6666 49.9997 26.6666 49.9997H58.3332C59.3332 49.9997 59.9998 49.3331 59.9998 48.3331C59.9998 47.3331 59.3334 46.6665 58.3334 46.6665Z" fill="#B3D337"/>
<path d="M58.3334 55H26.6666C25.6666 55 25 55.6666 25 56.6666C25 57.6666 25.6666 58.3332 26.6666 58.3332H58.3332C59.3332 58.3332 59.9998 57.6666 59.9998 56.6666C59.9998 55.6666 59.3334 55 58.3334 55Z" fill="#B3D337"/>
<path d="M58.3334 63.3335H26.6666C25.6666 63.3335 25 64.0001 25 65.0001C25 66.0001 25.6666 66.6667 26.6666 66.6667H58.3332C59.3332 66.6667 59.9998 66.0001 59.9998 65.0001C60 64.0001 59.3334 63.3335 58.3334 63.3335Z" fill="#B3D337"/>
<path d="M58.3334 71.6665H26.6666C25.6666 71.6665 25 72.3331 25 73.3331C25 74.3331 25.6666 74.9997 26.6666 74.9997H58.3332C59.3332 74.9997 59.9998 74.3331 59.9998 73.3331C59.9998 72.3331 59.3334 71.6665 58.3334 71.6665Z" fill="#B3D337"/>
<path d="M58.3334 80H26.6666C25.6666 80 25 80.6666 25 81.6666C25 82.6666 25.6666 83.3332 26.6666 83.3332H58.3332C59.3332 83.3332 59.9998 82.6666 59.9998 81.6666C59.9998 80.6666 59.3334 80 58.3334 80Z" fill="#B3D337"/>
<path d="M58.3334 88.3335H26.6666C25.6666 88.3335 25 89.0001 25 90.0001C25 91.0001 25.6666 91.6667 26.6666 91.6667H58.3332C59.3332 91.6667 59.9998 91.0001 59.9998 90.0001C60 89.0001 59.3334 88.3335 58.3334 88.3335Z" fill="#B3D337"/>
<path d="M75.0001 21.6667H81.6667C82.6667 21.6667 83.3333 21.0001 83.3333 20.0001C83.3333 19.0001 82.6667 18.3335 81.6667 18.3335H75.0001C74.0001 18.3335 73.3335 19.0001 73.3335 20.0001C73.3335 21.0001 74.0001 21.6667 75.0001 21.6667Z" fill="#B3D337"/>
<path d="M75.0001 30.0002H81.6667C82.6667 30.0002 83.3333 29.3336 83.3333 28.3336C83.3333 27.3336 82.6667 26.667 81.6667 26.667H75.0001C74.0001 26.667 73.3335 27.3336 73.3335 28.3336C73.3335 29.3336 74.0001 30.0002 75.0001 30.0002Z" fill="#B3D337"/>
<path d="M75.0001 38.3332H81.6667C82.6667 38.3332 83.3333 37.6666 83.3333 36.6666C83.3333 35.6666 82.6667 35 81.6667 35H75.0001C74.0001 35 73.3335 35.6666 73.3335 36.6666C73.3335 37.6666 74.0001 38.3332 75.0001 38.3332Z" fill="#B3D337"/>
<path d="M75.0001 46.6667H81.6667C82.6667 46.6667 83.3333 46.0001 83.3333 45.0001C83.3333 44.0001 82.6667 43.3335 81.6667 43.3335H75.0001C74.0001 43.3335 73.3335 44.0001 73.3335 45.0001C73.3335 46.0001 74.0001 46.6667 75.0001 46.6667Z" fill="#B3D337"/>
<path d="M75.0001 55.0002H81.6667C82.6667 55.0002 83.3333 54.3336 83.3333 53.3336C83.3333 52.3336 82.6667 51.667 81.6667 51.667H75.0001C74.0001 51.667 73.3335 52.3336 73.3335 53.3336C73.3335 54.3336 74.0001 55.0002 75.0001 55.0002Z" fill="#B3D337"/>
<path d="M75.0001 63.3332H81.6667C82.6667 63.3332 83.3333 62.6666 83.3333 61.6666C83.3333 60.6666 82.6667 60 81.6667 60H75.0001C74.0001 60 73.3335 60.6666 73.3335 61.6666C73.3335 62.6666 74.0001 63.3332 75.0001 63.3332Z" fill="#B3D337"/>
<path d="M75.0001 71.6667H81.6667C82.6667 71.6667 83.3333 71.0001 83.3333 70.0001C83.3333 69.0001 82.6667 68.3335 81.6667 68.3335H75.0001C74.0001 68.3335 73.3335 69.0001 73.3335 70.0001C73.3335 71.0001 74.0001 71.6667 75.0001 71.6667Z" fill="#B3D337"/>
<path d="M75.0001 80.0002H81.6667C82.6667 80.0002 83.3333 79.3336 83.3333 78.3336C83.3333 77.3336 82.6667 76.667 81.6667 76.667H75.0001C74.0001 76.667 73.3335 77.3336 73.3335 78.3336C73.3335 79.3336 74.0001 80.0002 75.0001 80.0002Z" fill="#B3D337"/>
</g>
<defs>
<clipPath id="clip0_2161_176">
<rect width="100" height="100" fill="white"/>
</clipPath>
</defs>
</svg>
