<svg width="100" height="100" viewBox="0 0 100 100" fill="none" xmlns="http://www.w3.org/2000/svg">
<g clip-path="url(#clip0_2161_213)">
<path d="M19.9999 99.9998H93.3333C97.0152 99.9998 99.9999 97.0151 99.9999 93.3332V88.3332C99.9976 88.318 99.9942 88.3029 99.9899 88.2882C99.9728 87.9594 99.8693 87.6409 99.6899 87.3648L91.6666 76.1315V41.6665C91.6666 38.9051 89.428 36.6665 86.6666 36.6665H33.3333C32.4128 36.6665 31.6666 37.4127 31.6666 38.3332C31.6666 39.2536 32.4128 39.9998 33.3333 39.9998H86.6666C87.5871 39.9998 88.3333 40.746 88.3333 41.6665V74.9998H24.9999V68.3332C24.9999 67.4127 24.2537 66.6665 23.3333 66.6665C22.4128 66.6665 21.6666 67.4127 21.6666 68.3332V76.1315L13.6433 87.3648C13.4576 87.6379 13.3535 87.9582 13.3433 88.2882C13.339 88.3029 13.3356 88.318 13.3333 88.3332V93.3332C13.3333 97.0151 16.318 99.9998 19.9999 99.9998ZM96.6666 93.3332C96.6666 95.1741 95.1742 96.6665 93.3333 96.6665H19.9999C18.159 96.6665 16.6666 95.1741 16.6666 93.3332V89.9998H40.9766L43.8216 92.8448C44.1341 93.1574 44.5579 93.3331 44.9999 93.3332H68.3333C68.7752 93.3331 69.1991 93.1574 69.5116 92.8448L72.3566 89.9998H96.6666V93.3332ZM56.6666 89.9998H45.6899L43.5733 87.8832L44.5349 84.9998H68.7983L69.7599 87.8832L67.6433 89.9998H56.6666ZM24.1916 78.3332H89.1416L95.0949 86.6665H72.8683L71.5816 82.8065C71.3548 82.1256 70.7176 81.6663 69.9999 81.6665H43.3333C42.6156 81.6663 41.9784 82.1256 41.7516 82.8065L40.4649 86.6665H18.2383L24.1916 78.3332Z" fill="#B3D337"/>
<path d="M43.3133 1.84487C31.5497 -2.28 18.4633 0.687194 9.62916 9.48235C0.795029 18.2775 -2.23 31.3507 1.8428 43.1324C5.9156 54.9141 16.3685 63.3281 28.7483 64.7899C30.0029 64.93 31.2643 65.0001 32.5266 64.9999C36.2082 65.0047 39.8634 64.3784 43.3333 63.1482C44.9634 62.5832 46.0504 61.04 46.0333 59.3149C46.0453 57.6118 44.9687 56.0911 43.3583 55.5365C33.5869 52.0934 27.0507 42.8602 27.0507 32.4999C27.0507 22.1395 33.5869 12.9064 43.3583 9.4632C44.9647 8.90979 46.0382 7.39221 46.025 5.6932C46.0422 3.96093 44.9504 2.41149 43.3133 1.84487ZM42.255 6.3182C31.1483 10.2303 23.7187 20.7244 23.7187 32.4999C23.7187 44.2754 31.1483 54.7694 42.255 58.6815C42.5304 58.7697 42.7132 59.0309 42.7017 59.3199C42.712 59.63 42.5164 59.9097 42.2216 60.0065C30.139 64.2681 16.6899 60.1456 9.07096 49.845C1.45201 39.5443 1.44732 25.4776 9.05941 15.1719C16.6715 4.8661 30.1178 0.734652 42.2033 4.9882C42.5084 5.08365 42.7127 5.37037 42.7033 5.68987C42.7177 5.97796 42.5321 6.23813 42.255 6.3182Z" fill="#B3D337"/>
<path d="M45.0001 16.6667C45.0001 15.7462 44.2539 15 43.3334 15C42.4129 15 41.6667 15.7462 41.6667 16.6667V20C41.6667 20.9205 42.4129 21.6667 43.3334 21.6667C44.2539 21.6667 45.0001 20.9205 45.0001 20V16.6667Z" fill="#B3D337"/>
<path d="M43.3334 31.6667C44.2539 31.6667 45.0001 30.9205 45.0001 30V26.6667C45.0001 25.7462 44.2539 25 43.3334 25C42.4129 25 41.6667 25.7462 41.6667 26.6667V30C41.6667 30.9205 42.4129 31.6667 43.3334 31.6667Z" fill="#B3D337"/>
<path d="M46.6667 24.9998H50C50.9205 24.9998 51.6667 24.2536 51.6667 23.3332C51.6667 22.4127 50.9205 21.6665 50 21.6665H46.6667C45.7462 21.6665 45 22.4127 45 23.3332C45 24.2536 45.7462 24.9998 46.6667 24.9998Z" fill="#B3D337"/>
<path d="M40 21.6665H36.6667C35.7462 21.6665 35 22.4127 35 23.3332C35 24.2536 35.7462 24.9998 36.6667 24.9998H40C40.9205 24.9998 41.6667 24.2536 41.6667 23.3332C41.6667 22.4127 40.9205 21.6665 40 21.6665Z" fill="#B3D337"/>
<path d="M60.8334 7.49987C61.2753 7.49977 61.6992 7.32411 62.0117 7.01153L64.5117 4.51153C65.1433 3.85757 65.1343 2.81806 64.4914 2.17517C63.8485 1.53228 62.809 1.52324 62.155 2.15487L59.655 4.65487C59.1785 5.13152 59.036 5.84826 59.2939 6.47096C59.5518 7.09365 60.1594 7.49972 60.8334 7.49987Z" fill="#B3D337"/>
<path d="M52.155 14.5115C52.8058 15.1622 53.8608 15.1622 54.5116 14.5115L57.0116 12.0115C57.4449 11.5931 57.6187 10.9734 57.4661 10.3907C57.3136 9.80796 56.8585 9.35288 56.2758 9.20036C55.6931 9.04783 55.0734 9.22159 54.655 9.65485L52.155 12.1549C51.5043 12.8057 51.5043 13.8607 52.155 14.5115Z" fill="#B3D337"/>
<path d="M59.6549 12.0115L62.1549 14.5115C62.8088 15.1432 63.8483 15.1341 64.4912 14.4912C65.1341 13.8483 65.1432 12.8088 64.5115 12.1549L62.0115 9.65487C61.3576 9.02324 60.3181 9.03228 59.6752 9.67517C59.0323 10.3181 59.0232 11.3576 59.6549 12.0115Z" fill="#B3D337"/>
<path d="M54.6549 7.01153C55.3088 7.64315 56.3483 7.63412 56.9912 6.99123C57.6341 6.34834 57.6432 5.30883 57.0115 4.65487L54.5115 2.15487C53.8576 1.52324 52.8181 1.53228 52.1752 2.17517C51.5323 2.81806 51.5232 3.85757 52.1549 4.51153L54.6549 7.01153Z" fill="#B3D337"/>
</g>
<defs>
<clipPath id="clip0_2161_213">
<rect width="100" height="100" fill="white"/>
</clipPath>
</defs>
</svg>
