<svg width="100" height="100" viewBox="0 0 100 100" fill="none" xmlns="http://www.w3.org/2000/svg">
<g clip-path="url(#clip0_2161_226)">
<path d="M7.65581 68.0329H36.0656C36.971 68.0329 37.705 67.299 37.705 66.3936C37.705 65.4882 36.971 64.7542 36.0656 64.7542H7.65581C6.14425 64.7518 4.89511 63.5745 4.80335 62.0657V7.00343C4.80919 5.42186 6.0746 4.13317 7.65581 4.09851H62.8033C64.3327 4.10032 65.572 5.33965 65.5738 6.869V36.8854C65.5738 37.7908 66.3078 38.5247 67.2132 38.5247C68.1186 38.5247 68.8525 37.7908 68.8525 36.8854V6.869C68.8489 3.52963 66.1427 0.823438 62.8033 0.819824H7.65581C4.28375 0.853574 1.55841 3.57891 1.52466 6.95097V62.1313C1.67286 65.4164 4.36749 68.0101 7.65581 68.0329Z" fill="#B3D337"/>
<path d="M59.4804 72.7672L51.2836 71.595C50.3427 71.4605 49.3896 71.741 48.6715 72.3638C47.9534 72.9866 47.541 73.8904 47.541 74.8409V77.8688C47.541 79.6796 49.0089 81.1475 50.8197 81.1475H59.0164C60.8272 81.1475 62.2951 79.6796 62.2951 77.8688V76.0114C62.2888 74.3825 61.0921 73.0032 59.4804 72.7672ZM50.8197 77.8688V74.8409L59.0164 76.0114V77.8688H50.8197Z" fill="#B3D337"/>
<path d="M89.6999 71.595L81.5032 72.7672C79.8915 73.0032 78.6948 74.3825 78.6885 76.0114V77.8688C78.6885 79.6796 80.1564 81.1475 81.9672 81.1475H90.1639C91.9747 81.1475 93.4426 79.6796 93.4426 77.8688V74.8409C93.4426 73.8904 93.0302 72.9866 92.3121 72.3638C91.594 71.741 90.6409 71.4605 89.6999 71.595ZM90.1639 77.8688H81.9672V76.0114L90.1639 74.8409V77.8688Z" fill="#B3D337"/>
<path d="M73.7705 71.3115H67.2131C66.3077 71.3115 65.5737 72.0455 65.5737 72.9509C65.5737 73.8563 66.3077 74.5902 67.2131 74.5902H73.7705C74.6758 74.5902 75.4098 73.8563 75.4098 72.9509C75.4098 72.0455 74.6758 71.3115 73.7705 71.3115Z" fill="#B3D337"/>
<path d="M73.7705 77.8691H67.2131C66.3077 77.8691 65.5737 78.6031 65.5737 79.5085C65.5737 80.4139 66.3077 81.1478 67.2131 81.1478H73.7705C74.6758 81.1478 75.4098 80.4139 75.4098 79.5085C75.4098 78.6031 74.6758 77.8691 73.7705 77.8691Z" fill="#B3D337"/>
<path d="M63.4542 48.8413C62.814 48.2013 61.7763 48.2013 61.1361 48.8413L57.8574 52.12C57.4313 52.5316 57.2604 53.1411 57.4104 53.7143C57.5604 54.2874 58.008 54.735 58.5812 54.8851C59.1544 55.0351 59.7639 54.8642 60.1755 54.438L63.4542 51.1593C64.0941 50.5192 64.0941 49.4815 63.4542 48.8413Z" fill="#B3D337"/>
<path d="M70.9721 48.841L61.136 58.6771C60.7099 59.0887 60.5389 59.6982 60.689 60.2714C60.839 60.8445 61.2866 61.2922 61.8598 61.4422C62.4329 61.5922 63.0424 61.4213 63.454 60.9951L73.2901 51.1591C73.9114 50.5158 73.9025 49.4934 73.2701 48.861C72.6378 48.2287 71.6153 48.2198 70.9721 48.841Z" fill="#B3D337"/>
<path d="M100 63.1147C100 60.3985 97.7982 58.1967 95.082 58.1967H91.1656L88.5246 48.9376C87.3056 44.7222 83.4521 41.8162 79.064 41.8032H61.9197C57.5316 41.8162 53.678 44.7222 52.4591 48.9376L49.8181 58.1967H45.9017C43.1855 58.1967 40.9836 60.3985 40.9836 63.1147C40.9862 64.8054 41.8598 66.3754 43.2951 67.2688C41.8147 68.7899 40.9856 70.8282 40.9836 72.9508V82.7868C40.9923 84.8635 42.3044 86.711 44.2623 87.4032V94.2622C44.2623 96.9784 46.4642 99.1803 49.1804 99.1803H50.8197C53.5359 99.1803 55.7377 96.9784 55.7377 94.2622V87.7049H85.2459V94.2622C85.2459 96.9784 87.4478 99.1803 90.164 99.1803H91.8033C94.5195 99.1803 96.7213 96.9784 96.7213 94.2622V87.4032C98.6793 86.711 99.9914 84.8635 100 82.7868V72.9508C99.9981 70.8298 99.1702 68.7929 97.6918 67.2721C97.999 67.0818 98.2829 66.8562 98.5377 66.5999C99.4787 65.6853 100.007 64.4269 100 63.1147ZM55.6148 49.836C56.4283 47.0276 58.9958 45.0916 61.9197 45.0819H79.064C81.9878 45.0916 84.5553 47.0276 85.3689 49.836L89.6312 64.754H51.3541L55.6148 49.836ZM45.9017 61.4754H48.8804L47.9443 64.754H45.9017C45.46 64.7555 45.0374 64.5739 44.7345 64.2524C44.4286 63.9534 44.258 63.5424 44.2623 63.1147C44.2623 62.2093 44.9963 61.4754 45.9017 61.4754ZM52.4591 94.2622C52.4591 95.1676 51.7251 95.9016 50.8197 95.9016H49.1804C48.275 95.9016 47.541 95.1676 47.541 94.2622V87.7049H52.4591V94.2622ZM93.4427 94.2622C93.4427 95.1676 92.7087 95.9016 91.8033 95.9016H90.164C89.2586 95.9016 88.5246 95.1676 88.5246 94.2622V87.7049H93.4427V94.2622ZM96.7213 82.7868C96.7213 83.6922 95.9874 84.4262 95.082 84.4262H45.9017C44.9963 84.4262 44.2623 83.6922 44.2623 82.7868V72.9508C44.2623 70.2346 46.4642 68.0327 49.1804 68.0327H91.8033C94.5195 68.0327 96.7213 70.2346 96.7213 72.9508V82.7868ZM96.2197 64.2819C95.9207 64.5878 95.5097 64.7583 95.082 64.754H93.0394L92.1033 61.4754H95.082C95.9874 61.4754 96.7213 62.2093 96.7213 63.1147C96.7228 63.5564 96.5412 63.979 96.2197 64.2819Z" fill="#B3D337"/>
<path d="M36.8852 17.2134H27.8688C26.9635 17.2134 26.2295 17.9473 26.2295 18.8527V33.6068C26.2295 34.5122 26.9635 35.2462 27.8688 35.2462H36.8852C41.8648 35.2462 45.9016 31.2094 45.9016 26.2298C45.9016 21.2502 41.8648 17.2134 36.8852 17.2134ZM36.8852 31.9675H29.5082V20.4921H36.8852C40.0541 20.4921 42.6229 23.0609 42.6229 26.2298C42.6229 29.3986 40.0541 31.9675 36.8852 31.9675Z" fill="#B3D337"/>
<path d="M36.3362 9.01641H22.951C20.2348 9.01641 18.033 11.2183 18.033 13.9344V54.918C18.033 57.6342 20.2348 59.8361 22.951 59.8361H24.5903C27.3065 59.8361 29.5084 57.6342 29.5084 54.918V43.4426H36.8854C41.6493 43.4328 46.1976 41.4556 49.4543 37.9787C52.7294 34.5042 54.3995 29.8168 54.0592 25.0541C53.2716 15.8876 45.5356 8.8872 36.3362 9.01641ZM47.0608 35.7377C44.4244 38.553 40.7424 40.1546 36.8854 40.1639H27.869C26.9636 40.1639 26.2297 40.8979 26.2297 41.8033V54.918C26.2297 55.8234 25.4957 56.5574 24.5903 56.5574H22.951C22.0456 56.5574 21.3116 55.8234 21.3116 54.918V13.9344C21.3116 13.0291 22.0456 12.2951 22.951 12.2951H36.3362C43.81 12.1661 50.1154 17.8292 50.7871 25.2738C51.0643 29.1296 49.7127 32.925 47.0608 35.7377Z" fill="#B3D337"/>
</g>
<defs>
<clipPath id="clip0_2161_226">
<rect width="100" height="100" fill="white"/>
</clipPath>
</defs>
</svg>
