<svg width="100" height="100" viewBox="0 0 100 100" fill="none" xmlns="http://www.w3.org/2000/svg">
<path d="M76.9833 0H16.6667C15.7467 0 15 0.746667 15 1.66667V98.3333C15 99.2533 15.7467 100 16.6667 100H76.9833C81.4033 100 85 96.4033 85 91.9833V8.01667C85 3.59667 81.4033 0 76.9833 0ZM81.6667 91.9833C81.6667 94.565 79.565 96.6667 76.9833 96.6667H18.3333V3.33333H76.9833C79.565 3.33333 81.6667 5.435 81.6667 8.01667V91.9833Z" fill="#B3D337"/>
<path d="M70.71 19.0383C70.6617 18.9683 70.5917 18.9283 70.535 18.8683C65.64 13.7067 58.8367 10.4 51.26 10.0633L51.2167 10.03L50 10L48.7833 10.03L48.74 10.065C41.165 10.4 34.3617 13.705 29.4667 18.8667C29.41 18.9283 29.3367 18.9683 29.2883 19.04C29.28 19.0533 29.2783 19.0683 29.27 19.0817C24.5683 24.1417 21.6667 30.8967 21.6667 38.3333C21.6667 45.485 24.35 52.0067 28.7367 56.9983C28.7533 57.025 28.755 57.055 28.7733 57.0817C28.845 57.1817 28.945 57.245 29.0333 57.325C33.955 62.7533 40.935 66.2583 48.74 66.6033L48.7833 66.6383L50 66.6667L51.2167 66.6367L51.26 66.6017C59.1083 66.255 66.1233 62.7133 71.05 57.2317C71.105 57.175 71.1783 57.1467 71.2267 57.08C71.245 57.0533 71.2467 57.0233 71.2633 56.9967C75.65 52.0067 78.3333 45.485 78.3333 38.3333C78.3333 30.8967 75.4317 24.1417 70.7283 19.0817C70.72 19.0683 70.72 19.0517 70.71 19.0383ZM44.555 13.9483C42.2283 16.46 40.29 19.265 38.7817 22.2833C36.9117 21.5967 35.1 20.745 33.3717 19.7167C36.4983 16.9217 40.32 14.8933 44.555 13.9483ZM30.9817 22.1483C33.0333 23.4317 35.19 24.5033 37.4317 25.34C36.0433 28.9217 35.2267 32.7367 35.0467 36.6667H25.085C25.4517 31.1483 27.6 26.1167 30.9817 22.1483ZM30.4717 53.9C27.3833 50.0333 25.4333 45.2367 25.085 40H35.0467C35.2133 43.6267 35.9183 47.1567 37.1167 50.4967C34.8017 51.3883 32.58 52.5283 30.4717 53.9ZM32.7533 56.3867C34.5483 55.2633 36.4333 54.3267 38.3883 53.58C39.9467 56.905 42.0233 59.9833 44.5567 62.7183C40.0383 61.71 35.9867 59.4767 32.7533 56.3867ZM48.3333 61.8167C45.525 59.1167 43.255 55.9783 41.5917 52.545C43.7833 51.9617 46.0367 51.6067 48.3333 51.4917V61.8167ZM48.3333 48.1583C45.5867 48.2833 42.895 48.7183 40.2867 49.45C39.1983 46.4433 38.5433 43.2667 38.3783 40H48.3333V48.1583ZM48.3333 36.6667H38.3783C38.5583 33.0867 39.3217 29.6117 40.6067 26.3533C43.1167 27.0317 45.7017 27.4367 48.3333 27.5567V36.6667ZM48.3333 24.2233C46.185 24.115 44.0717 23.8 42.0117 23.28C43.63 20.175 45.755 17.3267 48.3333 14.8483V24.2233ZM66.6283 19.7183C64.9 20.7467 63.0883 21.5983 61.2183 22.285C59.71 19.2667 57.7733 16.4617 55.445 13.95C59.68 14.8933 63.5017 16.9217 66.6283 19.7183ZM51.6667 14.85C54.245 17.3283 56.37 20.175 57.9883 23.2817C55.9283 23.8 53.815 24.1167 51.6667 24.225V14.85ZM51.6667 27.5567C54.2983 27.4367 56.8833 27.0317 59.3933 26.3533C60.6783 29.6117 61.4417 33.0867 61.6217 36.6667H51.6667V27.5567ZM51.6667 40H61.6217C61.4567 43.2667 60.8017 46.4433 59.7133 49.45C57.105 48.7183 54.4133 48.2833 51.6667 48.1583V40ZM51.6667 51.4917C53.9633 51.6067 56.2183 51.9617 58.4083 52.545C56.745 55.9767 54.475 59.1167 51.6667 61.8167V51.4917ZM55.445 62.7183C57.9783 59.9833 60.055 56.905 61.6133 53.58C63.5667 54.3267 65.4517 55.2633 67.2483 56.3867C64.0133 59.4767 59.9617 61.71 55.445 62.7183ZM69.5283 53.9C67.4183 52.53 65.1967 51.3883 62.8833 50.4967C64.0817 47.1567 64.7867 43.6267 64.9533 40H74.915C74.5683 45.235 72.6167 50.0333 69.5283 53.9ZM64.9533 36.6667C64.7733 32.7367 63.9567 28.9217 62.5683 25.34C64.81 24.5017 66.965 23.4317 69.0183 22.1483C72.4 26.1167 74.5483 31.1483 74.915 36.6667H64.9533Z" fill="#B3D337"/>
<path d="M75 75H25C24.08 75 23.3333 75.7467 23.3333 76.6667C23.3333 77.5867 24.08 78.3333 25 78.3333H75C75.92 78.3333 76.6667 77.5867 76.6667 76.6667C76.6667 75.7467 75.92 75 75 75Z" fill="#B3D337"/>
<path d="M75 83.3335H25C24.08 83.3335 23.3333 84.0802 23.3333 85.0002C23.3333 85.9202 24.08 86.6668 25 86.6668H75C75.92 86.6668 76.6667 85.9202 76.6667 85.0002C76.6667 84.0802 75.92 83.3335 75 83.3335Z" fill="#B3D337"/>
</svg>
