<svg width="100" height="100" viewBox="0 0 100 100" fill="none" xmlns="http://www.w3.org/2000/svg">
<g clip-path="url(#clip0_2179_89)">
<path d="M8.33342 91.6667H51.6668C56.2668 91.6611 59.9946 87.9334 60.0002 83.3333V39.9999C59.9946 35.3999 56.2669 31.6721 51.6668 31.6665H8.33342C3.73322 31.6721 0.00555855 35.3999 0 39.9999V83.3333C0.00555855 87.9333 3.73322 91.6611 8.33342 91.6667ZM3.33333 39.9999C3.33333 37.2385 5.57196 35 8.33342 35H51.6668C54.4282 35 56.6667 37.2386 56.6667 39.9999V83.3333C56.6667 86.0947 54.428 88.3332 51.6668 88.3332H8.33342C5.57196 88.3332 3.33333 86.0945 3.33333 83.3333V39.9999Z" fill="#B3D337"/>
<path fill-rule="evenodd" clip-rule="evenodd" d="M9.99996 85.0003H13.3333C14.2537 85.0003 15 84.2542 15 83.3336C15 82.413 14.2539 81.667 13.3333 81.667H9.99996C9.07953 81.667 8.33337 82.4131 8.33337 83.3336C8.33337 84.254 9.07953 85.0003 9.99996 85.0003Z" fill="#B3D337"/>
<path fill-rule="evenodd" clip-rule="evenodd" d="M18.3334 83.3336C18.3334 84.254 19.0795 85.0003 20 85.0003H50C50.9204 85.0003 51.6667 84.2542 51.6667 83.3336C51.6667 82.413 50.9206 81.667 50 81.667H20C19.0795 81.667 18.3334 82.4131 18.3334 83.3336Z" fill="#B3D337"/>
<path d="M91.6668 0H71.6668C67.0668 0.00555855 63.3389 3.73322 63.3334 8.33341V91.6667C63.3389 96.2668 67.0666 99.9946 71.6668 100H91.6668C96.2668 99.9944 99.9946 96.2668 100 91.6667V8.33341C99.9945 3.73322 96.2668 0.00555855 91.6668 0ZM96.6667 91.6667C96.6667 94.4282 94.4281 96.6667 91.6668 96.6667H71.6668C68.9053 96.6667 66.6669 94.428 66.6669 91.6667V8.33341C66.6669 5.57196 68.9055 3.33333 71.6668 3.33333H91.6668C94.4282 3.33333 96.6667 5.57196 96.6667 8.33341V91.6667Z" fill="#B3D337"/>
<path d="M30 75.0002C37.3637 75.0002 43.3333 69.0306 43.3333 61.6668C43.3333 54.3031 37.3637 48.3335 30 48.3335C22.6362 48.3335 16.6666 54.3031 16.6666 61.6668C16.675 69.0272 22.6396 74.9918 30 75.0002ZM30 51.6668C35.5229 51.6668 40 56.1439 40 61.6668C40 67.1897 35.5229 71.6668 30 71.6668C24.477 71.6668 20 67.1897 20 61.6668C20.0055 56.1462 24.4793 51.6722 30 51.6668Z" fill="#B3D337"/>
<path d="M88.3334 10H75C72.2386 10 70.0001 12.2386 70.0001 15.0001V18.3334C70.0001 21.0949 72.2387 23.3333 75 23.3333H88.3334C91.0948 23.3333 93.3333 21.0947 93.3333 18.3334V15.0001C93.3333 12.2386 91.0947 10 88.3334 10ZM90 18.3334C90 19.2538 89.2538 20 88.3332 20H74.9999C74.0794 20 73.3333 19.2538 73.3333 18.3334V15.0001C73.3333 14.0797 74.0794 13.3333 74.9999 13.3333H88.3332C89.2536 13.3333 90 14.0795 90 15.0001V18.3334Z" fill="#B3D337"/>
<path fill-rule="evenodd" clip-rule="evenodd" d="M71.6667 31.6668H75C75.9205 31.6668 76.6668 30.9207 76.6668 30.0002C76.6668 29.0798 75.9206 28.3335 75 28.3335H71.6667C70.7463 28.3335 70.0001 29.0796 70.0001 30.0002C70 30.9205 70.7461 31.6668 71.6667 31.6668Z" fill="#B3D337"/>
<path fill-rule="evenodd" clip-rule="evenodd" d="M80 31.6668H83.3333C84.2537 31.6668 85 30.9207 85 30.0002C85 29.0798 84.2539 28.3335 83.3333 28.3335H80C79.0795 28.3335 78.3334 29.0796 78.3334 30.0002C78.3334 30.9205 79.0795 31.6668 80 31.6668Z" fill="#B3D337"/>
<path fill-rule="evenodd" clip-rule="evenodd" d="M91.6668 28.3335H88.3335C87.413 28.3335 86.6669 29.0796 86.6669 30.0002C86.6669 30.9207 87.413 31.6668 88.3335 31.6668H91.6668C92.5872 31.6668 93.3334 30.9207 93.3334 30.0002C93.3334 29.0796 92.5872 28.3335 91.6668 28.3335Z" fill="#B3D337"/>
<path fill-rule="evenodd" clip-rule="evenodd" d="M71.6667 38.3335H75C75.9205 38.3335 76.6668 37.5873 76.6668 36.6667C76.6668 35.7462 75.9206 35 75 35H71.6667C70.7463 35 70.0001 35.7462 70.0001 36.6667C70.0001 37.5873 70.7461 38.3335 71.6667 38.3335Z" fill="#B3D337"/>
<path fill-rule="evenodd" clip-rule="evenodd" d="M80 38.3335H83.3333C84.2537 38.3335 85 37.5873 85 36.6667C85 35.7462 84.2539 35 83.3333 35H80C79.0795 35 78.3334 35.7462 78.3334 36.6667C78.3334 37.5873 79.0795 38.3335 80 38.3335Z" fill="#B3D337"/>
<path fill-rule="evenodd" clip-rule="evenodd" d="M91.6668 35H88.3335C87.413 35 86.6669 35.7462 86.6669 36.6667C86.6669 37.5873 87.413 38.3335 88.3335 38.3335H91.6668C92.5872 38.3335 93.3334 37.5873 93.3334 36.6667C93.3334 35.7462 92.5872 35 91.6668 35Z" fill="#B3D337"/>
<path fill-rule="evenodd" clip-rule="evenodd" d="M71.6667 45.0003H75C75.9205 45.0003 76.6668 44.2542 76.6668 43.3337C76.6668 42.4133 75.9206 41.667 75 41.667H71.6667C70.7463 41.667 70.0001 42.4131 70.0001 43.3337C70 44.254 70.7461 45.0003 71.6667 45.0003Z" fill="#B3D337"/>
<path fill-rule="evenodd" clip-rule="evenodd" d="M80 45.0003H83.3333C84.2537 45.0003 85 44.2542 85 43.3337C85 42.4133 84.2539 41.667 83.3333 41.667H80C79.0795 41.667 78.3334 42.4131 78.3334 43.3337C78.3334 44.254 79.0795 45.0003 80 45.0003Z" fill="#B3D337"/>
<path fill-rule="evenodd" clip-rule="evenodd" d="M91.6668 41.667H88.3335C87.413 41.667 86.6669 42.4131 86.6669 43.3337C86.6669 44.2542 87.413 45.0003 88.3335 45.0003H91.6668C92.5872 45.0003 93.3334 44.2542 93.3334 43.3337C93.3334 42.4131 92.5872 41.667 91.6668 41.667Z" fill="#B3D337"/>
<path fill-rule="evenodd" clip-rule="evenodd" d="M71.6667 51.6668H75C75.9205 51.6668 76.6668 50.9207 76.6668 50.0001C76.6668 49.0797 75.9206 48.3335 75 48.3335H71.6667C70.7463 48.3335 70.0001 49.0797 70.0001 50.0001C70 50.9205 70.7461 51.6668 71.6667 51.6668Z" fill="#B3D337"/>
<path fill-rule="evenodd" clip-rule="evenodd" d="M80 51.6668H83.3333C84.2537 51.6668 85 50.9207 85 50.0001C85 49.0797 84.2539 48.3335 83.3333 48.3335H80C79.0795 48.3335 78.3334 49.0797 78.3334 50.0001C78.3334 50.9205 79.0795 51.6668 80 51.6668Z" fill="#B3D337"/>
<path fill-rule="evenodd" clip-rule="evenodd" d="M91.6668 48.3335H88.3335C87.413 48.3335 86.6669 49.0797 86.6669 50.0001C86.6669 50.9205 87.413 51.6668 88.3335 51.6668H91.6668C92.5872 51.6668 93.3334 50.9207 93.3334 50.0001C93.3334 49.0797 92.5872 48.3335 91.6668 48.3335Z" fill="#B3D337"/>
<path fill-rule="evenodd" clip-rule="evenodd" d="M76.6667 56.6667C76.6667 55.7463 75.9205 55 74.9999 55H71.6666C70.7462 55 70 55.7462 70 56.6667C70 57.5872 70.7462 58.3333 71.6666 58.3333H74.9999C75.9205 58.3335 76.6667 57.5872 76.6667 56.6667Z" fill="#B3D337"/>
<path fill-rule="evenodd" clip-rule="evenodd" d="M80 58.3333H83.3333C84.2537 58.3333 85 57.5872 85 56.6667C85 55.7463 84.2539 55 83.3333 55H80C79.0795 55 78.3334 55.7462 78.3334 56.6667C78.3334 57.587 79.0795 58.3333 80 58.3333Z" fill="#B3D337"/>
<path fill-rule="evenodd" clip-rule="evenodd" d="M91.6668 55H88.3335C87.413 55 86.6669 55.7462 86.6669 56.6667C86.6669 57.5872 87.413 58.3333 88.3335 58.3333H91.6668C92.5872 58.3333 93.3334 57.5872 93.3334 56.6667C93.3334 55.7462 92.5872 55 91.6668 55Z" fill="#B3D337"/>
<path fill-rule="evenodd" clip-rule="evenodd" d="M86.21 64.2515C83.304 63.0314 80.0294 63.0314 77.1234 64.2515C76.2757 64.6105 75.8795 65.5888 76.2385 66.4365C76.5975 67.2842 77.5758 67.6805 78.4235 67.3215C80.4984 66.4532 82.8352 66.4532 84.9101 67.3215C85.116 67.4076 85.337 67.4524 85.5602 67.4531C86.3531 67.4534 87.0364 66.8951 87.1942 66.118C87.3518 65.3411 86.9403 64.5605 86.21 64.2515Z" fill="#B3D337"/>
<path fill-rule="evenodd" clip-rule="evenodd" d="M90.2316 69.5733C89.384 69.9315 88.9872 70.9088 89.3449 71.7566C90.2182 73.8306 90.2182 76.1693 89.3449 78.2433C88.987 79.091 89.384 80.0685 90.2316 80.4267C90.4365 80.5145 90.657 80.5599 90.88 80.5601C91.5498 80.5599 92.1544 80.1587 92.415 79.5417C93.6394 76.6377 93.6394 73.3624 92.415 70.4584C92.0562 69.6114 91.079 69.2152 90.2316 69.5733Z" fill="#B3D337"/>
<path fill-rule="evenodd" clip-rule="evenodd" d="M84.91 82.6783C82.835 83.5466 80.4983 83.5466 78.4233 82.6783C77.5757 82.3193 76.5974 82.7156 76.2383 83.5633C75.8793 84.4109 76.2756 85.3893 77.1233 85.7483C80.0285 86.9726 83.3047 86.9726 86.2099 85.7483C87.0576 85.3893 87.4539 84.4109 87.0949 83.5633C86.736 82.7154 85.7579 82.3193 84.91 82.6783Z" fill="#B3D337"/>
<path fill-rule="evenodd" clip-rule="evenodd" d="M73.1016 69.5733C72.2543 69.2152 71.2771 69.6114 70.9183 70.4582C69.6939 73.3622 69.6939 76.6375 70.9183 79.5416C71.1789 80.1586 71.7834 80.5597 72.4532 80.5599C72.6761 80.5597 72.8966 80.5145 73.1016 80.4265C73.9493 80.0683 74.3461 79.091 73.9882 78.2431C73.1149 76.1691 73.1149 73.8305 73.9882 71.7565C74.3461 70.909 73.9493 69.9315 73.1016 69.5733Z" fill="#B3D337"/>
<path d="M81.6668 79.9998C84.4282 79.9998 86.6669 77.7612 86.6669 74.9999C86.6669 72.2386 84.4282 70 81.6668 70C78.9053 70 76.6669 72.2386 76.6669 74.9999C76.6669 77.7612 78.9053 79.9998 81.6668 79.9998ZM81.6668 73.3332C82.5872 73.3332 83.3334 74.0793 83.3334 74.9998C83.3334 75.9202 82.5872 76.6665 81.6668 76.6665C80.7464 76.6665 80 75.9203 80 74.9998C80 74.0793 80.7462 73.3332 81.6668 73.3332Z" fill="#B3D337"/>
<path fill-rule="evenodd" clip-rule="evenodd" d="M13.0766 18.7134C22.4934 9.3183 37.7381 9.3183 47.1549 18.7134C47.5763 19.1344 48.1901 19.2987 48.7653 19.1443C49.3404 18.99 49.7897 18.5404 49.9437 17.9651C50.0977 17.3898 49.9329 16.7761 49.5116 16.3551C38.7928 5.65963 21.4388 5.65963 10.7199 16.3551C10.2986 16.7761 10.134 17.3898 10.2878 17.9651C10.4418 18.5404 10.8909 18.99 11.4663 19.1443C12.0414 19.2987 12.6553 19.1344 13.0766 18.7134Z" fill="#B3D337"/>
<path fill-rule="evenodd" clip-rule="evenodd" d="M43.1284 23.715C43.8024 23.7148 44.4099 23.3087 44.6678 22.686C44.9257 22.0632 44.7832 21.3465 44.3066 20.87C36.4648 13.0433 23.7668 13.0433 15.925 20.87C15.2934 21.5239 15.3024 22.5634 15.9452 23.2063C16.5881 23.8492 17.6277 23.8583 18.2816 23.2266C24.8219 16.7033 35.408 16.7033 41.9483 23.2266C42.2612 23.5395 42.6858 23.7153 43.1284 23.715Z" fill="#B3D337"/>
<path fill-rule="evenodd" clip-rule="evenodd" d="M21.1301 25.3884C20.4985 26.0423 20.5075 27.0818 21.1503 27.7248C21.7932 28.3676 22.8328 28.3767 23.4867 27.745C27.1483 24.0847 33.0836 24.0847 36.745 27.745C37.399 28.3766 38.4384 28.3676 39.0814 27.7248C39.7242 27.0819 39.7334 26.0423 39.1017 25.3884C34.1389 20.4259 26.0929 20.4259 21.1301 25.3884Z" fill="#B3D337"/>
</g>
<defs>
<clipPath id="clip0_2179_89">
<rect width="100" height="100" fill="white"/>
</clipPath>
</defs>
</svg>
