<svg width="100" height="100" viewBox="0 0 100 100" fill="none" xmlns="http://www.w3.org/2000/svg">
<g clip-path="url(#clip0_2161_239)">
<path d="M43.3389 1.77451e-07C26.0145 -0.00156232 10.3541 10.3156 3.51797 26.2344C-3.31816 42.1531 -0.0160129 60.6133 11.9145 73.175C23.8449 85.7367 42.1107 89.9854 58.3604 83.9783L62.6387 97.4199C63.1094 98.9371 64.5035 99.9789 66.092 100H66.1721C67.7303 100.01 69.1246 99.0342 69.6488 97.5666L77.0621 77.2982C77.1016 77.1955 77.1828 77.1143 77.2854 77.075L97.5688 69.64C99.0566 69.0939 100.033 67.6625 99.9984 66.0777C99.9639 64.4932 98.9258 63.1057 97.4154 62.625L83.9805 58.35C88.8922 45.0545 86.9914 30.1973 78.8904 18.5666C70.7895 6.93594 57.5127 0.00214861 43.3389 1.77451e-07ZM69.9787 41.6666C69.8604 34.6752 68.5988 27.7504 66.2438 21.1666C68.909 20.215 71.4764 19.0088 73.9104 17.5648C79.6338 24.3305 82.9369 32.8119 83.2971 41.6666H69.9787ZM53.082 48.5184C51.7908 48.0949 50.3711 48.4318 49.4078 49.3902C48.4445 50.3486 48.1004 51.7666 48.517 53.06L51.3986 62.11C49.3004 61.875 47.1604 61.7449 45.0053 61.6967V45H66.6369C66.5781 47.5543 66.3705 50.1031 66.0152 52.6334L53.082 48.5184ZM12.7754 69.0934C7.06582 62.3248 3.77266 53.8479 3.41543 45H16.7088C16.823 51.9887 18.0727 58.9123 20.4088 65.5C17.7549 66.45 15.1986 67.6533 12.7754 69.0934ZM12.7754 17.5717C15.2096 19.0154 17.777 20.2215 20.442 21.1734C18.0848 27.7547 16.8203 34.6771 16.6986 41.6668H3.38028C3.74317 32.8141 7.04805 24.335 12.7719 17.5719L12.7754 17.5717ZM23.5738 64.4449C21.3475 58.1982 20.1547 51.6305 20.0422 45H41.6723V61.6982C35.5428 61.802 29.4549 62.7258 23.5705 64.4449H23.5738ZM20.0305 41.6666C20.1424 35.0355 21.3242 28.466 23.5305 22.2115C29.4272 23.9377 35.5289 24.8648 41.6721 24.9682V41.6664L20.0305 41.6666ZM61.8904 19.11C56.3963 20.685 50.7199 21.5344 45.0055 21.6367V3.44668C51.8805 4.2834 57.9404 10.24 61.8904 19.11ZM41.6721 3.44668V21.6367C35.9574 21.5352 30.2809 20.6852 24.7871 19.1084C28.7389 10.24 34.7971 4.2834 41.6721 3.44668ZM41.6721 65.0301V83.2117C35.067 82.4 28.892 76.66 24.817 67.5451C30.302 65.9766 35.9682 65.1311 41.6721 65.0301ZM45.0055 41.6666V24.9684C51.1465 24.8648 57.2461 23.9377 63.1404 22.2117C65.349 28.4656 66.5332 35.0352 66.6471 41.6668H45.0055V41.6666ZM71.6121 15.065C69.4977 16.2631 67.2818 17.2732 64.9904 18.0834C63.0002 13.3434 60.0553 9.06387 56.3387 5.51172C62.0889 7.4959 67.3119 10.7629 71.6121 15.065ZM30.3389 5.51172C26.6201 9.06328 23.6727 13.3428 21.6805 18.0834C19.3916 17.2723 17.1781 16.2623 15.0654 15.065C19.3658 10.7629 24.5887 7.4959 30.3389 5.51172ZM15.0422 71.615C17.1506 70.4191 19.3596 69.4098 21.6439 68.5984C23.6063 73.3129 26.5248 77.5693 30.2156 81.0984C24.5082 79.1199 19.3215 75.8781 15.0422 71.615ZM45.0055 83.2934V65.06C47.5191 65.1133 50.0281 65.3059 52.5205 65.6367L56.3756 77.7451C56.3756 77.7684 56.3889 77.7918 56.3973 77.815L57.3473 80.7951C53.392 82.2779 49.226 83.1213 45.0055 83.2934ZM96.6721 66.1551C96.69 66.3186 96.5859 66.4707 96.4271 66.5135L76.1438 73.9484C75.1197 74.324 74.3127 75.1311 73.9371 76.1551L66.5221 96.4234C66.4793 96.5783 66.332 96.6807 66.1721 96.6668C66.0082 96.6783 65.8604 96.5687 65.8238 96.4084L51.6889 52.0316C51.6514 51.9334 51.6793 51.8221 51.7588 51.7533C51.8064 51.7 51.874 51.6686 51.9455 51.6666C51.9826 51.667 52.0193 51.6742 52.0539 51.6883L96.4106 65.8033C96.5713 65.8418 96.6814 65.9898 96.6721 66.1551ZM69.232 53.6551C69.6594 50.7885 69.9059 47.8977 69.9703 45H83.3037C83.1324 49.218 82.2883 53.3816 80.8037 57.3334L69.232 53.6551Z" fill="#B3D337"/>
</g>
<defs>
<clipPath id="clip0_2161_239">
<rect width="100" height="100" fill="white"/>
</clipPath>
</defs>
</svg>
