<svg width="100" height="100" viewBox="0 0 100 100" fill="none" xmlns="http://www.w3.org/2000/svg">
<path d="M92.0017 25.8332H77.795L71.1283 9.1665H28.8717L22.205 25.8332H20V17.4998H10V25.8332H7.99833C3.58667 25.8332 0 29.4198 0 33.8315V82.7782C0 87.2198 3.61333 90.8332 8.055 90.8332H91.945C96.3867 90.8332 100 87.2198 100 82.7782V33.8315C100 29.4198 96.4133 25.8332 92.0017 25.8332ZM13.3333 20.8332H16.6667V25.8332H13.3333V20.8332ZM96.6667 82.7782C96.6667 85.3832 94.5483 87.4998 91.945 87.4998H8.055C5.45167 87.4998 3.33333 85.3815 3.33333 82.7782V33.8315C3.33333 31.2598 5.42667 29.1665 7.99833 29.1665H10H20H24.4617L31.1283 12.4998H68.8717L75.5383 29.1665H92.0017C94.5733 29.1665 96.6667 31.2598 96.6667 33.8315V82.7782Z" fill="#B3D337"/>
<path d="M50 24.1665C33.4583 24.1665 20 37.6248 20 54.1665C20 70.7082 33.4583 84.1665 50 84.1665C66.5417 84.1665 80 70.7082 80 54.1665C80 37.6248 66.5417 24.1665 50 24.1665ZM50 80.8332C35.2967 80.8332 23.3333 68.8698 23.3333 54.1665C23.3333 39.4632 35.2967 27.4998 50 27.4998C64.7033 27.4998 76.6667 39.4632 76.6667 54.1665C76.6667 68.8698 64.7033 80.8332 50 80.8332Z" fill="#B3D337"/>
<path d="M50 34.1665C38.9717 34.1665 30 43.1382 30 54.1665C30 65.1948 38.9717 74.1665 50 74.1665C61.0283 74.1665 70 65.1948 70 54.1665C70 43.1382 61.0283 34.1665 50 34.1665ZM50 70.8332C40.81 70.8332 33.3333 63.3565 33.3333 54.1665C33.3333 44.9765 40.81 37.4998 50 37.4998C59.19 37.4998 66.6667 44.9765 66.6667 54.1665C66.6667 63.3565 59.19 70.8332 50 70.8332Z" fill="#B3D337"/>
<path d="M86.6667 32.5C82.99 32.5 80 35.49 80 39.1667C80 42.8433 82.99 45.8333 86.6667 45.8333C90.3433 45.8333 93.3333 42.8433 93.3333 39.1667C93.3333 35.49 90.3433 32.5 86.6667 32.5ZM86.6667 42.5C84.8283 42.5 83.3333 41.005 83.3333 39.1667C83.3333 37.3283 84.8283 35.8333 86.6667 35.8333C88.505 35.8333 90 37.3283 90 39.1667C90 41.005 88.505 42.5 86.6667 42.5Z" fill="#B3D337"/>
</svg>
