<svg width="70" height="70" viewBox="0 0 70 70" fill="none" xmlns="http://www.w3.org/2000/svg">
<g clip-path="url(#clip0_8_552)">
<path d="M0 24.4132C0.290669 24.0371 0.530044 23.6267 0.85491 23.2847C1.57303 22.5153 2.32535 21.7972 3.07767 21.062C3.93258 20.2242 4.51392 20.1558 5.48852 20.8226C7.5232 22.1563 9.57499 23.4899 11.5755 24.8749C12.7723 25.7127 13.935 25.8324 15.3029 25.3536C30.4861 19.9677 45.6864 14.633 60.8696 9.24712C62.9043 8.52899 64.8876 8.4606 66.7855 9.57198C69.0083 10.8885 70.0855 12.889 70 15.4196C69.8974 18.0356 68.6834 20.1216 66.2213 21.1133C63.5027 22.2075 60.6815 23.0454 57.8945 23.9858C56.1676 24.5671 54.4406 25.1484 52.7137 25.6956C52.2521 25.8495 51.9443 26.0888 51.7049 26.5163C48.1656 32.7571 44.5921 38.9809 41.0528 45.2217C40.6082 46.0082 40.044 46.5041 39.1891 46.7777C36.6072 47.5984 34.0425 48.4704 31.4778 49.3424C30.8109 49.5647 30.1783 49.616 29.6312 49.103C29.084 48.573 29.1695 47.9403 29.3747 47.2564C30.9306 42.2295 32.4695 37.2027 34.0083 32.1929C34.0938 31.9193 34.1622 31.6287 34.2648 31.2525C32.2814 31.7996 30.4177 32.3126 28.5369 32.8426C22.7235 34.4499 16.9101 36.0742 11.1138 37.6814C9.88276 38.0234 9.5066 37.8866 8.72008 36.8436C6.01856 33.253 3.33415 29.6624 0.649731 26.0717C0.410357 25.764 0.222277 25.422 0.0170982 25.0971C0 24.8749 0 24.6526 0 24.4132ZM32.8798 45.8031C34.6238 45.2217 36.1969 44.6746 37.7699 44.1787C38.2145 44.0419 38.488 43.8197 38.7274 43.4093C42.1641 37.3565 45.6693 31.3209 49.0547 25.2339C49.7386 24.0029 50.5936 23.3018 51.9272 22.8744C56.1505 21.5407 60.3566 20.1045 64.5628 18.6853C67.1617 17.7962 67.9653 14.7527 66.1358 12.7693C64.9047 11.4357 63.4172 11.4357 61.81 11.9999C46.5755 17.3859 31.341 22.7547 16.1236 28.1577C13.9521 28.9271 11.9858 28.7049 10.105 27.4054C8.29262 26.1572 6.42892 24.9433 4.63361 23.7464C4.20616 24.1396 3.8129 24.4987 3.38544 24.892C5.72789 28.0209 8.07035 31.1157 10.3786 34.2276C10.6864 34.655 10.9599 34.7063 11.4558 34.5695C16.4656 33.1504 21.4924 31.7654 26.5193 30.3805C29.6312 29.5085 32.743 28.6536 35.8549 27.7987C36.8295 27.5251 37.7186 27.9525 37.8554 28.7733C37.9238 29.1836 37.8383 29.6453 37.7186 30.0385C36.4362 34.2447 35.1368 38.4337 33.8544 42.6228C33.5296 43.6316 33.2218 44.6404 32.8798 45.8031Z" fill="#B3D337"/>
<path d="M0 59.4303C0.341964 58.5925 0.974597 58.2847 1.8808 58.2847C17.1666 58.3018 32.4695 58.3018 47.7552 58.3018C48.8495 58.3018 49.3967 58.678 49.5335 59.4987C49.6703 60.2339 49.2941 60.8837 48.5931 61.0888C48.3024 61.1743 47.9604 61.1914 47.6527 61.1914C32.4353 61.1914 17.2008 61.1914 1.98339 61.2085C1.07719 61.2085 0.393258 60.952 0 60.0971C0 59.892 0 59.6697 0 59.4303Z" fill="#B3D337"/>
</g>
<defs>
<clipPath id="clip0_8_552">
<rect width="70" height="70" fill="white"/>
</clipPath>
</defs>
</svg>
