<svg width="100" height="100" viewBox="0 0 100 100" fill="none" xmlns="http://www.w3.org/2000/svg">
<g clip-path="url(#clip0_2179_540)">
<path d="M99.3771 78.5895C94.923 75.0179 87.9313 72.432 81.7637 70.1475C80.5982 69.7162 79.4542 69.2932 78.3387 68.867C75.891 67.9529 73.9212 67.1737 72.2794 66.3694C71.2423 65.8652 70.2557 65.2622 69.3339 64.5693C64.9248 61.0727 64.6567 54.7453 64.8048 51.7565C66.1258 49.7662 67.1534 47.596 67.8552 45.3126C67.8952 45.1793 67.9169 45.0361 67.9534 44.9013C68.0849 44.9296 68.2215 44.9779 68.3479 44.9928C68.5062 45.0156 68.666 45.0267 68.8258 45.0261C70.4483 44.9243 71.909 44.0082 72.7071 42.5917C74.1099 39.9208 74.8736 36.9609 74.9384 33.9448C75.043 32.8094 74.9103 31.6646 74.5487 30.583C74.4123 30.2337 74.2322 29.903 74.0125 29.599C77.4292 18.1815 77.2961 9.78433 73.553 4.70086C71.539 1.93395 68.3838 0.223856 64.9662 0.046875H34.9946C31.5777 0.22249 28.4227 1.93083 26.4078 4.69579C22.6646 9.78589 22.5314 18.183 25.9482 29.5939C25.7287 29.8973 25.5484 30.2275 25.412 30.5764C25.0509 31.6562 24.9182 32.7992 25.0224 33.9331C25.0875 36.9603 25.856 39.931 27.2669 42.6099C28.0628 44.0128 29.5119 44.9206 31.1217 45.0242C31.2776 45.024 31.4335 45.0129 31.5878 44.9908C31.7227 44.9742 31.8676 44.9243 32.0074 44.8927C32.0423 45.0308 32.0657 45.1741 32.1055 45.3089C32.8093 47.5919 33.8384 49.7615 35.161 51.751C35.3091 54.7332 35.0412 61.0572 30.6403 64.5572C29.7201 65.2501 28.7355 65.8529 27.6997 66.3573C26.0446 67.1764 24.0748 67.9558 21.6188 68.8733C20.5114 69.2961 19.3658 69.7192 18.2021 70.1504C12.0413 72.4316 5.04793 75.0175 0.588677 78.5891C0.25052 78.8868 0.0423192 79.3052 0.00914749 79.7546C-0.00802375 79.9105 -0.00197478 80.0683 0.0274895 80.2225V88.2965C0.0349043 94.7306 5.24891 99.9448 11.6831 99.952H88.2771C94.7112 99.9446 99.9254 94.7306 99.9327 88.2965V80.354C100.122 79.7077 99.9024 79.0111 99.3771 78.5895ZM71.6134 33.7636C71.5939 36.213 71.005 38.6242 69.8933 40.8069C69.4937 41.428 68.996 41.7111 68.7844 41.6877C68.6615 41.6721 68.5407 41.6418 68.4248 41.5978L69.1292 31.7339C69.2324 31.6689 69.3257 31.5858 69.4289 31.5307C69.913 31.2505 70.4856 31.1643 71.0307 31.2894C71.2325 31.3727 71.3828 31.5471 71.4354 31.7588C71.6232 32.4094 71.6836 33.09 71.6134 33.7636ZM31.15 41.6943C30.6871 41.5702 30.2986 41.2555 30.0811 40.8286C28.9604 38.6384 28.3669 36.2169 28.3477 33.7569C28.2781 33.0855 28.3391 32.407 28.5276 31.7588C28.5801 31.5483 28.7298 31.375 28.9306 31.2927C29.4738 31.1674 30.0444 31.2525 30.5273 31.5307C30.6338 31.5873 30.7271 31.6706 30.8321 31.7372L31.5348 41.5929C31.412 41.645 31.2825 41.6793 31.15 41.6943ZM34.9265 42.2639L34.9099 42.0192C34.9099 41.9892 34.9099 41.9609 34.9099 41.931L33.3297 20.0367C33.256 18.69 33.7582 17.3752 34.7112 16.4206C35.6642 15.4661 36.978 14.9617 38.325 15.0331C40.0741 14.8779 41.8193 15.371 43.2288 16.4185C45.1835 17.8345 47.5721 18.5225 49.9808 18.3633C50.9004 18.3633 51.6458 17.6177 51.6458 16.6983C51.6458 15.7788 50.9004 15.0333 49.9808 15.0333C48.2316 15.1884 46.4864 14.6953 45.077 13.6479C43.1222 12.2318 40.7337 11.5438 38.325 11.703C36.0726 11.6234 33.8901 12.4913 32.3077 14.0963C30.7254 15.701 29.8881 17.8958 29.9995 20.1468L30.5656 28.0543C30.0241 27.9285 29.4664 27.8863 28.912 27.9294C25.3455 15.5878 26.9756 9.58354 29.0502 6.72122C30.4311 4.77306 32.6124 3.5461 34.9946 3.3777H64.9662C67.3251 3.542 69.4885 4.74789 70.869 6.66795C72.9703 9.5252 74.6287 15.5328 71.0354 27.9294C70.4811 27.8863 69.9234 27.9289 69.3819 28.0559L69.9398 20.2299C70.5332 17.1141 69.5462 13.9064 67.304 11.663C61.8592 6.43457 50.1919 8.3078 49.6974 8.39112C48.8121 8.56381 48.2254 9.40988 48.3737 10.2995C48.5222 11.1891 49.3519 11.7988 50.2452 11.6747C53.159 11.1951 61.4828 10.6874 64.9995 14.0674C66.485 15.6202 67.0974 17.8123 66.6314 19.9101L65.0579 41.9492V42.0124L65.0395 42.2639C64.9921 42.972 64.8671 43.6727 64.6667 44.3535C63.3689 48.6926 60.6843 52.4863 57.0239 55.1533C55.6213 56.1416 53.9458 56.6682 52.2302 56.6602H47.7344C46.0193 56.6679 44.3443 56.1412 42.9423 55.1533C39.2825 52.4865 36.5977 48.6934 35.2995 44.3551C35.0992 43.6737 34.9741 42.9724 34.9265 42.2639ZM32.7018 67.172C36.0646 64.2384 38.1051 60.0748 38.3631 55.6196C39.1812 56.4302 40.0589 57.1781 40.9889 57.8575C42.9599 59.2519 45.3164 59.9975 47.7307 59.9905H52.2265C54.642 59.9975 56.9995 59.2521 58.9718 57.8575C59.9022 57.1787 60.7801 56.4306 61.5977 55.6196C61.8584 60.0783 63.9037 64.2443 67.2724 67.177C67.9858 67.7246 68.7382 68.2194 69.5236 68.6573C67.7803 71.5028 62.2855 79.1473 52.4864 81.2288C50.811 81.5796 49.0808 81.5739 47.4078 81.2122C37.6487 79.0925 32.159 71.4398 30.4471 68.6575C31.2333 68.2165 31.9869 67.7203 32.7018 67.172ZM27.4435 70.1475C31.653 77.3342 38.6015 82.5028 46.6952 84.4673C47.7795 84.702 48.8859 84.8203 49.9954 84.8203C51.0643 84.8209 52.1301 84.7093 53.1758 84.4872C61.3107 82.5447 68.2978 77.3611 72.5159 70.1391C73.4499 70.5471 74.4556 70.9549 75.5612 71.3795C72.7972 75.782 65.4308 85.4111 52.6579 87.8871C50.8893 88.2284 49.0717 88.2284 47.303 87.8871C34.5302 85.4111 27.1637 75.782 24.3997 71.3795C25.5037 70.9533 26.5028 70.5453 27.4435 70.1475ZM88.2775 96.6224H84.999C85.0981 92.1883 86.6671 87.9129 89.4598 84.4673C90.0896 83.8126 90.0783 82.774 89.4346 82.133C88.7909 81.492 87.7522 81.4852 87.1003 82.1178C86.8888 82.3293 82.1799 87.1612 81.6687 96.6158H18.2922C17.781 87.1614 13.0722 82.3293 12.8606 82.1178C12.2087 81.4852 11.1701 81.492 10.5263 82.133C9.88261 82.774 9.87149 83.8126 10.5012 84.4673C13.296 87.9115 14.8654 92.1879 14.962 96.6224H11.6834C7.08779 96.6169 3.36359 92.8927 3.35793 88.2969V80.6607C7.43902 77.6802 13.7481 75.3459 19.3512 73.2744C19.9906 73.0379 20.6 72.8082 21.2226 72.5751C23.9418 77.0708 32.079 88.3267 46.6685 91.1541C48.8562 91.5748 51.1043 91.5748 53.2923 91.1541C67.8818 88.3234 76.019 77.0692 78.7381 72.5733C79.3607 72.8065 79.9719 73.0361 80.6096 73.2726C86.2127 75.3439 92.5215 77.6784 96.5944 80.659L96.6028 88.2967C96.5975 92.8927 92.8733 96.6169 88.2775 96.6224Z" fill="#B3D337"/>
</g>
<defs>
<clipPath id="clip0_2179_540">
<rect width="100" height="100" fill="white"/>
</clipPath>
</defs>
</svg>
