<svg width="100" height="100" viewBox="0 0 100 100" fill="none" xmlns="http://www.w3.org/2000/svg">
<g clip-path="url(#clip0_2179_497)">
<path d="M50 50C52.7614 50 55 47.7614 55 45C55 42.2386 52.7614 40 50 40C47.2386 40 45 42.2386 45 45C45 47.7614 47.2386 50 50 50ZM50 43.3333C50.9205 43.3333 51.6667 44.0795 51.6667 45C51.6667 45.9205 50.9205 46.6667 50 46.6667C49.0795 46.6667 48.3333 45.9205 48.3333 45C48.3333 44.0795 49.0795 43.3333 50 43.3333Z" fill="#B3D337"/>
<path d="M96.6667 90.0002H93.3333V86.6668C93.3333 84.8259 91.8409 83.3335 90 83.3335V30.0002C91.8409 30.0002 93.3333 28.5078 93.3333 26.6668V23.3335C93.3333 21.4925 91.8409 20.0002 90 20.0002H66.6667V15.0002H70C71.145 14.9893 72.1363 14.2019 72.406 13.089C72.6757 11.9761 72.1548 10.8223 71.1417 10.2885L51.1667 0.29349C50.4499 -0.0876085 49.5931 -0.0987837 48.8667 0.26349L29.0833 10.2752C28.0443 10.7891 27.497 11.9517 27.7629 13.08C28.0287 14.2082 29.0375 15.0041 30.1967 15.0002H33.3333V20.0002H10C8.15905 20.0002 6.66667 21.4925 6.66667 23.3335V26.6668C6.66667 28.5078 8.15905 30.0002 10 30.0002V83.3335C8.15905 83.3335 6.66667 84.8259 6.66667 86.6668V90.0002H3.33333C1.49238 90.0002 0 91.4925 0 93.3335V96.6668C0 98.5078 1.49238 100 3.33333 100H96.6667C98.5076 100 100 98.5078 100 96.6668V93.3335C100 91.4925 98.5076 90.0002 96.6667 90.0002ZM49.9867 3.43182L66.445 11.6668H33.715L49.9867 3.43182ZM36.6667 15.0002H63.3333V20.0002H36.6667V15.0002ZM10 23.3335H90V26.6668H10V23.3335ZM13.3333 30.0002H86.6667V83.3335H68.3333V66.6668C68.3333 64.8259 66.8409 63.3335 65 63.3335H35C33.159 63.3335 31.6667 64.8259 31.6667 66.6668V83.3335H13.3333V30.0002ZM51.6667 83.3335V76.6668H53.3333C54.2538 76.6668 55 75.9206 55 75.0002C55 74.0797 54.2538 73.3335 53.3333 73.3335H51.6667V66.6668H58.3333V83.3335H51.6667ZM41.6667 83.3335V66.6668H48.3333V73.3335H46.6667C45.7462 73.3335 45 74.0797 45 75.0002C45 75.9206 45.7462 76.6668 46.6667 76.6668H48.3333V83.3335H41.6667ZM35 83.3335V66.6668H38.3333V83.3335H35ZM61.6667 66.6668H65V83.3335H61.6667V66.6668ZM10 86.6668H90V90.0002H10V86.6668ZM3.33333 96.6668V93.3335H96.6667V96.6668H3.33333Z" fill="#B3D337"/>
<path d="M25 48.3335H20C18.159 48.3335 16.6666 49.8259 16.6666 51.6668V56.6668C16.6666 58.5078 18.159 60.0002 20 60.0002H25C26.8409 60.0002 28.3333 58.5078 28.3333 56.6668V51.6668C28.3333 49.8259 26.8409 48.3335 25 48.3335ZM20 56.6668V51.6668H25V56.6668H20Z" fill="#B3D337"/>
<path d="M25 63.3335H20C18.159 63.3335 16.6666 64.8259 16.6666 66.6668V71.6668C16.6666 73.5078 18.159 75.0002 20 75.0002H25C26.8409 75.0002 28.3333 73.5078 28.3333 71.6668V66.6668C28.3333 64.8259 26.8409 63.3335 25 63.3335ZM20 71.6668V66.6668H25V71.6668H20Z" fill="#B3D337"/>
<path d="M75 75.0002H80C81.8409 75.0002 83.3333 73.5078 83.3333 71.6668V66.6668C83.3333 64.8259 81.8409 63.3335 80 63.3335H75C73.159 63.3335 71.6666 64.8259 71.6666 66.6668V71.6668C71.6666 73.5078 73.159 75.0002 75 75.0002ZM75 66.6668H80V71.6668H75V66.6668Z" fill="#B3D337"/>
<path d="M25 33.3335H20C18.159 33.3335 16.6666 34.8259 16.6666 36.6668V41.6668C16.6666 43.5078 18.159 45.0002 20 45.0002H25C26.8409 45.0002 28.3333 43.5078 28.3333 41.6668V36.6668C28.3333 34.8259 26.8409 33.3335 25 33.3335ZM20 41.6668V36.6668H25V41.6668H20Z" fill="#B3D337"/>
<path d="M75 45.0002H80C81.8409 45.0002 83.3333 43.5078 83.3333 41.6668V36.6668C83.3333 34.8259 81.8409 33.3335 80 33.3335H75C73.159 33.3335 71.6666 34.8259 71.6666 36.6668V41.6668C71.6666 43.5078 73.159 45.0002 75 45.0002ZM75 36.6668H80V41.6668H75V36.6668Z" fill="#B3D337"/>
<path d="M75 60.0002H80C81.8409 60.0002 83.3333 58.5078 83.3333 56.6668V51.6668C83.3333 49.8259 81.8409 48.3335 80 48.3335H75C73.159 48.3335 71.6666 49.8259 71.6666 51.6668V56.6668C71.6666 58.5078 73.159 60.0002 75 60.0002ZM75 51.6668H80V56.6668H75V51.6668Z" fill="#B3D337"/>
<path d="M50.0001 60C49.2278 59.9923 48.4777 59.7409 47.8567 59.2817C45.1451 57.5984 41.2067 58.3934 38.1551 53.7167C35.3317 49.31 37.4484 42.9784 39.0584 39.435C38.9246 39.2519 38.8027 39.0604 38.6934 38.8617C38.1031 38.1778 37.8241 37.279 37.9233 36.381C38.0226 35.483 38.4912 34.6668 39.2167 34.1284L41.5001 32.43C42.5554 31.6546 43.9597 31.546 45.1217 32.15C46.2283 32.624 47.4914 32.5626 48.5467 31.9834C49.5038 31.5482 50.6062 31.5685 51.5467 32.0384C52.5769 32.5701 53.7914 32.6111 54.8551 32.15C56.0195 31.5446 57.427 31.6545 58.4834 32.4334L60.7617 34.1217C61.4733 34.6717 61.9312 35.487 62.0304 36.3809C62.1297 37.2747 61.8619 38.1706 61.2884 38.8634C61.1658 39.0688 61.0545 39.2808 60.9551 39.4984C62.8634 43.755 64.4884 49.565 61.8367 53.7034C58.7667 58.4117 55.0567 57.475 51.7817 59.495C51.2452 59.8232 50.629 59.9979 50.0001 60ZM41.3101 36.7267C42.1384 37.731 42.4953 39.0428 42.2901 40.3284C42.2151 40.605 38.4567 48.0167 40.9567 51.905C43.2151 55.3634 46.1967 54.3284 49.6234 56.45C50.4567 56.97 49.1134 56.4701 54.2451 54.9501C56.2014 54.6405 57.9434 53.5377 59.0601 51.9017C60.5167 49.6284 60.0601 45.5017 57.8084 40.59C57.1584 39.1767 58.1767 37.7567 58.6817 36.7284L56.5151 35.1167C54.4189 36.0277 52.0308 35.9851 49.9684 35C47.9667 35.9996 45.6197 36.0376 43.5867 35.1034L41.3101 36.7267Z" fill="#B3D337"/>
</g>
<defs>
<clipPath id="clip0_2179_497">
<rect width="100" height="100" fill="white"/>
</clipPath>
</defs>
</svg>
