<svg width="100" height="100" viewBox="0 0 100 100" fill="none" xmlns="http://www.w3.org/2000/svg">
<path d="M98.9972 36.2492C99.8672 35.5287 100.212 34.352 99.8689 33.276C99.5168 32.1694 98.5271 31.3881 97.3689 31.3028C93.3707 30.9973 89.3511 31.4499 85.5208 32.6362C82.8308 29.8337 79.6301 27.571 76.0909 25.9696L75.9508 25.9046L75.9192 25.8896C73.6938 24.8697 71.3462 24.1413 68.9343 23.723C67.3357 23.4585 65.7179 23.3281 64.0977 23.333H23.2331C19.6638 23.3345 16.1916 24.4962 13.3399 26.6429C10.0325 23.9374 7.87507 20.0775 7.3032 15.843C7.14656 14.5682 6.15849 13.5546 4.888 13.3657C3.6175 13.1768 2.37748 13.8589 1.85678 15.0329C-0.309794 19.9879 -2.41993 29.3077 6.93172 37.0326C6.75965 37.9785 6.6704 38.9379 6.66512 39.8992V49.999C6.54462 53.6271 5.77099 57.2037 4.38175 60.5573C3.67883 62.3663 3.32259 64.2915 3.33176 66.2323V81.6655C3.33176 84.4268 5.57041 86.6654 8.33171 86.6654H13.4367C13.9979 86.6652 14.5547 86.5666 15.0816 86.3738C15.5898 86.557 16.1248 86.6555 16.665 86.6654H21.7649C24.0311 86.6601 25.9938 85.0914 26.4983 82.8821C27.0385 80.7794 26.0079 78.5895 24.0432 77.6655L23.3315 77.3022V68.8824C23.3495 67.0278 24.1593 65.269 25.5565 64.0491C28.8244 61.3231 31.3082 57.7769 32.7531 53.7742C33.5853 53.9695 34.3964 54.2459 35.1747 54.5992C41.51 56.8988 48.1781 58.1486 54.9161 58.2991C55.62 60.812 56.7811 63.1737 58.3411 65.2657C59.428 66.8561 60.0057 68.7393 59.9977 70.6656V81.6655C59.9977 84.4268 62.2363 86.6654 64.9976 86.6654H70.1142C70.9718 86.6633 71.8126 86.4269 72.5458 85.982C73.2897 86.4189 74.1348 86.6545 74.9975 86.6654H78.4475C80.7068 86.6617 82.6636 85.0969 83.164 82.8938C83.6857 80.7897 82.6611 78.6081 80.709 77.6655L79.9973 77.3022V58.1441C80.2205 58.1923 80.4455 58.2423 80.6639 58.2708L85.5458 66.7955C86.3939 68.2973 87.9878 69.2229 89.7124 69.2154L93.144 69.182C94.6118 69.1809 95.9975 68.5049 96.9018 67.3488C97.806 66.1928 98.1291 64.6854 97.7771 63.2604L95.7772 55.2738L97.2172 52.3838C98.3287 50.1676 98.3287 47.5567 97.2172 45.3405L95.6856 42.2589C95.9156 39.8855 97.1135 37.7117 98.9972 36.2492ZM4.28996 17.9512C5.22315 22.2273 7.52996 26.0804 10.8582 28.9227C9.64556 30.2788 8.66412 31.8249 7.95319 33.4994C3.57786 29.6063 2.11283 23.388 4.28996 17.9512ZM14.9066 82.117C14.7703 82.8215 14.1541 83.3307 13.4367 83.3321H8.33171C7.41121 83.3321 6.66512 82.5858 6.66512 81.6655V66.2323C6.65594 64.7118 6.93172 63.2028 7.4784 61.7841C9.02232 58.04 9.87622 54.0472 9.99829 49.9992V39.8994C10.0075 32.594 15.9277 26.6745 23.2331 26.6661H27.733C26.9327 30.5014 26.5741 34.4158 26.6647 38.3326C26.5731 42.2493 26.9303 46.1637 27.7297 49.999H24.9981C24.9981 49.0786 24.2518 48.3325 23.3315 48.3325C22.411 48.3325 21.6649 49.0787 21.6649 49.999C21.6649 54.6357 18.0433 58.8439 15.0084 61.5522C12.8983 63.4059 11.6815 66.0735 11.6651 68.8822V78.3321C11.6616 78.9669 12.019 79.5483 12.5867 79.8321L14.2201 80.6487C14.7881 80.8952 15.0826 81.5268 14.9068 82.1204L14.9066 82.117ZM23.3415 61.5489C21.2306 63.4034 20.0136 66.0723 19.9982 68.8822V78.3321C19.9947 78.9669 20.3521 79.5483 20.9198 79.8321L22.5532 80.6487C23.1302 80.8893 23.4345 81.5251 23.2599 82.1254C23.1147 82.837 22.486 83.3463 21.7599 83.3405H18.0066C18.0566 83.1922 18.115 83.0504 18.1515 82.8955C18.6794 80.794 17.6599 78.6102 15.7099 77.6655L14.9982 77.3022V68.8824C15.0168 67.0274 15.8269 65.2686 17.225 64.0491C20.6267 61.238 23.1653 57.5232 24.5481 53.3326H29.2315C29.2832 53.3326 29.3332 53.3326 29.3848 53.341C28.06 56.5244 25.987 59.3411 23.3415 61.5526V61.5489ZM54.2062 54.9158C48.1939 54.716 42.2491 53.5859 36.5831 51.5658C35.073 50.8781 33.4697 50.417 31.8248 50.1975C31.8148 50.1975 31.8064 50.1875 31.7965 50.1858C31.7865 50.184 31.7748 50.1858 31.7631 50.1858C31.5781 50.1608 31.398 50.1192 31.2113 50.099C30.2666 46.2514 29.8582 42.2919 29.9981 38.3326C29.8668 34.4084 30.2641 30.4842 31.1797 26.6661H54.4845C53.6118 31.3358 53.2253 36.0832 53.3312 40.8326C53.2757 45.5432 53.5683 50.2514 54.2062 54.9191V54.9158ZM69.831 27.356C70.9638 27.6122 72.0774 27.9462 73.1643 28.3559C72.1181 32.1469 71.6132 36.0668 71.6644 39.9992C71.6108 43.8782 72.2099 47.7385 73.436 51.419C73.6819 52.069 73.968 52.7029 74.2927 53.3172C72.9593 53.8672 71.7243 54.3172 70.8577 54.5972C68.9911 49.9651 68.13 44.9891 68.331 39.9992C68.2968 35.7385 68.8009 31.4905 69.831 27.356ZM71.5575 82.1104C71.4226 82.8057 70.8224 83.3137 70.1142 83.3321H64.9976C64.0771 83.3321 63.3311 82.5858 63.3311 81.6655V70.6656C63.3428 68.0664 62.5625 65.5254 61.0944 63.3807C59.5014 61.2788 58.3876 58.8538 57.8311 56.2757C56.9118 51.1818 56.521 46.0067 56.6645 40.8326C56.5208 36.0781 56.937 31.3233 57.9046 26.6661H64.0978C64.9078 26.6661 65.7228 26.7161 66.5379 26.7944C65.484 31.1161 64.9668 35.5512 64.9978 39.9994C64.9978 50.1658 67.471 55.4543 68.3312 56.9874V78.3321C68.3277 78.9669 68.6851 79.5483 69.2529 79.8321L70.8862 80.6487C71.4448 80.8985 71.7321 81.5237 71.5575 82.1104ZM79.9125 82.127C79.7725 82.8256 79.16 83.3293 78.4475 83.3321H74.9975C74.8876 83.3201 74.7792 83.2967 74.6743 83.2621C74.7159 83.1321 74.7692 83.0088 74.801 82.8754C75.3547 80.7794 74.3354 78.5866 72.3761 77.6589L71.6644 77.3022V57.8326C73.0444 57.4126 74.8309 56.7076 76.3059 56.0808C76.4243 56.1992 76.5426 56.3209 76.6643 56.4275V78.3323C76.6608 78.9671 77.0182 79.5485 77.586 79.8323L79.2194 80.6489C79.79 80.8962 80.0873 81.5299 79.9125 82.127ZM92.3458 42.6275C92.3434 42.8843 92.4004 43.138 92.5124 43.369L94.2407 46.8323C94.8922 48.1059 94.8922 49.6153 94.2407 50.8889L92.5208 54.3322C92.343 54.6877 92.2981 55.0949 92.394 55.4804L94.544 64.0587C94.6494 64.4911 94.5494 64.9479 94.2727 65.2965C93.9961 65.6452 93.5739 65.8465 93.129 65.842L89.6974 65.8754C89.177 65.8828 88.6952 65.6028 88.444 65.1471L83.1107 55.8306C82.8119 55.3146 82.2603 54.9974 81.664 54.999C80.8424 54.999 78.3391 54.999 76.5575 50.2457C75.4622 46.9428 74.9348 43.4782 74.9975 39.9992C74.9549 36.5504 75.3686 33.1114 76.2276 29.771C79.0938 31.253 81.6523 33.2658 83.7675 35.7025C84.273 36.3062 85.1322 36.4738 85.8275 36.1043C89.0481 34.9193 92.4749 34.3967 95.9024 34.5676C93.6731 36.6629 92.3895 39.5734 92.3458 42.6325V42.6275Z" fill="#B3D337"/>
<path d="M46.6647 29.9995H36.6648C34.8238 29.9995 33.3314 31.4919 33.3314 33.3329V36.6662C33.3314 41.2713 35.7714 44.9995 40.7931 48.0878C41.3278 48.4159 42.0016 48.4159 42.5364 48.0878C47.558 44.9995 49.998 41.2713 49.998 36.6662V33.3329C49.9978 31.4919 48.5055 29.9995 46.6647 29.9995ZM46.6647 36.6662C46.6647 39.8062 45.0698 42.3728 41.6647 44.6845C38.2597 42.3728 36.6648 39.8062 36.6648 36.6662V33.3329H46.6647V36.6662Z" fill="#B3D337"/>
</svg>
