<svg width="100" height="100" viewBox="0 0 100 100" fill="none" xmlns="http://www.w3.org/2000/svg">
<g clip-path="url(#clip0_2161_912)">
<path d="M91.905 52.4221C91.6038 50.8528 90.2313 49.718 88.6333 49.7171H85.415L85.1783 48.2987C84.9422 46.8742 83.8199 45.7612 82.3933 45.5371C82.0767 45.4871 81.7567 45.4537 81.4417 45.4104C81.9875 42.8624 81.534 40.2021 80.175 37.9787C80.893 36.1162 80.759 34.0326 79.8083 32.2774C78.8576 30.5221 77.1856 29.2716 75.2333 28.8554C73.9852 22.1754 68.1738 17.3197 61.3783 17.2787C61.2117 17.2787 61.0633 17.3004 60.905 17.3054C59.8192 15.6001 58.029 14.4684 56.0228 14.2189C54.0167 13.9694 52.0038 14.6281 50.5333 16.0154C48.6809 14.8113 46.5194 14.1693 44.31 14.1671C40.7501 14.1816 37.395 15.834 35.2133 18.6471C32.7909 17.9407 30.1787 18.3744 28.1145 19.8258C26.0503 21.2771 24.7583 23.5885 24.6033 26.1071C22.0589 27.1766 20.4033 29.667 20.4017 32.4271C20.4069 32.9055 20.4628 33.3821 20.5683 33.8487C18.3181 37.2409 17.7302 41.4715 18.97 45.3487C18.5233 45.4104 18.0667 45.4654 17.6367 45.5287C16.2027 45.7451 15.0704 46.8586 14.83 48.2887L14.5933 49.7121H11.3667C9.77141 49.7132 8.40056 50.8444 8.09666 52.4104L0.798329 89.8804C0.513304 91.3478 0.899813 92.8658 1.85191 94.0183C2.804 95.1707 4.2218 95.8367 5.71666 95.8337H40.4733C41.8533 98.1104 46.0467 99.1671 50 99.1671C53.9117 99.1671 58.065 98.1354 59.485 95.8337H94.2833C95.7778 95.8366 97.1953 95.1709 98.1473 94.0188C99.0994 92.8668 99.4861 91.3493 99.2017 89.8821L91.905 52.4221ZM25.4417 35.4437C24.0884 34.6301 23.4426 33.0149 23.8618 31.4925C24.281 29.9702 25.6627 28.9133 27.2417 28.9071C28.3467 28.9038 29.3868 29.4291 30.04 30.3204C30.3949 30.7985 30.9779 31.051 31.5694 30.9828C32.1609 30.9145 32.6711 30.5358 32.9078 29.9894C33.1444 29.443 33.0715 28.8119 32.7167 28.3337C31.5849 26.8211 29.8699 25.8535 27.99 25.6671C28.4869 23.3329 30.5452 21.662 32.9317 21.6554C33.135 21.6657 33.3376 21.688 33.5383 21.7221C33.4043 22.0638 33.2874 22.412 33.1883 22.7654C32.9809 23.6476 33.5165 24.5339 34.394 24.7606C35.2715 24.9872 36.1693 24.4711 36.415 23.5987C36.6045 22.8662 36.8957 22.1638 37.28 21.5121C38.7584 19.0353 41.4256 17.5133 44.31 17.5004C45.8798 17.5074 47.4138 17.9706 48.725 18.8337C48.4752 19.5356 48.3429 20.2738 48.3333 21.0187C48.3333 21.9392 49.0795 22.6854 50 22.6854C50.9205 22.6854 51.6667 21.9392 51.6667 21.0187C51.6667 19.0825 53.2363 17.5129 55.1725 17.5129C57.1087 17.5129 58.6783 19.0825 58.6783 21.0187C58.6783 21.9392 59.4245 22.6854 60.345 22.6854C61.2655 22.6854 62.0117 21.9392 62.0117 21.0187C62.0117 20.8904 61.98 20.7687 61.9733 20.6404C66.7456 20.9348 70.7585 24.3271 71.8433 28.9837C71.0659 29.2101 70.3354 29.5742 69.6867 30.0587C69.2103 30.416 68.9607 31.0003 69.032 31.5914C69.1032 32.1826 69.4844 32.6909 70.032 32.9248C70.5795 33.1587 71.2103 33.0827 71.6867 32.7254C73.0185 31.7393 74.8583 31.818 76.1012 32.9141C77.344 34.0102 77.6519 35.8258 76.84 37.2704C76.4772 37.9083 75.9259 38.4183 75.2617 38.7304C74.5651 39.0677 74.1924 39.84 74.3617 40.5951C74.531 41.3502 75.1978 41.8895 75.9717 41.8971C76.2161 41.8974 76.4575 41.8433 76.6783 41.7387C77.12 41.5247 77.5374 41.2637 77.9233 40.9604C78.7849 43.4097 78.2445 46.1338 76.5133 48.0687L76.4733 48.1104C74.302 50.4625 70.8384 51.0982 67.9733 49.6704C67.6927 49.5222 67.4231 49.354 67.1667 49.1671C68.3943 47.446 68.5638 45.1853 67.6067 43.3004C67.3387 42.7684 66.8073 42.4197 66.2126 42.3857C65.6178 42.3518 65.0502 42.6377 64.7234 43.1357C64.3966 43.6338 64.3604 44.2684 64.6283 44.8004C65.1764 45.902 64.8345 47.2388 63.825 47.9421C63.2322 48.3368 62.4998 48.4616 61.8096 48.2856C61.1195 48.1096 60.5364 47.6492 60.205 47.0187C59.9385 46.4861 59.4082 46.1361 58.8137 46.1005C58.2192 46.065 57.6509 46.3493 57.3228 46.8464C56.9948 47.3435 56.9569 47.9778 57.2233 48.5104C58.2008 50.4835 60.2147 51.7296 62.4167 51.7237C63.1335 51.7189 63.8431 51.5792 64.5083 51.3121C65.1036 51.8332 65.7594 52.2809 66.4617 52.6454C68.837 53.8767 71.5992 54.132 74.16 53.3571C72.513 55.606 70.048 57.1174 67.2967 57.5654C66.4407 57.7047 65.8347 58.4772 65.903 59.3417C65.9713 60.2062 66.6911 60.8739 67.5583 60.8771C67.647 60.877 67.7356 60.8704 67.8233 60.8571C68.8382 60.6814 69.83 60.3918 70.78 59.9937C71.2934 60.9015 71.7102 61.8606 72.0233 62.8554C72.0807 63.0291 72.1099 63.2108 72.11 63.3937C72.1096 64.1141 71.6794 64.7647 71.0167 65.0471C70.25 65.3436 69.3797 65.1096 68.865 64.4687C67.5742 62.953 65.8841 61.8299 63.9867 61.2271C60.385 60.0204 58.995 58.9421 58.405 57.7687C59.2698 57.6608 60.1243 57.4825 60.96 57.2354C61.5292 57.0603 61.9619 56.5949 62.0949 56.0144C62.2279 55.4339 62.0411 54.8265 61.6049 54.4211C61.1686 54.0156 60.5492 53.8737 59.98 54.0487C59.0448 54.3357 58.0794 54.513 57.1033 54.5771C55.2228 54.724 53.3335 54.439 51.58 53.7437C50.9216 53.487 50.1729 53.6733 49.7117 54.2087C47.2851 56.9962 43.1319 57.4699 40.1399 55.3006C37.1478 53.1313 36.3069 49.0367 38.2017 45.8637C38.5086 45.3514 38.5189 44.7141 38.2286 44.1921C37.9384 43.6701 37.3917 43.3426 36.7945 43.333C36.1973 43.3233 35.6403 43.633 35.3333 44.1454C34.9357 44.8222 34.6159 45.5417 34.38 46.2904C33.0675 46.2213 32.0326 45.1479 32.0117 43.8337V43.7921C32.0108 43.3523 31.8342 42.9311 31.5212 42.6222C31.2082 42.3132 30.7848 42.1422 30.345 42.1471C29.4205 42.1562 28.6765 42.9092 28.6783 43.8337C28.6858 46.7895 30.9148 49.2669 33.8533 49.5854C33.8593 50.1441 33.91 50.7015 34.005 51.2521C30.2837 52.0573 26.424 50.7197 23.999 47.7843C21.574 44.849 20.9887 40.8063 22.4817 37.3037C22.8545 37.681 23.2708 38.0127 23.7217 38.2921C24.509 38.7533 25.5208 38.4956 25.9917 37.714C26.4626 36.9324 26.2174 35.9175 25.4417 35.4371V35.4437ZM18.1083 48.8321C18.8767 48.7187 19.67 48.6187 20.4583 48.5154C23.5399 53.4398 29.4336 55.8309 35.075 54.4454C36.5908 57.3223 39.3607 59.3287 42.5668 59.8721C45.7729 60.4155 49.0492 59.4339 51.4283 57.2171C52.561 57.5549 53.7275 57.7662 54.9067 57.8471C55.7117 60.9004 58.0383 62.7504 62.9267 64.3887C64.2445 64.8019 65.4201 65.5762 66.32 66.6237C67.3205 67.8135 68.7922 68.5048 70.3467 68.5154C71.0265 68.5152 71.6993 68.378 72.325 68.1121C74.2142 67.3047 75.4398 65.4483 75.44 63.3937C75.4415 62.8579 75.356 62.3254 75.1867 61.8171C74.8119 60.6395 74.3182 59.5031 73.7133 58.4254C76.5475 56.388 78.5217 53.3687 79.2517 49.9554C79.6066 49.5337 79.9276 49.0845 80.2117 48.6121C80.77 48.6837 81.3283 48.7471 81.89 48.8404L87.9067 85.0304C76.1458 81.1032 63.4275 81.1032 51.6667 85.0304V64.1671C51.6667 63.2466 50.9205 62.5004 50 62.5004C49.0795 62.5004 48.3333 63.2466 48.3333 64.1671V85.0371C36.5738 81.1063 23.8557 81.1016 12.0933 85.0237L18.1083 48.8321ZM4.41833 91.8871C4.1034 91.5066 3.97503 91.0054 4.06833 90.5204L11.3667 53.0504H14.0333L8.80333 84.4821C8.61938 85.6261 9.04063 86.7839 9.91677 87.5423C10.7929 88.3006 11.9991 88.5515 13.105 88.2054C21.99 85.3268 31.4558 84.7262 40.6333 86.4587L40.1367 92.5004H5.71666C5.21386 92.5008 4.73739 92.2757 4.41833 91.8871ZM50 95.8337C45.985 95.8337 43.6817 94.6471 43.3433 94.1187L43.9167 87.2021C45.7493 87.6584 47.5427 88.2597 49.28 89.0004C49.5047 89.1087 49.7506 89.1656 50 89.1671C50.2501 89.1667 50.4968 89.1097 50.7217 89.0004C52.4579 88.2554 54.2508 87.6501 56.0833 87.1904L56.6567 94.1171C56.3183 94.6471 54.015 95.8337 50 95.8337ZM95.5817 91.8871C95.2626 92.2757 94.7861 92.5008 94.2833 92.5004H59.8683L59.3683 86.4471C68.551 84.7181 78.0208 85.3239 86.9083 88.2087C88.0139 88.5503 89.2176 88.2958 90.0903 87.536C90.9631 86.7763 91.381 85.6192 91.195 84.4771L85.97 53.0521H88.6367L95.9367 90.5187C96.0291 91.005 95.8989 91.5071 95.5817 91.8871Z" fill="#B3D337"/>
<path d="M44.4767 38.642C43.7944 39.2593 43.7414 40.3127 44.3583 40.9954C45.7722 42.5564 47.6407 43.6338 49.7 44.0754C48.7674 45.3896 47.2549 46.1695 45.6433 46.167C44.7228 46.167 43.9767 46.9132 43.9767 47.8337C43.9767 48.7542 44.7228 49.5004 45.6433 49.5004C49.0936 49.5141 52.1894 47.3832 53.4083 44.1554C57.5526 43.4686 60.8335 40.2786 61.6367 36.1554C61.7607 35.5656 61.5568 34.9548 61.1032 34.5579C60.6496 34.161 60.0172 34.04 59.4491 34.2412C58.881 34.4425 58.4658 34.9348 58.3633 35.5287C58.0365 37.2477 57.0447 38.7683 55.6033 39.7604C52.8304 41.6279 49.1115 41.204 46.83 38.7604C46.2127 38.0781 45.1593 38.0251 44.4767 38.642Z" fill="#B3D337"/>
<path d="M38.6667 36.8333C39.5871 36.8333 40.3333 36.0871 40.3333 35.1667C40.3333 34.0174 40.7899 32.9152 41.6025 32.1025C42.4152 31.2899 43.5174 30.8333 44.6667 30.8333C45.5871 30.8333 46.3333 30.0871 46.3333 29.1667C46.3333 28.2462 45.5871 27.5 44.6667 27.5C40.4344 27.5046 37.0046 30.9344 37 35.1667C37 35.6087 37.1756 36.0326 37.4882 36.3452C37.8007 36.6577 38.2246 36.8333 38.6667 36.8333Z" fill="#B3D337"/>
<path d="M51.6667 4.16683V2.50016C51.6667 1.57969 50.9205 0.833496 50 0.833496C49.0795 0.833496 48.3333 1.57969 48.3333 2.50016V4.16683C48.3333 5.0873 49.0795 5.8335 50 5.8335C50.9205 5.8335 51.6667 5.0873 51.6667 4.16683Z" fill="#B3D337"/>
<path d="M77.35 12.7935L75.6833 14.4602C75.2501 14.8786 75.0763 15.4983 75.2288 16.081C75.3814 16.6638 75.8364 17.1188 76.4191 17.2714C77.0019 17.4239 77.6215 17.2501 78.04 16.8169L79.7067 15.1502C80.1399 14.7317 80.3137 14.1121 80.1612 13.5293C80.0086 12.9466 79.5536 12.4916 78.9708 12.339C78.3881 12.1865 77.7684 12.3603 77.35 12.7935Z" fill="#B3D337"/>
<path d="M23.1383 17.3052C23.8123 17.305 24.4199 16.899 24.6778 16.2763C24.9357 15.6536 24.7932 14.9368 24.3167 14.4602L22.65 12.7935C22.2315 12.3603 21.6119 12.1865 21.0292 12.339C20.4464 12.4916 19.9914 12.9466 19.8388 13.5293C19.6863 14.1121 19.8601 14.7317 20.2933 15.1502L21.96 16.8169C22.2725 17.1294 22.6963 17.3051 23.1383 17.3052Z" fill="#B3D337"/>
<path d="M35.9683 10.292C36.1873 10.2915 36.4041 10.2485 36.6067 10.1653C37.0152 9.99612 37.3397 9.67152 37.5088 9.26297C37.6779 8.85443 37.6777 8.39543 37.5083 7.987L35.5933 3.367C35.374 2.8043 34.8673 2.40429 34.2691 2.32145C33.6709 2.23861 33.0746 2.48589 32.7106 2.96781C32.3466 3.44973 32.2717 4.09087 32.515 4.64367L34.4283 9.26367C34.6865 9.88632 35.2943 10.2922 35.9683 10.292Z" fill="#B3D337"/>
<path d="M66.5833 2.4654C65.7333 2.11374 64.759 2.5173 64.4067 3.36706L62.4917 7.98706C62.3217 8.39568 62.3213 8.8551 62.4904 9.26404C62.6596 9.67298 62.9844 9.99786 63.3933 10.1671C63.5959 10.2502 63.8127 10.2933 64.0317 10.2937C64.7057 10.2939 65.3135 9.88805 65.5717 9.2654L67.485 4.6454C67.6549 4.23678 67.6554 3.77736 67.4862 3.36842C67.3171 2.95948 66.9922 2.6346 66.5833 2.4654Z" fill="#B3D337"/>
<path d="M83.875 30.1366C84.0941 30.1362 84.3111 30.0926 84.5133 30.0083L89.1317 28.0949C89.6819 27.8672 90.0688 27.3632 90.1466 26.7728C90.2245 26.1825 89.9814 25.5954 89.5091 25.2328C89.0368 24.8702 88.4069 24.7872 87.8567 25.0149L83.2367 26.9283C82.4994 27.2311 82.0798 28.0135 82.2353 28.7952C82.3908 29.5769 83.078 30.139 83.875 30.1366Z" fill="#B3D337"/>
<path d="M15.4867 30.0087C16.3372 30.3612 17.3125 29.9575 17.665 29.107C18.0175 28.2565 17.6138 27.2812 16.7633 26.9287L12.1433 25.0154C11.2928 24.6633 10.3179 25.0673 9.96583 25.9179C9.61374 26.7684 10.0178 27.7433 10.8683 28.0954L15.4867 30.0087Z" fill="#B3D337"/>
</g>
<defs>
<clipPath id="clip0_2161_912">
<rect width="100" height="100" fill="white"/>
</clipPath>
</defs>
</svg>
