<svg width="100" height="100" viewBox="0 0 100 100" fill="none" xmlns="http://www.w3.org/2000/svg">
<g clip-path="url(#clip0_2179_559)">
<path d="M99.3333 81.015L93.4483 73.265C93.0079 72.6819 92.3857 72.2621 91.68 72.0719C90.9744 71.8818 90.2255 71.9321 89.5517 72.215C88.6947 69.8624 88.2871 67.3697 88.35 64.8667C88.5559 60.1787 87.0421 55.5769 84.0933 51.9267L74.9533 39.8333C74.4633 39.1816 73.8285 38.6527 73.099 38.2883C72.3696 37.9238 71.5654 37.7338 70.75 37.7333C69.8009 37.7259 68.8716 38.0047 68.0833 38.5333C67.5224 38.8969 67.0415 39.371 66.67 39.9267V36.31C66.8252 31.6211 65.2595 27.0375 62.2683 23.4233C60.6595 21.409 59.4588 19.1004 58.7333 16.6267C59.5395 16.5292 60.2824 16.1409 60.8225 15.5345C61.3626 14.9281 61.6628 14.1454 61.6667 13.3333V3.33333C61.6667 2.44928 61.3155 1.60143 60.6904 0.976311C60.0652 0.35119 59.2174 0 58.3333 0L35 0C34.116 0 33.2681 0.35119 32.643 0.976311C32.0179 1.60143 31.6667 2.44928 31.6667 3.33333V13.3333C31.6686 14.1177 31.9471 14.8763 32.4531 15.4757C32.9592 16.075 33.6604 16.4767 34.4333 16.61C33.9332 18.0502 33.2853 19.4348 32.5 20.7417C30 24.5 30 25.93 30 33.8883V37.8067C29.0698 37.6713 28.1204 37.788 27.2506 38.1445C26.3809 38.5009 25.6227 39.0841 25.055 39.8333L15.9033 51.9283C12.9546 55.5779 11.4408 60.1792 11.6467 64.8667C11.7096 67.369 11.3025 69.861 10.4467 72.2133C9.77372 71.9311 9.02602 71.8805 8.32122 72.0697C7.61641 72.2589 6.9945 72.677 6.55334 73.2583L0.666675 81.0217C0.143822 81.7194 -0.0810175 82.596 0.0414551 83.4592C0.163928 84.3225 0.623717 85.1019 1.32001 85.6267L19.4867 99.345C20.1844 99.8657 21.0598 100.089 21.9218 99.9673C22.7838 99.8452 23.5626 99.3873 24.0883 98.6933L29.975 90.94C30.4203 90.3675 30.6606 89.6621 30.6573 88.9368C30.6539 88.2116 30.4072 87.5084 29.9567 86.94C31.1622 86.1562 32.441 85.4915 33.775 84.955C38.0317 83.4733 38.8983 82.3283 43.7033 75.9717L46.1233 72.7867C46.8073 73.1388 47.5641 73.326 48.3333 73.3333C49.1734 73.331 49.9993 73.1171 50.7348 72.7113C51.4703 72.3055 52.0917 71.721 52.5417 71.0117L56.3133 75.985C61.1117 82.3317 61.98 83.4767 66.2317 84.9567C67.567 85.494 68.8469 86.1599 70.0533 86.945C69.6041 87.5122 69.3578 88.2136 69.3539 88.9371C69.35 89.6606 69.5886 90.3646 70.0317 90.9367L75.9167 98.6867C76.4424 99.3843 77.2234 99.8448 78.0883 99.9673C78.9531 100.09 79.8313 99.8642 80.53 99.34L98.685 85.63C99.0309 85.3698 99.3221 85.044 99.5421 84.6713C99.762 84.2985 99.9064 83.8861 99.9669 83.4575C100.027 83.0289 100.003 82.5926 99.8948 82.1736C99.7866 81.7545 99.597 81.3608 99.3367 81.015H99.3333ZM35 3.33333H58.3333V13.3333H35V3.33333ZM21.4783 96.6817L3.31167 83.03L9.14501 75.2717L27.29 88.9383L21.4783 96.6817ZM41.0283 73.9733C36.33 80.1883 35.8967 80.6867 32.6667 81.8067C30.7505 82.5735 28.9272 83.5548 27.2317 84.7317L13.2417 74.18C14.4575 71.2597 15.0496 68.1175 14.98 64.955C14.7602 60.9649 16.0374 57.0363 18.5617 53.9383L27.7133 41.8383C27.9654 41.4879 28.3346 41.2395 28.7541 41.1379C29.1737 41.0364 29.6157 41.0886 30 41.285V44.3417L24.4533 51.675C24.3215 51.8501 24.2254 52.0495 24.1706 52.2617C24.1157 52.4739 24.1032 52.6949 24.1338 52.9119C24.1644 53.129 24.2374 53.3379 24.3487 53.5267C24.46 53.7156 24.6074 53.8806 24.7825 54.0125C24.9576 54.1444 25.157 54.2405 25.3692 54.2953C25.5814 54.3501 25.8024 54.3626 26.0194 54.332C26.2365 54.3015 26.4454 54.2284 26.6342 54.1171C26.8231 54.0058 26.9881 53.8584 27.12 53.6833L30 49.87V58.3333C30 59.6594 30.5268 60.9312 31.4645 61.8689C32.4022 62.8065 33.6739 63.3333 35 63.3333C35.5691 63.3278 36.1329 63.2241 36.6667 63.0267V63.3333C36.6667 64.6594 37.1935 65.9312 38.1311 66.8689C39.0688 67.8065 40.3406 68.3333 41.6667 68.3333C42.2357 68.3278 42.7996 68.2241 43.3333 68.0267V68.3333C43.3349 69.0322 43.4843 69.7229 43.7717 70.36L41.0283 73.9733ZM50 68.3333C50 68.7754 49.8244 69.1993 49.5119 69.5118C49.1993 69.8244 48.7754 70 48.3333 70C47.8913 70 47.4674 69.8244 47.1548 69.5118C46.8423 69.1993 46.6667 68.7754 46.6667 68.3333V43.3333C46.6667 42.8913 46.4911 42.4674 46.1785 42.1548C45.866 41.8423 45.442 41.6667 45 41.6667C44.558 41.6667 44.1341 41.8423 43.8215 42.1548C43.5089 42.4674 43.3333 42.8913 43.3333 43.3333V63.3333C43.3333 63.7754 43.1578 64.1993 42.8452 64.5118C42.5326 64.8244 42.1087 65 41.6667 65C41.2247 65 40.8007 64.8244 40.4882 64.5118C40.1756 64.1993 40 63.7754 40 63.3333V43.3333C40 42.8913 39.8244 42.4674 39.5119 42.1548C39.1993 41.8423 38.7754 41.6667 38.3333 41.6667C37.8913 41.6667 37.4674 41.8423 37.1548 42.1548C36.8423 42.4674 36.6667 42.8913 36.6667 43.3333V58.3333C36.6667 58.7754 36.4911 59.1993 36.1785 59.5118C35.866 59.8244 35.442 60 35 60C34.558 60 34.1341 59.8244 33.8215 59.5118C33.5089 59.1993 33.3333 58.7754 33.3333 58.3333V33.8883C33.3333 26.095 33.3783 25.4383 35.2767 22.5917C36.3983 20.731 37.2908 18.7416 37.935 16.6667H55.3083C56.0786 19.8381 57.5268 22.8051 59.5533 25.3633C62.1349 28.4129 63.4831 32.3173 63.3333 36.31V51.4767C63.353 51.9276 63.2017 52.3694 62.9097 52.7136C62.6177 53.0579 62.2065 53.2792 61.7583 53.3333C61.5317 53.3484 61.3045 53.3159 61.0912 53.2378C60.8779 53.1597 60.6833 53.0378 60.52 52.88C60.3547 52.7243 60.2233 52.5362 60.1338 52.3274C60.0443 52.1187 59.9988 51.8938 60 51.6667V41.6667C60 41.2246 59.8244 40.8007 59.5119 40.4882C59.1993 40.1756 58.7754 40 58.3333 40C57.8913 40 57.4674 40.1756 57.1548 40.4882C56.8423 40.8007 56.6667 41.2246 56.6667 41.6667V63.3333C56.6667 63.7754 56.4911 64.1993 56.1785 64.5118C55.866 64.8244 55.442 65 55 65C54.558 65 54.1341 64.8244 53.8215 64.5118C53.5089 64.1993 53.3333 63.7754 53.3333 63.3333V43.3333C53.3333 42.8913 53.1578 42.4674 52.8452 42.1548C52.5326 41.8423 52.1087 41.6667 51.6667 41.6667C51.2247 41.6667 50.8007 41.8423 50.4882 42.1548C50.1756 42.4674 50 42.8913 50 43.3333V68.3333ZM58.9617 73.96L54.6667 68.3C54.7783 68.3 54.885 68.3333 55 68.3333C56.3261 68.3333 57.5979 67.8065 58.5355 66.8689C59.4732 65.9312 60 64.6594 60 63.3333V56.3683C60.5342 56.5631 61.0981 56.664 61.6667 56.6667C61.7567 56.6667 61.8467 56.6667 61.9383 56.6667C63.2409 56.5718 64.4574 55.9807 65.3372 55.0154C66.2169 54.0501 66.6928 52.7841 66.6667 51.4783V45.465L66.815 45.6617V45.6733L72.8783 53.69C73.1451 54.0425 73.541 54.2746 73.9789 54.3353C74.4168 54.3959 74.8608 54.2801 75.2133 54.0133C75.5659 53.7466 75.798 53.3507 75.8586 52.9128C75.9192 52.4749 75.8034 52.0309 75.5367 51.6783L69.4683 43.655C69.3348 43.479 69.2391 43.2771 69.1875 43.0623C69.1359 42.8474 69.1293 42.6242 69.1683 42.4067C69.2091 42.1807 69.2971 41.9659 69.4267 41.7764C69.5562 41.5868 69.7243 41.4267 69.92 41.3067C70.1636 41.146 70.4499 41.0624 70.7417 41.0667C71.0402 41.0688 71.3343 41.1397 71.6011 41.2738C71.8678 41.408 72.1002 41.6017 72.28 41.84L81.4283 53.9367C83.9536 57.0348 85.2315 60.9641 85.0117 64.955C84.9422 68.1181 85.5343 71.2607 86.75 74.1817L72.76 84.7367C71.0671 83.56 69.2466 82.5782 67.3333 81.81C64.1033 80.6867 63.6667 80.1883 58.9617 73.96ZM78.5767 96.6783L72.6667 88.9867L90.7883 75.2733L96.6667 82.9817L78.5767 96.6783Z" fill="#B3D337"/>
</g>
<defs>
<clipPath id="clip0_2179_559">
<rect width="100" height="100" fill="white"/>
</clipPath>
</defs>
</svg>
