<svg width="100" height="100" viewBox="0 0 100 100" fill="none" xmlns="http://www.w3.org/2000/svg">
<g clip-path="url(#clip0_2161_699)">
<path d="M98.3334 0H1.6666C0.666602 0 0 0.666602 0 1.6666V41.6666V81.6666V98.3332C0 99.3332 0.666602 99.9998 1.6666 99.9998H41.6666H58.3332H98.3332C99.3332 99.9998 99.9998 99.3332 99.9998 98.3332V81.6666V41.6666V1.6666C100 0.666602 99.3334 0 98.3334 0ZM58.3334 80H49.3334C50 77.8334 50 75.5 49.3334 73.3334H51.6668H81.6668C83.5002 73.3334 85.0002 74.8334 85.0002 76.6668C85.0002 78.5002 83.5002 80.0002 81.6668 80.0002H58.3334V80ZM49.3334 53.3334H81.6668C83.5002 53.3334 85.0002 54.8334 85.0002 56.6668C85.0002 58.5002 83.5002 60.0002 81.6668 60.0002H49.3334C50 57.8334 50 55.5 49.3334 53.3334ZM54.3334 63.3334H81.6668H86.6668C88.5002 63.3334 90.0002 64.8334 90.0002 66.6668C90.0002 68.5002 88.5002 70.0002 86.6668 70.0002H54.3334C55 67.8334 55 65.5 54.3334 63.3334ZM87.3131 73.3029C90.6793 72.9926 93.3334 70.2818 93.3334 66.8332C93.3334 63.4086 90.7164 60.5666 87.3836 60.2059C87.9857 59.2303 88.3334 58.0801 88.3334 56.8332C88.3334 53.1666 85.3334 50.1666 81.6668 50.1666H46.6668C46.0002 50.1666 45.5002 50.5 45.1668 51C44.8334 51.5 44.8334 52.1666 45.1668 52.6666C46.8334 55.1666 46.8334 58.3332 45.1668 60.8332C44.8334 61.3332 44.8334 61.9998 45.1668 62.4998C45.5002 62.9998 46.0002 63.3332 46.6668 63.3332H50.5584C51.6967 65.4865 51.6967 68.0131 50.5584 70.1666H46.6668C46.0002 70.1666 45.5002 70.5 45.1668 71C44.8334 71.5 44.8334 72.1666 45.1668 72.6666C46.6533 74.8965 46.8102 77.6555 45.6449 80H41.6668H40V55V48.3334C40 47.3334 39.3334 46.6668 38.3334 46.6668H25C24 46.6668 23.3334 47.3334 23.3334 48.3334V50H11.6666C10.6666 50 10 50.6666 10 51.6666V58.3332V80H3.3334V43.3334H8.3334H18.3334H28.3334H38.3334H48.3334H96.6668V80H87.5055C88.0324 79.0699 88.3334 77.9936 88.3334 76.8334C88.3334 75.5389 87.9582 74.3285 87.3131 73.3029ZM13.3334 80V60H23.3334V80H13.3334ZM36.6666 53.3334H26.6666V51.6668V50H36.6666V53.3334ZM23.3334 55V56.6666H13.3334V53.3332H23.3334V55ZM26.6666 58.3334V56.6668H36.6666V80H26.6666V58.3334ZM10 23.3334H16.6666V25V40H10V23.3334ZM50.5 12.5L56.5 9.6666L57.9229 12.5123L51.9453 15.3906L50.5 12.5ZM50 19.1576L60.566 40H50V19.1576ZM64.1666 39.5L53.5 18.5L59.6666 15.6666L69.6666 36.6666L64.1666 39.5ZM46.6666 40H40V21.6666V16.6666H46.6666V40ZM30 40V25V23.3334H36.6666V40H30ZM20 40V26.6666H26.6666V40H20ZM46.6666 13.3334H40V10H46.6666V13.3334ZM36.6666 20H30V18.3334V16.6668H36.6666V20ZM26.6666 21.6666V23.3332H20V21.6666V20H26.6666V21.6666ZM16.6666 18.3334V20H10V16.6666H16.6666V18.3334ZM3.3334 3.3334H96.6668V40H70L72.3334 38.8334C73.1668 38.5 73.5 37.5 73.1668 36.6668L61.6668 12.6668L58.8334 6.6668C58.6668 6.1668 58.3334 6.0002 58 5.8334C57.5 5.6668 57 5.6668 56.6666 5.8334L50 9.04316V8.3332C50 7.3332 49.3334 6.6666 48.3334 6.6666H38.3334C37.3334 6.6666 36.6668 7.3332 36.6668 8.3332V13.3332H28.3334C27.3334 13.3332 26.6668 13.9998 26.6668 14.9998V16.6664H20V15C20 14 19.3334 13.3334 18.3334 13.3334H8.3334C7.3334 13.3334 6.6668 14 6.6668 15V21.6666V40H3.3334V3.3334ZM3.3334 83.3334H11.6668H25H38.3334H40V96.6668H3.3334V83.3334ZM43.3334 83.3334H46.6668H56.6668V96.6668H43.3334V83.3334ZM96.6666 96.6666H60V83.3332H81.6666H96.6666V96.6666Z" fill="#B3D337"/>
<path d="M21.6666 88.3335C20.6666 88.3335 20 89.0001 20 90.0001C20 91.0001 20.6666 91.6667 21.6666 91.6667C22.6666 91.6667 23.3332 91.0001 23.3332 90.0001C23.3334 89.1667 22.6666 88.3335 21.6666 88.3335Z" fill="#B3D337"/>
<path d="M78.3333 88.3335C77.3333 88.3335 76.6667 89.0001 76.6667 90.0001C76.6667 91.0001 77.3333 91.6667 78.3333 91.6667C79.3333 91.6667 80 91.0001 80 90.0001C80 89.1667 79.3333 88.3335 78.3333 88.3335Z" fill="#B3D337"/>
<path d="M18.3333 63.3335C17.3333 63.3335 16.6667 64.0001 16.6667 65.0001V75.0001C16.6667 76.0001 17.3333 76.6667 18.3333 76.6667C19.3333 76.6667 20 76.0001 20 75.0001V65.0001C20 64.0001 19.3333 63.3335 18.3333 63.3335Z" fill="#B3D337"/>
<path d="M31.6666 60C30.6666 60 30 60.6666 30 61.6666V75C30 76 30.6666 76.6666 31.6666 76.6666C32.6666 76.6666 33.3332 76 33.3332 75V61.6666C33.3334 60.6666 32.6666 60 31.6666 60Z" fill="#B3D337"/>
</g>
<defs>
<clipPath id="clip0_2161_699">
<rect width="100" height="100" fill="white"/>
</clipPath>
</defs>
</svg>
