<svg width="100" height="100" viewBox="0 0 100 100" fill="none" xmlns="http://www.w3.org/2000/svg">
<g clip-path="url(#clip0_2161_381)">
<path d="M8.33308 99.998H18.3326C21.0939 99.998 23.3324 97.7596 23.3324 94.9982V69.5345C30.3622 69.8462 39.1651 69.9995 49.9979 69.9995C60.8306 69.9995 69.632 69.8462 76.6633 69.5329V94.9984C76.6633 97.7596 78.9019 99.9982 81.6631 99.9982H91.6627C96.2625 99.9928 99.9901 96.2652 99.9957 91.6652V69.9993C99.9951 68.2423 99.4399 66.5307 98.4091 65.1079C100.608 62.2942 100.519 58.3197 98.1941 55.6083L91.0711 47.3171C88.423 23.5431 77.4533 13.6185 71.9403 10.0804C71.589 8.17305 70.4243 6.51316 68.7504 5.53391C65.0798 3.58965 61.0724 2.36295 56.9425 1.91902C55.693 0.684115 54.0045 -0.00511299 52.2478 0.00250387H47.748C45.991 -0.00511299 44.3028 0.684115 43.0533 1.91902C38.9195 2.36334 34.9085 3.59239 31.2354 5.54055C29.5738 6.52312 28.4189 8.17696 28.0689 10.0753C22.5692 13.6086 11.5829 23.5281 8.93149 47.3104L1.80172 55.615C-0.522403 58.3199 -0.606969 62.2916 1.59997 65.0929C0.56173 66.5182 0.0015982 68.2359 3.5766e-05 69.9993V91.665C0.00569958 96.265 3.73327 99.9925 8.33308 99.998ZM3.33329 75.3057C5.33008 76.0014 6.66811 77.8843 6.66811 79.9989C6.66811 82.1134 5.33008 83.9964 3.33329 84.692V75.3057ZM3.33329 91.6652V88.1653C7.21691 87.3767 10.008 83.962 10.008 79.9991C10.008 76.0361 7.21691 72.6215 3.33329 71.8328V69.9995C3.33778 68.9986 3.64265 68.022 4.20825 67.1963C4.7262 67.4603 5.27403 67.6611 5.83982 67.7945C8.31667 68.299 10.8209 68.658 13.3395 68.8695V96.665H8.33308C5.57187 96.665 3.33329 94.4264 3.33329 91.6652ZM19.9994 94.9982C19.9994 95.9187 19.2531 96.6648 18.3328 96.6648H16.6663V69.1542C17.7145 69.231 18.8328 69.2991 19.9996 69.3659L19.9994 94.9982ZM79.9968 94.9982V69.3661C81.1633 69.2995 82.2817 69.2312 83.33 69.1544V96.665H81.6635C80.7429 96.665 79.9968 95.9187 79.9968 94.9982ZM91.6629 96.665H86.6631V68.8695C89.1817 68.6564 91.6859 68.297 94.1628 67.7928C94.7258 67.6578 95.2711 67.4574 95.7877 67.1961C96.3533 68.0219 96.6582 68.9984 96.6627 69.9993V71.8326C92.7791 72.6213 89.988 76.0359 89.988 79.9989C89.988 83.9618 92.7791 87.3765 96.6627 88.1651V91.665C96.6627 94.4264 94.4241 96.665 91.6629 96.665ZM96.6627 75.3057V84.692C94.6659 83.9964 93.3279 82.1134 93.3279 79.9989C93.3279 77.8845 94.6659 76.0014 96.6627 75.3057ZM27.584 14.5251C27.1457 19.6683 26.6657 28.3345 26.6657 41.6673C26.6657 42.5878 27.4119 43.3338 28.3322 43.3338C29.2525 43.3338 29.9987 42.5878 29.9987 41.6673C29.8573 31.5224 30.2763 21.3774 31.2538 11.2786L31.302 10.8886C31.4227 9.872 32.0075 8.96852 32.8853 8.44199C35.4747 7.04634 38.274 6.08154 41.1733 5.58547C41.1533 5.71222 41.1199 5.8337 41.1082 5.96221C40.3255 13.9507 39.955 21.9744 39.9983 30.0012C39.9983 30.9217 40.7446 31.6677 41.6648 31.6677C42.5853 31.6677 43.3314 30.9217 43.3314 30.0012C43.2882 22.0881 43.6525 14.1779 44.4229 6.30223C44.4856 5.6671 44.7356 5.06498 45.1413 4.57223L45.1497 4.55895H45.1596C45.7922 3.77969 46.7441 3.3297 47.7478 3.33576H52.2476C53.2499 3.32775 54.2016 3.77461 54.8358 4.55075H54.8457L54.8541 4.56403C55.2609 5.05854 55.5111 5.6632 55.5724 6.30067C56.3435 14.1769 56.7077 22.0877 56.664 30.0014C56.664 30.9219 57.4103 31.6679 58.3305 31.6679C59.251 31.6679 59.9971 30.9219 59.9971 30.0014C60.0402 21.9775 59.6703 13.9566 58.8887 5.9708C58.8754 5.83917 58.842 5.71417 58.8221 5.58586C61.7169 6.07939 64.5121 7.04009 67.0985 8.43066C68.0079 8.9822 68.6039 9.9302 68.7068 10.9889L68.7418 11.2739C69.7195 21.3742 70.1384 31.5211 69.9968 41.6675C69.9968 42.588 70.7429 43.334 71.6634 43.334C72.5838 43.334 73.3299 42.588 73.3299 41.6675C73.3299 28.3347 72.8498 19.6685 72.4116 14.5253C78.2297 19.1917 87.0293 30.0147 88.1976 53.117C88.2515 54.0457 87.9177 54.9552 87.276 55.6286C86.6508 56.295 85.7764 56.6712 84.8628 56.6669H15.1328C14.2193 56.6704 13.3452 56.2958 12.7178 55.6319C12.0759 54.9574 11.7427 54.0467 11.798 53.117C12.9645 30.0145 21.7659 19.1966 27.584 14.5251ZM4.33325 57.785L8.47135 52.9602C8.37214 54.7902 9.02934 56.5805 10.289 57.9117C11.5488 59.2429 13.3 59.998 15.1328 59.9997H84.8632C86.6918 60.0081 88.4421 59.2574 89.6964 57.9266C90.9664 56.5956 91.6299 54.7988 91.5297 52.9618L95.6629 57.7848C96.618 58.8867 96.9232 60.4099 96.4664 61.7948C96.0096 63.1797 94.8581 64.2222 93.4347 64.5396C86.9699 65.9712 72.7606 66.6662 49.9983 66.6662C27.236 66.6662 13.0266 65.9713 6.55854 64.5396C5.14181 64.2126 3.99889 63.1697 3.54402 61.7887C3.08877 60.4079 3.38817 58.8896 4.33325 57.785Z" fill="#B3D337"/>
</g>
<defs>
<clipPath id="clip0_2161_381">
<rect width="100" height="100" fill="white"/>
</clipPath>
</defs>
</svg>
