<svg width="100" height="100" viewBox="0 0 100 100" fill="none" xmlns="http://www.w3.org/2000/svg">
<g clip-path="url(#clip0_2179_83)">
<path d="M72.6567 48.4681L78.5017 42.6348C80.4538 44.5845 83.6162 44.5845 85.5684 42.6348L86.7484 41.4565C87.6862 40.5188 88.2131 39.2469 88.2131 37.9206C88.2131 36.5944 87.6862 35.3225 86.7484 34.3848L79.6784 27.3148L86.7517 20.2415L91.47 24.9615C92.7166 26.3043 94.5977 26.8577 96.3728 26.4039C98.148 25.9501 99.5327 24.5618 99.9819 22.7855C100.431 21.0092 99.8727 19.1295 98.5267 17.8865L82.1084 1.46979C80.1322 -0.42743 77.0111 -0.42743 75.035 1.46979C73.092 3.42075 73.092 6.57549 75.035 8.52646L79.6784 13.1665L72.6067 20.2381L65.5367 13.1665C64.599 12.2286 63.3271 11.7017 62.0009 11.7017C60.6746 11.7017 59.4027 12.2286 58.465 13.1665L57.2867 14.3448C56.3488 15.2825 55.8219 16.5544 55.8219 17.8806C55.8219 19.2069 56.3488 20.4788 57.2867 21.4165L53.5233 25.1781L48.5234 30.1781L38.5234 40.1781L33.5234 45.1781L28.5234 50.1781L23.5234 55.1781L20.7584 57.9431C19.2528 59.4347 18.8647 61.7197 19.7934 63.6248L18.4017 65.0165C16.4498 66.969 16.4498 70.134 18.4017 72.0865L19.625 73.3098L1.48335 91.4598C0.536972 92.389 0.00258624 93.6587 -0.00023293 94.985C-0.0030521 96.3112 0.525931 97.5833 1.46835 98.5165C2.39783 99.4663 3.67109 100.001 5.00002 99.9998C6.32658 100.003 7.59828 99.4707 8.52669 98.5231L26.6867 80.3848L27.8267 81.5231C29.7792 83.475 32.9442 83.475 34.8967 81.5231L36.2984 80.1215C38.1976 81.0505 40.4778 80.6642 41.965 79.1615L42.1567 78.9715L34.0784 92.2665C33.1249 93.8396 33.0938 95.8046 33.9969 97.4072C34.9001 99.0097 36.5972 100.001 38.4367 99.9998H94.895C96.7385 100.01 98.4428 99.0206 99.3482 97.4147C100.254 95.8089 100.218 93.8385 99.255 92.2665L72.6567 48.4681ZM77.3917 3.83312C77.6982 3.5174 78.1183 3.33737 78.5584 3.33312C79.0055 3.33363 79.4337 3.5138 79.7467 3.83312L96.1684 20.2548C96.4828 20.5646 96.6598 20.9876 96.6598 21.429C96.6598 21.8704 96.4828 22.2933 96.1684 22.6031C95.5191 23.2449 94.4743 23.2449 93.825 22.6031L77.3934 6.16646C76.7523 5.52105 76.7515 4.47944 77.3917 3.83312ZM82.0334 15.5331L84.39 17.8898L77.32 24.9615L74.9634 22.6048L82.0334 15.5331ZM59.6434 16.7115L60.8217 15.5331C61.1343 15.2202 61.5585 15.0443 62.0009 15.0443C62.4432 15.0443 62.8674 15.2202 63.18 15.5331L84.39 36.7415C85.0407 37.3923 85.0407 38.4473 84.39 39.0981L83.21 40.2765C82.5521 40.9082 81.5129 40.9082 80.855 40.2765L75.1884 34.6098L60.8334 20.2381C60.8217 20.2265 60.805 20.2215 60.7934 20.2115L59.6484 19.0648C58.9977 18.414 58.9977 17.359 59.6484 16.7081L59.6434 16.7115ZM72.6667 36.8065L76.14 40.2815L70.8567 45.5515C69.8021 44.0187 67.9984 43.1794 66.1467 43.3598C64.5535 43.513 63.1274 44.4127 62.3034 45.7848L60.1 49.4131L47.0567 36.3665L49.7 33.7231L55.4867 39.5098C56.1375 40.161 57.193 40.1614 57.8442 39.5106C58.4954 38.8598 58.4958 37.8044 57.845 37.1531L52.0567 31.3648L54.7 28.7231L60.4867 34.5098C61.1375 35.161 62.193 35.1614 62.8442 34.5106C63.4954 33.8598 63.4958 32.8044 62.845 32.1531L57.0567 26.3648L59.6434 23.7781L72.6667 36.8065ZM6.16668 96.1748C5.51928 96.8149 4.47616 96.8112 3.83335 96.1665C3.51682 95.8609 3.33805 95.4398 3.33805 94.9998C3.33805 94.5598 3.51682 94.1387 3.83335 93.8331L21.98 75.6765L24.33 78.0281L6.16668 96.1748ZM30.1834 79.1665L23.1834 72.1665C23.1734 72.1565 23.17 72.1415 23.16 72.1315C23.1493 72.1237 23.1382 72.1164 23.1267 72.1098L20.7534 69.7365C20.1027 69.0856 20.1027 68.0306 20.7534 67.3798L21.9317 66.2015L33.7217 77.9798L32.5367 79.1631C31.8789 79.7922 30.8429 79.7937 30.1834 79.1665ZM39.605 76.8048C38.9555 77.4477 37.9095 77.4477 37.26 76.8048L23.1167 62.6665C22.4683 62.016 22.4683 60.9636 23.1167 60.3131L24.7084 58.7215L30.495 64.5081C31.149 65.1397 32.1885 65.1307 32.8314 64.4878C33.4743 63.8449 33.4833 62.8054 32.8517 62.1515L27.065 56.3648L29.7084 53.7215L35.4934 59.5081C36.1441 60.1594 37.1996 60.1597 37.8509 59.509C38.5021 58.8582 38.5025 57.8027 37.8517 57.1515L32.065 51.3648L34.7067 48.7215L40.4934 54.5098C40.9143 54.9311 41.5281 55.0958 42.1034 54.9418C42.6787 54.7879 43.1282 54.3387 43.2826 53.7635C43.4369 53.1883 43.2727 52.5744 42.8517 52.1531L37.0634 46.3648L39.705 43.7231L45.4934 49.5098C45.9118 49.9431 46.5315 50.1168 47.1142 49.9643C47.6969 49.8118 48.152 49.3567 48.3045 48.774C48.457 48.1913 48.2833 47.5716 47.85 47.1531L42.0617 41.3648L44.705 38.7231L58.3267 52.3465L49.4434 66.9665L39.605 76.8048ZM96.4384 95.7681C96.1299 96.3294 95.5371 96.6748 94.8967 96.6665H38.4367C37.7968 96.6746 37.2046 96.3291 36.8967 95.7681C36.7477 95.5016 36.6686 95.2018 36.6667 94.8965C36.6687 94.5785 36.7593 94.2674 36.9284 93.9981L65.1567 47.5165C65.4775 46.989 66.0502 46.667 66.6675 46.667C67.2849 46.667 67.8575 46.989 68.1784 47.5165L96.4067 93.9998C96.5757 94.2691 96.6663 94.5802 96.6684 94.8981C96.6656 95.203 96.5876 95.5023 96.4384 95.7681Z" fill="#B3D337"/>
<path d="M66.6667 56.6665C63.9053 56.6665 61.6667 58.9051 61.6667 61.6665V74.9998C61.6667 77.7613 63.9053 79.9998 66.6667 79.9998C69.4282 79.9998 71.6667 77.7613 71.6667 74.9998V61.6665C71.6667 58.9051 69.4282 56.6665 66.6667 56.6665ZM68.3334 74.9998C68.3334 75.9203 67.5872 76.6665 66.6667 76.6665C65.7463 76.6665 65.0001 75.9203 65.0001 74.9998V61.6665C65.0001 60.746 65.7463 59.9998 66.6667 59.9998C67.5872 59.9998 68.3334 60.746 68.3334 61.6665V74.9998Z" fill="#B3D337"/>
<path d="M66.6667 83.333C63.9053 83.333 61.6667 85.5716 61.6667 88.333C61.6667 91.0944 63.9053 93.333 66.6667 93.333C69.4282 93.333 71.6667 91.0944 71.6667 88.333C71.6667 85.5716 69.4282 83.333 66.6667 83.333ZM66.6667 89.9997C65.7463 89.9997 65.0001 89.2535 65.0001 88.333C65.0001 87.4125 65.7463 86.6663 66.6667 86.6663C67.5872 86.6663 68.3334 87.4125 68.3334 88.333C68.3334 89.2535 67.5872 89.9997 66.6667 89.9997Z" fill="#B3D337"/>
</g>
<defs>
<clipPath id="clip0_2179_83">
<rect width="100" height="100" fill="white"/>
</clipPath>
</defs>
</svg>
