<svg width="100" height="100" viewBox="0 0 100 100" fill="none" xmlns="http://www.w3.org/2000/svg">
<g clip-path="url(#clip0_2179_142)">
<path d="M94.9999 0H28.3333C25.5718 0 23.3334 2.23867 23.3334 5V6.6666H21.6667C18.9054 6.6666 16.6667 8.90527 16.6667 11.6666V51.6666C16.6667 54.4279 18.9054 56.6666 21.6667 56.6666H88.3333C91.0947 56.6666 93.3334 54.4279 93.3334 51.6666V50H94.9999C97.7613 50 100 47.7615 100 45V5C100 2.23867 97.7615 0 94.9999 0ZM90 51.6666C90 52.5871 89.2539 53.3332 88.3333 53.3332H21.6666C20.746 53.3332 20 52.5871 20 51.6666V11.6666C20 10.7461 20.746 10 21.6666 10H88.3332C89.2537 10 89.9998 10.7463 89.9998 11.6666L90 51.6666ZM96.6666 45C96.6666 45.9205 95.9205 46.6666 94.9999 46.6666H93.3334V11.6666C93.3334 8.90527 91.0947 6.6666 88.3333 6.6666H26.6666V5C26.6666 4.07949 27.4128 3.3334 28.3332 3.3334H94.9999C95.9205 3.3334 96.6666 4.07969 96.6666 5V45Z" fill="#B3D337"/>
<path d="M85.0001 20.0001C82.2388 20.0001 80.0001 17.7614 80.0001 15.0001C80.0001 14.0796 79.2538 13.3335 78.3335 13.3335H31.6667C30.7462 13.3335 30.0001 14.0798 30.0001 15.0001C30.0001 17.7614 27.7614 20.0001 25.0001 20.0001C24.0796 20.0001 23.3335 20.7462 23.3335 21.6667V41.6667C23.3335 42.5872 24.0796 43.3333 25.0001 43.3333C27.7616 43.3333 30.0001 45.572 30.0001 48.3333C30.0001 49.2538 30.7464 49.9999 31.6667 49.9999H78.3333C79.2538 49.9999 79.9999 49.2538 79.9999 48.3333C79.9999 45.572 82.2386 43.3333 84.9999 43.3333C85.9204 43.3333 86.6665 42.587 86.6665 41.6667V21.6667C86.6667 20.7464 85.9206 20.0001 85.0001 20.0001ZM83.3335 40.1667C80.0626 40.8396 77.5063 43.3958 76.8335 46.6667H33.1667C32.4938 43.3958 29.9376 40.8396 26.6667 40.1667V23.1667C29.9376 22.4938 32.4938 19.9376 33.1667 16.6667H76.8333C77.5061 19.9376 80.0624 22.4938 83.3333 23.1667V40.1667H83.3335Z" fill="#B3D337"/>
<path d="M55 21.6665C49.4772 21.6665 45 26.1437 45 31.6665C45 37.1894 49.4772 41.6665 55 41.6665C60.5229 41.6665 65 37.1894 65 31.6665C64.9945 26.146 60.5205 21.6722 55 21.6665ZM55 38.3333C51.3182 38.3333 48.3334 35.3485 48.3334 31.6667C48.3334 27.9849 51.3182 24.9999 55 24.9999C58.6818 24.9999 61.6666 27.9847 61.6666 31.6665C61.6666 35.3483 58.6818 38.3333 55 38.3333Z" fill="#B3D337"/>
<path d="M35 26.6665C32.2385 26.6665 30 28.9052 30 31.6665C30 34.4278 32.2387 36.6665 35 36.6665C37.7613 36.6665 40 34.4278 40 31.6665C40 28.9052 37.7615 26.6665 35 26.6665ZM35 33.3333C34.0795 33.3333 33.3334 32.587 33.3334 31.6667C33.3334 30.7462 34.0797 30.0001 35 30.0001C35.9203 30.0001 36.6666 30.7464 36.6666 31.6667C36.6666 32.587 35.9205 33.3333 35 33.3333Z" fill="#B3D337"/>
<path d="M75 26.6665C72.2387 26.6665 70 28.9052 70 31.6665C70 34.4278 72.2387 36.6665 75 36.6665C77.7613 36.6665 80 34.4278 80 31.6665C80 28.9052 77.7613 26.6665 75 26.6665ZM75 33.3333C74.0795 33.3333 73.3334 32.587 73.3334 31.6667C73.3334 30.7462 74.0797 30.0001 75 30.0001C75.9203 30.0001 76.6666 30.7464 76.6666 31.6667C76.6666 32.587 75.9205 33.3333 75 33.3333Z" fill="#B3D337"/>
<path d="M5 100H11.6666C13.7779 99.9914 15.6563 98.6574 16.36 96.6668H46.6666H55.0482C57.1508 96.6062 59.1484 95.7349 60.6232 94.2351L81.4232 73.0584C84.0217 70.4252 83.9934 66.1842 81.3602 63.5857C78.899 61.1572 74.994 61.001 72.3465 63.225L58.7898 74.575C57.4619 72.7402 55.3314 71.6576 53.0666 71.6666H36.0832C35.7365 71.6807 35.3955 71.576 35.1166 71.3699C32.741 69.4019 29.7514 68.3277 26.6666 68.3332C23.1605 68.282 19.674 68.8619 16.3732 70.0449C15.6857 68.0301 13.7955 66.6734 11.6666 66.6666H5C2.23867 66.6666 0 68.9053 0 71.6666V95.0002C0 97.7617 2.23867 100 5 100ZM32.9883 73.9351C33.8658 74.6373 34.9596 75.0137 36.0832 75.0002H53.0666C54.6629 74.9767 56.0854 76.0031 56.5666 77.5252C56.6215 77.7273 56.6557 77.9346 56.6684 78.1435C56.7188 79.0685 56.3846 79.9734 55.7451 80.6435C55.1166 81.3025 54.2439 81.6728 53.3334 81.667H35C34.0795 81.667 33.3334 82.4131 33.3334 83.3336C33.3334 84.2541 34.0797 85.0002 35 85.0002H53.3334C57.0152 85.0057 60.0045 82.0254 60.01 78.3433C60.0102 78.2189 60.0068 78.0943 60 77.9701C60 77.9517 60 77.9334 60 77.915L74.5 65.7783C75.9211 64.5879 78.0383 64.775 79.2287 66.1961C79.2303 66.198 79.2318 66.1998 79.2334 66.2017C80.3316 67.5322 80.26 69.4742 79.0668 70.7201L58.2699 91.8869C57.408 92.7738 56.2359 93.2924 55 93.3336H16.6666V73.5119C19.842 72.2308 23.2432 71.6033 26.6666 71.667C28.9762 71.6498 31.2166 72.4537 32.9883 73.9351ZM3.3334 71.6668C3.3334 70.7463 4.07969 70.0002 5 70.0002H11.6666C12.5871 70.0002 13.3332 70.7463 13.3332 71.6668V95.0002C13.3332 95.9207 12.5869 96.6668 11.6666 96.6668H5C4.07949 96.6668 3.3334 95.9207 3.3334 95.0002V71.6668Z" fill="#B3D337"/>
</g>
<defs>
<clipPath id="clip0_2179_142">
<rect width="100" height="100" fill="white"/>
</clipPath>
</defs>
</svg>
