<svg width="100" height="100" viewBox="0 0 100 100" fill="none" xmlns="http://www.w3.org/2000/svg">
<g clip-path="url(#clip0_2161_265)">
<path d="M30 93.3335H36.6667C37.5507 93.3335 38.3986 92.9823 39.0237 92.3572C39.6488 91.7321 40 90.8842 40 90.0002V86.6668C40 85.7828 39.6488 84.9349 39.0237 84.3098C38.3986 83.6847 37.5507 83.3335 36.6667 83.3335H30C29.1159 83.3335 28.2681 83.6847 27.643 84.3098C27.0178 84.9349 26.6667 85.7828 26.6667 86.6668V90.0002C26.6667 90.8842 27.0178 91.7321 27.643 92.3572C28.2681 92.9823 29.1159 93.3335 30 93.3335ZM30 86.6668H36.6667V90.0002H30V86.6668Z" fill="#B3D337"/>
<path d="M30 80H36.6667C37.5507 80 38.3986 79.6488 39.0237 79.0237C39.6488 78.3986 40 77.5507 40 76.6667V73.3333C40 72.4493 39.6488 71.6014 39.0237 70.9763C38.3986 70.3512 37.5507 70 36.6667 70H30C29.1159 70 28.2681 70.3512 27.643 70.9763C27.0178 71.6014 26.6667 72.4493 26.6667 73.3333V76.6667C26.6667 77.5507 27.0178 78.3986 27.643 79.0237C28.2681 79.6488 29.1159 80 30 80ZM30 73.3333H36.6667V76.6667H30V73.3333Z" fill="#B3D337"/>
<path d="M13.3333 80H20C20.8841 80 21.7319 79.6488 22.357 79.0237C22.9821 78.3986 23.3333 77.5507 23.3333 76.6667V73.3333C23.3333 72.4493 22.9821 71.6014 22.357 70.9763C21.7319 70.3512 20.8841 70 20 70H13.3333C12.4493 70 11.6014 70.3512 10.9763 70.9763C10.3512 71.6014 10 72.4493 10 73.3333V76.6667C10 77.5507 10.3512 78.3986 10.9763 79.0237C11.6014 79.6488 12.4493 80 13.3333 80ZM13.3333 73.3333H20V76.6667H13.3333V73.3333Z" fill="#B3D337"/>
<path d="M0.199995 64.4651C0.424845 65.111 0.845999 65.6705 1.40453 66.0653C1.96307 66.4601 2.63104 66.6704 3.31499 66.6668H3.33333V96.6668C3.33333 97.5508 3.68452 98.3987 4.30964 99.0238C4.93476 99.6489 5.78261 100 6.66666 100H43.3333C44.2174 100 45.0652 99.6489 45.6904 99.0238C46.3155 98.3987 46.6667 97.5508 46.6667 96.6668V66.6668H46.685C47.3714 66.6639 48.0402 66.4492 48.6 66.052C49.1599 65.6547 49.5834 65.0944 49.8128 64.4474C50.0422 63.8004 50.0662 63.0984 49.8817 62.4373C49.6971 61.7761 49.313 61.1881 48.7817 60.7534L43.3333 56.2668V46.6668C43.3333 45.7827 42.9821 44.9349 42.357 44.3097C41.7319 43.6846 40.8841 43.3334 40 43.3334H36.6667C35.7826 43.3334 34.9348 43.6846 34.3096 44.3097C33.6845 44.9349 33.3333 45.7827 33.3333 46.6668V48.0351L27.0967 42.9001C26.5052 42.4159 25.7644 42.1514 25 42.1514C24.2356 42.1514 23.4948 42.4159 22.9033 42.9001L1.21833 60.7534C0.682851 61.1887 0.296823 61.7805 0.114236 62.446C-0.0683518 63.1115 -0.0383676 63.8175 0.199995 64.4651ZM13.3333 96.6668V86.6668H20V96.6668H13.3333ZM43.3333 96.6668H23.3333V86.6668C23.3333 85.7827 22.9821 84.9349 22.357 84.3097C21.7319 83.6846 20.8841 83.3334 20 83.3334H13.3333C12.4493 83.3334 11.6014 83.6846 10.9763 84.3097C10.3512 84.9349 10 85.7827 10 86.6668V96.6668H6.66666V66.6668H43.3333V96.6668ZM24.9783 45.4734L33.94 52.8518C34.1839 53.0528 34.4799 53.1803 34.7935 53.2194C35.1071 53.2586 35.4254 53.2078 35.7113 53.0729C35.9971 52.938 36.2387 52.7247 36.4078 52.4577C36.577 52.1907 36.6668 51.8812 36.6667 51.5651V46.6668H40V57.0534C39.9999 57.2994 40.0543 57.5423 40.1592 57.7647C40.2641 57.9872 40.4169 58.1837 40.6067 58.3401L46.6667 63.3334H46.6883H3.33333L24.9783 45.4734Z" fill="#B3D337"/>
<path d="M80 51.6665H86.6667C87.5507 51.6665 88.3986 51.3153 89.0237 50.6902C89.6488 50.0651 90 49.2172 90 48.3332V44.9998C90 44.1158 89.6488 43.2679 89.0237 42.6428C88.3986 42.0177 87.5507 41.6665 86.6667 41.6665H80C79.1159 41.6665 78.2681 42.0177 77.643 42.6428C77.0178 43.2679 76.6667 44.1158 76.6667 44.9998V48.3332C76.6667 49.2172 77.0178 50.0651 77.643 50.6902C78.2681 51.3153 79.1159 51.6665 80 51.6665ZM80 44.9998H86.6667V48.3332H80V44.9998Z" fill="#B3D337"/>
<path d="M80 38.3335H86.6667C87.5507 38.3335 88.3986 37.9823 89.0237 37.3572C89.6488 36.7321 90 35.8842 90 35.0002V31.6668C90 30.7828 89.6488 29.9349 89.0237 29.3098C88.3986 28.6847 87.5507 28.3335 86.6667 28.3335H80C79.1159 28.3335 78.2681 28.6847 77.643 29.3098C77.0178 29.9349 76.6667 30.7828 76.6667 31.6668V35.0002C76.6667 35.8842 77.0178 36.7321 77.643 37.3572C78.2681 37.9823 79.1159 38.3335 80 38.3335ZM80 31.6668H86.6667V35.0002H80V31.6668Z" fill="#B3D337"/>
<path d="M63.3333 38.3335H70C70.8841 38.3335 71.7319 37.9823 72.357 37.3572C72.9821 36.7321 73.3333 35.8842 73.3333 35.0002V31.6668C73.3333 30.7828 72.9821 29.9349 72.357 29.3098C71.7319 28.6847 70.8841 28.3335 70 28.3335H63.3333C62.4493 28.3335 61.6014 28.6847 60.9763 29.3098C60.3512 29.9349 60 30.7828 60 31.6668V35.0002C60 35.8842 60.3512 36.7321 60.9763 37.3572C61.6014 37.9823 62.4493 38.3335 63.3333 38.3335ZM63.3333 31.6668H70V35.0002H63.3333V31.6668Z" fill="#B3D337"/>
<path d="M90 1.66644H86.6667C85.7826 1.66644 84.9348 2.01763 84.3096 2.64275C83.6845 3.26787 83.3333 4.11572 83.3333 4.99977V6.36811L77.0967 1.23311C76.5052 0.748926 75.7644 0.484375 75 0.484375C74.2356 0.484375 73.4948 0.748926 72.9033 1.23311L51.2183 19.0864C50.687 19.5211 50.3029 20.1091 50.1183 20.7703C49.9338 21.4314 49.9578 22.1334 50.1872 22.7804C50.4166 23.4274 50.8401 23.9877 51.4 24.385C51.9598 24.7822 52.6286 24.9969 53.315 24.9998H53.3333V54.9998C53.3333 55.8838 53.6845 56.7317 54.3096 57.3568C54.9348 57.9819 55.7826 58.3331 56.6667 58.3331H93.3333C94.2174 58.3331 95.0652 57.9819 95.6903 57.3568C96.3155 56.7317 96.6667 55.8838 96.6667 54.9998V24.9998H96.685C97.3714 24.9969 98.0402 24.7822 98.6 24.385C99.1598 23.9877 99.5834 23.4274 99.8128 22.7804C100.042 22.1334 100.066 21.4314 99.8817 20.7703C99.6971 20.1091 99.313 19.5211 98.7817 19.0864L93.3333 14.5998V4.99977C93.3333 4.11572 92.9821 3.26787 92.357 2.64275C91.7319 2.01763 90.884 1.66644 90 1.66644ZM63.3333 54.9998V44.9998H70V54.9998H63.3333ZM93.3333 54.9998H73.3333V44.9998C73.3333 44.1157 72.9821 43.2679 72.357 42.6428C71.7319 42.0176 70.884 41.6664 70 41.6664H63.3333C62.4493 41.6664 61.6014 42.0176 60.9763 42.6428C60.3512 43.2679 60 44.1157 60 44.9998V54.9998H56.6667V24.9998H93.3333V54.9998ZM96.6667 21.6664H96.6883H53.3333L74.9783 3.80644L83.94 11.1848C84.1839 11.3858 84.4799 11.5133 84.7935 11.5525C85.1071 11.5916 85.4254 11.5408 85.7113 11.4059C85.9971 11.271 86.2387 11.0577 86.4078 10.7907C86.577 10.5237 86.6668 10.2142 86.6667 9.89811V4.99977H90V15.3864C89.9999 15.6324 90.0543 15.8753 90.1592 16.0977C90.264 16.3202 90.4169 16.5167 90.6067 16.6731L96.6667 21.6664Z" fill="#B3D337"/>
<path d="M13.3333 16.6665V36.6665C13.3333 37.1086 13.5089 37.5325 13.8215 37.845C14.1341 38.1576 14.558 38.3332 15 38.3332C15.442 38.3332 15.866 38.1576 16.1785 37.845C16.4911 37.5325 16.6667 37.1086 16.6667 36.6665V16.6665C16.6667 16.2245 16.8423 15.8006 17.1548 15.488C17.4674 15.1755 17.8913 14.9999 18.3333 14.9999H39.31L37.155 17.1549C36.9958 17.3086 36.8689 17.4925 36.7815 17.6959C36.6942 17.8992 36.6482 18.1179 36.6463 18.3392C36.6443 18.5605 36.6865 18.78 36.7703 18.9848C36.8541 19.1896 36.9779 19.3757 37.1344 19.5322C37.2908 19.6887 37.4769 19.8124 37.6818 19.8962C37.8866 19.98 38.106 20.0222 38.3273 20.0203C38.5486 20.0184 38.7673 19.9724 38.9707 19.885C39.174 19.7977 39.3579 19.6707 39.5117 19.5115L44.5117 14.5115C44.8241 14.199 44.9997 13.7751 44.9997 13.3332C44.9997 12.8913 44.8241 12.4674 44.5117 12.1549L39.5117 7.15487C39.1973 6.85127 38.7763 6.68328 38.3393 6.68707C37.9023 6.69087 37.4843 6.86615 37.1753 7.17517C36.8663 7.48418 36.691 7.9022 36.6872 8.3392C36.6834 8.77619 36.8514 9.19719 37.155 9.51153L39.31 11.6665H18.3333C17.0073 11.6665 15.7355 12.1933 14.7978 13.131C13.8601 14.0687 13.3333 15.3404 13.3333 16.6665Z" fill="#B3D337"/>
<path d="M86.6667 83.3332V63.3332C86.6667 62.8911 86.4911 62.4672 86.1785 62.1547C85.866 61.8421 85.442 61.6665 85 61.6665C84.558 61.6665 84.1341 61.8421 83.8215 62.1547C83.5089 62.4672 83.3333 62.8911 83.3333 63.3332V83.3332C83.3333 83.7752 83.1578 84.1991 82.8452 84.5117C82.5326 84.8242 82.1087 84.9998 81.6667 84.9998H60.69L62.845 82.8448C63.1486 82.5305 63.3166 82.1095 63.3128 81.6725C63.309 81.2355 63.1337 80.8175 62.8247 80.5085C62.5157 80.1995 62.0977 80.0242 61.6607 80.0204C61.2237 80.0166 60.8027 80.1846 60.4883 80.4882L55.4883 85.4882C55.1759 85.8007 55.0004 86.2246 55.0004 86.6665C55.0004 87.1084 55.1759 87.5323 55.4883 87.8448L60.4883 92.8448C60.8027 93.1484 61.2237 93.3164 61.6607 93.3126C62.0977 93.3088 62.5157 93.1336 62.8247 92.8245C63.1337 92.5155 63.309 92.0975 63.3128 91.6605C63.3166 91.2235 63.1486 90.8025 62.845 90.4882L60.69 88.3332H81.6667C82.9928 88.3332 84.2645 87.8064 85.2022 86.8687C86.1399 85.931 86.6667 84.6593 86.6667 83.3332Z" fill="#B3D337"/>
</g>
<defs>
<clipPath id="clip0_2161_265">
<rect width="100" height="100" fill="white"/>
</clipPath>
</defs>
</svg>
