<svg width="100" height="100" viewBox="0 0 100 100" fill="none" xmlns="http://www.w3.org/2000/svg">
<g clip-path="url(#clip0_2161_276)">
<path d="M60.6267 48.7998L87.2267 22.2015L92.625 21.1215C92.884 21.0695 93.127 20.9568 93.334 20.7925C93.5409 20.6282 93.7057 20.417 93.815 20.1765L99.7067 7.21313C99.8478 6.90478 99.8914 6.56072 99.8319 6.22689C99.7723 5.89305 99.6124 5.58533 99.3733 5.3448L94.655 0.631465C94.4145 0.392433 94.1067 0.232459 93.7729 0.172899C93.4391 0.113339 93.095 0.157028 92.7867 0.298132L79.8233 6.1848C79.5828 6.29405 79.3716 6.45893 79.2073 6.66583C79.043 6.87274 78.9302 7.11574 78.8783 7.3748L77.8 12.7731L51.195 39.3765L42.445 30.6548C42.2257 30.4385 42.0723 30.1644 42.0026 29.8643C41.933 29.5643 41.95 29.2506 42.0517 28.9598C43.3515 25.3273 43.6579 21.4136 42.9391 17.6231C42.2203 13.8325 40.5024 10.3027 37.9629 7.39825C35.4234 4.49381 32.1544 2.32013 28.4937 1.10182C24.8331 -0.116497 20.9135 -0.335261 17.14 0.468132C16.5616 0.591919 16.0275 0.869794 15.5941 1.27234C15.1608 1.67488 14.8443 2.18711 14.6783 2.7548C14.5046 3.334 14.4903 3.94933 14.637 4.53597C14.7836 5.12261 15.0858 5.65883 15.5117 6.08813L25.1967 15.7715C25.3519 15.9263 25.475 16.1102 25.559 16.3127C25.6431 16.5152 25.6863 16.7322 25.6863 16.9515C25.6863 17.1707 25.6431 17.3878 25.559 17.5902C25.475 17.7927 25.3519 17.9766 25.1967 18.1315L18.13 25.1981C17.9752 25.3533 17.7913 25.4765 17.5888 25.5605C17.3863 25.6445 17.1692 25.6878 16.95 25.6878C16.7308 25.6878 16.5137 25.6445 16.3112 25.5605C16.1087 25.4765 15.9248 25.3533 15.77 25.1981L6.09499 15.5198C5.66519 15.0947 5.12896 14.793 4.5425 14.6464C3.95604 14.4998 3.34093 14.5136 2.76165 14.6865C2.19387 14.8509 1.68106 15.1657 1.27739 15.5976C0.873719 16.0294 0.594185 16.5622 0.46832 17.1398C-0.337247 20.9165 -0.118815 24.8398 1.101 28.5037C2.32082 32.1677 4.4977 35.439 7.40631 37.9791C10.3149 40.5192 13.8496 42.2358 17.6443 42.9512C21.4391 43.6666 25.3562 43.3549 28.99 42.0481C29.277 41.9501 29.586 41.9355 29.881 42.006C30.176 42.0765 30.445 42.2292 30.6567 42.4465L36.1883 47.9465C35.4436 48.2757 34.7657 48.739 34.1883 49.3131L1.52832 81.9731C0.590965 82.9108 0.064388 84.1823 0.064388 85.5081C0.064388 86.834 0.590965 88.1055 1.52832 89.0431L10.955 98.4715C11.4193 98.9359 11.9705 99.3042 12.5772 99.5555C13.1839 99.8069 13.8341 99.9362 14.4908 99.9362C15.1475 99.9362 15.7978 99.8069 16.4044 99.5555C17.0111 99.3042 17.5624 98.9359 18.0267 98.4715L50.68 65.8181C51.2607 65.2336 51.7281 64.5464 52.0583 63.7915L85.8333 97.4781C87.3967 99.0369 89.514 99.9125 91.7217 99.9131C91.8483 99.9131 91.975 99.9131 92.1017 99.9048C93.2672 99.8485 94.4083 99.5503 95.4524 99.0293C96.4966 98.5082 97.4209 97.7757 98.1667 96.8781C99.4647 95.219 100.105 93.1393 99.9651 91.0373C99.8252 88.9354 98.9148 86.9589 97.4083 85.4865L60.6267 48.7998ZM80.5133 14.7731C80.7449 14.5398 80.9031 14.2437 80.9683 13.9215L81.98 8.8648L93.115 3.8048L96.195 6.8848L91.135 18.0198L86.0767 19.0315C85.7547 19.0961 85.459 19.2544 85.2267 19.4865L57.1 47.6131L57.0867 47.6231L57.0767 47.6365L49.5 55.2131L44.7867 50.4998L52.365 42.9215L52.38 42.9115V42.8981L80.5133 14.7731ZM27.8583 38.9131C24.788 40.018 21.4782 40.2826 18.2713 39.6795C15.0644 39.0765 12.0768 37.6276 9.61752 35.4829C7.15825 33.3382 5.31657 30.5754 4.28295 27.4803C3.24933 24.3853 3.06131 21.0702 3.73832 17.8781L13.4217 27.5631C14.3605 28.4995 15.6324 29.0253 16.9583 29.0253C18.2843 29.0253 19.5561 28.4995 20.495 27.5631L27.5617 20.4965C28.0263 20.0321 28.3949 19.4808 28.6463 18.874C28.8978 18.2671 29.0273 17.6167 29.0273 16.9598C29.0273 16.3029 28.8978 15.6525 28.6463 15.0456C28.3949 14.4388 28.0263 13.8875 27.5617 13.4231L17.8333 3.7298C21.026 3.04957 24.3424 3.23413 27.4399 4.26442C30.5375 5.29471 33.3037 7.13335 35.4529 9.59039C37.6021 12.0474 39.0562 15.0337 39.6652 18.2408C40.2741 21.4479 40.0157 24.7594 38.9167 27.8331C38.6013 28.7185 38.5435 29.6752 38.75 30.5921C38.9565 31.509 39.4188 32.3485 40.0833 33.0131L48.8333 41.7331L42.2583 48.3081C41.7266 47.9937 41.1532 47.7558 40.555 47.6015L33.0067 40.0865C32.3477 39.4234 31.5141 38.961 30.6026 38.7533C29.6912 38.5456 28.7395 38.601 27.8583 38.9131ZM21.2383 90.5481L9.45332 78.7631L13.4783 74.7365L25.265 86.5215L21.2383 90.5481ZM15.6667 96.1148C15.5119 96.2698 15.3281 96.3927 15.1257 96.4766C14.9234 96.5604 14.7065 96.6036 14.4875 96.6036C14.2685 96.6036 14.0516 96.5604 13.8493 96.4766C13.6469 96.3927 13.4631 96.2698 13.3083 96.1148L3.88499 86.6865C3.57254 86.3739 3.39701 85.9501 3.39701 85.5081C3.39701 85.0662 3.57254 84.6423 3.88499 84.3298L7.09665 81.1198L18.8817 92.9048L15.6667 96.1148ZM48.3233 63.4615L27.6217 84.1665L15.8333 72.3798L36.5383 51.6765C37.1735 51.0708 38.0174 50.733 38.895 50.733C39.7726 50.733 40.6165 51.0708 41.2517 51.6765L48.3233 58.7481C48.9482 59.3732 49.2993 60.2209 49.2993 61.1048C49.2993 61.9887 48.9482 62.8364 48.3233 63.4615ZM95.6017 94.7515C95.158 95.2908 94.6066 95.7314 93.9828 96.0452C93.3589 96.359 92.6764 96.539 91.9789 96.5737C91.2815 96.6084 90.5845 96.497 89.9326 96.2466C89.2807 95.9962 88.6883 95.6124 88.1933 95.1198L52.3917 59.4165C52.2378 58.8261 52.0022 58.26 51.6917 57.7348L58.27 51.1565L95.055 87.8448C95.9789 88.7277 96.5453 89.9199 96.6461 91.1938C96.7469 92.4678 96.3751 93.7342 95.6017 94.7515Z" fill="#B3D337"/>
</g>
<defs>
<clipPath id="clip0_2161_276">
<rect width="100" height="100" fill="white"/>
</clipPath>
</defs>
</svg>
