<svg width="100" height="100" viewBox="0 0 100 100" fill="none" xmlns="http://www.w3.org/2000/svg">
<g clip-path="url(#clip0_2179_183)">
<path fill-rule="evenodd" clip-rule="evenodd" d="M14.9878 13.3223H34.9714C35.8911 13.3223 36.6367 12.5768 36.6367 11.657C36.6367 10.7372 35.8911 9.9917 34.9714 9.9917H14.9878C14.068 9.9917 13.3225 10.7372 13.3225 11.657C13.3225 12.5766 14.068 13.3223 14.9878 13.3223Z" fill="#B3D337"/>
<path fill-rule="evenodd" clip-rule="evenodd" d="M14.9878 23.314H34.9714C35.8911 23.314 36.6367 22.5685 36.6367 21.6487C36.6367 20.7289 35.8911 19.9834 34.9714 19.9834H14.9878C14.068 19.9834 13.3225 20.7289 13.3225 21.6487C13.3225 22.5685 14.068 23.314 14.9878 23.314Z" fill="#B3D337"/>
<path fill-rule="evenodd" clip-rule="evenodd" d="M14.9878 33.3057H34.9714C35.8911 33.3057 36.6367 32.5602 36.6367 31.6404C36.6367 30.7206 35.8911 29.9751 34.9714 29.9751H14.9878C14.068 29.9751 13.3225 30.7206 13.3225 31.6404C13.3225 32.5602 14.068 33.3057 14.9878 33.3057Z" fill="#B3D337"/>
<path fill-rule="evenodd" clip-rule="evenodd" d="M31.6408 41.6321C31.6408 40.7123 30.8953 39.9668 29.9755 39.9668H14.9878C14.068 39.9668 13.3225 40.7123 13.3225 41.6321C13.3225 42.5518 14.068 43.2974 14.9878 43.2974H29.9755C30.8951 43.2974 31.6408 42.5518 31.6408 41.6321Z" fill="#B3D337"/>
<path fill-rule="evenodd" clip-rule="evenodd" d="M24.9795 49.959H14.9878C14.068 49.959 13.3225 50.7045 13.3225 51.6243C13.3225 52.544 14.068 53.2896 14.9878 53.2896H24.9797C25.8994 53.2896 26.6449 52.544 26.6449 51.6243C26.6449 50.7045 25.8993 49.959 24.9795 49.959Z" fill="#B3D337"/>
<path fill-rule="evenodd" clip-rule="evenodd" d="M48.2937 13.3223H68.2773C69.197 13.3223 69.9426 12.5768 69.9426 11.657C69.9426 10.7372 69.197 9.9917 68.2773 9.9917H48.2937C47.3739 9.9917 46.6284 10.7372 46.6284 11.657C46.6284 12.5766 47.3739 13.3223 48.2937 13.3223Z" fill="#B3D337"/>
<path fill-rule="evenodd" clip-rule="evenodd" d="M48.2937 23.314H68.2773C69.197 23.314 69.9426 22.5685 69.9426 21.6487C69.9426 20.7289 69.197 19.9834 68.2773 19.9834H48.2937C47.3739 19.9834 46.6284 20.7289 46.6284 21.6487C46.6284 22.5685 47.3739 23.314 48.2937 23.314Z" fill="#B3D337"/>
<path d="M76.4374 43.4642C67.3343 34.3698 52.5828 34.3745 43.4855 43.4747C34.3883 52.575 34.3883 67.3263 43.4855 76.4266C52.5828 85.5268 67.3343 85.5315 76.4374 76.4371C85.5303 67.327 85.5303 52.5745 76.4374 43.4642ZM74.0809 74.0807C66.2787 81.8756 53.6357 81.8716 45.8384 74.0719C38.041 66.2723 38.041 53.629 45.8384 45.8294C53.6357 38.0297 66.2787 38.0257 74.0809 45.8206C81.8724 53.6295 81.8724 66.2719 74.0809 74.0807Z" fill="#B3D337"/>
<path fill-rule="evenodd" clip-rule="evenodd" d="M59.9507 43.2979C55.5316 43.2858 51.2915 45.0422 48.1755 48.1756C47.7425 48.5938 47.5689 49.2129 47.7213 49.7951C47.8738 50.3774 48.3284 50.832 48.9107 50.9844C49.4929 51.1369 50.112 50.9633 50.5301 50.5303C53.0232 48.0237 56.4154 46.6188 59.9507 46.6285C60.8705 46.6285 61.616 45.883 61.616 44.9632C61.616 44.0434 60.8705 43.2979 59.9507 43.2979Z" fill="#B3D337"/>
<path d="M90.3308 80.9102C89.491 80.0753 88.2702 79.7511 87.1269 80.0593L84.3609 77.2931C92.1259 66.345 91.6784 51.5725 83.2652 41.1145V9.99188C83.2652 7.23274 81.0285 4.99603 78.2693 4.99603H76.6041V3.33075C76.6037 1.49121 75.1125 1.4252e-05 73.2732 1.4252e-05H46.6285C44.7156 -0.000485533 42.8952 0.822827 41.6326 2.25988C41.541 2.15492 41.4443 2.05163 41.3446 1.95351C40.0989 0.699713 38.4038 -0.00365084 36.6366 1.4252e-05H9.99187C8.15233 1.4252e-05 6.66114 1.49121 6.66114 3.33058V4.99587H4.99585C2.23671 4.99587 0 7.23274 0 9.99188V64.9468C0 67.7059 2.23671 69.9426 4.99585 69.9426H31.5241C31.5999 69.9531 31.6745 69.9704 31.7472 69.9943C34.8827 78.841 41.9893 85.7025 50.9404 88.5259C59.8916 91.3494 69.6491 89.8072 77.2931 84.3607L80.0591 87.1269C79.7512 88.2702 80.0754 89.491 80.91 90.3308L88.5471 97.9662C90.2195 99.6978 92.6961 100.392 95.0251 99.7828C97.3541 99.1732 99.1729 97.3543 99.7824 95.0255C100.392 92.6965 99.6976 90.2199 97.9659 88.5474L90.3308 80.9102ZM78.269 8.3266C79.1888 8.3266 79.9343 9.07211 79.9343 9.99188V37.6592C78.8878 36.7064 77.7747 35.8294 76.6037 35.0346V8.3266H78.269ZM46.6285 3.33058H73.2732V33.1244C63.6565 28.3658 52.2327 29.0938 43.2977 35.0346V6.66115C43.2977 4.82177 44.7889 3.33058 46.6285 3.33058ZM9.99187 3.33058H36.6366C38.476 3.33058 39.9672 4.82177 39.9672 6.66115V37.659C39.5625 38.0237 39.1445 38.365 38.7548 38.7547C33.1299 44.3728 29.9751 52.0005 29.9888 59.9506H9.99187V3.33058ZM4.99585 66.612C4.07608 66.612 3.33057 65.8665 3.33057 64.9468V9.99188C3.33057 9.07211 4.07608 8.3266 4.99585 8.3266H6.66114V59.9509C6.66114 61.7903 8.15233 63.2815 9.9917 63.2815H30.1919C30.3206 64.4015 30.5119 65.5133 30.7648 66.612H4.99585ZM41.1097 78.792C30.7046 68.3864 30.705 51.516 41.1103 41.1108C51.5157 30.7056 68.3861 30.7056 78.7915 41.1108C89.1968 51.516 89.1972 68.3863 78.7921 78.792C68.3788 89.1797 51.5227 89.1797 41.1097 78.792ZM81.1468 81.1468C81.5448 80.7488 81.8945 80.3142 82.2658 79.9078L84.444 82.0861L82.086 84.444L79.9078 82.2658C80.3225 81.8945 80.7488 81.5448 81.1468 81.1468ZM95.6116 95.6116C94.294 96.8702 92.2197 96.8702 90.9021 95.6116L83.265 87.9745L87.9762 83.265L95.6116 90.9021C96.9117 92.2027 96.9117 94.311 95.6116 95.6116Z" fill="#B3D337"/>
</g>
<defs>
<clipPath id="clip0_2179_183">
<rect width="100" height="100" fill="white"/>
</clipPath>
</defs>
</svg>
