<svg width="100" height="100" viewBox="0 0 100 100" fill="none" xmlns="http://www.w3.org/2000/svg">
<g clip-path="url(#clip0_2161_565)">
<path d="M25.0317 61.7648C25.0015 61.9483 24.9333 62.1235 24.8314 62.279C24.7295 62.4346 24.5962 62.5671 24.44 62.6681C24.1348 62.8685 23.765 62.9459 23.405 62.8848C22.2299 62.6552 21.0115 62.8842 20 63.5248L2.23833 75.3448C1.27885 75.9819 0.568753 76.9308 0.228035 78.031C-0.112683 79.1312 -0.0631283 80.3152 0.368325 81.3831C1.79253 84.8148 3.55218 88.0974 5.62166 91.1831C7.14737 93.499 8.87643 95.6742 10.7883 97.6831L11.3933 98.3498C11.8637 98.8681 12.4371 99.2825 13.0768 99.5666C13.7165 99.8508 14.4084 99.9983 15.1083 99.9998C15.9913 99.9988 16.8585 99.7655 17.6229 99.3235C18.3873 98.8815 19.022 98.2462 19.4633 97.4815L29.7967 79.4181H31.63C32.2251 79.4188 32.8134 79.2925 33.3558 79.0477C33.8982 78.8028 34.382 78.445 34.775 77.9981C35.1754 77.538 35.4729 76.9978 35.6477 76.4134C35.8224 75.8291 35.8704 75.2142 35.7883 74.6098C35.5337 72.7006 35.7044 70.7586 36.2883 68.9231L38.7517 69.4231C39.0809 69.4895 39.4158 69.5236 39.7517 69.5248C40.738 69.5249 41.7021 69.232 42.5217 68.6831L44.5817 67.3131C45.5714 66.6574 46.2955 65.6708 46.6244 64.5299C46.9533 63.3891 46.8655 62.1685 46.3767 61.0865L45.295 58.6848L79.8333 29.9131L79.8417 29.9031C80.4741 29.3784 80.8888 28.6372 81.0052 27.8237C81.1217 27.0103 80.9315 26.1825 80.4717 25.5015L80.4 25.3915L98.5 13.3331C99.2374 12.8422 99.7499 12.0789 99.9252 11.2106C100.1 10.3423 99.9242 9.43995 99.435 8.70146L96.6667 4.52146C96.3483 4.02946 95.9027 3.63275 95.3772 3.37337C94.8517 3.11399 94.2658 3.00161 93.6817 3.04813L92.8167 1.74813C92.4183 1.14889 91.8625 0.671024 91.2103 0.367028C90.5581 0.0630317 89.8347 -0.0553389 89.1197 0.0249177C88.4046 0.105174 87.7255 0.380953 87.1569 0.821964C86.5883 1.26297 86.1523 1.85215 85.8967 2.52479L83.2717 9.42146L70.8817 17.6665C70.7518 17.108 70.5262 16.5763 70.215 16.0948L61.8817 3.54813C61.1442 2.44306 59.9988 1.67537 58.6964 1.41326C57.394 1.15116 56.0408 1.41601 54.9333 2.14979L50.5133 5.08979C49.9624 5.45481 49.4894 5.92541 49.1215 6.47439C48.7536 7.02336 48.4982 7.63983 48.37 8.28813L46.915 15.5248L44.3117 17.2581C43.7869 16.9983 43.2034 16.8799 42.6189 16.9143C42.0344 16.9488 41.4689 17.1351 40.9783 17.4548L38.2067 19.3165C37.4728 19.8072 36.9624 20.568 36.7867 21.4331C36.7334 21.7193 36.7171 22.0111 36.7383 22.3015L27.605 28.3815C27.3417 28.2457 27.0615 28.146 26.7717 28.0848C26.345 27.9988 25.9055 27.9988 25.4788 28.0846C25.0522 28.1705 24.6469 28.3405 24.2867 28.5848L21.5 30.4348C21.0105 30.7571 20.6157 31.204 20.3562 31.7295C20.0967 32.255 19.9818 32.8402 20.0233 33.4248L12.6667 38.3198C11.932 38.8123 11.4221 39.5754 11.2481 40.4425C11.0742 41.3097 11.2504 42.2104 11.7383 42.9481L14.515 47.1315C14.757 47.4971 15.0692 47.8112 15.4334 48.0555C15.7975 48.2998 16.2065 48.4695 16.6367 48.5548C16.8561 48.5996 17.0794 48.6225 17.3033 48.6231C17.9563 48.6214 18.5942 48.4265 19.1367 48.0631L26.1017 43.4265L28.2167 46.6065C27.947 47.1265 27.823 47.7099 27.8579 48.2946C27.8928 48.8794 28.0853 49.4439 28.415 49.9281L30.295 52.7615C27.5183 55.0349 25.6505 58.2299 25.0317 61.7648ZM42.7583 64.5348L40.7 65.9048C40.5146 66.0281 40.3066 66.1133 40.088 66.1557C39.8695 66.198 39.6447 66.1966 39.4267 66.1515L37.75 65.8181C38.4429 64.7063 39.3056 63.7098 40.3067 62.8648L42.6667 60.8981L43.365 62.4498C43.5242 62.8133 43.5507 63.2213 43.4399 63.6023C43.329 63.9834 43.0878 64.3134 42.7583 64.5348ZM89.0083 3.70979C89.0461 3.60973 89.1108 3.52203 89.1952 3.45633C89.2797 3.39064 89.3806 3.34951 89.4869 3.33745C89.5932 3.32539 89.7007 3.34288 89.7977 3.38798C89.8947 3.43309 89.9774 3.50407 90.0367 3.59313L90.6483 4.51146L88.045 6.24313L89.0083 3.70979ZM93.8867 6.36479L96.6667 10.5598L78.2 22.8531C77.6772 22.5676 77.0856 22.4321 76.4907 22.4615C75.8957 22.4909 75.3204 22.6841 74.8283 23.0198L58.1017 34.1515L56.2683 31.4015L64.3967 25.9931L65.04 25.5631L93.8867 6.36479ZM53.0317 29.5498L51.1667 26.7481L53.385 25.2715L58.0517 26.2098L53.0317 29.5498ZM55.3333 35.9998L49.75 39.7131L47.9167 36.9615L50.01 35.5681L53.49 33.2548L55.3333 35.9998ZM49.3333 17.9198C49.5155 17.7984 49.6719 17.6423 49.7938 17.4604C49.9156 17.2785 50.0004 17.0744 50.0433 16.8598L51.635 8.94479C51.6776 8.72608 51.7631 8.518 51.8867 8.3326C52.0103 8.14721 52.1695 7.9882 52.355 7.86479L56.77 4.92646C57.1421 4.68104 57.5961 4.59255 58.0331 4.68027C58.4701 4.76799 58.8548 5.0248 59.1033 5.39479L67.4367 17.9431C67.5593 18.127 67.6444 18.3333 67.6872 18.5502C67.7301 18.767 67.7297 18.9902 67.6862 19.2069C67.6427 19.4236 67.5569 19.6296 67.4337 19.8131C67.3106 19.9967 67.1524 20.1541 66.9683 20.2765L62.555 23.2148C62.3702 23.3387 62.1625 23.4244 61.9441 23.4667C61.7257 23.5091 61.501 23.5073 61.2833 23.4615L53.375 21.8681C53.1603 21.8253 52.9392 21.8251 52.7245 21.8678C52.5097 21.9104 52.3054 21.9949 52.1233 22.1165L49.3333 23.9715L46.55 19.7748L49.3333 17.9198ZM42.85 20.2298L50.2567 31.3965L49.5617 31.8581L47.465 33.2515L40.065 22.0848L42.85 20.2298ZM36.3333 40.6665L34.4717 37.8648L42.8367 32.2981L44.6967 35.0981L36.3333 40.6665ZM38.6183 47.1148L33.0283 50.8331L31.205 48.0915H31.2167L35.95 44.9248L36.7833 44.3681L38.6183 47.1148ZM45.1467 38.8015L46.98 41.5548L41.3983 45.2681L39.565 42.5198L45.1467 38.8015ZM38.2017 25.3331L40.9867 29.5281L32.6217 35.0948L29.8333 30.8981L38.2017 25.3331ZM17.2967 45.2881L14.52 41.0915L21.4833 36.4581L24.2717 40.6515L17.2967 45.2881ZM23.3333 33.2181L26.14 31.3631L33.5483 42.5165L30.75 44.3798L23.3333 33.2181ZM33.2483 54.7181C33.3421 54.6839 33.4325 54.6409 33.5183 54.5898L41.875 49.0265C41.9505 48.9634 42.0203 48.8937 42.0833 48.8181L49.88 43.6315C50.0034 43.5899 50.1214 43.534 50.2317 43.4648L58.585 37.9031C58.6555 37.8451 58.7203 37.7803 58.7783 37.7098L76.6667 25.8031L77.695 27.3398C77.6946 27.3438 77.6933 27.3476 77.6913 27.351C77.6893 27.3545 77.6866 27.3575 77.6833 27.3598L38.1667 60.3015C36.0566 62.0851 34.4309 64.3726 33.4403 66.9519C32.4497 69.5312 32.1263 72.3189 32.5 75.0565C32.5197 75.1888 32.5104 75.3238 32.4727 75.4522C32.435 75.5805 32.3698 75.6992 32.2817 75.7998C32.2031 75.8918 32.1051 75.9652 31.9947 76.0148C31.8843 76.0644 31.7643 76.0888 31.6433 76.0865H28.8333C28.5402 76.0859 28.2521 76.1626 27.9981 76.3089C27.7441 76.4552 27.5332 76.6659 27.3867 76.9198L16.565 95.8331C16.4377 96.0599 16.258 96.2528 16.0408 96.3958C15.8236 96.5388 15.5753 96.6276 15.3167 96.6548C15.0457 96.6867 14.771 96.6532 14.5155 96.5572C14.2601 96.4613 14.0313 96.3056 13.8483 96.1031L13.24 95.4365C11.4471 93.5503 9.82619 91.5077 8.39666 89.3331C6.44951 86.43 4.79265 83.3423 3.44999 80.1148C3.31391 79.7586 3.30279 79.3668 3.41845 79.0034C3.53411 78.6401 3.76971 78.3268 4.08666 78.1148L21.8333 66.3048C22.0266 66.1884 22.2495 66.1305 22.475 66.1381C22.598 66.1383 22.7207 66.1495 22.8417 66.1715C24.0335 66.3701 25.2563 66.1124 26.2667 65.4498C26.8074 65.0987 27.2689 64.6387 27.6219 64.0992C27.9749 63.5597 28.2115 62.9525 28.3167 62.3165C28.5932 60.7845 29.1721 59.3229 30.0193 58.0169C30.8666 56.711 31.9654 55.5867 33.2517 54.7098L33.2483 54.7181Z" fill="#B3D337"/>
</g>
<defs>
<clipPath id="clip0_2161_565">
<rect width="100" height="100" fill="white"/>
</clipPath>
</defs>
</svg>
