<svg width="100" height="100" viewBox="0 0 100 100" fill="none" xmlns="http://www.w3.org/2000/svg">
<g clip-path="url(#clip0_2161_637)">
<path d="M13.3341 19.6834V25.1834C10.6175 26.7092 9.35524 29.94 10.3175 32.9033L25.1509 78.525C25.0564 79.0111 25.0062 79.5049 25.0009 80C25.0093 82.9262 26.5566 85.632 29.0742 87.1232C28.5806 88.5871 28.3308 90.1219 28.3341 91.6666V95C28.3341 97.7613 30.5728 100 33.3341 100H83.3341C86.0955 100 88.3341 97.7615 88.3341 95V92.2518C89.4681 90.6141 90.0519 88.658 90.0007 86.6668C90.0007 86.2135 89.9812 85.7768 89.9424 85.3568C89.1197 78.5594 82.9972 73.6781 76.1873 74.3902L64.7472 75.402C64.2345 74.1522 63.0181 73.3352 61.6672 73.3336H55.0005C53.2373 73.3404 51.7843 74.7197 51.6855 76.4803C49.3322 76.5836 44.8406 76.8369 41.1955 77.352C40.9617 76.6258 40.6285 75.9353 40.2054 75.3002C40.5818 66.1723 39.3728 57.0482 36.6322 48.3336C33.9365 40.4334 30.1367 32.9543 25.3455 26.1186C24.8107 25.3734 24.1254 24.7488 23.3338 24.2852V18.7C24.39 17.7596 24.9961 16.4141 25.0004 15V5C25.0004 2.23867 22.7617 0 20.0004 0H17.0004C14.6195 0.00585938 12.5709 1.68594 12.099 4.01992L10.099 14.0199C9.59547 16.4533 10.9822 18.8811 13.3341 19.6834ZM33.3341 75C36.0955 75 38.3341 77.2387 38.3341 80C38.3341 82.7613 36.0955 85 33.3341 85C30.5726 85 28.3341 82.7613 28.3341 80C28.3341 77.2387 30.5726 75 33.3341 75ZM33.3341 88.3334C37.6658 88.3207 41.2623 84.9852 41.6007 80.6668C45.0025 80.1818 49.3158 79.9318 51.6673 79.8234V81.6668C51.6718 83.0809 52.2779 84.4264 53.334 85.3668V90H31.789C31.8863 89.3955 32.0351 88.8006 32.2339 88.2217C32.5976 88.2842 32.9652 88.3215 33.3341 88.3334ZM60.0007 90H56.6673V86.6666H60.0007V90ZM85.0007 95C85.0007 95.9205 84.2545 96.6666 83.3341 96.6666H33.3341C32.4136 96.6666 31.6675 95.9205 31.6675 95V93.3334H85.0009L85.0007 95ZM76.4808 77.71C81.4679 77.1453 85.9847 80.6885 86.6242 85.6666C86.6543 85.9832 86.6675 86.3148 86.6675 86.6666C86.6951 87.8324 86.4072 88.9842 85.8341 90H63.3341V85.3666C64.3904 84.4262 64.9964 83.0807 65.0007 81.6666V78.725L76.4808 77.71ZM55.0007 76.6666H61.6673V81.6666C61.6673 82.5871 60.9211 83.3332 60.0007 83.3332H56.6673C55.7468 83.3332 55.0007 82.5871 55.0007 81.6666V76.6666ZM33.4707 49.3934C35.839 56.8686 37.0052 64.6725 36.9257 72.5133C33.6707 70.9051 29.7451 71.6338 27.2841 74.3033L13.4908 31.875C12.941 30.1691 13.8783 28.3408 15.5839 27.791C15.6275 27.777 15.6714 27.7639 15.7158 27.7516L19.0492 26.7883C20.3851 26.4127 21.813 26.9154 22.6191 28.0449C27.2254 34.6135 30.8789 41.801 33.4707 49.3934ZM20.0007 23.3467C19.3726 23.3359 18.7464 23.415 18.1408 23.5816L16.6675 24V20H20.0009L20.0007 23.3467ZM15.3673 4.675C15.5222 3.89551 16.206 3.33398 17.0007 3.3334H20.0007C20.9213 3.3334 21.6673 4.07969 21.6673 5V15C21.6673 15.9205 20.9211 16.6666 20.0007 16.6666H15.0007C14.0802 16.6668 13.3339 15.9207 13.3338 15.0002C13.3338 14.8881 13.3451 14.7764 13.3673 14.6666L15.3673 4.675Z" fill="#B3D337"/>
</g>
<defs>
<clipPath id="clip0_2161_637">
<rect width="100" height="100" fill="white"/>
</clipPath>
</defs>
</svg>
