<svg width="100" height="100" viewBox="0 0 100 100" fill="none" xmlns="http://www.w3.org/2000/svg">
<g clip-path="url(#clip0_2161_283)">
<path d="M86.5219 66.7432C90.1103 64.1268 92.4992 60.18 93.1531 55.7873C93.8069 51.3946 92.6712 46.9234 90.0002 43.3752V5.30088C90.075 2.45972 87.841 0.0916 85.0003 0.000976562H5.00168C2.1611 0.0916 -0.0730394 2.45972 0.00176399 5.30088V66.3664C-0.0730394 69.2076 2.16091 71.5757 5.00168 71.6663H30.3913L27.3913 76.6662H23.3348C20.5735 76.6662 18.3348 78.9049 18.3348 81.6661C18.3485 84.4218 20.5791 86.6524 23.3348 86.6661H53.3342V93.3325C53.3342 97.0143 56.3189 99.999 60.0007 99.999H93.3335C97.0153 99.999 100 97.0143 100 93.3325V81.6661C99.9904 73.9749 94.1726 67.5332 86.5219 66.7432ZM76.6672 66.6664C69.3035 66.6664 63.334 60.697 63.334 53.3332C63.334 45.9695 69.3035 40.0001 76.6672 40.0001C84.0309 40.0001 90.0004 45.9695 90.0004 53.3332C89.992 60.6935 84.0274 66.6582 76.6672 66.6664ZM5.00168 3.33412H85.0003C85.9932 3.43685 86.7286 4.30442 86.6668 5.30069V40.0317C80.6236 35.4707 72.2632 35.564 66.3231 40.2587C60.3829 44.9535 58.3607 53.0661 61.4022 59.9997H50.0007V58.3332C49.9874 51.0022 44.6811 44.7531 37.4492 43.5518C42.5557 39.6446 44.6039 32.9174 42.5413 26.8275C40.4786 20.7375 34.764 16.6394 28.3343 16.6394C21.9045 16.6394 16.1898 20.7373 14.1273 26.8275C12.0648 32.9176 14.113 39.6446 19.2194 43.5518C11.9875 44.7531 6.68114 51.0022 6.66786 58.3332V59.9997H3.3351V5.30088C3.27358 4.30442 4.00872 3.43685 5.00168 3.33412ZM26.3031 50.0001L25.4697 46.6668H31.1997L30.3663 50.0001H26.3031ZM33.3762 51.7083L34.6361 46.6668H35.0011C36.5181 46.6668 38.0204 46.9646 39.4228 47.5435C38.4425 51.6436 36.9189 55.5947 34.8928 59.2915L33.3762 51.7083ZM28.3347 43.3334C21.8914 43.3334 16.6683 38.1101 16.6683 31.667C16.6683 25.224 21.8916 20.0006 28.3347 20.0006C34.7777 20.0006 40.0011 25.224 40.0011 31.667C39.9938 38.1071 34.7748 43.3262 28.3347 43.3334ZM22.033 46.6668L23.293 51.7083L21.7764 59.2915C19.7502 55.5945 18.2268 51.6436 17.2464 47.5435C18.6487 46.9648 20.151 46.667 21.668 46.6668H22.033ZM14.2632 49.3333C15.2126 53.0334 16.5839 56.6125 18.3499 59.9997H10.0016V58.3332C10.0039 54.8467 11.5676 51.5444 14.2632 49.3333ZM26.3681 53.3332H30.3014L31.6348 59.9997H25.0347L26.3681 53.3332ZM42.4061 49.3333C45.1018 51.5444 46.6654 54.8467 46.6677 58.3332V59.9997H38.3196C40.0854 56.6125 41.4567 53.0336 42.4061 49.3333ZM3.3351 66.3664V63.3331H63.3657C64.3432 64.6309 65.5041 65.7795 66.8123 66.743C64.9576 66.935 63.1557 67.4744 61.5007 68.333H5.00168C4.00872 68.2304 3.27358 67.3629 3.3351 66.3664ZM34.2779 71.6663H57.1859C55.8762 73.1222 54.8649 74.821 54.2092 76.6662H31.278L34.2779 71.6663ZM23.3348 83.3327C22.8857 83.3341 22.4561 83.1495 22.1481 82.8228C21.8371 82.5189 21.6637 82.1009 21.668 81.6661C21.668 80.7457 22.4143 79.9996 23.3346 79.9996H53.4323C53.3684 80.5529 53.3356 81.1093 53.334 81.6661V83.3327H23.3348ZM96.6669 93.3325C96.6669 95.1735 95.1745 96.6659 93.3335 96.6659H60.0007C58.1597 96.6659 56.6674 95.1735 56.6674 93.3325V81.6661C56.6748 75.226 61.8936 70.007 68.3338 69.9997H85.0001C91.4402 70.0072 96.6592 75.226 96.6665 81.6661V93.3325H96.6669Z" fill="#B3D337"/>
<path d="M51.6676 33.3336H53.3342V36.6002C53.3366 37.8745 54.049 39.0411 55.1818 39.6251C56.3144 40.2091 57.6783 40.1126 58.7175 39.3751L67.2008 33.3336H78.334C81.0952 33.3336 83.3339 31.095 83.3339 28.3337V11.6674C83.3339 8.90611 81.0952 6.66748 78.334 6.66748H51.6676C48.9062 6.66748 46.6677 8.90611 46.6677 11.6674V28.3337C46.6677 31.0952 48.9062 33.3336 51.6676 33.3336ZM50.0009 11.6674C50.0009 10.7469 50.7469 10.0008 51.6674 10.0008H78.3336C79.2541 10.0008 80.0001 10.7471 80.0001 11.6674V28.3337C80.0001 29.2542 79.2539 30.0003 78.3336 30.0003H66.6672C66.3205 30.0007 65.9826 30.1089 65.7006 30.3102L56.6674 36.6002V31.6668C56.6674 30.7464 55.9211 30.0003 55.0008 30.0003H51.6674C50.7469 30.0003 50.0009 29.254 50.0009 28.3337V11.6674Z" fill="#B3D337"/>
<path d="M55.0008 16.6671H63.3341C64.2545 16.6671 65.0006 15.921 65.0006 15.0006C65.0006 14.0801 64.2545 13.334 63.3341 13.334H55.0008C54.0803 13.334 53.3342 14.0803 53.3342 15.0006C53.3342 15.921 54.0805 16.6671 55.0008 16.6671Z" fill="#B3D337"/>
<path d="M55.0008 23.3336H75.0005C75.9209 23.3336 76.667 22.5874 76.667 21.6671C76.667 20.7466 75.9209 20.0005 75.0005 20.0005H55.0008C54.0803 20.0005 53.3342 20.7468 53.3342 21.6671C53.3342 22.5876 54.0805 23.3336 55.0008 23.3336Z" fill="#B3D337"/>
</g>
<defs>
<clipPath id="clip0_2161_283">
<rect width="100" height="100" fill="white"/>
</clipPath>
</defs>
</svg>
