<svg width="100" height="100" viewBox="0 0 100 100" fill="none" xmlns="http://www.w3.org/2000/svg">
<g clip-path="url(#clip0_2179_909)">
<path d="M95 68.3334V63.3334H96.6667C98.5076 63.3334 100 61.841 100 60.0001V58.3334C100 54.6515 97.0152 51.6667 93.3333 51.6667H82.5167C80.3674 47.5711 76.1253 45.004 71.5 45.0001H53.1667C49.6338 44.8233 46.19 46.1442 43.6817 48.6384C43.4117 48.4351 43.1433 48.2284 42.8933 48.0101C37.8872 43.8101 31.5337 41.5577 25 41.6667H18.3333V11.6667C18.3333 10.7463 19.0795 10.0001 20 10.0001H28.9C29.3475 9.99906 29.7762 10.1795 30.0883 10.5001L32.4567 12.8684C30.8699 14.9076 30.0057 17.4163 30 20.0001C30 21.841 31.4924 23.3334 33.3333 23.3334H50C51.7038 23.3139 53.1294 22.0351 53.3333 20.3434C53.4226 14.3883 49.0816 9.29062 43.1883 8.43007C42.8167 8.3834 42.445 8.36007 42.0733 8.3484L37.1667 3.42173C34.9793 1.22198 32.0022 -0.0102932 28.9 6.47741e-05H20C13.5597 0.00741251 8.34068 5.22646 8.33333 11.6667V41.6667H6.66667C2.98477 41.6667 0 44.6515 0 48.3334V50.0001C0 51.841 1.49238 53.3334 3.33333 53.3334H5V68.3334C5.00743 75.7171 8.7768 82.588 15 86.5617V90.0001H13.3333C10.5719 90.0001 8.33333 92.2386 8.33333 95.0001V96.6667H1.66667C0.746192 96.6667 0 97.4129 0 98.3334C0 99.2539 0.746192 100 1.66667 100H98.3333C99.2538 100 100 99.2539 100 98.3334C100 97.4129 99.2538 96.6667 98.3333 96.6667H91.6667V95.0001C91.6667 92.2386 89.4281 90.0001 86.6667 90.0001H85V86.5617C91.2232 82.588 94.9926 75.7171 95 68.3334ZM96.6667 58.3334V60.0001H84V57.5001C83.9998 56.6603 83.9143 55.8226 83.745 55.0001H93.3333C95.1743 55.0001 96.6667 56.4925 96.6667 58.3334ZM79.9617 53.9717C80.4274 55.0897 80.6671 56.2889 80.6667 57.5001V76.6667C80.6667 77.5872 79.9205 78.3334 79 78.3334H66.6667C65.7462 78.3334 65 77.5872 65 76.6667V57.5001C65.0021 54.0183 63.5474 50.6943 60.9883 48.3334H71.5C75.2 48.3329 78.5375 50.5568 79.9617 53.9717ZM58.3333 57.5001C58.339 56.7314 58.1876 55.9698 57.8883 55.2617C56.9922 53.0897 54.8763 51.671 52.5267 51.6667C50.5201 51.6426 48.5394 51.2105 46.705 50.3967C49.4477 48.1589 53.2338 47.7003 56.4315 49.2185C59.6292 50.7366 61.667 53.9603 61.6667 57.5001V76.6667C61.6722 77.2358 61.7759 77.7996 61.9733 78.3334H60C59.0795 78.3334 58.3333 77.5872 58.3333 76.6667V57.5001ZM50 20.0001H33.3333C33.3333 15.3977 37.0643 11.6667 41.6667 11.6667C46.269 11.6667 50 15.3977 50 20.0001ZM11.6667 11.6667C11.6722 7.06664 15.3999 3.33891 20 3.3334H28.9C31.1151 3.32678 33.2408 4.20659 34.8033 5.77673L37.97 8.95173C36.8557 9.32193 35.8038 9.85856 34.85 10.5434L32.445 8.1384C31.5075 7.19371 30.2309 6.66372 28.9 6.66673H20C17.2386 6.66673 15 8.90531 15 11.6667V41.6667H11.6667V11.6667ZM3.33333 48.3334C3.33333 46.4924 4.82572 45.0001 6.66667 45.0001H25C30.7283 44.8912 36.3038 46.8517 40.7033 50.5217C43.8109 53.21 47.7293 54.7801 51.8333 54.9817C52.6526 54.9089 53.471 55.1305 54.1417 55.6067C54.6876 56.0844 55.0005 56.7747 55 57.5001V60.0001H53.3333C47.6038 60.1035 42.0282 58.1425 37.625 54.4751C34.3019 51.5909 30.0501 50.002 25.65 50.0001H3.33333V48.3334ZM8.33333 68.3334V53.3334H25.65C29.2461 53.3351 32.7212 54.6327 35.4383 56.9884C40.4461 61.1869 46.7993 63.4395 53.3333 63.3334H55V76.6667C55 79.4282 57.2386 81.6667 60 81.6667H79C81.7614 81.6667 84 79.4282 84 76.6667V63.3334H91.6667V68.3334C91.6547 78.4537 83.4536 86.6548 73.3333 86.6667H26.6667C16.5464 86.6548 8.34527 78.4537 8.33333 68.3334ZM30.3033 90.0001H69.6967C71.7533 91.6318 73.0343 94.0488 73.23 96.6667H26.7683C26.9655 94.0488 28.2469 91.6321 30.3033 90.0001ZM11.6667 96.6667V95.0001C11.6667 94.0796 12.4129 93.3334 13.3333 93.3334H16.6667C17.5871 93.3334 18.3333 92.5872 18.3333 91.6667V88.3334C20.701 89.3153 23.2252 89.8662 25.7867 89.9601C24.4074 91.9416 23.5886 94.2586 23.4167 96.6667H11.6667ZM83.3333 93.3334H86.6667C87.5871 93.3334 88.3333 94.0796 88.3333 95.0001V96.6667H76.5917C76.4158 94.2566 75.5942 91.9382 74.2133 89.9551C76.7745 89.8628 79.2986 89.3136 81.6667 88.3334V91.6667C81.6667 92.5872 82.4129 93.3334 83.3333 93.3334Z" fill="#B3D337"/>
<path d="M28.3333 81.667C28.3333 80.7465 27.5871 80.0003 26.6666 80.0003C20.2264 79.993 15.0073 74.7739 15 68.3337C15 67.4132 14.2538 66.667 13.3333 66.667C12.4128 66.667 11.6666 67.4132 11.6666 68.3337C11.6758 76.6141 18.3862 83.3245 26.6666 83.3337C27.5871 83.3337 28.3333 82.5875 28.3333 81.667Z" fill="#B3D337"/>
<path d="M40 28.3337V36.667C40 37.5875 40.7462 38.3337 41.6667 38.3337C42.5871 38.3337 43.3333 37.5875 43.3333 36.667V28.3337C43.3333 27.4132 42.5871 26.667 41.6667 26.667C40.7462 26.667 40 27.4132 40 28.3337Z" fill="#B3D337"/>
<path d="M33.4517 27.7133L30.1184 36.0467C29.776 36.9018 30.1916 37.8726 31.0467 38.215C31.9018 38.5574 32.8726 38.1418 33.215 37.2867L36.5484 28.9533C36.8908 28.0982 36.4752 27.1274 35.62 26.785C34.7649 26.4426 33.7941 26.8582 33.4517 27.7133Z" fill="#B3D337"/>
<path d="M49.8817 27.7133C49.5393 26.8582 48.5685 26.4426 47.7133 26.785C46.8582 27.1274 46.4426 28.0982 46.785 28.9533L50.1183 37.2867C50.3398 37.8398 50.8396 38.2328 51.4294 38.3176C52.0192 38.4023 52.6095 38.166 52.9778 37.6976C53.3461 37.2292 53.4365 36.5998 53.215 36.0467L49.8817 27.7133Z" fill="#B3D337"/>
</g>
<defs>
<clipPath id="clip0_2179_909">
<rect width="100" height="100" fill="white"/>
</clipPath>
</defs>
</svg>
