<svg width="100" height="100" viewBox="0 0 100 100" fill="none" xmlns="http://www.w3.org/2000/svg">
<g clip-path="url(#clip0_2161_649)">
<path d="M69.9734 26.5868C69.4753 40.9657 62.3771 54.3122 50.7333 62.7633C39.0895 71.2144 24.2002 73.8265 10.375 69.8435C9.05427 69.4564 7.63086 69.9117 6.78002 70.9935C5.94446 72.0428 5.83287 73.4955 6.49835 74.6601C15.3618 90.3448 31.9942 100.031 50.01 100C50.5734 100 51.14 99.9902 51.705 99.9718C74.6804 99.1881 94.1608 82.839 98.9181 60.3479C103.675 37.8568 92.4836 15.02 71.7934 5.00015C70.5879 4.41221 69.1459 4.61822 68.1534 5.52015C67.1344 6.43612 66.7736 7.87908 67.2417 9.16681C69.2569 14.7456 70.1841 20.659 69.9734 26.5868ZM96.5917 52.6935C95.0771 76.713 75.6403 95.6948 51.5917 96.6402C34.2372 97.2738 17.9793 88.1714 9.44835 73.0452C24.2618 77.3135 40.2158 74.5148 52.6919 65.4591C65.1679 56.4035 72.7728 42.1021 73.305 26.6952C73.5292 20.3302 72.5201 13.9819 70.3334 8.00015C87.327 16.2082 97.6941 33.8536 96.5917 52.6935Z" fill="#B3D337"/>
<path d="M89.1833 41.9999C90.7868 50.0734 89.9579 58.4412 86.8016 66.0432C86.4546 66.896 86.8646 67.8687 87.7174 68.2157C88.5703 68.5627 89.5429 68.1527 89.8899 67.2999C93.2944 59.0884 94.1853 50.0514 92.4499 41.3332C92.3309 40.7497 91.9095 40.274 91.3446 40.0854C90.7797 39.8967 90.1571 40.0238 89.7113 40.4187C89.2654 40.8136 89.0642 41.4163 89.1833 41.9999Z" fill="#B3D337"/>
<path d="M86.6751 34C87.0569 34.8239 88.028 35.1905 88.859 34.8245C89.69 34.4584 90.0751 33.4946 89.7251 32.6567C88.8976 30.7648 87.9357 28.9345 86.8468 27.18C86.5318 26.6739 85.9707 26.3743 85.3749 26.394C84.7791 26.4137 84.239 26.7498 83.9582 27.2757C83.6774 27.8015 83.6984 28.4372 84.0134 28.9434C85.02 30.5633 85.9095 32.2532 86.6751 34Z" fill="#B3D337"/>
<path d="M31.6666 50.0002C41.7918 50.0002 49.9999 41.7921 49.9999 31.6668C49.9999 21.5416 41.7918 13.3335 31.6666 13.3335C21.5414 13.3335 13.3333 21.5416 13.3333 31.6668C13.3452 41.7871 21.5463 49.9882 31.6666 50.0002ZM31.6666 16.6668C39.9509 16.6668 46.6666 23.3826 46.6666 31.6668C46.6666 39.9511 39.9509 46.6668 31.6666 46.6668C23.3823 46.6668 16.6666 39.9511 16.6666 31.6668C16.6767 23.3867 23.3865 16.6769 31.6666 16.6668Z" fill="#B3D337"/>
<path d="M21.6667 33.3333C22.5871 33.3333 23.3333 32.5871 23.3333 31.6667C23.3388 27.0666 27.0666 23.3388 31.6667 23.3333C32.5871 23.3333 33.3333 22.5871 33.3333 21.6667C33.3333 20.7462 32.5871 20 31.6667 20C25.2264 20.0073 20.0073 25.2264 20 31.6667C20 32.5871 20.7462 33.3333 21.6667 33.3333Z" fill="#B3D337"/>
<path d="M31.6667 10C32.5871 10 33.3333 9.25381 33.3333 8.33333V1.66667C33.3333 0.746192 32.5871 0 31.6667 0C30.7462 0 30 0.746192 30 1.66667V8.33333C30 9.25381 30.7462 10 31.6667 10Z" fill="#B3D337"/>
<path d="M33.3333 61.6668V55.0002C33.3333 54.0797 32.5871 53.3335 31.6667 53.3335C30.7462 53.3335 30 54.0797 30 55.0002V61.6668C30 62.5873 30.7462 63.3335 31.6667 63.3335C32.5871 63.3335 33.3333 62.5873 33.3333 61.6668Z" fill="#B3D337"/>
<path d="M53.3333 31.6667C53.3333 32.5871 54.0794 33.3333 54.9999 33.3333H61.6666C62.5871 33.3333 63.3333 32.5871 63.3333 31.6667C63.3333 30.7462 62.5871 30 61.6666 30H54.9999C54.0794 30 53.3333 30.7462 53.3333 31.6667Z" fill="#B3D337"/>
<path d="M1.66667 33.3333H8.33333C9.25381 33.3333 10 32.5871 10 31.6667C10 30.7462 9.25381 30 8.33333 30H1.66667C0.746192 30 0 30.7462 0 31.6667C0 32.5871 0.746192 33.3333 1.66667 33.3333Z" fill="#B3D337"/>
<path d="M13.99 16.3466C14.6439 16.9783 15.6835 16.9692 16.3263 16.3263C16.9692 15.6835 16.9783 14.6439 16.3466 13.99L11.6316 9.27498C10.9777 8.64336 9.93817 8.65239 9.29528 9.29528C8.65239 9.93817 8.64336 10.9777 9.27498 11.6316L13.99 16.3466Z" fill="#B3D337"/>
<path d="M52.88 54.5469C53.554 54.5468 54.1615 54.1407 54.4194 53.518C54.6774 52.8953 54.5348 52.1786 54.0583 51.7019L49.3433 46.9869C48.6894 46.3553 47.6498 46.3643 47.007 47.0072C46.3641 47.6501 46.355 48.6896 46.9867 49.3436L51.7017 54.0586C52.0141 54.3711 52.438 54.5468 52.88 54.5469Z" fill="#B3D337"/>
<path d="M48.1666 16.8335C48.6086 16.8334 49.0325 16.6578 49.3449 16.3452L54.0599 11.6302C54.4932 11.2117 54.667 10.592 54.5144 10.0093C54.3619 9.42661 53.9068 8.97153 53.3241 8.81901C52.7414 8.66648 52.1217 8.84024 51.7033 9.2735L46.9866 13.9902C46.5111 14.4672 46.3694 15.1836 46.6276 15.8057C46.8858 16.4278 47.493 16.8334 48.1666 16.8335Z" fill="#B3D337"/>
<path d="M11.6316 54.0586L16.3466 49.3436C16.9783 48.6896 16.9692 47.6501 16.3263 47.0072C15.6834 46.3643 14.6439 46.3553 13.99 46.9869L9.27497 51.7019C8.84171 52.1204 8.66795 52.74 8.82047 53.3227C8.973 53.9055 9.42807 54.3605 10.0108 54.5131C10.5935 54.6656 11.2132 54.4918 11.6316 54.0586Z" fill="#B3D337"/>
</g>
<defs>
<clipPath id="clip0_2161_649">
<rect width="100" height="100" fill="white"/>
</clipPath>
</defs>
</svg>
