<svg width="100" height="100" viewBox="0 0 100 100" fill="none" xmlns="http://www.w3.org/2000/svg">
<g clip-path="url(#clip0_2179_917)">
<path d="M86.6667 18.3335C81.4976 18.1719 76.3628 19.2275 71.6767 21.4152C67.5432 19.325 62.9648 18.2676 58.3333 18.3335C53.6679 18.2642 49.0564 19.3383 44.9017 21.4618C39.6351 19.3508 34.0071 18.2881 28.3333 18.3335H13.3333C5.97296 18.3418 0.00826647 24.3065 0 31.6668V68.3335C0.00826647 75.6939 5.97296 81.6586 13.3333 81.6668H28.3333C34.0071 81.7122 39.6351 80.6495 44.9017 78.5385C49.0564 80.6621 53.6679 81.7361 58.3333 81.6668C62.9648 81.7327 67.5432 80.6753 71.6767 78.5852C76.3628 80.7728 81.4976 81.8284 86.6667 81.6668C94.027 81.6586 99.9917 75.6939 100 68.3335V31.6668C99.9917 24.3065 94.027 18.3418 86.6667 18.3335ZM70 45.0002C70 46.8411 68.5076 48.3335 66.6667 48.3335H50C48.159 48.3335 46.6667 46.8411 46.6667 45.0002V30.9702C50.2932 29.1834 54.2909 28.2799 58.3333 28.3335C62.3758 28.2798 66.3735 29.1833 70 30.9702V45.0002ZM46.6667 50.7302C47.674 51.3349 48.8251 51.6583 50 51.6668H66.6667C67.8416 51.6583 68.9927 51.3349 70 50.7302V69.0302C66.3735 70.8169 62.3757 71.7204 58.3333 71.6668C54.2909 71.7207 50.2931 70.8172 46.6667 69.0302V50.7302ZM70 24.3035V27.2835C62.5201 24.239 54.1465 24.239 46.6667 27.2835V24.3035C50.2932 22.5167 54.2909 21.6132 58.3333 21.6668C62.3758 21.6131 66.3735 22.5166 70 24.3035ZM28.3333 21.6668C33.462 21.6384 38.5503 22.5741 43.3333 24.4252V27.5185C39.0617 26.0195 34.5863 25.1815 30.0617 25.0335C29.6165 25.0027 29.1784 25.1572 28.8511 25.4605C28.5238 25.7638 28.3364 26.1889 28.3333 26.6352C28.3167 27.0773 28.4765 27.5079 28.7775 27.8321C29.0786 28.1562 29.4962 28.3474 29.9383 28.3635C34.5258 28.5062 39.0555 29.4288 43.3333 31.0918V45.0002C43.3333 46.8411 41.8409 48.3335 40 48.3335H30C28.1591 48.3335 26.6667 46.8411 26.6667 45.0002V31.6668C26.6645 27.8344 25.0085 24.1894 22.1233 21.6668H28.3333ZM3.33333 68.3335V31.6668C3.33333 26.144 7.81049 21.6668 13.3333 21.6668C18.8562 21.6668 23.3333 26.144 23.3333 31.6668V34.2352C20.4021 31.5916 16.1884 30.9237 12.5833 32.5312C8.97823 34.1387 6.65906 37.7196 6.66667 41.6668V62.5002C6.66667 65.7218 9.27834 68.3335 12.5 68.3335C15.7217 68.3335 18.3333 65.7218 18.3333 62.5002V41.6668C18.3333 40.7463 17.5871 40.0002 16.6667 40.0002C15.7462 40.0002 15 40.7463 15 41.6668V62.5002C15 63.8809 13.8807 65.0002 12.5 65.0002C11.1193 65.0002 10 63.8809 10 62.5002V41.6668C10 37.9849 12.9848 35.0002 16.6667 35.0002C20.3486 35.0002 23.3333 37.9849 23.3333 41.6668V68.3335C23.3333 73.8563 18.8562 78.3335 13.3333 78.3335C7.81049 78.3335 3.33333 73.8563 3.33333 68.3335ZM22.1233 78.3335C25.0085 75.8109 26.6645 72.1659 26.6667 68.3335V50.7402C27.6756 51.34 28.8262 51.6599 30 51.6668H40C41.1749 51.6583 42.326 51.3349 43.3333 50.7302V68.9085C39.0555 70.5715 34.5258 71.4941 29.9383 71.6368C29.0179 71.6538 28.2855 72.4139 28.3025 73.3343C28.3195 74.2548 29.0795 74.9872 30 74.9702H30.0617C34.5864 74.8211 39.0619 73.982 43.3333 72.4818V75.5752C38.5503 77.4262 33.462 78.3619 28.3333 78.3335H22.1233ZM46.6667 75.6968V72.7168C54.1465 75.7613 62.5201 75.7613 70 72.7168V75.6968C66.3735 77.4836 62.3757 78.3871 58.3333 78.3335C54.2909 78.3872 50.2931 77.4837 46.6667 75.6968ZM86.6667 78.3335C82.0785 78.4765 77.5182 77.5701 73.3333 75.6835V72.7168C77.0287 74.2561 80.997 75.0328 85 75.0002C86.1742 75.0006 87.3476 74.9372 88.515 74.8102C89.1072 74.7453 89.6197 74.3694 89.8596 73.8241C90.0995 73.2788 90.0302 72.647 89.6779 72.1666C89.3256 71.6862 88.7438 71.4303 88.1517 71.4952C87.1051 71.6103 86.0529 71.6676 85 71.6668C80.9576 71.7207 76.9597 70.8172 73.3333 69.0302V50.7302C74.3407 51.3349 75.4918 51.6583 76.6667 51.6668H93.3333C94.5071 51.6599 95.6578 51.34 96.6667 50.7402V68.3335C96.6612 73.8541 92.1872 78.328 86.6667 78.3335ZM96.6667 45.0002C96.6667 46.8411 95.1743 48.3335 93.3333 48.3335H76.6667C74.8257 48.3335 73.3333 46.8411 73.3333 45.0002V30.9702C76.9598 29.1834 80.9576 28.2799 85 28.3335C86.0528 28.3311 87.105 28.3867 88.1517 28.5002C89.0671 28.6005 89.8905 27.9397 89.9908 27.0243C90.0912 26.1089 89.4304 25.2855 88.515 25.1852C87.3476 25.0598 86.1742 24.998 85 25.0002C80.997 24.9676 77.0287 25.7442 73.3333 27.2835V24.3168C77.5183 22.4305 82.0785 21.5242 86.6667 21.6668C92.1872 21.6723 96.6612 26.1463 96.6667 31.6668V45.0002Z" fill="#B3D337"/>
</g>
<defs>
<clipPath id="clip0_2179_917">
<rect width="100" height="100" fill="white"/>
</clipPath>
</defs>
</svg>
