<svg width="100" height="100" viewBox="0 0 100 100" fill="none" xmlns="http://www.w3.org/2000/svg">
<g clip-path="url(#clip0_2179_840)">
<path d="M67.1667 23.3091C65.8466 23.165 64.5242 23.5605 63.5 24.4058C61.9322 25.6814 61.2865 27.7755 61.8639 29.7125C62.4412 31.6495 64.128 33.0484 66.1383 33.2574C66.6517 33.3093 67.1674 33.3349 67.6833 33.3341C74.4633 33.3341 83.4583 29.2941 86.4983 17.9058C88.8467 9.11245 90.8867 9.65411 93.715 10.4058C96.3844 11.1168 99.1248 9.52932 99.8359 6.85995C100.547 4.19057 98.9594 1.45018 96.29 0.739113C90.1567 -0.894221 85.0333 0.572446 81.4733 4.98411C79.2302 8.07761 77.6505 11.6013 76.8333 15.3341C74.655 23.5008 68.365 23.4058 67.1667 23.3091ZM84.0684 7.08411C86.8134 3.67911 90.5317 2.66078 95.43 3.96745C96.0142 4.11305 96.4745 4.56243 96.634 5.143C96.7936 5.72357 96.6276 6.34505 96.1998 6.76876C95.7721 7.19247 95.149 7.35252 94.57 7.18745C88.6 5.60078 85.645 8.17745 83.2767 17.0474C79.9867 29.3758 69.71 30.0008 67.6833 30.0008C67.2859 30.0015 66.8887 29.9815 66.4933 29.9408C65.8215 29.8719 65.2576 29.4043 65.0655 28.7568C64.8734 28.1093 65.0911 27.4099 65.6167 26.9858C65.9123 26.743 66.2842 26.6125 66.6667 26.6174C66.73 26.6174 66.795 26.6208 66.8617 26.6274C67.91 26.7141 77.1383 27.1441 80.0633 16.1874C80.7708 12.914 82.1332 9.81745 84.0684 7.08411Z" fill="#B3D337"/>
<path d="M81.1217 43.7688C77.2591 44.4705 73.5724 45.9253 70.2717 48.0505C67.7275 44.5359 64.9057 41.2308 61.8333 38.1671C58.7714 35.0933 55.4681 32.2698 51.955 29.7238C54.0786 26.423 55.5328 22.7371 56.235 18.8755C57.4983 11.9171 55.9883 6.23381 51.9883 2.87548C48.155 -0.34119 42.6983 -0.879523 36.6117 1.35881C34.714 2.05791 33.4243 3.83135 33.344 5.85214C33.2637 7.87293 34.4087 9.74307 36.245 10.5905C37.4459 11.151 38.8214 11.2062 40.0633 10.7438C42.5633 9.82215 44.6183 9.74381 45.555 10.5321C46.4067 11.2488 47.075 13.3471 46.3967 17.0955C45.9045 19.7677 44.8755 22.3124 43.3717 24.5755C36.7767 21.4788 31.6367 21.2421 28.8417 24.0255C17.04 35.8338 -1.16667 63.2088 0.0583278 86.5805C0.0668688 86.7302 0.0948826 86.8781 0.141661 87.0205C1.27553 89.9306 3.02032 92.5637 5.25833 94.7422C7.43679 96.9802 10.0699 98.725 12.98 99.8588C13.1224 99.9056 13.2703 99.9336 13.42 99.9422C14.1767 99.9822 14.9333 100 15.6983 100C38.545 100 64.5567 82.5788 75.9567 71.1838V71.1755C78.7367 68.3772 78.5067 63.2305 75.4033 56.6205C77.6704 55.127 80.2157 54.1066 82.8867 53.6205C86.6333 52.9422 88.735 53.6088 89.45 54.4538C90.2383 55.3922 90.1583 57.4438 89.2383 59.9538C88.2862 62.5445 89.6134 65.4166 92.2033 66.3705C92.7624 66.5737 93.3535 66.6742 93.9483 66.6672C96.0425 66.6617 97.913 65.3561 98.64 63.3922C100.88 57.3055 100.342 51.8455 97.1233 48.0171C93.7617 44.0138 88.0783 42.5005 81.1217 43.7688ZM49.6667 17.6905C50.4817 13.1905 49.7817 9.73881 47.69 7.98214C46.5386 7.0612 45.0931 6.58764 43.62 6.64881C42.0029 6.6909 40.4058 7.01697 38.9017 7.61214C38.339 7.83361 37.7006 7.73297 37.2333 7.34918C36.7661 6.96538 36.5434 6.35863 36.6513 5.76369C36.7593 5.16875 37.181 4.67896 37.7533 4.48381C42.6683 2.67381 46.9583 3.00881 49.8333 5.42381C52.88 7.98381 53.985 12.5505 52.9467 18.2805C51.7821 24.802 48.2301 30.6559 42.9833 34.7005C42.2204 35.2001 41.1996 35.0131 40.6633 34.2755C40.4086 33.9092 40.3114 33.456 40.3935 33.0175C40.4756 32.5789 40.7301 32.1916 41.1 31.9421C45.5873 28.3859 48.6314 23.3218 49.6667 17.6905ZM27.4067 33.2521V33.2771C28.995 46.8038 35.2 66.2205 55.3317 82.9438C53.8483 83.8649 52.3283 84.7638 50.7717 85.6405C29.0883 67.1905 24.9233 45.7005 24.4483 34.0721C25.2994 32.9877 26.1472 31.9505 26.9917 30.9605C27.0803 31.7325 27.2189 32.498 27.4067 33.2521ZM33.4883 45.6905C36.2935 49.7524 39.4681 53.5463 42.9717 57.0238C48.3903 62.6374 54.7231 67.2897 61.7 70.7822C64.0117 71.9076 66.4866 72.6608 69.0333 73.0138C65.613 75.9094 62.0215 78.5965 58.2783 81.0605C46.6794 72 38.0479 59.6847 33.4883 45.6905ZM13.155 51.4222C15.615 46.8239 18.3691 42.3892 21.4 38.1455C22.6467 50.6455 28.0433 70.1922 47.635 87.3422C43.3497 89.5984 38.9037 91.5353 34.3333 93.1372C22.7725 82.0173 15.3083 67.3172 13.1517 51.4222H13.155ZM30.7667 94.2722C28.9067 94.8155 27.0533 95.2722 25.2067 95.6422C16.6185 86.2614 10.7126 74.7426 8.10833 62.2938C8.87499 60.3427 9.70833 58.4088 10.6083 56.4922C13.493 70.7835 20.4997 83.9173 30.7633 94.2722H30.7667ZM13.8483 96.6255C11.5133 95.6333 9.39556 94.1928 7.61499 92.3855C5.80747 90.6051 4.36691 88.4873 3.37499 86.1522C3.23387 79.9961 4.15283 73.8616 6.09166 68.0172C9.09318 78.4227 14.2982 88.0608 21.3533 96.2772C18.8662 96.6074 16.3554 96.7239 13.8483 96.6255ZM73.6067 68.8188C71.98 70.4355 68.0567 70.0372 63.1067 67.7488C56.4851 64.4247 50.4754 60.0014 45.3333 54.6672C39.999 49.5267 35.5751 43.5187 32.25 36.8988C29.9617 31.9438 29.5633 28.0188 31.18 26.3988C32.7633 24.8205 36.5433 25.1755 41.2767 27.2705C40.6361 27.985 39.9352 28.643 39.1817 29.2371C36.9387 30.8198 36.3912 33.9148 37.955 36.1709C39.5189 38.427 42.6092 39.0004 44.8783 37.4555C46.8037 36.0207 48.529 34.3352 50.0083 32.4438C53.3732 34.8835 56.5372 37.5888 59.47 40.5338C62.415 43.4666 65.1203 46.6307 67.56 49.9955C65.6689 51.4745 63.9835 53.1992 62.5483 55.1238C60.9775 57.3956 61.5458 60.5105 63.8175 62.0813C66.0892 63.6521 69.2042 63.0839 70.775 60.8122C71.3609 60.0512 72.0153 59.3454 72.73 58.7038C74.8333 63.4422 75.19 67.2322 73.6067 68.8188ZM95.5117 62.2422C95.183 63.0962 94.2349 63.534 93.3717 63.2305C92.9568 63.0778 92.6196 62.7665 92.4342 62.3652C92.2489 61.9639 92.2306 61.5053 92.3833 61.0905C93.7617 57.3455 93.6317 54.2255 92.0183 52.3038C90.3687 50.6439 88.0683 49.8004 85.7367 50.0005C84.5868 50.0095 83.44 50.1211 82.31 50.3338C76.665 51.3515 71.5884 54.4021 68.04 58.9088C67.7021 59.3992 67.1282 59.672 66.5346 59.6245C65.941 59.5771 65.4178 59.2165 65.1621 58.6787C64.9064 58.1409 64.9571 57.5075 65.295 57.0172C69.3395 51.7696 75.1943 48.2174 81.7167 47.0538C87.445 46.0121 92.0117 47.1188 94.5717 50.1655C96.9867 53.0355 97.32 57.3338 95.5117 62.2422Z" fill="#B3D337"/>
<path d="M84.22 33.1774C83.4063 33.6082 83.0959 34.6171 83.5267 35.4308C83.9575 36.2445 84.9663 36.5549 85.78 36.1241C85.845 36.0891 92.3333 32.7424 97.1217 37.8124C97.5307 38.2453 98.1397 38.4271 98.7191 38.2893C99.2985 38.1515 99.7604 37.715 99.9308 37.1443C100.101 36.5736 99.9541 35.9553 99.545 35.5224C95.5163 31.4398 89.2852 30.4864 84.22 33.1774Z" fill="#B3D337"/>
<path d="M63.8734 14.2271C63.5959 14.7541 63.6206 15.3891 63.9382 15.8928C64.2559 16.3966 64.8181 16.6927 65.4132 16.6695C66.0083 16.6463 66.5459 16.3074 66.8234 15.7805C69.5144 10.7152 68.5609 4.48417 64.4783 0.45545C64.0455 0.0463805 63.4272 -0.100673 62.8565 0.0696838C62.2858 0.24004 61.8493 0.701925 61.7115 1.28135C61.5737 1.86078 61.7555 2.46971 62.1883 2.87878C67.2183 7.62878 64.0134 13.9588 63.8734 14.2271Z" fill="#B3D337"/>
<path d="M96.1784 20.489C95.5275 19.8383 94.4725 19.8383 93.8217 20.489L93.3333 20.9773L92.845 20.489C92.1911 19.8573 91.1515 19.8664 90.5086 20.5093C89.8658 21.1521 89.8567 22.1917 90.4883 22.8456L90.9767 23.334L90.4883 23.8223C90.0551 24.2407 89.8813 24.8604 90.0339 25.4431C90.1864 26.0258 90.6415 26.4809 91.2242 26.6334C91.8069 26.786 92.4266 26.6122 92.845 26.179L93.3333 25.6906L93.8217 26.179C94.4756 26.8106 95.5152 26.8015 96.158 26.1587C96.8009 25.5158 96.81 24.4763 96.1784 23.8223L95.69 23.334L96.1784 22.8456C96.829 22.1948 96.829 21.1398 96.1784 20.489Z" fill="#B3D337"/>
<path d="M82.155 72.8454C82.8058 73.496 83.8608 73.496 84.5117 72.8454L85 72.357L85.4883 72.8454C86.1423 73.477 87.1818 73.4679 87.8247 72.8251C88.4676 72.1822 88.4766 71.1427 87.845 70.4887L87.3567 70.0004L87.845 69.512C88.4766 68.8581 88.4676 67.8185 87.8247 67.1757C87.1818 66.5328 86.1423 66.5237 85.4883 67.1554L85 67.6437L84.5117 67.1554C83.8577 66.5237 82.8182 66.5328 82.1753 67.1757C81.5324 67.8185 81.5234 68.8581 82.155 69.512L82.6433 70.0004L82.155 70.4887C81.5044 71.1395 81.5044 72.1945 82.155 72.8454Z" fill="#B3D337"/>
<path d="M27.155 17.8453C27.8058 18.496 28.8608 18.496 29.5117 17.8453L30 17.357L30.4883 17.8453C31.1423 18.477 32.1818 18.4679 32.8247 17.825C33.4676 17.1821 33.4766 16.1426 32.845 15.4887L32.3567 15.0003L32.845 14.512C33.2783 14.0935 33.452 13.4739 33.2995 12.8912C33.147 12.3084 32.6919 11.8534 32.1092 11.7008C31.5265 11.5483 30.9068 11.7221 30.4883 12.1553L30 12.6437L29.5117 12.1553C29.0932 11.7221 28.4735 11.5483 27.8908 11.7008C27.3081 11.8534 26.853 12.3084 26.7005 12.8912C26.548 13.4739 26.7217 14.0935 27.155 14.512L27.6433 15.0003L27.155 15.4887C26.5044 16.1395 26.5044 17.1945 27.155 17.8453Z" fill="#B3D337"/>
<path d="M72.155 6.17836C72.8058 6.829 73.8608 6.829 74.5117 6.17836L75 5.69003L75.4883 6.17836C76.1423 6.80998 77.1818 6.80095 77.8247 6.15806C78.4676 5.51517 78.4766 4.47566 77.845 3.82169L77.3567 3.33336L77.845 2.84503C78.4766 2.19106 78.4676 1.15155 77.8247 0.508664C77.1818 -0.134226 76.1423 -0.143259 75.4883 0.488361L75 0.976695L74.5117 0.488361C73.8577 -0.143259 72.8182 -0.134226 72.1753 0.508664C71.5324 1.15155 71.5234 2.19106 72.155 2.84503L72.6433 3.33336L72.155 3.82169C71.5044 4.47253 71.5044 5.52753 72.155 6.17836Z" fill="#B3D337"/>
</g>
<defs>
<clipPath id="clip0_2179_840">
<rect width="100" height="100" fill="white"/>
</clipPath>
</defs>
</svg>
