<svg width="100" height="100" viewBox="0 0 100 100" fill="none" xmlns="http://www.w3.org/2000/svg">
<g clip-path="url(#clip0_2161_601)">
<path d="M43.69 0.179948C42.627 0.459432 41.6872 1.0849 41.0191 1.95766C40.3509 2.83043 39.9924 3.90082 40 4.99995V95C40 96.326 40.5268 97.5978 41.4645 98.5355C42.4021 99.4732 43.6739 100 45 100H92.515C93.389 99.9998 94.2477 99.7705 95.0055 99.3349C95.7632 98.8994 96.3936 98.2729 96.8337 97.5178C97.2738 96.7626 97.5083 95.9054 97.5138 95.0314C97.5193 94.1574 97.2956 93.2972 96.865 92.5366L49.3133 2.47662C48.7646 1.52322 47.9139 0.779837 46.8955 0.363921C45.8772 -0.0519941 44.7493 -0.116728 43.69 0.179948ZM93.9617 95.8333C93.8172 96.089 93.6068 96.3012 93.3523 96.4478C93.0978 96.5944 92.8087 96.67 92.515 96.6666H45C44.558 96.6666 44.134 96.491 43.8215 96.1785C43.5089 95.8659 43.3333 95.442 43.3333 95V90H48.3333C48.7754 90 49.1993 89.8244 49.5118 89.5118C49.8244 89.1992 50 88.7753 50 88.3333C50 87.8913 49.8244 87.4673 49.5118 87.1548C49.1993 86.8422 48.7754 86.6666 48.3333 86.6666H43.3333V83.3333H45C45.442 83.3333 45.8659 83.1577 46.1785 82.8451C46.4911 82.5326 46.6667 82.1087 46.6667 81.6666C46.6667 81.2246 46.4911 80.8007 46.1785 80.4881C45.8659 80.1755 45.442 80 45 80H43.3333V76.6666H48.3333C48.7754 76.6666 49.1993 76.491 49.5118 76.1785C49.8244 75.8659 50 75.442 50 75C50 74.5579 49.8244 74.134 49.5118 73.8214C49.1993 73.5089 48.7754 73.3333 48.3333 73.3333H43.3333V70H45C45.442 70 45.8659 69.8244 46.1785 69.5118C46.4911 69.1992 46.6667 68.7753 46.6667 68.3333C46.6667 67.8913 46.4911 67.4673 46.1785 67.1548C45.8659 66.8422 45.442 66.6666 45 66.6666H43.3333V63.3333H48.3333C48.7754 63.3333 49.1993 63.1577 49.5118 62.8451C49.8244 62.5326 50 62.1086 50 61.6666C50 61.2246 49.8244 60.8007 49.5118 60.4881C49.1993 60.1755 48.7754 60 48.3333 60H43.3333V56.6666H45C45.442 56.6666 45.8659 56.491 46.1785 56.1785C46.4911 55.8659 46.6667 55.442 46.6667 55C46.6667 54.5579 46.4911 54.134 46.1785 53.8214C45.8659 53.5089 45.442 53.3333 45 53.3333H43.3333V50H48.3333C48.7754 50 49.1993 49.8244 49.5118 49.5118C49.8244 49.1992 50 48.7753 50 48.3333C50 47.8913 49.8244 47.4673 49.5118 47.1548C49.1993 46.8422 48.7754 46.6666 48.3333 46.6666H43.3333V43.3333H45C45.442 43.3333 45.8659 43.1577 46.1785 42.8451C46.4911 42.5326 46.6667 42.1086 46.6667 41.6666C46.6667 41.2246 46.4911 40.8007 46.1785 40.4881C45.8659 40.1755 45.442 40 45 40H43.3333V36.6666H48.3333C48.7754 36.6666 49.1993 36.491 49.5118 36.1785C49.8244 35.8659 50 35.442 50 35C50 34.5579 49.8244 34.134 49.5118 33.8214C49.1993 33.5089 48.7754 33.3333 48.3333 33.3333H43.3333V30H45C45.442 30 45.8659 29.8244 46.1785 29.5118C46.4911 29.1992 46.6667 28.7753 46.6667 28.3333C46.6667 27.8913 46.4911 27.4673 46.1785 27.1548C45.8659 26.8422 45.442 26.6666 45 26.6666H43.3333V23.3333H48.3333C48.7754 23.3333 49.1993 23.1577 49.5118 22.8451C49.8244 22.5326 50 22.1086 50 21.6666C50 21.2246 49.8244 20.8007 49.5118 20.4881C49.1993 20.1755 48.7754 20 48.3333 20H43.3333V16.6666H45C45.442 16.6666 45.8659 16.491 46.1785 16.1785C46.4911 15.8659 46.6667 15.442 46.6667 15C46.6667 14.5579 46.4911 14.134 46.1785 13.8214C45.8659 13.5089 45.442 13.3333 45 13.3333H43.3333V4.99995C43.3225 4.63158 43.4388 4.27071 43.6629 3.97808C43.8869 3.68545 44.2049 3.47893 44.5633 3.39328C44.7263 3.3489 44.8944 3.32648 45.0633 3.32662C45.3345 3.31996 45.6023 3.38794 45.8374 3.52315C46.0726 3.65835 46.266 3.85558 46.3967 4.09328L93.9533 94.1666C94.1041 94.4182 94.1843 94.7056 94.1858 94.9988C94.1873 95.292 94.1099 95.5803 93.9617 95.8333Z" fill="#B3D337"/>
<path d="M56.6667 88.3332H74.8884C75.4577 88.3337 76.0177 88.1884 76.515 87.9112C77.0122 87.6339 77.4302 87.2339 77.729 86.7492C78.0278 86.2646 78.1975 85.7115 78.2219 85.1427C78.2463 84.5739 78.1246 84.0083 77.8684 83.4998L59.6467 47.2065C59.3101 46.5349 58.7566 45.9968 58.0758 45.6792C57.3951 45.3616 56.627 45.2833 55.8962 45.457C55.1653 45.6306 54.5146 46.046 54.0494 46.6358C53.5842 47.2257 53.3319 47.9553 53.3334 48.7065V84.9998C53.3334 85.8839 53.6846 86.7317 54.3097 87.3569C54.9348 87.982 55.7827 88.3332 56.6667 88.3332ZM56.6667 48.7015L74.8884 84.9998H56.6667V48.7015Z" fill="#B3D337"/>
<path d="M5 100H20C21.3261 100 22.5979 99.4732 23.5355 98.5355C24.4732 97.5978 25 96.3261 25 95V5C25 3.67392 24.4732 2.40215 23.5355 1.46447C22.5979 0.526784 21.3261 0 20 0L5 0C3.67392 0 2.40215 0.526784 1.46447 1.46447C0.526784 2.40215 0 3.67392 0 5L0 95C0 96.3261 0.526784 97.5978 1.46447 98.5355C2.40215 99.4732 3.67392 100 5 100ZM5 3.33333H20C20.442 3.33333 20.8659 3.50893 21.1785 3.82149C21.4911 4.13405 21.6667 4.55797 21.6667 5V95C21.6667 95.442 21.4911 95.866 21.1785 96.1785C20.8659 96.4911 20.442 96.6667 20 96.6667H5C4.55797 96.6667 4.13405 96.4911 3.82149 96.1785C3.50893 95.866 3.33333 95.442 3.33333 95V91.6667H6.66667C7.10869 91.6667 7.53262 91.4911 7.84518 91.1785C8.15774 90.866 8.33333 90.442 8.33333 90C8.33333 89.558 8.15774 89.134 7.84518 88.8215C7.53262 88.5089 7.10869 88.3333 6.66667 88.3333H3.33333V85H10C10.442 85 10.8659 84.8244 11.1785 84.5118C11.4911 84.1993 11.6667 83.7754 11.6667 83.3333C11.6667 82.8913 11.4911 82.4674 11.1785 82.1548C10.8659 81.8423 10.442 81.6667 10 81.6667H3.33333V78.3333H6.66667C7.10869 78.3333 7.53262 78.1577 7.84518 77.8452C8.15774 77.5326 8.33333 77.1087 8.33333 76.6667C8.33333 76.2246 8.15774 75.8007 7.84518 75.4882C7.53262 75.1756 7.10869 75 6.66667 75H3.33333V71.6667H10C10.442 71.6667 10.8659 71.4911 11.1785 71.1785C11.4911 70.866 11.6667 70.442 11.6667 70C11.6667 69.558 11.4911 69.134 11.1785 68.8215C10.8659 68.5089 10.442 68.3333 10 68.3333H3.33333V65H6.66667C7.10869 65 7.53262 64.8244 7.84518 64.5118C8.15774 64.1993 8.33333 63.7754 8.33333 63.3333C8.33333 62.8913 8.15774 62.4674 7.84518 62.1548C7.53262 61.8423 7.10869 61.6667 6.66667 61.6667H3.33333V58.3333H10C10.442 58.3333 10.8659 58.1577 11.1785 57.8452C11.4911 57.5326 11.6667 57.1087 11.6667 56.6667C11.6667 56.2246 11.4911 55.8007 11.1785 55.4882C10.8659 55.1756 10.442 55 10 55H3.33333V51.6667H6.66667C7.10869 51.6667 7.53262 51.4911 7.84518 51.1785C8.15774 50.866 8.33333 50.442 8.33333 50C8.33333 49.558 8.15774 49.134 7.84518 48.8215C7.53262 48.5089 7.10869 48.3333 6.66667 48.3333H3.33333V45H10C10.442 45 10.8659 44.8244 11.1785 44.5118C11.4911 44.1993 11.6667 43.7754 11.6667 43.3333C11.6667 42.8913 11.4911 42.4674 11.1785 42.1548C10.8659 41.8423 10.442 41.6667 10 41.6667H3.33333V38.3333H6.66667C7.10869 38.3333 7.53262 38.1577 7.84518 37.8452C8.15774 37.5326 8.33333 37.1087 8.33333 36.6667C8.33333 36.2246 8.15774 35.8007 7.84518 35.4882C7.53262 35.1756 7.10869 35 6.66667 35H3.33333V31.6667H10C10.442 31.6667 10.8659 31.4911 11.1785 31.1785C11.4911 30.866 11.6667 30.442 11.6667 30C11.6667 29.558 11.4911 29.134 11.1785 28.8215C10.8659 28.5089 10.442 28.3333 10 28.3333H3.33333V25H6.66667C7.10869 25 7.53262 24.8244 7.84518 24.5118C8.15774 24.1993 8.33333 23.7754 8.33333 23.3333C8.33333 22.8913 8.15774 22.4674 7.84518 22.1548C7.53262 21.8423 7.10869 21.6667 6.66667 21.6667H3.33333V18.3333H10C10.442 18.3333 10.8659 18.1577 11.1785 17.8452C11.4911 17.5326 11.6667 17.1087 11.6667 16.6667C11.6667 16.2246 11.4911 15.8007 11.1785 15.4882C10.8659 15.1756 10.442 15 10 15H3.33333V11.6667H6.66667C7.10869 11.6667 7.53262 11.4911 7.84518 11.1785C8.15774 10.8659 8.33333 10.442 8.33333 10C8.33333 9.55797 8.15774 9.13405 7.84518 8.82149C7.53262 8.50893 7.10869 8.33333 6.66667 8.33333H3.33333V5C3.33333 4.55797 3.50893 4.13405 3.82149 3.82149C4.13405 3.50893 4.55797 3.33333 5 3.33333Z" fill="#B3D337"/>
</g>
<defs>
<clipPath id="clip0_2161_601">
<rect width="100" height="100" fill="white"/>
</clipPath>
</defs>
</svg>
