<svg width="100" height="100" viewBox="0 0 100 100" fill="none" xmlns="http://www.w3.org/2000/svg">
<path d="M70.7638 74.9122C71.198 75.0574 71.672 75.0239 72.0815 74.8192C72.491 74.6144 72.8022 74.2553 72.9466 73.8209C73.742 71.4208 74.1443 68.9079 74.1379 66.3795C74.1437 63.8548 73.748 61.3453 72.9655 58.945C72.7791 58.3525 72.2884 57.9061 71.681 57.7764C71.0736 57.6466 70.4434 57.8536 70.0312 58.3182C69.619 58.7828 69.4885 59.4332 69.6897 60.0209C70.3582 62.0739 70.6957 64.2203 70.6897 66.3795C70.6955 68.5376 70.3526 70.6825 69.6742 72.7312C69.3729 73.6344 69.8607 74.6108 70.7638 74.9122Z" fill="#B3D337"/>
<path d="M29.2103 57.8453C28.3058 57.5483 27.3316 58.0407 27.0345 58.9453C26.2521 61.3456 25.8563 63.8551 25.8621 66.3798C25.8557 68.9082 26.258 71.4211 27.0535 73.8212C27.2481 74.4063 27.7402 74.8432 28.3443 74.9672C28.9484 75.0913 29.5727 74.8836 29.9822 74.4224C30.3916 73.9612 30.524 73.3167 30.3293 72.7315C29.6497 70.683 29.3056 68.5381 29.3103 66.3798C29.3043 64.2206 29.6419 62.0742 30.3103 60.0212C30.6074 59.1166 30.1149 58.1424 29.2103 57.8453Z" fill="#B3D337"/>
<path d="M97.4465 15.6107L51.3793 2.90038C50.4793 2.653 49.5293 2.653 48.6293 2.90038L2.55344 15.6107C1.43184 15.9201 0.654907 16.9403 0.654907 18.1038C0.654907 19.2673 1.43184 20.2876 2.55344 20.5969L24.1379 26.5521V38.7935C24.0694 41.3412 25.2827 43.7536 27.369 45.2176C26.3002 46.3264 25.3202 47.5174 24.4379 48.7797C16.8685 59.7741 17.1772 74.3771 25.2044 85.0419C33.2317 95.7066 47.1791 100.044 59.8387 95.8122C72.4983 91.5805 81.034 79.7279 81.0345 66.3797C81.0358 65.1568 80.9621 63.935 80.8138 62.7211C80.743 62.106 80.3478 61.5761 79.7785 61.3328C79.2092 61.0894 78.5531 61.1701 78.0596 61.544C77.5661 61.918 77.3111 62.5278 77.3914 63.1418C77.5224 64.2161 77.5875 65.2974 77.5862 66.3797C77.5895 78.2472 70.0026 88.7869 58.7475 92.55C47.4925 96.3132 35.092 92.4564 27.9568 82.9735C20.8215 73.4906 20.5508 60.507 27.2845 50.7349C28.2365 49.3619 29.321 48.0856 30.5224 46.9245C35.1603 48.7211 41.7414 49.0831 48.2758 49.1383V51.0004C43.3914 51.69 39.6552 55.2297 39.6552 59.4918C39.6552 63.7538 43.3914 67.2952 48.2758 67.9831V78.2728C45.3103 77.6952 43.1034 75.6866 43.1034 73.2849C43.1034 72.3327 42.3315 71.5607 41.3793 71.5607C40.4271 71.5607 39.6552 72.3327 39.6552 73.2849C39.6552 77.5469 43.3914 81.0883 48.2758 81.7762V83.6211C48.2758 84.5733 49.0478 85.3452 50 85.3452C50.9522 85.3452 51.7241 84.5733 51.7241 83.6211V81.7676C56.6086 81.078 60.3448 77.5383 60.3448 73.2762C60.3448 69.0142 56.6086 65.4728 51.7241 64.7849V54.4952C54.6896 55.0728 56.8965 57.0814 56.8965 59.4831C56.8965 60.4354 57.6685 61.2073 58.6207 61.2073C59.5729 61.2073 60.3448 60.4354 60.3448 59.4831C60.3448 55.2211 56.6086 51.6797 51.7241 50.9918V49.1383C63.7086 49.0521 75.8621 47.9107 75.8621 38.7935V28.028C78.9982 29.3883 81.0294 32.4785 81.0345 35.8969V40.8969C80.0336 41.2987 79.2118 42.0488 78.7207 43.009L74.6138 51.2228C73.9134 52.6225 73.9877 54.2851 74.8104 55.6167C75.633 56.9483 77.0865 57.7589 78.6517 57.759H86.8655C88.4297 57.7583 89.8821 56.9482 90.7046 55.6176C91.527 54.2871 91.6022 52.6257 90.9034 51.2262L86.7965 43.0124C86.3054 42.0523 85.4836 41.3021 84.4827 40.9004V35.9004C84.4763 31.7656 82.3465 27.924 78.8431 25.728L97.4483 20.5969C98.5699 20.2876 99.3468 19.2673 99.3468 18.1038C99.3468 16.9403 98.5681 15.9201 97.4465 15.6107ZM87.819 52.759C87.9888 53.0902 87.9735 53.4859 87.7787 53.803C87.5838 54.1201 87.2377 54.3126 86.8655 54.3107H78.6517C78.2795 54.3126 77.9334 54.1201 77.7385 53.803C77.5437 53.4859 77.5284 53.0902 77.6983 52.759L81.8052 44.5469C81.9855 44.1855 82.3547 43.9571 82.7586 43.9571C83.1625 43.9571 83.5317 44.1855 83.7121 44.5469L87.819 52.759ZM43.1034 59.4831C43.1034 57.0797 45.3103 55.0728 48.2758 54.4952V64.4711C45.3103 63.8935 43.1034 61.8866 43.1034 59.4831ZM56.8965 73.2762C56.8965 75.6797 54.6896 77.6866 51.7241 78.2642V68.2883C54.6896 68.8659 56.8965 70.8728 56.8965 73.2762ZM50 45.69C40.4448 45.69 34.3103 44.9624 30.9086 43.328L30.8327 43.2918C28.9208 42.6128 27.6283 40.8219 27.5862 38.7935V27.5021L48.6207 33.3055C49.5233 33.5553 50.4767 33.5553 51.3793 33.3055L72.4138 27.5021V38.7935C72.4138 43.6918 65.919 45.69 50 45.69ZM73.6414 23.5866L60.1793 19.1038C60.2864 18.7812 60.3423 18.4438 60.3448 18.1038C60.3448 14.5504 54.9827 12.9314 50 12.9314C45.0172 12.9314 39.6552 14.5504 39.6552 18.1038C39.6552 21.6573 45.0172 23.2762 50 23.2762C52.56 23.3343 55.1024 22.8391 57.4534 21.8245L67.6758 25.2314L50.4586 29.9814C50.1585 30.0642 49.8415 30.0642 49.5414 29.9814L6.48275 18.1038L49.5414 6.22624C49.8415 6.14342 50.1585 6.14342 50.4586 6.22624L93.5155 18.1038L73.6414 23.5866ZM50 19.828C45.9534 19.828 43.5914 18.6676 43.1465 18.1038C43.5914 17.54 45.9534 16.3797 50 16.3797C54.0465 16.3797 56.4086 17.54 56.8534 18.1038C56.4086 18.6676 54.0465 19.828 50 19.828Z" fill="#B3D337"/>
</svg>
