<svg width="100" height="100" viewBox="0 0 100 100" fill="none" xmlns="http://www.w3.org/2000/svg">
<g clip-path="url(#clip0_2161_386)">
<path d="M17.1603 53.9119C16.5822 53.7588 15.9667 53.9279 15.5477 54.3545L8.89257 61.0096C8.46596 61.4286 8.29692 62.0444 8.44998 62.6223C8.60303 63.2004 9.0544 63.6517 9.63251 63.8048C10.2106 63.9578 10.8262 63.7888 11.2452 63.3622L17.9003 56.7071C18.3269 56.2881 18.4959 55.6723 18.3429 55.0944C18.1898 54.5163 17.7385 54.0649 17.1603 53.9119Z" fill="#B3D337"/>
<path d="M28.8071 50.5838C28.229 50.4307 27.6134 50.5998 27.1944 51.0264L20.5393 57.6815C20.1127 58.1005 19.9436 58.7162 20.0967 59.2941C20.2498 59.8722 20.7011 60.3236 21.2792 60.4767C21.8573 60.6297 22.4729 60.4607 22.8919 60.0341L29.547 53.3789C29.9736 52.9599 30.1427 52.3442 29.9896 51.7663C29.8367 51.1884 29.3852 50.7368 28.8071 50.5838Z" fill="#B3D337"/>
<path d="M17.1603 62.2307C16.5822 62.0777 15.9667 62.2467 15.5477 62.6733L8.89257 69.3285C8.46596 69.7475 8.29692 70.3632 8.44998 70.9411C8.60303 71.5192 9.0544 71.9706 9.63251 72.1236C10.2106 72.2767 10.8262 72.1076 11.2452 71.681L17.9003 65.0259C18.3269 64.6069 18.4959 63.9912 18.3429 63.4133C18.1898 62.8354 17.7385 62.3838 17.1603 62.2307Z" fill="#B3D337"/>
<path d="M92.9598 47.9817C92.9161 47.8945 92.8645 47.8116 92.8054 47.734L74.3232 28.2007C72.2126 25.9708 70.1068 23.736 68.006 21.4969L65.1318 18.4412C64.6493 17.9261 64.1667 17.4111 63.6695 16.9091C62.5932 15.7571 61.1898 14.9628 59.6481 14.6335C57.689 14.3059 55.6802 14.7747 54.0685 15.9357C53.311 16.4481 53.109 17.4759 53.6163 18.2369C54.1237 18.9978 55.15 19.2067 55.9143 18.7044C56.8052 18.0438 57.9181 17.7557 59.0178 17.9009C59.8981 18.108 60.6946 18.5773 61.3021 19.247C61.7782 19.7288 62.2413 20.2235 62.7059 20.7175L65.5818 23.7763C67.6876 26.016 69.7955 28.2536 71.9055 30.4884L85.2078 44.5462C83.1545 44.1821 81.0748 43.9854 78.9896 43.9579C74.8093 43.7514 70.6266 44.3103 66.6472 45.6066L66.638 45.6047H33.362L33.3552 45.6061C29.3747 44.3108 25.1913 43.7522 21.0103 43.9579C18.925 43.9854 16.8456 44.1821 14.7921 44.5462L28.0943 30.4884C30.2065 28.2551 32.3146 26.0178 34.418 23.7763L37.2939 20.7175C37.7585 20.2237 38.2216 19.7288 38.6962 19.247C39.3045 18.5775 40.1016 18.1082 40.9823 17.9009C42.0817 17.7564 43.1945 18.0444 44.0857 18.7044C44.85 19.2067 45.8764 18.9977 46.3837 18.2369C46.891 17.4761 46.689 16.4481 45.9315 15.9357C44.3201 14.7743 42.311 14.3054 40.3519 14.6335C38.8098 14.9632 37.4058 15.7573 36.3288 16.9091C35.8331 17.4111 35.3506 17.9263 34.868 18.4412L31.9937 21.4967C29.8912 23.734 27.7855 25.9686 25.6764 28.2005L7.19464 47.7338C7.13556 47.8114 7.08389 47.8943 7.04022 47.9815C1.51927 52.4316 -0.499512 60.0657 0.10238 66.6961C0.924595 75.7145 6.58534 83.0659 14.1797 84.9874L14.4803 85.062C15.643 85.3342 16.8333 85.4707 18.0273 85.4691C23.3437 85.4691 29.024 82.8385 34.3615 77.8333C36.67 75.6595 38.7648 73.2693 40.6169 70.6956C42.6848 68.1297 44.1317 65.1205 44.8446 61.903C45.0758 60.442 45.0411 58.9512 44.7422 57.5025C47.7825 54.9491 52.2178 54.9491 55.2578 57.5025C54.9589 58.9514 54.9242 60.4426 55.1555 61.9037C55.8687 65.121 57.3156 68.1301 59.3832 70.6964C61.2358 73.2703 63.3312 75.6603 65.6403 77.8341C70.9714 82.8329 76.6419 85.4625 81.9809 85.4625C83.1886 85.4641 84.3926 85.3256 85.5685 85.0499L85.8106 84.9899C93.4147 83.0661 99.0754 75.7147 99.8976 66.6955C100.5 60.0657 98.4808 52.4318 92.9598 47.9817ZM41.5625 61.3514C40.9207 64.061 39.6742 66.5902 37.9165 68.7499C36.1903 71.1507 34.2377 73.3798 32.0851 75.4068C28.7785 78.5052 22.1834 83.4552 15.2082 81.8141L15.005 81.7646C7.80063 79.9416 3.99372 72.7316 3.41698 66.3948C2.7833 59.4316 5.44141 51.1964 12.8035 48.4952C15.4848 47.6508 18.2841 47.2417 21.0949 47.284C28.6097 47.1085 34.1242 48.6221 37.8759 51.9553C40.6235 54.256 42.0125 57.796 41.5625 61.3514ZM50.0001 52.2598C47.732 52.2393 45.5102 52.9015 43.6232 54.1601C42.7655 52.3774 41.5631 50.7823 40.0856 49.4668C39.8705 49.2757 39.6309 49.1131 39.4073 48.9322H60.5926C60.3691 49.1129 60.1295 49.2751 59.9147 49.4658C58.4371 50.7817 57.2349 52.377 56.377 54.1599C54.49 52.9013 52.2683 52.2393 50.0001 52.2598ZM96.5831 66.3938C96.0063 72.7314 92.1994 79.9414 84.9853 81.7669L84.7562 81.8221C77.8117 83.4607 71.2215 78.505 67.9167 75.4074C65.7636 73.3804 63.8101 71.1513 62.0836 68.7505C60.3262 66.5906 59.0798 64.0615 58.4375 61.352C57.9875 57.7962 59.3765 54.2554 62.1241 51.9541C65.6694 48.806 70.7664 47.2682 77.6799 47.2682C78.0829 47.2682 78.4912 47.2733 78.905 47.2836C81.7157 47.2415 84.515 47.6504 87.1963 48.4948C94.5586 51.1964 97.2167 59.4316 96.5831 66.3938Z" fill="#B3D337"/>
<path d="M75.3935 53.9119C74.8154 53.7588 74.1999 53.9279 73.7808 54.3545L67.1257 61.0096C66.6991 61.4286 66.5301 62.0444 66.6831 62.6223C66.8362 63.2004 67.2876 63.6517 67.8657 63.8048C68.4438 63.9578 69.0593 63.7888 69.4783 63.3622L76.1334 56.7071C76.56 56.2881 76.7291 55.6723 76.576 55.0944C76.423 54.5163 75.9714 54.0649 75.3935 53.9119Z" fill="#B3D337"/>
<path d="M87.04 50.5838C86.4619 50.4307 85.8463 50.5998 85.4273 51.0264L78.7722 57.6815C78.3456 58.1005 78.1766 58.7162 78.3296 59.2941C78.4827 59.8722 78.934 60.3236 79.5121 60.4767C80.0902 60.6297 80.7058 60.4607 81.1248 60.0341L87.7799 53.3789C88.2065 52.9599 88.3756 52.3442 88.2225 51.7663C88.0695 51.1884 87.6181 50.7368 87.04 50.5838Z" fill="#B3D337"/>
<path d="M75.3935 62.2307C74.8154 62.0777 74.1999 62.2467 73.7808 62.6733L67.1257 69.3285C66.6991 69.7475 66.5301 70.3632 66.6831 70.9411C66.8362 71.5192 67.2876 71.9706 67.8657 72.1236C68.4438 72.2767 69.0593 72.1076 69.4783 71.681L76.1334 65.0259C76.56 64.6069 76.7291 63.9912 76.576 63.4133C76.423 62.8354 75.9714 62.3838 75.3935 62.2307Z" fill="#B3D337"/>
</g>
<defs>
<clipPath id="clip0_2161_386">
<rect width="100" height="100" fill="white"/>
</clipPath>
</defs>
</svg>
