<svg width="100" height="100" viewBox="0 0 100 100" fill="none" xmlns="http://www.w3.org/2000/svg">
<g clip-path="url(#clip0_2179_72)">
<path d="M10 8.33333V91.6667C10.0026 93.876 10.8815 95.9941 12.4437 97.5563C14.0059 99.1185 16.124 99.9974 18.3333 100H83.3333C84.6594 100 85.9312 99.4732 86.8689 98.5355C87.8066 97.5978 88.3333 96.3261 88.3333 95V85.3917C88.8601 84.925 89.2813 84.3514 89.5687 83.709C89.8561 83.0667 90.0031 82.3704 90 81.6667V5C90 3.67392 89.4732 2.40215 88.5355 1.46447C87.5979 0.526784 86.3261 0 85 0L18.3333 0C16.124 0.00264643 14.0059 0.88147 12.4437 2.4437C10.8815 4.00593 10.0026 6.12401 10 8.33333ZM85 95C85 95.442 84.8244 95.8659 84.5118 96.1785C84.1993 96.4911 83.7754 96.6667 83.3333 96.6667H18.3333C17.0073 96.6667 15.7355 96.1399 14.7978 95.2022C13.8601 94.2645 13.3333 92.9927 13.3333 91.6667C13.3333 90.3406 13.8601 89.0688 14.7978 88.1311C15.7355 87.1935 17.0073 86.6667 18.3333 86.6667H85V95ZM86.6667 5V81.6667C86.6659 81.9605 86.5876 82.2489 86.4395 82.5027C86.2914 82.7564 86.0788 82.9665 85.8233 83.1117C85.5733 83.2569 85.2892 83.3334 85 83.3333H18.3333C16.5297 83.3301 14.7743 83.9152 13.3333 85V8.33333C13.3333 7.00725 13.8601 5.73548 14.7978 4.7978C15.7355 3.86012 17.0073 3.33333 18.3333 3.33333H85C85.442 3.33333 85.866 3.50893 86.1785 3.82149C86.4911 4.13405 86.6667 4.55797 86.6667 5Z" fill="#B3D337"/>
<path d="M65 68.3335H35C34.558 68.3335 34.1341 68.5091 33.8215 68.8217C33.509 69.1342 33.3334 69.5581 33.3334 70.0002C33.3334 70.4422 33.509 70.8661 33.8215 71.1787C34.1341 71.4912 34.558 71.6668 35 71.6668H65C65.4421 71.6668 65.866 71.4912 66.1786 71.1787C66.4911 70.8661 66.6667 70.4422 66.6667 70.0002C66.6667 69.5581 66.4911 69.1342 66.1786 68.8217C65.866 68.5091 65.4421 68.3335 65 68.3335Z" fill="#B3D337"/>
<path d="M60 75H40C39.558 75 39.1341 75.1756 38.8215 75.4882C38.509 75.8007 38.3334 76.2246 38.3334 76.6667C38.3334 77.1087 38.509 77.5326 38.8215 77.8452C39.1341 78.1577 39.558 78.3333 40 78.3333H60C60.4421 78.3333 60.866 78.1577 61.1786 77.8452C61.4911 77.5326 61.6667 77.1087 61.6667 76.6667C61.6667 76.2246 61.4911 75.8007 61.1786 75.4882C60.866 75.1756 60.4421 75 60 75Z" fill="#B3D337"/>
<path d="M26.6667 65.0002C27.3231 65.0016 27.9734 64.8731 28.5801 64.6223C29.1868 64.3714 29.7379 64.0031 30.2017 63.5385L47.0467 46.6902C47.3235 46.768 47.6091 46.81 47.8967 46.8152C48.3344 46.816 48.7679 46.7303 49.1724 46.563C49.5768 46.3957 49.9442 46.15 50.2533 45.8402L52.6117 43.4835L55.1867 46.0568C54.7403 46.9887 54.5936 48.0359 54.7667 49.0545C54.9398 50.0731 55.4242 51.0131 56.1533 51.7452L57.32 52.8968C57.7793 53.3658 58.3274 53.7384 58.9324 53.9931C59.5373 54.2478 60.187 54.3794 60.8433 54.3802H60.8583C61.5172 54.3803 62.1696 54.2499 62.7778 53.9965C63.386 53.743 63.9379 53.3715 64.4017 52.9035L78.535 38.7702C78.9996 38.3058 79.3682 37.7545 79.6197 37.1477C79.8712 36.5408 80.0006 35.8904 80.0006 35.2335C80.0006 34.5766 79.8712 33.9262 79.6197 33.3193C79.3682 32.7125 78.9996 32.1612 78.535 31.6968L77.3517 30.5118C76.62 29.7892 75.6833 29.3098 74.6692 29.1389C73.6552 28.968 72.6131 29.114 71.685 29.5568L57.11 14.9835C57.5544 14.0556 57.7009 13.013 57.5297 11.9986C57.3584 10.9841 56.8777 10.0474 56.1533 9.31683L54.97 8.1335C54.0166 7.22503 52.7502 6.71826 51.4333 6.71826C50.1164 6.71826 48.85 7.22503 47.8967 8.1335L33.7633 22.2668C33.2963 22.7287 32.9253 23.2784 32.6719 23.8844C32.4184 24.4903 32.2874 25.1404 32.2865 25.7973C32.2855 26.4541 32.4147 27.1046 32.6664 27.7112C32.9182 28.3179 33.2876 28.8687 33.7533 29.3318L34.93 30.5252C35.6581 31.258 36.5974 31.7445 37.6161 31.9164C38.6348 32.0883 39.6817 31.9369 40.61 31.4835L43.1833 34.0585L40.8333 36.4135C40.4227 36.8264 40.1279 37.3401 39.9785 37.9029C39.829 38.4657 39.8301 39.0579 39.9817 39.6202L23.1317 56.4652C22.4326 57.1644 21.9566 58.0552 21.7637 59.025C21.5709 59.9948 21.6699 60.9999 22.0483 61.9134C22.4266 62.8269 23.0673 63.6078 23.8894 64.1572C24.7114 64.7066 25.6779 65 26.6667 65.0002ZM75 32.8702L76.1833 34.0535C76.3383 34.2083 76.4612 34.3921 76.5451 34.5944C76.629 34.7968 76.6721 35.0136 76.6721 35.2327C76.6721 35.4517 76.629 35.6686 76.5451 35.8709C76.4612 36.0732 76.3383 36.257 76.1833 36.4118L62.05 50.5452C61.8949 50.7025 61.7102 50.8277 61.5065 50.9135C61.3029 50.9993 61.0843 51.0441 60.8633 51.0452C60.6438 51.0446 60.4265 51 60.2244 50.9142C60.0223 50.8283 59.8395 50.7028 59.6867 50.5452L58.52 49.3785C58.3648 49.2237 58.2416 49.0398 58.1576 48.8373C58.0736 48.6348 58.0303 48.4177 58.0303 48.1985C58.0303 47.9793 58.0736 47.7622 58.1576 47.5597C58.2416 47.3572 58.3648 47.1733 58.52 47.0185L72.67 32.8702C72.982 32.5618 73.403 32.3888 73.8417 32.3888C74.2803 32.3888 74.7013 32.5618 75.0133 32.8702H75ZM37.2967 28.1668L36.1117 26.9668C35.9546 26.8156 35.8294 26.6345 35.7436 26.4341C35.6577 26.2337 35.6128 26.0182 35.6117 25.8002C35.612 25.5783 35.6564 25.3588 35.7422 25.1542C35.8281 24.9497 35.9536 24.7642 36.1117 24.6085L50.2467 10.4752C50.4015 10.3202 50.5853 10.1973 50.7876 10.1134C50.9899 10.0295 51.2068 9.98636 51.4258 9.98636C51.6449 9.98636 51.8617 10.0295 52.0641 10.1134C52.2664 10.1973 52.4502 10.3202 52.605 10.4752L53.7867 11.6585C54.0951 11.9705 54.268 12.3915 54.268 12.8302C54.268 13.2689 54.0951 13.6898 53.7867 14.0018L39.6467 28.1668C39.3344 28.4773 38.912 28.6515 38.4717 28.6515C38.0314 28.6515 37.6089 28.4773 37.2967 28.1668ZM54.9633 17.5502L69.1067 31.6918L57.3333 43.4818L53.7983 39.9485L46.7267 32.8768L43.1833 29.3335L54.9633 17.5502ZM45.54 36.4118L50.255 41.1268L47.8983 43.4852L43.1833 38.7702L45.54 36.4118ZM25.4883 58.8218L42.005 42.3052L44.3617 44.6668L27.845 61.1835C27.5307 61.4871 27.1097 61.6551 26.6727 61.6513C26.2357 61.6475 25.8176 61.4722 25.5086 61.1632C25.1996 60.8542 25.0243 60.4362 25.0205 59.9992C25.0167 59.5622 25.1847 59.1412 25.4883 58.8268V58.8218Z" fill="#B3D337"/>
</g>
<defs>
<clipPath id="clip0_2179_72">
<rect width="100" height="100" fill="white"/>
</clipPath>
</defs>
</svg>
