<svg width="100" height="100" viewBox="0 0 100 100" fill="none" xmlns="http://www.w3.org/2000/svg">
<g clip-path="url(#clip0_2179_77)">
<path d="M93.3313 23.3321C93.3258 18.7324 89.5983 15.0048 84.9983 14.9992H73.3324V11.666C73.3324 8.90479 71.0938 6.66624 68.3326 6.66624H65.431C64.9352 6.66663 64.4647 6.44614 64.1477 6.06452L61.1145 2.40964C59.8503 0.881013 57.969 -0.0027279 55.9851 6.33011e-06H37.3494C35.3659 -0.0027279 33.4847 0.880427 32.2196 2.40827L29.1881 6.06315C28.8711 6.44575 28.4001 6.66702 27.9032 6.66644H25.0016C22.2404 6.66644 20.0019 8.90499 20.0019 11.6662V14.9992H8.33592C3.73617 15.0047 0.00864228 18.7322 0.00317383 23.3321V83.3288C0.00864228 87.9286 3.73617 91.6561 8.33612 91.6618H44.6925C57.4848 102.964 76.7548 102.753 89.296 91.1724C101.837 79.5921 103.581 60.3998 93.3317 46.7492V23.3321H93.3313ZM89.9983 23.3321V28.3319H85.7385C82.5702 28.3281 80.0025 25.7605 79.9988 22.5921V18.3324H84.9985C87.7597 18.3324 89.9983 20.5708 89.9983 23.3321ZM23.3351 11.666C23.3351 10.7455 24.0814 9.99946 25.0016 9.99946H27.9032C29.391 10.0012 30.8021 9.33875 31.7512 8.19292L34.7845 4.53648C35.4171 3.77285 36.3576 3.33146 37.3494 3.33322H55.9851C56.9772 3.33146 57.918 3.77343 58.55 4.53823L61.5848 8.19467C62.5337 9.33953 63.9442 10.0014 65.4312 9.99965H68.3328C69.2533 9.99965 69.9993 10.7459 69.9993 11.6662V14.9992H61.5815L57.3184 8.83292C56.3866 7.47792 54.848 6.668 53.2036 6.66644H40.101C38.4536 6.66527 36.9113 7.47557 35.978 8.83292L31.7514 14.9992H23.3353L23.3351 11.666ZM57.5299 14.9992H35.7913L38.7245 10.7227C39.0358 10.2692 39.551 9.99848 40.1012 9.99946H53.2038C53.7508 10 54.2629 10.2692 54.5736 10.7193L57.5299 14.9992ZM8.33592 18.3324H13.3356V22.5921C13.3319 25.7605 10.7643 28.3281 7.59592 28.3319H3.33619V23.3321C3.33619 20.5708 5.57474 18.3324 8.33592 18.3324ZM3.33619 31.6649H7.59592C12.6044 31.6594 16.6632 27.6004 16.6687 22.5921V18.3324H76.6654V22.5921C76.6709 27.6006 80.7298 31.6594 85.7381 31.6649H89.9979V42.8992C81.9628 34.9819 70.4622 31.6772 59.4499 34.121C48.4374 36.5648 39.4145 44.4241 35.4827 54.997H8.33592C5.57474 54.997 3.33619 52.7586 3.33619 49.9973V31.6649ZM3.33619 83.3288V56.6202C4.7701 57.723 6.52684 58.324 8.33592 58.33H34.4312C31.6419 68.8644 34.2464 80.0966 41.3874 88.3284H8.33592C7.00982 88.3284 5.73821 87.8016 4.80057 86.864C3.86312 85.9266 3.33619 84.6547 3.33619 83.3288ZM66.6661 96.6613C50.0985 96.6613 36.6678 83.2306 36.6678 66.663C36.6678 50.0953 50.0985 36.6646 66.6661 36.6646C83.2338 36.6646 96.6645 50.0953 96.6645 66.663C96.6452 83.2226 83.2258 96.6422 66.6661 96.6613Z" fill="#B3D337"/>
<path d="M84.9986 55.8554C85.0027 55.0058 84.6652 54.1905 84.0619 53.5922L79.7372 49.2591C78.4857 48.0113 76.4606 48.0113 75.2091 49.2591L66.6662 57.8303L58.1217 49.2724C56.8708 48.0248 54.8461 48.0248 53.5952 49.2724L49.2705 53.5971C48.0215 54.8488 48.0215 56.8753 49.2705 58.127L57.8333 66.6632L49.2771 75.2061C48.0283 76.4572 48.0283 78.4831 49.2771 79.7342L53.6019 84.0673C54.8526 85.3171 56.8792 85.3171 58.1299 84.0673L66.6662 75.4961L75.2106 84.0541C76.4619 85.3009 78.4859 85.3009 79.7372 84.0541L84.0619 79.7293C85.3109 78.4776 85.3109 76.4511 84.0619 75.1995L75.4991 66.6632L84.0553 58.1203C84.6603 57.5221 85.0001 56.7061 84.9986 55.8554ZM71.971 65.4832C71.6575 65.7959 71.4814 66.2205 71.4814 66.6632C71.4814 67.106 71.6575 67.5305 71.971 67.8432L81.6138 77.471L77.474 81.6108L67.8462 71.968C67.5335 71.6545 67.1089 71.4784 66.6662 71.4784C66.2234 71.4784 65.7989 71.6545 65.4862 71.968L55.8584 81.6108L51.7186 77.471L61.3614 67.8432C61.6749 67.5305 61.851 67.106 61.851 66.6632C61.851 66.2205 61.6749 65.7959 61.3614 65.4832L51.7186 55.8554L55.8584 51.7156L65.4862 61.3584C66.1481 61.9849 67.1841 61.9849 67.846 61.3584L77.4738 51.7156L81.6136 55.8554L71.971 65.4832Z" fill="#B3D337"/>
</g>
<defs>
<clipPath id="clip0_2179_77">
<rect width="100" height="100" fill="white"/>
</clipPath>
</defs>
</svg>
