<svg width="100" height="100" viewBox="0 0 100 100" fill="none" xmlns="http://www.w3.org/2000/svg">
<g clip-path="url(#clip0_2161_291)">
<path d="M97.9084 52.72L88.8651 46.6751H91.6668C94.4281 46.6751 96.6668 44.4364 96.6668 41.6751V40.0085C96.6668 37.2472 94.4281 35.0085 91.6668 35.0085H88.3334C86.3348 35.0155 84.4461 35.9245 83.1934 37.4817L79.25 21.7101C78.5119 18.7392 75.8428 16.6546 72.7816 16.6583H68.7816L66.4801 8.62002C65.8602 6.47529 63.8992 4.99717 61.6668 4.9917H38.3684C36.1377 4.99951 34.1795 6.47725 33.56 8.62002L31.2633 16.6583H27.2633C24.2027 16.6554 21.5346 18.7397 20.7967 21.7101L16.8334 37.52C15.582 35.9415 13.6811 35.0175 11.6668 35.0083H8.3334C5.57207 35.0083 3.3334 37.247 3.3334 40.0083V41.6749C3.3334 44.4362 5.57207 46.6749 8.3334 46.6749H11.1668L2.09688 52.7183C0.78516 53.5905 -0.0019495 55.0618 3.62635e-06 56.6368V80.0085C0.00879269 82.1198 1.34278 83.9981 3.3334 84.7019V90.0085C3.3334 92.7698 5.57207 95.0085 8.3334 95.0085H20C22.7613 95.0085 25 92.7698 25 90.0085V85.0085H75V90.0085C75 92.7698 77.2387 95.0085 80 95.0085H91.6666C94.4279 95.0085 96.6666 92.7698 96.6666 90.0085V84.7019C98.6572 83.9981 99.9912 82.1198 100 80.0085V56.6351C100.002 55.0622 99.217 53.5927 97.9084 52.72ZM96.6666 58.3417V65.0083H76.6666V63.3417C76.6666 60.5804 78.9053 58.3417 81.6666 58.3417H96.6666ZM85 41.6751C85 39.8341 86.4924 38.3417 88.3334 38.3417H91.6668C92.5873 38.3417 93.3334 39.088 93.3334 40.0083V41.6749C93.3334 42.5954 92.5873 43.3415 91.6668 43.3415H85V41.6751ZM36.765 9.53506C36.9721 8.8208 37.6248 8.32822 38.3684 8.3251H61.6666C62.4102 8.32822 63.0629 8.8208 63.2699 9.53506L65.3115 16.6583H34.7301L36.765 9.53506ZM24.0232 22.5185C24.3936 21.0341 25.7268 19.9923 27.2566 19.9917H72.7816C74.3121 19.9913 75.6463 21.0333 76.0166 22.5185L81.2217 43.3417H18.8184L24.0232 22.5185ZM6.6666 41.6751V40.0085C6.6666 39.088 7.41289 38.3419 8.33321 38.3419H11.6666C13.5076 38.3419 15 39.8343 15 41.6753V43.3419H8.3334C7.41289 43.3417 6.6666 42.5956 6.6666 41.6751ZM18.3334 58.3417C21.0947 58.3417 23.3334 60.5804 23.3334 63.3417V65.0083H3.3334V58.3417H18.3334ZM21.6666 90.0085C21.6666 90.929 20.9205 91.6751 20 91.6751H8.3334C7.41289 91.6751 6.6668 90.929 6.6668 90.0085V85.0085H21.6668L21.6666 90.0085ZM80 81.6751H20V78.3417C20 77.4212 20.7463 76.6751 21.6666 76.6751H78.3332C79.2537 76.6751 79.9998 77.4212 79.9998 78.3417V81.6751H80ZM93.3334 90.0085C93.3334 90.929 92.5873 91.6751 91.6668 91.6751H80C79.0795 91.6751 78.3334 90.929 78.3334 90.0085V85.0085H93.3334V90.0085ZM95 81.6751H83.3334V78.3417C83.3334 75.5804 81.0947 73.3417 78.3334 73.3417H21.6666C18.9053 73.3417 16.6666 75.5804 16.6666 78.3417V81.6751H5C4.0795 81.6751 3.3334 80.9288 3.3334 80.0085V68.3419H23.3334C25.1744 68.3419 26.6668 66.8495 26.6668 65.0085V63.3419C26.6613 58.7419 22.9336 55.0142 18.3334 55.0085H4.6666L17.1666 46.6751H82.8684L95.335 55.0085H81.6666C77.0666 55.014 73.3389 58.7417 73.3332 63.3419V65.0085C73.3332 66.8495 74.8256 68.3419 76.6666 68.3419H96.6666V80.0085C96.6666 80.929 95.9205 81.6751 95 81.6751Z" fill="#B3D337"/>
<path d="M64.3984 55.0083H35.6017C32.8404 55.0067 30.6004 57.2438 30.5988 60.0054C30.5986 60.2817 30.6215 60.5575 30.6668 60.83L31.2219 64.1634C31.618 66.5788 33.7092 68.3495 36.1568 68.3417H63.8435C66.29 68.3478 68.3793 66.5776 68.7752 64.1634L69.3303 60.83C69.784 58.1062 67.9437 55.5302 65.2199 55.0763C64.9482 55.031 64.6734 55.0083 64.3984 55.0083ZM65.4867 63.6165C65.3523 64.4194 64.6576 65.0079 63.8433 65.0081H36.1566C35.3424 65.0079 34.6476 64.4194 34.5133 63.6165L33.9582 60.2831C33.8062 59.3753 34.4191 58.5161 35.3269 58.3644C35.4176 58.3491 35.5096 58.3415 35.6016 58.3415H64.3984C65.3189 58.3417 66.0648 59.0882 66.0646 60.0087C66.0646 60.1007 66.057 60.1925 66.0418 60.2831L65.4867 63.6165Z" fill="#B3D337"/>
<path d="M28.3334 31.6751C28.7754 31.6751 29.1992 31.4993 29.5117 31.1868L34.5117 26.1868C35.1512 25.5247 35.1328 24.4696 34.4707 23.8302C33.8248 23.2063 32.801 23.2063 32.1551 23.8302L27.1551 28.8302C26.5043 29.4812 26.5045 30.5364 27.1555 31.1872C27.4678 31.4995 27.8916 31.6751 28.3334 31.6751Z" fill="#B3D337"/>
<path d="M30.4883 37.8534C31.1391 38.504 32.1942 38.504 32.8449 37.8534L44.5115 26.1868C45.151 25.5247 45.1326 24.4696 44.4705 23.8302C43.8246 23.2063 42.8008 23.2063 42.1549 23.8302L30.4883 35.4968C29.8377 36.1476 29.8377 37.2026 30.4883 37.8534Z" fill="#B3D337"/>
</g>
<defs>
<clipPath id="clip0_2161_291">
<rect width="100" height="100" fill="white"/>
</clipPath>
</defs>
</svg>
