<svg width="100" height="100" viewBox="0 0 100 100" fill="none" xmlns="http://www.w3.org/2000/svg">
<g clip-path="url(#clip0_2179_857)">
<path d="M95 50H63.3333C62.7643 50.0055 62.2004 50.1093 61.6667 50.3067V28.3333C61.6667 12.6853 48.9814 0 33.3333 0C17.6853 0 5 12.6853 5 28.3333V58.7967C1.87827 60.9703 0.0122748 64.5294 0 68.3333C0.0129599 69.4239 0.18132 70.507 0.5 71.55C0.175244 72.2205 0.00441487 72.955 0 73.7V95C0 97.7614 2.23858 100 5 100H95C97.7614 100 100 97.7614 100 95V55C100 52.2386 97.7614 50 95 50ZM33.3333 76.6433C27.8037 75.8706 22.9111 72.6611 20 67.8967V62.5833C22.8779 65.5709 26.3938 67.8692 30.285 69.3067L31.2333 69.64C31.9081 69.8773 32.6181 69.999 33.3333 70C34.0594 69.9995 34.7801 69.8761 35.465 69.635L36.4067 69.3017C40.2888 67.8631 43.796 65.5665 46.6667 62.5833V67.8933C43.7362 72.6396 38.8537 75.8437 33.3333 76.6433ZM35.2583 66.1667L34.3333 66.5C33.6946 66.7243 32.999 66.7272 32.3583 66.5083L31.4 66.175C22.0173 62.5289 15.6575 53.7043 15.1667 43.65C15.1579 42.5758 15.0822 41.5031 14.94 40.4383C22.2063 38.1859 28.6193 33.7841 33.3333 27.8133C38.0498 33.7889 44.4688 38.1924 51.7417 40.4417C51.6012 41.4977 51.526 42.5614 51.5167 43.6267C51.0127 53.6875 44.6461 62.5138 35.2583 66.1667ZM19.1367 72.365C22.1237 75.9151 26.1611 78.4246 30.6667 79.5317L27.5 84.805C24.7041 84.2111 22.2244 82.6094 20.5333 80.305C19.1092 77.9206 18.6121 75.0956 19.1367 72.3683V72.365ZM47.53 72.365C48.0553 75.0941 47.5576 77.9211 46.1317 80.3067C44.4414 82.6118 41.9613 84.2138 39.165 84.8067L35.9983 79.5333C40.5042 78.4271 44.5423 75.9181 47.53 72.3683V72.365ZM50 58.4733C53.0176 54.1059 54.7024 48.9564 54.85 43.65C54.8549 42.8323 54.905 42.0155 55 41.2033C56.1037 41.3873 57.2164 41.5125 58.3333 41.5783V68.1483L50 66.8983V58.4733ZM33.3333 3.33333C47.134 3.34895 58.3177 14.5327 58.3333 28.3333V38.2217C43.3783 37.1 34.8217 24.23 34.7333 24.095C34.4262 23.62 33.899 23.3332 33.3333 23.3333C32.7679 23.3341 32.2415 23.6215 31.935 24.0967C31.8467 24.2317 23.3383 37.0967 8.335 38.2217V28.3333C8.35061 14.5333 19.5333 3.34987 33.3333 3.33333ZM5.46167 62.805C5.92715 63.3046 6.65131 63.4678 7.28612 63.2162C7.92093 62.9646 8.33659 62.3495 8.33333 61.6667V41.5783C9.45421 41.512 10.5708 41.3863 11.6783 41.2017C11.7762 42.0198 11.8279 42.8427 11.8333 43.6667C11.9735 48.9646 13.653 54.1072 16.6667 58.4667V66.8917L4.24833 68.7533C3.956 68.7984 3.66821 68.8693 3.38833 68.965C3.37333 68.7533 3.33333 68.5483 3.33333 68.3333C3.3405 66.2918 4.098 64.3242 5.46167 62.805ZM3.33333 95V73.7C3.33117 72.8757 3.93193 72.1736 4.74667 72.0483L16.1167 70.35C15.038 74.3515 15.635 78.6196 17.77 82.1717C20.2522 85.5454 23.9988 87.7658 28.15 88.3233C28.2109 88.33 28.2721 88.3333 28.3333 88.3333C28.9183 88.3332 29.4604 88.0264 29.7617 87.525L33.3333 81.5733L36.905 87.525C37.2063 88.0264 37.7484 88.3332 38.3333 88.3333C38.3946 88.3333 38.4558 88.33 38.5167 88.3233C42.6687 87.7645 46.4153 85.5423 48.8967 82.1667C51.0314 78.6152 51.6284 74.3476 50.55 70.3467L58.3333 71.5133V95C58.3389 95.5691 58.4426 96.1329 58.64 96.6667H5C4.07953 96.6667 3.33333 95.9205 3.33333 95ZM63.3333 96.6667C62.4129 96.6667 61.6667 95.9205 61.6667 95V55C61.6667 54.0795 62.4129 53.3333 63.3333 53.3333H66.6667V96.6667H63.3333ZM96.6667 95C96.6667 95.9205 95.9205 96.6667 95 96.6667H70V53.3333H95C95.9205 53.3333 96.6667 54.0795 96.6667 55V95Z" fill="#B3D337"/>
<path d="M88.3333 58.333H76.6666C74.8257 58.333 73.3333 59.8254 73.3333 61.6663V66.6663C73.3333 68.5073 74.8257 69.9997 76.6666 69.9997H88.3333C90.1743 69.9997 91.6666 68.5073 91.6666 66.6663V61.6663C91.6666 59.8254 90.1743 58.333 88.3333 58.333ZM76.6666 66.6663V61.6663H88.3333V66.6663H76.6666Z" fill="#B3D337"/>
<path d="M90 81.667H75C74.0795 81.667 73.3333 82.4132 73.3333 83.3337C73.3333 84.2541 74.0795 85.0003 75 85.0003H90C90.9205 85.0003 91.6666 84.2541 91.6666 83.3337C91.6666 82.4132 90.9205 81.667 90 81.667Z" fill="#B3D337"/>
<path d="M83.3333 88.333H75C74.0795 88.333 73.3333 89.0792 73.3333 89.9997C73.3333 90.9201 74.0795 91.6663 75 91.6663H83.3333C84.2538 91.6663 85 90.9201 85 89.9997C85 89.0792 84.2538 88.333 83.3333 88.333Z" fill="#B3D337"/>
</g>
<defs>
<clipPath id="clip0_2179_857">
<rect width="100" height="100" fill="white"/>
</clipPath>
</defs>
</svg>
