<svg width="100" height="100" viewBox="0 0 100 100" fill="none" xmlns="http://www.w3.org/2000/svg">
<g clip-path="url(#clip0_2161_297)">
<path d="M89.3667 73.5002C88.9758 72.7484 88.4696 72.0623 87.8667 71.4669L67.1834 50.7669L98.55 19.4002C99.4793 18.4556 100 17.1836 100 15.8586C100 14.5335 99.4793 13.2615 98.55 12.3169L87.8834 1.65022C86.9272 0.743349 85.6595 0.237823 84.3417 0.237823C83.0239 0.237823 81.7562 0.743349 80.8 1.65022L49.4334 33.0169L19.0334 2.60022C17.4627 1.04665 15.3426 0.175293 13.1334 0.175293C10.9241 0.175293 8.80407 1.04665 7.23337 2.60022L2.43337 7.40022C0.8798 8.97092 0.00844112 11.091 0.00844112 13.3002C0.00844112 15.5094 0.8798 17.6295 2.43337 19.2002L32.8667 49.6169L1.4667 80.9836C0.527718 81.923 0.000244141 83.1969 0.000244141 84.5252C0.000244141 85.8535 0.527718 87.1274 1.4667 88.0669L12.1334 98.7336C12.598 99.1958 13.1492 99.5618 13.7556 99.8106C14.3619 100.059 15.0113 100.186 15.6667 100.184C16.9947 100.186 18.2701 99.665 19.2167 98.7336L50.6 67.3502L71.3 88.0502C71.8982 88.6572 72.5905 89.1637 73.35 89.5502L92.65 99.5836C93.3761 99.9614 94.1816 100.161 95 100.167C95.6531 100.167 96.2994 100.035 96.9006 99.7806C97.5019 99.5257 98.0458 99.1527 98.5 98.6836C99.2686 97.9375 99.7737 96.9617 99.939 95.9035C100.104 94.8452 99.921 93.7618 99.4167 92.8169L89.3667 73.5002ZM56.9167 30.2502L59.2 32.5502C59.516 32.8601 59.9408 33.0336 60.3834 33.0336C60.8259 33.0336 61.2508 32.8601 61.5667 32.5502C61.879 32.2355 62.0542 31.8102 62.0542 31.3669C62.0542 30.9236 61.879 30.4982 61.5667 30.1836L59.2667 27.9002L61.6334 25.5336L66.2834 30.1836C66.5993 30.4934 67.0242 30.667 67.4667 30.667C67.9092 30.667 68.3341 30.4934 68.65 30.1836C68.9623 29.8689 69.1375 29.4435 69.1375 29.0002C69.1375 28.5569 68.9623 28.1316 68.65 27.8169L64 23.1836L66.35 20.8169L68.6334 23.1169C68.9493 23.4267 69.3742 23.6003 69.8167 23.6003C70.2592 23.6003 70.6841 23.4267 71 23.1169C71.3123 22.8022 71.4875 22.3769 71.4875 21.9336C71.4875 21.4902 71.3123 21.0649 71 20.7502L68.7 18.4669L71.0667 16.1169L75.7 20.7669C76.016 21.0767 76.4408 21.2503 76.8834 21.2503C77.3259 21.2503 77.7508 21.0767 78.0667 20.7669C78.379 20.4522 78.5542 20.0269 78.5542 19.5836C78.5542 19.1402 78.379 18.7149 78.0667 18.4002L73.4167 13.7502L75.7834 11.3836L78.0667 13.6836C78.3826 13.9934 78.8075 14.167 79.25 14.167C79.6926 14.167 80.1174 13.9934 80.4334 13.6836C80.7456 13.3689 80.9208 12.9435 80.9208 12.5002C80.9208 12.0569 80.7456 11.6316 80.4334 11.3169L78.1334 9.03355L83.1667 4.01689C83.4819 3.71201 83.9032 3.54158 84.3417 3.54158C84.7802 3.54158 85.2015 3.71201 85.5167 4.01689L96.1834 14.6836C96.4938 14.9958 96.668 15.4182 96.668 15.8586C96.668 16.2989 96.4938 16.7213 96.1834 17.0336L64.8167 48.4002L51.8 35.3836L56.9167 30.2502ZM85.0667 73.3669L80.3 78.1336L22.6 20.4169L27.3667 15.6669L85.0667 73.3669ZM4.80003 16.8336C3.8637 15.8961 3.33777 14.6252 3.33777 13.3002C3.33777 11.9752 3.8637 10.7044 4.80003 9.76689L9.58337 4.96689C10.0492 4.50047 10.6027 4.13077 11.2119 3.87906C11.8212 3.62736 12.4742 3.4986 13.1334 3.50022C13.7903 3.49693 14.4413 3.62498 15.0481 3.87685C15.6549 4.12872 16.2052 4.49932 16.6667 4.96689L20.2667 8.56689L8.40003 20.4502L4.80003 16.8336ZM10.75 22.8002L22.6167 10.9169L25.0167 13.3002L13.1334 25.1836L10.75 22.8002ZM16.8667 96.3669C16.7118 96.5231 16.5274 96.6471 16.3243 96.7317C16.1212 96.8163 15.9034 96.8599 15.6834 96.8599C15.4633 96.8599 15.2455 96.8163 15.0424 96.7317C14.8393 96.6471 14.655 96.5231 14.5 96.3669L3.8167 85.7002C3.66207 85.5456 3.53972 85.3618 3.45675 85.1595C3.37379 84.9572 3.33186 84.7404 3.33341 84.5217C3.33496 84.3031 3.37996 84.0869 3.46579 83.8858C3.55162 83.6847 3.67656 83.5026 3.83337 83.3502L9.78337 77.3836L12.0667 79.6836C12.3826 79.9934 12.8075 80.167 13.25 80.167C13.6926 80.167 14.1174 79.9934 14.4334 79.6836C14.7456 79.3689 14.9208 78.9435 14.9208 78.5002C14.9208 78.0569 14.7456 77.6316 14.4334 77.3169L12.15 75.0336L14.5 72.6836L19.1334 77.3336C19.4493 77.6434 19.8742 77.817 20.3167 77.817C20.7592 77.817 21.1841 77.6434 21.5 77.3336C21.8123 77.0189 21.9875 76.5935 21.9875 76.1502C21.9875 75.7069 21.8123 75.2816 21.5 74.9669L16.8667 70.3169L19.2167 67.9669L21.5 70.2502C21.816 70.5601 22.2408 70.7337 22.6834 70.7337C23.1259 70.7337 23.5508 70.5601 23.8667 70.2502C24.179 69.9355 24.3542 69.5102 24.3542 69.0669C24.3542 68.6236 24.179 68.1982 23.8667 67.8836L21.5834 65.6002L23.9334 63.2502L28.5667 67.9002C28.8826 68.2101 29.3075 68.3836 29.75 68.3836C30.1926 68.3836 30.6174 68.2101 30.9334 67.9002C31.2456 67.5855 31.4208 67.1602 31.4208 66.7169C31.4208 66.2736 31.2456 65.8482 30.9334 65.5336L26.2834 60.9002L28.6334 58.5502L30.9167 60.8336C31.2326 61.1434 31.6575 61.317 32.1 61.317C32.5426 61.317 32.9674 61.1434 33.2834 60.8336C33.5956 60.5189 33.7708 60.0935 33.7708 59.6502C33.7708 59.2069 33.5956 58.7816 33.2834 58.4669L31 56.1836L35.2167 51.9669L48.25 65.0002L16.8667 96.3669ZM73.2 85.2502L15.4834 27.5336L20.25 22.7669L77.95 80.4836L73.2 85.2502ZM87.55 93.1669L75.9834 87.1669L86.9834 76.1502L93 87.7169C90.6052 88.845 88.6782 90.7721 87.55 93.1669ZM96.15 96.3169C95.9037 96.5808 95.5756 96.7539 95.2188 96.8083C94.8619 96.8628 94.4972 96.7953 94.1834 96.6169L90.5 94.7002C90.9117 93.8193 91.476 93.018 92.1667 92.3336C92.8556 91.6481 93.6559 91.0845 94.5334 90.6669L96.45 94.3502C96.6244 94.6651 96.6896 95.0289 96.6353 95.3847C96.581 95.7405 96.4104 96.0683 96.15 96.3169Z" fill="#B3D337"/>
</g>
<defs>
<clipPath id="clip0_2161_297">
<rect width="100" height="100" fill="white"/>
</clipPath>
</defs>
</svg>
