<svg width="100" height="100" viewBox="0 0 100 100" fill="none" xmlns="http://www.w3.org/2000/svg">
<g clip-path="url(#clip0_2161_925)">
<path d="M98.3333 96.6668H79.1C80.7519 94.8393 81.6665 92.4636 81.6665 90.0002C81.6665 87.5367 80.7519 85.161 79.1 83.3335H90C91.7681 83.3335 93.4638 82.6311 94.714 81.3809C95.9643 80.1306 96.6667 78.4349 96.6667 76.6668C96.6667 74.8987 95.9643 73.203 94.714 71.9528C93.4638 70.7025 91.7681 70.0002 90 70.0002H88.29C89.393 68.5662 89.9939 66.8093 90 65.0002V51.6668C89.9974 49.4575 89.1185 47.3394 87.5563 45.7772C85.9941 44.215 83.876 43.3361 81.6667 43.3335V41.6668C81.6667 40.3407 81.1399 39.069 80.2022 38.1313C79.2645 37.1936 77.9927 36.6668 76.6667 36.6668H73.3333C72.0072 36.6668 70.7355 37.1936 69.7978 38.1313C68.8601 39.069 68.3333 40.3407 68.3333 41.6668V43.3335C66.124 43.3361 64.0059 44.215 62.4437 45.7772C60.8815 47.3394 60.0026 49.4575 60 51.6668V65.0002C60.0061 66.8093 60.607 68.5662 61.71 70.0002H52.1083C52.7898 68.6814 53.1953 67.2376 53.3 65.7568C54.3189 65.1793 55.167 64.3427 55.7582 63.3317C56.3495 62.3207 56.6629 61.1713 56.6667 60.0002V33.3335C56.6611 31.8598 56.1675 30.4295 55.2628 29.2661C54.3582 28.1027 53.0936 27.2719 51.6667 26.9035V15.0002C52.9927 15.0002 54.2645 14.4734 55.2022 13.5357C56.1399 12.598 56.6667 11.3262 56.6667 10.0002C56.6667 8.67408 56.1399 7.40231 55.2022 6.46463C54.2645 5.52695 52.9927 5.00016 51.6667 5.00016H25C23.6739 5.00016 22.4021 5.52695 21.4645 6.46463C20.5268 7.40231 20 8.67408 20 10.0002C20 11.3262 20.5268 12.598 21.4645 13.5357C22.4021 14.4734 23.6739 15.0002 25 15.0002V26.9035C23.5731 27.2719 22.3085 28.1027 21.4038 29.2661C20.4992 30.4295 20.0055 31.8598 20 33.3335V60.0002C20.0038 61.1713 20.3172 62.3207 20.9084 63.3317C21.4997 64.3427 22.3478 65.1793 23.3667 65.7568C23.4713 67.2376 23.8768 68.6814 24.5583 70.0002H16.6667V10.0002C16.6667 8.23205 15.9643 6.53636 14.714 5.28612C13.4638 4.03588 11.7681 3.3335 10 3.3335C8.23189 3.3335 6.5362 4.03588 5.28595 5.28612C4.03571 6.53636 3.33333 8.23205 3.33333 10.0002V76.6668C3.33333 78.4349 4.03571 80.1306 5.28595 81.3809C6.5362 82.6311 8.23189 83.3335 10 83.3335H24.2333C22.5814 85.161 21.6668 87.5367 21.6668 90.0002C21.6668 92.4636 22.5814 94.8393 24.2333 96.6668H1.66667C1.22464 96.6668 0.800716 96.8424 0.488155 97.155C0.175595 97.4676 0 97.8915 0 98.3335C0 98.7755 0.175595 99.1995 0.488155 99.512C0.800716 99.8246 1.22464 100 1.66667 100H98.3333C98.7754 100 99.1993 99.8246 99.5118 99.512C99.8244 99.1995 100 98.7755 100 98.3335C100 97.8915 99.8244 97.4676 99.5118 97.155C99.1993 96.8424 98.7754 96.6668 98.3333 96.6668ZM71.6667 41.6668C71.6667 41.2248 71.8423 40.8009 72.1548 40.4883C72.4674 40.1758 72.8913 40.0002 73.3333 40.0002H76.6667C77.1087 40.0002 77.5326 40.1758 77.8452 40.4883C78.1577 40.8009 78.3333 41.2248 78.3333 41.6668V43.3335H71.6667V41.6668ZM68.3333 46.6668H81.6667C82.9927 46.6668 84.2645 47.1936 85.2022 48.1313C86.1399 49.069 86.6667 50.3407 86.6667 51.6668H63.3333C63.3333 50.3407 63.8601 49.069 64.7978 48.1313C65.7355 47.1936 67.0072 46.6668 68.3333 46.6668ZM63.3333 55.0002H86.6667V61.6668H63.3333V55.0002ZM86.6667 65.0002C86.6667 66.3262 86.1399 67.598 85.2022 68.5357C84.2645 69.4734 82.9927 70.0002 81.6667 70.0002H68.3333C67.0072 70.0002 65.7355 69.4734 64.7978 68.5357C63.8601 67.598 63.3333 66.3262 63.3333 65.0002H86.6667ZM23.3333 10.0002C23.3333 9.55814 23.5089 9.13421 23.8215 8.82165C24.134 8.50909 24.558 8.3335 25 8.3335H51.6667C52.1087 8.3335 52.5326 8.50909 52.8452 8.82165C53.1577 9.13421 53.3333 9.55814 53.3333 10.0002C53.3333 10.4422 53.1577 10.8661 52.8452 11.1787C52.5326 11.4912 52.1087 11.6668 51.6667 11.6668H25C24.558 11.6668 24.134 11.4912 23.8215 11.1787C23.5089 10.8661 23.3333 10.4422 23.3333 10.0002ZM48.3333 15.0002V26.6668H45V15.0002H48.3333ZM41.6667 15.0002V26.6668H35V15.0002H41.6667ZM31.6667 15.0002V26.6668H28.3333V15.0002H31.6667ZM23.3333 60.0002V33.3335C23.3333 32.4494 23.6845 31.6016 24.3096 30.9765C24.9348 30.3514 25.7826 30.0002 26.6667 30.0002H50C50.8841 30.0002 51.7319 30.3514 52.357 30.9765C52.9821 31.6016 53.3333 32.4494 53.3333 33.3335V60.0002C53.3333 60.8842 52.9821 61.7321 52.357 62.3572C51.7319 62.9823 50.8841 63.3335 50 63.3335H26.6667C25.7826 63.3335 24.9348 62.9823 24.3096 62.3572C23.6845 61.7321 23.3333 60.8842 23.3333 60.0002ZM49.805 66.6668C49.4983 68.1235 48.7083 70.0002 46.6667 70.0002C44.625 70.0002 43.8333 68.1235 43.5283 66.6668H49.805ZM41.225 70.0002H35.4417C35.9878 68.9576 36.3551 67.8309 36.5283 66.6668H40.1383C40.3116 67.8309 40.6789 68.9576 41.225 70.0002ZM33.1383 66.6668C32.8317 68.1235 32.0417 70.0002 30 70.0002C27.9583 70.0002 27.1667 68.1235 26.8617 66.6668H33.1383ZM10 80.0002C9.11594 80.0002 8.2681 79.649 7.64298 79.0239C7.01786 78.3987 6.66667 77.5509 6.66667 76.6668V10.0002C6.66667 9.11611 7.01786 8.26826 7.64298 7.64314C8.2681 7.01802 9.11594 6.66683 10 6.66683C10.8841 6.66683 11.7319 7.01802 12.357 7.64314C12.9821 8.26826 13.3333 9.11611 13.3333 10.0002V70.0002C13.3333 70.8842 13.6845 71.7321 14.3096 72.3572C14.9348 72.9823 15.7826 73.3335 16.6667 73.3335H90C90.8841 73.3335 91.7319 73.6847 92.357 74.3098C92.9821 74.9349 93.3333 75.7828 93.3333 76.6668C93.3333 77.5509 92.9821 78.3987 92.357 79.0239C91.7319 79.649 90.8841 80.0002 90 80.0002H10ZM31.6667 96.6668C30.3481 96.6668 29.0592 96.2758 27.9629 95.5433C26.8665 94.8108 26.0121 93.7696 25.5075 92.5514C25.0029 91.3332 24.8709 89.9928 25.1281 88.6996C25.3853 87.4064 26.0203 86.2185 26.9526 85.2861C27.885 84.3538 29.0729 83.7188 30.3661 83.4616C31.6593 83.2044 32.9997 83.3364 34.2179 83.841C35.4361 84.3456 36.4773 85.2 37.2098 86.2964C37.9423 87.3927 38.3333 88.6816 38.3333 90.0002C38.3333 91.7683 37.631 93.464 36.3807 94.7142C35.1305 95.9645 33.4348 96.6668 31.6667 96.6668ZM64.2333 96.6668H39.1C40.7519 94.8393 41.6665 92.4636 41.6665 90.0002C41.6665 87.5367 40.7519 85.161 39.1 83.3335H64.2333C62.5814 85.161 61.6668 87.5367 61.6668 90.0002C61.6668 92.4636 62.5814 94.8393 64.2333 96.6668ZM71.6667 96.6668C70.3481 96.6668 69.0592 96.2758 67.9629 95.5433C66.8665 94.8108 66.0121 93.7696 65.5075 92.5514C65.0029 91.3332 64.8709 89.9928 65.1281 88.6996C65.3853 87.4064 66.0203 86.2185 66.9526 85.2861C67.885 84.3538 69.0729 83.7188 70.3661 83.4616C71.6593 83.2044 72.9997 83.3364 74.2179 83.841C75.4361 84.3456 76.4772 85.2 77.2098 86.2964C77.9423 87.3927 78.3333 88.6816 78.3333 90.0002C78.3333 91.7683 77.631 93.464 76.3807 94.7142C75.1305 95.9645 73.4348 96.6668 71.6667 96.6668Z" fill="#B3D337"/>
<path d="M31.6667 91.6668C32.5871 91.6668 33.3333 90.9206 33.3333 90.0002C33.3333 89.0797 32.5871 88.3335 31.6667 88.3335C30.7462 88.3335 30 89.0797 30 90.0002C30 90.9206 30.7462 91.6668 31.6667 91.6668Z" fill="#B3D337"/>
<path d="M71.6667 91.6668C72.5871 91.6668 73.3333 90.9206 73.3333 90.0002C73.3333 89.0797 72.5871 88.3335 71.6667 88.3335C70.7462 88.3335 70 89.0797 70 90.0002C70 90.9206 70.7462 91.6668 71.6667 91.6668Z" fill="#B3D337"/>
<path d="M30 60.0002C30.442 60.0002 30.866 59.8246 31.1785 59.512C31.4911 59.1994 31.6667 58.7755 31.6667 58.3335V35.0002C31.6667 34.5581 31.4911 34.1342 31.1785 33.8217C30.866 33.5091 30.442 33.3335 30 33.3335C29.558 33.3335 29.1341 33.5091 28.8215 33.8217C28.5089 34.1342 28.3333 34.5581 28.3333 35.0002V58.3335C28.3333 58.7755 28.5089 59.1994 28.8215 59.512C29.1341 59.8246 29.558 60.0002 30 60.0002Z" fill="#B3D337"/>
<path d="M38.3333 60.0002C38.7754 60.0002 39.1993 59.8246 39.5118 59.512C39.8244 59.1994 40 58.7755 40 58.3335V35.0002C40 34.5581 39.8244 34.1342 39.5118 33.8217C39.1993 33.5091 38.7754 33.3335 38.3333 33.3335C37.8913 33.3335 37.4674 33.5091 37.1548 33.8217C36.8422 34.1342 36.6667 34.5581 36.6667 35.0002V58.3335C36.6667 58.7755 36.8422 59.1994 37.1548 59.512C37.4674 59.8246 37.8913 60.0002 38.3333 60.0002Z" fill="#B3D337"/>
<path d="M46.6667 60.0002C47.1087 60.0002 47.5326 59.8246 47.8452 59.512C48.1577 59.1994 48.3333 58.7755 48.3333 58.3335V35.0002C48.3333 34.5581 48.1577 34.1342 47.8452 33.8217C47.5326 33.5091 47.1087 33.3335 46.6667 33.3335C46.2246 33.3335 45.8007 33.5091 45.4882 33.8217C45.1756 34.1342 45 34.5581 45 35.0002V58.3335C45 58.7755 45.1756 59.1994 45.4882 59.512C45.8007 59.8246 46.2246 60.0002 46.6667 60.0002Z" fill="#B3D337"/>
</g>
<defs>
<clipPath id="clip0_2161_925">
<rect width="100" height="100" fill="white"/>
</clipPath>
</defs>
</svg>
