<svg width="100" height="100" viewBox="0 0 100 100" fill="none" xmlns="http://www.w3.org/2000/svg">
<g clip-path="url(#clip0_2161_299)">
<path d="M39.6718 83.2713L42.0047 85.6042C42.0103 87.1225 42.6171 88.5767 43.6926 89.6484C44.7638 90.7282 46.2208 91.3373 47.7419 91.3413L55.4271 99.0281C56.7271 100.321 58.8277 100.321 60.1278 99.0281L61.7824 97.3735C62.6315 96.5157 62.9581 95.2699 62.6388 94.1059L60.0094 84.9294C60.8308 84.1963 61.6656 83.4214 62.5255 82.5649L70.6906 74.3999L88.2772 91.993C89.5773 93.2874 91.6793 93.2874 92.9795 91.993L94.6608 90.3183C95.4907 89.483 95.8197 88.2728 95.5273 87.1322L93.5895 79.657L98.8517 74.3964C100.146 73.0962 100.146 70.9943 98.8517 69.6941L95.3274 66.1782C94.0117 64.9218 91.9406 64.9218 90.6251 66.1782L90.2018 66.6031L87.7907 57.3033L95.4942 49.5965C99.0396 46.1121 100.638 41.1032 99.7666 36.2091C99.4977 34.8705 98.4427 33.8291 97.1006 33.5779C92.2185 32.7183 87.2259 34.316 83.7498 37.8503L83.1899 38.4103C81.4479 16.1503 62.4656 -0.778076 40.1523 0.0291694C17.839 0.836414 0.129636 19.0922 0.000707913 41.4199C-0.12822 63.7475 17.3692 82.2066 39.6718 83.2713ZM42.8045 81.695L36.6724 75.5695L38.3204 73.9032L46.0989 76.1311C44.7577 77.8313 43.6487 79.7023 42.8012 81.695H42.8045ZM59.4329 95.0257L57.7849 96.6721L51.6395 90.525C53.6333 89.6819 55.5056 88.5762 57.2066 87.2372L59.4329 95.0257ZM60.1778 80.2153C55.0121 85.3609 50.4364 88.1571 47.7219 87.9855L57.7833 77.9242C58.4147 77.2703 58.4058 76.2311 57.763 75.5883C57.1201 74.9455 56.081 74.9366 55.4271 75.568L45.3641 85.6244C45.1975 82.9048 47.9885 78.3291 53.1308 73.1718L83.3797 42.9394C85.396 41.9055 87.8491 42.291 89.4512 43.8931C91.0535 45.4954 91.4388 47.9483 90.4049 49.9646L60.1778 80.2153ZM36.6724 45.0157H34.1729C30.9695 44.9736 28.3829 42.3869 28.3408 39.1835C28.3408 35.9625 30.9519 33.3514 34.1729 33.3514H46.6704C49.4312 33.3514 51.6693 35.5896 51.6693 38.3504V39.2352L46.2104 37.8205C45.0702 37.5297 43.861 37.8594 43.026 38.6886L41.3597 40.365C40.0653 41.6652 40.0653 43.7672 41.3597 45.0673L48.65 52.3593L42.9844 63.6503C42.439 64.6083 41.3284 65.0931 40.2552 64.8417C39.182 64.5903 38.402 63.6627 38.3387 62.5623V46.6822C38.3387 45.7617 37.5927 45.0157 36.6724 45.0157ZM63.0005 42.1829L57.4232 40.7364L61.2942 36.8506L64.8152 40.3599L63.0005 42.1829ZM43.7044 42.7295L45.3707 41.0547L73.3068 48.2983L61.2909 60.3092L43.7044 42.7295ZM92.9696 68.5293L96.4939 72.0402L92.6196 75.9145L91.1699 70.344L92.9696 68.5293ZM92.303 87.9604L90.6367 89.6368L73.0452 72.0486L85.0561 60.0311L92.303 87.9604ZM96.4871 36.8206C97.0722 40.1017 96.2169 43.476 94.1392 46.0821C93.5616 42.5406 90.7778 39.7689 87.2339 39.2068C89.2927 37.5471 91.8612 36.6489 94.5058 36.6639C95.1683 36.6642 95.8296 36.7166 96.4838 36.8206H96.4871ZM78.664 31.6849H74.5649C72.0444 31.6821 70.0019 29.6395 69.9991 27.1191C69.9822 24.193 68.4472 21.4857 65.9449 19.9688L64.1003 18.8789C62.5997 17.9677 61.679 16.3436 61.6675 14.5881V9.00115C70.0134 14.1236 76.0919 22.236 78.664 31.6849ZM35.0061 3.94885V12.1139C34.9567 16.4569 31.4506 19.9666 27.1076 20.0206C24.1816 20.0375 21.4743 21.5725 19.9573 24.0748L18.8675 25.9194C17.9562 27.42 16.3322 28.3407 14.5767 28.3522H5.74519C10.4995 15.6174 21.6245 6.33905 35.0061 3.94885ZM4.67877 31.6849H14.5768C17.5029 31.6681 20.2102 30.133 21.7272 27.6307L22.817 25.7861C23.7283 24.2855 25.3523 23.3648 27.1078 23.3533C33.2764 23.2716 38.2572 18.2907 38.3389 12.1222V3.51056C39.4387 3.41564 40.5485 3.3572 41.6716 3.3572C47.4434 3.35059 53.1415 4.65605 58.335 7.17469V14.5881C58.3518 17.5142 59.8869 20.2215 62.3892 21.7384L64.2338 22.8283C65.7344 23.7396 66.655 25.3636 66.6666 27.1191C66.6721 31.479 70.2051 35.0119 74.5651 35.0175H79.4057C79.7915 37.1938 79.9894 39.3993 79.9972 41.6096L76.048 45.5571L66.7481 43.146L67.1731 42.721C68.4675 41.4209 68.4675 39.3189 67.1731 38.0187L63.6504 34.4977C62.3341 33.2429 60.2644 33.2429 58.9481 34.4977L55.0022 38.4453V38.3504C54.9967 33.7512 51.2697 30.0242 46.6705 30.0187H34.1731C29.1142 30.0252 25.0147 34.1246 25.0083 39.1835C25.0747 44.2173 29.1393 48.282 34.1731 48.3483H35.0063V62.5621C35.0063 65.2288 36.8755 67.5304 39.4854 68.0776C39.9546 68.1881 40.4348 68.244 40.9168 68.2442C43.0541 68.2647 45.0141 67.0586 45.9592 65.1415L51.1249 54.8419L58.94 62.6554L50.7749 70.8204C49.9201 71.6785 49.142 72.5135 48.4105 73.3333L39.2056 70.6955C38.049 70.3924 36.8185 70.7217 35.9678 71.562L34.3132 73.2166C33.0188 74.5168 33.0188 76.6187 34.3132 77.9189L35.9695 79.5753C25.162 77.9557 15.5611 71.7964 9.58365 62.6478C3.60624 53.4992 1.82122 42.2329 4.67877 31.6849Z" fill="#B3D337"/>
</g>
<defs>
<clipPath id="clip0_2161_299">
<rect width="100" height="100" fill="white"/>
</clipPath>
</defs>
</svg>
