<svg width="100" height="100" viewBox="0 0 100 100" fill="none" xmlns="http://www.w3.org/2000/svg">
<g clip-path="url(#clip0_2179_518)">
<path d="M69.9946 57.1918C69.9513 55.0721 68.228 53.3725 66.1079 53.3584L62.5163 53.3334C61.2145 53.3018 59.9583 53.8125 59.0479 54.7434L54.328 60.1867L36.1081 57.8135C36.0126 57.8004 35.9161 57.7965 35.8198 57.8018C34.4958 57.8684 33.3767 58.8051 33.0782 60.0967C32.7854 61.2112 33.2601 62.3854 34.2448 62.9834L45.3849 70.4834L42.1048 74.0151L35.6198 73.8151C33.9884 73.6102 32.4343 74.5686 31.8849 76.1184C31.3017 77.7113 31.9015 79.4957 33.3282 80.4133L35.2015 81.6299L33.8282 84.0766C33.0038 85.5899 33.2729 87.4653 34.4895 88.6858C35.7061 89.9063 37.5806 90.1813 39.0966 89.3617L41.4499 88.0867L42.7132 90.0617C43.3755 91.0631 44.4958 91.6658 45.6966 91.6668C46.114 91.6656 46.528 91.5942 46.9216 91.4551C48.4517 90.9424 49.4415 89.4598 49.3282 87.85L49.205 81.1334L52.7833 77.8334L60.2384 88.8018C60.8198 89.8557 62.037 90.3869 63.205 90.0967C64.4944 89.8014 65.436 88.6934 65.52 87.3735C65.5267 87.2696 65.5233 87.1651 65.5101 87.0617L63.1251 68.9235L68.6618 64.1819C69.5468 63.2959 70.0288 62.0852 69.9952 60.8336V57.1918H69.9946ZM66.6612 60.8668C66.6833 61.1768 66.5935 61.4842 66.4079 61.7334L60.2413 67C59.8872 67.3143 59.6819 67.7633 59.6763 68.2367C59.6714 68.3908 59.6894 68.5447 59.7296 68.6934L61.9196 85.36L54.4497 74.36C54.177 73.9584 53.7431 73.6955 53.2608 73.6401C52.7786 73.5846 52.2962 73.7422 51.9397 74.0715L46.3964 79.1899C46.0466 79.5123 45.8513 79.9692 45.8597 80.4449L45.9997 88.0166C46.0104 88.1397 45.9409 88.2559 45.8274 88.3047C45.714 88.3535 45.5819 88.324 45.4997 88.2317L43.428 84.9834C42.9575 84.2459 41.9968 83.9979 41.228 84.4151L37.5063 86.4334C37.2907 86.5485 37.0251 86.5086 36.853 86.3352C36.7462 86.2344 36.6858 86.0938 36.6864 85.9469C36.6839 85.8596 36.7034 85.7731 36.7431 85.6951L38.8698 81.8951C39.2995 81.1303 39.0626 80.1633 38.3282 79.6834L35.1616 77.6334C35.0247 77.5612 34.9628 77.3985 35.0167 77.2533V77.2467C35.0567 77.1301 35.1167 77.1018 35.3899 77.1235L42.7565 77.3569C43.2384 77.3762 43.704 77.1822 44.0298 76.8268L49.1614 71.3168C49.4936 70.9598 49.6528 70.4752 49.597 69.9908C49.5411 69.5065 49.2761 69.0707 48.8714 68.7985L37.8714 61.4035L54.6048 63.5819C55.2149 63.7354 55.8595 63.5324 56.2714 63.0569L61.4964 57.0135C61.7622 56.7705 62.1151 56.6455 62.4747 56.6668L66.0997 56.6852C66.4026 56.6903 66.6491 56.9307 66.6614 57.2334V60.8668H66.6612Z" fill="#B3D337"/>
<path d="M86.6612 43.3335H63.3278V38.3335C63.3278 35.5722 61.0893 33.3335 58.3278 33.3335H41.6612C38.8996 33.3335 36.6612 35.572 36.6612 38.3335V43.3335H13.3278C10.5664 43.3335 8.32776 45.572 8.32776 48.3335V95.0001C8.32776 97.7614 10.5662 100 13.3278 100H86.6612C89.4225 100 91.6612 97.7616 91.6612 95.0001V48.3335C91.6612 45.572 89.4227 43.3335 86.6612 43.3335ZM39.9946 38.3335C39.9946 37.413 40.7408 36.6669 41.6612 36.6669H58.3278C59.2483 36.6669 59.9944 37.413 59.9944 38.3335V43.3335H39.9944V38.3335H39.9946ZM11.6612 48.3335C11.6612 47.413 12.4073 46.6669 13.3278 46.6669H19.8444C19.1287 50.8544 15.8485 54.1345 11.661 54.8503V48.3335H11.6612ZM13.3278 96.6667C12.4073 96.6667 11.6612 95.9206 11.6612 95.0001V88.4835C15.8487 89.1991 19.1287 92.4794 19.8446 96.6669L13.3278 96.6667ZM88.3278 95.0001C88.3278 95.9206 87.5817 96.6667 86.6612 96.6667H80.1446C80.8602 92.4792 84.1405 89.1991 88.328 88.4833V95.0001H88.3278ZM88.3278 85.1151C82.2951 85.8843 77.5451 90.6341 76.776 96.6669H23.2129C22.4438 90.6343 17.694 85.8843 11.6612 85.1151V58.2185C17.6938 57.4493 22.4438 52.6995 23.2129 46.6667H76.7762C77.5453 52.6993 82.2951 57.4493 88.328 58.2185V85.1151H88.3278ZM88.3278 54.8501C84.1403 54.1345 80.8602 50.8542 80.1444 46.6667H86.661C87.5815 46.6667 88.3276 47.4128 88.3276 48.3333V54.8501H88.3278Z" fill="#B3D337"/>
<path d="M99.9862 31.1533C99.5229 14.2684 76.6813 0 50.0994 0C23.4045 0 0.466244 14.2684 0.011166 31.1533C-0.0140293 32.051 0.676596 32.807 1.57288 32.8633C2.46468 32.9076 3.23695 32.2506 3.33617 31.3633C3.64124 28.2916 9.06624 25 16.6612 25C24.5196 25 29.9946 28.5133 29.9946 31.6666C30 32.5043 30.6334 33.2043 31.4662 33.2932C31.5303 33.3107 31.5953 33.324 31.6612 33.3332C32.4989 33.3277 33.1989 32.6943 33.2877 31.8615C33.3053 31.7975 33.3186 31.7322 33.3278 31.6666C33.3278 28.5182 40.4545 25 49.9944 25C59.5342 25 66.661 28.5184 66.661 31.6666C66.661 32.5871 67.4071 33.3332 68.3276 33.3332C68.3459 33.3332 68.361 33.3232 68.3793 33.3232C68.3977 33.3232 68.4127 33.3332 68.4326 33.3332C69.3532 33.3332 70.0992 32.5871 70.0992 31.6666C70.0992 31.5783 70.0992 31.3332 70.086 30.9799C70.8043 28.0248 76.036 24.9998 83.3276 24.9998C90.9225 24.9998 96.3492 28.2914 96.6526 31.3631C96.7106 32.2836 97.5037 32.9828 98.4243 32.9248C99.345 32.867 100.044 32.0738 99.9862 31.1533ZM30.3928 25.96C26.4553 22.9732 21.5987 21.4547 16.6612 21.6666C12.616 21.5764 8.61566 22.5262 5.04281 24.425C9.7346 14.56 23.5961 6.5 40.0596 4.08672C33.4446 9.6834 31.1744 19.6482 30.3928 25.96ZM49.9946 21.6666C43.1828 21.6666 37.4096 23.2166 33.828 25.6666C34.9446 17.7115 38.528 4.5332 50.0397 3.34492C61.5897 4.53828 65.158 17.7967 66.2629 25.7432C62.7045 23.2482 56.8778 21.6666 49.9946 21.6666ZM83.3278 21.6666C78.4307 21.4631 73.6127 22.9521 69.6844 25.8832C68.901 19.5666 66.6211 9.6498 60.0178 4.07656C76.4412 6.47148 90.2744 14.5498 94.9512 24.4299C91.3774 22.5285 87.375 21.5771 83.3278 21.6666Z" fill="#B3D337"/>
</g>
<defs>
<clipPath id="clip0_2179_518">
<rect width="100" height="100" fill="white"/>
</clipPath>
</defs>
</svg>
