<svg width="100" height="100" viewBox="0 0 100 100" fill="none" xmlns="http://www.w3.org/2000/svg">
<g clip-path="url(#clip0_2179_925)">
<path d="M23.3334 68.333C20.572 68.333 18.3334 70.5717 18.3334 73.333C18.3334 76.0943 20.5719 78.333 23.3334 78.333C26.0949 78.333 28.3334 76.0945 28.3334 73.333C28.3302 70.5729 26.0935 68.3359 23.3334 68.333ZM23.3334 74.9996C22.4129 74.9996 21.6668 74.2535 21.6668 73.333C21.6668 72.4125 22.4129 71.6664 23.3334 71.6664C24.2539 71.6664 25 72.4125 25 73.333C24.999 74.2531 24.2535 74.9986 23.3334 74.9996Z" fill="#B3D337"/>
<path d="M76.6666 68.333C73.9053 68.333 71.6666 70.5717 71.6666 73.333C71.6666 76.0943 73.9053 78.333 76.6666 78.333C79.4279 78.333 81.6666 76.0945 81.6666 73.333C81.6637 70.5729 79.4268 68.3359 76.6666 68.333ZM76.6666 74.9996C75.7461 74.9996 75 74.2535 75 73.333C75 72.4125 75.7463 71.6664 76.6666 71.6664C77.5871 71.6664 78.3332 72.4125 78.3332 73.333C78.3324 74.2531 77.5867 74.9986 76.6666 74.9996Z" fill="#B3D337"/>
<path d="M98.7297 44.6094L87.2486 31.6797C86.2975 30.6086 84.9326 29.9971 83.5002 30H68.3334V20C68.3305 17.2398 66.0936 15.0029 63.3334 15H5C2.23984 15.0029 0.00292985 17.2398 1.62767e-07 20V63.3334C-0.00019515 63.7754 0.175391 64.1994 0.488086 64.5121C0.800586 64.8246 1.22461 65.0002 1.6668 65.0002H3.3334V70.0002C3.33633 72.7604 5.57324 74.9973 8.3334 75.0002H11.7998C12.6213 80.7385 17.5365 85.0002 23.3334 85.0002C29.1303 85.0002 34.0455 80.7385 34.867 75.0002H65.1334C65.9549 80.7385 70.8701 85.0002 76.667 85.0002C82.4639 85.0002 87.3791 80.7385 88.2006 75.0002H95C97.7602 74.9973 99.9971 72.7604 100 70.0002V47.933C99.9988 46.7066 99.5467 45.5238 98.7297 44.6094ZM3.3334 61.6666V20C3.33437 19.0799 4.07988 18.3342 5 18.3334H63.3334C64.2535 18.3344 64.9992 19.0799 65 20V61.6666H3.3334ZM11.7998 71.6666H8.3334C7.41328 71.6656 6.66758 70.9201 6.6668 70V65H15.1844C13.3535 66.7895 12.1639 69.1326 11.7998 71.6666ZM23.3334 81.6666C18.7311 81.6666 15 77.9356 15 73.3332C15 68.7309 18.7311 65 23.3334 65C27.9357 65 31.6668 68.7311 31.6668 73.3334C31.6613 77.9334 27.9334 81.6613 23.3334 81.6666ZM40 71.6666H34.8668C34.5027 69.1326 33.3133 66.7893 31.4824 65H40V71.6666ZM55 71.6666H43.3334V65H55V71.6666ZM65.1332 71.6666H58.3334V65H68.5176C66.6867 66.7895 65.4973 69.1326 65.1332 71.6666ZM76.6666 81.6666C72.0643 81.6666 68.3332 77.9356 68.3332 73.3332C68.3332 68.7309 72.0641 64.9998 76.6666 64.9998C81.2689 64.9998 85 68.7309 85 73.3332C84.9945 77.9334 81.2668 81.6613 76.6666 81.6666ZM96.6666 70C96.6656 70.9201 95.9201 71.6658 95 71.6666H88.2002C87.3691 65.9336 82.4598 61.677 76.6666 61.6666H68.3332V33.3334H75V50C75.0029 52.7602 77.2398 54.9971 80 55H96.6666V70ZM96.6666 51.6666H80C79.0799 51.6656 78.3342 50.9201 78.3334 50V33.3334H83.5002C83.9787 33.3307 84.4353 33.5334 84.7543 33.89L96.2395 46.8246C96.5129 47.1293 96.6648 47.5236 96.6668 47.933L96.6666 51.6666Z" fill="#B3D337"/>
</g>
<defs>
<clipPath id="clip0_2179_925">
<rect width="100" height="100" fill="white"/>
</clipPath>
</defs>
</svg>
