<svg width="100" height="100" viewBox="0 0 100 100" fill="none" xmlns="http://www.w3.org/2000/svg">
<g clip-path="url(#clip0_2161_640)">
<path d="M1.80505 98.0851L4.13838 99.4784C4.84816 99.9036 5.68003 100.079 6.50096 99.9753C7.32189 99.8719 8.08446 99.4963 8.66671 98.9084L26.7684 80.6801C27.0458 80.7574 27.3321 80.7989 27.62 80.8034H27.63C28.0681 80.8031 28.5017 80.7161 28.9059 80.5473C29.3101 80.3785 29.6769 80.1314 29.985 79.8201L33.54 76.2401L35.9434 78.6284C36.5599 79.2456 37.2924 79.7348 38.0988 80.0677C38.9051 80.4007 39.7693 80.5708 40.6417 80.5684H40.6667C41.5429 80.5676 42.4102 80.3933 43.2186 80.0555C44.0271 79.7176 44.7605 79.223 45.3767 78.6001L80.8334 42.9001L82.0201 44.0801C82.9696 45.0073 84.2463 45.5229 85.5734 45.5151H85.5884C86.9127 45.5204 88.1853 45.0015 89.1284 44.0717C90.0584 43.1231 90.5769 41.8461 90.5716 40.5176C90.5663 39.1891 90.0376 37.9163 89.1001 36.9751L80.7667 28.6901L89.0517 20.3567L91.4317 22.7251C91.8944 23.1872 92.4443 23.5529 93.0494 23.8009C93.6545 24.049 94.3028 24.1744 94.9567 24.1701H95.0184C96.3351 24.1563 97.5952 23.6324 98.5334 22.7084C99.4708 21.7624 99.9949 20.4833 99.9909 19.1514C99.9868 17.8196 99.4549 16.5437 98.5117 15.6034L84.265 1.4184C83.2962 0.501166 82.0108 -0.00689424 80.6767 7.0675e-05C79.3651 0.0063872 78.1071 0.520734 77.1667 1.43507C76.7003 1.9023 76.3308 2.45704 76.0794 3.06745C75.828 3.67786 75.6996 4.33191 75.7016 4.99207C75.7036 5.65223 75.836 6.30549 76.0911 6.91435C76.3463 7.52322 76.7192 8.07569 77.1884 8.54007L79.5667 10.9084L71.2834 19.2417L62.9667 10.9751C62.0007 10.0535 60.7201 9.53445 59.385 9.52341C58.7306 9.52172 58.0825 9.65072 57.4786 9.90287C56.8747 10.155 56.3273 10.5252 55.8684 10.9917C55.4017 11.4587 55.0319 12.0134 54.7802 12.6237C54.5285 13.2341 54.3999 13.8882 54.4018 14.5484C54.4036 15.2086 54.5359 15.862 54.791 16.4709C55.0461 17.0798 55.4191 17.6324 55.8884 18.0967L57.0784 19.2784L34.9117 41.5967L29.1084 47.4301H29.0984V47.4401L21.6367 54.9517C20.3924 56.2076 19.6967 57.9055 19.702 59.6734C19.7073 61.4413 20.4132 63.135 21.665 64.3834L24.0684 66.7734L20.51 70.3534C20.1011 70.7703 19.8089 71.2874 19.6626 71.8528C19.5163 72.4182 19.5212 73.0121 19.6767 73.5751L1.07504 92.3001C0.679306 92.699 0.379584 93.1828 0.198599 93.7148C0.0176145 94.2467 -0.0398823 94.813 0.0304677 95.3705C0.100818 95.928 0.297168 96.4621 0.604633 96.9325C0.912099 97.4028 1.32261 97.797 1.80505 98.0851ZM71.3334 33.4584L65.4134 39.4184L60.6467 34.6784L66.5667 28.7184L71.3334 33.4584ZM70.1951 48.8751L67.8334 51.2667L48.7967 32.3434L51.1667 29.9517L70.1951 48.8751ZM72.5434 46.5101L67.7767 41.7701L73.6967 35.8084L78.465 40.5501L72.5434 46.5101ZM79.0317 4.9834C79.0302 4.76219 79.0728 4.5429 79.1569 4.3383C79.241 4.13371 79.365 3.94791 79.5217 3.79174C79.8474 3.49269 80.2746 3.32881 80.7167 3.3334H80.7384C81.1706 3.32318 81.5895 3.48297 81.9051 3.7784L96.1667 17.9584C96.4854 18.2731 96.6661 18.7013 96.6692 19.1491C96.6723 19.5969 96.4976 20.0277 96.1834 20.3467C95.8637 20.6573 95.4357 20.8313 94.9901 20.8317C94.769 20.8431 94.548 20.8069 94.3422 20.7255C94.1363 20.6441 93.9503 20.5195 93.7967 20.3601L79.5317 6.16674C79.3742 6.01238 79.249 5.82831 79.1631 5.62518C79.0773 5.42205 79.0326 5.20392 79.0317 4.9834ZM81.9301 13.2601L86.6967 18.0017L78.4134 26.3351L73.6467 21.5934L81.9301 13.2601ZM58.24 13.3334C58.393 13.1803 58.5749 13.0592 58.7753 12.9774C58.9756 12.8955 59.1903 12.8545 59.4067 12.8567H59.4167C59.8629 12.8514 60.2931 13.0228 60.6134 13.3334L86.7484 39.3334C86.9076 39.4895 87.0342 39.6755 87.121 39.8809C87.2077 40.0862 87.2529 40.3067 87.2538 40.5297C87.2547 40.7526 87.2114 40.9735 87.1264 41.1795C87.0413 41.3856 86.9163 41.5727 86.7584 41.7301C86.4401 42.0282 86.0177 42.1898 85.5817 42.1801C85.1367 42.1894 84.7058 42.0236 84.3817 41.7184L58.2351 15.7301C58.0759 15.5737 57.9495 15.3872 57.8632 15.1815C57.7769 14.9757 57.7325 14.7548 57.7325 14.5317C57.7325 14.3086 57.7769 14.0878 57.8632 13.882C57.9495 13.6763 58.0759 13.4898 58.2351 13.3334H58.24ZM64.2101 26.3684L58.29 32.3334L53.5217 27.5917L59.4417 21.6334L64.2101 26.3684ZM23.98 57.3334L24.4684 56.8334L29.6567 62.0001C29.8119 62.1546 29.996 62.277 30.1985 62.3604C30.401 62.4438 30.6179 62.4865 30.8369 62.486C31.0559 62.4855 31.2727 62.4419 31.4748 62.3577C31.677 62.2735 31.8605 62.1503 32.015 61.9951C32.1696 61.8399 32.292 61.6558 32.3754 61.4533C32.4588 61.2508 32.5014 61.0339 32.501 60.8149C32.5005 60.5959 32.4569 60.3791 32.3727 60.177C32.2885 59.9748 32.1652 59.7913 32.01 59.6367L26.8184 54.4701L30.2767 50.9884L32.9767 53.6651C33.1312 53.8235 33.3156 53.9495 33.5193 54.0359C33.723 54.1223 33.9418 54.1672 34.163 54.1682C34.3843 54.1691 34.6035 54.126 34.8078 54.0413C35.0122 53.9566 35.1977 53.8321 35.3535 53.675C35.5093 53.5179 35.6322 53.3314 35.7151 53.1263C35.7981 52.9212 35.8393 52.7016 35.8365 52.4804C35.8337 52.2592 35.7869 52.0407 35.6988 51.8378C35.6107 51.6349 35.4831 51.4515 35.3234 51.2984L32.6267 48.6234L36.0917 45.1351L41.3334 50.3334C41.647 50.645 42.0716 50.8193 42.5137 50.8179C42.9558 50.8165 43.3793 50.6395 43.6909 50.3259C44.0025 50.0123 44.1768 49.5877 44.1754 49.1456C44.174 48.7035 43.997 48.28 43.6834 47.9684L38.45 42.7734L41.9167 39.2834L44.635 41.9801C44.9506 42.2826 45.3724 42.449 45.8096 42.4435C46.2467 42.438 46.6641 42.2609 46.9719 41.9505C47.2797 41.64 47.4533 41.2211 47.4551 40.7839C47.4569 40.3468 47.2869 39.9264 46.9817 39.6134L44.265 36.9184L46.4567 34.7134L65.4767 53.6317L43 76.2501C42.6923 76.5616 42.3259 76.809 41.9219 76.978C41.518 77.1471 41.0846 77.2345 40.6467 77.2351H40.635C40.1991 77.2358 39.7672 77.1504 39.3643 76.984C38.9613 76.8176 38.5951 76.5732 38.2867 76.2651L34.7084 72.7001L31 69.0001L24 62.0417C23.376 61.4184 23.0237 60.5737 23.02 59.6917C23.0163 58.8097 23.3613 57.962 23.98 57.3334ZM26.41 69.1551L31.1767 73.8967L27.6217 77.4784L22.855 72.7367L26.41 69.1551ZM3.44004 94.6501L21.6934 76.2751L21.7334 76.3151L24.0834 78.6484L6.29338 96.5601C6.23663 96.6181 6.16187 96.6551 6.08133 96.6651C6.00079 96.6751 5.91925 96.6575 5.85005 96.6151L3.51671 95.2217C3.46921 95.1931 3.42881 95.1541 3.39858 95.1076C3.36834 95.0611 3.34904 95.0083 3.34215 94.9533C3.33525 94.8983 3.34092 94.8424 3.35875 94.7899C3.37657 94.7373 3.40608 94.6896 3.44504 94.6501H3.44004Z" fill="#B3D337"/>
</g>
<defs>
<clipPath id="clip0_2161_640">
<rect width="100" height="100" fill="white"/>
</clipPath>
</defs>
</svg>
