<svg width="100" height="100" viewBox="0 0 100 100" fill="none" xmlns="http://www.w3.org/2000/svg">
<g clip-path="url(#clip0_2161_932)">
<path d="M86.6666 0H13.3333C12.0072 0 10.7355 0.526784 9.79778 1.46447C8.8601 2.40215 8.33331 3.67392 8.33331 5V95C8.33331 96.3261 8.8601 97.5978 9.79778 98.5355C10.7355 99.4732 12.0072 100 13.3333 100H86.6666C87.9927 100 89.2645 99.4732 90.2022 98.5355C91.1399 97.5978 91.6666 96.3261 91.6666 95V5C91.6666 3.67392 91.1399 2.40215 90.2022 1.46447C89.2645 0.526784 87.9927 0 86.6666 0ZM88.3333 95C88.3333 95.442 88.1577 95.866 87.8452 96.1785C87.5326 96.4911 87.1087 96.6667 86.6666 96.6667H13.3333C12.8913 96.6667 12.4674 96.4911 12.1548 96.1785C11.8422 95.866 11.6666 95.442 11.6666 95V51.6667H88.3333V95ZM88.3333 48.3333H11.6666V5C11.6666 4.55797 11.8422 4.13405 12.1548 3.82149C12.4674 3.50893 12.8913 3.33333 13.3333 3.33333H86.6666C87.1087 3.33333 87.5326 3.50893 87.8452 3.82149C88.1577 4.13405 88.3333 4.55797 88.3333 5V48.3333Z" fill="#B3D337"/>
<path d="M20 93.3333H46.6667C47.9928 93.3333 49.2645 92.8065 50.2022 91.8689C51.1399 90.9312 51.6667 89.6594 51.6667 88.3333V60C51.6667 58.6739 51.1399 57.4022 50.2022 56.4645C49.2645 55.5268 47.9928 55 46.6667 55H20C18.6739 55 17.4021 55.5268 16.4645 56.4645C15.5268 57.4022 15 58.6739 15 60V88.3333C15 89.6594 15.5268 90.9312 16.4645 91.8689C17.4021 92.8065 18.6739 93.3333 20 93.3333ZM25.1233 90C25.293 88.4765 25.8148 87.0134 26.6476 85.7264C27.4805 84.4394 28.6014 83.3639 29.9217 82.585C30.9915 83.078 32.1554 83.3333 33.3333 83.3333C34.5113 83.3333 35.6752 83.078 36.745 82.585C38.0653 83.3639 39.1862 84.4394 40.019 85.7264C40.8518 87.0134 41.3737 88.4765 41.5433 90H25.1233ZM33.3333 72.1567C34.4965 72.9813 35.8984 73.4006 37.3233 73.35C37.6608 73.3484 37.9979 73.3289 38.3333 73.2917V75C38.3333 76.3261 37.8066 77.5979 36.8689 78.5355C35.9312 79.4732 34.6594 80 33.3333 80C32.0073 80 30.7355 79.4732 29.7978 78.5355C28.8601 77.5979 28.3333 76.3261 28.3333 75V73.2867C30.0828 73.5534 31.8686 73.1498 33.3333 72.1567ZM28.3333 69.9133C28.407 68.6393 28.965 67.4417 29.893 66.5658C30.821 65.6898 32.0489 65.2019 33.325 65.2019C34.6011 65.2019 35.829 65.6898 36.757 66.5658C37.685 67.4417 38.243 68.6393 38.3167 69.9133C37.15 70.08 35.4433 70.0933 34.8167 68.8383C34.6627 68.58 34.4442 68.3662 34.1828 68.2176C33.9213 68.0691 33.6257 67.991 33.325 67.991C33.0243 67.991 32.7287 68.0691 32.4672 68.2176C32.2058 68.3662 31.9873 68.58 31.8333 68.8383C31.2133 70.0933 29.5 70.085 28.3417 69.9133H28.3333ZM18.3333 60C18.3333 59.558 18.5089 59.134 18.8215 58.8215C19.134 58.5089 19.558 58.3333 20 58.3333H46.6667C47.1087 58.3333 47.5326 58.5089 47.8452 58.8215C48.1577 59.134 48.3333 59.558 48.3333 60V88.3333C48.3333 88.7754 48.1577 89.1993 47.8452 89.5118C47.5326 89.8244 47.1087 90 46.6667 90H44.8867C44.7081 88.1292 44.145 86.3154 43.2327 84.6723C42.3204 83.0293 41.0785 81.5924 39.585 80.4517C40.9192 78.9483 41.6593 77.01 41.6667 75V70C41.6667 67.7899 40.7887 65.6702 39.2259 64.1074C37.6631 62.5446 35.5435 61.6667 33.3333 61.6667C31.1232 61.6667 29.0036 62.5446 27.4408 64.1074C25.878 65.6702 25 67.7899 25 70V75C25.0073 77.01 25.7475 78.9483 27.0817 80.4517C25.5881 81.5924 24.3463 83.0293 23.434 84.6723C22.5217 86.3154 21.9586 88.1292 21.78 90H20C19.558 90 19.134 89.8244 18.8215 89.5118C18.5089 89.1993 18.3333 88.7754 18.3333 88.3333V60Z" fill="#B3D337"/>
<path d="M58.3333 65H81.6667C82.5507 65 83.3986 64.6488 84.0237 64.0237C84.6488 63.3986 85 62.5507 85 61.6667V58.3333C85 57.4493 84.6488 56.6014 84.0237 55.9763C83.3986 55.3512 82.5507 55 81.6667 55H58.3333C57.4493 55 56.6014 55.3512 55.9763 55.9763C55.3512 56.6014 55 57.4493 55 58.3333V61.6667C55 62.5507 55.3512 63.3986 55.9763 64.0237C56.6014 64.6488 57.4493 65 58.3333 65ZM58.3333 58.3333H81.6667V61.6667H58.3333V58.3333Z" fill="#B3D337"/>
<path d="M81.6667 68.3335H58.3334C57.8913 68.3335 57.4674 68.5091 57.1548 68.8217C56.8423 69.1342 56.6667 69.5581 56.6667 70.0002C56.6667 70.4422 56.8423 70.8661 57.1548 71.1787C57.4674 71.4912 57.8913 71.6668 58.3334 71.6668H81.6667C82.1087 71.6668 82.5326 71.4912 82.8452 71.1787C83.1578 70.8661 83.3334 70.4422 83.3334 70.0002C83.3334 69.5581 83.1578 69.1342 82.8452 68.8217C82.5326 68.5091 82.1087 68.3335 81.6667 68.3335Z" fill="#B3D337"/>
<path d="M81.6667 75H58.3334C57.8913 75 57.4674 75.1756 57.1548 75.4882C56.8423 75.8007 56.6667 76.2246 56.6667 76.6667C56.6667 77.1087 56.8423 77.5326 57.1548 77.8452C57.4674 78.1577 57.8913 78.3333 58.3334 78.3333H81.6667C82.1087 78.3333 82.5326 78.1577 82.8452 77.8452C83.1578 77.5326 83.3334 77.1087 83.3334 76.6667C83.3334 76.2246 83.1578 75.8007 82.8452 75.4882C82.5326 75.1756 82.1087 75 81.6667 75Z" fill="#B3D337"/>
<path d="M65 81.6665H58.3334C57.8913 81.6665 57.4674 81.8421 57.1548 82.1547C56.8423 82.4672 56.6667 82.8911 56.6667 83.3332C56.6667 83.7752 56.8423 84.1991 57.1548 84.5117C57.4674 84.8242 57.8913 84.9998 58.3334 84.9998H65C65.442 84.9998 65.866 84.8242 66.1785 84.5117C66.4911 84.1991 66.6667 83.7752 66.6667 83.3332C66.6667 82.8911 66.4911 82.4672 66.1785 82.1547C65.866 81.8421 65.442 81.6665 65 81.6665Z" fill="#B3D337"/>
<path d="M50 6.6665C46.374 6.6665 42.8295 7.74173 39.8146 9.75623C36.7997 11.7707 34.4498 14.634 33.0622 17.984C31.6746 21.334 31.3116 25.0202 32.019 28.5765C32.7264 32.1328 34.4724 35.3995 37.0364 37.9635C39.6004 40.5274 42.8671 42.2735 46.4234 42.9809C49.9797 43.6883 53.6659 43.3252 57.0159 41.9376C60.3659 40.55 63.2291 38.2002 65.2436 35.1853C67.2581 32.1704 68.3334 28.6258 68.3334 24.9998C68.3276 20.1393 66.3942 15.4795 62.9573 12.0425C59.5204 8.60562 54.8606 6.67224 50 6.6665ZM61.1484 14.9998H57.0367C56.6671 13.6442 56.1647 12.3284 55.5367 11.0715C57.6845 11.932 59.6048 13.2763 61.1484 14.9998ZM50 9.99984C51.135 9.99984 52.555 11.8148 53.5917 14.9998H46.4084C47.445 11.8148 48.865 9.99984 50 9.99984ZM36.5817 18.3332H42.2184C41.9406 19.9873 41.7675 21.6573 41.7 23.3332H35.0984C35.2948 21.5922 35.7969 19.8996 36.5817 18.3332ZM36.5817 31.6665C35.7956 30.1005 35.2929 28.4077 35.0967 26.6665H41.7C41.7675 28.3424 41.9406 30.0124 42.2184 31.6665H36.5817ZM38.85 34.9998H42.9617C43.3313 36.3554 43.8337 37.6713 44.4617 38.9282C42.3145 38.0675 40.3948 36.7232 38.8517 34.9998H38.85ZM42.9634 14.9998H38.8517C40.3948 13.2765 42.3145 11.9322 44.4617 11.0715C43.8343 12.3285 43.3324 13.6443 42.9634 14.9998ZM50 39.9998C48.865 39.9998 47.445 38.1848 46.4084 34.9998H53.5917C52.555 38.1848 51.135 39.9998 50 39.9998ZM54.4184 31.6665H45.585C45.284 30.0149 45.1007 28.3441 45.0367 26.6665H54.97C54.9049 28.3441 54.7205 30.015 54.4184 31.6665ZM45.0334 23.3332C45.0974 21.6556 45.2807 19.9847 45.5817 18.3332H54.415C54.7161 19.9847 54.8993 21.6556 54.9634 23.3332H45.0334ZM55.5334 38.9282C56.1614 37.6713 56.6638 36.3554 57.0334 34.9998H61.145C59.6029 36.7228 57.6843 38.067 55.5384 38.9282H55.5334ZM63.4184 31.6665H57.7834C58.0598 30.0123 58.2323 28.3423 58.3 26.6665H64.9017C64.7053 28.4075 64.2031 30.1001 63.4184 31.6665ZM64.9017 23.3332H58.3C58.2323 21.6574 58.0598 19.9874 57.7834 18.3332H63.4184C64.2031 19.8996 64.7053 21.5922 64.9017 23.3332Z" fill="#B3D337"/>
</g>
<defs>
<clipPath id="clip0_2161_932">
<rect width="100" height="100" fill="white"/>
</clipPath>
</defs>
</svg>
