<svg width="100" height="100" viewBox="0 0 100 100" fill="none" xmlns="http://www.w3.org/2000/svg">
<g clip-path="url(#clip0_2179_624)">
<path d="M96.6667 25H28.3333C27.4129 25 26.6667 25.7462 26.6667 26.6667C26.6667 27.5871 27.4129 28.3333 28.3333 28.3333H38.4083C31.0118 33.0399 26.5715 41.2335 26.6667 50C26.5715 58.7665 31.0118 66.9601 38.4083 71.6667H3.33333V28.3333H20C20.9205 28.3333 21.6667 27.5871 21.6667 26.6667C21.6667 25.7462 20.9205 25 20 25H3.33333C1.49238 25 0 26.4924 0 28.3333V71.6667C0 73.5076 1.49238 75 3.33333 75H96.6667C98.5076 75 100 73.5076 100 71.6667V28.3333C100 26.4924 98.5076 25 96.6667 25ZM30 50C30 38.0533 38.9717 28.3333 50 28.3333C61.0283 28.3333 70 38.0533 70 50C70 61.9467 61.0283 71.6667 50 71.6667C38.9717 71.6667 30 61.9467 30 50ZM96.6667 71.6667H61.5917C68.9882 66.9601 73.4285 58.7665 73.3333 50C73.4285 41.2335 68.9882 33.0399 61.5917 28.3333H96.6667V71.6667Z" fill="#B3D337"/>
<path d="M87.8933 7.01651C87.1043 6.62164 86.1909 6.55571 85.3533 6.83317L49.4533 18.8648C48.5789 19.1576 48.1073 20.1037 48.4 20.9782C48.6927 21.8526 49.6389 22.3242 50.5133 22.0315L86.4033 9.99984L90.0867 20.9815C90.2757 21.5472 90.7522 21.969 91.3366 22.0881C91.921 22.2072 92.5246 22.0055 92.9199 21.559C93.3153 21.1124 93.4424 20.4888 93.2533 19.9232L89.5683 8.94817C89.2938 8.10451 88.6896 7.40778 87.8933 7.01651Z" fill="#B3D337"/>
<path d="M49.4867 77.9703L13.5967 90.0003L9.91333 79.0186C9.62108 78.1442 8.67528 77.6722 7.80083 77.9645C6.92638 78.2567 6.45441 79.2025 6.74667 80.077L10.425 91.0486C10.6976 91.8908 11.2985 92.5873 12.0917 92.9803C12.5531 93.2098 13.0613 93.3296 13.5767 93.3303C13.9349 93.3308 14.291 93.2746 14.6317 93.1636L50.5317 81.132C51.4061 80.8393 51.8777 79.8931 51.585 79.0186C51.2923 78.1442 50.3461 77.6726 49.4717 77.9653L49.4867 77.9703Z" fill="#B3D337"/>
<path d="M55 44.1667C55 45.0871 55.7462 45.8333 56.6667 45.8333C57.5871 45.8333 58.3333 45.0871 58.3333 44.1667C58.1724 40.4307 55.3694 37.341 51.6667 36.8183V36.6667C51.6667 35.7462 50.9205 35 50 35C49.0795 35 48.3333 35.7462 48.3333 36.6667V36.8183C44.6306 37.341 41.8276 40.4307 41.6667 44.1667C41.8276 47.9027 44.6306 50.9923 48.3333 51.515V59.7433C46.4786 59.3226 45.122 57.7313 45 55.8333C45 54.9129 44.2538 54.1667 43.3333 54.1667C42.4129 54.1667 41.6667 54.9129 41.6667 55.8333C41.8276 59.5693 44.6306 62.659 48.3333 63.1817V63.3333C48.3333 64.2538 49.0795 65 50 65C50.9205 65 51.6667 64.2538 51.6667 63.3333V63.1817C55.3694 62.659 58.1724 59.5693 58.3333 55.8333C58.1724 52.0973 55.3694 49.0077 51.6667 48.485V40.2567C53.5214 40.6774 54.878 42.2687 55 44.1667ZM45 44.1667C45.122 42.2687 46.4786 40.6774 48.3333 40.2567V48.0767C46.4786 47.6559 45.122 46.0646 45 44.1667ZM55 55.8333C54.878 57.7313 53.5214 59.3226 51.6667 59.7433V51.9233C53.5214 52.3441 54.878 53.9354 55 55.8333Z" fill="#B3D337"/>
<path d="M85 68.333H91.6667C92.5871 68.333 93.3333 67.5868 93.3333 66.6663V59.9997C93.3333 59.0792 92.5871 58.333 91.6667 58.333C90.7462 58.333 90 59.0792 90 59.9997V64.9997H85C84.0795 64.9997 83.3333 65.7459 83.3333 66.6663C83.3333 67.5868 84.0795 68.333 85 68.333Z" fill="#B3D337"/>
<path d="M8.33333 58.333C7.41286 58.333 6.66666 59.0792 6.66666 59.9997V66.6663C6.66666 67.5868 7.41286 68.333 8.33333 68.333H15C15.9205 68.333 16.6667 67.5868 16.6667 66.6663C16.6667 65.7459 15.9205 64.9997 15 64.9997H10V59.9997C10 59.0792 9.25381 58.333 8.33333 58.333Z" fill="#B3D337"/>
<path d="M15 31.667H8.33333C7.41286 31.667 6.66666 32.4132 6.66666 33.3337V40.0003C6.66666 40.9208 7.41286 41.667 8.33333 41.667C9.25381 41.667 10 40.9208 10 40.0003V35.0003H15C15.9205 35.0003 16.6667 34.2541 16.6667 33.3337C16.6667 32.4132 15.9205 31.667 15 31.667Z" fill="#B3D337"/>
<path d="M85 35.0003H90V40.0003C90 40.9208 90.7462 41.667 91.6667 41.667C92.5871 41.667 93.3333 40.9208 93.3333 40.0003V33.3337C93.3333 32.4132 92.5871 31.667 91.6667 31.667H85C84.0795 31.667 83.3333 32.4132 83.3333 33.3337C83.3333 34.2541 84.0795 35.0003 85 35.0003Z" fill="#B3D337"/>
</g>
<defs>
<clipPath id="clip0_2179_624">
<rect width="100" height="100" fill="white"/>
</clipPath>
</defs>
</svg>
