<svg width="100" height="100" viewBox="0 0 100 100" fill="none" xmlns="http://www.w3.org/2000/svg">
<g clip-path="url(#clip0_2161_590)">
<path d="M56.6147 9.99976C56.6147 9.07965 55.8685 8.3335 54.9484 8.3335H38.282C37.3611 8.3335 36.615 9.07965 36.615 9.99976C36.615 10.9206 37.3611 11.6668 38.282 11.6668H54.9484C55.8685 11.6668 56.6147 10.9206 56.6147 9.99976Z" fill="#B3D337"/>
<path d="M36.615 90C36.615 90.9201 37.3611 91.6663 38.282 91.6663H54.9484C55.8685 91.6663 56.6147 90.9201 56.6147 90C56.6147 89.0792 55.8685 88.333 54.9484 88.333H38.282C37.3611 88.333 36.615 89.0792 36.615 90Z" fill="#B3D337"/>
<path d="M83.2817 44.9997H79.5319C78.3073 36.9102 74.1493 29.554 67.8497 24.3332L63.7817 4.01993C63.308 1.68762 61.2617 0.00915527 58.8814 0H34.3483C31.9679 0.00915527 29.921 1.68991 29.4487 4.02298L25.3799 24.3332C17.7185 30.6564 13.2812 40.0711 13.2812 50.0053C13.2812 59.9388 17.7185 69.3535 25.3799 75.6767L29.4487 95.9801C29.9225 98.3124 31.9687 99.9908 34.3483 100H58.8814C61.2625 99.9908 63.3087 98.3101 63.7817 95.977L67.8497 75.6668C74.1493 70.446 78.3073 63.0898 79.5319 55.0003H83.2817C85.1227 55.0003 86.615 53.508 86.615 51.667V48.333C86.615 46.492 85.1227 44.9997 83.2817 44.9997ZM32.7148 4.6814C32.8712 3.90244 33.5533 3.33939 34.3483 3.33328H58.8814C59.6771 3.33481 60.36 3.89786 60.5133 4.67834L63.8931 21.55C53.2936 15.0391 39.9345 15.0391 29.335 21.55L32.7148 4.6814ZM60.5148 95.3186C60.3584 96.0976 59.6771 96.6606 58.8814 96.6667H34.3483C33.5533 96.6652 32.8705 96.1021 32.7164 95.3217L29.3365 78.45C39.9361 84.9609 53.2959 84.9609 63.8947 78.45L60.5148 95.3186ZM46.6148 80.0003C30.0468 80.0003 16.6153 66.5688 16.6153 50C16.6153 33.4312 30.0468 19.9997 46.6148 19.9997C63.1836 19.9997 76.6151 33.4312 76.6151 50C76.5961 66.5604 63.1752 79.9805 46.6148 80.0003ZM83.2817 51.667H79.863C79.892 51.1116 79.9484 50.563 79.9484 50C79.9484 49.437 79.892 48.8884 79.863 48.333H83.2817V51.667Z" fill="#B3D337"/>
<path d="M69.7533 63.202C74.4575 55.0294 74.4575 44.9708 69.7533 36.7982C69.741 36.754 69.7258 36.7097 69.7082 36.667C69.6724 36.6212 69.6342 36.5777 69.593 36.5365C67.2813 32.6082 64.0068 29.3336 60.0784 27.0219C60.0372 26.9807 59.9937 26.9426 59.948 26.9067C59.9052 26.8892 59.8617 26.8739 59.8167 26.8617C51.6441 22.1574 41.5855 22.1574 33.4137 26.8617C33.3687 26.8747 33.3244 26.8899 33.2817 26.9067C33.2367 26.9426 33.1932 26.9815 33.152 27.0219C29.2229 29.3329 25.9483 32.6066 23.6366 36.535C23.5954 36.577 23.5573 36.6205 23.5214 36.667C23.5039 36.7097 23.4894 36.754 23.4764 36.7982C18.7721 44.9708 18.7721 55.0294 23.4764 63.202C23.4894 63.2463 23.5039 63.2905 23.5214 63.3333C23.571 63.4103 23.6267 63.4828 23.6885 63.5499C25.9964 67.4409 29.2518 70.685 33.152 72.9783C33.1932 73.0188 33.2367 73.0577 33.2817 73.0936C33.3404 73.1233 33.4007 73.1477 33.4633 73.1683C41.6107 77.8329 51.6189 77.8329 59.7664 73.1683C59.8289 73.1477 59.89 73.1233 59.948 73.0936C59.9937 73.0577 60.0372 73.0195 60.0784 72.9783C63.9778 70.685 67.2333 67.4409 69.5419 63.5499C69.6037 63.4828 69.6594 63.4103 69.7082 63.3333C69.7258 63.2905 69.741 63.2463 69.7533 63.202ZM59.6901 69.3155L58.8913 67.9315C58.596 67.4119 58.0444 67.09 57.4463 67.0892C56.8481 67.0877 56.2958 67.4066 55.9975 67.9254C55.6999 68.4442 55.7022 69.0828 56.0051 69.5985L56.7932 70.9634C54.129 72.2642 51.239 73.0401 48.2818 73.2484V71.6669C48.2818 70.746 47.5357 69.9998 46.6148 69.9998C45.6947 69.9998 44.9486 70.746 44.9486 71.6669V73.2484C41.9906 73.0401 39.1006 72.2642 36.4364 70.9634L37.2253 69.5985C37.6777 68.802 37.4031 67.7896 36.6096 67.3311C35.8162 66.8733 34.8015 67.1411 34.3384 67.9315L33.5403 69.3155C31.0852 67.6477 28.9688 65.5305 27.3018 63.0754L28.685 62.2766C29.2045 61.9813 29.5265 61.4297 29.528 60.8316C29.5296 60.2334 29.2099 59.6803 28.6911 59.3828C28.173 59.0845 27.5345 59.0875 27.018 59.3904L25.6515 60.1785C24.3507 57.5143 23.5748 54.6243 23.3665 51.6672H24.9481C25.869 51.6672 26.6151 50.9202 26.6151 50.0001C26.6151 49.08 25.869 48.3331 24.9481 48.3331H23.3665C23.5748 45.376 24.3507 42.4859 25.6515 39.8218L27.018 40.6099C27.5345 40.9128 28.173 40.9158 28.6911 40.6175C29.2099 40.32 29.5296 39.7668 29.528 39.1687C29.5265 38.5705 29.2045 38.0189 28.685 37.7237L27.3018 36.9249C28.9688 34.4697 31.0852 32.3526 33.5403 30.6848L34.3384 32.0688C34.6336 32.5883 35.1852 32.9103 35.7834 32.9111C36.3815 32.9126 36.9346 32.5937 37.2322 32.0749C37.5305 31.5561 37.5275 30.9175 37.2253 30.4017L36.4364 29.0368C39.1006 27.736 41.9906 26.9601 44.9486 26.7518V28.3334C44.9486 29.2543 45.6947 30.0004 46.6148 30.0004C47.5357 30.0004 48.2818 29.2543 48.2818 28.3334V26.7518C51.239 26.9601 54.129 27.736 56.7932 29.0368L56.0051 30.4017C55.7022 30.9175 55.6999 31.5561 55.9975 32.0749C56.2958 32.5937 56.8481 32.9126 57.4463 32.9111C58.0444 32.9103 58.596 32.5883 58.8913 32.0688L59.6901 30.6848C62.1445 32.3526 64.2616 34.4697 65.9286 36.9249L64.5447 37.7237C64.0251 38.0189 63.7031 38.5705 63.7024 39.1687C63.7009 39.7668 64.0198 40.32 64.5386 40.6175C65.0574 40.9158 65.6959 40.9128 66.2117 40.6099L67.5781 39.8218C68.8797 42.4859 69.6556 45.376 69.8631 48.3331H68.2815C67.3614 48.3331 66.6153 49.08 66.6153 50.0001C66.6153 50.9202 67.3614 51.6672 68.2815 51.6672H69.8631C69.6556 54.6243 68.8797 57.5143 67.5781 60.1785L66.2117 59.3904C65.4152 58.9372 64.4028 59.2119 63.9442 60.0053C63.4865 60.7988 63.755 61.8135 64.5447 62.2766L65.9286 63.0754C64.2616 65.5305 62.1445 67.6477 59.6901 69.3155Z" fill="#B3D337"/>
<path d="M48.2819 49.3102V34.9998C48.2819 34.0797 47.5357 33.3335 46.6149 33.3335C45.6948 33.3335 44.9486 34.0797 44.9486 34.9998V49.9999C44.9486 50.4417 45.1241 50.8658 45.4369 51.1779L57.103 62.8448C57.7576 63.4765 58.7967 63.4673 59.4399 62.8249C60.0823 62.1818 60.0914 61.1419 59.4597 60.488L48.2819 49.3102Z" fill="#B3D337"/>
</g>
<defs>
<clipPath id="clip0_2161_590">
<rect width="100" height="100" fill="white"/>
</clipPath>
</defs>
</svg>
