<svg width="100" height="100" viewBox="0 0 100 100" fill="none" xmlns="http://www.w3.org/2000/svg">
<g clip-path="url(#clip0_2161_596)">
<path d="M43.3333 90.0001C39.25 90.0001 32.8817 88.5001 25.73 81.4001L25.575 81.2451C20.2848 75.9928 16.1587 69.6862 13.465 62.7351C13.3063 62.3225 12.9902 61.9898 12.5862 61.8102C12.1822 61.6306 11.7235 61.6189 11.3108 61.7776C10.8982 61.9363 10.5655 62.2524 10.3859 62.6564C10.2064 63.0604 10.1946 63.5191 10.3533 63.9318C13.2164 71.3203 17.6019 78.0239 23.225 83.6068L23.3767 83.7601C31.3333 91.6668 38.6233 93.3334 43.3333 93.3334C43.7754 93.3334 44.1993 93.1578 44.5119 92.8453C44.8244 92.5327 45 92.1088 45 91.6668C45 91.2247 44.8244 90.8008 44.5119 90.4882C44.1993 90.1757 43.7754 90.0001 43.3333 90.0001Z" fill="#B3D337"/>
<path d="M11.455 56.2798C10.9471 54.1508 10.5725 51.9921 10.3333 49.8165C10.3093 49.5989 10.2426 49.3882 10.1371 49.1964C10.0316 49.0046 9.88933 48.8355 9.71847 48.6987C9.54761 48.5619 9.35148 48.4601 9.14127 48.3991C8.93106 48.3381 8.71089 48.319 8.49333 48.3431C8.27578 48.3672 8.06509 48.4339 7.87331 48.5394C7.68153 48.6449 7.5124 48.7871 7.37559 48.958C7.23878 49.1288 7.13696 49.325 7.07595 49.5352C7.01494 49.7454 6.99593 49.9656 7.02 50.1831C7.27619 52.4969 7.67642 54.7925 8.21833 57.0565C8.30568 57.4194 8.51233 57.7425 8.80516 57.9739C9.09799 58.2054 9.46006 58.3319 9.83333 58.3331C9.96517 58.333 10.0966 58.3179 10.225 58.2881C10.6542 58.1846 11.0248 57.9149 11.2555 57.5384C11.4861 57.1619 11.5578 56.7092 11.455 56.2798Z" fill="#B3D337"/>
<path d="M100 37.9332C99.9968 36.7105 99.547 35.531 98.7352 34.6167C97.9233 33.7024 96.8054 33.1161 95.5917 32.9682C91.375 32.4482 87.61 32.0849 84.1784 31.8599C80.4883 23.2932 73.4383 17.7082 65.12 16.8599C59.6557 16.1519 54.1039 17.0738 49.1617 19.5099C51.015 12.0715 55.435 9.54821 55.6084 9.45154C56.7609 8.83468 57.6261 7.79095 58.0185 6.54395C58.4109 5.29695 58.2993 3.94586 57.7076 2.78015C57.1159 1.61443 56.0912 0.726808 54.853 0.307438C53.6148 -0.111932 52.2616 -0.0296916 51.0833 0.53654C46.95 2.98135 43.6639 6.63266 41.6667 10.9999C39.753 8.24893 37.3084 5.90857 34.4767 4.11654C31.3421 2.06523 27.7888 0.740409 24.0764 0.238946C20.364 -0.262517 16.5865 0.0720583 13.02 1.21821C12.0666 1.51714 11.2464 2.13758 10.6993 2.9737C10.1522 3.80983 9.91213 4.80985 10.02 5.80321C10.7551 10.4099 12.6456 14.7551 15.515 18.4332C6.46168 22.2782 1.14951e-05 32.3332 1.14951e-05 43.7999C-0.0264035 52.0856 1.59998 60.2933 4.78399 67.9428C7.968 75.5923 12.6457 82.53 18.5433 88.3499L18.6817 88.4865C28.2433 97.9999 37.365 99.9999 43.3333 99.9999C49.3017 99.9999 58.4234 97.9999 67.985 88.4865L68.12 88.3532C73.91 82.596 78.5221 75.7653 81.6983 68.2432C90.23 67.8615 95.9134 66.0115 98.5417 62.7082C99.0664 62.0954 99.4653 61.3853 99.7155 60.6183C99.9658 59.8513 100.062 59.0426 100 58.2382V37.9332ZM96.6667 37.9332V56.4432C94.47 56.1649 92.2567 55.8899 90 55.6515V49.9999C90 49.5578 89.8244 49.1339 89.5119 48.8214C89.1993 48.5088 88.7754 48.3332 88.3334 48.3332C87.8913 48.3332 87.4674 48.5088 87.1548 48.8214C86.8423 49.1339 86.6667 49.5578 86.6667 49.9999V55.3332C84.5117 55.1665 82.2934 55.0465 80 55.0149V49.9999C80 49.5578 79.8244 49.1339 79.5119 48.8214C79.1993 48.5088 78.7754 48.3332 78.3334 48.3332C77.8913 48.3332 77.4674 48.5088 77.1548 48.8214C76.8423 49.1339 76.6667 49.5578 76.6667 49.9999V55.0315C74.5284 55.0849 72.315 55.2165 70 55.4649V51.6665C70 51.2245 69.8244 50.8006 69.5119 50.488C69.1993 50.1755 68.7754 49.9999 68.3334 49.9999C67.8913 49.9999 67.4674 50.1755 67.1548 50.488C66.8423 50.8006 66.6667 51.2245 66.6667 51.6665V55.8915C64.5333 56.2049 62.3111 56.6199 60 57.1365V53.3332C60 52.8912 59.8244 52.4673 59.5119 52.1547C59.1993 51.8421 58.7754 51.6665 58.3333 51.6665C57.8913 51.6665 57.4674 51.8421 57.1548 52.1547C56.8423 52.4673 56.6667 52.8912 56.6667 53.3332V57.9449C54.5322 58.5004 52.31 59.1588 50 59.9199V56.6665C50 56.2245 49.8244 55.8006 49.5119 55.488C49.1993 55.1755 48.7754 54.9999 48.3333 54.9999C47.8913 54.9999 47.4674 55.1755 47.1548 55.488C46.8423 55.8006 46.6667 56.2245 46.6667 56.6665V60.9449C44.4767 61.5634 42.2501 62.0444 40 62.3849V58.3332C40 57.8912 39.8244 57.4673 39.5119 57.1547C39.1993 56.8421 38.7754 56.6665 38.3333 56.6665C37.8913 56.6665 37.4674 56.8421 37.1548 57.1547C36.8423 57.4673 36.6667 57.8912 36.6667 58.3332V62.7799C34.4492 62.9688 32.2204 62.9878 30 62.8365V58.3332C30 57.8912 29.8244 57.4673 29.5119 57.1547C29.1993 56.8421 28.7754 56.6665 28.3333 56.6665C27.8913 56.6665 27.4674 56.8421 27.1548 57.1547C26.8423 57.4673 26.6667 57.8912 26.6667 58.3332V62.4615C24.7801 62.1741 22.9251 61.7081 21.1267 61.0699C20.8 60.9562 20.5164 60.7443 20.3147 60.4633C20.113 60.1823 20.0031 59.8458 20 59.4999V41.1665C19.9988 40.9086 20.0575 40.654 20.1715 40.4226C20.2854 40.1913 20.4515 39.9895 20.6567 39.8332C20.9425 39.6109 21.2945 39.4906 21.6567 39.4915C21.7986 39.4914 21.9399 39.5105 22.0767 39.5482C28.51 41.2632 40.7683 43.5865 50.595 39.9015C63.2317 35.1499 72.6667 33.4999 95.185 36.2765C95.5915 36.3245 95.9665 36.5194 96.2394 36.8245C96.5123 37.1296 96.6642 37.5239 96.6667 37.9332ZM52.59 3.50987C52.787 3.41423 53.0009 3.35832 53.2195 3.34533C53.4381 3.33235 53.6571 3.36255 53.864 3.4342C54.0709 3.50586 54.2617 3.61757 54.4254 3.76296C54.5892 3.90834 54.7227 4.08456 54.8183 4.28154C54.914 4.47852 54.9699 4.69242 54.9829 4.91101C54.9959 5.1296 54.9657 5.3486 54.894 5.55552C54.8224 5.76244 54.7107 5.95322 54.5653 6.11697C54.4199 6.28072 54.2437 6.41423 54.0467 6.50987C53.3117 6.91321 47.025 10.6932 45.41 21.3832C44.3073 21.6986 43.1467 21.7557 42.0183 21.5499C43.7383 8.49987 51.6833 3.97987 52.59 3.50987ZM13.3333 5.45987C13.3068 5.22628 13.3635 4.99082 13.4933 4.79484C13.6232 4.59886 13.8179 4.45488 14.0433 4.38821C17.1366 3.37258 20.4202 3.07273 23.6463 3.51129C26.8724 3.94985 29.9568 5.11535 32.6667 6.91987C35.8133 8.87007 38.3747 11.6341 40.08 14.9199C39.5226 16.6616 39.1051 18.445 38.8317 20.2532C37.791 19.6275 36.7033 19.0836 35.5783 18.6265C32.4815 13.664 27.6656 10.0158 22.05 8.37821C21.6197 8.27698 21.1668 8.35085 20.7909 8.58355C20.4151 8.81625 20.1471 9.18873 20.0458 9.61904C19.9446 10.0494 20.0185 10.5023 20.2512 10.8781C20.4839 11.254 20.8564 11.522 21.2867 11.6232C24.6855 12.6576 27.7598 14.5521 30.2117 17.1232C27.3518 16.6388 24.4389 16.5508 21.555 16.8615C20.6619 16.9573 19.776 17.1121 18.9033 17.3249C16.0201 13.9385 14.0967 9.84144 13.3333 5.45987ZM65.7767 85.9832L65.6334 86.1249C56.8767 94.8332 48.6667 96.6665 43.3333 96.6665C38 96.6665 29.79 94.8332 21.0333 86.1249L20.8883 85.9815C15.3048 80.4708 10.8763 73.9018 7.86202 66.659C4.84772 59.4161 3.30814 51.6449 3.33334 43.7999C3.33334 33.1032 10.2717 21.3415 21.8883 20.1665C27.2804 19.4128 32.7685 20.5147 37.4517 23.2915C39.2131 24.3993 41.2517 24.987 43.3325 24.987C45.4134 24.987 47.4519 24.3993 49.2133 23.2915C53.9007 20.5226 59.3871 19.4212 64.78 20.1665C68.1472 20.5993 71.3487 21.8821 74.0832 23.894C76.8176 25.9059 78.9949 28.5807 80.41 31.6665C69.825 31.0385 59.2334 32.7844 49.41 36.7765C40.455 40.1365 28.9733 37.9432 22.925 36.3249C22.1856 36.1326 21.4119 36.1123 20.6634 36.2656C19.9149 36.4189 19.2115 36.7417 18.6072 37.2093C18.0029 37.6768 17.5138 38.2766 17.1774 38.9625C16.841 39.6485 16.6663 40.4025 16.6667 41.1665V59.4999C16.6724 60.529 16.9929 61.5318 17.5852 62.3735C18.1775 63.2152 19.0132 63.8554 19.98 64.2082C24.1259 65.6603 28.4942 66.375 32.8867 66.3199C38.3321 66.2653 43.739 65.4008 48.93 63.7549C48.9533 63.7449 48.9767 63.7432 48.9983 63.7332C49.4983 63.5765 50.0083 63.4282 50.5267 63.2565C60.4705 59.7535 70.9729 58.1057 81.5117 58.3949C78.8633 68.8468 73.4245 78.3827 65.7767 85.9832ZM83.04 64.8332C83.7736 62.7742 84.3961 60.6773 84.905 58.5515C88.8684 58.8149 92.6267 59.2849 96.345 59.7549L96.4517 59.7699C96.2953 60.1249 96.0869 60.4546 95.8334 60.7482C94.7117 62.0749 91.57 64.2465 83.04 64.8332Z" fill="#B3D337"/>
</g>
<defs>
<clipPath id="clip0_2161_596">
<rect width="100" height="100" fill="white"/>
</clipPath>
</defs>
</svg>
