<svg width="100" height="100" viewBox="0 0 100 100" fill="none" xmlns="http://www.w3.org/2000/svg">
<path d="M93.1672 54.0079C92.6754 53.2751 92.1836 52.4259 91.6656 51.5177C88.6787 46.3439 84.164 38.5243 72.1312 38.5243C68.9199 38.4861 65.7091 38.641 62.5164 38.9882C60.8936 39.1854 59.2591 39.2692 57.6246 39.239L79.2345 17.1193C81.1099 15.1841 81.0858 12.1021 79.1804 10.1964C78.2747 9.23689 77.0007 8.71216 75.682 8.75541C74.3684 8.7572 73.1111 9.2892 72.1951 10.2308L44.8656 38.0521C37.1061 36.2991 30.724 30.8065 27.8345 23.3947C27.6459 22.0029 26.3935 17.2128 18.0328 17.2128C12.9138 16.9669 8.55197 20.8899 8.25578 26.0062L2.54594 28.8603C2.09302 29.0873 1.77047 29.5109 1.67217 30.0079C1.17504 32.6139 1.74884 35.3104 3.26397 37.4882C4.92071 39.3517 7.34889 40.3402 9.83611 40.1636H16.4492C16.6167 43.0384 17.0053 45.896 17.6115 48.7111C18.1118 51.0321 18.7953 53.3097 19.6558 55.5226L19.6689 55.5538C21.0843 59.3681 23.3687 62.8003 26.341 65.5783C27.1257 70.1872 27.6359 74.8385 27.8689 79.5079C27.7979 82.1109 26.8063 84.6045 25.0705 86.5456L23.4312 88.1849C23.1237 88.4923 22.951 88.9092 22.9509 89.3439V90.9833C22.9509 91.8887 23.6848 92.6226 24.5902 92.6226H29.5082C29.7608 92.6252 30.0106 92.5691 30.2377 92.4587L30.3558 92.398C30.5955 92.5408 30.8686 92.6182 31.1476 92.6226H36.0656C36.3193 92.6254 36.5701 92.5693 36.7984 92.4587C38.0443 91.8341 44.2623 88.5243 44.2623 84.4259V67.857C44.9591 67.6816 45.6492 67.5292 46.3591 67.3128C48.5246 66.6816 50.7525 65.939 52.9066 65.2193C57.2702 63.5885 61.7822 62.3861 66.3787 61.6292C67.1042 61.5546 67.7861 61.9871 68.0279 62.6751C69.927 67.5418 73.3771 71.647 77.8443 74.3554C84.6836 78.4587 85.2312 81.1472 85.2459 81.1472V85.3849L82.4476 88.1833C82.1397 88.491 81.9669 88.9086 81.9672 89.3439V90.9833C81.9672 91.8887 82.7012 92.6226 83.6066 92.6226H91.8033C93.6141 92.6226 95.082 91.1547 95.082 89.3439V76.9013C95.0805 76.035 94.737 75.2043 94.1263 74.5898L89.3886 69.8505C88.207 68.6325 87.7145 66.9033 88.0771 65.2456C88.2333 64.4272 88.3167 63.5967 88.3263 62.7636C92.8689 68.7472 96.182 69.7324 97.8427 69.7324C98.1922 69.7375 98.5403 69.6866 98.8738 69.5816C99.302 69.4388 99.6524 69.1256 99.8423 68.7161C100.032 68.3066 100.045 67.8368 99.8771 67.4177C98.0189 62.7682 95.7744 58.2826 93.1672 54.0079ZM74.5394 12.5243C74.8452 12.2101 75.2649 12.0328 75.7033 12.0325C76.3651 12.0286 76.9644 12.423 77.2225 13.0324C77.4806 13.6419 77.3469 14.3467 76.8836 14.8193L52.7541 39.5341L44.7541 47.3767C44.601 47.5274 44.479 47.7068 44.3951 47.9046C44.3118 48.1034 44.2689 48.3169 44.2689 48.5325V64.4702C43.5935 64.6505 42.9131 64.8423 42.2541 64.9931C41.8082 65.0997 41.3984 65.18 40.9902 65.262V54.9177C40.9902 54.0123 40.2562 53.2784 39.3509 53.2784H22.3476C21.9683 52.2259 21.6285 51.133 21.3279 49.9997H36.705C36.7394 49.9997 36.7689 49.9816 36.8033 49.98C37.1426 49.9812 37.4695 49.8521 37.7164 49.6193C37.7628 49.5923 37.8077 49.5628 37.8509 49.5308L37.8607 49.521L46.5574 41.0013L74.5394 12.5243ZM5.80824 35.4177C4.99926 34.2429 4.64181 32.8154 4.80168 31.398L10.5689 28.5243C11.1274 28.2452 11.4789 27.6732 11.4754 27.0488C11.4754 26.7816 11.5509 20.4915 18.0328 20.4915C24.2525 20.4915 24.5738 23.4669 24.5902 23.7702C24.5906 23.9463 24.6194 24.1212 24.6754 24.2882C27.6502 32.1708 34.0887 38.2447 42.1312 40.7554L36.0361 46.721H20.5558C20.1266 44.4466 19.8467 42.1466 19.7181 39.8357C22.3327 38.8109 24.5267 36.9367 25.9476 34.5144C26.4501 33.7611 26.2468 32.7431 25.4935 32.2406C24.7402 31.7382 23.7222 31.9415 23.2197 32.6947C22.1936 34.5011 20.6004 35.9186 18.6869 36.7275C17.1246 34.2144 17.6509 29.1095 17.9935 27.3669C18.1053 26.5124 17.5365 25.7173 16.6917 25.5471C15.8469 25.377 15.0146 25.8899 14.7869 26.721C14.0964 30.0901 14.2251 33.5759 15.1623 36.8849H9.83611C8.34074 37.0297 6.86013 36.4904 5.80824 35.4177ZM29.1033 89.3439H26.9082L27.3886 88.8636C29.7459 86.3112 31.0836 82.9818 31.1476 79.5079C30.8932 74.471 30.3381 69.4539 29.4853 64.4833C29.4636 64.4091 29.4362 64.3368 29.4033 64.2669C29.375 64.1535 29.3343 64.0435 29.282 63.939C29.219 63.8395 29.1453 63.7471 29.0623 63.6636C29.0186 63.6026 28.9715 63.544 28.9213 63.4882C26.7259 61.5644 24.9559 59.2037 23.7246 56.557H37.705V65.7374C37.1492 65.7816 36.6017 65.8095 36.0656 65.8095C35.1602 65.8095 34.4263 66.5435 34.4263 67.4488V84.4259C34.3527 84.9433 34.1241 85.4263 33.7705 85.8111C32.4301 87.249 30.8511 88.4442 29.1033 89.3439ZM35.6607 89.3439H34.8689C35.4025 88.8893 35.8961 88.3896 36.3443 87.8505C37.1723 86.8958 37.652 85.6885 37.705 84.4259V69.0161C38.3197 68.9734 38.9361 68.9095 39.5443 68.821C40.0033 68.7636 40.4869 68.6849 40.9836 68.598V84.4259C40.9836 85.8292 38 88.1046 35.6672 89.3439H35.6607ZM86.6935 54.1685C86.6528 54.1146 86.6091 54.0631 86.5623 54.0144C86.516 53.9241 86.4611 53.8385 86.3984 53.7587C85.9042 53.2587 85.145 53.132 84.5152 53.4445C83.8855 53.7569 83.5271 54.4381 83.6263 55.1341V55.1685C83.6365 55.2687 83.6568 55.3675 83.6869 55.4636L83.7197 55.5587C84.8213 58.4414 85.211 61.5473 84.8558 64.6128C84.2762 67.3432 85.1028 70.1824 87.0574 72.1751L91.8033 76.9013V89.3439H85.9246L88.0443 87.2243C88.3518 86.9169 88.5245 86.5 88.5246 86.0652V81.1472C88.5246 80.4439 88.0902 76.68 79.5345 71.5456C75.6919 69.2158 72.7237 65.6853 71.0886 61.4997C70.3145 59.4132 68.2181 58.1229 66.0066 58.3718C61.1821 59.1477 56.4464 60.3997 51.8689 62.1095C50.4394 62.5866 48.9853 63.0603 47.5394 63.5144V49.2292L54.5246 42.3849C57.2997 42.6196 60.0914 42.574 62.8574 42.2488C65.9369 41.9145 69.0338 41.7656 72.1312 41.8029C82.2705 41.8029 85.9017 48.098 88.8263 53.157C89.3869 54.1308 89.9148 55.039 90.4394 55.8275C92.3593 58.9016 94.0423 62.1175 95.4738 65.4472C93.5509 64.1357 90.564 61.1128 86.6935 54.1685Z" fill="#B3D337"/>
</svg>
