<svg width="100" height="100" viewBox="0 0 100 100" fill="none" xmlns="http://www.w3.org/2000/svg">
<g clip-path="url(#clip0_2161_412)">
<path d="M86.6667 81.6667C86.6667 80.7462 85.9205 80 85 80H11.6667C10.7462 80 10 80.7462 10 81.6667C10 82.5871 10.7462 83.3333 11.6667 83.3333H85C85.9205 83.3333 86.6667 82.5871 86.6667 81.6667Z" fill="#B3D337"/>
<path d="M65.0001 90.0002C65.0001 89.0797 64.2539 88.3335 63.3334 88.3335H23.3334C22.4129 88.3335 21.6667 89.0797 21.6667 90.0002C21.6667 90.9206 22.4129 91.6668 23.3334 91.6668H63.3334C64.2539 91.6668 65.0001 90.9206 65.0001 90.0002Z" fill="#B3D337"/>
<path d="M29.9999 96.6665C29.0794 96.6665 28.3333 97.4127 28.3333 98.3332C28.3333 99.2536 29.0794 99.9998 29.9999 99.9998H46.6666C47.5871 99.9998 48.3333 99.2536 48.3333 98.3332C48.3333 97.4127 47.5871 96.6665 46.6666 96.6665H29.9999Z" fill="#B3D337"/>
<path d="M0 75C0 75.9205 0.746192 76.6666 1.66667 76.6666H98.3333C99.2538 76.6666 100 75.9205 100 75C100 74.0795 99.2538 73.3333 98.3333 73.3333H71.4283C70.9457 70.6039 69.1712 68.2773 66.6667 67.09V55H68.3833C71.0958 55.0162 73.3206 52.8551 73.3833 50.1433C73.3867 44.6378 73.9112 39.145 74.95 33.7383C75.6705 30.6736 77.0108 27.7888 78.8883 25.2616C83.7465 27.1184 88.8857 28.133 94.085 28.2617C96.1878 28.3538 98.1256 27.1268 98.9417 25.1867L99.6083 23.5716C100.486 21.4608 99.8206 19.0233 97.9917 17.6516C95.705 15.9283 90.085 11.345 87.3017 6.02665C87.2123 5.85991 87.1132 5.69852 87.005 5.54332C88.5615 4.93532 89.9788 4.01858 91.1717 2.84832C91.7783 2.19209 91.7594 1.17421 91.1288 0.540956C90.4983 -0.0922962 89.4805 -0.115517 88.8217 0.488317C86.8387 2.23765 84.3094 3.24337 81.6667 3.33332H80.35C78.5602 3.34314 76.9103 4.30263 76.0167 5.85332C71.9409 12.6345 64.578 16.7491 56.6667 16.6666C50.0733 16.6666 41.2983 16.03 32.7317 15.18C32.6864 15.1725 32.6408 15.1675 32.595 15.165C24.075 14.3166 15.7733 13.2583 10.045 12.4067C8.42552 12.1642 6.78997 12.7302 5.66667 13.9216C5.23683 14.3946 4.90287 14.9465 4.68333 15.5466C0.00833313 21.0166 0 29.105 0 48.3333C0 49.2538 0.746192 50 1.66667 50C2.58714 50 3.33333 49.2538 3.33333 48.3333C3.33333 34.2866 3.33333 26.475 5.075 21.54C6.73819 29.8586 7.82687 38.2818 8.33333 46.75C8.435 48.7766 8.36667 54.2783 8.34333 55.9166C8.33119 56.603 8.46291 57.2843 8.73 57.9166C10.6119 62.8408 11.598 68.0619 11.6417 73.3333H1.66667C0.746192 73.3333 0 74.0795 0 75ZM21.56 67.1383L20.68 58.2617C21.0133 58.29 21.3467 58.3333 21.6667 58.3333C22.14 58.327 22.6126 58.2919 23.0817 58.2283L23.5117 59.0833C23.9296 59.8982 24.9268 60.2232 25.7447 59.8111C26.5625 59.3989 26.8946 58.4041 26.4883 57.5833L26.3617 57.335C27.1699 56.9787 27.9349 56.5314 28.6417 56.0017L28.8217 56.1816C29.4756 56.8133 30.5151 56.8042 31.158 56.1613C31.8009 55.5185 31.81 54.4789 31.1783 53.825L30.9917 53.6383C31.2841 53.2503 31.5513 52.8439 31.7917 52.4216C34.4807 53.057 37.2371 53.3632 40 53.3333C44.9063 53.3136 49.744 52.1801 54.1483 50.0183C54.5132 51.7052 55.1552 53.3198 56.0483 54.7966C56.4356 55.3641 56.6504 56.0315 56.6667 56.7183V73.3333H26.485C25.9517 70.5888 24.1136 68.2767 21.56 67.1383ZM20.0833 52.2333C21.2945 50.8048 22.2579 49.1835 22.9333 47.4366C24.5042 49.1205 26.4093 50.4579 28.5267 51.3633C26.6927 53.999 23.516 55.3576 20.3433 54.8633L20.0833 52.2333ZM30.2283 48.475C30.8333 46.0916 32.72 43.3333 35.8333 43.3333C37.0655 43.3338 38.2332 43.8838 39.0183 44.8333C39.4851 45.3953 40.2634 45.5879 40.9383 45.3083C41.4337 45.1042 41.9643 44.9994 42.5 45C44.8012 45 46.6667 46.8655 46.6667 49.1666V49.19C44.4846 49.7243 42.2465 49.9962 40 50C36.6763 50.104 33.3623 49.5868 30.2283 48.475ZM65.8533 18.3933L64.7483 22.27C64.4384 23.3387 63.4627 24.0764 62.35 24.0833C59.4937 24.0742 57.0531 26.1398 56.59 28.9583L56.3217 30.5633C55.9391 32.8268 54.1453 34.5882 51.8752 34.9294C49.6051 35.2706 47.3727 34.1143 46.3417 32.0633C45.505 30.3766 43.7828 29.3116 41.9 29.3167C41.7152 29.3135 41.5303 29.3224 41.3467 29.3433L34.2567 30.1433C31.757 30.4049 29.4108 28.8962 28.6117 26.5133C28.4269 25.9725 28.3329 25.4048 28.3333 24.8333C28.3257 23.2112 29.0629 21.6753 30.3333 20.6666L32.975 18.55C41.4617 19.3833 50.11 20 56.6583 20C59.7948 20.0196 62.9093 19.4754 65.8533 18.3933ZM9.55333 15.705C11.8767 16.05 14.63 16.4283 17.6383 16.815L16.6 19.9116C15.9291 21.9564 14.0187 23.3374 11.8667 23.3333H8.80833C8.40333 21.1283 8.015 19.205 7.69167 17.6766C7.57604 17.149 7.72963 16.5983 8.10167 16.2066C8.47348 15.8107 9.01637 15.6231 9.55333 15.705ZM11.8033 56.615C11.7153 56.4099 11.6727 56.1881 11.6783 55.965C11.7017 54.2983 11.7717 48.71 11.665 46.5833C11.2876 39.9066 10.5291 33.2569 9.39333 26.6666H11.8667C15.4555 26.674 18.642 24.3725 19.7633 20.9633L21.015 17.235C23.34 17.5166 25.77 17.7966 28.26 18.0683C26.1932 19.7039 24.9915 22.1976 25 24.8333C24.9991 25.7647 25.1517 26.6899 25.4517 27.5716C26.7481 31.441 30.5605 33.8886 34.6183 33.4566L41.7183 32.6567H41.8983C42.5192 32.6628 43.0841 33.0171 43.36 33.5733C44.8213 36.4982 47.8137 38.3425 51.0833 38.3333C51.5598 38.3333 52.0354 38.2926 52.505 38.2117C56.1521 37.613 59.0113 34.7552 59.6117 31.1083L59.8783 29.5067C59.9714 28.9216 60.2712 28.3894 60.7233 28.0067C61.179 27.6238 61.7549 27.4138 62.35 27.4133C64.9468 27.4009 67.2261 25.6817 67.9517 23.1883L69.8683 16.4717C73.5657 14.272 76.6647 11.1959 78.8917 7.51498C79.1873 6.99044 79.7429 6.66614 80.345 6.66665H82.8833C83.5032 6.67097 84.0694 7.01894 84.3533 7.56998C86.1837 10.8276 88.5213 13.7729 91.2783 16.295L89.57 19.1416C89.096 19.931 89.3515 20.9551 90.1408 21.4291C90.9301 21.9032 91.9543 21.6476 92.4283 20.8583L93.805 18.5633C94.6633 19.285 95.4283 19.8967 95.9917 20.3116C96.6045 20.7681 96.8284 21.5828 96.535 22.2883L95.8683 23.9033C95.6003 24.5495 94.9573 24.9596 94.2583 24.93C84.8117 24.4517 78.005 22.2766 76.495 19.2633C76.0835 18.4395 75.0822 18.1052 74.2583 18.5166C73.4345 18.9281 73.1002 19.9295 73.5117 20.7533C74.1042 21.8782 74.9483 22.8513 75.9783 23.5966C73.9658 26.4015 72.5194 29.5717 71.72 32.93C70.6385 38.5748 70.0806 44.3075 70.0533 50.055C70.0245 50.9546 69.2867 51.6688 68.3867 51.6683H66.6667V45C66.6667 44.0795 65.9205 43.3333 65 43.3333C64.0795 43.3333 63.3333 44.0795 63.3333 45V53.345V68.1233C63.4086 68.9486 63.9643 69.6514 64.75 69.915C66.3298 70.4568 67.5488 71.7311 68.02 73.3333H60V56.7183C59.9846 55.3878 59.5833 54.0903 58.845 52.9833C56.7017 49.6666 56.6667 43.395 56.6667 43.3333C56.6667 42.4128 55.9205 41.6666 55 41.6666C54.0795 41.6666 53.3333 42.4128 53.3333 43.3333C53.3488 44.4225 53.4211 45.51 53.55 46.5916C52.372 47.2102 51.1537 47.7486 49.9033 48.2033C49.6368 46.1007 48.49 44.2102 46.7484 43.0023C45.0069 41.7944 42.8344 41.3829 40.7717 41.87C39.4092 40.6645 37.6526 39.9993 35.8333 40C31.7644 40.1508 28.2709 42.9404 27.2233 46.875C25.9969 45.9987 24.9449 44.901 24.1217 43.6383C24.6578 41.3516 24.9522 39.0149 25 36.6666C25 35.7462 24.2538 35 23.3333 35C22.4129 35 21.6667 35.7462 21.6667 36.6666C21.6667 36.7533 21.605 45.44 17.5783 50.0366C16.9628 50.7259 16.661 51.6397 16.745 52.56L17.1333 56.4233V56.4633L18.315 68.2116C18.3882 69.037 18.945 69.7399 19.7317 70C21.3061 70.5236 22.5414 71.7589 23.065 73.3333H14.9767C14.942 67.6142 13.8667 61.9491 11.8033 56.615Z" fill="#B3D337"/>
</g>
<defs>
<clipPath id="clip0_2161_412">
<rect width="100" height="100" fill="white"/>
</clipPath>
</defs>
</svg>
