<svg width="100" height="100" viewBox="0 0 100 100" fill="none" xmlns="http://www.w3.org/2000/svg">
<g clip-path="url(#clip0_2161_419)">
<path d="M71.667 0.00195312H63.3339C61.016 0.00742168 59.0059 1.60502 58.4774 3.86178L53.3345 0.893523C51.2707 -0.292958 48.7319 -0.292958 46.6681 0.893523L3.33621 25.8926C0.99977 27.2401 -0.294521 29.8628 0.0572247 32.5369C0.40897 35.2111 2.33742 37.4098 4.9428 38.1073L5.00275 38.119V93.3321C5.00275 97.0138 7.98741 99.9984 11.6691 99.9984H88.333C92.0147 99.9984 94.9994 97.0138 94.9994 93.3321V38.1157C96.7294 37.6674 98.2081 36.5458 99.1059 35.0007C99.9904 33.4695 100.23 31.6495 99.7727 29.9413C99.3151 28.2332 98.1975 26.7768 96.6659 25.8928L76.6666 14.3565V5.00178C76.6668 2.24035 74.4284 0.00195312 71.667 0.00195312ZM61.6674 5.00178C61.6674 4.0813 62.4134 3.33523 63.3339 3.33523H71.667C72.5875 3.33523 73.3335 4.0815 73.3335 5.00178V12.4332L61.6674 5.70175V5.00178ZM88.3332 96.6652H11.6691C9.82817 96.6652 8.33584 95.1728 8.33584 93.3319V38.1239C8.9198 37.9733 9.48033 37.744 10.0024 37.4422L50.001 14.3647L89.9996 37.4407C90.5216 37.7416 91.0823 37.97 91.6661 38.119V93.3321C91.6663 95.1728 90.174 96.6652 88.3332 96.6652ZM96.5513 30.8042C96.7821 31.6577 96.662 32.568 96.2179 33.3324C95.2687 34.8874 93.2666 35.4249 91.6663 34.5541L50.8345 11.0016C50.3189 10.7039 49.6836 10.7039 49.168 11.0016L8.33603 34.5558C6.74136 35.4763 4.70237 34.9296 3.78209 33.335C2.86162 31.7403 3.40828 29.7013 5.00295 28.781L48.3348 3.7819C49.366 3.18641 50.6367 3.18641 51.6681 3.7819L95 28.781C95.766 29.2214 96.3245 29.9499 96.5513 30.8042Z" fill="#B3D337"/>
<path d="M76.6668 38.3339H65.9672L61.2207 30.0291C60.0344 27.951 57.8255 26.6681 55.4326 26.6675H44.5697C42.1778 26.6683 39.9697 27.9504 38.7832 30.0273L34.0351 38.3337H23.3355C19.6538 38.3337 16.6691 41.3183 16.6691 45V83.3321C16.6691 87.0138 19.6538 89.9985 23.3355 89.9985H76.667C80.3487 89.9985 83.3334 87.0138 83.3334 83.3321V45.0002C83.3334 41.3185 80.3487 38.3339 76.6668 38.3339ZM80.0001 45.0002V50.0001H75.0003C73.1593 50.0001 71.667 48.5077 71.667 46.6668V41.6669H76.6668C78.5078 41.6669 80.0001 43.1593 80.0001 45.0002ZM41.6782 31.679C42.2716 30.6418 43.3748 30.0013 44.5697 30.0008H55.4326C56.6287 30.0011 57.7327 30.6421 58.3259 31.6808L62.1291 38.3339H37.8733L41.6782 31.679ZM23.3355 41.6669H28.3353V46.6668C28.3353 48.5077 26.843 50.0001 25.0021 50.0001H20.0022V45.0002C20.0022 43.1593 21.4946 41.6669 23.3355 41.6669ZM76.6668 86.6654H23.3355C21.4946 86.6654 20.0022 85.173 20.0022 83.3321V65.7393C21.0112 66.3391 22.1617 66.659 23.3355 66.6661H40.0015C40.0015 69.4273 42.2401 71.6659 45.0013 71.6659H55.001C57.7622 71.6659 60.0008 69.4273 60.0008 66.6661H76.6668C77.8406 66.6592 78.9912 66.3393 80.0001 65.7393V83.3321C80.0001 85.173 78.5078 86.6654 76.6668 86.6654ZM43.3348 66.6661V63.3328C43.3348 62.4123 44.0811 61.6662 45.0013 61.6662H55.001C55.9215 61.6662 56.6675 62.4125 56.6675 63.3328V66.6661C56.6675 67.5865 55.9215 68.3326 55.001 68.3326H45.0013C44.0809 68.3328 43.3348 67.5865 43.3348 66.6661ZM76.6668 63.333H60.0008C60.0008 60.5718 57.7622 58.3332 55.001 58.3332H45.0013C42.2401 58.3332 40.0015 60.5718 40.0015 63.333H23.3355C21.4946 63.333 20.0022 61.8407 20.0022 59.9997V53.3333H25.0021C28.6838 53.3333 31.6684 50.3487 31.6684 46.667V41.6671H68.3337V46.667C68.3337 50.3487 71.3184 53.3333 75.0001 53.3333H79.9999V59.9997C80.0001 61.8407 78.5078 63.333 76.6668 63.333Z" fill="#B3D337"/>
</g>
<defs>
<clipPath id="clip0_2161_419">
<rect width="100" height="100" fill="white"/>
</clipPath>
</defs>
</svg>
